<svg version="1.1" xmlns="http://www.w3.org/2000/svg" viewBox="0 0 571.7305458916558 463.7435077974974" width="571.7305458916558" height="463.7435077974974">
  <!-- svg-source:excalidraw -->
  
  <defs>
    <style class="style-fonts">
      @font-face {
        font-family: "Virgil";
        src: url("https://excalidraw.com/Virgil.woff2");
      }
      @font-face {
        font-family: "Cascadia";
        src: url("https://excalidraw.com/Cascadia.woff2");
      }
    </style>
    
  </defs>
  <g stroke-linecap="round"><g transform="translate(32.16850164683228 153.00823827707222) rotate(0 48.95377007674864 46.109540024588114)" fill-rule="evenodd"><path d="M0 0 C0 0, 0 0, 0 0 M0 0 C0 0, 0 0, 0 0 M-0.26 6.4 C2.87 2.8, 5.99 -0.8, 9.58 -4.92 M-0.26 6.4 C3.31 2.29, 6.88 -1.81, 9.58 -4.92 M0.13 12.04 C6.77 4.4, 13.41 -3.24, 17.85 -8.34 M0.13 12.04 C4.61 6.89, 9.09 1.74, 17.85 -8.34 M-0.13 18.44 C8.53 8.47, 17.2 -1.49, 23.49 -8.73 M-0.13 18.44 C6.53 10.78, 13.18 3.12, 23.49 -8.73 M0.27 24.08 C10.68 12.11, 21.09 0.13, 29.79 -9.88 M0.27 24.08 C9.06 13.97, 17.85 3.85, 29.79 -9.88 M0 30.48 C7.36 22.02, 14.71 13.56, 34.78 -9.52 M0 30.48 C10.8 18.07, 21.59 5.65, 34.78 -9.52 M-0.26 36.88 C15.19 19.11, 30.63 1.34, 40.42 -9.91 M-0.26 36.88 C14.08 20.38, 28.43 3.88, 40.42 -9.91 M0.14 42.52 C17.99 21.98, 35.84 1.45, 46.06 -10.31 M0.14 42.52 C15.94 24.34, 31.74 6.16, 46.06 -10.31 M-0.12 48.92 C10.23 37, 20.59 25.09, 51.05 -9.95 M-0.12 48.92 C17.96 28.12, 36.04 7.32, 51.05 -9.95 M0.27 54.56 C20.03 31.83, 39.8 9.09, 56.04 -9.59 M0.27 54.56 C14.77 37.88, 29.28 21.19, 56.04 -9.59 M0.01 60.96 C17.45 40.89, 34.9 20.82, 61.02 -9.23 M0.01 60.96 C13.3 45.67, 26.59 30.38, 61.02 -9.23 M0.4 66.6 C18.97 45.25, 37.53 23.89, 66.01 -8.87 M0.4 66.6 C21.17 42.71, 41.94 18.82, 66.01 -8.87 M0.14 73 C15.45 55.39, 30.76 37.77, 71.65 -9.26 M0.14 73 C17.66 52.84, 35.19 32.69, 71.65 -9.26 M-0.12 79.4 C20.25 55.96, 40.63 32.53, 75.98 -8.15 M-0.12 79.4 C26.76 48.48, 53.64 17.55, 75.98 -8.15 M0.28 85.04 C23.46 58.38, 46.64 31.71, 80.32 -7.03 M0.28 85.04 C25.49 56.03, 50.71 27.03, 80.32 -7.03 M0.67 90.68 C27.59 59.71, 54.51 28.75, 84.65 -5.92 M0.67 90.68 C33.48 52.94, 66.29 15.19, 84.65 -5.92 M3.03 94.06 C31.72 61.06, 60.41 28.06, 88.98 -4.8 M3.03 94.06 C27.9 65.46, 52.76 36.85, 88.98 -4.8 M6.71 95.93 C38.71 59.11, 70.72 22.3, 92.65 -2.93 M6.71 95.93 C26.58 73.07, 46.45 50.22, 92.65 -2.93 M11.04 97.05 C35.32 69.12, 59.6 41.19, 95.67 -0.31 M11.04 97.05 C28.86 76.55, 46.68 56.05, 95.67 -0.31 M15.37 98.16 C37.91 72.23, 60.45 46.3, 98.03 3.07 M15.37 98.16 C36.69 73.64, 58.01 49.11, 98.03 3.07 M19.7 99.28 C36.05 80.47, 52.4 61.66, 98.43 8.71 M19.7 99.28 C43.53 71.87, 67.35 44.46, 98.43 8.71 M23.38 101.15 C52.52 67.62, 81.66 34.1, 98.17 15.11 M23.38 101.15 C40.98 80.89, 58.59 60.63, 98.17 15.11 M28.36 101.51 C47.58 79.4, 66.8 57.28, 98.56 20.75 M28.36 101.51 C54.39 71.56, 80.42 41.62, 98.56 20.75 M32.69 102.62 C46.49 86.75, 60.29 70.88, 98.3 27.15 M32.69 102.62 C53 79.26, 73.31 55.9, 98.3 27.15 M37.68 102.98 C60.72 76.48, 83.76 49.98, 98.04 33.55 M37.68 102.98 C49.84 89, 61.99 75.01, 98.04 33.55 M43.32 102.59 C62.09 81, 80.85 59.42, 98.43 39.19 M43.32 102.59 C54.75 89.44, 66.18 76.3, 98.43 39.19 M48.31 102.95 C65.59 83.07, 82.86 63.2, 98.17 45.59 M48.31 102.95 C66.37 82.17, 84.43 61.4, 98.17 45.59 M53.3 103.31 C66.89 87.67, 80.48 72.04, 97.91 51.99 M53.3 103.31 C63.87 91.14, 74.45 78.98, 97.91 51.99 M58.94 102.91 C70.83 89.23, 82.72 75.56, 98.3 57.63 M58.94 102.91 C66.89 93.77, 74.84 84.62, 98.3 57.63 M64.58 102.52 C76.16 89.2, 87.74 75.88, 98.04 64.03 M64.58 102.52 C74.23 91.42, 83.88 80.33, 98.04 64.03 M70.88 101.37 C78.98 92.05, 87.08 82.74, 97.78 70.43 M70.88 101.37 C77.64 93.6, 84.39 85.83, 97.78 70.43 M77.18 100.22 C81.94 94.74, 86.7 89.27, 98.18 76.07 M77.18 100.22 C82.05 94.62, 86.92 89.02, 98.18 76.07 M83.48 99.07 C88.03 93.84, 92.57 88.62, 97.91 82.47 M83.48 99.07 C86.67 95.4, 89.86 91.74, 97.91 82.47 M92.41 94.9 C93.6 93.53, 94.79 92.16, 97.65 88.86 M92.41 94.9 C94.08 92.97, 95.76 91.04, 97.65 88.86 M1.71 92.54 C1.71 92.54, 1.71 92.54, 1.71 92.54 M1.71 92.54 C1.71 92.54, 1.71 92.54, 1.71 92.54 M13.39 97.39 C8.93 93.51, 4.47 89.64, 0.56 86.24 M13.39 97.39 C8.45 93.09, 3.51 88.8, 0.56 86.24 M22.05 99.62 C16.23 94.56, 10.41 89.49, 0.17 80.59 M22.05 99.62 C16.05 94.4, 10.05 89.18, 0.17 80.59 M29.96 101.19 C20.97 93.37, 11.97 85.56, 0.53 75.61 M29.96 101.19 C22.81 94.98, 15.65 88.76, 0.53 75.61 M36.36 101.45 C24.04 90.75, 11.72 80.04, 0.13 69.96 M36.36 101.45 C25.96 92.41, 15.55 83.37, 0.13 69.96 M42.76 101.72 C28.45 89.28, 14.15 76.85, 0.49 64.98 M42.76 101.72 C30.55 91.11, 18.35 80.5, 0.49 64.98 M49.91 102.63 C34.87 89.56, 19.83 76.49, 0.1 59.33 M49.91 102.63 C36.02 90.56, 22.13 78.48, 0.1 59.33 M55.55 102.24 C44.43 92.57, 33.31 82.91, 0.46 54.35 M55.55 102.24 C39.04 87.89, 22.54 73.54, 0.46 54.35 M61.19 101.84 C41.83 85.01, 22.47 68.18, 0.06 48.7 M61.19 101.84 C44.87 87.65, 28.54 73.45, 0.06 48.7 M66.84 101.45 C42.24 80.07, 17.65 58.69, 0.42 43.72 M66.84 101.45 C51.31 87.95, 35.78 74.45, 0.42 43.72 M71.73 100.4 C52.48 83.67, 33.23 66.94, 0.03 38.07 M71.73 100.4 C53.74 84.76, 35.75 69.13, 0.03 38.07 M76.61 99.35 C58.54 83.64, 40.46 67.92, 0.39 33.09 M76.61 99.35 C59.01 84.05, 41.42 68.75, 0.39 33.09 M82.26 98.95 C52.67 73.23, 23.08 47.52, -0.01 27.44 M82.26 98.95 C64.96 83.92, 47.66 68.88, -0.01 27.44 M86.39 97.25 C59.35 73.74, 32.31 50.23, 0.35 22.46 M86.39 97.25 C68.18 81.41, 49.96 65.58, 0.35 22.46 M90.52 95.54 C62.29 71, 34.06 46.45, -0.04 16.81 M90.52 95.54 C62.75 71.39, 34.97 47.24, -0.04 16.81 M93.9 93.18 C72.14 74.26, 50.37 55.33, 0.32 11.83 M93.9 93.18 C67.86 70.54, 41.82 47.9, 0.32 11.83 M97.28 90.81 C61.76 59.93, 26.24 29.05, -0.07 6.18 M97.28 90.81 C69.73 66.87, 42.19 42.92, -0.07 6.18 M97.64 85.83 C64.39 56.92, 31.14 28.02, 0.29 1.2 M97.64 85.83 C67.08 59.26, 36.52 32.7, 0.29 1.2 M98 80.84 C71.57 57.87, 45.15 34.89, 2.91 -1.82 M98 80.84 C73 59.11, 48.01 37.38, 2.91 -1.82 M97.61 75.2 C69.59 50.84, 41.58 26.49, 7.04 -3.53 M97.61 75.2 C62.91 45.04, 28.21 14.87, 7.04 -3.53 M97.97 70.21 C69.21 45.21, 40.45 20.21, 10.42 -5.89 M97.97 70.21 C67.18 43.45, 36.4 16.69, 10.42 -5.89 M97.57 64.57 C70.75 41.25, 43.93 17.94, 14.56 -7.6 M97.57 64.57 C70.03 40.62, 42.49 16.68, 14.56 -7.6 M97.93 59.58 C73.36 38.22, 48.79 16.86, 19.44 -8.65 M97.93 59.58 C79.43 43.5, 60.93 27.42, 19.44 -8.65 M97.54 53.94 C76.42 35.58, 55.31 17.22, 24.33 -9.7 M97.54 53.94 C69.21 29.32, 40.89 4.69, 24.33 -9.7 M97.9 48.95 C74.35 28.48, 50.8 8.01, 29.98 -10.09 M97.9 48.95 C71.9 26.35, 45.91 3.75, 29.98 -10.09 M98.26 43.96 C83.68 31.29, 69.09 18.61, 34.86 -11.15 M98.26 43.96 C75.64 24.3, 53.02 4.64, 34.86 -11.15 M97.86 38.32 C82.96 25.37, 68.06 12.41, 41.26 -10.88 M97.86 38.32 C84.19 26.43, 70.51 14.54, 41.26 -10.88 M98.22 33.33 C83.29 20.35, 68.35 7.37, 46.9 -11.28 M98.22 33.33 C86.37 23.03, 74.51 12.72, 46.9 -11.28 M97.83 27.69 C88.24 19.35, 78.65 11.01, 53.3 -11.02 M97.83 27.69 C87.03 18.3, 76.23 8.91, 53.3 -11.02 M98.19 22.7 C85.35 11.55, 72.52 0.39, 59.7 -10.76 M98.19 22.7 C83.55 9.98, 68.91 -2.75, 59.7 -10.76 M97.8 17.06 C89.09 9.49, 80.39 1.93, 66.1 -10.49 M97.8 17.06 C85.21 6.12, 72.63 -4.82, 66.1 -10.49 M98.16 12.07 C89.73 4.75, 81.31 -2.57, 73.25 -9.58 M98.16 12.07 C89.27 4.35, 80.38 -3.38, 73.25 -9.58 M97.76 6.43 C94.1 3.25, 90.44 0.07, 81.91 -7.35 M97.76 6.43 C93.04 2.33, 88.33 -1.77, 81.91 -7.35 M98.12 1.44 C96.73 0.24, 95.34 -0.97, 91.33 -4.46 M98.12 1.44 C96.13 -0.29, 94.13 -2.03, 91.33 -4.46" stroke="#4c6ef5" stroke-width="0.5" fill="none"></path><path d="M0 0 C0 13.06, -0.29 62.94, 0 78.37 C0.29 93.79, -0.53 89.31, 1.71 92.54 C3.96 95.77, 8.58 96.19, 13.48 97.75 C18.38 99.3, 25.03 101, 31.1 101.86 C37.17 102.73, 44.09 102.93, 49.9 102.93 C55.7 102.93, 60.76 102.48, 65.94 101.87 C71.12 101.25, 75.98 100.89, 80.99 99.25 C86 97.6, 93.33 95.46, 96 91.98 C98.67 88.5, 96.72 91.92, 97.03 78.37 C97.33 64.82, 97.91 23.79, 97.84 10.67 C97.77 -2.44, 98.84 2.47, 96.6 -0.34 C94.37 -3.16, 88.74 -4.68, 84.44 -6.22 C80.14 -7.75, 76.03 -8.83, 70.79 -9.55 C65.56 -10.26, 57.88 -10.37, 53.05 -10.52 C48.22 -10.68, 47.66 -10.85, 41.79 -10.5 C35.91 -10.14, 24.77 -10.13, 17.81 -8.38 C10.84 -6.63, 2.97 -1.4, 0 0 M0 0 C0 13.06, -0.29 62.94, 0 78.37 C0.29 93.79, -0.53 89.31, 1.71 92.54 C3.96 95.77, 8.58 96.19, 13.48 97.75 C18.38 99.3, 25.03 101, 31.1 101.86 C37.17 102.73, 44.09 102.93, 49.9 102.93 C55.7 102.93, 60.76 102.48, 65.94 101.87 C71.12 101.25, 75.98 100.89, 80.99 99.25 C86 97.6, 93.33 95.46, 96 91.98 C98.67 88.5, 96.72 91.92, 97.03 78.37 C97.33 64.82, 97.91 23.79, 97.84 10.67 C97.77 -2.44, 98.84 2.47, 96.6 -0.34 C94.37 -3.16, 88.74 -4.68, 84.44 -6.22 C80.14 -7.75, 76.03 -8.83, 70.79 -9.55 C65.56 -10.26, 57.88 -10.37, 53.05 -10.52 C48.22 -10.68, 47.66 -10.85, 41.79 -10.5 C35.91 -10.14, 24.77 -10.13, 17.81 -8.38 C10.84 -6.63, 2.97 -1.4, 0 0" stroke="#364fc7" stroke-width="1" fill="none"></path></g></g><mask></mask><g stroke-linecap="round" transform="translate(32.466295316990454 141.0130447946956) rotate(0 48.833389373249474 13.27754849234293)"><path d="M97.67 13.28 C97.67 13.97, 97.46 14.67, 97.07 15.35 C96.67 16.04, 96.06 16.72, 95.28 17.38 C94.49 18.04, 93.5 18.69, 92.34 19.31 C91.19 19.92, 89.84 20.52, 88.34 21.08 C86.84 21.64, 85.16 22.18, 83.36 22.67 C81.56 23.16, 79.6 23.61, 77.54 24.02 C75.48 24.43, 73.27 24.79, 71 25.11 C68.73 25.42, 66.35 25.69, 63.92 25.91 C61.5 26.12, 58.99 26.28, 56.47 26.39 C53.96 26.5, 51.38 26.56, 48.83 26.56 C46.29 26.56, 43.71 26.5, 41.19 26.39 C38.68 26.28, 36.16 26.12, 33.74 25.91 C31.32 25.69, 28.93 25.42, 26.66 25.11 C24.39 24.79, 22.19 24.43, 20.13 24.02 C18.07 23.61, 16.1 23.16, 14.3 22.67 C12.5 22.18, 10.82 21.64, 9.33 21.08 C7.83 20.52, 6.48 19.92, 5.32 19.31 C4.17 18.69, 3.18 18.04, 2.39 17.38 C1.6 16.72, 1 16.04, 0.6 15.35 C0.2 14.67, 0 13.97, 0 13.28 C0 12.59, 0.2 11.88, 0.6 11.2 C1 10.52, 1.6 9.83, 2.39 9.17 C3.18 8.52, 4.17 7.87, 5.32 7.25 C6.48 6.63, 7.83 6.03, 9.33 5.47 C10.82 4.91, 12.5 4.38, 14.3 3.89 C16.1 3.4, 18.07 2.94, 20.13 2.54 C22.19 2.13, 24.39 1.76, 26.66 1.45 C28.93 1.13, 31.32 0.86, 33.74 0.65 C36.16 0.44, 38.68 0.27, 41.19 0.16 C43.71 0.06, 46.29 0, 48.83 0 C51.38 0, 53.96 0.06, 56.47 0.16 C58.99 0.27, 61.5 0.44, 63.92 0.65 C66.35 0.86, 68.73 1.13, 71 1.45 C73.27 1.76, 75.48 2.13, 77.54 2.54 C79.6 2.94, 81.56 3.4, 83.36 3.89 C85.16 4.38, 86.84 4.91, 88.34 5.47 C89.84 6.03, 91.19 6.63, 92.34 7.25 C93.5 7.87, 94.49 8.52, 95.28 9.17 C96.06 9.83, 96.67 10.52, 97.07 11.2 C97.46 11.88, 97.57 12.93, 97.67 13.28 C97.77 13.62, 97.77 12.93, 97.67 13.28" stroke="none" stroke-width="0" fill="#ffffff"></path><path d="M97.67 13.28 C97.67 13.97, 97.46 14.67, 97.07 15.35 C96.67 16.04, 96.06 16.72, 95.28 17.38 C94.49 18.04, 93.5 18.69, 92.34 19.31 C91.19 19.92, 89.84 20.52, 88.34 21.08 C86.84 21.64, 85.16 22.18, 83.36 22.67 C81.56 23.16, 79.6 23.61, 77.54 24.02 C75.48 24.43, 73.27 24.79, 71 25.11 C68.73 25.42, 66.35 25.69, 63.92 25.91 C61.5 26.12, 58.99 26.28, 56.47 26.39 C53.96 26.5, 51.38 26.56, 48.83 26.56 C46.29 26.56, 43.71 26.5, 41.19 26.39 C38.68 26.28, 36.16 26.12, 33.74 25.91 C31.32 25.69, 28.93 25.42, 26.66 25.11 C24.39 24.79, 22.19 24.43, 20.13 24.02 C18.07 23.61, 16.1 23.16, 14.3 22.67 C12.5 22.18, 10.82 21.64, 9.33 21.08 C7.83 20.52, 6.48 19.92, 5.32 19.31 C4.17 18.69, 3.18 18.04, 2.39 17.38 C1.6 16.72, 1 16.04, 0.6 15.35 C0.2 14.67, 0 13.97, 0 13.28 C0 12.59, 0.2 11.88, 0.6 11.2 C1 10.52, 1.6 9.83, 2.39 9.17 C3.18 8.52, 4.17 7.87, 5.32 7.25 C6.48 6.63, 7.83 6.03, 9.33 5.47 C10.82 4.91, 12.5 4.38, 14.3 3.89 C16.1 3.4, 18.07 2.94, 20.13 2.54 C22.19 2.13, 24.39 1.76, 26.66 1.45 C28.93 1.13, 31.32 0.86, 33.74 0.65 C36.16 0.44, 38.68 0.27, 41.19 0.16 C43.71 0.06, 46.29 0, 48.83 0 C51.38 0, 53.96 0.06, 56.47 0.16 C58.99 0.27, 61.5 0.44, 63.92 0.65 C66.35 0.86, 68.73 1.13, 71 1.45 C73.27 1.76, 75.48 2.13, 77.54 2.54 C79.6 2.94, 81.56 3.4, 83.36 3.89 C85.16 4.38, 86.84 4.91, 88.34 5.47 C89.84 6.03, 91.19 6.63, 92.34 7.25 C93.5 7.87, 94.49 8.52, 95.28 9.17 C96.06 9.83, 96.67 10.52, 97.07 11.2 C97.46 11.88, 97.57 12.93, 97.67 13.28 C97.77 13.62, 97.77 12.93, 97.67 13.28" stroke="#364fc7" stroke-width="1" fill="none"></path></g><g transform="translate(10 261.4739708002978) rotate(0 76.54166412353516 12.499999999999886)"><text x="76.54166412353516" y="0" font-family="Virgil, Segoe UI Emoji" font-size="20px" fill="#000000" text-anchor="middle" style="white-space: pre;" direction="ltr" dominant-baseline="text-before-edge">Buffer manager</text></g><g stroke-linecap="round" transform="translate(321.8617151987214 90.20793838800319) rotate(89.6698853119712 11.847170440031164 12.544062818856446)"><path d="M0 0 C5.56 0.39, 10.55 -0.18, 23.69 0 M0 0 C7.57 -0.18, 15 -0.16, 23.69 0 M23.69 0 C23.71 7.73, 23.6 15.2, 23.69 25.09 M23.69 0 C23.53 6.07, 23.76 12.13, 23.69 25.09 M23.69 25.09 C14.96 25.11, 5.79 25.49, 0 25.09 M23.69 25.09 C18.19 25.01, 12.74 25.23, 0 25.09 M0 25.09 C-0.03 20.19, -0.19 15.12, 0 0 M0 25.09 C-0.01 16.45, 0.02 8.24, 0 0" stroke="#000000" stroke-width="1" fill="none"></path></g><g stroke-linecap="round" transform="translate(321.99823147860616 113.90188599167823) rotate(89.6698853119712 11.847170440031164 12.544062818856446)"><path d="M0 0 C4.53 -0.27, 9.81 -0.11, 23.69 0 M0 0 C7.26 -0.11, 14.76 0.08, 23.69 0 M23.69 0 C23.59 7.57, 23.43 15.42, 23.69 25.09 M23.69 0 C23.78 8.78, 23.82 17.2, 23.69 25.09 M23.69 25.09 C16.1 25.49, 8.75 24.95, 0 25.09 M23.69 25.09 C15.54 25.19, 7.59 25.18, 0 25.09 M0 25.09 C-0.16 15.81, 0.17 5.8, 0 0 M0 25.09 C0.02 17.71, 0.1 10.09, 0 0" stroke="#000000" stroke-width="1" fill="none"></path></g><g stroke-linecap="round" transform="translate(322.1349317877898 137.6277739659031) rotate(89.6698853119712 11.847170440031164 12.544062818856446)"><path d="M0 0 C9.08 -0.05, 18.06 0.06, 23.69 0 M0 0 C5.24 0.07, 10.47 0.04, 23.69 0 M23.69 0 C23.42 6.95, 23.88 14.42, 23.69 25.09 M23.69 0 C23.88 8.16, 23.74 16.61, 23.69 25.09 M23.69 25.09 C16.18 25, 9.45 24.88, 0 25.09 M23.69 25.09 C17.49 25.23, 11.87 25.12, 0 25.09 M0 25.09 C0.19 16.06, 0.02 7.08, 0 0 M0 25.09 C0.09 19.35, -0.13 13.61, 0 0" stroke="#000000" stroke-width="1" fill="none"></path></g><g stroke-linecap="round" transform="translate(322.27144806767456 161.3217215695886) rotate(89.6698853119712 11.847170440031164 12.544062818856446)"><path d="M0 0 C5.91 0.04, 11.37 -0.2, 23.69 0 M0 0 C5.44 0, 10.81 -0.06, 23.69 0 M23.69 0 C23.86 5.39, 23.79 11.47, 23.69 25.09 M23.69 0 C23.75 8.97, 23.74 17.72, 23.69 25.09 M23.69 25.09 C14.54 24.82, 4.88 24.67, 0 25.09 M23.69 25.09 C15.38 25.12, 6.83 25.04, 0 25.09 M0 25.09 C-0.02 15.55, -0.32 6.12, 0 0 M0 25.09 C-0.15 16.07, -0.1 6.94, 0 0" stroke="#000000" stroke-width="1" fill="none"></path></g><g stroke-linecap="round" transform="translate(322.40930274245966 185.2479627772218) rotate(89.6698853119712 11.847170440031164 12.544062818856446)"><path d="M0 0 C6.36 -0.22, 13.1 0.04, 23.69 0 M0 0 C7.48 -0.05, 14.84 -0.13, 23.69 0 M23.69 0 C23.85 5.61, 23.96 11.05, 23.69 25.09 M23.69 0 C23.71 6.01, 23.9 12.14, 23.69 25.09 M23.69 25.09 C17.15 24.66, 11.26 24.65, 0 25.09 M23.69 25.09 C15.45 25.01, 7.13 25.17, 0 25.09 M0 25.09 C-0.3 17.86, 0.27 10.74, 0 0 M0 25.09 C-0.04 17.21, -0.1 9.21, 0 0" stroke="#000000" stroke-width="1" fill="none"></path></g><g stroke-linecap="round" transform="translate(322.54581902234486 208.9419103809032) rotate(89.6698853119712 11.847170440031164 12.544062818856446)"><path d="M0 0 C6.99 0.07, 14.67 0.09, 23.69 0 M0 0 C6.99 -0.12, 14.12 0.11, 23.69 0 M23.69 0 C23.95 6.52, 23.47 12.45, 23.69 25.09 M23.69 0 C23.9 7.85, 23.63 16.08, 23.69 25.09 M23.69 25.09 C18.24 24.63, 12.51 25.4, 0 25.09 M23.69 25.09 C16.74 25.15, 9.43 25.07, 0 25.09 M0 25.09 C0.31 17.94, 0.1 10.17, 0 0 M0 25.09 C-0.11 16.71, 0.06 8.55, 0 0" stroke="#000000" stroke-width="1" fill="none"></path></g><g stroke-linecap="round" transform="translate(322.6823353022296 232.63585798458416) rotate(89.6698853119712 11.847170440031164 12.544062818856446)"><path d="M0 0 C6.02 0.06, 11.9 -0.04, 23.69 0 M0 0 C6.34 0.13, 12.93 0.1, 23.69 0 M23.69 0 C23.49 8.92, 23.81 17.79, 23.69 25.09 M23.69 0 C23.67 5.99, 23.62 11.73, 23.69 25.09 M23.69 25.09 C19.02 25.4, 13.89 25.29, 0 25.09 M23.69 25.09 C17.44 25.11, 11.22 24.96, 0 25.09 M0 25.09 C0.03 17.1, 0.1 9.46, 0 0 M0 25.09 C0.08 17.28, 0.17 9.15, 0 0" stroke="#000000" stroke-width="1" fill="none"></path></g><g stroke-linecap="round" transform="translate(322.8188515821139 256.329805588261) rotate(89.6698853119712 11.847170440031164 12.544062818856446)"><path d="M0 0 C7.34 -0.04, 14.56 -0.34, 23.69 0 M0 0 C5.56 0.04, 11.46 0.1, 23.69 0 M23.69 0 C23.75 9.35, 23.39 19.07, 23.69 25.09 M23.69 0 C23.55 5.59, 23.48 11.51, 23.69 25.09 M23.69 25.09 C18.83 25.38, 13.8 25.47, 0 25.09 M23.69 25.09 C15.66 24.94, 7.68 25.22, 0 25.09 M0 25.09 C0.13 16.35, 0.05 7.64, 0 0 M0 25.09 C0.13 18.21, -0.06 11.58, 0 0" stroke="#000000" stroke-width="1" fill="none"></path></g><g stroke-linecap="round" transform="translate(322.95269107219656 279.5591659840279) rotate(89.6698853119712 11.847170440031164 12.544062818856446)"><path d="M0 0 C7.35 -0.32, 14.65 -0.37, 23.69 0 M0 0 C8.29 0.11, 16.51 -0.13, 23.69 0 M23.69 0 C23.43 8.14, 23.39 15.35, 23.69 25.09 M23.69 0 C23.46 8.54, 23.46 16.95, 23.69 25.09 M23.69 25.09 C14.45 25.46, 5.68 25.07, 0 25.09 M23.69 25.09 C16.61 25.19, 9.59 25.08, 0 25.09 M0 25.09 C0.04 18.73, -0.16 12.98, 0 0 M0 25.09 C-0.08 16.72, 0.18 8.81, 0 0" stroke="#000000" stroke-width="1" fill="none"></path></g><g stroke-linecap="round" transform="translate(323.0892073520813 303.25311358770705) rotate(89.6698853119712 11.847170440031164 12.544062818856446)"><path d="M0 0 C6.65 -0.33, 14.02 -0.19, 23.69 0 M0 0 C7.98 -0.15, 15.66 0.01, 23.69 0 M23.69 0 C23.34 7.49, 23.81 14.99, 23.69 25.09 M23.69 0 C23.44 6.47, 23.82 12.71, 23.69 25.09 M23.69 25.09 C15.37 25.08, 6.72 25.1, 0 25.09 M23.69 25.09 C18.33 25.15, 12.67 25.19, 0 25.09 M0 25.09 C-0.15 18.49, 0.12 11.98, 0 0 M0 25.09 C0.22 19.96, -0.13 14.49, 0 0" stroke="#000000" stroke-width="1" fill="none"></path></g><g transform="translate(297.5499966939292 55) rotate(0 43.13333511352539 12.5)"><text x="0" y="0" font-family="Virgil, Segoe UI Emoji" font-size="20px" fill="#1e1e1e" text-anchor="start" style="white-space: pre;" direction="ltr" dominant-baseline="text-before-edge">buffer id</text></g><g stroke-linecap="round"><g transform="translate(466.4633920218989 86.41530806546189) rotate(0 -20.673645447808212 14.313518783989934)"><path d="M0 0 C0.01 -2.02, 0.02 -4.04, 0.04 -9.43 M0 0 C0.01 -2.31, 0.02 -4.62, 0.04 -9.43 M0.04 -9.43 C-11.04 -9.51, -22.11 -9.59, -41.33 -9.73 M0.04 -9.43 C-14.57 -9.53, -29.18 -9.64, -41.33 -9.73 M-41.33 -9.73 C-41.4 4.13, -41.48 17.99, -41.58 38.13 M-41.33 -9.73 C-41.41 5.35, -41.49 20.43, -41.58 38.13 M-41.58 38.13 C-28.19 38.2, -14.79 38.28, 0.2 38.36 M-41.58 38.13 C-25.26 38.22, -8.93 38.31, 0.2 38.36 M0.2 38.36 C0.21 28.74, 0.22 19.12, 0.24 9.54 M0.2 38.36 C0.21 30.02, 0.22 21.68, 0.24 9.54" stroke="#000" stroke-width="4" fill="none"></path></g></g><mask></mask><g stroke-linecap="round"><g transform="translate(435.96564654136137 91.36456997492542) rotate(0 9.768729206919033 -0.036517609664770134)"><path d="M0 0 C4.83 -0.02, 9.67 -0.04, 19.54 -0.07 M0 0 C6.23 -0.02, 12.47 -0.05, 19.54 -0.07" stroke="#3d71b7" stroke-width="4" fill="none"></path></g></g><mask></mask><g stroke-linecap="round"><g transform="translate(435.96678818302007 101.01559070361327) rotate(0 9.768729206919033 -0.036517609664770134)"><path d="M0 0 C6.92 -0.03, 13.84 -0.05, 19.54 -0.07 M0 0 C4.61 -0.02, 9.21 -0.03, 19.54 -0.07" stroke="#3d71b7" stroke-width="4" fill="none"></path></g></g><mask></mask><g stroke-linecap="round"><g transform="translate(436.23027609321343 110.42285601470303) rotate(0 4.809848234657238 0.06317830017019332)"><path d="M0 0 C3.58 0.05, 7.16 0.09, 9.62 0.13 M0 0 C2.18 0.03, 4.37 0.06, 9.62 0.13" stroke="#3d71b7" stroke-width="4" fill="none"></path></g></g><mask></mask><g stroke-linecap="round"><g transform="translate(466.2236421417374 156.68648121601018) rotate(0 -20.673645447808212 14.313518783989934)"><path d="M0 0 C0.01 -2.91, 0.02 -5.82, 0.04 -9.43 M0 0 C0.01 -3.16, 0.02 -6.33, 0.04 -9.43 M0.04 -9.43 C-15.83 -9.54, -31.7 -9.66, -41.33 -9.73 M0.04 -9.43 C-12.36 -9.52, -24.75 -9.61, -41.33 -9.73 M-41.33 -9.73 C-41.39 1.9, -41.45 13.54, -41.58 38.13 M-41.33 -9.73 C-41.41 5.99, -41.5 21.71, -41.58 38.13 M-41.58 38.13 C-31.74 38.18, -21.89 38.24, 0.2 38.36 M-41.58 38.13 C-31.17 38.19, -20.75 38.24, 0.2 38.36 M0.2 38.36 C0.21 29.93, 0.22 21.5, 0.24 9.54 M0.2 38.36 C0.21 30.04, 0.22 21.72, 0.24 9.54" stroke="#000" stroke-width="4" fill="none"></path></g></g><mask></mask><g stroke-linecap="round"><g transform="translate(435.72589666119984 161.6357431254737) rotate(0 9.768729206919033 -0.036517609664770134)"><path d="M0 0 C5.94 -0.02, 11.88 -0.04, 19.54 -0.07 M0 0 C4.95 -0.02, 9.9 -0.04, 19.54 -0.07" stroke="#2f9e44" stroke-width="4" fill="none"></path></g></g><mask></mask><g stroke-linecap="round"><g transform="translate(435.72703830285855 171.28676385416156) rotate(0 9.768729206919033 -0.036517609664770134)"><path d="M0 0 C7.67 -0.03, 15.35 -0.06, 19.54 -0.07 M0 0 C7.01 -0.03, 14.01 -0.05, 19.54 -0.07" stroke="#2f9e44" stroke-width="4" fill="none"></path></g></g><mask></mask><g stroke-linecap="round"><g transform="translate(435.9905262130519 180.69402916525132) rotate(0 4.809848234657238 0.06317830017019332)"><path d="M0 0 C2.58 0.03, 5.15 0.07, 9.62 0.13 M0 0 C3.4 0.04, 6.8 0.09, 9.62 0.13" stroke="#2f9e44" stroke-width="4" fill="none"></path></g></g><mask></mask><g stroke-linecap="round"><g transform="translate(468.22364214173786 225.68648121601018) rotate(0 -20.673645447808212 14.313518783990048)"><path d="M0 0 C0.01 -2.27, 0.02 -4.54, 0.04 -9.43 M0 0 C0.01 -2.83, 0.02 -5.67, 0.04 -9.43 M0.04 -9.43 C-12.05 -9.51, -24.15 -9.6, -41.33 -9.73 M0.04 -9.43 C-13.65 -9.53, -27.34 -9.63, -41.33 -9.73 M-41.33 -9.73 C-41.42 7.66, -41.51 25.06, -41.58 38.13 M-41.33 -9.73 C-41.41 5.51, -41.49 20.74, -41.58 38.13 M-41.58 38.13 C-28.61 38.2, -15.64 38.27, 0.2 38.36 M-41.58 38.13 C-30.83 38.19, -20.08 38.25, 0.2 38.36 M0.2 38.36 C0.21 31.95, 0.22 25.55, 0.24 9.54 M0.2 38.36 C0.21 29.96, 0.22 21.56, 0.24 9.54" stroke="#000" stroke-width="4" fill="none"></path></g></g><mask></mask><g stroke-linecap="round"><g transform="translate(437.7258966612003 230.6357431254737) rotate(0 9.768729206919033 -0.036517609664770134)"><path d="M0 0 C4.04 -0.02, 8.08 -0.03, 19.54 -0.07 M0 0 C5.13 -0.02, 10.27 -0.04, 19.54 -0.07" stroke="#e03131" stroke-width="4" fill="none"></path></g></g><mask></mask><g stroke-linecap="round"><g transform="translate(437.72703830285855 240.28676385416156) rotate(0 9.768729206919033 -0.036517609664770134)"><path d="M0 0 C4.01 -0.02, 8.03 -0.03, 19.54 -0.07 M0 0 C6.61 -0.02, 13.22 -0.05, 19.54 -0.07" stroke="#e03131" stroke-width="4" fill="none"></path></g></g><mask></mask><g stroke-linecap="round"><g transform="translate(437.9905262130519 249.69402916525132) rotate(0 4.809848234657238 0.06317830017019332)"><path d="M0 0 C3.69 0.05, 7.38 0.1, 9.62 0.13 M0 0 C2.88 0.04, 5.76 0.08, 9.62 0.13" stroke="#e03131" stroke-width="4" fill="none"></path></g></g><mask></mask><g stroke-linecap="round"><g transform="translate(468.22364214173786 294.6864812160102) rotate(0 -20.673645447808212 14.313518783990048)"><path d="M0 0 C0.01 -3.38, 0.03 -6.75, 0.04 -9.43 M0 0 C0.01 -2.17, 0.02 -4.34, 0.04 -9.43 M0.04 -9.43 C-10.99 -9.51, -22.02 -9.59, -41.33 -9.73 M0.04 -9.43 C-8.73 -9.49, -17.5 -9.55, -41.33 -9.73 M-41.33 -9.73 C-41.39 2.16, -41.46 14.04, -41.58 38.13 M-41.33 -9.73 C-41.41 5.81, -41.49 21.34, -41.58 38.13 M-41.58 38.13 C-30.4 38.19, -19.22 38.25, 0.2 38.36 M-41.58 38.13 C-27.81 38.21, -14.04 38.28, 0.2 38.36 M0.2 38.36 C0.21 27.67, 0.23 16.98, 0.24 9.54 M0.2 38.36 C0.21 30.07, 0.22 21.78, 0.24 9.54" stroke="#000" stroke-width="4" fill="none"></path></g></g><mask></mask><g stroke-linecap="round"><g transform="translate(437.7258966612003 299.6357431254737) rotate(0 9.768729206919033 -0.036517609664770134)"><path d="M0 0 C7.4 -0.03, 14.8 -0.06, 19.54 -0.07 M0 0 C7.08 -0.03, 14.16 -0.05, 19.54 -0.07" stroke="#f08c00" stroke-width="4" fill="none"></path></g></g><mask></mask><g stroke-linecap="round"><g transform="translate(437.72703830285855 309.28676385416156) rotate(0 9.768729206919033 -0.036517609664770134)"><path d="M0 0 C5.66 -0.02, 11.32 -0.04, 19.54 -0.07 M0 0 C6.16 -0.02, 12.31 -0.05, 19.54 -0.07" stroke="#f08c00" stroke-width="4" fill="none"></path></g></g><mask></mask><g stroke-linecap="round"><g transform="translate(437.9905262130519 318.6940291652513) rotate(0 4.809848234657238 0.06317830017019332)"><path d="M0 0 C2.81 0.04, 5.62 0.07, 9.62 0.13 M0 0 C3.18 0.04, 6.37 0.08, 9.62 0.13" stroke="#f08c00" stroke-width="4" fill="none"></path></g></g><mask></mask><g stroke-linecap="round"><g transform="translate(334.5499966939292 102) rotate(0 43.5597038715365 -0.07833206051964225)"><path d="M0.06 0.02 C14.55 0.01, 72.43 0.05, 86.92 0.05 M-0.08 -0.09 C14.45 -0.15, 72.72 -0.24, 87.2 -0.19" stroke="#1e1e1e" stroke-width="1" fill="none"></path></g><g transform="translate(334.5499966939292 102) rotate(0 43.5597038715365 -0.07833206051964225)"><path d="M59.01 10.06 C67.74 6.72, 76.49 3.62, 87.2 -0.19 M59.01 10.06 C67.89 6.9, 76.8 3.51, 87.2 -0.19" stroke="#1e1e1e" stroke-width="1" fill="none"></path></g><g transform="translate(334.5499966939292 102) rotate(0 43.5597038715365 -0.07833206051964225)"><path d="M59.02 -10.46 C67.77 -7.47, 76.51 -4.23, 87.2 -0.19 M59.02 -10.46 C67.88 -7.18, 76.79 -4.13, 87.2 -0.19" stroke="#1e1e1e" stroke-width="1" fill="none"></path></g></g><mask></mask><g stroke-linecap="round"><g transform="translate(334.09704289363026 171.97367924122227) rotate(0 43.43363455722522 0.07918045512394656)"><path d="M-0.08 0.05 C14.4 0.05, 72.45 0.04, 86.95 0.02 M0.14 -0.06 C14.59 -0.03, 72.3 0.19, 86.81 0.22" stroke="#1e1e1e" stroke-width="1" fill="none"></path></g><g transform="translate(334.09704289363026 171.97367924122227) rotate(0 43.43363455722522 0.07918045512394656)"><path d="M58.59 10.39 C68.34 6.84, 77.96 3.27, 86.81 0.22 M58.59 10.39 C66.2 7.54, 73.61 4.87, 86.81 0.22" stroke="#1e1e1e" stroke-width="1" fill="none"></path></g><g transform="translate(334.09704289363026 171.97367924122227) rotate(0 43.43363455722522 0.07918045512394656)"><path d="M58.65 -10.13 C68.39 -6.66, 77.98 -3.19, 86.81 0.22 M58.65 -10.13 C66.25 -7.51, 73.64 -4.71, 86.81 0.22" stroke="#1e1e1e" stroke-width="1" fill="none"></path></g></g><mask></mask><g stroke-linecap="round"><g transform="translate(336.09704289363026 241.97367924122227) rotate(0 43.5724349740201 0.008843734509355272)"><path d="M-0.05 0.02 C14.45 0, 72.4 -0.05, 86.91 -0.05 M0.19 -0.1 C14.75 -0.09, 72.73 0.13, 87.19 0.11" stroke="#1e1e1e" stroke-width="1" fill="none"></path></g><g transform="translate(336.09704289363026 241.97367924122227) rotate(0 43.5724349740201 0.008843734509355272)"><path d="M58.99 10.33 C65.88 7.69, 72.6 5.43, 87.19 0.11 M58.99 10.33 C68.21 6.93, 77.65 3.78, 87.19 0.11" stroke="#1e1e1e" stroke-width="1" fill="none"></path></g><g transform="translate(336.09704289363026 241.97367924122227) rotate(0 43.5724349740201 0.008843734509355272)"><path d="M59.02 -10.19 C65.91 -7.85, 72.62 -5.11, 87.19 0.11 M59.02 -10.19 C68.25 -6.86, 77.68 -3.26, 87.19 0.11" stroke="#1e1e1e" stroke-width="1" fill="none"></path></g></g><mask></mask><g stroke-linecap="round"><g transform="translate(331.09704289363026 312.97367924122227) rotate(0 43.47070714375195 -0.09075923216573756)"><path d="M-0.09 -0.05 C14.42 -0.05, 72.5 0.06, 87.03 0.04 M0.13 -0.2 C14.63 -0.24, 72.45 -0.22, 86.93 -0.19" stroke="#1e1e1e" stroke-width="1" fill="none"></path></g><g transform="translate(331.09704289363026 312.97367924122227) rotate(0 43.47070714375195 -0.09075923216573756)"><path d="M58.73 10.04 C66.15 7.39, 73.85 4.79, 86.93 -0.19 M58.73 10.04 C64.85 8.02, 70.6 5.75, 86.93 -0.19" stroke="#1e1e1e" stroke-width="1" fill="none"></path></g><g transform="translate(331.09704289363026 312.97367924122227) rotate(0 43.47070714375195 -0.09075923216573756)"><path d="M58.75 -10.48 C66.17 -7.66, 73.86 -4.79, 86.93 -0.19 M58.75 -10.48 C64.86 -8.15, 70.61 -6.07, 86.93 -0.19" stroke="#1e1e1e" stroke-width="1" fill="none"></path></g></g><mask></mask><g transform="translate(412.5499966939292 10) rotate(0 44.82500076293945 25)"><text x="0" y="0" font-family="Virgil, Segoe UI Emoji" font-size="20px" fill="#1e1e1e" text-anchor="start" style="white-space: pre;" direction="ltr" dominant-baseline="text-before-edge">data file</text><text x="0" y="25" font-family="Virgil, Segoe UI Emoji" font-size="20px" fill="#1e1e1e" text-anchor="start" style="white-space: pre;" direction="ltr" dominant-baseline="text-before-edge"> pages</text></g><g stroke-linecap="round"><g transform="translate(190.57092189014838 388.7298395982857) rotate(0 -31.819760817047722 8.000663051684114)"><path d="M0 0 C-0.1 -6.32, -0.2 -12.63, -0.42 -26.31 M0 0 C-0.15 -9.05, -0.29 -18.09, -0.42 -26.31 M-0.42 -26.31 C-13.98 -26.29, -27.53 -26.26, -63.64 -26.2 M-0.42 -26.31 C-23.04 -26.27, -45.66 -26.23, -63.64 -26.2 M-63.64 -26.2 C-63.56 -7.39, -63.47 11.42, -63.34 42.25 M-63.64 -26.2 C-63.55 -6.92, -63.47 12.35, -63.34 42.25 M-63.34 42.25 C-58.47 42.26, -53.6 42.28, -42.44 42.31 M-63.34 42.25 C-57.76 42.27, -52.19 42.28, -42.44 42.31" stroke="#e03131" stroke-width="4" fill="none"></path></g></g><mask></mask><g stroke-linecap="round"><g transform="translate(140.01550082064898 380.7170022798473) rotate(0 18.716206082385952 -0.016976167414895826)"><path d="M0 0 C14.7 -0.01, 29.4 -0.03, 37.43 -0.03 M0 0 C13.88 -0.01, 27.77 -0.03, 37.43 -0.03" stroke="#e03131" stroke-width="4" fill="none"></path></g></g><mask></mask><g stroke-linecap="round"><g transform="translate(139.6522576857809 396.6667711340301) rotate(0 4.139669861473919 0.039469281030051206)"><path d="M0 0 C2.87 0.03, 5.75 0.05, 8.28 0.08 M0 0 C1.8 0.02, 3.6 0.03, 8.28 0.08" stroke="#e03131" stroke-width="4" fill="none"></path></g></g><mask></mask><g stroke-linecap="round" transform="translate(153.51615239803755 394.32228474528983) rotate(0 20.996656444410405 20.929247375280966)"><path d="M41.99 20.93 C41.99 22.14, 41.89 23.37, 41.67 24.56 C41.46 25.76, 41.14 26.95, 40.73 28.09 C40.31 29.23, 39.79 30.34, 39.18 31.39 C38.57 32.44, 37.86 33.45, 37.08 34.38 C36.3 35.31, 35.42 36.18, 34.49 36.96 C33.56 37.74, 32.55 38.45, 31.49 39.05 C30.44 39.66, 29.32 40.18, 28.18 40.6 C27.04 41.01, 25.84 41.33, 24.64 41.54 C23.45 41.75, 22.21 41.86, 21 41.86 C19.78 41.86, 18.55 41.75, 17.35 41.54 C16.15 41.33, 14.96 41.01, 13.82 40.6 C12.67 40.18, 11.55 39.66, 10.5 39.05 C9.45 38.45, 8.43 37.74, 7.5 36.96 C6.57 36.18, 5.69 35.31, 4.91 34.38 C4.13 33.45, 3.42 32.44, 2.81 31.39 C2.21 30.34, 1.68 29.23, 1.27 28.09 C0.85 26.95, 0.53 25.76, 0.32 24.56 C0.11 23.37, 0 22.14, 0 20.93 C0 19.72, 0.11 18.49, 0.32 17.29 C0.53 16.1, 0.85 14.91, 1.27 13.77 C1.68 12.63, 2.21 11.51, 2.81 10.46 C3.42 9.42, 4.13 8.4, 4.91 7.48 C5.69 6.55, 6.57 5.68, 7.5 4.9 C8.43 4.12, 9.45 3.41, 10.5 2.8 C11.55 2.2, 12.67 1.68, 13.82 1.26 C14.96 0.85, 16.15 0.53, 17.35 0.32 C18.55 0.11, 19.78 0, 21 0 C22.21 0, 23.45 0.11, 24.64 0.32 C25.84 0.53, 27.04 0.85, 28.18 1.26 C29.32 1.68, 30.44 2.2, 31.49 2.8 C32.55 3.41, 33.56 4.12, 34.49 4.9 C35.42 5.68, 36.3 6.55, 37.08 7.48 C37.86 8.4, 38.57 9.42, 39.18 10.46 C39.79 11.51, 40.31 12.63, 40.73 13.77 C41.14 14.91, 41.46 16.1, 41.67 17.29 C41.89 18.49, 41.94 20.32, 41.99 20.93 C42.05 21.53, 42.05 20.32, 41.99 20.93" stroke="#e03131" stroke-width="4" fill="none"></path></g><g stroke-linecap="round"><g transform="translate(174.52820944399775 403.66357805208145) rotate(0 0.007470993067101972 7.432392936282895)"><path d="M0 0 C0 3.67, 0.01 7.34, 0.01 14.86 M0 0 C0.01 5.83, 0.01 11.67, 0.01 14.86" stroke="#e03131" stroke-width="4" fill="none"></path></g></g><mask></mask><g stroke-linecap="round" transform="translate(174.44240720722655 425.34709432713316) rotate(0 0.045874228354477964 0.045874228354477964)"><path d="M0.09 0.05 C0.09 0.05, 0.09 0.05, 0.09 0.05 C0.09 0.06, 0.09 0.06, 0.09 0.06 C0.09 0.06, 0.09 0.07, 0.09 0.07 C0.08 0.07, 0.08 0.07, 0.08 0.08 C0.08 0.08, 0.08 0.08, 0.08 0.08 C0.07 0.08, 0.07 0.08, 0.07 0.09 C0.07 0.09, 0.06 0.09, 0.06 0.09 C0.06 0.09, 0.06 0.09, 0.05 0.09 C0.05 0.09, 0.05 0.09, 0.05 0.09 C0.04 0.09, 0.04 0.09, 0.04 0.09 C0.04 0.09, 0.03 0.09, 0.03 0.09 C0.03 0.09, 0.03 0.09, 0.02 0.09 C0.02 0.08, 0.02 0.08, 0.02 0.08 C0.01 0.08, 0.01 0.08, 0.01 0.08 C0.01 0.07, 0.01 0.07, 0.01 0.07 C0 0.07, 0 0.06, 0 0.06 C0 0.06, 0 0.06, 0 0.05 C0 0.05, 0 0.05, 0 0.05 C0 0.04, 0 0.04, 0 0.04 C0 0.04, 0 0.03, 0 0.03 C0 0.03, 0 0.03, 0.01 0.02 C0.01 0.02, 0.01 0.02, 0.01 0.02 C0.01 0.01, 0.01 0.01, 0.02 0.01 C0.02 0.01, 0.02 0.01, 0.02 0.01 C0.03 0, 0.03 0, 0.03 0 C0.03 0, 0.04 0, 0.04 0 C0.04 0, 0.04 0, 0.05 0 C0.05 0, 0.05 0, 0.05 0 C0.06 0, 0.06 0, 0.06 0 C0.06 0, 0.07 0, 0.07 0.01 C0.07 0.01, 0.07 0.01, 0.08 0.01 C0.08 0.01, 0.08 0.01, 0.08 0.02 C0.08 0.02, 0.08 0.02, 0.09 0.02 C0.09 0.03, 0.09 0.03, 0.09 0.03 C0.09 0.03, 0.09 0.04, 0.09 0.04 C0.09 0.04, 0.09 0.04, 0.09 0.05 C0.09 0.05, 0.09 0.04, 0.09 0.05" stroke="#e03131" stroke-width="4" fill="none"></path></g><g stroke-linecap="round"><g transform="translate(216.54166412353504 378.1879522419413) rotate(0 45.97757157212186 -42.91708655544289)"><path d="M-0.48 0.43 C14.49 -13.69, 75.04 -70.23, 90.2 -84.24 M1.47 -0.39 C16.78 -14.94, 77.78 -72.07, 92.43 -86.26" stroke="#1e1e1e" stroke-width="1" fill="none"></path></g><g transform="translate(216.54166412353504 378.1879522419413) rotate(0 45.97757157212186 -42.91708655544289)"><path d="M79.06 -59.41 C84.11 -69.77, 88.16 -78.19, 92.43 -86.26 M79.06 -59.41 C84.65 -68.74, 88.58 -79.18, 92.43 -86.26" stroke="#1e1e1e" stroke-width="1" fill="none"></path></g><g transform="translate(216.54166412353504 378.1879522419413) rotate(0 45.97757157212186 -42.91708655544289)"><path d="M64.93 -74.28 C74.71 -79.66, 83.44 -83.16, 92.43 -86.26 M64.93 -74.28 C75.85 -78.25, 84.97 -83.22, 92.43 -86.26" stroke="#1e1e1e" stroke-width="1" fill="none"></path></g></g><mask></mask><g stroke-linecap="round"><g transform="translate(33.208330790201785 308.1879522419413) rotate(0 31.832697640519314 44.71904397773551)"><path d="M0.68 0.04 C11.38 14.75, 53.56 74.25, 64.09 89.27 M-0.42 -0.99 C10.2 14.39, 52.91 75.01, 63.54 90.43" stroke="#1e1e1e" stroke-width="1" fill="none"></path></g><g transform="translate(33.208330790201785 308.1879522419413) rotate(0 31.832697640519314 44.71904397773551)"><path d="M38.99 73.18 C46.28 79.28, 52.1 83.84, 63.54 90.43 M38.99 73.18 C46.79 78.91, 53.84 84.83, 63.54 90.43" stroke="#1e1e1e" stroke-width="1" fill="none"></path></g><g transform="translate(33.208330790201785 308.1879522419413) rotate(0 31.832697640519314 44.71904397773551)"><path d="M55.82 61.44 C58.35 71.02, 59.31 78.97, 63.54 90.43 M55.82 61.44 C58.26 70.72, 60.05 80.3, 63.54 90.43" stroke="#1e1e1e" stroke-width="1" fill="none"></path></g></g><mask></mask><g transform="translate(235.43055809868702 391.5212855752743) rotate(0 163.14999389648438 20)"><text x="0" y="0" font-family="Virgil, Segoe UI Emoji" font-size="16px" fill="#1e1e1e" text-anchor="start" style="white-space: pre;" direction="ltr" dominant-baseline="text-before-edge">modified page, which has not yet been</text><text x="0" y="20" font-family="Virgil, Segoe UI Emoji" font-size="16px" fill="#1e1e1e" text-anchor="start" style="white-space: pre;" direction="ltr" dominant-baseline="text-before-edge">flushed to storage, is referred to as a </text></g><g transform="translate(235.4305530124243 433.7435077974974) rotate(0 39.66666793823242 10)"><text x="0" y="0" font-family="Virgil, Segoe UI Emoji" font-size="16px" fill="#e03131" text-anchor="start" style="white-space: pre;" direction="ltr" dominant-baseline="text-before-edge">dirty page</text></g></svg>