<svg version="1.1" xmlns="http://www.w3.org/2000/svg" viewBox="0 0 764.1825142834988 530.6657735148751" width="764.1825142834988" height="530.6657735148751">
  <!-- svg-source:excalidraw -->
  
  <defs>
    <style class="style-fonts">
      @font-face {
        font-family: "Virgil";
        src: url("https://excalidraw.com/Virgil.woff2");
      }
      @font-face {
        font-family: "Cascadia";
        src: url("https://excalidraw.com/Cascadia.woff2");
      }
    </style>
    
  </defs>
  <g stroke-linecap="round"><g transform="translate(11.753071172838418 342.67982323300123) rotate(0 52.960769355995694 50.32792731660609)" fill-rule="evenodd"><path d="M1.71 1.08 C1.49 14.77, 0.56 67.21, 0.25 83.42 C-0.06 99.62, -2.15 94.58, -0.15 98.3 C1.86 102.02, 6.34 103.34, 12.29 105.75 C18.24 108.16, 28.83 112.05, 35.55 112.77 C42.28 113.5, 46.9 110.75, 52.64 110.09 C58.38 109.43, 63.94 109.1, 70 108.82 C76.05 108.53, 82.89 109.66, 88.99 108.4 C95.08 107.15, 103.86 105.34, 106.58 101.26 C109.29 97.18, 105.18 98.51, 105.29 83.93 C105.4 69.36, 107.62 28.16, 107.22 13.82 C106.83 -0.53, 105.32 1.59, 102.92 -2.13 C100.52 -5.85, 97.29 -7.14, 92.82 -8.49 C88.36 -9.84, 81.64 -9.94, 76.11 -10.23 C70.57 -10.52, 64.55 -9.89, 59.63 -10.22 C54.71 -10.54, 53.66 -12.44, 46.59 -12.19 C39.51 -11.95, 25.3 -10.89, 17.16 -8.74 C9.01 -6.58, 0.62 -0.6, -2.3 0.74" stroke="none" stroke-width="0" fill="#fa5252" fill-rule="evenodd"></path><path d="M-0.8 -0.48 C-0.69 13.65, -0.8 68.45, -0.42 85.17 C-0.05 101.88, -1.18 96.17, 1.46 99.79 C4.1 103.41, 9.9 105.27, 15.43 106.89 C20.96 108.5, 28 108.48, 34.63 109.48 C41.26 110.48, 49 112.58, 55.22 112.91 C61.43 113.25, 66.4 112.49, 71.93 111.49 C77.45 110.5, 82.99 108.98, 88.38 106.94 C93.78 104.89, 101.51 102.84, 104.28 99.25 C107.05 95.65, 104.56 99.96, 105.01 85.38 C105.46 70.79, 106.83 26.1, 106.98 11.74 C107.14 -2.63, 108.36 2.18, 105.93 -0.82 C103.5 -3.82, 97.21 -4.62, 92.41 -6.26 C87.6 -7.91, 83.03 -9.78, 77.11 -10.68 C71.2 -11.57, 62.3 -11.54, 56.92 -11.64 C51.54 -11.73, 51 -11.82, 44.84 -11.25 C38.68 -10.68, 27.61 -10.24, 19.96 -8.23 C12.31 -6.23, 2.25 -0.44, -1.03 0.79 M0.99 -1.78 C0.99 12.52, -1.51 69.64, -1.6 86.72 C-1.68 103.81, -2.47 97.73, 0.48 100.73 C3.43 103.72, 10.57 103.28, 16.09 104.7 C21.61 106.12, 27.37 107.96, 33.6 109.25 C39.84 110.55, 46.98 112.23, 53.5 112.46 C60.02 112.68, 67.04 111.64, 72.72 110.58 C78.4 109.53, 82.59 107.7, 87.57 106.14 C92.55 104.57, 99.6 104.69, 102.6 101.17 C105.6 97.66, 104.73 99.78, 105.57 85.05 C106.42 70.32, 107.76 27.22, 107.67 12.79 C107.58 -1.63, 107.48 1.78, 105.04 -1.49 C102.59 -4.76, 97.74 -5.24, 92.99 -6.83 C88.24 -8.42, 82.54 -10.12, 76.52 -11.03 C70.5 -11.94, 62.03 -12.49, 56.87 -12.3 C51.72 -12.12, 51.89 -10.18, 45.58 -9.92 C39.27 -9.65, 26.49 -12.6, 19.03 -10.69 C11.57 -8.78, 4.14 -0.03, 0.8 1.56" stroke="#c92a2a" stroke-width="1" fill="none"></path></g></g><mask></mask><g stroke-linecap="round" transform="translate(11.361753848525836 329.76572402108786) rotate(0 53.04691057079941 14.423183328302713)"><path d="M55.94 0.22 C65.89 0.2, 78.58 1.64, 86.63 3.35 C94.68 5.06, 101.58 7.83, 104.23 10.5 C106.89 13.17, 106.29 16.72, 102.57 19.39 C98.85 22.06, 90.67 24.92, 81.92 26.5 C73.18 28.08, 60.51 29.06, 50.09 28.89 C39.68 28.72, 27.52 27.31, 19.44 25.5 C11.37 23.68, 4.25 20.72, 1.64 17.98 C-0.97 15.25, 0.02 11.75, 3.77 9.1 C7.51 6.46, 15.35 3.66, 24.11 2.11 C32.86 0.56, 50.82 0.06, 56.28 -0.21 C61.73 -0.47, 56.9 0.21, 56.83 0.5 M52.19 0.25 C62.01 0.04, 75.04 0.88, 83.56 2.49 C92.08 4.11, 99.9 7.28, 103.31 9.94 C106.72 12.6, 107.08 15.82, 104.03 18.46 C100.99 21.1, 93.39 24.1, 85.05 25.79 C76.7 27.48, 64.31 28.53, 53.94 28.59 C43.57 28.65, 31.29 27.79, 22.82 26.17 C14.34 24.55, 6.55 21.51, 3.08 18.87 C-0.39 16.23, -1.05 12.99, 2 10.34 C5.06 7.69, 13.05 4.69, 21.41 2.97 C29.77 1.25, 47.02 0.49, 52.15 0.02 C57.29 -0.46, 52.21 -0.13, 52.21 0.12" stroke="none" stroke-width="0" fill="#ffffff"></path><path d="M51.02 0.18 C60.84 -0.11, 73.54 1.08, 82.21 2.62 C90.87 4.17, 99.33 6.84, 103.01 9.47 C106.69 12.1, 107.17 15.69, 104.3 18.4 C101.42 21.11, 93.98 24.01, 85.78 25.73 C77.58 27.46, 65.43 28.62, 55.08 28.76 C44.74 28.89, 32.32 28.09, 23.7 26.57 C15.07 25.05, 6.97 22.29, 3.34 19.64 C-0.3 16.99, -0.94 13.42, 1.88 10.67 C4.69 7.92, 12 4.95, 20.24 3.15 C28.47 1.35, 46.04 0.36, 51.31 -0.14 C56.58 -0.63, 51.81 -0.11, 51.85 0.18 M57.78 -0.21 C67.77 -0.18, 80.24 1.81, 88.11 3.74 C95.98 5.67, 102.7 8.67, 105 11.35 C107.3 14.03, 106.06 17.29, 101.9 19.81 C97.74 22.33, 89.02 24.97, 80.04 26.46 C71.06 27.95, 58.3 28.87, 48.04 28.73 C37.78 28.59, 26.3 27.51, 18.48 25.62 C10.66 23.73, 3.53 20.25, 1.12 17.4 C-1.3 14.55, -0.14 11.05, 3.99 8.5 C8.12 5.96, 16.9 3.52, 25.91 2.14 C34.92 0.77, 52.76 0.59, 58.05 0.26 C63.33 -0.07, 57.71 -0.1, 57.6 0.17" stroke="#c92a2a" stroke-width="1" fill="none"></path></g><g transform="translate(12.132595084593845 455.1239491179938) rotate(0 51.900001525878906 13.097618826708981)"><text x="51.900001525878906" y="0" font-family="Virgil, Segoe UI Emoji" font-size="20.95619012273435px" fill="#000000" text-anchor="middle" style="white-space: pre;" direction="ltr" dominant-baseline="text-before-edge">Database</text></g><g transform="translate(542.632511231741 454.96646725541433) rotate(0 105.7750015258789 28.060088683928484)"><text x="0" y="0" font-family="Virgil, Segoe UI Emoji" font-size="22.44807094714279px" fill="#000000" text-anchor="start" style="white-space: pre;" direction="ltr" dominant-baseline="text-before-edge">Durable storage</text><text x="0" y="28.060088683928484" font-family="Virgil, Segoe UI Emoji" font-size="22.44807094714279px" fill="#000000" text-anchor="start" style="white-space: pre;" direction="ltr" dominant-baseline="text-before-edge">(database cluster)</text></g><g stroke-linecap="round"><g transform="translate(435.8015232678498 423.1720928866854) rotate(0 46.369747863507655 43.675650347060525)" fill-rule="evenodd"><path d="M0 0 C0 0, 0 0, 0 0 M0 0 C0 0, 0 0, 0 0 M-0.26 6.4 C2.35 3.4, 4.95 0.4, 8.92 -4.17 M-0.26 6.4 C1.97 3.83, 4.2 1.26, 8.92 -4.17 M0.13 12.04 C3.83 7.79, 7.52 3.54, 17.19 -7.58 M0.13 12.04 C4.24 7.32, 8.34 2.6, 17.19 -7.58 M-0.13 18.44 C7.06 10.17, 14.25 1.9, 23.49 -8.73 M-0.13 18.44 C8.92 8.04, 17.96 -2.37, 23.49 -8.73 M0.27 24.08 C10.93 11.82, 21.59 -0.45, 29.13 -9.13 M0.27 24.08 C7.36 15.92, 14.45 7.77, 29.13 -9.13 M0 30.48 C13.43 15.04, 26.85 -0.4, 34.78 -9.52 M0 30.48 C13.72 14.71, 27.43 -1.06, 34.78 -9.52 M-0.26 36.88 C12.61 22.08, 25.48 7.27, 39.76 -9.16 M-0.26 36.88 C11.51 23.34, 23.27 9.81, 39.76 -9.16 M0.14 42.52 C12.64 28.14, 25.14 13.76, 45.41 -9.55 M0.14 42.52 C14.56 25.93, 28.99 9.33, 45.41 -9.55 M-0.12 48.92 C16.47 29.83, 33.07 10.74, 51.05 -9.95 M-0.12 48.92 C13.21 33.58, 26.54 18.24, 51.05 -9.95 M0.27 54.56 C14.48 38.22, 28.68 21.88, 56.04 -9.59 M0.27 54.56 C19.21 32.78, 38.14 10.99, 56.04 -9.59 M0.01 60.96 C12.92 46.11, 25.82 31.27, 61.02 -9.23 M0.01 60.96 C19.08 39.02, 38.16 17.08, 61.02 -9.23 M0.4 66.6 C15.79 48.9, 31.18 31.2, 66.01 -8.87 M0.4 66.6 C18.97 45.25, 37.53 23.89, 66.01 -8.87 M0.14 73 C21.2 48.77, 42.26 24.55, 70.34 -7.75 M0.14 73 C14.86 56.07, 29.57 39.14, 70.34 -7.75 M-0.12 79.4 C19.42 56.92, 38.95 34.45, 74.67 -6.64 M-0.12 79.4 C23.58 52.14, 47.27 24.88, 74.67 -6.64 M0.28 85.04 C23.04 58.85, 45.81 32.66, 79 -5.52 M0.28 85.04 C16.28 66.64, 32.28 48.23, 79 -5.52 M2.64 88.42 C19.84 68.63, 37.05 48.84, 83.33 -4.41 M2.64 88.42 C22.93 65.08, 43.22 41.74, 83.33 -4.41 M6.31 90.29 C35.72 56.46, 65.13 22.63, 87.66 -3.29 M6.31 90.29 C33.75 58.73, 61.18 27.17, 87.66 -3.29 M9.99 92.16 C34.34 64.14, 58.69 36.13, 90.68 -0.67 M9.99 92.16 C29.29 69.96, 48.59 47.76, 90.68 -0.67 M14.32 93.27 C36.52 67.73, 58.73 42.19, 93.05 2.71 M14.32 93.27 C41.69 61.79, 69.06 30.3, 93.05 2.71 M18.65 94.39 C46.15 62.75, 73.66 31.11, 92.79 9.11 M18.65 94.39 C39.01 70.97, 59.37 47.54, 92.79 9.11 M22.98 95.5 C43.76 71.6, 64.54 47.69, 92.52 15.5 M22.98 95.5 C48.21 66.48, 73.43 37.47, 92.52 15.5 M27.31 96.62 C53.41 66.6, 79.5 36.58, 92.92 21.15 M27.31 96.62 C46.65 74.38, 65.98 52.14, 92.92 21.15 M32.3 96.98 C46.94 80.13, 61.59 63.28, 92.66 27.54 M32.3 96.98 C44.54 82.9, 56.78 68.82, 92.66 27.54 M37.29 97.34 C58.87 72.51, 80.46 47.68, 92.4 33.94 M37.29 97.34 C52.62 79.7, 67.95 62.06, 92.4 33.94 M42.27 97.7 C53.74 84.5, 65.21 71.31, 92.79 39.59 M42.27 97.7 C56.44 81.4, 70.61 65.11, 92.79 39.59 M47.26 98.06 C60.63 82.68, 74 67.3, 92.53 45.98 M47.26 98.06 C62.94 80.02, 78.63 61.98, 92.53 45.98 M52.9 97.66 C66.62 81.88, 80.34 66.1, 92.27 52.38 M52.9 97.66 C64.73 84.06, 76.55 70.46, 92.27 52.38 M58.55 97.27 C68.24 86.12, 77.93 74.97, 92.66 58.02 M58.55 97.27 C67.51 86.96, 76.47 76.65, 92.66 58.02 M64.19 96.87 C75.08 84.34, 85.98 71.81, 92.4 64.42 M64.19 96.87 C74.34 85.2, 84.48 73.53, 92.4 64.42 M70.49 95.73 C76.25 89.1, 82 82.48, 92.14 70.82 M70.49 95.73 C77.69 87.44, 84.89 79.16, 92.14 70.82 M76.79 94.58 C81.55 89.1, 86.3 83.63, 92.53 76.46 M76.79 94.58 C80.68 90.1, 84.58 85.62, 92.53 76.46 M85.06 91.16 C87.81 87.99, 90.57 84.82, 92.27 82.86 M85.06 91.16 C87.25 88.64, 89.44 86.12, 92.27 82.86 M1.83 87.83 C1.83 87.83, 1.83 87.83, 1.83 87.83 M1.83 87.83 C1.83 87.83, 1.83 87.83, 1.83 87.83 M12.75 92.03 C8.83 88.62, 4.91 85.21, -0.08 80.88 M12.75 92.03 C9.34 89.06, 5.92 86.09, -0.08 80.88 M21.41 94.26 C14.42 88.17, 7.42 82.09, 0.28 75.89 M21.41 94.26 C14.54 88.28, 7.66 82.3, 0.28 75.89 M30.08 96.49 C19.69 87.46, 9.3 78.43, -0.11 70.25 M30.08 96.49 C19.45 87.25, 8.83 78.02, -0.11 70.25 M36.47 96.75 C22.62 84.71, 8.77 72.67, 0.25 65.26 M36.47 96.75 C27.23 88.72, 17.99 80.68, 0.25 65.26 M42.87 97.01 C28.41 84.44, 13.95 71.87, -0.15 59.62 M42.87 97.01 C32.75 88.22, 22.64 79.42, -0.15 59.62 M49.27 97.27 C30.23 80.72, 11.19 64.17, 0.21 54.63 M49.27 97.27 C34.97 84.84, 20.66 72.41, 0.21 54.63 M54.91 96.88 C35.4 79.91, 15.88 62.95, -0.18 48.98 M54.91 96.88 C42.1 85.74, 29.28 74.6, -0.18 48.98 M60.56 96.48 C40.97 79.45, 21.38 62.42, 0.18 44 M60.56 96.48 C37.31 76.28, 14.07 56.07, 0.18 44 M65.44 95.43 C52.25 83.96, 39.05 72.49, 0.54 39.01 M65.44 95.43 C52.28 83.99, 39.11 72.54, 0.54 39.01 M70.33 94.38 C45.74 73, 21.14 51.62, 0.14 33.37 M70.33 94.38 C43.84 71.35, 17.34 48.31, 0.14 33.37 M75.98 93.99 C51.73 72.91, 27.49 51.84, 0.5 28.38 M75.98 93.99 C57.36 77.8, 38.74 61.62, 0.5 28.38 M80.11 92.28 C55.5 70.89, 30.89 49.49, 0.11 22.74 M80.11 92.28 C55.81 71.16, 31.52 50.04, 0.11 22.74 M85 91.23 C61.45 70.76, 37.9 50.29, 0.47 17.75 M85 91.23 C67.49 76.01, 49.97 60.78, 0.47 17.75 M88.38 88.87 C68.89 71.92, 49.4 54.98, 0.08 12.11 M88.38 88.87 C62.76 66.6, 37.14 44.32, 0.08 12.11 M91 85.85 C65.74 63.89, 40.49 41.94, 0.44 7.12 M91 85.85 C57.53 56.75, 24.06 27.66, 0.44 7.12 M92.87 82.17 C56.02 50.14, 19.17 18.11, 0.04 1.48 M92.87 82.17 C69.14 61.54, 45.4 40.91, 0.04 1.48 M93.23 77.19 C69.84 56.85, 46.44 36.51, 2.66 -1.54 M93.23 77.19 C60.51 48.74, 27.79 20.3, 2.66 -1.54 M92.84 71.54 C64.74 47.12, 36.65 22.7, 6.8 -3.25 M92.84 71.54 C74.66 55.74, 56.48 39.94, 6.8 -3.25 M93.2 66.56 C61.15 38.7, 29.11 10.85, 10.18 -5.61 M93.2 66.56 C72.28 48.38, 51.37 30.2, 10.18 -5.61 M92.8 60.91 C62.79 34.82, 32.77 8.73, 14.31 -7.32 M92.8 60.91 C64.53 36.34, 36.26 11.76, 14.31 -7.32 M93.16 55.93 C65.99 32.3, 38.81 8.68, 18.44 -9.02 M93.16 55.93 C74.24 39.48, 55.31 23.03, 18.44 -9.02 M92.77 50.28 C70.76 31.16, 48.76 12.03, 24.09 -9.42 M92.77 50.28 C65.45 26.53, 38.13 2.79, 24.09 -9.42 M93.13 45.3 C72.44 27.32, 51.76 9.34, 29.73 -9.81 M93.13 45.3 C79.22 33.21, 65.32 21.13, 29.73 -9.81 M93.49 40.31 C71.75 21.41, 50.01 2.51, 36.13 -9.55 M93.49 40.31 C81.35 29.76, 69.21 19.21, 36.13 -9.55 M93.09 34.67 C75.59 19.45, 58.08 4.23, 41.77 -9.95 M93.09 34.67 C75.33 19.22, 57.56 3.78, 41.77 -9.95 M93.45 29.68 C75.97 14.48, 58.48 -0.72, 47.41 -10.34 M93.45 29.68 C75.89 14.41, 58.33 -0.85, 47.41 -10.34 M93.06 24.04 C80.95 13.51, 68.84 2.99, 53.81 -10.08 M93.06 24.04 C82.37 14.75, 71.69 5.46, 53.81 -10.08 M93.42 19.05 C85.88 12.5, 78.35 5.95, 60.21 -9.82 M93.42 19.05 C84.14 10.99, 74.87 2.93, 60.21 -9.82 M93.78 14.06 C86.86 8.05, 79.95 2.04, 67.36 -8.9 M93.78 14.06 C83.79 5.38, 73.8 -3.3, 67.36 -8.9 M93.38 8.42 C89.63 5.15, 85.87 1.89, 75.27 -7.33 M93.38 8.42 C86.7 2.61, 80.01 -3.21, 75.27 -7.33 M93.74 3.43 C90.93 0.98, 88.11 -1.47, 83.18 -5.75 M93.74 3.43 C90.72 0.8, 87.69 -1.83, 83.18 -5.75" stroke="#ced4da" stroke-width="0.5" fill="none"></path><path d="M0 0 C0 12.37, -0.27 59.62, 0 74.23 C0.27 88.84, -0.5 84.6, 1.62 87.65 C3.75 90.71, 8.13 91.11, 12.77 92.59 C17.41 94.06, 23.71 95.67, 29.46 96.49 C35.21 97.3, 41.76 97.49, 47.26 97.49 C52.76 97.49, 57.55 97.07, 62.46 96.49 C67.37 95.91, 71.97 95.57, 76.72 94.01 C81.46 92.45, 88.4 90.42, 90.93 87.13 C93.46 83.83, 91.61 87.07, 91.9 74.23 C92.2 61.4, 92.74 22.54, 92.68 10.11 C92.61 -2.31, 93.62 2.34, 91.51 -0.32 C89.39 -2.99, 84.06 -4.44, 79.99 -5.89 C75.91 -7.34, 72.01 -8.36, 67.06 -9.04 C62.1 -9.72, 54.83 -9.82, 50.25 -9.97 C45.67 -10.12, 45.15 -10.28, 39.58 -9.94 C34.02 -9.6, 23.46 -9.59, 16.87 -7.94 C10.27 -6.28, 2.81 -1.32, 0 0 M0 0 C0 12.37, -0.27 59.62, 0 74.23 C0.27 88.84, -0.5 84.6, 1.62 87.65 C3.75 90.71, 8.13 91.11, 12.77 92.59 C17.41 94.06, 23.71 95.67, 29.46 96.49 C35.21 97.3, 41.76 97.49, 47.26 97.49 C52.76 97.49, 57.55 97.07, 62.46 96.49 C67.37 95.91, 71.97 95.57, 76.72 94.01 C81.46 92.45, 88.4 90.42, 90.93 87.13 C93.46 83.83, 91.61 87.07, 91.9 74.23 C92.2 61.4, 92.74 22.54, 92.68 10.11 C92.61 -2.31, 93.62 2.34, 91.51 -0.32 C89.39 -2.99, 84.06 -4.44, 79.99 -5.89 C75.91 -7.34, 72.01 -8.36, 67.06 -9.04 C62.1 -9.72, 54.83 -9.82, 50.25 -9.97 C45.67 -10.12, 45.15 -10.28, 39.58 -9.94 C34.02 -9.6, 23.46 -9.59, 16.87 -7.94 C10.27 -6.28, 2.81 -1.32, 0 0" stroke="#495057" stroke-width="1" fill="none"></path></g></g><mask></mask><g stroke-linecap="round" transform="translate(436.08359791458145 411.8100650698334) rotate(0 46.25572144919602 12.576693784159886)"><path d="M92.51 12.58 C92.51 13.23, 92.32 13.9, 91.94 14.54 C91.56 15.19, 90.99 15.84, 90.25 16.46 C89.5 17.09, 88.56 17.7, 87.47 18.29 C86.37 18.87, 85.1 19.44, 83.68 19.97 C82.26 20.5, 80.67 21.01, 78.96 21.47 C77.26 21.93, 75.4 22.37, 73.44 22.75 C71.49 23.14, 69.4 23.48, 67.26 23.78 C65.11 24.08, 62.84 24.34, 60.55 24.54 C58.26 24.74, 55.87 24.9, 53.49 25 C51.11 25.1, 48.67 25.15, 46.26 25.15 C43.84 25.15, 41.4 25.1, 39.02 25 C36.64 24.9, 34.26 24.74, 31.96 24.54 C29.67 24.34, 27.41 24.08, 25.26 23.78 C23.11 23.48, 21.02 23.14, 19.07 22.75 C17.12 22.37, 15.25 21.93, 13.55 21.47 C11.84 21.01, 10.25 20.5, 8.83 19.97 C7.42 19.44, 6.14 18.87, 5.04 18.29 C3.95 17.7, 3.01 17.09, 2.26 16.46 C1.52 15.84, 0.95 15.19, 0.57 14.54 C0.19 13.9, 0 13.23, 0 12.58 C0 11.92, 0.19 11.26, 0.57 10.61 C0.95 9.96, 1.52 9.31, 2.26 8.69 C3.01 8.07, 3.95 7.45, 5.04 6.87 C6.14 6.28, 7.42 5.71, 8.83 5.18 C10.25 4.65, 11.84 4.15, 13.55 3.68 C15.25 3.22, 17.12 2.79, 19.07 2.4 C21.02 2.02, 23.11 1.67, 25.26 1.37 C27.41 1.07, 29.67 0.82, 31.96 0.62 C34.26 0.41, 36.64 0.26, 39.02 0.15 C41.4 0.05, 43.84 0, 46.26 0 C48.67 0, 51.11 0.05, 53.49 0.15 C55.87 0.26, 58.26 0.41, 60.55 0.62 C62.84 0.82, 65.11 1.07, 67.26 1.37 C69.4 1.67, 71.49 2.02, 73.44 2.4 C75.4 2.79, 77.26 3.22, 78.96 3.68 C80.67 4.15, 82.26 4.65, 83.68 5.18 C85.1 5.71, 86.37 6.28, 87.47 6.87 C88.56 7.45, 89.5 8.07, 90.25 8.69 C90.99 9.31, 91.56 9.96, 91.94 10.61 C92.32 11.26, 92.42 12.25, 92.51 12.58 C92.61 12.9, 92.61 12.25, 92.51 12.58" stroke="none" stroke-width="0" fill="#ffffff"></path><path d="M92.51 12.58 C92.51 13.23, 92.32 13.9, 91.94 14.54 C91.56 15.19, 90.99 15.84, 90.25 16.46 C89.5 17.09, 88.56 17.7, 87.47 18.29 C86.37 18.87, 85.1 19.44, 83.68 19.97 C82.26 20.5, 80.67 21.01, 78.96 21.47 C77.26 21.93, 75.4 22.37, 73.44 22.75 C71.49 23.14, 69.4 23.48, 67.26 23.78 C65.11 24.08, 62.84 24.34, 60.55 24.54 C58.26 24.74, 55.87 24.9, 53.49 25 C51.11 25.1, 48.67 25.15, 46.26 25.15 C43.84 25.15, 41.4 25.1, 39.02 25 C36.64 24.9, 34.26 24.74, 31.96 24.54 C29.67 24.34, 27.41 24.08, 25.26 23.78 C23.11 23.48, 21.02 23.14, 19.07 22.75 C17.12 22.37, 15.25 21.93, 13.55 21.47 C11.84 21.01, 10.25 20.5, 8.83 19.97 C7.42 19.44, 6.14 18.87, 5.04 18.29 C3.95 17.7, 3.01 17.09, 2.26 16.46 C1.52 15.84, 0.95 15.19, 0.57 14.54 C0.19 13.9, 0 13.23, 0 12.58 C0 11.92, 0.19 11.26, 0.57 10.61 C0.95 9.96, 1.52 9.31, 2.26 8.69 C3.01 8.07, 3.95 7.45, 5.04 6.87 C6.14 6.28, 7.42 5.71, 8.83 5.18 C10.25 4.65, 11.84 4.15, 13.55 3.68 C15.25 3.22, 17.12 2.79, 19.07 2.4 C21.02 2.02, 23.11 1.67, 25.26 1.37 C27.41 1.07, 29.67 0.82, 31.96 0.62 C34.26 0.41, 36.64 0.26, 39.02 0.15 C41.4 0.05, 43.84 0, 46.26 0 C48.67 0, 51.11 0.05, 53.49 0.15 C55.87 0.26, 58.26 0.41, 60.55 0.62 C62.84 0.82, 65.11 1.07, 67.26 1.37 C69.4 1.67, 71.49 2.02, 73.44 2.4 C75.4 2.79, 77.26 3.22, 78.96 3.68 C80.67 4.15, 82.26 4.65, 83.68 5.18 C85.1 5.71, 86.37 6.28, 87.47 6.87 C88.56 7.45, 89.5 8.07, 90.25 8.69 C90.99 9.31, 91.56 9.96, 91.94 10.61 C92.32 11.26, 92.42 12.25, 92.51 12.58 C92.61 12.9, 92.61 12.25, 92.51 12.58" stroke="#495057" stroke-width="1" fill="none"></path></g><g transform="translate(535.7249200128816 322.1718492811351) rotate(0 104.0707472416392 14.164075359432445)"><text x="0" y="0" font-family="Virgil, Segoe UI Emoji" font-size="22.662520575091904px" fill="#000000" text-anchor="start" style="white-space: pre;" direction="ltr" dominant-baseline="text-before-edge">Shared buffer pool</text></g><g stroke-linecap="round"><g transform="translate(435.0762701122152 266.00708197150254) rotate(0 43.59945147460428 41.06630908439878)" fill-rule="evenodd"><path d="M0 0 C0 0, 0 0, 0 0 M0 0 C0 0, 0 0, 0 0 M-0.26 6.4 C3.31 2.29, 6.89 -1.83, 8.92 -4.17 M-0.26 6.4 C1.84 3.98, 3.93 1.57, 8.92 -4.17 M0.13 12.04 C4.93 6.52, 9.73 1.01, 16.53 -6.83 M0.13 12.04 C6.51 4.7, 12.89 -2.63, 16.53 -6.83 M-0.13 18.44 C8.08 9, 16.29 -0.44, 22.83 -7.98 M-0.13 18.44 C9.04 7.89, 18.21 -2.65, 22.83 -7.98 M0.27 24.08 C6.27 17.18, 12.27 10.27, 28.48 -8.37 M0.27 24.08 C6.02 17.46, 11.78 10.84, 28.48 -8.37 M0 30.48 C8.72 20.46, 17.43 10.43, 34.12 -8.77 M0 30.48 C10.67 18.21, 21.33 5.95, 34.12 -8.77 M-0.26 36.88 C10.15 24.91, 20.55 12.94, 39.76 -9.16 M-0.26 36.88 C9.31 25.87, 18.88 14.86, 39.76 -9.16 M0.14 42.52 C13.17 27.52, 26.21 12.53, 45.41 -9.55 M0.14 42.52 C11.17 29.83, 22.21 17.13, 45.41 -9.55 M-0.12 48.92 C14.9 31.64, 29.92 14.35, 50.39 -9.19 M-0.12 48.92 C18.73 27.23, 37.58 5.54, 50.39 -9.19 M0.27 54.56 C14.16 38.59, 28.05 22.61, 55.38 -8.83 M0.27 54.56 C11.35 41.82, 22.42 29.08, 55.38 -8.83 M0.01 60.96 C19.96 38, 39.92 15.05, 60.37 -8.47 M0.01 60.96 C16.21 42.32, 32.41 23.69, 60.37 -8.47 M0.4 66.6 C15.62 49.1, 30.83 31.6, 64.7 -7.36 M0.4 66.6 C14.88 49.95, 29.35 33.31, 64.7 -7.36 M0.14 73 C14.42 56.57, 28.7 40.14, 69.03 -6.24 M0.14 73 C18.71 51.64, 37.28 30.28, 69.03 -6.24 M-0.12 79.4 C23.63 52.08, 47.38 24.76, 73.36 -5.13 M-0.12 79.4 C21.18 54.9, 42.48 30.39, 73.36 -5.13 M2.24 82.78 C26.19 55.23, 50.14 27.68, 77.69 -4.02 M2.24 82.78 C25.2 56.37, 48.16 29.95, 77.69 -4.02 M5.26 85.4 C27.15 60.22, 49.04 35.04, 82.02 -2.9 M5.26 85.4 C20.76 67.57, 36.26 49.74, 82.02 -2.9 M9.59 86.52 C31.7 61.08, 53.81 35.65, 85.04 -0.28 M9.59 86.52 C38.5 53.26, 67.41 20.01, 85.04 -0.28 M13.92 87.63 C35.11 63.26, 56.3 38.89, 87.4 3.1 M13.92 87.63 C36.01 62.23, 58.09 36.82, 87.4 3.1 M18.26 88.75 C39.71 64.07, 61.16 39.39, 87.8 8.75 M18.26 88.75 C39.07 64.8, 59.89 40.85, 87.8 8.75 M22.59 89.86 C47.95 60.68, 73.31 31.5, 87.54 15.14 M22.59 89.86 C45.84 63.11, 69.09 36.36, 87.54 15.14 M26.92 90.97 C49.87 64.57, 72.82 38.17, 87.28 21.54 M26.92 90.97 C46.78 68.13, 66.64 45.29, 87.28 21.54 M31.9 91.34 C45.39 75.82, 58.87 60.31, 87.67 27.18 M31.9 91.34 C47.48 73.42, 63.06 55.5, 87.67 27.18 M36.89 91.7 C50.38 76.18, 63.86 60.67, 87.41 33.58 M36.89 91.7 C53.62 72.46, 70.34 53.22, 87.41 33.58 M41.88 92.06 C59.28 72.04, 76.68 52.02, 87.15 39.98 M41.88 92.06 C51.03 81.52, 60.19 70.99, 87.15 39.98 M47.52 91.66 C62.31 74.65, 77.09 57.65, 87.54 45.62 M47.52 91.66 C57.42 80.28, 67.31 68.9, 87.54 45.62 M53.16 91.27 C65.2 77.42, 77.24 63.57, 87.28 52.02 M53.16 91.27 C66.72 75.67, 80.28 60.07, 87.28 52.02 M58.81 90.87 C65.32 83.38, 71.83 75.89, 87.02 58.42 M58.81 90.87 C64.51 84.32, 70.21 77.76, 87.02 58.42 M65.11 89.72 C73.44 80.13, 81.78 70.54, 87.41 64.06 M65.11 89.72 C73.32 80.27, 81.54 70.82, 87.41 64.06 M71.41 88.57 C75.13 84.29, 78.85 80.01, 87.15 70.46 M71.41 88.57 C74.6 84.9, 77.79 81.23, 87.15 70.46 M78.36 86.67 C80.63 84.06, 82.9 81.45, 86.89 76.86 M78.36 86.67 C81.36 83.22, 84.35 79.78, 86.89 76.86 M1.36 82.27 C1.36 82.27, 1.36 82.27, 1.36 82.27 M1.36 82.27 C1.36 82.27, 1.36 82.27, 1.36 82.27 M12.28 86.47 C8.17 82.9, 4.06 79.32, 0.21 75.97 M12.28 86.47 C9.69 84.21, 7.09 81.95, 0.21 75.97 M20.95 88.7 C16.23 84.6, 11.52 80.51, 0.57 70.99 M20.95 88.7 C13.09 81.87, 5.23 75.03, 0.57 70.99 M29.61 90.93 C20.77 83.25, 11.93 75.56, 0.17 65.34 M29.61 90.93 C18.96 81.67, 8.3 72.41, 0.17 65.34 M36.01 91.19 C25.29 81.87, 14.57 72.55, 0.53 60.36 M36.01 91.19 C25.48 82.04, 14.96 72.89, 0.53 60.36 M42.4 91.45 C27.99 78.92, 13.57 66.39, 0.14 54.71 M42.4 91.45 C32.84 83.14, 23.27 74.82, 0.14 54.71 M48.05 91.06 C34.73 79.48, 21.42 67.91, 0.5 49.73 M48.05 91.06 C33.25 78.2, 18.46 65.34, 0.5 49.73 M53.69 90.66 C40.28 79, 26.87 67.34, 0.11 44.08 M53.69 90.66 C33.55 73.15, 13.41 55.65, 0.11 44.08 M59.33 90.27 C43.98 76.92, 28.62 63.57, 0.47 39.09 M59.33 90.27 C38.7 72.33, 18.07 54.4, 0.47 39.09 M64.22 89.22 C44.48 72.06, 24.74 54.9, 0.07 33.45 M64.22 89.22 C50.7 77.46, 37.17 65.7, 0.07 33.45 M69.11 88.17 C42.8 65.29, 16.48 42.42, 0.43 28.46 M69.11 88.17 C54.07 75.09, 39.03 62.02, 0.43 28.46 M74.75 87.77 C45.97 62.75, 17.18 37.72, 0.04 22.82 M74.75 87.77 C55 70.6, 35.25 53.44, 0.04 22.82 M78.89 86.06 C53.19 63.73, 27.5 41.39, 0.4 17.83 M78.89 86.06 C55.05 65.34, 31.21 44.62, 0.4 17.83 M82.27 83.7 C61.94 66.03, 41.61 48.36, 0 12.19 M82.27 83.7 C57.39 62.08, 32.52 40.46, 0 12.19 M85.64 81.34 C67.2 65.31, 48.76 49.28, 0.36 7.2 M85.64 81.34 C62.24 61, 38.84 40.65, 0.36 7.2 M87.51 77.66 C65.67 58.67, 43.82 39.68, -0.03 1.56 M87.51 77.66 C67.94 60.65, 48.36 43.63, -0.03 1.56 M87.12 72.02 C60.52 48.9, 33.92 25.78, 2.59 -1.46 M87.12 72.02 C54.68 43.82, 22.24 15.62, 2.59 -1.46 M87.48 67.03 C68.01 50.11, 48.53 33.18, 6.73 -3.16 M87.48 67.03 C58.43 41.79, 29.39 16.54, 6.73 -3.16 M87.08 61.39 C61.69 39.32, 36.3 17.25, 10.1 -5.53 M87.08 61.39 C58.81 36.81, 30.53 12.23, 10.1 -5.53 M87.44 56.4 C68.23 39.7, 49.01 22.99, 14.24 -7.23 M87.44 56.4 C60 32.54, 32.55 8.68, 14.24 -7.23 M87.05 50.76 C65.93 32.4, 44.8 14.04, 19.13 -8.28 M87.05 50.76 C63.73 30.49, 40.41 10.22, 19.13 -8.28 M87.41 45.77 C71.78 32.18, 56.14 18.6, 24.01 -9.33 M87.41 45.77 C64.17 25.57, 40.92 5.36, 24.01 -9.33 M87.77 40.79 C67.72 23.36, 47.67 5.93, 30.41 -9.07 M87.77 40.79 C69.82 25.19, 51.88 9.59, 30.41 -9.07 M87.38 35.14 C71.03 20.94, 54.69 6.73, 36.06 -9.47 M87.38 35.14 C68.66 18.87, 49.94 2.6, 36.06 -9.47 M87.74 30.16 C74.88 18.98, 62.02 7.8, 41.7 -9.86 M87.74 30.16 C75.77 19.76, 63.81 9.36, 41.7 -9.86 M87.34 24.51 C75.75 14.44, 64.16 4.36, 48.1 -9.6 M87.34 24.51 C78.24 16.6, 69.13 8.68, 48.1 -9.6 M87.7 19.53 C75.21 8.67, 62.73 -2.18, 54.49 -9.34 M87.7 19.53 C79.36 12.28, 71.03 5.03, 54.49 -9.34 M87.31 13.88 C77.09 5, 66.88 -3.87, 60.89 -9.08 M87.31 13.88 C77.69 5.52, 68.07 -2.84, 60.89 -9.08 M87.67 8.9 C83 4.84, 78.33 0.78, 69.55 -6.85 M87.67 8.9 C81.58 3.61, 75.5 -1.68, 69.55 -6.85 M88.03 3.91 C85.14 1.4, 82.25 -1.11, 78.22 -4.62 M88.03 3.91 C84.2 0.59, 80.38 -2.74, 78.22 -4.62" stroke="#4c6ef5" stroke-width="0.5" fill="none"></path><path d="M0 0 C0 11.63, -0.25 56.06, 0 69.8 C0.25 83.53, -0.47 79.54, 1.53 82.42 C3.53 85.29, 7.64 85.67, 12.01 87.06 C16.37 88.44, 22.3 89.95, 27.7 90.72 C33.11 91.49, 39.27 91.67, 44.44 91.67 C49.61 91.67, 54.11 91.27, 58.73 90.72 C63.34 90.18, 67.67 89.86, 72.13 88.39 C76.59 86.92, 83.12 85.02, 85.5 81.92 C87.88 78.82, 86.14 81.86, 86.41 69.8 C86.69 57.73, 87.2 21.19, 87.14 9.51 C87.08 -2.18, 88.03 2.2, 86.04 -0.3 C84.05 -2.81, 79.04 -4.17, 75.21 -5.54 C71.38 -6.9, 67.71 -7.86, 63.05 -8.5 C58.39 -9.14, 51.55 -9.23, 47.25 -9.37 C42.94 -9.51, 42.45 -9.67, 37.22 -9.35 C31.99 -9.03, 22.06 -9.02, 15.86 -7.46 C9.66 -5.9, 2.64 -1.24, 0 0 M0 0 C0 11.63, -0.25 56.06, 0 69.8 C0.25 83.53, -0.47 79.54, 1.53 82.42 C3.53 85.29, 7.64 85.67, 12.01 87.06 C16.37 88.44, 22.3 89.95, 27.7 90.72 C33.11 91.49, 39.27 91.67, 44.44 91.67 C49.61 91.67, 54.11 91.27, 58.73 90.72 C63.34 90.18, 67.67 89.86, 72.13 88.39 C76.59 86.92, 83.12 85.02, 85.5 81.92 C87.88 78.82, 86.14 81.86, 86.41 69.8 C86.69 57.73, 87.2 21.19, 87.14 9.51 C87.08 -2.18, 88.03 2.2, 86.04 -0.3 C84.05 -2.81, 79.04 -4.17, 75.21 -5.54 C71.38 -6.9, 67.71 -7.86, 63.05 -8.5 C58.39 -9.14, 51.55 -9.23, 47.25 -9.37 C42.94 -9.51, 42.45 -9.67, 37.22 -9.35 C31.99 -9.03, 22.06 -9.02, 15.86 -7.46 C9.66 -5.9, 2.64 -1.24, 0 0" stroke="#364fc7" stroke-width="1" fill="none"></path></g></g><mask></mask><g stroke-linecap="round" transform="translate(435.34149259969956 255.32386277626085) rotate(0 43.492237410550274 11.825316625992912)"><path d="M86.98 11.83 C86.98 12.44, 86.8 13.07, 86.45 13.68 C86.09 14.28, 85.56 14.89, 84.86 15.48 C84.15 16.07, 83.27 16.64, 82.24 17.19 C81.21 17.74, 80.01 18.28, 78.68 18.78 C77.35 19.27, 75.85 19.75, 74.25 20.19 C72.64 20.62, 70.89 21.03, 69.06 21.39 C67.22 21.75, 65.26 22.08, 63.24 22.36 C61.22 22.64, 59.09 22.88, 56.93 23.07 C54.78 23.26, 52.54 23.41, 50.3 23.51 C48.06 23.6, 45.76 23.65, 43.49 23.65 C41.22 23.65, 38.93 23.6, 36.69 23.51 C34.45 23.41, 32.21 23.26, 30.05 23.07 C27.9 22.88, 25.77 22.64, 23.75 22.36 C21.73 22.08, 19.76 21.75, 17.93 21.39 C16.09 21.03, 14.34 20.62, 12.74 20.19 C11.13 19.75, 9.64 19.27, 8.31 18.78 C6.97 18.28, 5.77 17.74, 4.74 17.19 C3.71 16.64, 2.83 16.07, 2.13 15.48 C1.43 14.89, 0.89 14.28, 0.54 13.68 C0.18 13.07, 0 12.44, 0 11.83 C0 11.21, 0.18 10.58, 0.54 9.98 C0.89 9.37, 1.43 8.76, 2.13 8.17 C2.83 7.58, 3.71 7.01, 4.74 6.46 C5.77 5.91, 6.97 5.37, 8.31 4.87 C9.64 4.38, 11.13 3.9, 12.74 3.46 C14.34 3.03, 16.09 2.62, 17.93 2.26 C19.76 1.9, 21.73 1.57, 23.75 1.29 C25.77 1.01, 27.9 0.77, 30.05 0.58 C32.21 0.39, 34.45 0.24, 36.69 0.15 C38.93 0.05, 41.22 0, 43.49 0 C45.76 0, 48.06 0.05, 50.3 0.15 C52.54 0.24, 54.78 0.39, 56.93 0.58 C59.09 0.77, 61.22 1.01, 63.24 1.29 C65.26 1.57, 67.22 1.9, 69.06 2.26 C70.89 2.62, 72.64 3.03, 74.25 3.46 C75.85 3.9, 77.35 4.38, 78.68 4.87 C80.01 5.37, 81.21 5.91, 82.24 6.46 C83.27 7.01, 84.15 7.58, 84.86 8.17 C85.56 8.76, 86.09 9.37, 86.45 9.98 C86.8 10.58, 86.9 11.52, 86.98 11.83 C87.07 12.13, 87.07 11.52, 86.98 11.83" stroke="none" stroke-width="0" fill="#ffffff"></path><path d="M86.98 11.83 C86.98 12.44, 86.8 13.07, 86.45 13.68 C86.09 14.28, 85.56 14.89, 84.86 15.48 C84.15 16.07, 83.27 16.64, 82.24 17.19 C81.21 17.74, 80.01 18.28, 78.68 18.78 C77.35 19.27, 75.85 19.75, 74.25 20.19 C72.64 20.62, 70.89 21.03, 69.06 21.39 C67.22 21.75, 65.26 22.08, 63.24 22.36 C61.22 22.64, 59.09 22.88, 56.93 23.07 C54.78 23.26, 52.54 23.41, 50.3 23.51 C48.06 23.6, 45.76 23.65, 43.49 23.65 C41.22 23.65, 38.93 23.6, 36.69 23.51 C34.45 23.41, 32.21 23.26, 30.05 23.07 C27.9 22.88, 25.77 22.64, 23.75 22.36 C21.73 22.08, 19.76 21.75, 17.93 21.39 C16.09 21.03, 14.34 20.62, 12.74 20.19 C11.13 19.75, 9.64 19.27, 8.31 18.78 C6.97 18.28, 5.77 17.74, 4.74 17.19 C3.71 16.64, 2.83 16.07, 2.13 15.48 C1.43 14.89, 0.89 14.28, 0.54 13.68 C0.18 13.07, 0 12.44, 0 11.83 C0 11.21, 0.18 10.58, 0.54 9.98 C0.89 9.37, 1.43 8.76, 2.13 8.17 C2.83 7.58, 3.71 7.01, 4.74 6.46 C5.77 5.91, 6.97 5.37, 8.31 4.87 C9.64 4.38, 11.13 3.9, 12.74 3.46 C14.34 3.03, 16.09 2.62, 17.93 2.26 C19.76 1.9, 21.73 1.57, 23.75 1.29 C25.77 1.01, 27.9 0.77, 30.05 0.58 C32.21 0.39, 34.45 0.24, 36.69 0.15 C38.93 0.05, 41.22 0, 43.49 0 C45.76 0, 48.06 0.05, 50.3 0.15 C52.54 0.24, 54.78 0.39, 56.93 0.58 C59.09 0.77, 61.22 1.01, 63.24 1.29 C65.26 1.57, 67.22 1.9, 69.06 2.26 C70.89 2.62, 72.64 3.03, 74.25 3.46 C75.85 3.9, 77.35 4.38, 78.68 4.87 C80.01 5.37, 81.21 5.91, 82.24 6.46 C83.27 7.01, 84.15 7.58, 84.86 8.17 C85.56 8.76, 86.09 9.37, 86.45 9.98 C86.8 10.58, 86.9 11.52, 86.98 11.83 C87.07 12.13, 87.07 11.52, 86.98 11.83" stroke="#364fc7" stroke-width="1" fill="none"></path></g><g stroke-linecap="round"><g transform="translate(139.8353099358893 385) rotate(0 125.49775028004291 0.5791801773222858)"><path d="M-0.13 0.14 C41.69 0.27, 208.99 0.78, 250.86 0.92 M0.07 0.09 C41.95 0.3, 209.3 0.9, 251.13 1.07" stroke="#1e1e1e" stroke-width="2" fill="none"></path></g><g transform="translate(139.8353099358893 385) rotate(0 125.49775028004291 0.5791801773222858)"><path d="M222.9 11.22 C229.87 8.58, 236.14 6.64, 251.13 1.07 M222.9 11.22 C230.95 8.26, 238.82 5.48, 251.13 1.07" stroke="#1e1e1e" stroke-width="2" fill="none"></path></g><g transform="translate(139.8353099358893 385) rotate(0 125.49775028004291 0.5791801773222858)"><path d="M222.98 -9.3 C229.96 -7.06, 236.21 -4.13, 251.13 1.07 M222.98 -9.3 C231.02 -6.43, 238.88 -3.38, 251.13 1.07" stroke="#1e1e1e" stroke-width="2" fill="none"></path></g></g><mask></mask><g stroke-linecap="round"><g transform="translate(464.8353099358893 365) rotate(0 0.03476381131258677 22.027260229286867)"><path d="M-0.08 0.05 C-0.07 7.35, 0.02 36.6, 0.04 43.95 M0.15 -0.05 C0.15 7.33, -0.02 36.78, -0.06 44.11" stroke="#1e1e1e" stroke-width="2" fill="none"></path></g><g transform="translate(464.8353099358893 365) rotate(0 0.03476381131258677 22.027260229286867)"><path d="M-7.47 23.39 C-5.29 29.21, -3.44 34.88, -0.06 44.11 M-7.47 23.39 C-4.59 31.46, -1.83 39.39, -0.06 44.11" stroke="#1e1e1e" stroke-width="2" fill="none"></path></g><g transform="translate(464.8353099358893 365) rotate(0 0.03476381131258677 22.027260229286867)"><path d="M7.58 23.47 C5.59 29.25, 3.27 34.9, -0.06 44.11 M7.58 23.47 C4.69 31.51, 1.68 39.41, -0.06 44.11" stroke="#1e1e1e" stroke-width="2" fill="none"></path></g></g><mask></mask><g stroke-linecap="round"><g transform="translate(494.8353099358893 401) rotate(0 0.4996789041917964 -17.53423607927752)"><path d="M0.04 -0.06 C0.19 -5.9, 0.72 -29.2, 0.86 -35.01 M-0.12 -0.21 C0.08 -6.03, 0.9 -29, 1.12 -34.83" stroke="#1e1e1e" stroke-width="2" fill="none"></path></g><g transform="translate(494.8353099358893 401) rotate(0 0.4996789041917964 -17.53423607927752)"><path d="M6.5 -18.17 C4.93 -22.95, 3.54 -27.42, 1.12 -34.83 M6.5 -18.17 C4.54 -23.93, 2.73 -29.87, 1.12 -34.83" stroke="#1e1e1e" stroke-width="2" fill="none"></path></g><g transform="translate(494.8353099358893 401) rotate(0 0.4996789041917964 -17.53423607927752)"><path d="M-5.47 -18.61 C-3.77 -23.28, -1.9 -27.62, 1.12 -34.83 M-5.47 -18.61 C-3.25 -24.22, -0.89 -29.99, 1.12 -34.83" stroke="#1e1e1e" stroke-width="2" fill="none"></path></g></g><mask></mask><g stroke-linecap="round"><g transform="translate(496.28485218167486 120.99632899578012) rotate(0 -19.002569238803517 8.33822243151949)"><path d="M0 0 C-0.01 -1.94, -0.03 -3.89, -0.04 -5.67 M0 0 C-0.01 -1.45, -0.02 -2.9, -0.04 -5.67 M-0.04 -5.67 C-11.21 -5.67, -22.37 -5.67, -38.33 -5.67 M-0.04 -5.67 C-10.62 -5.67, -21.2 -5.67, -38.33 -5.67 M-38.33 -5.67 C-38.31 1.6, -38.3 8.87, -38.27 22.2 M-38.33 -5.67 C-38.31 4.92, -38.28 15.52, -38.27 22.2 M-38.27 22.2 C-26.2 22.25, -14.13 22.29, 0.31 22.35 M-38.27 22.2 C-28.8 22.24, -19.34 22.27, 0.31 22.35 M0.31 22.35 C0.31 20.54, 0.32 18.72, 0.32 16.34 M0.31 22.35 C0.31 20.85, 0.32 19.35, 0.32 16.34" stroke="#000" stroke-width="4" fill="none"></path></g></g><mask></mask><g stroke-linecap="round" transform="translate(490.6776740194449 169.51675722401828) rotate(0 13.89755410575924 14.082904636305926)"><path d="M0 0 C8.28 0, 16.56 0, 27.8 0 M0 0 C6.1 0, 12.21 0, 27.8 0 M27.8 0 C27.8 9.23, 27.8 18.45, 27.8 28.17 M27.8 0 C27.8 10.96, 27.8 21.93, 27.8 28.17 M27.8 28.17 C19.73 28.17, 11.66 28.17, 0 28.17 M27.8 28.17 C19.9 28.17, 12.01 28.17, 0 28.17 M0 28.17 C0 20.83, 0 13.49, 0 0 M0 28.17 C0 17.2, 0 6.23, 0 0" stroke="#000" stroke-width="4" fill="none"></path></g><g stroke-linecap="round" transform="translate(436.197837640815 169.4661774430269) rotate(0 13.89755410575924 14.082904636305926)"><path d="M0 0 C9.33 0, 18.66 0, 27.8 0 M0 0 C8.37 0, 16.75 0, 27.8 0 M27.8 0 C27.8 6.38, 27.8 12.76, 27.8 28.17 M27.8 0 C27.8 7.77, 27.8 15.54, 27.8 28.17 M27.8 28.17 C21.53 28.17, 15.26 28.17, 0 28.17 M27.8 28.17 C18.85 28.17, 9.91 28.17, 0 28.17 M0 28.17 C0 22.23, 0 16.29, 0 0 M0 28.17 C0 19.96, 0 11.76, 0 0" stroke="#000" stroke-width="4" fill="none"></path></g><g stroke-linecap="round"><g transform="translate(477.3269470572699 143.40838740770886) rotate(0 -0.002681177473050411 4.959219454901572)"><path d="M0 0 C0 2.76, 0 5.51, -0.01 9.92 M0 0 C0 3.9, 0 7.8, -0.01 9.92" stroke="#000" stroke-width="4" fill="none"></path></g></g><mask></mask><g stroke-linecap="round"><g transform="translate(449.75918672815544 169.02072941193668) rotate(0 27.46115524911602 -7.747341313282604)"><path d="M0 0 C0.01 -3.17, 0.03 -6.35, 0.06 -15.49 M0 0 C0.02 -5.75, 0.05 -11.51, 0.06 -15.49 M0.06 -15.49 C17.56 -15.49, 35.05 -15.49, 54.92 -15.49 M0.06 -15.49 C16.23 -15.49, 32.41 -15.49, 54.92 -15.49 M54.92 -15.49 C54.92 -10.57, 54.91 -5.65, 54.9 -0.02 M54.92 -15.49 C54.92 -11.53, 54.91 -7.56, 54.9 -0.02" stroke="#000" stroke-width="4" fill="none"></path></g></g><mask></mask><g stroke-linecap="round"><g transform="translate(468.51941877227966 126.37871737173128) rotate(0 5.895430243925375 0.002603004184436486)"><path d="M0 0 C4.59 0, 9.18 0, 11.79 0.01 M0 0 C2.5 0, 5.01 0, 11.79 0.01" stroke="#3d71b7" stroke-width="4" fill="none"></path></g></g><mask></mask><g transform="translate(533.8353099358893 166) rotate(0 93.89167022705078 14.5)"><text x="0" y="0" font-family="Virgil, Segoe UI Emoji" font-size="23.200000000000003px" fill="#1e1e1e" text-anchor="start" style="white-space: pre;" direction="ltr" dominant-baseline="text-before-edge">Backend process</text></g><g stroke-linecap="round"><g transform="translate(465.8353099358893 213) rotate(0 0.08976380920557858 19.991260959217897)"><path d="M0.14 0.1 C0.17 6.71, 0.12 33.18, 0.12 39.85 M0.03 0.02 C0.06 6.71, 0.05 33.32, 0.06 39.97" stroke="#1e1e1e" stroke-width="2" fill="none"></path></g><g transform="translate(465.8353099358893 213) rotate(0 0.08976380920557858 19.991260959217897)"><path d="M-6.79 21.18 C-4.83 26.19, -3.55 31.02, 0.06 39.97 M-6.79 21.18 C-4.15 28.1, -1.78 35.24, 0.06 39.97" stroke="#1e1e1e" stroke-width="2" fill="none"></path></g><g transform="translate(465.8353099358893 213) rotate(0 0.08976380920557858 19.991260959217897)"><path d="M6.89 21.17 C5.36 26.2, 3.15 31.03, 0.06 39.97 M6.89 21.17 C4.41 28.09, 1.67 35.24, 0.06 39.97" stroke="#1e1e1e" stroke-width="2" fill="none"></path></g></g><mask></mask><g stroke-linecap="round"><g transform="translate(491.74554612668396 251.0884204721317) rotate(0 -0.09629178666364169 -19.991533617358343)"><path d="M0.01 0.14 C0.01 -6.51, -0.06 -33.23, -0.06 -39.91 M-0.16 0.09 C-0.18 -6.61, -0.22 -33.48, -0.2 -40.13" stroke="#1e1e1e" stroke-width="2" fill="none"></path></g><g transform="translate(491.74554612668396 251.0884204721317) rotate(0 -0.09629178666364169 -19.991533617358343)"><path d="M6.64 -21.33 C5.14 -26.32, 3.25 -31.03, -0.2 -40.13 M6.64 -21.33 C4.38 -27.4, 2.34 -33.18, -0.2 -40.13" stroke="#1e1e1e" stroke-width="2" fill="none"></path></g><g transform="translate(491.74554612668396 251.0884204721317) rotate(0 -0.09629178666364169 -19.991533617358343)"><path d="M-7.04 -21.33 C-4.99 -26.32, -3.33 -31.03, -0.2 -40.13 M-7.04 -21.33 C-4.94 -27.38, -2.62 -33.16, -0.2 -40.13" stroke="#1e1e1e" stroke-width="2" fill="none"></path></g></g><mask></mask><g transform="translate(551.9379771722175 274) rotate(0 80.30699615478511 13.5)"><text x="0" y="0" font-family="Virgil, Segoe UI Emoji" font-size="21.599999999999998px" fill="#1e1e1e" text-anchor="start" style="white-space: pre;" direction="ltr" dominant-baseline="text-before-edge">buffer manager</text></g><g transform="translate(177.8353099358893 10) rotate(0 152.61867065429692 24.499999999999996)"><text x="0" y="0" font-family="Virgil, Segoe UI Emoji" font-size="39.19999999999998px" fill="#1e1e1e" text-anchor="start" style="white-space: pre;" direction="ltr" dominant-baseline="text-before-edge">Buffer Manager</text></g></svg>