<svg version="1.1" xmlns="http://www.w3.org/2000/svg" viewBox="0 0 818.4388817681195 638.4828650098596" width="818.4388817681195" height="638.4828650098596">
  <!-- svg-source:excalidraw -->
  
  <defs>
    <style class="style-fonts">
      @font-face {
        font-family: "Virgil";
        src: url("https://excalidraw.com/Virgil.woff2");
      }
      @font-face {
        font-family: "Cascadia";
        src: url("https://excalidraw.com/Cascadia.woff2");
      }
    </style>
    
  </defs>
  <g stroke-linecap="round"><g transform="translate(217.41433981211526 153.008238277072) rotate(0 48.95377007674858 46.109540024588114)" fill-rule="evenodd"><path d="M0 0 C0 0, 0 0, 0 0 M0 0 C0 0, 0 0, 0 0 M-0.26 6.4 C2.79 2.89, 5.84 -0.62, 9.58 -4.92 M-0.26 6.4 C3.32 2.27, 6.91 -1.85, 9.58 -4.92 M0.13 12.04 C4.08 7.5, 8.03 2.96, 17.85 -8.34 M0.13 12.04 C4.77 6.7, 9.41 1.37, 17.85 -8.34 M-0.13 18.44 C7.16 10.06, 14.44 1.68, 23.49 -8.73 M-0.13 18.44 C8.41 8.62, 16.95 -1.2, 23.49 -8.73 M0.27 24.08 C9.4 13.58, 18.52 3.08, 29.79 -9.88 M0.27 24.08 C7.4 15.87, 14.54 7.66, 29.79 -9.88 M0 30.48 C8.39 20.84, 16.77 11.19, 34.78 -9.52 M0 30.48 C11.35 17.43, 22.69 4.38, 34.78 -9.52 M-0.26 36.88 C10.18 24.88, 20.61 12.87, 40.42 -9.91 M-0.26 36.88 C8.73 26.54, 17.72 16.19, 40.42 -9.91 M0.14 42.52 C14.22 26.32, 28.3 10.12, 46.06 -10.31 M0.14 42.52 C11.71 29.21, 23.27 15.91, 46.06 -10.31 M-0.12 48.92 C10.32 36.9, 20.77 24.88, 51.05 -9.95 M-0.12 48.92 C10.23 37.01, 20.58 25.11, 51.05 -9.95 M0.27 54.56 C16.19 36.25, 32.1 17.95, 56.04 -9.59 M0.27 54.56 C14.23 38.5, 28.19 22.44, 56.04 -9.59 M0.01 60.96 C16.67 41.79, 33.33 22.63, 61.02 -9.23 M0.01 60.96 C18.73 39.42, 37.46 17.88, 61.02 -9.23 M0.4 66.6 C22.62 41.04, 44.85 15.48, 66.01 -8.87 M0.4 66.6 C23.53 40, 46.65 13.4, 66.01 -8.87 M0.14 73 C26.26 42.96, 52.37 12.91, 71.65 -9.26 M0.14 73 C26.96 42.15, 53.78 11.29, 71.65 -9.26 M-0.12 79.4 C15.81 61.08, 31.73 42.76, 75.98 -8.15 M-0.12 79.4 C23.29 52.46, 46.71 25.53, 75.98 -8.15 M0.28 85.04 C29.4 51.53, 58.53 18.03, 80.32 -7.03 M0.28 85.04 C29.54 51.38, 58.81 17.71, 80.32 -7.03 M0.67 90.68 C19.23 69.33, 37.79 47.98, 84.65 -5.92 M0.67 90.68 C32.94 53.56, 65.21 16.44, 84.65 -5.92 M3.03 94.06 C31.72 61.07, 60.4 28.07, 88.98 -4.8 M3.03 94.06 C33.65 58.84, 64.27 23.62, 88.98 -4.8 M6.71 95.93 C30.7 68.34, 54.69 40.74, 92.65 -2.93 M6.71 95.93 C38.45 59.42, 70.18 22.91, 92.65 -2.93 M11.04 97.05 C38.16 65.84, 65.29 34.64, 95.67 -0.31 M11.04 97.05 C40.1 63.62, 69.16 30.19, 95.67 -0.31 M15.37 98.16 C37.69 72.49, 60.01 46.81, 98.03 3.07 M15.37 98.16 C45.83 63.12, 76.29 28.09, 98.03 3.07 M19.7 99.28 C47.35 67.47, 75 35.66, 98.43 8.71 M19.7 99.28 C38.75 77.36, 57.8 55.44, 98.43 8.71 M23.38 101.15 C42.92 78.66, 62.47 56.17, 98.17 15.11 M23.38 101.15 C38.81 83.4, 54.24 65.65, 98.17 15.11 M28.36 101.51 C44.8 82.6, 61.24 63.69, 98.56 20.75 M28.36 101.51 C48.45 78.4, 68.53 55.3, 98.56 20.75 M32.69 102.62 C52.51 79.82, 72.33 57.02, 98.3 27.15 M32.69 102.62 C47.53 85.56, 62.36 68.49, 98.3 27.15 M37.68 102.98 C59.35 78.06, 81.01 53.13, 98.04 33.55 M37.68 102.98 C51.46 87.13, 65.24 71.27, 98.04 33.55 M43.32 102.59 C55.58 88.49, 67.84 74.39, 98.43 39.19 M43.32 102.59 C59.3 84.21, 75.27 65.84, 98.43 39.19 M48.31 102.95 C63.09 85.95, 77.87 68.95, 98.17 45.59 M48.31 102.95 C65.27 83.44, 82.22 63.94, 98.17 45.59 M53.3 103.31 C63.72 91.31, 74.15 79.32, 97.91 51.99 M53.3 103.31 C70.17 83.89, 87.05 64.48, 97.91 51.99 M58.94 102.91 C74.63 84.87, 90.31 66.83, 98.3 57.63 M58.94 102.91 C67.26 93.34, 75.58 83.77, 98.3 57.63 M64.58 102.52 C75.58 89.87, 86.58 77.22, 98.04 64.03 M64.58 102.52 C77.67 87.47, 90.75 72.42, 98.04 64.03 M70.88 101.37 C81.6 89.04, 92.32 76.71, 97.78 70.43 M70.88 101.37 C80.33 90.5, 89.78 79.63, 97.78 70.43 M77.18 100.22 C83.09 93.43, 88.99 86.64, 98.18 76.07 M77.18 100.22 C84.45 91.86, 91.72 83.5, 98.18 76.07 M83.48 99.07 C86.53 95.57, 89.57 92.06, 97.91 82.47 M83.48 99.07 C89.07 92.64, 94.66 86.21, 97.91 82.47 M92.41 94.9 C93.7 93.41, 94.99 91.93, 97.65 88.86 M92.41 94.9 C94.4 92.6, 96.4 90.3, 97.65 88.86 M1.71 92.54 C1.71 92.54, 1.71 92.54, 1.71 92.54 M1.71 92.54 C1.71 92.54, 1.71 92.54, 1.71 92.54 M13.39 97.39 C8.76 93.36, 4.13 89.34, 0.56 86.24 M13.39 97.39 C8.89 93.48, 4.39 89.57, 0.56 86.24 M22.05 99.62 C16.84 95.09, 11.63 90.56, 0.17 80.59 M22.05 99.62 C16.54 94.83, 11.03 90.03, 0.17 80.59 M29.96 101.19 C19.89 92.43, 9.81 83.68, 0.53 75.61 M29.96 101.19 C23.18 95.3, 16.4 89.4, 0.53 75.61 M36.36 101.45 C22.3 89.23, 8.24 77.01, 0.13 69.96 M36.36 101.45 C24.42 91.07, 12.47 80.69, 0.13 69.96 M42.76 101.72 C30.52 91.08, 18.29 80.45, 0.49 64.98 M42.76 101.72 C29.52 90.21, 16.29 78.71, 0.49 64.98 M49.91 102.63 C38.89 93.05, 27.86 83.47, 0.1 59.33 M49.91 102.63 C39.87 93.9, 29.83 85.18, 0.1 59.33 M55.55 102.24 C39.98 88.71, 24.42 75.17, 0.46 54.35 M55.55 102.24 C43.93 92.14, 32.32 82.04, 0.46 54.35 M61.19 101.84 C39.28 82.8, 17.37 63.75, 0.06 48.7 M61.19 101.84 C43.52 86.48, 25.85 71.12, 0.06 48.7 M66.84 101.45 C41.4 79.33, 15.96 57.22, 0.42 43.72 M66.84 101.45 C49.94 86.76, 33.04 72.07, 0.42 43.72 M71.73 100.4 C57.26 87.83, 42.8 75.25, 0.03 38.07 M71.73 100.4 C47.9 79.68, 24.07 58.97, 0.03 38.07 M76.61 99.35 C58.81 83.87, 41 68.39, 0.39 33.09 M76.61 99.35 C54.26 79.91, 31.9 60.48, 0.39 33.09 M82.26 98.95 C54.75 75.04, 27.25 51.14, -0.01 27.44 M82.26 98.95 C50.16 71.05, 18.06 43.15, -0.01 27.44 M86.39 97.25 C64.18 77.94, 41.96 58.62, 0.35 22.46 M86.39 97.25 C60.94 75.13, 35.49 53, 0.35 22.46 M90.52 95.54 C61.46 70.28, 32.4 45.01, -0.04 16.81 M90.52 95.54 C68.76 76.62, 47 57.71, -0.04 16.81 M93.9 93.18 C69.39 71.87, 44.88 50.56, 0.32 11.83 M93.9 93.18 C61.26 64.8, 28.61 36.42, 0.32 11.83 M97.28 90.81 C67.38 64.82, 37.47 38.82, -0.07 6.18 M97.28 90.81 C60.38 58.74, 23.49 26.66, -0.07 6.18 M97.64 85.83 C75.13 66.25, 52.61 46.68, 0.29 1.2 M97.64 85.83 C72.5 63.97, 47.36 42.12, 0.29 1.2 M98 80.84 C77.06 62.64, 56.12 44.43, 2.91 -1.82 M98 80.84 C76.94 62.53, 55.88 44.23, 2.91 -1.82 M97.61 75.2 C67.37 48.91, 37.13 22.63, 7.04 -3.53 M97.61 75.2 C66.05 47.76, 34.48 20.32, 7.04 -3.53 M97.97 70.21 C65.72 42.18, 33.47 14.14, 10.42 -5.89 M97.97 70.21 C71.56 47.26, 45.16 24.31, 10.42 -5.89 M97.57 64.57 C71.12 41.57, 44.66 18.57, 14.56 -7.6 M97.57 64.57 C75.75 45.59, 53.92 26.62, 14.56 -7.6 M97.93 59.58 C79.01 43.13, 60.08 26.68, 19.44 -8.65 M97.93 59.58 C76.58 41.02, 55.23 22.46, 19.44 -8.65 M97.54 53.94 C74.42 33.84, 51.29 13.74, 24.33 -9.7 M97.54 53.94 C70.93 30.81, 44.33 7.68, 24.33 -9.7 M97.9 48.95 C76.89 30.69, 55.88 12.42, 29.98 -10.09 M97.9 48.95 C77.24 30.99, 56.59 13.04, 29.98 -10.09 M98.26 43.96 C83.25 30.91, 68.23 17.86, 34.86 -11.15 M98.26 43.96 C77.28 25.73, 56.31 7.5, 34.86 -11.15 M97.86 38.32 C85.13 27.25, 72.39 16.18, 41.26 -10.88 M97.86 38.32 C81.56 24.15, 65.26 9.98, 41.26 -10.88 M98.22 33.33 C79.02 16.64, 59.81 -0.06, 46.9 -11.28 M98.22 33.33 C79.51 17.06, 60.79 0.79, 46.9 -11.28 M97.83 27.69 C87.97 19.12, 78.11 10.55, 53.3 -11.02 M97.83 27.69 C87.47 18.69, 77.12 9.68, 53.3 -11.02 M98.19 22.7 C90.41 15.94, 82.63 9.18, 59.7 -10.76 M98.19 22.7 C83.44 9.88, 68.69 -2.94, 59.7 -10.76 M97.8 17.06 C87.87 8.43, 77.94 -0.2, 66.1 -10.49 M97.8 17.06 C89.38 9.74, 80.96 2.43, 66.1 -10.49 M98.16 12.07 C88.8 3.94, 79.45 -4.19, 73.25 -9.58 M98.16 12.07 C92.59 7.24, 87.03 2.4, 73.25 -9.58 M97.76 6.43 C93.07 2.35, 88.37 -1.73, 81.91 -7.35 M97.76 6.43 C94.07 3.22, 90.37 0, 81.91 -7.35 M98.12 1.44 C95.87 -0.51, 93.63 -2.47, 91.33 -4.46 M98.12 1.44 C96.48 0.02, 94.85 -1.4, 91.33 -4.46" stroke="#4c6ef5" stroke-width="0.5" fill="none"></path><path d="M0 0 C0 13.06, -0.29 62.94, 0 78.37 C0.29 93.79, -0.53 89.31, 1.71 92.54 C3.96 95.77, 8.58 96.19, 13.48 97.75 C18.38 99.3, 25.03 101, 31.1 101.86 C37.17 102.73, 44.09 102.93, 49.9 102.93 C55.7 102.93, 60.76 102.48, 65.94 101.87 C71.12 101.25, 75.98 100.89, 80.99 99.25 C86 97.6, 93.33 95.46, 96 91.98 C98.67 88.5, 96.72 91.92, 97.03 78.37 C97.33 64.82, 97.91 23.79, 97.84 10.67 C97.77 -2.44, 98.84 2.47, 96.6 -0.34 C94.37 -3.16, 88.74 -4.68, 84.44 -6.22 C80.14 -7.75, 76.03 -8.83, 70.79 -9.55 C65.56 -10.26, 57.88 -10.37, 53.05 -10.52 C48.22 -10.68, 47.66 -10.85, 41.79 -10.5 C35.91 -10.14, 24.77 -10.13, 17.81 -8.38 C10.84 -6.63, 2.97 -1.4, 0 0 M0 0 C0 13.06, -0.29 62.94, 0 78.37 C0.29 93.79, -0.53 89.31, 1.71 92.54 C3.96 95.77, 8.58 96.19, 13.48 97.75 C18.38 99.3, 25.03 101, 31.1 101.86 C37.17 102.73, 44.09 102.93, 49.9 102.93 C55.7 102.93, 60.76 102.48, 65.94 101.87 C71.12 101.25, 75.98 100.89, 80.99 99.25 C86 97.6, 93.33 95.46, 96 91.98 C98.67 88.5, 96.72 91.92, 97.03 78.37 C97.33 64.82, 97.91 23.79, 97.84 10.67 C97.77 -2.44, 98.84 2.47, 96.6 -0.34 C94.37 -3.16, 88.74 -4.68, 84.44 -6.22 C80.14 -7.75, 76.03 -8.83, 70.79 -9.55 C65.56 -10.26, 57.88 -10.37, 53.05 -10.52 C48.22 -10.68, 47.66 -10.85, 41.79 -10.5 C35.91 -10.14, 24.77 -10.13, 17.81 -8.38 C10.84 -6.63, 2.97 -1.4, 0 0" stroke="#364fc7" stroke-width="1" fill="none"></path></g></g><mask></mask><g stroke-linecap="round" transform="translate(217.71213348227343 141.01304479469536) rotate(0 48.833389373249474 13.27754849234293)"><path d="M97.67 13.28 C97.67 13.97, 97.46 14.67, 97.07 15.35 C96.67 16.04, 96.06 16.72, 95.28 17.38 C94.49 18.04, 93.5 18.69, 92.34 19.31 C91.19 19.92, 89.84 20.52, 88.34 21.08 C86.84 21.64, 85.16 22.18, 83.36 22.67 C81.56 23.16, 79.6 23.61, 77.54 24.02 C75.48 24.43, 73.27 24.79, 71 25.11 C68.73 25.42, 66.35 25.69, 63.92 25.91 C61.5 26.12, 58.99 26.28, 56.47 26.39 C53.96 26.5, 51.38 26.56, 48.83 26.56 C46.29 26.56, 43.71 26.5, 41.19 26.39 C38.68 26.28, 36.16 26.12, 33.74 25.91 C31.32 25.69, 28.93 25.42, 26.66 25.11 C24.39 24.79, 22.19 24.43, 20.13 24.02 C18.07 23.61, 16.1 23.16, 14.3 22.67 C12.5 22.18, 10.82 21.64, 9.33 21.08 C7.83 20.52, 6.48 19.92, 5.32 19.31 C4.17 18.69, 3.18 18.04, 2.39 17.38 C1.6 16.72, 1 16.04, 0.6 15.35 C0.2 14.67, 0 13.97, 0 13.28 C0 12.59, 0.2 11.88, 0.6 11.2 C1 10.52, 1.6 9.83, 2.39 9.17 C3.18 8.52, 4.17 7.87, 5.32 7.25 C6.48 6.63, 7.83 6.03, 9.33 5.47 C10.82 4.91, 12.5 4.38, 14.3 3.89 C16.1 3.4, 18.07 2.94, 20.13 2.54 C22.19 2.13, 24.39 1.76, 26.66 1.45 C28.93 1.13, 31.32 0.86, 33.74 0.65 C36.16 0.44, 38.68 0.27, 41.19 0.16 C43.71 0.06, 46.29 0, 48.83 0 C51.38 0, 53.96 0.06, 56.47 0.16 C58.99 0.27, 61.5 0.44, 63.92 0.65 C66.35 0.86, 68.73 1.13, 71 1.45 C73.27 1.76, 75.48 2.13, 77.54 2.54 C79.6 2.94, 81.56 3.4, 83.36 3.89 C85.16 4.38, 86.84 4.91, 88.34 5.47 C89.84 6.03, 91.19 6.63, 92.34 7.25 C93.5 7.87, 94.49 8.52, 95.28 9.17 C96.06 9.83, 96.67 10.52, 97.07 11.2 C97.46 11.88, 97.57 12.93, 97.67 13.28 C97.77 13.62, 97.77 12.93, 97.67 13.28" stroke="none" stroke-width="0" fill="#ffffff"></path><path d="M97.67 13.28 C97.67 13.97, 97.46 14.67, 97.07 15.35 C96.67 16.04, 96.06 16.72, 95.28 17.38 C94.49 18.04, 93.5 18.69, 92.34 19.31 C91.19 19.92, 89.84 20.52, 88.34 21.08 C86.84 21.64, 85.16 22.18, 83.36 22.67 C81.56 23.16, 79.6 23.61, 77.54 24.02 C75.48 24.43, 73.27 24.79, 71 25.11 C68.73 25.42, 66.35 25.69, 63.92 25.91 C61.5 26.12, 58.99 26.28, 56.47 26.39 C53.96 26.5, 51.38 26.56, 48.83 26.56 C46.29 26.56, 43.71 26.5, 41.19 26.39 C38.68 26.28, 36.16 26.12, 33.74 25.91 C31.32 25.69, 28.93 25.42, 26.66 25.11 C24.39 24.79, 22.19 24.43, 20.13 24.02 C18.07 23.61, 16.1 23.16, 14.3 22.67 C12.5 22.18, 10.82 21.64, 9.33 21.08 C7.83 20.52, 6.48 19.92, 5.32 19.31 C4.17 18.69, 3.18 18.04, 2.39 17.38 C1.6 16.72, 1 16.04, 0.6 15.35 C0.2 14.67, 0 13.97, 0 13.28 C0 12.59, 0.2 11.88, 0.6 11.2 C1 10.52, 1.6 9.83, 2.39 9.17 C3.18 8.52, 4.17 7.87, 5.32 7.25 C6.48 6.63, 7.83 6.03, 9.33 5.47 C10.82 4.91, 12.5 4.38, 14.3 3.89 C16.1 3.4, 18.07 2.94, 20.13 2.54 C22.19 2.13, 24.39 1.76, 26.66 1.45 C28.93 1.13, 31.32 0.86, 33.74 0.65 C36.16 0.44, 38.68 0.27, 41.19 0.16 C43.71 0.06, 46.29 0, 48.83 0 C51.38 0, 53.96 0.06, 56.47 0.16 C58.99 0.27, 61.5 0.44, 63.92 0.65 C66.35 0.86, 68.73 1.13, 71 1.45 C73.27 1.76, 75.48 2.13, 77.54 2.54 C79.6 2.94, 81.56 3.4, 83.36 3.89 C85.16 4.38, 86.84 4.91, 88.34 5.47 C89.84 6.03, 91.19 6.63, 92.34 7.25 C93.5 7.87, 94.49 8.52, 95.28 9.17 C96.06 9.83, 96.67 10.52, 97.07 11.2 C97.46 11.88, 97.57 12.93, 97.67 13.28 C97.77 13.62, 97.77 12.93, 97.67 13.28" stroke="#364fc7" stroke-width="1" fill="none"></path></g><g transform="translate(195.24583816528298 261.47397080029737) rotate(0 76.54166412353516 12.5)"><text x="76.54166412353516" y="0" font-family="Virgil, Segoe UI Emoji" font-size="20px" fill="#000000" text-anchor="middle" style="white-space: pre;" direction="ltr" dominant-baseline="text-before-edge">Buffer manager</text></g><g stroke-linecap="round" transform="translate(507.1075533640044 90.20793838800319) rotate(89.6698853119712 11.84717044003105 12.544062818856446)"><path d="M0 0 C6.6 0.14, 14.05 0.38, 23.69 0 M0 0 C6.58 0.11, 13.52 -0.02, 23.69 0 M23.69 0 C23.44 8.04, 23.37 16.1, 23.69 25.09 M23.69 0 C23.62 8.19, 23.55 16.56, 23.69 25.09 M23.69 25.09 C14.12 24.89, 4.74 24.82, 0 25.09 M23.69 25.09 C16.13 25.31, 8.66 25.32, 0 25.09 M0 25.09 C-0.02 19.4, -0.38 13.32, 0 0 M0 25.09 C0.11 18.76, 0.09 12.17, 0 0" stroke="#000000" stroke-width="1" fill="none"></path></g><g stroke-linecap="round" transform="translate(507.24406964388913 113.90188599167823) rotate(89.6698853119712 11.84717044003105 12.544062818856446)"><path d="M0 0 C6.03 0.33, 11.31 0.31, 23.69 0 M0 0 C6.75 -0.06, 13.27 -0.08, 23.69 0 M23.69 0 C23.35 5.22, 23.8 11.02, 23.69 25.09 M23.69 0 C23.54 7.21, 23.88 14.73, 23.69 25.09 M23.69 25.09 C16.59 24.8, 9.93 24.9, 0 25.09 M23.69 25.09 C15.39 25.35, 7.28 25.27, 0 25.09 M0 25.09 C-0.35 17.19, -0.17 9.17, 0 0 M0 25.09 C0.06 18.28, 0.1 11.29, 0 0" stroke="#000000" stroke-width="1" fill="none"></path></g><g stroke-linecap="round" transform="translate(507.3807699530728 137.6277739659031) rotate(89.6698853119712 11.84717044003105 12.544062818856446)"><path d="M0 0 C7.65 0.28, 15.36 -0.25, 23.69 0 M0 0 C8.25 -0.05, 16.22 -0.11, 23.69 0 M23.69 0 C23.79 6.54, 23.62 13, 23.69 25.09 M23.69 0 C23.87 6.1, 23.64 11.8, 23.69 25.09 M23.69 25.09 C17.73 24.89, 11.83 24.8, 0 25.09 M23.69 25.09 C14.29 25.27, 5.2 25.14, 0 25.09 M0 25.09 C-0.13 16.25, -0.06 7.7, 0 0 M0 25.09 C0.1 15.32, 0.13 5.22, 0 0" stroke="#000000" stroke-width="1" fill="none"></path></g><g stroke-linecap="round" transform="translate(507.51728623295753 161.3217215695886) rotate(89.6698853119712 11.84717044003105 12.544062818856446)"><path d="M0 0 C8.93 -0.25, 18.23 0.25, 23.69 0 M0 0 C6.54 -0.11, 13.35 -0.14, 23.69 0 M23.69 0 C23.67 5.57, 23.44 11.15, 23.69 25.09 M23.69 0 C23.73 6.43, 23.65 12.96, 23.69 25.09 M23.69 25.09 C18.22 24.81, 12.76 24.73, 0 25.09 M23.69 25.09 C14.31 25.12, 4.97 24.95, 0 25.09 M0 25.09 C-0.08 17.52, 0.42 9.71, 0 0 M0 25.09 C0.12 15.8, -0.14 6.73, 0 0" stroke="#000000" stroke-width="1" fill="none"></path></g><g stroke-linecap="round" transform="translate(507.65514090774263 185.2479627772218) rotate(89.6698853119712 11.84717044003105 12.544062818856446)"><path d="M0 0 C9.07 0.32, 17.67 0.14, 23.69 0 M0 0 C6.41 -0.13, 12.82 0.1, 23.69 0 M23.69 0 C23.42 7.06, 23.52 15.09, 23.69 25.09 M23.69 0 C23.59 9.17, 23.56 18.55, 23.69 25.09 M23.69 25.09 C17.87 24.72, 11.69 24.78, 0 25.09 M23.69 25.09 C15.23 24.92, 6.57 25, 0 25.09 M0 25.09 C0.41 17.98, 0.29 10.78, 0 0 M0 25.09 C-0.15 16.45, -0.2 8.07, 0 0" stroke="#000000" stroke-width="1" fill="none"></path></g><g stroke-linecap="round" transform="translate(507.79165718762783 208.9419103809032) rotate(89.6698853119712 11.84717044003105 12.544062818856446)"><path d="M0 0 C5.89 0.08, 11.81 -0.38, 23.69 0 M0 0 C5.62 0.11, 11.54 0.02, 23.69 0 M23.69 0 C23.49 7.11, 23.96 13.36, 23.69 25.09 M23.69 0 C23.54 6.44, 23.59 12.91, 23.69 25.09 M23.69 25.09 C18.44 24.77, 12.62 25.12, 0 25.09 M23.69 25.09 C16.56 24.96, 9.35 25, 0 25.09 M0 25.09 C0.23 16.6, 0.13 7.91, 0 0 M0 25.09 C-0.14 19.38, 0.04 13.33, 0 0" stroke="#000000" stroke-width="1" fill="none"></path></g><g stroke-linecap="round" transform="translate(507.9281734675126 232.63585798458416) rotate(89.6698853119712 11.84717044003105 12.544062818856446)"><path d="M0 0 C8.6 -0.36, 17.18 -0.18, 23.69 0 M0 0 C5.4 -0.04, 10.75 -0.15, 23.69 0 M23.69 0 C23.97 5.89, 23.48 11.65, 23.69 25.09 M23.69 0 C23.58 6.51, 23.53 13.03, 23.69 25.09 M23.69 25.09 C18.7 25.13, 13.19 25.27, 0 25.09 M23.69 25.09 C18.47 25.02, 13.39 25.27, 0 25.09 M0 25.09 C0.14 16.85, -0.33 7.8, 0 0 M0 25.09 C0.06 18.34, 0.12 11.85, 0 0" stroke="#000000" stroke-width="1" fill="none"></path></g><g stroke-linecap="round" transform="translate(508.06468974739687 256.3298055882608) rotate(89.6698853119712 11.84717044003105 12.544062818856446)"><path d="M0 0 C7.51 -0.12, 15.19 -0.27, 23.69 0 M0 0 C7.79 -0.13, 15.58 -0.08, 23.69 0 M23.69 0 C23.54 9.74, 23.54 19.61, 23.69 25.09 M23.69 0 C23.54 8.07, 23.51 15.95, 23.69 25.09 M23.69 25.09 C18.13 25.32, 12.19 25.14, 0 25.09 M23.69 25.09 C17.63 25.28, 11.45 25.22, 0 25.09 M0 25.09 C-0.32 15.88, -0.18 6.79, 0 0 M0 25.09 C0.07 16.37, -0.21 7.57, 0 0" stroke="#000000" stroke-width="1" fill="none"></path></g><g stroke-linecap="round" transform="translate(508.19852923747953 279.5591659840277) rotate(89.6698853119712 11.84717044003105 12.544062818856446)"><path d="M0 0 C4.91 -0.29, 10.58 -0.01, 23.69 0 M0 0 C6.75 -0.05, 13.98 0.18, 23.69 0 M23.69 0 C23.48 7.05, 23.73 14.47, 23.69 25.09 M23.69 0 C23.49 8.83, 23.52 17.36, 23.69 25.09 M23.69 25.09 C15.85 25.16, 8.53 25.07, 0 25.09 M23.69 25.09 C17.22 25.27, 10.7 25.22, 0 25.09 M0 25.09 C-0.12 15.52, 0.24 6.64, 0 0 M0 25.09 C-0.22 19.02, 0.01 13.32, 0 0" stroke="#000000" stroke-width="1" fill="none"></path></g><g stroke-linecap="round" transform="translate(508.3350455173643 303.2531135877073) rotate(89.6698853119712 11.84717044003105 12.544062818856446)"><path d="M0 0 C6.34 0, 12.37 -0.11, 23.69 0 M0 0 C5.82 0.17, 11.22 -0.08, 23.69 0 M23.69 0 C23.73 6.21, 23.86 12.49, 23.69 25.09 M23.69 0 C23.51 9.94, 23.69 19.62, 23.69 25.09 M23.69 25.09 C15.21 25.05, 6.98 25.3, 0 25.09 M23.69 25.09 C14.51 25.21, 5.22 24.97, 0 25.09 M0 25.09 C0.23 18.9, -0.25 12.81, 0 0 M0 25.09 C0.08 17.78, 0.26 9.98, 0 0" stroke="#000000" stroke-width="1" fill="none"></path></g><g transform="translate(482.79583485921216 55) rotate(0 43.13333511352539 12.5)"><text x="0" y="0" font-family="Virgil, Segoe UI Emoji" font-size="20px" fill="#1e1e1e" text-anchor="start" style="white-space: pre;" direction="ltr" dominant-baseline="text-before-edge">buffer id</text></g><g stroke-linecap="round"><g transform="translate(651.7092301871819 86.41530806546189) rotate(0 -20.67364544780844 14.313518783989934)"><path d="M0 0 C0.01 -2.76, 0.02 -5.51, 0.04 -9.43 M0 0 C0.01 -3.48, 0.03 -6.96, 0.04 -9.43 M0.04 -9.43 C-10.81 -9.51, -21.66 -9.59, -41.33 -9.73 M0.04 -9.43 C-14.93 -9.54, -29.89 -9.65, -41.33 -9.73 M-41.33 -9.73 C-41.4 4.16, -41.48 18.04, -41.58 38.13 M-41.33 -9.73 C-41.42 6.6, -41.5 22.93, -41.58 38.13 M-41.58 38.13 C-28.79 38.2, -16 38.27, 0.2 38.36 M-41.58 38.13 C-25.2 38.22, -8.82 38.31, 0.2 38.36 M0.2 38.36 C0.21 31.82, 0.22 25.28, 0.24 9.54 M0.2 38.36 C0.21 28.81, 0.22 19.27, 0.24 9.54" stroke="#000" stroke-width="4" fill="none"></path></g></g><mask></mask><g stroke-linecap="round"><g transform="translate(621.2114847066443 91.36456997492542) rotate(0 9.768729206919033 -0.036517609664770134)"><path d="M0 0 C5.22 -0.02, 10.43 -0.04, 19.54 -0.07 M0 0 C4.99 -0.02, 9.98 -0.04, 19.54 -0.07" stroke="#3d71b7" stroke-width="4" fill="none"></path></g></g><mask></mask><g stroke-linecap="round"><g transform="translate(621.212626348303 101.01559070361327) rotate(0 9.768729206919033 -0.036517609664770134)"><path d="M0 0 C4.61 -0.02, 9.23 -0.03, 19.54 -0.07 M0 0 C5 -0.02, 9.99 -0.04, 19.54 -0.07" stroke="#3d71b7" stroke-width="4" fill="none"></path></g></g><mask></mask><g stroke-linecap="round"><g transform="translate(621.4761142584964 110.42285601470303) rotate(0 4.809848234657238 0.06317830017019332)"><path d="M0 0 C3.81 0.05, 7.62 0.1, 9.62 0.13 M0 0 C3.02 0.04, 6.04 0.08, 9.62 0.13" stroke="#3d71b7" stroke-width="4" fill="none"></path></g></g><mask></mask><g stroke-linecap="round"><g transform="translate(651.4694803070204 156.68648121601018) rotate(0 -20.67364544780844 14.313518783989934)"><path d="M0 0 C0.01 -2.75, 0.02 -5.5, 0.04 -9.43 M0 0 C0.01 -3.24, 0.03 -6.47, 0.04 -9.43 M0.04 -9.43 C-13.05 -9.52, -26.14 -9.62, -41.33 -9.73 M0.04 -9.43 C-11.42 -9.51, -22.87 -9.59, -41.33 -9.73 M-41.33 -9.73 C-41.42 7.89, -41.52 25.51, -41.58 38.13 M-41.33 -9.73 C-41.39 1.68, -41.45 13.09, -41.58 38.13 M-41.58 38.13 C-25.12 38.22, -8.65 38.31, 0.2 38.36 M-41.58 38.13 C-32.37 38.18, -23.16 38.23, 0.2 38.36 M0.2 38.36 C0.21 30.34, 0.22 22.33, 0.24 9.54 M0.2 38.36 C0.21 26.9, 0.23 15.44, 0.24 9.54" stroke="#000" stroke-width="4" fill="none"></path></g></g><mask></mask><g stroke-linecap="round"><g transform="translate(620.9717348264828 161.6357431254737) rotate(0 9.768729206919033 -0.036517609664770134)"><path d="M0 0 C4.97 -0.02, 9.93 -0.04, 19.54 -0.07 M0 0 C7.64 -0.03, 15.28 -0.06, 19.54 -0.07" stroke="#2f9e44" stroke-width="4" fill="none"></path></g></g><mask></mask><g stroke-linecap="round"><g transform="translate(620.9728764681415 171.28676385416156) rotate(0 9.768729206919033 -0.036517609664770134)"><path d="M0 0 C4.67 -0.02, 9.34 -0.03, 19.54 -0.07 M0 0 C7.77 -0.03, 15.53 -0.06, 19.54 -0.07" stroke="#2f9e44" stroke-width="4" fill="none"></path></g></g><mask></mask><g stroke-linecap="round"><g transform="translate(621.2363643783349 180.69402916525132) rotate(0 4.809848234657238 0.06317830017019332)"><path d="M0 0 C2.52 0.03, 5.05 0.07, 9.62 0.13 M0 0 C3.48 0.05, 6.96 0.09, 9.62 0.13" stroke="#2f9e44" stroke-width="4" fill="none"></path></g></g><mask></mask><g stroke-linecap="round"><g transform="translate(653.4694803070208 225.68648121601018) rotate(0 -20.67364544780844 14.313518783989934)"><path d="M0 0 C0.01 -2.26, 0.02 -4.51, 0.04 -9.43 M0 0 C0.01 -2.85, 0.02 -5.7, 0.04 -9.43 M0.04 -9.43 C-14.37 -9.53, -28.77 -9.64, -41.33 -9.73 M0.04 -9.43 C-9.55 -9.5, -19.13 -9.57, -41.33 -9.73 M-41.33 -9.73 C-41.41 6.26, -41.5 22.26, -41.58 38.13 M-41.33 -9.73 C-41.39 2.21, -41.46 14.15, -41.58 38.13 M-41.58 38.13 C-26.47 38.21, -11.35 38.29, 0.2 38.36 M-41.58 38.13 C-30.91 38.19, -20.24 38.25, 0.2 38.36 M0.2 38.36 C0.21 30.24, 0.22 22.11, 0.24 9.54 M0.2 38.36 C0.21 27.34, 0.23 16.33, 0.24 9.54" stroke="#000" stroke-width="4" fill="none"></path></g></g><mask></mask><g stroke-linecap="round"><g transform="translate(622.9717348264833 230.6357431254737) rotate(0 9.768729206919033 -0.036517609664770134)"><path d="M0 0 C4.34 -0.02, 8.67 -0.03, 19.54 -0.07 M0 0 C4.29 -0.02, 8.58 -0.03, 19.54 -0.07" stroke="#e03131" stroke-width="4" fill="none"></path></g></g><mask></mask><g stroke-linecap="round"><g transform="translate(622.9728764681415 240.28676385416156) rotate(0 9.768729206919033 -0.036517609664770134)"><path d="M0 0 C4.6 -0.02, 9.2 -0.03, 19.54 -0.07 M0 0 C5.08 -0.02, 10.16 -0.04, 19.54 -0.07" stroke="#e03131" stroke-width="4" fill="none"></path></g></g><mask></mask><g stroke-linecap="round"><g transform="translate(623.2363643783349 249.69402916525132) rotate(0 4.809848234657238 0.06317830017019332)"><path d="M0 0 C3.04 0.04, 6.09 0.08, 9.62 0.13 M0 0 C2.66 0.03, 5.33 0.07, 9.62 0.13" stroke="#e03131" stroke-width="4" fill="none"></path></g></g><mask></mask><g stroke-linecap="round"><g transform="translate(653.4694803070208 294.6864812160104) rotate(0 -20.67364544780844 14.313518783990048)"><path d="M0 0 C0.01 -3.3, 0.03 -6.61, 0.04 -9.43 M0 0 C0.01 -3.7, 0.03 -7.41, 0.04 -9.43 M0.04 -9.43 C-10.21 -9.5, -20.45 -9.58, -41.33 -9.73 M0.04 -9.43 C-12.33 -9.52, -24.7 -9.61, -41.33 -9.73 M-41.33 -9.73 C-41.42 7.17, -41.51 24.08, -41.58 38.13 M-41.33 -9.73 C-41.42 8.07, -41.52 25.87, -41.58 38.13 M-41.58 38.13 C-31.18 38.19, -20.78 38.24, 0.2 38.36 M-41.58 38.13 C-32.41 38.18, -23.23 38.23, 0.2 38.36 M0.2 38.36 C0.21 28.19, 0.23 18.02, 0.24 9.54 M0.2 38.36 C0.21 28.77, 0.22 19.19, 0.24 9.54" stroke="#000" stroke-width="4" fill="none"></path></g></g><mask></mask><g stroke-linecap="round"><g transform="translate(622.9717348264833 299.63574312547394) rotate(0 9.768729206919033 -0.036517609664770134)"><path d="M0 0 C6.06 -0.02, 12.11 -0.05, 19.54 -0.07 M0 0 C7.12 -0.03, 14.24 -0.05, 19.54 -0.07" stroke="#f08c00" stroke-width="4" fill="none"></path></g></g><mask></mask><g stroke-linecap="round"><g transform="translate(622.9728764681415 309.28676385416134) rotate(0 9.768729206919033 -0.036517609664770134)"><path d="M0 0 C5.67 -0.02, 11.34 -0.04, 19.54 -0.07 M0 0 C6.67 -0.02, 13.33 -0.05, 19.54 -0.07" stroke="#f08c00" stroke-width="4" fill="none"></path></g></g><mask></mask><g stroke-linecap="round"><g transform="translate(623.2363643783349 318.6940291652511) rotate(0 4.809848234657238 0.06317830017019332)"><path d="M0 0 C3.35 0.04, 6.7 0.09, 9.62 0.13 M0 0 C2.23 0.03, 4.46 0.06, 9.62 0.13" stroke="#f08c00" stroke-width="4" fill="none"></path></g></g><mask></mask><g stroke-linecap="round"><g transform="translate(519.7958348592122 102) rotate(0 43.52610950772407 -0.019874286955769094)"><path d="M0.09 0.06 C14.59 0.03, 72.63 -0.08, 87.1 -0.1 M-0.05 -0.04 C14.44 -0.06, 72.56 0.02, 87.04 0.03" stroke="#1e1e1e" stroke-width="1" fill="none"></path></g><g transform="translate(519.7958348592122 102) rotate(0 43.52610950772407 -0.019874286955769094)"><path d="M58.83 10.26 C68.53 6.95, 77.81 3.13, 87.04 0.03 M58.83 10.26 C66.29 7.46, 73.77 4.85, 87.04 0.03" stroke="#1e1e1e" stroke-width="1" fill="none"></path></g><g transform="translate(519.7958348592122 102) rotate(0 43.52610950772407 -0.019874286955769094)"><path d="M58.86 -10.26 C68.57 -6.59, 77.84 -3.43, 87.04 0.03 M58.86 -10.26 C66.29 -7.65, 73.76 -4.85, 87.04 0.03" stroke="#1e1e1e" stroke-width="1" fill="none"></path></g></g><mask></mask><g stroke-linecap="round"><g transform="translate(519.3428810589132 171.97367924122227) rotate(0 43.59304281864877 0.029707784320407882)"><path d="M0.1 -0.1 C14.57 -0.12, 72.46 -0.08, 86.92 -0.05 M-0.03 0.16 C14.49 0.16, 72.68 0.16, 87.21 0.11" stroke="#1e1e1e" stroke-width="1" fill="none"></path></g><g transform="translate(519.3428810589132 171.97367924122227) rotate(0 43.59304281864877 0.029707784320407882)"><path d="M59.04 10.41 C68.93 6.54, 79.11 2.78, 87.21 0.11 M59.04 10.41 C68.88 6.85, 78.48 3.22, 87.21 0.11" stroke="#1e1e1e" stroke-width="1" fill="none"></path></g><g transform="translate(519.3428810589132 171.97367924122227) rotate(0 43.59304281864877 0.029707784320407882)"><path d="M59 -10.11 C68.92 -6.63, 79.11 -3.04, 87.21 0.11 M59 -10.11 C68.86 -6.53, 78.48 -3.04, 87.21 0.11" stroke="#1e1e1e" stroke-width="1" fill="none"></path></g></g><mask></mask><g stroke-linecap="round"><g transform="translate(521.3428810589132 241.97367924122227) rotate(0 43.53997645502659 -0.06864575722875088)"><path d="M-0.08 -0.05 C14.39 -0.02, 72.37 0.08, 86.89 0.07 M0.15 -0.21 C14.65 -0.21, 72.7 -0.19, 87.16 -0.15" stroke="#1e1e1e" stroke-width="1" fill="none"></path></g><g transform="translate(521.3428810589132 241.97367924122227) rotate(0 43.53997645502659 -0.06864575722875088)"><path d="M58.95 10.07 C69.24 6.11, 79.86 2.58, 87.16 -0.15 M58.95 10.07 C65.54 7.58, 72.42 5.33, 87.16 -0.15" stroke="#1e1e1e" stroke-width="1" fill="none"></path></g><g transform="translate(521.3428810589132 241.97367924122227) rotate(0 43.53997645502659 -0.06864575722875088)"><path d="M58.98 -10.45 C69.24 -6.86, 79.85 -2.83, 87.16 -0.15 M58.98 -10.45 C65.57 -8.05, 72.44 -5.41, 87.16 -0.15" stroke="#1e1e1e" stroke-width="1" fill="none"></path></g></g><mask></mask><g stroke-linecap="round"><g transform="translate(516.3428810589132 312.9736792412225) rotate(0 43.44784018975133 -0.01028214699158525)"><path d="M-0.11 0.07 C14.4 0.06, 72.48 -0.08, 87.01 -0.09 M0.1 -0.02 C14.6 -0.01, 72.42 0.02, 86.9 0.05" stroke="#1e1e1e" stroke-width="1" fill="none"></path></g><g transform="translate(516.3428810589132 312.9736792412225) rotate(0 43.44784018975133 -0.01028214699158525)"><path d="M58.7 10.28 C65.82 7.79, 72.49 5.34, 86.9 0.05 M58.7 10.28 C67.16 7.37, 75.71 4.1, 86.9 0.05" stroke="#1e1e1e" stroke-width="1" fill="none"></path></g><g transform="translate(516.3428810589132 312.9736792412225) rotate(0 43.44784018975133 -0.01028214699158525)"><path d="M58.72 -10.24 C65.83 -7.65, 72.49 -5.02, 86.9 0.05 M58.72 -10.24 C67.15 -7.02, 75.69 -4.14, 86.9 0.05" stroke="#1e1e1e" stroke-width="1" fill="none"></path></g></g><mask></mask><g transform="translate(597.7958348592122 10) rotate(0 44.82500076293945 25)"><text x="0" y="0" font-family="Virgil, Segoe UI Emoji" font-size="20px" fill="#1e1e1e" text-anchor="start" style="white-space: pre;" direction="ltr" dominant-baseline="text-before-edge">data file</text><text x="0" y="25" font-family="Virgil, Segoe UI Emoji" font-size="20px" fill="#1e1e1e" text-anchor="start" style="white-space: pre;" direction="ltr" dominant-baseline="text-before-edge"> pages</text></g><g stroke-linecap="round"><g transform="translate(210.22140834035986 485.36327459305926) rotate(0 50.36584327674166 47.331162108640456)" fill-rule="evenodd"><path d="M-2.13 0.85 C-2.6 14.88, -2.79 67.5, -2.24 83.14 C-1.7 98.79, -1.59 91.47, 1.14 94.73 C3.87 97.99, 8.96 101.02, 14.12 102.7 C19.29 104.39, 25.9 103.86, 32.13 104.83 C38.37 105.8, 45.22 108.37, 51.51 108.55 C57.8 108.72, 64.22 106.43, 69.86 105.89 C75.5 105.36, 80.52 107.15, 85.35 105.34 C90.19 103.52, 96.69 98.71, 98.89 95 C101.08 91.3, 97.87 97.18, 98.52 83.1 C99.17 69.01, 102.52 24.68, 102.79 10.48 C103.05 -3.72, 102.88 0.52, 100.12 -2.09 C97.35 -4.7, 90.45 -3.77, 86.22 -5.2 C81.99 -6.63, 79.93 -9.95, 74.74 -10.67 C69.56 -11.38, 60.53 -9.78, 55.11 -9.48 C49.68 -9.17, 48.67 -9.09, 42.19 -8.84 C35.71 -8.59, 22.93 -9.22, 16.23 -7.97 C9.53 -6.73, 4.48 -2.6, 2.01 -1.37" stroke="none" stroke-width="0" fill="#228be6" fill-rule="evenodd"></path><path d="M-0.97 0.57 C-0.69 13.98, 0.4 65.02, 1.01 81.07 C1.62 97.11, 0.51 93.63, 2.71 96.84 C4.92 100.06, 9.16 99.02, 14.25 100.35 C19.35 101.69, 26.96 103.75, 33.3 104.85 C39.63 105.94, 46.35 106.9, 52.28 106.91 C58.21 106.92, 63.69 105.52, 68.89 104.92 C74.09 104.32, 78.44 104.92, 83.47 103.3 C88.51 101.68, 96.06 99.05, 99.09 95.18 C102.11 91.31, 101.28 94.21, 101.63 80.07 C101.98 65.93, 101.28 23.87, 101.18 10.33 C101.08 -3.2, 103.41 1.56, 101.02 -1.12 C98.64 -3.8, 91.32 -4.35, 86.88 -5.75 C82.43 -7.15, 79.59 -8.62, 74.34 -9.53 C69.09 -10.43, 60.56 -11.06, 55.37 -11.16 C50.17 -11.26, 49.46 -10.37, 43.16 -10.12 C36.87 -9.86, 24.8 -11.52, 17.6 -9.65 C10.4 -7.78, 2.78 -0.65, -0.06 1.11 M0.72 -0.18 C1 13.38, 0.31 66.65, 0.59 82.51 C0.88 98.37, 0.1 91.91, 2.44 94.98 C4.78 98.05, 9.66 99.3, 14.65 100.94 C19.64 102.58, 26.43 104, 32.38 104.84 C38.32 105.68, 44.09 105.64, 50.32 105.98 C56.56 106.32, 64.5 107.34, 69.81 106.87 C75.12 106.4, 77.02 105.37, 82.19 103.17 C87.36 100.98, 97.99 97.13, 100.84 93.71 C103.69 90.29, 99.2 96.46, 99.29 82.67 C99.37 68.87, 101.24 25.04, 101.37 10.93 C101.5 -3.17, 102.51 0.91, 100.07 -1.95 C97.63 -4.8, 91.08 -4.94, 86.76 -6.21 C82.43 -7.47, 79.28 -8.58, 74.13 -9.52 C68.99 -10.46, 60.89 -11.42, 55.89 -11.85 C50.89 -12.28, 50.17 -12.53, 44.11 -12.12 C38.06 -11.72, 27.14 -11.16, 19.56 -9.41 C11.98 -7.66, 1.98 -3.45, -1.37 -1.6" stroke="#364fc7" stroke-width="1" fill="none"></path></g></g><mask></mask><g stroke-linecap="round" transform="translate(209.84794606308446 473.03842056541475) rotate(0 50.62648340191515 13.765081576212424)"><path d="M47.32 0.04 C56.69 -0.35, 69.42 0.62, 77.85 2.03 C86.28 3.43, 94.23 5.91, 97.88 8.47 C101.52 11.03, 102.26 14.7, 99.74 17.37 C97.23 20.04, 90.46 22.83, 82.8 24.49 C75.14 26.16, 63.67 27.24, 53.79 27.37 C43.92 27.51, 31.88 26.74, 23.55 25.3 C15.21 23.87, 7.4 21.24, 3.77 18.77 C0.15 16.3, -0.61 13.05, 1.79 10.49 C4.19 7.93, 10.49 5.1, 18.17 3.39 C25.85 1.69, 42.82 0.78, 47.87 0.25 C52.92 -0.27, 48.43 0.09, 48.46 0.26 M54.47 0.01 C63.85 -0.01, 75.49 1.4, 83.04 3.13 C90.6 4.86, 97.37 7.71, 99.81 10.38 C102.25 13.05, 101.51 16.59, 97.7 19.15 C93.9 21.7, 85.45 24.35, 76.99 25.72 C68.53 27.09, 56.8 27.64, 46.92 27.37 C37.03 27.11, 25.25 25.85, 17.69 24.14 C10.13 22.43, 3.92 19.66, 1.54 17.12 C-0.83 14.57, -0.33 11.42, 3.45 8.85 C7.24 6.29, 15.75 3.14, 24.25 1.71 C32.75 0.28, 49.42 0.47, 54.46 0.27 C59.49 0.08, 54.55 0.41, 54.46 0.54" stroke="none" stroke-width="0" fill="#ffffff"></path><path d="M55.07 0.26 C64.47 0.32, 76.37 1.76, 83.86 3.53 C91.36 5.29, 97.86 8.24, 100.05 10.83 C102.24 13.43, 100.91 16.66, 97 19.1 C93.09 21.55, 85.09 24.08, 76.59 25.51 C68.08 26.94, 55.88 27.92, 45.95 27.68 C36.02 27.44, 24.49 25.85, 17.01 24.06 C9.54 22.28, 3.28 19.62, 1.1 16.97 C-1.07 14.33, 0 10.67, 3.96 8.2 C7.93 5.72, 16.23 3.46, 24.89 2.12 C33.54 0.78, 50.68 0.44, 55.91 0.15 C61.14 -0.15, 56.32 0.14, 56.24 0.33 M46 0.34 C55.34 -0.17, 68 0.42, 76.46 1.76 C84.92 3.11, 92.9 5.87, 96.77 8.42 C100.65 10.96, 101.84 14.45, 99.72 17.04 C97.59 19.62, 91.41 22.14, 84.03 23.91 C76.65 25.68, 65.3 27.4, 55.43 27.67 C45.57 27.93, 33.41 26.87, 24.86 25.5 C16.31 24.14, 8.05 21.95, 4.14 19.5 C0.24 17.05, -0.77 13.43, 1.43 10.81 C3.63 8.19, 9.94 5.6, 17.33 3.8 C24.72 2, 41.03 0.54, 45.75 0.01 C50.47 -0.52, 45.51 0.38, 45.64 0.6" stroke="#364fc7" stroke-width="1" fill="none"></path></g><g transform="translate(213.9098387146662 603.4828650098596) rotate(0 49.43333435058594 12.5)"><text x="49.43333435058594" y="0" font-family="Virgil, Segoe UI Emoji" font-size="20px" fill="#000000" text-anchor="middle" style="white-space: pre;" direction="ltr" dominant-baseline="text-before-edge">Database</text></g><g stroke-linecap="round"><g transform="translate(252.22222222222172 58.538420565414754) rotate(0 90.52720266702045 0.03494205268839323)"><path d="M0.04 0.13 C30.23 0.16, 151.01 0.13, 181.17 0.12 M-0.12 0.07 C30.05 0.06, 150.86 -0.04, 181.08 -0.07" stroke="#1e1e1e" stroke-width="1" fill="none"></path></g><g transform="translate(252.22222222222172 58.538420565414754) rotate(0 90.52720266702045 0.03494205268839323)"><path d="M152.9 10.22 C162.77 6.81, 172.38 2.91, 181.08 -0.07 M152.9 10.22 C163.58 6.45, 174.22 2.44, 181.08 -0.07" stroke="#1e1e1e" stroke-width="1" fill="none"></path></g><g transform="translate(252.22222222222172 58.538420565414754) rotate(0 90.52720266702045 0.03494205268839323)"><path d="M152.88 -10.31 C162.76 -6.71, 172.37 -3.61, 181.08 -0.07 M152.88 -10.31 C163.58 -6.36, 174.23 -2.65, 181.08 -0.07" stroke="#1e1e1e" stroke-width="1" fill="none"></path></g></g><mask></mask><g transform="translate(273.3333333333328 16.316198343192582) rotate(0 69.30833435058594 10)"><text x="0" y="0" font-family="Virgil, Segoe UI Emoji" font-size="16px" fill="#1e1e1e" text-anchor="start" style="white-space: pre;" direction="ltr" dominant-baseline="text-before-edge">1. request a page</text></g><g transform="translate(10 338.5384205654143) rotate(0 103.03333282470703 30)"><text x="0" y="0" font-family="Virgil, Segoe UI Emoji" font-size="16px" fill="#1e1e1e" text-anchor="start" style="white-space: pre;" direction="ltr" dominant-baseline="text-before-edge">2. page is not found</text><text x="0" y="20" font-family="Virgil, Segoe UI Emoji" font-size="16px" fill="#1e1e1e" text-anchor="start" style="white-space: pre;" direction="ltr" dominant-baseline="text-before-edge"> in the pool, fetch a page</text><text x="0" y="40" font-family="Virgil, Segoe UI Emoji" font-size="16px" fill="#1e1e1e" text-anchor="start" style="white-space: pre;" direction="ltr" dominant-baseline="text-before-edge"> from the database</text></g><g stroke-linecap="round"><g transform="translate(275.5555555555559 441.8717538987487) rotate(0 0.0908339903827482 -60.99042821201283)"><path d="M-0.02 -0.12 C0.06 -20.43, 0.33 -101.57, 0.38 -121.89 M-0.2 0.14 C-0.13 -20.21, 0.24 -101.77, 0.32 -122.12" stroke="#1e1e1e" stroke-width="1" fill="none"></path></g><g transform="translate(275.5555555555559 441.8717538987487) rotate(0 0.0908339903827482 -60.99042821201283)"><path d="M10.46 -93.89 C7.76 -100.59, 5.61 -107.6, 0.32 -122.12 M10.46 -93.89 C8.37 -99.82, 6.37 -105.53, 0.32 -122.12" stroke="#1e1e1e" stroke-width="1" fill="none"></path></g><g transform="translate(275.5555555555559 441.8717538987487) rotate(0 0.0908339903827482 -60.99042821201283)"><path d="M-10.06 -93.98 C-7.74 -100.65, -4.88 -107.64, 0.32 -122.12 M-10.06 -93.98 C-7.9 -99.9, -5.65 -105.59, 0.32 -122.12" stroke="#1e1e1e" stroke-width="1" fill="none"></path></g></g><mask></mask><g transform="translate(299.0444480048279 373.8161983431926) rotate(0 63.641666412353516 20)"><text x="0" y="0" font-family="Virgil, Segoe UI Emoji" font-size="16px" fill="#1e1e1e" text-anchor="start" style="white-space: pre;" direction="ltr" dominant-baseline="text-before-edge">3. DB returns </text><text x="0" y="20" font-family="Virgil, Segoe UI Emoji" font-size="16px" fill="#1e1e1e" text-anchor="start" style="white-space: pre;" direction="ltr" dominant-baseline="text-before-edge">a selected page</text></g><g stroke-linecap="round"><g transform="translate(225.55555555555497 314.0939761209704) rotate(0 -0.5255750528776844 68.97555784188489)"><path d="M0.14 0.1 C-0.03 23.07, -0.97 114.78, -1.2 137.75 M0.04 0.02 C-0.08 23.02, -0.75 114.98, -0.9 137.93" stroke="#1e1e1e" stroke-width="1" fill="none"></path></g><g transform="translate(225.55555555555497 314.0939761209704) rotate(0 -0.5255750528776844 68.97555784188489)"><path d="M-10.97 109.66 C-8.61 115.61, -6.68 121.73, -0.9 137.93 M-10.97 109.66 C-7.15 120.57, -3.3 131.44, -0.9 137.93" stroke="#1e1e1e" stroke-width="1" fill="none"></path></g><g transform="translate(225.55555555555497 314.0939761209704) rotate(0 -0.5255750528776844 68.97555784188489)"><path d="M9.55 109.81 C7.46 115.75, 4.95 121.84, -0.9 137.93 M9.55 109.81 C5.51 120.69, 1.5 131.5, -0.9 137.93" stroke="#1e1e1e" stroke-width="1" fill="none"></path></g></g><mask></mask><g stroke-linecap="round"><g transform="translate(429.2659304424701 465.0797242464621) rotate(0 -25.95859620368344 17.97258520784112)"><path d="M0 0 C0.02 -4.39, 0.03 -8.78, 0.05 -11.84 M0 0 C0.02 -4.37, 0.03 -8.75, 0.05 -11.84 M0.05 -11.84 C-13.72 -11.94, -27.49 -12.04, -51.89 -12.22 M0.05 -11.84 C-10.66 -11.91, -21.37 -11.99, -51.89 -12.22 M-51.89 -12.22 C-52.02 11.64, -52.15 35.49, -52.21 47.88 M-51.89 -12.22 C-52.01 9.11, -52.12 30.43, -52.21 47.88 M-52.21 47.88 C-41.09 47.94, -29.97 48, 0.25 48.16 M-52.21 47.88 C-34.66 47.97, -17.11 48.07, 0.25 48.16 M0.25 48.16 C0.26 39.39, 0.27 30.62, 0.3 11.98 M0.25 48.16 C0.26 37.43, 0.28 26.7, 0.3 11.98" stroke="#f08c00" stroke-width="4" fill="none"></path></g></g><mask></mask><g stroke-linecap="round"><g transform="translate(390.9718297696777 471.29420111452987) rotate(0 12.265978805998316 -0.04585286547580836)"><path d="M0 0 C8.52 -0.03, 17.04 -0.06, 24.53 -0.09 M0 0 C7.08 -0.03, 14.17 -0.05, 24.53 -0.09" stroke="#f08c00" stroke-width="4" fill="none"></path></g></g><mask></mask><g stroke-linecap="round"><g transform="translate(390.9732632572982 483.41238078835) rotate(0 12.265978805998316 -0.04585286547580836)"><path d="M0 0 C6.28 -0.02, 12.55 -0.05, 24.53 -0.09 M0 0 C8.94 -0.03, 17.88 -0.07, 24.53 -0.09" stroke="#f08c00" stroke-width="4" fill="none"></path></g></g><mask></mask><g stroke-linecap="round"><g transform="translate(391.30410845257484 495.22449211665867) rotate(0 6.039423885820042 0.07932901756930733)"><path d="M0 0 C3.64 0.05, 7.29 0.1, 12.08 0.16 M0 0 C4.6 0.06, 9.2 0.12, 12.08 0.16" stroke="#f08c00" stroke-width="4" fill="none"></path></g></g><mask></mask><g stroke-linecap="round"><g transform="translate(579.722222222221 347.42730945430344) rotate(0 52.48436552435146 -37.39177402406915)"><path d="M-0.8 1.08 C16.79 -11.51, 88.07 -63.11, 105.77 -75.86 M0.98 0.6 C18.46 -11.83, 87.92 -62.29, 105.22 -74.78" stroke="#e03131" stroke-width="4" fill="none"></path></g></g><mask></mask><g stroke-linecap="round"><g transform="translate(582.2378566978693 274.81908347837293) rotate(0 55.657778733246914 39.17223256399393)"><path d="M0.28 -0.37 C18.92 12.84, 93.78 66.73, 112.35 79.95 M-1.03 -1.6 C17.39 11.24, 92.12 64.79, 111.32 78.46" stroke="#e03131" stroke-width="4" fill="none"></path></g></g><mask></mask><g transform="translate(567.222222222221 424.92730945430344) rotate(0 115.71666717529297 30)"><text x="0" y="0" font-family="Virgil, Segoe UI Emoji" font-size="16px" fill="#1e1e1e" text-anchor="start" style="white-space: pre;" direction="ltr" dominant-baseline="text-before-edge">4. buffer manager decides to</text><text x="0" y="20" font-family="Virgil, Segoe UI Emoji" font-size="16px" fill="#1e1e1e" text-anchor="start" style="white-space: pre;" direction="ltr" dominant-baseline="text-before-edge">drop a </text><text x="0" y="40" font-family="Virgil, Segoe UI Emoji" font-size="16px" fill="#1e1e1e" text-anchor="start" style="white-space: pre;" direction="ltr" dominant-baseline="text-before-edge"></text></g><g stroke-linecap="round"><g transform="translate(464.72222222222103 486.17730945430344) rotate(0 79.79924332052462 -58.90067495256653)"><path d="M-1.08 0.77 C25.88 -19.14, 133.9 -98.7, 160.68 -118.57 M0.56 0.13 C27.5 -19.65, 133.74 -97.42, 160.08 -116.94" stroke="#1e1e1e" stroke-width="1" fill="none"></path></g><g transform="translate(464.72222222222103 486.17730945430344) rotate(0 79.79924332052462 -58.90067495256653)"><path d="M143.46 -91.97 C148.09 -96.01, 150.64 -103.11, 160.08 -116.94 M143.46 -91.97 C149.61 -99.77, 155.1 -108.59, 160.08 -116.94" stroke="#1e1e1e" stroke-width="1" fill="none"></path></g><g transform="translate(464.72222222222103 486.17730945430344) rotate(0 79.79924332052462 -58.90067495256653)"><path d="M131.3 -108.5 C138.65 -108.91, 143.79 -112.48, 160.08 -116.94 M131.3 -108.5 C141.26 -110.94, 150.68 -114.41, 160.08 -116.94" stroke="#1e1e1e" stroke-width="1" fill="none"></path></g></g><mask></mask><g transform="translate(624.722222222221 446.17730945430344) rotate(0 21.28333282470703 10)"><text x="0" y="0" font-family="Virgil, Segoe UI Emoji" font-size="16px" fill="#e03131" text-anchor="start" style="white-space: pre;" direction="ltr" dominant-baseline="text-before-edge">victim</text></g><g transform="translate(674.722222222221 444.92730945430344) rotate(0 66.85832977294922 20)"><text x="0" y="0" font-family="Virgil, Segoe UI Emoji" font-size="16px" fill="#1e1e1e" text-anchor="start" style="white-space: pre;" direction="ltr" dominant-baseline="text-before-edge">page and replace</text><text x="0" y="20" font-family="Virgil, Segoe UI Emoji" font-size="16px" fill="#1e1e1e" text-anchor="start" style="white-space: pre;" direction="ltr" dominant-baseline="text-before-edge"></text></g><g transform="translate(569.722222222221 469.92730945430344) rotate(0 75.23332977294922 10)"><text x="0" y="0" font-family="Virgil, Segoe UI Emoji" font-size="16px" fill="#1e1e1e" text-anchor="start" style="white-space: pre;" direction="ltr" dominant-baseline="text-before-edge">it with a fresh one</text></g></svg>