<svg version="1.1" xmlns="http://www.w3.org/2000/svg" viewBox="0 0 1211 663.9750228314101" width="1211" height="663.9750228314101">
  <!-- svg-source:excalidraw -->
  
  <defs>
    <style class="style-fonts">
      @font-face {
        font-family: "Virgil";
        src: url("https://excalidraw.com/Virgil.woff2");
      }
      @font-face {
        font-family: "Cascadia";
        src: url("https://excalidraw.com/Cascadia.woff2");
      }
    </style>
    
  </defs>
  <g transform="translate(368.75 10) rotate(0 225.18749713897705 28.125)"><text x="0" y="0" font-family="Virgil, Segoe UI Emoji" font-size="45px" fill="#1e1e1e" text-anchor="start" style="white-space: pre;" direction="ltr" dominant-baseline="text-before-edge">Flushing Dirty Pages</text></g><g stroke-linecap="round"><g transform="translate(523.1580488162422 510.85543241460937) rotate(0 50.3987167763014 47.76503291054564)" fill-rule="evenodd"><path d="M-2.21 0.23 C-2.46 13.8, -1.37 65.28, -0.76 81.02 C-0.16 96.76, -1.16 90.97, 1.43 94.65 C4.02 98.34, 9.47 101.42, 14.77 103.14 C20.07 104.86, 27.22 104.78, 33.2 104.98 C39.18 105.19, 45.12 104.25, 50.63 104.37 C56.14 104.5, 60.72 106.22, 66.23 105.72 C71.75 105.22, 78.29 103.39, 83.71 101.39 C89.14 99.39, 96.35 97.03, 98.79 93.72 C101.22 90.42, 97.52 95.17, 98.33 81.55 C99.14 67.93, 103.35 25.87, 103.65 11.98 C103.95 -1.9, 102.53 1.42, 100.15 -1.75 C97.77 -4.92, 93.53 -5.41, 89.38 -7.05 C85.22 -8.7, 80.79 -10.93, 75.22 -11.64 C69.66 -12.34, 61.08 -11.18, 56.01 -11.26 C50.93 -11.33, 50.95 -12.89, 44.8 -12.09 C38.65 -11.29, 26.57 -8.37, 19.11 -6.48 C11.66 -4.59, 3.32 -2.2, 0.09 -0.76" stroke="none" stroke-width="0" fill="#228be6" fill-rule="evenodd"></path><path d="M0.5 -0.74 C0.78 12.89, 0.58 65.26, 0.81 81.38 C1.05 97.5, -0.13 92.74, 1.91 95.99 C3.94 99.24, 7.86 99.29, 13.03 100.87 C18.19 102.44, 26.37 104.29, 32.89 105.42 C39.41 106.55, 46.2 107.65, 52.16 107.64 C58.13 107.63, 63.22 106.15, 68.68 105.37 C74.14 104.59, 79.96 104.46, 84.91 102.94 C89.86 101.43, 95.69 99.94, 98.37 96.26 C101.05 92.57, 100.51 95.15, 100.98 80.82 C101.45 66.49, 101.32 23.86, 101.18 10.26 C101.05 -3.34, 102.31 1.98, 100.17 -0.8 C98.02 -3.59, 92.77 -4.91, 88.32 -6.46 C83.87 -8, 78.83 -9.13, 73.46 -10.07 C68.09 -11.01, 61.15 -11.96, 56.1 -12.09 C51.04 -12.23, 49.61 -11.54, 43.15 -10.88 C36.7 -10.21, 24.56 -9.84, 17.37 -8.12 C10.18 -6.39, 2.74 -1.93, 0.02 -0.53 M-0.69 1.48 C-0.43 15.36, -0.03 67.01, 0.29 82.98 C0.61 98.96, -0.87 94.21, 1.21 97.34 C3.29 100.46, 7.68 100.33, 12.77 101.72 C17.87 103.12, 25.53 104.82, 31.76 105.71 C37.99 106.6, 43.85 107.39, 50.14 107.09 C56.43 106.79, 63.79 104.64, 69.49 103.9 C75.2 103.16, 79.34 104.06, 84.38 102.63 C89.42 101.21, 96.82 99.09, 99.75 95.34 C102.68 91.6, 101.69 94.23, 101.96 80.14 C102.23 66.05, 101.9 24.42, 101.37 10.82 C100.84 -2.78, 100.83 1.56, 98.76 -1.46 C96.69 -4.48, 93.29 -5.8, 88.96 -7.28 C84.63 -8.77, 78.72 -9.96, 72.79 -10.35 C66.85 -10.74, 58.12 -9.73, 53.34 -9.61 C48.56 -9.49, 49.79 -10.05, 44.1 -9.62 C38.41 -9.2, 26.76 -8.6, 19.2 -7.07 C11.64 -5.54, 1.91 -1.74, -1.26 -0.44" stroke="#364fc7" stroke-width="1" fill="none"></path></g></g><mask></mask><g stroke-linecap="round" transform="translate(522.7845865389668 498.5305783869658) rotate(0 50.62648340191515 13.765081576212424)"><path d="M54.91 0.15 C64.36 0.19, 76.35 1.76, 83.84 3.53 C91.33 5.29, 97.58 8.14, 99.85 10.74 C102.11 13.35, 101.3 16.7, 97.42 19.16 C93.55 21.63, 85.1 24.13, 76.59 25.54 C68.09 26.95, 56.28 27.87, 46.38 27.64 C36.49 27.41, 24.74 25.96, 17.21 24.14 C9.68 22.32, 3.43 19.32, 1.21 16.71 C-1 14.11, -0.01 10.95, 3.92 8.5 C7.85 6.05, 16.22 3.4, 24.8 2.02 C33.37 0.63, 50.19 0.47, 55.36 0.21 C60.53 -0.05, 55.88 0.21, 55.82 0.44 M51.96 0.26 C61.35 0.22, 73.44 1.51, 81.26 3.13 C89.09 4.76, 96.04 7.43, 98.92 9.98 C101.8 12.53, 101.79 15.92, 98.55 18.43 C95.3 20.94, 87.68 23.54, 79.46 25.03 C71.23 26.53, 59.12 27.48, 49.22 27.39 C39.32 27.31, 27.89 26.2, 20.06 24.52 C12.22 22.85, 5.05 19.92, 2.21 17.36 C-0.63 14.8, -0.29 11.64, 3.03 9.17 C6.35 6.71, 13.95 4.13, 22.14 2.57 C30.33 1, 47.22 0.21, 52.16 -0.22 C57.11 -0.66, 51.87 -0.29, 51.81 -0.05" stroke="none" stroke-width="0" fill="#ffffff"></path><path d="M51.19 0.13 C60.61 0.02, 72.88 1.22, 80.87 2.82 C88.87 4.42, 96.22 7.15, 99.16 9.74 C102.1 12.34, 101.74 15.87, 98.52 18.37 C95.31 20.88, 87.93 23.24, 79.86 24.78 C71.8 26.32, 60.08 27.61, 50.15 27.61 C40.21 27.6, 28.26 26.37, 20.26 24.75 C12.25 23.12, 5.07 20.39, 2.12 17.85 C-0.82 15.31, -0.62 12.05, 2.6 9.5 C5.81 6.94, 13.19 4.08, 21.4 2.54 C29.61 0.99, 46.72 0.6, 51.85 0.22 C56.99 -0.16, 52.24 0.09, 52.23 0.25 M53.76 0.12 C63.22 0.09, 75.15 1.34, 82.73 3.04 C90.31 4.73, 96.76 7.67, 99.25 10.28 C101.75 12.89, 101.26 16.23, 97.72 18.71 C94.17 21.19, 86.3 23.64, 78 25.15 C69.7 26.66, 57.79 27.9, 47.92 27.77 C38.04 27.63, 26.5 26.15, 18.77 24.34 C11.03 22.54, 4.13 19.53, 1.52 16.94 C-1.09 14.36, -0.49 11.3, 3.12 8.8 C6.73 6.31, 14.79 3.48, 23.16 1.98 C31.54 0.48, 48.36 0.06, 53.35 -0.21 C58.33 -0.49, 53.05 0.05, 53.07 0.34" stroke="#364fc7" stroke-width="1" fill="none"></path></g><g transform="translate(526.8464791905485 628.9750228314101) rotate(0 49.43333435058594 12.5)"><text x="49.43333435058594" y="0" font-family="Virgil, Segoe UI Emoji" font-size="20px" fill="#000000" text-anchor="middle" style="white-space: pre;" direction="ltr" dominant-baseline="text-before-edge">Database</text></g><g stroke-linecap="round"><g transform="translate(490.464286220606 362.76961611001207) rotate(0 -20.673645447808212 14.313518783990048)"><path d="M0 0 C0.01 -2.19, 0.02 -4.38, 0.04 -9.43 M0 0 C0.01 -3.37, 0.03 -6.75, 0.04 -9.43 M0.04 -9.43 C-15.76 -9.54, -31.56 -9.66, -41.33 -9.73 M0.04 -9.43 C-11.25 -9.51, -22.54 -9.59, -41.33 -9.73 M-41.33 -9.73 C-41.39 0.84, -41.44 11.41, -41.58 38.13 M-41.33 -9.73 C-41.4 4.48, -41.48 18.68, -41.58 38.13 M-41.58 38.13 C-28.1 38.2, -14.61 38.28, 0.2 38.36 M-41.58 38.13 C-26.1 38.21, -10.62 38.3, 0.2 38.36 M0.2 38.36 C0.21 31.21, 0.22 24.06, 0.24 9.54 M0.2 38.36 C0.21 27.78, 0.23 17.21, 0.24 9.54" stroke="#000" stroke-width="4" fill="none"></path></g></g><mask></mask><g stroke-linecap="round"><g transform="translate(459.96654074006847 367.7188780194756) rotate(0 9.768729206919033 -0.036517609664770134)"><path d="M0 0 C4.45 -0.02, 8.91 -0.03, 19.54 -0.07 M0 0 C7.53 -0.03, 15.05 -0.06, 19.54 -0.07" stroke="#f08c00" stroke-width="4" fill="none"></path></g></g><mask></mask><g stroke-linecap="round"><g transform="translate(459.9676823817267 377.369898748163) rotate(0 9.768729206919033 -0.036517609664770134)"><path d="M0 0 C5.3 -0.02, 10.61 -0.04, 19.54 -0.07 M0 0 C5.4 -0.02, 10.81 -0.04, 19.54 -0.07" stroke="#f08c00" stroke-width="4" fill="none"></path></g></g><mask></mask><g stroke-linecap="round"><g transform="translate(460.2311702919201 386.77716405925275) rotate(0 4.809848234657238 0.06317830017019332)"><path d="M0 0 C2.55 0.03, 5.1 0.07, 9.62 0.13 M0 0 C3.56 0.05, 7.11 0.09, 9.62 0.13" stroke="#f08c00" stroke-width="4" fill="none"></path></g></g><mask></mask><g stroke-linecap="round"><g transform="translate(416.71702813580623 415.5104443483051) rotate(0 52.38059436966671 -38.06276559824573)"><path d="M-0.09 -0.28 C17.34 -12.81, 86.43 -61.85, 104.11 -74.16 M-1.59 -1.47 C16.26 -13.82, 88.47 -63.42, 106.36 -75.85" stroke="#e03131" stroke-width="4" fill="none"></path></g></g><mask></mask><g stroke-linecap="round"><g transform="translate(419.232662611455 342.9022183723746) rotate(0 56.296679221093655 39.924773329398704)"><path d="M-0.89 0.84 C18.04 14.15, 94.42 66.58, 113.48 79.62 M0.84 0.23 C19.71 13.24, 94.32 64.57, 113.05 77.95" stroke="#e03131" stroke-width="4" fill="none"></path></g></g><mask></mask><g stroke-linecap="round"><g transform="translate(716.8504891186926 364.4307762452331) rotate(0 -31.819760817047722 8.000663051684114)"><path d="M0 0 C-0.14 -8.48, -0.27 -16.96, -0.42 -26.31 M0 0 C-0.09 -5.58, -0.18 -11.17, -0.42 -26.31 M-0.42 -26.31 C-14.06 -26.29, -27.7 -26.26, -63.64 -26.2 M-0.42 -26.31 C-18.5 -26.28, -36.58 -26.25, -63.64 -26.2 M-63.64 -26.2 C-63.55 -5.27, -63.46 15.66, -63.34 42.25 M-63.64 -26.2 C-63.55 -6.9, -63.47 12.4, -63.34 42.25 M-63.34 42.25 C-57.29 42.27, -51.24 42.29, -42.44 42.31 M-63.34 42.25 C-56.99 42.27, -50.63 42.29, -42.44 42.31" stroke="#e03131" stroke-width="4" fill="none"></path></g></g><mask></mask><g stroke-linecap="round"><g transform="translate(666.2950680491933 356.41793892679425) rotate(0 18.716206082385952 -0.016976167414895826)"><path d="M0 0 C7.82 -0.01, 15.64 -0.01, 37.43 -0.03 M0 0 C9.37 -0.01, 18.73 -0.02, 37.43 -0.03" stroke="#e03131" stroke-width="4" fill="none"></path></g></g><mask></mask><g stroke-linecap="round"><g transform="translate(665.9318249143253 372.3677077809775) rotate(0 4.139669861473976 0.039469281030051206)"><path d="M0 0 C2.69 0.03, 5.39 0.05, 8.28 0.08 M0 0 C1.83 0.02, 3.67 0.03, 8.28 0.08" stroke="#e03131" stroke-width="4" fill="none"></path></g></g><mask></mask><g stroke-linecap="round" transform="translate(679.795719626582 370.0232213922377) rotate(0 20.996656444410405 20.929247375280966)"><path d="M41.99 20.93 C41.99 22.14, 41.89 23.37, 41.67 24.56 C41.46 25.76, 41.14 26.95, 40.73 28.09 C40.31 29.23, 39.79 30.34, 39.18 31.39 C38.57 32.44, 37.86 33.45, 37.08 34.38 C36.3 35.31, 35.42 36.18, 34.49 36.96 C33.56 37.74, 32.55 38.45, 31.49 39.05 C30.44 39.66, 29.32 40.18, 28.18 40.6 C27.04 41.01, 25.84 41.33, 24.64 41.54 C23.45 41.75, 22.21 41.86, 21 41.86 C19.78 41.86, 18.55 41.75, 17.35 41.54 C16.15 41.33, 14.96 41.01, 13.82 40.6 C12.67 40.18, 11.55 39.66, 10.5 39.05 C9.45 38.45, 8.43 37.74, 7.5 36.96 C6.57 36.18, 5.69 35.31, 4.91 34.38 C4.13 33.45, 3.42 32.44, 2.81 31.39 C2.21 30.34, 1.68 29.23, 1.27 28.09 C0.85 26.95, 0.53 25.76, 0.32 24.56 C0.11 23.37, 0 22.14, 0 20.93 C0 19.72, 0.11 18.49, 0.32 17.29 C0.53 16.1, 0.85 14.91, 1.27 13.77 C1.68 12.63, 2.21 11.51, 2.81 10.46 C3.42 9.42, 4.13 8.4, 4.91 7.48 C5.69 6.55, 6.57 5.68, 7.5 4.9 C8.43 4.12, 9.45 3.41, 10.5 2.8 C11.55 2.2, 12.67 1.68, 13.82 1.26 C14.96 0.85, 16.15 0.53, 17.35 0.32 C18.55 0.11, 19.78 0, 21 0 C22.21 0, 23.45 0.11, 24.64 0.32 C25.84 0.53, 27.04 0.85, 28.18 1.26 C29.32 1.68, 30.44 2.2, 31.49 2.8 C32.55 3.41, 33.56 4.12, 34.49 4.9 C35.42 5.68, 36.3 6.55, 37.08 7.48 C37.86 8.4, 38.57 9.42, 39.18 10.46 C39.79 11.51, 40.31 12.63, 40.73 13.77 C41.14 14.91, 41.46 16.1, 41.67 17.29 C41.89 18.49, 41.94 20.32, 41.99 20.93 C42.05 21.53, 42.05 20.32, 41.99 20.93" stroke="#e03131" stroke-width="4" fill="none"></path></g><g stroke-linecap="round"><g transform="translate(700.8077766725421 379.36451469902886) rotate(0 0.007470993067158815 7.432392936282895)"><path d="M0 0 C0.01 5.11, 0.01 10.22, 0.01 14.86 M0 0 C0 4.85, 0.01 9.7, 0.01 14.86" stroke="#e03131" stroke-width="4" fill="none"></path></g></g><mask></mask><g stroke-linecap="round" transform="translate(700.7219744357708 401.0480309740801) rotate(0 0.045874228354477964 0.045874228354477964)"><path d="M0.09 0.05 C0.09 0.05, 0.09 0.05, 0.09 0.05 C0.09 0.06, 0.09 0.06, 0.09 0.06 C0.09 0.06, 0.09 0.07, 0.09 0.07 C0.08 0.07, 0.08 0.07, 0.08 0.08 C0.08 0.08, 0.08 0.08, 0.08 0.08 C0.07 0.08, 0.07 0.08, 0.07 0.09 C0.07 0.09, 0.06 0.09, 0.06 0.09 C0.06 0.09, 0.06 0.09, 0.05 0.09 C0.05 0.09, 0.05 0.09, 0.05 0.09 C0.04 0.09, 0.04 0.09, 0.04 0.09 C0.04 0.09, 0.03 0.09, 0.03 0.09 C0.03 0.09, 0.03 0.09, 0.02 0.09 C0.02 0.08, 0.02 0.08, 0.02 0.08 C0.01 0.08, 0.01 0.08, 0.01 0.08 C0.01 0.07, 0.01 0.07, 0.01 0.07 C0 0.07, 0 0.06, 0 0.06 C0 0.06, 0 0.06, 0 0.05 C0 0.05, 0 0.05, 0 0.05 C0 0.04, 0 0.04, 0 0.04 C0 0.04, 0 0.03, 0 0.03 C0 0.03, 0 0.03, 0.01 0.02 C0.01 0.02, 0.01 0.02, 0.01 0.02 C0.01 0.01, 0.01 0.01, 0.02 0.01 C0.02 0.01, 0.02 0.01, 0.02 0.01 C0.03 0, 0.03 0, 0.03 0 C0.03 0, 0.04 0, 0.04 0 C0.04 0, 0.04 0, 0.05 0 C0.05 0, 0.05 0, 0.05 0 C0.06 0, 0.06 0, 0.06 0 C0.06 0, 0.07 0, 0.07 0.01 C0.07 0.01, 0.07 0.01, 0.08 0.01 C0.08 0.01, 0.08 0.01, 0.08 0.02 C0.08 0.02, 0.08 0.02, 0.09 0.02 C0.09 0.03, 0.09 0.03, 0.09 0.03 C0.09 0.03, 0.09 0.04, 0.09 0.04 C0.09 0.04, 0.09 0.04, 0.09 0.05 C0.09 0.05, 0.09 0.04, 0.09 0.05" stroke="#e03131" stroke-width="4" fill="none"></path></g><g stroke-linecap="round"><g transform="translate(465 422.5) rotate(0 22.011391953735824 38.20373904224539)"><path d="M0.19 0.16 C7.42 12.93, 36.21 63.89, 43.46 76.52 M-0.21 -0.11 C7.15 12.55, 36.97 63.22, 44.23 75.94" stroke="#1e1e1e" stroke-width="1" fill="none"></path></g><g transform="translate(465 422.5) rotate(0 22.011391953735824 38.20373904224539)"><path d="M21.2 56.72 C28.71 62.17, 36.13 68.6, 44.23 75.94 M21.2 56.72 C25.8 61.09, 31.02 64.64, 44.23 75.94" stroke="#1e1e1e" stroke-width="1" fill="none"></path></g><g transform="translate(465 422.5) rotate(0 22.011391953735824 38.20373904224539)"><path d="M38.94 46.41 C40.88 55.12, 42.73 64.79, 44.23 75.94 M38.94 46.41 C39.65 53.08, 41.01 58.88, 44.23 75.94" stroke="#1e1e1e" stroke-width="1" fill="none"></path></g></g><mask></mask><g stroke-linecap="round"><g transform="translate(667.5 421.25) rotate(0 -17.63193805726746 39.32874156788216)"><path d="M0.18 -0.07 C-5.72 13.14, -29.33 65.85, -35.14 79.02 M-0.09 -0.36 C-6.06 12.78, -29.67 65.5, -35.45 78.63" stroke="#1e1e1e" stroke-width="1" fill="none"></path></g><g transform="translate(667.5 421.25) rotate(0 -17.63193805726746 39.32874156788216)"><path d="M-33.37 48.7 C-34.37 60.09, -34.54 72.58, -35.45 78.63 M-33.37 48.7 C-34.18 59.45, -34.94 69.93, -35.45 78.63" stroke="#1e1e1e" stroke-width="1" fill="none"></path></g><g transform="translate(667.5 421.25) rotate(0 -17.63193805726746 39.32874156788216)"><path d="M-14.62 57.04 C-22.9 65.22, -30.37 74.45, -35.45 78.63 M-14.62 57.04 C-22.16 64.85, -29.66 72.34, -35.45 78.63" stroke="#1e1e1e" stroke-width="1" fill="none"></path></g></g><mask></mask><g stroke-linecap="round"><g transform="translate(621.1051579896255 202.7007468841748) rotate(0 32.34135990290042 10.726027655540065)" fill-rule="evenodd"><path d="M0.33 1.45 L5.7 -9.76 L3.74 -15.04 L11.62 -23.44 L18.34 -18.69 L30.6 -23.03 L29.64 -29.83 L40.8 -29.47 L43.7 -24.28 L52.48 -15.73 L62.62 -20.61 L69.99 -13.16 L65.39 -3.93 L65.23 6.47 L75.58 8.37 L71.6 20.72 L65.73 20.49 L61.56 34.09 L63.53 39.88 L55.82 45.64 L47.26 41.26 L36.53 42.6 L33.06 52.73 L22.33 51.77 L19.66 44.25 L13.05 39.75 L3.71 38.98 L-2.99 32.43 L3.12 27.02 L-3.06 15.97 L-9.65 12.62 L-6.76 -0.01 L1.4 -0.21" stroke="none" stroke-width="0" fill="#e1effc" fill-rule="evenodd"></path><path d="M0 0 C2.14 -3.86, 5.1 -7.29, 5.63 -9.17 M0 0 C1.45 -2.36, 2.55 -4.02, 5.63 -9.17 M5.63 -9.17 C4.04 -11.59, 3.96 -13.91, 2.35 -16.94 M5.63 -9.17 C4.6 -11.75, 3.1 -14.7, 2.35 -16.94 M2.35 -16.94 C5.14 -19.28, 7.96 -21.59, 12.58 -24.31 M2.35 -16.94 C5.26 -19.91, 8.75 -22.53, 12.58 -24.31 M12.58 -24.31 C13.7 -22.59, 15.6 -21.25, 18.8 -19.86 M12.58 -24.31 C14.39 -22.91, 16.41 -21.23, 18.8 -19.86 M18.8 -19.86 C22.58 -21.7, 25.74 -23.2, 28.75 -22.84 M18.8 -19.86 C21.57 -20.55, 23.87 -21.71, 28.75 -22.84 M28.75 -22.84 C29.92 -25.77, 31.12 -27.72, 31.44 -31.02 M28.75 -22.84 C29.83 -25.75, 30.38 -28.19, 31.44 -31.02 M31.44 -31.02 C33.85 -31.11, 38.25 -31.31, 42.05 -29.84 M31.44 -31.02 C33.91 -31.01, 35.59 -30.28, 42.05 -29.84 M42.05 -29.84 C42.66 -27.96, 42.9 -24.47, 43.28 -22.57 M42.05 -29.84 C42.47 -28.05, 42.58 -26.91, 43.28 -22.57 M43.28 -22.57 C45.31 -20.34, 48.72 -20.81, 52.9 -16.77 M43.28 -22.57 C47.15 -20.57, 51.01 -17.35, 52.9 -16.77 M52.9 -16.77 C56.07 -18.13, 56.93 -17.45, 61.78 -19.73 M52.9 -16.77 C55.96 -17.96, 59.56 -19.41, 61.78 -19.73 M61.78 -19.73 C63.37 -16.51, 65.08 -14.75, 68.2 -11.84 M61.78 -19.73 C63.26 -17.8, 65.05 -16.67, 68.2 -11.84 M68.2 -11.84 C67.23 -10.27, 66.68 -7.96, 63.63 -4.69 M68.2 -11.84 C67.27 -9.82, 65.64 -7.49, 63.63 -4.69 M63.63 -4.69 C63.53 -1.63, 65.6 1.59, 66.72 5.92 M63.63 -4.69 C64.81 -0.88, 66.65 4.06, 66.72 5.92 M66.72 5.92 C69.43 6.78, 71.78 7.68, 74.48 9.74 M66.72 5.92 C69.1 7.34, 72.54 9.04, 74.48 9.74 M74.48 9.74 C74.76 14.68, 74.14 17.14, 73.13 20.47 M74.48 9.74 C73.89 13.02, 73.28 16.91, 73.13 20.47 M73.13 20.47 C71.4 20.16, 69.02 21.24, 65.36 21.95 M73.13 20.47 C70.64 20.57, 68.06 21.77, 65.36 21.95 M65.36 21.95 C64.6 24.74, 62.23 26.24, 59.56 32.31 M65.36 21.95 C62.76 25.58, 61.05 30.43, 59.56 32.31 M59.56 32.31 C59.73 34.39, 61.61 36.55, 62.77 39.22 M59.56 32.31 C60.73 34.31, 61.08 36.05, 62.77 39.22 M62.77 39.22 C60.64 40.89, 58.83 42.04, 54.75 46.12 M62.77 39.22 C59.8 41.62, 56.07 45.08, 54.75 46.12 M54.75 46.12 C52.9 45.06, 49.76 43.76, 48.22 41.68 M54.75 46.12 C53.21 44.8, 50.88 43.32, 48.22 41.68 M48.22 41.68 C43.36 41.83, 39.47 43.71, 37.24 44.39 M48.22 41.68 C44.1 42.81, 40.41 43.43, 37.24 44.39 M37.24 44.39 C36.03 47.73, 35.02 50.28, 33.42 52.53 M37.24 44.39 C35.78 47.2, 34.33 49.9, 33.42 52.53 M33.42 52.53 C30.18 51.12, 24.47 51.13, 22.44 50.81 M33.42 52.53 C29.15 52.27, 26.02 50.99, 22.44 50.81 M22.44 50.81 C21.48 49.13, 21.74 46.61, 21.09 42.42 M22.44 50.81 C22.36 48.1, 21.06 44.67, 21.09 42.42 M21.09 42.42 C18.43 40.48, 15.17 39.5, 11.35 38.48 M21.09 42.42 C17.8 40.82, 13.96 39.56, 11.35 38.48 M11.35 38.48 C8.5 38.87, 7.23 39.6, 4.19 40.82 M11.35 38.48 C9.19 39.34, 6.93 39.74, 4.19 40.82 M4.19 40.82 C2.55 37.99, -0.15 36.46, -2.22 33.42 M4.19 40.82 C3.16 39.28, 1.2 37.57, -2.22 33.42 M-2.22 33.42 C-1.18 30.44, 0.82 28.07, 1.36 25.77 M-2.22 33.42 C-0.9 31.04, -0.53 29.58, 1.36 25.77 M1.36 25.77 C0.98 21.4, -1.39 18.16, -1.6 15.54 M1.36 25.77 C0.71 22.74, 0.1 19.69, -1.6 15.54 M-1.6 15.54 C-3.98 13.7, -7.83 12.78, -9.87 11.1 M-1.6 15.54 C-4.53 14.24, -7.62 12.49, -9.87 11.1 M-9.87 11.1 C-8.86 9.57, -9.71 7.17, -8.14 1.85 M-9.87 11.1 C-9.53 7.53, -8.41 3.96, -8.14 1.85 M-8.14 1.85 C-6.45 0.87, -4.1 0.71, 0 0 M-8.14 1.85 C-6.49 1.54, -4.01 1.07, 0 0 M0 0 C0 0, 0 0, 0 0 M0 0 C0 0, 0 0, 0 0" stroke="#aaa" stroke-width="1" fill="none"></path></g></g><mask></mask><g stroke-linecap="round" transform="translate(627.6082356237687 187.53870386692597) rotate(0 25.541639933026886 25.541639933027)"><path d="M15.52 2.33 C20.22 -0.17, 27.59 -1.36, 32.72 0.09 C37.85 1.54, 43.14 6.25, 46.3 11.01 C49.46 15.78, 52.07 23.34, 51.68 28.7 C51.29 34.06, 47.83 39.46, 43.97 43.17 C40.12 46.89, 34.04 50.35, 28.54 50.99 C23.05 51.64, 15.53 50.13, 11 47.06 C6.47 43.99, 2.87 38.01, 1.36 32.57 C-0.14 27.13, -0.44 19.51, 1.97 14.42 C4.38 9.32, 13.36 3.93, 15.82 1.99 C18.28 0.06, 16.7 2.49, 16.73 2.82 M30.09 1.48 C35.63 2.09, 42.05 4.14, 45.44 8.2 C48.82 12.26, 50.34 20.15, 50.41 25.83 C50.48 31.5, 49.27 38.06, 45.85 42.24 C42.43 46.43, 35.48 49.97, 29.91 50.93 C24.34 51.9, 16.88 50.89, 12.42 48.03 C7.97 45.17, 4.8 38.88, 3.2 33.76 C1.59 28.64, 1.23 22.21, 2.78 17.32 C4.33 12.43, 8.14 7.48, 12.5 4.42 C16.87 1.36, 26.29 -0.41, 28.95 -1.05 C31.61 -1.7, 28.37 -0.03, 28.45 0.54" stroke="none" stroke-width="0" fill="#c9d5e1"></path><path d="M19.88 1.08 C24.9 -0.72, 31.51 -0.03, 36.49 2.31 C41.47 4.65, 47.56 9.99, 49.77 15.13 C51.99 20.26, 51.53 27.85, 49.77 33.1 C48.01 38.35, 43.61 43.62, 39.21 46.6 C34.81 49.58, 28.66 51.41, 23.38 51 C18.11 50.59, 11.31 48.04, 7.57 44.16 C3.84 40.29, 1.42 33.45, 0.95 27.75 C0.48 22.04, 1.07 14.63, 4.74 9.93 C8.41 5.24, 19.14 1.11, 22.97 -0.43 C26.8 -1.96, 27.53 0.27, 27.73 0.71 M30.01 1.44 C35.18 1.67, 40.22 4.06, 43.54 7.78 C46.87 11.5, 49.71 18.17, 49.95 23.75 C50.19 29.33, 48.32 36.95, 44.99 41.24 C41.66 45.54, 35.12 48.51, 29.99 49.51 C24.85 50.51, 18.68 49.66, 14.17 47.24 C9.66 44.81, 5.19 40.01, 2.95 34.96 C0.71 29.91, -0.77 22.15, 0.71 16.92 C2.19 11.7, 7.08 6.2, 11.84 3.6 C16.59 1.01, 26.06 1.8, 29.24 1.35 C32.42 0.9, 30.76 0.7, 30.9 0.9" stroke="transparent" stroke-width="1" fill="none"></path></g><g stroke-linecap="round"><g transform="translate(734.9030624866693 204.24189194845485) rotate(0 12.052330924264538 4.011880942526204)" fill-rule="evenodd"><path d="M0.36 0.49 L1.85 -3.2 L0.76 -6.02 L5.17 -9.12 L6.55 -7.1 L10.4 -8.42 L11.84 -12.01 L15.58 -10.86 L16.36 -8.64 L20.2 -6.6 L23.5 -7.16 L25.06 -4.28 L24.02 -2.1 L24.49 2.27 L27.88 3.26 L27.79 8.1 L24.58 8.36 L22.49 11.93 L23.17 14.52 L20.24 16.74 L17.89 15.6 L13.86 16.81 L12.1 20.07 L8.81 19.28 L7.74 15.35 L4.03 14.1 L2.02 15.55 L-1.2 12.58 L0.56 10.01 L-0.24 5.32 L-3.32 4.08 L-2.75 0.47 L-0.13 -0.2" stroke="none" stroke-width="0" fill="#e1effc" fill-rule="evenodd"></path><path d="M0 0 C0.47 -0.77, 1.13 -1.72, 2.1 -3.42 M0 0 C0.61 -1, 1.24 -2, 2.1 -3.42 M2.1 -3.42 C1.76 -4.21, 1.45 -5.11, 0.88 -6.32 M2.1 -3.42 C1.73 -4.31, 1.39 -5.12, 0.88 -6.32 M0.88 -6.32 C1.92 -6.99, 2.97 -7.86, 4.69 -9.07 M0.88 -6.32 C1.76 -6.97, 2.66 -7.65, 4.69 -9.07 M4.69 -9.07 C5.55 -8.5, 6.37 -7.89, 7.01 -7.41 M4.69 -9.07 C5.41 -8.58, 6.09 -8.1, 7.01 -7.41 M7.01 -7.41 C7.9 -7.73, 8.89 -7.94, 10.72 -8.52 M7.01 -7.41 C8.27 -7.75, 9.56 -8.13, 10.72 -8.52 M10.72 -8.52 C10.98 -9.21, 11.25 -9.96, 11.73 -11.57 M10.72 -8.52 C10.98 -9.29, 11.26 -10.08, 11.73 -11.57 M11.73 -11.57 C12.69 -11.39, 13.92 -11.28, 15.69 -11.13 M11.73 -11.57 C12.82 -11.43, 13.86 -11.33, 15.69 -11.13 M15.69 -11.13 C15.74 -10.42, 15.9 -9.83, 16.15 -8.42 M15.69 -11.13 C15.82 -10.2, 16.01 -9.28, 16.15 -8.42 M16.15 -8.42 C17.59 -7.63, 18.74 -6.78, 19.73 -6.26 M16.15 -8.42 C16.97 -7.89, 17.8 -7.37, 19.73 -6.26 M19.73 -6.26 C20.58 -6.44, 21.27 -6.84, 23.05 -7.36 M19.73 -6.26 C20.67 -6.55, 21.58 -6.88, 23.05 -7.36 M23.05 -7.36 C23.91 -6.28, 24.99 -5.03, 25.44 -4.42 M23.05 -7.36 C23.82 -6.4, 24.68 -5.35, 25.44 -4.42 M25.44 -4.42 C24.93 -3.54, 24.37 -2.75, 23.74 -1.75 M25.44 -4.42 C24.92 -3.6, 24.42 -2.89, 23.74 -1.75 M23.74 -1.75 C24.23 -0.38, 24.45 0.88, 24.89 2.21 M23.74 -1.75 C23.98 -0.88, 24.28 0.03, 24.89 2.21 M24.89 2.21 C25.76 2.54, 26.58 2.93, 27.78 3.63 M24.89 2.21 C25.83 2.66, 26.73 3.13, 27.78 3.63 M27.78 3.63 C27.64 5.1, 27.5 6.71, 27.28 7.64 M27.78 3.63 C27.66 4.56, 27.52 5.51, 27.28 7.64 M27.28 7.64 C26.69 7.72, 25.99 7.9, 24.38 8.19 M27.28 7.64 C26.64 7.77, 26.02 7.9, 24.38 8.19 M24.38 8.19 C23.79 9.52, 22.97 10.56, 22.22 12.05 M24.38 8.19 C23.86 9.08, 23.33 10.01, 22.22 12.05 M22.22 12.05 C22.55 12.83, 22.95 13.69, 23.41 14.63 M22.22 12.05 C22.64 13, 23.08 13.94, 23.41 14.63 M23.41 14.63 C22.66 15.43, 21.67 16.12, 20.42 17.2 M23.41 14.63 C22.69 15.3, 21.96 15.91, 20.42 17.2 M20.42 17.2 C19.57 16.63, 18.76 16.11, 17.99 15.55 M20.42 17.2 C19.79 16.75, 19.08 16.27, 17.99 15.55 M17.99 15.55 C17.14 15.72, 16.12 15.93, 13.89 16.56 M17.99 15.55 C16.62 15.95, 15.11 16.26, 13.89 16.56 M13.89 16.56 C13.46 17.44, 12.97 18.46, 12.47 19.6 M13.89 16.56 C13.4 17.65, 12.84 18.77, 12.47 19.6 M12.47 19.6 C11.55 19.48, 10.46 19.19, 8.37 18.95 M12.47 19.6 C10.91 19.33, 9.43 19.07, 8.37 18.95 M8.37 18.95 C8.23 17.83, 8.01 16.72, 7.87 15.82 M8.37 18.95 C8.21 17.84, 8.05 16.76, 7.87 15.82 M7.87 15.82 C7.13 15.46, 6.26 15.24, 4.23 14.35 M7.87 15.82 C6.87 15.38, 5.88 14.98, 4.23 14.35 M4.23 14.35 C3.61 14.49, 3.03 14.79, 1.56 15.23 M4.23 14.35 C3.41 14.62, 2.57 14.92, 1.56 15.23 M1.56 15.23 C0.84 14.5, 0.2 13.81, -0.83 12.47 M1.56 15.23 C0.81 14.35, 0.01 13.45, -0.83 12.47 M-0.83 12.47 C-0.54 11.77, -0.11 11.15, 0.51 9.61 M-0.83 12.47 C-0.52 11.84, -0.26 11.27, 0.51 9.61 M0.51 9.61 C0.25 8.73, -0.01 7.91, -0.6 5.8 M0.51 9.61 C0.23 8.48, -0.11 7.47, -0.6 5.8 M-0.6 5.8 C-1.44 5.31, -2.39 4.83, -3.68 4.14 M-0.6 5.8 C-1.72 5.25, -2.76 4.67, -3.68 4.14 M-3.68 4.14 C-3.39 2.89, -3.17 1.73, -3.04 0.69 M-3.68 4.14 C-3.54 3.23, -3.29 2.23, -3.04 0.69 M-3.04 0.69 C-2.37 0.6, -1.58 0.32, 0 0 M-3.04 0.69 C-2.01 0.49, -1.02 0.26, 0 0 M0 0 C0 0, 0 0, 0 0 M0 0 C0 0, 0 0, 0 0" stroke="#aaa" stroke-width="1" fill="none"></path></g></g><mask></mask><g stroke-linecap="round" transform="translate(738.4398408899935 199.57584830973838) rotate(0 8.561843471330008 8.561843471329894)"><path d="M17.12 8.56 C17.12 9.06, 17.08 9.56, 16.99 10.05 C16.91 10.54, 16.78 11.02, 16.61 11.49 C16.44 11.96, 16.22 12.41, 15.98 12.84 C15.73 13.27, 15.44 13.69, 15.12 14.07 C14.8 14.44, 14.44 14.8, 14.07 15.12 C13.69 15.44, 13.27 15.73, 12.84 15.98 C12.41 16.22, 11.96 16.44, 11.49 16.61 C11.02 16.78, 10.54 16.91, 10.05 16.99 C9.56 17.08, 9.06 17.12, 8.56 17.12 C8.07 17.12, 7.56 17.08, 7.08 16.99 C6.59 16.91, 6.1 16.78, 5.63 16.61 C5.17 16.44, 4.71 16.22, 4.28 15.98 C3.85 15.73, 3.44 15.44, 3.06 15.12 C2.68 14.8, 2.32 14.44, 2 14.07 C1.68 13.69, 1.39 13.27, 1.15 12.84 C0.9 12.41, 0.69 11.96, 0.52 11.49 C0.35 11.02, 0.22 10.54, 0.13 10.05 C0.04 9.56, 0 9.06, 0 8.56 C0 8.07, 0.04 7.56, 0.13 7.08 C0.22 6.59, 0.35 6.1, 0.52 5.63 C0.69 5.17, 0.9 4.71, 1.15 4.28 C1.39 3.85, 1.68 3.44, 2 3.06 C2.32 2.68, 2.68 2.32, 3.06 2 C3.44 1.68, 3.85 1.39, 4.28 1.15 C4.71 0.9, 5.17 0.69, 5.63 0.52 C6.1 0.35, 6.59 0.22, 7.08 0.13 C7.56 0.04, 8.07 0, 8.56 0 C9.06 0, 9.56 0.04, 10.05 0.13 C10.54 0.22, 11.02 0.35, 11.49 0.52 C11.96 0.69, 12.41 0.9, 12.84 1.15 C13.27 1.39, 13.69 1.68, 14.07 2 C14.44 2.32, 14.8 2.68, 15.12 3.06 C15.44 3.44, 15.73 3.85, 15.98 4.28 C16.22 4.71, 16.44 5.17, 16.61 5.63 C16.78 6.1, 16.91 6.59, 16.99 7.08 C17.08 7.56, 17.1 8.31, 17.12 8.56 C17.15 8.81, 17.15 8.31, 17.12 8.56" stroke="none" stroke-width="0" fill="#c9d5e1"></path><path d="M17.12 8.56 C17.12 9.06, 17.08 9.56, 16.99 10.05 C16.91 10.54, 16.78 11.02, 16.61 11.49 C16.44 11.96, 16.22 12.41, 15.98 12.84 C15.73 13.27, 15.44 13.69, 15.12 14.07 C14.8 14.44, 14.44 14.8, 14.07 15.12 C13.69 15.44, 13.27 15.73, 12.84 15.98 C12.41 16.22, 11.96 16.44, 11.49 16.61 C11.02 16.78, 10.54 16.91, 10.05 16.99 C9.56 17.08, 9.06 17.12, 8.56 17.12 C8.07 17.12, 7.56 17.08, 7.08 16.99 C6.59 16.91, 6.1 16.78, 5.63 16.61 C5.17 16.44, 4.71 16.22, 4.28 15.98 C3.85 15.73, 3.44 15.44, 3.06 15.12 C2.68 14.8, 2.32 14.44, 2 14.07 C1.68 13.69, 1.39 13.27, 1.15 12.84 C0.9 12.41, 0.69 11.96, 0.52 11.49 C0.35 11.02, 0.22 10.54, 0.13 10.05 C0.04 9.56, 0 9.06, 0 8.56 C0 8.07, 0.04 7.56, 0.13 7.08 C0.22 6.59, 0.35 6.1, 0.52 5.63 C0.69 5.17, 0.9 4.71, 1.15 4.28 C1.39 3.85, 1.68 3.44, 2 3.06 C2.32 2.68, 2.68 2.32, 3.06 2 C3.44 1.68, 3.85 1.39, 4.28 1.15 C4.71 0.9, 5.17 0.69, 5.63 0.52 C6.1 0.35, 6.59 0.22, 7.08 0.13 C7.56 0.04, 8.07 0, 8.56 0 C9.06 0, 9.56 0.04, 10.05 0.13 C10.54 0.22, 11.02 0.35, 11.49 0.52 C11.96 0.69, 12.41 0.9, 12.84 1.15 C13.27 1.39, 13.69 1.68, 14.07 2 C14.44 2.32, 14.8 2.68, 15.12 3.06 C15.44 3.44, 15.73 3.85, 15.98 4.28 C16.22 4.71, 16.44 5.17, 16.61 5.63 C16.78 6.1, 16.91 6.59, 16.99 7.08 C17.08 7.56, 17.1 8.31, 17.12 8.56 C17.15 8.81, 17.15 8.31, 17.12 8.56" stroke="transparent" stroke-width="1" fill="none"></path></g><g stroke-linecap="round"><g transform="translate(672.5025625705032 150.95663870221597) rotate(0 17.72867713264941 5.901376453369949)" fill-rule="evenodd"><path d="M-0.19 0.48 L3.86 -5.11 L0.55 -8.8 L6.39 -13.18 L10.49 -11.61 L15.6 -12.1 L17.6 -17.39 L23.82 -16.92 L24.48 -12.07 L28.42 -8.98 L34.35 -11.39 L36.79 -6.39 L35.07 -3.18 L37.43 3.99 L41.18 5.62 L40.57 11.04 L35.47 11.87 L32.39 16.99 L34.29 21.6 L30 25.71 L25.87 23.63 L21.14 24.89 L18.14 28.06 L12 27.47 L12.3 23.79 L5.62 21.29 L2.39 23.03 L-0.65 17.57 L1.33 14.05 L-0.43 8.17 L-5.62 5.77 L-5.02 1.34 L0.12 0.58" stroke="none" stroke-width="0" fill="#e1effc" fill-rule="evenodd"></path><path d="M0 0 C1.18 -2.06, 2.67 -3.98, 3.09 -5.03 M0 0 C0.8 -1.27, 1.63 -2.61, 3.09 -5.03 M3.09 -5.03 C2.38 -6.78, 1.53 -8.36, 1.29 -9.3 M3.09 -5.03 C2.66 -5.93, 2.23 -6.86, 1.29 -9.3 M1.29 -9.3 C2.97 -10.85, 4.79 -12.07, 6.9 -13.34 M1.29 -9.3 C2.95 -10.47, 4.53 -11.51, 6.9 -13.34 M6.9 -13.34 C7.77 -12.74, 8.77 -11.91, 10.32 -10.9 M6.9 -13.34 C7.91 -12.67, 8.92 -11.87, 10.32 -10.9 M10.32 -10.9 C11.72 -11.49, 12.89 -11.7, 15.77 -12.53 M10.32 -10.9 C12.27 -11.4, 14.36 -12.09, 15.77 -12.53 M15.77 -12.53 C16.21 -14.23, 16.87 -15.85, 17.25 -17.02 M15.77 -12.53 C16.15 -13.79, 16.53 -15.21, 17.25 -17.02 M17.25 -17.02 C19.24 -16.92, 21.5 -16.53, 23.07 -16.38 M17.25 -17.02 C19.23 -16.8, 21.48 -16.66, 23.07 -16.38 M23.07 -16.38 C23.42 -14.83, 23.46 -13.29, 23.75 -12.38 M23.07 -16.38 C23.33 -15.19, 23.38 -14.03, 23.75 -12.38 M23.75 -12.38 C25.04 -11.44, 26.93 -10.71, 29.03 -9.2 M23.75 -12.38 C25.52 -11.37, 27.57 -10.06, 29.03 -9.2 M29.03 -9.2 C30.9 -9.86, 32.66 -10.5, 33.9 -10.83 M29.03 -9.2 C30.73 -9.77, 32.28 -10.34, 33.9 -10.83 M33.9 -10.83 C34.77 -9.68, 35.24 -9.12, 37.42 -6.5 M33.9 -10.83 C34.65 -9.83, 35.5 -8.99, 37.42 -6.5 M37.42 -6.5 C36.42 -4.94, 35.56 -3.52, 34.92 -2.57 M37.42 -6.5 C36.5 -4.99, 35.6 -3.44, 34.92 -2.57 M34.92 -2.57 C35.29 -0.31, 36.2 1.42, 36.61 3.25 M34.92 -2.57 C35.42 -0.69, 35.91 1.03, 36.61 3.25 M36.61 3.25 C37.54 3.78, 38.57 4.29, 40.87 5.35 M36.61 3.25 C38.01 3.94, 39.19 4.57, 40.87 5.35 M40.87 5.35 C40.56 6.59, 40.5 7.98, 40.13 11.23 M40.87 5.35 C40.52 7.18, 40.4 8.98, 40.13 11.23 M40.13 11.23 C38.9 11.52, 38.15 11.56, 35.86 12.04 M40.13 11.23 C38.81 11.48, 37.39 11.83, 35.86 12.04 M35.86 12.04 C34.45 14.29, 33.59 16.49, 32.68 17.73 M35.86 12.04 C35.17 13.32, 34.49 14.47, 32.68 17.73 M32.68 17.73 C33.31 18.78, 33.82 19.88, 34.44 21.52 M32.68 17.73 C33.2 18.91, 33.67 20.1, 34.44 21.52 M34.44 21.52 C32.68 22.73, 31.4 24.38, 30.04 25.31 M34.44 21.52 C32.87 22.84, 31.26 24.32, 30.04 25.31 M30.04 25.31 C28.94 24.52, 27.78 24.05, 26.46 22.87 M30.04 25.31 C28.87 24.54, 27.83 23.84, 26.46 22.87 M26.46 22.87 C25.04 23.16, 23.37 23.85, 20.44 24.36 M26.46 22.87 C24.07 23.57, 21.57 24.08, 20.44 24.36 M20.44 24.36 C20.13 25.06, 19.77 26.29, 18.34 28.83 M20.44 24.36 C19.77 25.52, 19.25 26.9, 18.34 28.83 M18.34 28.83 C16.52 28.5, 14.2 28.1, 12.32 27.88 M18.34 28.83 C16.84 28.56, 15.23 28.37, 12.32 27.88 M12.32 27.88 C12.16 26.14, 11.69 24.78, 11.57 23.28 M12.32 27.88 C12.02 26.58, 11.83 25.35, 11.57 23.28 M11.57 23.28 C10.07 22.86, 8.72 22.2, 6.23 21.11 M11.57 23.28 C10.22 22.86, 8.94 22.26, 6.23 21.11 M6.23 21.11 C5.43 21.46, 4.45 21.73, 2.3 22.4 M6.23 21.11 C4.98 21.53, 3.86 21.85, 2.3 22.4 M2.3 22.4 C1.25 21.04, 0.1 19.92, -1.22 18.34 M2.3 22.4 C1.11 21.18, 0 19.74, -1.22 18.34 M-1.22 18.34 C-0.81 17, 0.02 15.91, 0.74 14.14 M-1.22 18.34 C-0.77 17.17, -0.22 16.12, 0.74 14.14 M0.74 14.14 C0.25 12.72, -0.27 11.11, -0.88 8.53 M0.74 14.14 C0.34 12.88, 0.07 11.61, -0.88 8.53 M-0.88 8.53 C-2.03 7.64, -3.41 6.96, -5.41 6.09 M-0.88 8.53 C-2.5 7.59, -4.21 6.83, -5.41 6.09 M-5.41 6.09 C-5.29 5.1, -5.15 3.86, -4.47 1.02 M-5.41 6.09 C-5.12 4.14, -4.71 2, -4.47 1.02 M-4.47 1.02 C-2.65 0.79, -0.91 0.33, 0 0 M-4.47 1.02 C-2.91 0.56, -1.12 0.32, 0 0 M0 0 C0 0, 0 0, 0 0 M0 0 C0 0, 0 0, 0 0" stroke="#aaa" stroke-width="1" fill="none"></path></g></g><mask></mask><g stroke-linecap="round" transform="translate(677.7050750800151 144.0930052957424) rotate(0 12.594257452547708 12.594257452547708)"><path d="M25.19 12.59 C25.19 13.32, 25.12 14.06, 25 14.78 C24.87 15.5, 24.68 16.22, 24.43 16.9 C24.18 17.59, 23.87 18.26, 23.5 18.89 C23.14 19.52, 22.71 20.13, 22.24 20.69 C21.77 21.25, 21.25 21.77, 20.69 22.24 C20.13 22.71, 19.52 23.14, 18.89 23.5 C18.26 23.87, 17.59 24.18, 16.9 24.43 C16.22 24.68, 15.5 24.87, 14.78 25 C14.06 25.12, 13.32 25.19, 12.59 25.19 C11.87 25.19, 11.13 25.12, 10.41 25 C9.69 24.87, 8.97 24.68, 8.29 24.43 C7.6 24.18, 6.93 23.87, 6.3 23.5 C5.67 23.14, 5.06 22.71, 4.5 22.24 C3.94 21.77, 3.42 21.25, 2.95 20.69 C2.48 20.13, 2.05 19.52, 1.69 18.89 C1.32 18.26, 1.01 17.59, 0.76 16.9 C0.51 16.22, 0.32 15.5, 0.19 14.78 C0.06 14.06, 0 13.32, 0 12.59 C0 11.87, 0.06 11.13, 0.19 10.41 C0.32 9.69, 0.51 8.97, 0.76 8.29 C1.01 7.6, 1.32 6.93, 1.69 6.3 C2.05 5.67, 2.48 5.06, 2.95 4.5 C3.42 3.94, 3.94 3.42, 4.5 2.95 C5.06 2.48, 5.67 2.05, 6.3 1.69 C6.93 1.32, 7.6 1.01, 8.29 0.76 C8.97 0.51, 9.69 0.32, 10.41 0.19 C11.13 0.06, 11.87 0, 12.59 0 C13.32 0, 14.06 0.06, 14.78 0.19 C15.5 0.32, 16.22 0.51, 16.9 0.76 C17.59 1.01, 18.26 1.32, 18.89 1.69 C19.52 2.05, 20.13 2.48, 20.69 2.95 C21.25 3.42, 21.77 3.94, 22.24 4.5 C22.71 5.06, 23.14 5.67, 23.5 6.3 C23.87 6.93, 24.18 7.6, 24.43 8.29 C24.68 8.97, 24.87 9.69, 25 10.41 C25.12 11.13, 25.16 12.23, 25.19 12.59 C25.22 12.96, 25.22 12.23, 25.19 12.59" stroke="none" stroke-width="0" fill="#c9d5e1"></path><path d="M25.19 12.59 C25.19 13.32, 25.12 14.06, 25 14.78 C24.87 15.5, 24.68 16.22, 24.43 16.9 C24.18 17.59, 23.87 18.26, 23.5 18.89 C23.14 19.52, 22.71 20.13, 22.24 20.69 C21.77 21.25, 21.25 21.77, 20.69 22.24 C20.13 22.71, 19.52 23.14, 18.89 23.5 C18.26 23.87, 17.59 24.18, 16.9 24.43 C16.22 24.68, 15.5 24.87, 14.78 25 C14.06 25.12, 13.32 25.19, 12.59 25.19 C11.87 25.19, 11.13 25.12, 10.41 25 C9.69 24.87, 8.97 24.68, 8.29 24.43 C7.6 24.18, 6.93 23.87, 6.3 23.5 C5.67 23.14, 5.06 22.71, 4.5 22.24 C3.94 21.77, 3.42 21.25, 2.95 20.69 C2.48 20.13, 2.05 19.52, 1.69 18.89 C1.32 18.26, 1.01 17.59, 0.76 16.9 C0.51 16.22, 0.32 15.5, 0.19 14.78 C0.06 14.06, 0 13.32, 0 12.59 C0 11.87, 0.06 11.13, 0.19 10.41 C0.32 9.69, 0.51 8.97, 0.76 8.29 C1.01 7.6, 1.32 6.93, 1.69 6.3 C2.05 5.67, 2.48 5.06, 2.95 4.5 C3.42 3.94, 3.94 3.42, 4.5 2.95 C5.06 2.48, 5.67 2.05, 6.3 1.69 C6.93 1.32, 7.6 1.01, 8.29 0.76 C8.97 0.51, 9.69 0.32, 10.41 0.19 C11.13 0.06, 11.87 0, 12.59 0 C13.32 0, 14.06 0.06, 14.78 0.19 C15.5 0.32, 16.22 0.51, 16.9 0.76 C17.59 1.01, 18.26 1.32, 18.89 1.69 C19.52 2.05, 20.13 2.48, 20.69 2.95 C21.25 3.42, 21.77 3.94, 22.24 4.5 C22.71 5.06, 23.14 5.67, 23.5 6.3 C23.87 6.93, 24.18 7.6, 24.43 8.29 C24.68 8.97, 24.87 9.69, 25 10.41 C25.12 11.13, 25.16 12.23, 25.19 12.59 C25.22 12.96, 25.22 12.23, 25.19 12.59" stroke="transparent" stroke-width="1" fill="none"></path></g><g stroke-linecap="round"><g transform="translate(689.1364941605464 202.90125911739415) rotate(0 51.260439347489296 16.12049691069501)" fill-rule="evenodd"><path d="M0.4 0.79 L16.45 7.48 L16.65 14.52 L13.86 19.94 L-5.8 16.6 L-4.07 23.37 L5.83 31.81 L22.54 30.69 L28.78 22.59 L103.84 38.92 L107.72 29.37 L30.87 12.26 L27.16 0.4 L12.14 -6.92 L-0.22 0.55" stroke="none" stroke-width="0" fill="#ced4da" fill-rule="evenodd"></path><path d="M0 0 C4.43 2.55, 8.81 4.04, 16.88 7.36 M0 0 C6.05 2.83, 11.57 4.94, 16.88 7.36 M16.88 7.36 C16.7 8.9, 17.05 10.32, 17.24 14.01 M16.88 7.36 C17.03 9.67, 16.97 11.67, 17.24 14.01 M17.24 14.01 C16.35 15.28, 15.4 16.95, 13.7 20.1 M17.24 14.01 C16.29 15.53, 15.4 17.12, 13.7 20.1 M13.7 20.1 C8.39 19.57, 2.83 17.3, -5.15 15.86 M13.7 20.1 C9.64 19.48, 6.08 18.52, -5.15 15.86 M-5.15 15.86 C-4.86 17.78, -4.88 19, -4.89 23.55 M-5.15 15.86 C-4.93 19, -4.84 21.87, -4.89 23.55 M-4.89 23.55 C-1.72 26.52, 1.11 28.32, 6.53 32.31 M-4.89 23.55 C-0.99 26.74, 2.77 29.29, 6.53 32.31 M6.53 32.31 C10.97 31.35, 14.84 30.64, 22.46 29.93 M6.53 32.31 C11.68 31.62, 16.24 31.08, 22.46 29.93 M22.46 29.93 C24.17 28.24, 25.87 26.58, 28.83 23.29 M22.46 29.93 C24.74 27.33, 27.12 24.97, 28.83 23.29 M28.83 23.29 C53.74 28.35, 78.46 33.51, 103.96 39.75 M28.83 23.29 C46.8 26.77, 63.63 30.62, 103.96 39.75 M103.96 39.75 C105.19 36.42, 105.97 34.23, 107.67 29.13 M103.96 39.75 C104.72 37.1, 105.96 34.21, 107.67 29.13 M107.67 29.13 C77.11 22.58, 48.11 16.08, 30.69 12.67 M107.67 29.13 C79.92 22.77, 51.78 17.05, 30.69 12.67 M30.69 12.67 C30.04 8.61, 28.05 5.34, 27.23 0.46 M30.69 12.67 C29.63 8.5, 28.31 4.39, 27.23 0.46 M27.23 0.46 C21 -2.34, 15.28 -5.94, 11.31 -7.51 M27.23 0.46 C20.61 -2.4, 14.28 -5.73, 11.31 -7.51 M11.31 -7.51 C7.55 -4.71, 4.08 -1.86, 0 0 M11.31 -7.51 C6.99 -4.48, 3.1 -2.28, 0 0 M0 0 C0 0, 0 0, 0 0 M0 0 C0 0, 0 0, 0 0" stroke="#495057" stroke-width="2" fill="none"></path></g></g><mask></mask><g transform="translate(643.5726033343731 259.95594206478563) rotate(0 60.24166488647461 12.97419435813049)"><text x="60.24166488647461" y="0" font-family="Virgil, Segoe UI Emoji" font-size="20.75871097300891px" fill="#000000" text-anchor="middle" style="white-space: pre;" direction="ltr" dominant-baseline="text-before-edge">checkpointer</text></g><g stroke-linecap="round"><g transform="translate(461.8479716165027 185.33610142914904) rotate(0 13.902165338523446 14.816472637669676)"><path d="M0.08 -0.11 C0.25 1.5, -2.97 7.74, 1.21 9.69 C5.39 11.65, 20.52 8.27, 25.15 11.61 C29.78 14.95, 28.33 26.76, 28.98 29.75 M-0.19 0.38 C-0.06 2.04, -3.3 8.11, 1 10.01 C5.31 11.91, 20.96 8.56, 25.63 11.77 C30.3 14.98, 28.51 26.31, 29.04 29.28" stroke="#343a40" stroke-width="2" fill="none"></path></g><g transform="translate(461.8479716165027 185.33610142914904) rotate(0 13.902165338523446 14.816472637669676)"><path d="M25.77 20.82 C26.83 23.8, 28.08 26.59, 29.04 29.28 M25.77 20.82 C26.52 22.57, 27.14 24.44, 29.04 29.28" stroke="#343a40" stroke-width="2" fill="none"></path></g><g transform="translate(461.8479716165027 185.33610142914904) rotate(0 13.902165338523446 14.816472637669676)"><path d="M31.97 20.7 C30.84 23.73, 29.89 26.56, 29.04 29.28 M31.97 20.7 C31.41 22.48, 30.71 24.38, 29.04 29.28" stroke="#343a40" stroke-width="2" fill="none"></path></g></g><mask></mask><g stroke-linecap="round"><g transform="translate(539.1933764965715 184.54383255997982) rotate(0 -13.581593151552738 15.505544065082859)"><path d="M-0.01 -0.01 C-0.2 1.84, 3.1 8.75, -1.06 11 C-5.22 13.25, -20.41 10.15, -24.97 13.49 C-29.53 16.83, -27.82 28.1, -28.43 31.05 M-0.32 -0.23 C-0.45 1.66, 3.51 8.99, -0.62 11.21 C-4.76 13.43, -20.5 9.73, -25.12 13.07 C-29.73 16.41, -27.81 28.19, -28.32 31.24" stroke="#343a40" stroke-width="2" fill="none"></path></g><g transform="translate(539.1933764965715 184.54383255997982) rotate(0 -13.581593151552738 15.505544065082859)"><path d="M-31.34 22.69 C-30.36 25.3, -29.55 28.35, -28.32 31.24 M-31.34 22.69 C-30.29 25.75, -29.25 28.64, -28.32 31.24" stroke="#343a40" stroke-width="2" fill="none"></path></g><g transform="translate(539.1933764965715 184.54383255997982) rotate(0 -13.581593151552738 15.505544065082859)"><path d="M-25.14 22.75 C-26.2 25.34, -27.44 28.37, -28.32 31.24 M-25.14 22.75 C-26.27 25.78, -27.41 28.65, -28.32 31.24" stroke="#343a40" stroke-width="2" fill="none"></path></g></g><mask></mask><g stroke-linecap="round"><g transform="translate(451.2045176110596 145.65639323375535) rotate(0 15.389022601001898 12.25250923046815)" fill-rule="evenodd"><path d="M0.3 -0.34 L0.35 33.88 L30.51 34.34 L30.73 -9.09 L8.81 -9.26 L0.41 -0.5" stroke="none" stroke-width="0" fill="#fff" fill-rule="evenodd"></path><path d="M0 0 C-0.5 10.08, 0.17 20.32, -0.16 34.05 M0 0 C-0.17 8.91, -0.36 18.2, -0.16 34.05 M-0.16 34.05 C10.51 34.05, 20.79 33.87, 30.55 33.89 M-0.16 34.05 C6.15 34.06, 12.62 34.15, 30.55 33.89 M30.55 33.89 C30.92 16.94, 30.69 1.21, 31.03 -9.39 M30.55 33.89 C30.83 19.8, 30.8 6.26, 31.03 -9.39 M31.03 -9.39 C24.74 -9.26, 17.8 -9.1, 8.75 -9.55 M31.03 -9.39 C23.13 -9.29, 14.8 -9.66, 8.75 -9.55 M8.75 -9.55 C6.12 -6.61, 3.41 -3.66, 0 0 M8.75 -9.55 C6.36 -7.14, 4.16 -4.49, 0 0 M0 0 C0 0, 0 0, 0 0 M0 0 C0 0, 0 0, 0 0" stroke="#000000" stroke-width="1" fill="none"></path></g></g><mask></mask><g stroke-linecap="round"><g transform="translate(449.7148218229918 146.76140014369275) rotate(0 15.417004883631876 12.266024700391426)" fill-rule="evenodd"><path d="M0.51 -0.17 L-0.2 34.49 L30.25 34.19 L31.09 -9.1 L9.16 -10.05 L0.06 -0.48" stroke="none" stroke-width="0" fill="#fff" fill-rule="evenodd"></path><path d="M0 0 C0.16 7.1, -0.31 13.59, -0.16 34.05 M0 0 C-0.35 11.7, -0.04 23.33, -0.16 34.05 M-0.16 34.05 C12 33.97, 23.65 33.69, 30.55 33.89 M-0.16 34.05 C10.33 34.17, 21.01 33.89, 30.55 33.89 M30.55 33.89 C30.44 19.27, 30.95 3.8, 31.03 -9.39 M30.55 33.89 C30.63 18.2, 30.8 2.25, 31.03 -9.39 M31.03 -9.39 C24.23 -9.02, 18.66 -9.03, 8.75 -9.55 M31.03 -9.39 C22.37 -9.63, 14.11 -9.43, 8.75 -9.55 M8.75 -9.55 C5.5 -5.96, 1.95 -2.52, 0 0 M8.75 -9.55 C5.58 -6.06, 2.1 -2.47, 0 0 M0 0 C0 0, 0 0, 0 0 M0 0 C0 0, 0 0, 0 0" stroke="#000000" stroke-width="1" fill="none"></path></g></g><mask></mask><g stroke-linecap="round"><g transform="translate(448.24254981689955 147.86640705363152) rotate(0 15.447105884005168 12.25090681018969)" fill-rule="evenodd"><path d="M-0.04 0.45 L-0.45 34.35 L30.61 34.18 L31.44 -9.89 L8.81 -10.02 L0.07 -0.5" stroke="none" stroke-width="0" fill="#fff" fill-rule="evenodd"></path><path d="M0 0 C-0.18 10.4, 0.16 20.81, -0.16 34.05 M0 0 C-0.02 8.14, 0.08 16.26, -0.16 34.05 M-0.16 34.05 C9.37 33.78, 20.06 33.8, 30.55 33.89 M-0.16 34.05 C10.21 33.91, 20.28 33.97, 30.55 33.89 M30.55 33.89 C30.81 24.1, 31.15 14.41, 31.03 -9.39 M30.55 33.89 C30.63 24.37, 30.73 14.9, 31.03 -9.39 M31.03 -9.39 C23.86 -8.97, 16.48 -9.2, 8.75 -9.55 M31.03 -9.39 C23.4 -9.43, 15.94 -9.48, 8.75 -9.55 M8.75 -9.55 C6.15 -7.1, 4.01 -4.16, 0 0 M8.75 -9.55 C6.92 -7.69, 5.27 -5.61, 0 0 M0 0 C0 0, 0 0, 0 0 M0 0 C0 0, 0 0, 0 0" stroke="#000000" stroke-width="1" fill="none"></path></g></g><mask></mask><g stroke-linecap="round"><g transform="translate(457.47050559600325 139.43396470375956) rotate(0 -4.0571184890887935 4.139323000729519)"><path d="M0 0 C-0.06 2.81, -0.31 5.61, -0.32 8.27 M0 0 C-0.03 2.71, -0.18 5.37, -0.32 8.27 M-0.32 8.27 C-2.61 8.23, -4.97 8.27, -8.11 8.27 M-0.32 8.27 C-3.23 8.29, -6.24 8.24, -8.11 8.27" stroke="#000000" stroke-width="1" fill="none"></path></g></g><mask></mask><g stroke-linecap="round" transform="translate(456.99319753846316 150.09384465548374) rotate(0 7.955134292330968 1.6705782013893895)"><path d="M-0.25 0.22 L15.85 -0.3 L16.11 3.22 L-0.16 3.23" stroke="none" stroke-width="0" fill="#868e9644"></path><path d="M0 0 C4.26 -0.23, 8.88 0.11, 15.91 0 M0 0 C5.17 0, 10.29 -0.12, 15.91 0 M15.91 0 C15.93 0.87, 15.95 1.77, 15.91 3.34 M15.91 0 C15.89 0.96, 15.94 1.95, 15.91 3.34 M15.91 3.34 C10.63 3.33, 5.84 3.32, 0 3.34 M15.91 3.34 C11.18 3.24, 6.45 3.42, 0 3.34 M0 3.34 C0.02 2.02, -0.04 0.78, 0 0 M0 3.34 C-0.01 2.27, -0.01 1.19, 0 0" stroke="transparent" stroke-width="1" fill="none"></path></g><g stroke-linecap="round" transform="translate(457.0771048268839 156.72252044051174) rotate(0 7.955134292330968 1.6705782013893895)"><path d="M-0.06 -0.3 L16.11 -0.12 L15.75 3.23 L0.05 3.52" stroke="none" stroke-width="0" fill="#868e9644"></path><path d="M0 0 C4.15 0.12, 8.23 0.25, 15.91 0 M0 0 C5.41 -0.11, 10.76 0.05, 15.91 0 M15.91 0 C15.95 0.95, 15.91 1.84, 15.91 3.34 M15.91 0 C15.93 1.13, 15.91 2.26, 15.91 3.34 M15.91 3.34 C10.33 3.31, 4.5 3.3, 0 3.34 M15.91 3.34 C10.92 3.39, 5.84 3.42, 0 3.34 M0 3.34 C-0.04 2.18, 0.01 1.05, 0 0 M0 3.34 C0 2.24, -0.02 1.18, 0 0" stroke="transparent" stroke-width="1" fill="none"></path></g><g stroke-linecap="round" transform="translate(456.99319753846316 162.23007798941626) rotate(0 7.955134292330968 1.6705782013893895)"><path d="M0.2 -0.12 L15.75 -0.11 L15.96 3.52 L0.22 3.56" stroke="none" stroke-width="0" fill="#868e9644"></path><path d="M0 0 C3.24 0.22, 6.46 0.05, 15.91 0 M0 0 C4.79 0.07, 9.64 0.06, 15.91 0 M15.91 0 C15.91 1.04, 15.93 2, 15.91 3.34 M15.91 0 C15.92 0.87, 15.93 1.68, 15.91 3.34 M15.91 3.34 C11.31 3.3, 6.76 3.42, 0 3.34 M15.91 3.34 C12.66 3.45, 9.28 3.41, 0 3.34 M0 3.34 C0.01 2.62, 0.02 1.81, 0 0 M0 3.34 C-0.02 2.27, 0 1.13, 0 0" stroke="transparent" stroke-width="1" fill="none"></path></g><g stroke-linecap="round" transform="translate(456.99319753846316 167.4152452421663) rotate(0 7.955134292330968 1.6705782013893895)"><path d="M-0.16 -0.11 L15.96 0.18 L16.13 3.56 L0.2 3.14" stroke="none" stroke-width="0" fill="#868e9644"></path><path d="M0 0 C5.52 0.04, 10.85 -0.02, 15.91 0 M0 0 C3.27 0.03, 6.62 0.08, 15.91 0 M15.91 0 C15.93 1.24, 15.89 2.61, 15.91 3.34 M15.91 0 C15.93 1.05, 15.91 2.16, 15.91 3.34 M15.91 3.34 C11.4 3.42, 6.58 3.52, 0 3.34 M15.91 3.34 C10.24 3.41, 4.37 3.27, 0 3.34 M0 3.34 C0.01 2.3, 0.01 1.26, 0 0 M0 3.34 C0 2.42, 0.02 1.54, 0 0" stroke="transparent" stroke-width="1" fill="none"></path></g><g stroke-linecap="round" transform="translate(456.99319753846316 172.75291741411684) rotate(0 7.955134292330968 1.6705782013893895)"><path d="M0.05 0.18 L16.13 0.22 L16.11 3.14 L0.21 3.12" stroke="none" stroke-width="0" fill="#868e9644"></path><path d="M0 0 C6.3 0, 12.36 -0.1, 15.91 0 M0 0 C5.44 0.08, 10.96 -0.02, 15.91 0 M15.91 0 C15.89 1.21, 15.92 2.34, 15.91 3.34 M15.91 0 C15.91 1.23, 15.91 2.44, 15.91 3.34 M15.91 3.34 C11.17 3.53, 7 3.55, 0 3.34 M15.91 3.34 C9.77 3.26, 3.82 3.38, 0 3.34 M0 3.34 C0.01 2.05, -0.02 0.74, 0 0 M0 3.34 C0.02 2.08, -0.01 0.83, 0 0" stroke="transparent" stroke-width="1" fill="none"></path></g><g transform="translate(456.8138141277416 141.1452399533964) rotate(0 7.4516718564175335 17.92570013012255)" stroke="none"><path fill="#364fc711" d="M -0.13,-2.50 Q -0.13,-2.50 1.48,-2.55 3.10,-2.61 4.43,-2.74 5.76,-2.88 7.04,-3.06 8.33,-3.24 9.62,-3.42 10.91,-3.60 12.10,-3.71 13.30,-3.82 14.63,-4.02 15.97,-4.21 16.28,-4.24 16.60,-4.28 16.94,-4.26 17.28,-4.25 17.60,-4.16 17.93,-4.07 18.22,-3.90 18.51,-3.73 18.76,-3.50 19.00,-3.26 19.18,-2.98 19.36,-2.70 19.47,-2.38 19.58,-2.06 19.61,-1.72 19.64,-1.38 19.59,-1.05 19.53,-0.71 19.40,-0.40 19.27,-0.09 19.07,0.17 18.87,0.44 18.61,0.65 18.34,0.87 18.04,1.02 17.74,1.16 17.40,1.23 17.07,1.30 15.46,2.07 13.85,2.83 12.42,3.13 10.98,3.42 9.21,3.66 7.43,3.91 5.54,4.08 3.65,4.26 1.86,4.45 0.06,4.64 -1.47,4.87 -3.00,5.09 -4.26,5.57 -5.52,6.04 -5.83,6.08 -6.14,6.12 -6.46,6.09 -6.77,6.06 -7.06,5.95 -7.36,5.84 -7.62,5.66 -7.88,5.49 -8.09,5.26 -8.30,5.03 -8.45,4.75 -8.60,4.47 -8.67,4.17 -8.75,3.87 -8.76,3.55 -8.76,3.24 -8.69,2.93 -8.62,2.63 -8.47,2.35 -8.33,2.07 -8.13,1.83 -7.92,1.60 -7.66,1.42 -7.41,1.23 -7.12,1.12 -6.83,1.01 -5.22,1.07 -3.62,1.14 -1.36,1.32 0.90,1.50 2.93,1.70 4.95,1.91 7.21,2.07 9.47,2.23 11.72,2.35 13.97,2.46 15.20,2.39 16.42,2.32 18.00,2.18 19.58,2.05 21.27,2.55 22.95,3.05 23.38,4.08 23.82,5.11 23.34,6.49 22.86,7.87 21.84,8.50 20.81,9.12 19.39,9.46 17.97,9.81 15.25,10.20 12.53,10.59 11.10,10.83 9.66,11.08 8.54,11.36 7.43,11.64 6.00,12.13 4.57,12.63 3.52,13.04 2.47,13.45 1.46,13.81 0.44,14.17 -0.60,14.43 -1.65,14.70 -1.78,12.09 -1.91,9.48 -0.15,9.70 1.60,9.93 2.77,10.16 3.94,10.40 5.18,10.61 6.42,10.82 8.22,11.21 10.01,11.60 11.23,11.78 12.44,11.95 14.17,12.08 15.90,12.20 16.27,12.21 16.64,12.22 16.99,12.30 17.33,12.37 17.65,12.53 17.97,12.69 18.25,12.93 18.52,13.16 18.73,13.45 18.93,13.74 19.07,14.07 19.20,14.40 19.25,14.75 19.30,15.11 19.26,15.46 19.23,15.82 19.11,16.15 18.99,16.49 18.79,16.79 18.59,17.09 18.33,17.33 18.07,17.57 17.76,17.74 17.44,17.91 17.10,18.01 16.75,18.10 16.40,18.11 16.04,18.11 14.83,18.32 13.62,18.53 11.94,19.14 10.27,19.75 8.46,20.94 6.66,22.12 5.25,23.15 3.84,24.18 2.40,22.57 0.96,20.96 2.27,20.57 3.57,20.18 4.88,20.07 6.19,19.95 7.51,19.79 8.84,19.64 9.93,19.49 11.03,19.35 12.12,19.09 13.20,18.83 13.55,18.62 13.91,18.41 14.26,18.27 14.62,18.13 14.99,18.07 15.37,18.02 15.75,18.06 16.13,18.10 16.49,18.22 16.84,18.35 17.16,18.56 17.48,18.77 17.74,19.05 18.00,19.33 18.18,19.66 18.36,20.00 18.46,20.36 18.56,20.73 18.57,21.11 18.58,21.49 18.49,21.86 18.41,22.24 18.24,22.58 18.07,22.92 17.82,23.21 17.58,23.50 17.27,23.72 16.96,23.94 15.72,24.38 14.48,24.81 13.43,25.02 12.38,25.24 11.13,25.52 9.89,25.80 7.98,26.19 6.08,26.58 4.66,27.10 3.24,27.63 2.06,28.19 0.88,28.76 -0.66,29.81 -2.20,30.85 -3.08,31.56 -3.96,32.27 -4.04,32.38 -4.12,32.49 -4.42,32.67 -4.73,32.85 -5.06,32.95 -5.40,33.05 -5.75,33.07 -6.10,33.09 -6.45,33.03 -6.79,32.96 -7.11,32.82 -7.43,32.67 -7.71,32.45 -7.99,32.23 -8.20,31.95 -8.42,31.68 -8.56,31.35 -8.70,31.03 -8.76,30.69 -8.83,30.34 -8.80,29.99 -8.78,29.64 -8.67,29.30 -8.57,28.97 -8.38,28.67 -8.20,28.37 -7.95,28.12 -7.70,27.87 -6.50,27.57 -5.30,27.27 -3.80,27.16 -2.30,27.05 -0.63,26.98 1.02,26.92 2.73,26.90 4.43,26.87 5.76,26.91 7.10,26.95 8.97,26.94 10.84,26.93 12.57,26.91 14.30,26.90 14.74,26.87 15.18,26.85 15.56,26.89 15.94,26.94 16.30,27.07 16.65,27.21 16.97,27.43 17.28,27.64 17.53,27.93 17.79,28.21 17.96,28.55 18.14,28.89 18.23,29.26 18.32,29.63 18.32,30.01 18.32,30.39 18.23,30.76 18.14,31.13 17.96,31.47 17.79,31.81 17.53,32.09 17.28,32.38 16.97,32.59 16.65,32.81 16.30,32.95 15.94,33.08 15.56,33.13 15.18,33.17 13.38,33.27 11.58,33.38 10.36,33.54 9.14,33.71 7.95,33.94 6.76,34.18 5.71,34.49 4.66,34.80 2.97,35.49 1.28,36.17 0.03,36.82 -1.20,37.46 -1.89,37.90 -2.58,38.34 -2.94,38.45 -3.30,38.56 -3.68,38.58 -4.06,38.60 -4.43,38.53 -4.80,38.46 -5.15,38.30 -5.49,38.15 -5.79,37.91 -6.09,37.67 -6.32,37.37 -6.55,37.07 -6.71,36.73 -6.86,36.38 -6.93,36.01 -6.99,35.63 -6.97,35.25 -6.94,34.88 -6.83,34.51 -6.71,34.15 -6.51,33.83 -6.31,33.51 -6.05,33.24 -5.78,32.97 -5.45,32.78 -5.12,32.58 -3.94,32.55 -2.75,32.52 -0.98,32.55 0.77,32.57 2.26,32.82 3.74,33.07 5.32,33.26 6.90,33.44 8.06,33.59 9.22,33.73 10.43,33.71 11.64,33.70 13.26,33.75 14.88,33.81 16.08,33.91 17.27,34.01 16.24,34.58 15.21,35.15 14.97,34.00 14.73,32.85 14.74,31.46 14.75,30.06 14.65,28.60 14.55,27.14 14.49,25.96 14.43,24.77 14.48,23.15 14.53,21.53 12.60,21.42 10.66,21.31 9.34,21.20 8.01,21.09 6.75,21.03 5.50,20.97 3.56,20.96 1.62,20.95 0.14,20.97 -1.33,21.00 -2.47,21.04 -3.60,21.09 -2.72,20.13 -1.84,19.17 -1.31,19.57 -0.78,19.96 -0.59,20.47 -0.40,20.97 -0.38,21.51 -0.35,22.05 -0.50,22.56 -0.66,23.08 -0.96,23.52 -1.27,23.97 -1.70,24.29 -2.14,24.61 -2.65,24.77 -3.16,24.94 -3.70,24.93 -4.24,24.92 -4.75,24.74 -5.26,24.57 -5.68,24.23 -6.11,23.90 -6.40,23.45 -6.70,23.00 -6.84,22.48 -6.97,21.96 -6.94,21.42 -6.90,20.89 -6.70,20.39 -6.49,19.89 -6.14,19.48 -5.78,19.08 -5.32,18.81 -4.85,18.53 -4.32,18.43 -3.80,18.32 -3.26,18.38 -2.73,18.45 -2.24,18.68 -1.75,18.91 -1.37,19.29 -0.98,19.66 -0.74,20.14 -0.49,20.62 -0.41,21.15 -0.33,21.69 -0.42,22.22 -0.52,22.75 -0.78,23.22 -1.03,23.69 -1.43,24.06 -1.83,24.42 -2.32,24.64 -2.81,24.86 -3.35,24.92 -3.88,24.97 -4.41,24.84 -4.93,24.72 -5.39,24.44 -5.85,24.15 -6.19,23.74 -6.54,23.32 -6.54,23.32 -6.53,23.32 -6.64,19.95 -6.75,16.58 -4.49,15.59 -2.24,14.60 -1.07,14.64 0.10,14.67 1.78,14.69 3.46,14.71 4.52,14.71 5.59,14.72 6.90,14.70 8.22,14.68 9.69,14.66 11.17,14.64 12.77,14.70 14.36,14.76 16.14,15.09 17.92,15.42 19.39,16.43 20.86,17.44 21.46,19.03 22.06,20.62 21.77,21.83 21.48,23.03 21.47,24.15 21.47,25.27 21.57,26.49 21.67,27.72 21.69,28.89 21.71,30.06 21.72,31.48 21.73,32.89 21.68,34.30 21.63,35.72 21.27,37.25 20.91,38.77 19.82,39.53 18.73,40.29 17.22,40.41 15.72,40.54 14.31,40.42 12.91,40.31 11.75,40.28 10.60,40.26 9.47,40.23 8.34,40.20 7.07,39.88 5.81,39.56 4.37,39.33 2.93,39.10 1.61,38.98 0.29,38.85 -0.79,38.80 -1.87,38.74 -3.29,38.61 -4.71,38.48 -3.64,38.41 -2.57,38.34 -2.94,38.45 -3.30,38.56 -3.68,38.58 -4.06,38.60 -4.43,38.53 -4.80,38.46 -5.15,38.30 -5.49,38.15 -5.79,37.91 -6.09,37.67 -6.32,37.37 -6.55,37.07 -6.71,36.73 -6.86,36.38 -6.93,36.01 -6.99,35.63 -6.97,35.26 -6.94,34.88 -6.83,34.52 -6.71,34.15 -6.51,33.83 -6.32,33.51 -6.05,33.24 -5.78,32.97 -5.45,32.78 -5.12,32.58 -5.15,32.62 -5.18,32.65 -4.02,32.07 -2.85,31.50 -1.02,30.71 0.79,29.93 1.87,29.55 2.94,29.17 4.22,28.77 5.49,28.37 6.82,28.05 8.15,27.74 9.61,27.46 11.07,27.17 13.13,27.01 15.18,26.85 15.56,26.89 15.94,26.94 16.30,27.07 16.65,27.21 16.97,27.43 17.28,27.64 17.53,27.93 17.79,28.21 17.96,28.55 18.14,28.89 18.23,29.26 18.32,29.63 18.32,30.01 18.32,30.39 18.23,30.76 18.14,31.13 17.96,31.47 17.79,31.81 17.53,32.09 17.28,32.38 16.97,32.59 16.65,32.81 16.30,32.95 15.94,33.08 15.56,33.13 15.18,33.17 14.74,33.15 14.30,33.12 12.57,33.11 10.85,33.09 8.97,33.08 7.10,33.07 4.84,33.12 2.58,33.16 1.21,33.14 -0.15,33.13 -2.14,32.81 -4.12,32.49 -4.42,32.67 -4.73,32.85 -5.06,32.95 -5.40,33.05 -5.75,33.07 -6.10,33.09 -6.45,33.03 -6.79,32.96 -7.11,32.82 -7.43,32.67 -7.71,32.45 -7.99,32.23 -8.20,31.95 -8.42,31.68 -8.56,31.35 -8.70,31.03 -8.76,30.69 -8.83,30.34 -8.80,29.99 -8.78,29.64 -8.67,29.30 -8.57,28.97 -8.38,28.67 -8.20,28.37 -7.95,28.12 -7.70,27.87 -6.93,27.36 -6.16,26.85 -4.86,26.14 -3.57,25.42 -2.46,24.75 -1.36,24.08 -0.04,23.45 1.26,22.82 2.89,22.08 4.53,21.35 6.43,20.61 8.33,19.87 9.68,19.47 11.03,19.07 12.47,18.74 13.91,18.41 14.26,18.27 14.62,18.13 14.99,18.07 15.37,18.02 15.75,18.06 16.13,18.10 16.49,18.22 16.84,18.35 17.16,18.56 17.48,18.77 17.74,19.05 18.00,19.33 18.18,19.66 18.36,20.00 18.46,20.36 18.56,20.73 18.57,21.11 18.58,21.49 18.49,21.86 18.41,22.24 18.24,22.58 18.07,22.92 17.82,23.21 17.58,23.50 17.27,23.72 16.96,23.94 15.96,24.31 14.95,24.68 13.39,24.97 11.82,25.26 10.76,25.40 9.70,25.54 8.34,25.78 6.98,26.02 4.61,26.33 2.23,26.65 0.64,26.47 -0.93,26.29 -1.22,23.48 -1.50,20.67 -0.52,19.96 0.44,19.25 1.87,18.29 3.31,17.33 4.34,16.60 5.37,15.87 6.68,15.04 7.99,14.22 9.18,13.73 10.37,13.25 11.61,12.92 12.85,12.58 14.74,12.40 16.64,12.22 16.99,12.30 17.33,12.37 17.65,12.53 17.97,12.69 18.25,12.93 18.52,13.16 18.73,13.45 18.93,13.74 19.07,14.07 19.20,14.40 19.25,14.75 19.30,15.11 19.26,15.46 19.23,15.82 19.11,16.15 18.99,16.49 18.79,16.79 18.59,17.09 18.33,17.33 18.07,17.57 17.76,17.74 17.44,17.91 17.10,18.01 16.75,18.10 16.40,18.11 16.04,18.11 14.97,17.96 13.90,17.80 12.78,17.68 11.67,17.56 10.44,17.39 9.22,17.23 7.40,17.11 5.57,16.99 4.22,16.84 2.87,16.70 1.60,16.52 0.32,16.34 -0.82,16.13 -1.97,15.91 -3.33,15.28 -4.69,14.64 -4.46,11.69 -4.22,8.74 -3.01,8.51 -1.79,8.28 -0.63,8.09 0.52,7.89 1.80,7.59 3.08,7.28 4.66,6.90 6.24,6.52 7.46,6.25 8.68,5.99 10.21,5.67 11.74,5.34 14.21,4.91 16.68,4.47 17.80,4.47 18.93,4.47 19.25,5.58 19.58,6.70 17.99,6.55 16.41,6.41 15.18,6.33 13.95,6.26 11.69,6.35 9.43,6.45 7.13,6.56 4.83,6.68 2.77,6.78 0.71,6.88 -0.94,6.85 -2.59,6.82 -4.06,6.43 -5.52,6.04 -5.83,6.08 -6.14,6.12 -6.46,6.09 -6.77,6.06 -7.06,5.95 -7.36,5.84 -7.62,5.67 -7.88,5.49 -8.09,5.26 -8.30,5.03 -8.45,4.75 -8.60,4.47 -8.67,4.17 -8.75,3.87 -8.76,3.55 -8.76,3.24 -8.69,2.93 -8.62,2.63 -8.47,2.35 -8.33,2.07 -8.13,1.83 -7.92,1.60 -7.67,1.42 -7.41,1.23 -7.12,1.12 -6.83,1.01 -6.63,0.93 -6.44,0.84 -5.07,0.66 -3.69,0.47 -2.15,0.23 -0.61,0.00 1.16,-0.32 2.94,-0.65 4.68,-1.00 6.42,-1.34 8.09,-1.76 9.76,-2.18 11.83,-2.72 13.91,-3.26 15.25,-3.77 16.60,-4.28 16.94,-4.26 17.28,-4.25 17.60,-4.16 17.93,-4.07 18.22,-3.90 18.51,-3.73 18.76,-3.50 19.00,-3.27 19.18,-2.98 19.36,-2.70 19.47,-2.38 19.58,-2.06 19.61,-1.72 19.64,-1.38 19.59,-1.05 19.53,-0.71 19.40,-0.40 19.27,-0.09 19.07,0.17 18.87,0.44 18.61,0.65 18.34,0.87 18.04,1.02 17.74,1.16 17.40,1.23 17.07,1.30 16.17,1.29 15.26,1.28 13.40,1.33 11.54,1.38 10.26,1.53 8.97,1.67 7.59,1.84 6.21,2.01 4.79,2.13 3.37,2.25 1.75,2.37 0.13,2.50 -0.16,2.48 -0.46,2.46 -0.75,2.37 -1.03,2.28 -1.29,2.12 -1.55,1.96 -1.76,1.75 -1.98,1.53 -2.13,1.27 -2.29,1.01 -2.37,0.72 -2.46,0.43 -2.48,0.13 -2.50,-0.16 -2.44,-0.46 -2.38,-0.75 -2.26,-1.03 -2.13,-1.30 -1.95,-1.54 -1.76,-1.78 -1.52,-1.96 -1.28,-2.15 -1.00,-2.27 -0.73,-2.39 -0.43,-2.44 -0.13,-2.50 -0.13,-2.50 L -0.13,-2.50 Z"></path></g><g stroke-linecap="round"><g transform="translate(480.47728879203737 219.56371235784582) rotate(0 20.71699950255322 17.872441720513734)" fill-rule="evenodd"><path d="M-0.11 -0.07 L0.82 13.01 L16.24 19.47 L16.71 36.25 L24.04 35.54 L25.68 20.47 L41.21 12.11 L40.88 -0.8 L-0.5 0.43" stroke="none" stroke-width="0" fill="#ced4da" fill-rule="evenodd"></path><path d="M0 0 C0.44 3.83, 0.72 7.9, 1.05 13.1 M0 0 C0.52 5.01, 0.69 9.79, 1.05 13.1 M1.05 13.1 C7.24 15.99, 12.39 18.26, 15.97 19.75 M1.05 13.1 C6.25 15.48, 11.62 17.55, 15.97 19.75 M15.97 19.75 C16.7 26.09, 16.84 31.6, 16.81 36.01 M15.97 19.75 C16.36 23.41, 16.31 27.01, 16.81 36.01 M16.81 36.01 C18.99 35.89, 20.64 35.99, 23.96 35.69 M16.81 36.01 C18.69 36, 20.61 35.92, 23.96 35.69 M23.96 35.69 C24.19 30.05, 24.71 23.9, 25.47 19.91 M23.96 35.69 C24.62 30.83, 24.83 26.33, 25.47 19.91 M25.47 19.91 C29.62 18.45, 32.68 16.23, 41.4 12.22 M25.47 19.91 C28.77 18.59, 31.97 16.89, 41.4 12.22 M41.4 12.22 C41.03 9.54, 41.08 6.84, 41.4 -0.26 M41.4 12.22 C41.23 8.11, 41.53 4.16, 41.4 -0.26 M41.4 -0.26 C32.11 -0.03, 22.65 -0.12, 0 0 M41.4 -0.26 C27.98 -0.18, 14.33 -0.17, 0 0 M0 0 C0 0, 0 0, 0 0 M0 0 C0 0, 0 0, 0 0" stroke="#343a40" stroke-width="1" fill="none"></path></g></g><mask></mask><g transform="translate(499.7989633111006 266.31807671975594) rotate(0 7.299139353240548 -29.883008940096033)" stroke="none"><path fill="#343a4011" d="M -4.94,-17.70 Q -4.94,-17.70 -5.04,-18.92 -5.14,-20.13 -5.35,-22.28 -5.57,-24.43 -5.20,-26.56 -4.84,-28.69 -3.18,-31.11 -1.52,-33.53 1.33,-34.75 4.19,-35.97 6.26,-36.63 8.32,-37.29 6.29,-35.54 4.25,-33.79 5.42,-36.65 6.60,-39.50 7.77,-42.79 8.94,-46.07 9.73,-46.86 10.53,-47.65 11.54,-48.14 12.54,-48.64 13.66,-48.79 14.77,-48.93 15.87,-48.72 16.97,-48.50 17.95,-47.95 18.92,-47.39 19.67,-46.55 20.42,-45.71 20.86,-44.68 21.29,-43.65 21.38,-42.53 21.47,-41.41 21.19,-40.32 20.92,-39.23 20.31,-38.29 19.70,-37.34 18.82,-36.65 17.95,-35.95 16.89,-35.56 15.84,-35.18 14.71,-35.15 13.59,-35.13 12.52,-35.46 11.45,-35.80 10.54,-36.45 9.63,-37.11 8.98,-38.03 8.33,-38.94 8.00,-40.02 7.68,-41.09 7.71,-42.21 7.75,-43.33 8.14,-44.39 8.53,-45.44 9.24,-46.31 9.94,-47.18 10.89,-47.78 11.84,-48.38 12.93,-48.65 14.02,-48.92 15.14,-48.82 16.26,-48.73 17.29,-48.28 18.32,-47.83 19.15,-47.08 19.98,-46.32 20.53,-45.34 21.08,-44.36 21.28,-43.26 21.49,-42.16 21.34,-41.05 21.18,-39.93 20.68,-38.93 20.17,-37.93 20.17,-37.93 20.17,-37.93 19.83,-36.48 19.48,-35.04 18.21,-33.08 16.95,-31.12 15.91,-28.90 14.88,-26.69 12.52,-25.52 10.16,-24.35 7.87,-24.39 5.57,-24.43 5.35,-22.28 5.14,-20.13 5.04,-18.92 4.94,-17.70 4.87,-17.11 4.80,-16.52 4.59,-15.96 4.37,-15.41 4.04,-14.91 3.70,-14.42 3.25,-14.03 2.80,-13.63 2.28,-13.36 1.75,-13.08 1.17,-12.94 0.59,-12.79 -0.00,-12.79 -0.59,-12.79 -1.17,-12.94 -1.75,-13.08 -2.28,-13.36 -2.80,-13.63 -3.25,-14.03 -3.70,-14.42 -4.04,-14.92 -4.37,-15.41 -4.59,-15.96 -4.80,-16.52 -4.87,-17.11 -4.94,-17.70 -4.94,-17.70 L -4.94,-17.70 Z"></path></g><g stroke-linecap="round"><g transform="translate(522.2086711829654 146.23077719856065) rotate(0 15.43296052712219 12.284899104542774)" fill-rule="evenodd"><path d="M0 -0.44 L-0.19 34.14 L30.68 33.7 L30.57 -9.79 L9.16 -9.89 L-0.41 -0.38" stroke="none" stroke-width="0" fill="#fff" fill-rule="evenodd"></path><path d="M0 0 C0.38 9.67, -0.1 18.75, -0.16 34.05 M0 0 C0.12 11.47, -0.12 22.99, -0.16 34.05 M-0.16 34.05 C11.12 33.93, 21.87 33.86, 30.55 33.89 M-0.16 34.05 C9.85 34.22, 19.68 34.22, 30.55 33.89 M30.55 33.89 C30.26 18.85, 30.94 4.13, 31.03 -9.39 M30.55 33.89 C30.67 19.71, 30.66 5.89, 31.03 -9.39 M31.03 -9.39 C24.58 -9.66, 18.36 -9.34, 8.75 -9.55 M31.03 -9.39 C23.17 -9.58, 15.15 -9.65, 8.75 -9.55 M8.75 -9.55 C5.81 -6.16, 2.64 -2.82, 0 0 M8.75 -9.55 C6.32 -6.89, 4.1 -4.35, 0 0 M0 0 C0 0, 0 0, 0 0 M0 0 C0 0, 0 0, 0 0" stroke="#000000" stroke-width="1" fill="none"></path></g></g><mask></mask><g stroke-linecap="round"><g transform="translate(520.7189753948978 147.33578410849805) rotate(0 15.43296052712219 12.217063496673973)" fill-rule="evenodd"><path d="M-0.03 0.09 L-0.03 33.85 L30.09 33.49 L31.43 -9.74 L8.34 -9.92 L-0.17 -0.12" stroke="none" stroke-width="0" fill="#fff" fill-rule="evenodd"></path><path d="M0 0 C-0.02 10.64, 0.15 20.41, -0.16 34.05 M0 0 C0.09 8.84, 0.15 17.14, -0.16 34.05 M-0.16 34.05 C8.71 33.93, 17.68 34.15, 30.55 33.89 M-0.16 34.05 C6.52 34.17, 12.88 34.05, 30.55 33.89 M30.55 33.89 C30.85 24.46, 30.99 14.11, 31.03 -9.39 M30.55 33.89 C30.51 19.93, 30.83 5.33, 31.03 -9.39 M31.03 -9.39 C22.65 -9.38, 14.96 -9.15, 8.75 -9.55 M31.03 -9.39 C22.92 -9.68, 14.54 -9.76, 8.75 -9.55 M8.75 -9.55 C6.24 -6.7, 4.04 -4.55, 0 0 M8.75 -9.55 C5.37 -5.75, 2.1 -2.31, 0 0 M0 0 C0 0, 0 0, 0 0 M0 0 C0 0, 0 0, 0 0" stroke="#000000" stroke-width="1" fill="none"></path></g></g><mask></mask><g stroke-linecap="round"><g transform="translate(519.2467033888054 148.44079101843545) rotate(0 15.409210880465707 12.321404627748052)" fill-rule="evenodd"><path d="M0.13 -0.19 L-0.61 33.65 L30.95 33.54 L30.62 -9.76 L8.58 -9.67 L0.19 -0.39" stroke="none" stroke-width="0" fill="#fff" fill-rule="evenodd"></path><path d="M0 0 C0.11 12.67, -0.36 26.56, -0.16 34.05 M0 0 C0.12 10.72, -0.11 21.97, -0.16 34.05 M-0.16 34.05 C8.74 34.2, 16.98 34.36, 30.55 33.89 M-0.16 34.05 C11.02 34.04, 21.77 33.67, 30.55 33.89 M30.55 33.89 C30.8 20.37, 30.96 6.91, 31.03 -9.39 M30.55 33.89 C30.72 22.06, 31.07 10.64, 31.03 -9.39 M31.03 -9.39 C25.83 -9.03, 20.38 -9.11, 8.75 -9.55 M31.03 -9.39 C25.93 -9.68, 20.55 -9.5, 8.75 -9.55 M8.75 -9.55 C5.49 -6.13, 2.76 -2.88, 0 0 M8.75 -9.55 C5.75 -6.27, 2.5 -2.84, 0 0 M0 0 C0 0, 0 0, 0 0 M0 0 C0 0, 0 0, 0 0" stroke="#000000" stroke-width="1" fill="none"></path></g></g><mask></mask><g stroke-linecap="round"><g transform="translate(528.4746591679091 140.00834866856485) rotate(0 -4.0571184890887935 4.175994807691495)"><path d="M0 0 C-0.17 3.01, -0.19 5.8, -0.32 8.27 M0 0 C-0.12 3.06, -0.23 6.05, -0.32 8.27 M-0.32 8.27 C-2.65 8.37, -4.68 8.38, -8.11 8.27 M-0.32 8.27 C-3.33 8.23, -6.24 8.29, -8.11 8.27" stroke="#000000" stroke-width="1" fill="none"></path></g></g><mask></mask><g stroke-linecap="round" transform="translate(527.9973511103713 150.66822862028766) rotate(0 7.955134292330968 1.6705782013893895)"><path d="M-0.02 0.26 L15.74 0.18 L15.95 3.51 L0.24 3.05" stroke="none" stroke-width="0" fill="#868e9644"></path><path d="M0 0 C3.69 0.03, 7.43 0.12, 15.91 0 M0 0 C3.48 -0.01, 6.98 0.01, 15.91 0 M15.91 0 C15.94 1.16, 15.95 2.27, 15.91 3.34 M15.91 0 C15.91 1.15, 15.93 2.3, 15.91 3.34 M15.91 3.34 C11.29 3.14, 7 3.29, 0 3.34 M15.91 3.34 C12.64 3.29, 9.52 3.4, 0 3.34 M0 3.34 C-0.04 2.13, -0.04 0.86, 0 0 M0 3.34 C0.02 2.6, 0.03 1.88, 0 0" stroke="transparent" stroke-width="1" fill="none"></path></g><g stroke-linecap="round" transform="translate(528.0812583987897 157.29690440531567) rotate(0 7.955134292330968 1.6705782013893895)"><path d="M-0.17 0.18 L15.95 0.17 L16.15 3.05 L0.03 3.06" stroke="none" stroke-width="0" fill="#868e9644"></path><path d="M0 0 C6.41 0.14, 12.31 -0.03, 15.91 0 M0 0 C5.57 0.02, 11.22 -0.11, 15.91 0 M15.91 0 C15.95 1.28, 15.94 2.47, 15.91 3.34 M15.91 0 C15.93 0.75, 15.91 1.48, 15.91 3.34 M15.91 3.34 C11.6 3.27, 6.69 3.48, 0 3.34 M15.91 3.34 C11.79 3.4, 7.72 3.42, 0 3.34 M0 3.34 C-0.03 2.13, -0.04 0.87, 0 0 M0 3.34 C0.02 2.32, 0 1.34, 0 0" stroke="transparent" stroke-width="1" fill="none"></path></g><g stroke-linecap="round" transform="translate(527.9973511103713 162.8044619542202) rotate(0 7.955134292330968 1.6705782013893895)"><path d="M0.04 0.17 L16.15 -0.29 L15.94 3.06 L0.04 3.05" stroke="none" stroke-width="0" fill="#868e9644"></path><path d="M0 0 C4.9 -0.04, 10.31 -0.05, 15.91 0 M0 0 C4.82 -0.11, 9.64 0.07, 15.91 0 M15.91 0 C15.94 1.25, 15.87 2.57, 15.91 3.34 M15.91 0 C15.91 1.08, 15.91 2.14, 15.91 3.34 M15.91 3.34 C12.22 3.5, 8.9 3.21, 0 3.34 M15.91 3.34 C11.8 3.44, 7.6 3.28, 0 3.34 M0 3.34 C-0.04 2.09, 0.01 0.9, 0 0 M0 3.34 C-0.01 2.58, -0.02 1.79, 0 0" stroke="transparent" stroke-width="1" fill="none"></path></g><g stroke-linecap="round" transform="translate(527.9973511103713 167.98962920696977) rotate(0 7.955134292330968 1.6705782013893895)"><path d="M0.24 -0.29 L15.94 -0.28 L15.95 3.05 L0 3.6" stroke="none" stroke-width="0" fill="#868e9644"></path><path d="M0 0 C5.83 -0.03, 11.41 -0.03, 15.91 0 M0 0 C5.17 0.09, 10.27 0.12, 15.91 0 M15.91 0 C15.87 1.17, 15.92 2.37, 15.91 3.34 M15.91 0 C15.91 1.08, 15.89 2.2, 15.91 3.34 M15.91 3.34 C11.36 3.23, 6.91 3.4, 0 3.34 M15.91 3.34 C10.26 3.28, 4.53 3.27, 0 3.34 M0 3.34 C0.01 2.25, -0.03 1.15, 0 0 M0 3.34 C-0.01 2.47, 0 1.57, 0 0" stroke="transparent" stroke-width="1" fill="none"></path></g><g stroke-linecap="round" transform="translate(527.9973511103713 173.32730137892077) rotate(0 7.955134292330968 1.6705782013893895)"><path d="M0.03 -0.28 L15.95 -0.29 L15.91 3.6 L-0.11 3.49" stroke="none" stroke-width="0" fill="#868e9644"></path><path d="M0 0 C4.6 -0.03, 9.24 0.09, 15.91 0 M0 0 C3.45 0.08, 6.75 0.04, 15.91 0 M15.91 0 C15.92 0.8, 15.92 1.51, 15.91 3.34 M15.91 0 C15.89 1.11, 15.9 2.16, 15.91 3.34 M15.91 3.34 C9.97 3.37, 4.35 3.51, 0 3.34 M15.91 3.34 C10.07 3.24, 4.11 3.23, 0 3.34 M0 3.34 C-0.03 2.51, -0.02 1.58, 0 0 M0 3.34 C0.01 2.06, 0.02 0.73, 0 0" stroke="transparent" stroke-width="1" fill="none"></path></g><g transform="translate(528.5559795636277 141.7557653703616) rotate(0 7.4516718564175335 17.92570013012255)" stroke="none"><path fill="#5c940d11" d="M -0.13,-2.50 Q -0.13,-2.50 1.48,-2.55 3.10,-2.61 4.43,-2.74 5.76,-2.88 7.04,-3.06 8.33,-3.24 9.62,-3.42 10.91,-3.60 12.10,-3.71 13.30,-3.82 14.63,-4.02 15.97,-4.21 16.28,-4.24 16.60,-4.28 16.94,-4.26 17.28,-4.25 17.60,-4.16 17.93,-4.07 18.22,-3.90 18.51,-3.73 18.76,-3.50 19.00,-3.26 19.18,-2.98 19.36,-2.70 19.47,-2.38 19.58,-2.06 19.61,-1.72 19.64,-1.38 19.59,-1.05 19.53,-0.71 19.40,-0.40 19.27,-0.09 19.07,0.17 18.87,0.44 18.61,0.65 18.34,0.87 18.04,1.02 17.74,1.16 17.40,1.23 17.07,1.30 15.46,2.07 13.85,2.83 12.42,3.13 10.98,3.42 9.21,3.66 7.43,3.91 5.54,4.08 3.65,4.26 1.86,4.45 0.06,4.64 -1.47,4.87 -3.00,5.09 -4.26,5.57 -5.52,6.04 -5.83,6.08 -6.14,6.12 -6.46,6.09 -6.77,6.06 -7.06,5.95 -7.36,5.84 -7.62,5.66 -7.88,5.49 -8.09,5.26 -8.30,5.03 -8.45,4.75 -8.60,4.47 -8.67,4.17 -8.75,3.87 -8.76,3.55 -8.76,3.24 -8.69,2.93 -8.62,2.63 -8.47,2.35 -8.33,2.07 -8.13,1.83 -7.92,1.60 -7.66,1.42 -7.41,1.23 -7.12,1.12 -6.83,1.01 -5.22,1.07 -3.62,1.14 -1.36,1.32 0.90,1.50 2.93,1.70 4.95,1.91 7.21,2.07 9.47,2.23 11.72,2.35 13.97,2.46 15.20,2.39 16.42,2.32 18.00,2.18 19.58,2.05 21.27,2.55 22.95,3.05 23.38,4.08 23.82,5.11 23.34,6.49 22.86,7.87 21.84,8.50 20.81,9.12 19.39,9.46 17.97,9.81 15.25,10.20 12.53,10.59 11.10,10.83 9.66,11.08 8.54,11.36 7.43,11.64 6.00,12.13 4.57,12.63 3.52,13.04 2.47,13.45 1.46,13.81 0.44,14.17 -0.60,14.43 -1.65,14.70 -1.78,12.09 -1.91,9.48 -0.15,9.70 1.60,9.93 2.77,10.16 3.94,10.40 5.18,10.61 6.42,10.82 8.22,11.21 10.01,11.60 11.23,11.78 12.44,11.95 14.17,12.08 15.90,12.20 16.27,12.21 16.64,12.22 16.99,12.30 17.33,12.37 17.65,12.53 17.97,12.69 18.25,12.93 18.52,13.16 18.73,13.45 18.93,13.74 19.07,14.07 19.20,14.40 19.25,14.75 19.30,15.11 19.26,15.46 19.23,15.82 19.11,16.15 18.99,16.49 18.79,16.79 18.59,17.09 18.33,17.33 18.07,17.57 17.76,17.74 17.44,17.91 17.10,18.01 16.75,18.10 16.40,18.11 16.04,18.11 14.83,18.32 13.62,18.53 11.94,19.14 10.27,19.75 8.46,20.94 6.66,22.12 5.25,23.15 3.84,24.18 2.40,22.57 0.96,20.96 2.27,20.57 3.57,20.18 4.88,20.07 6.19,19.95 7.51,19.79 8.84,19.64 9.93,19.49 11.03,19.35 12.12,19.09 13.20,18.83 13.55,18.62 13.91,18.41 14.26,18.27 14.62,18.13 14.99,18.07 15.37,18.02 15.75,18.06 16.13,18.10 16.49,18.22 16.84,18.35 17.16,18.56 17.48,18.77 17.74,19.05 18.00,19.33 18.18,19.66 18.36,20.00 18.46,20.36 18.56,20.73 18.57,21.11 18.58,21.49 18.49,21.86 18.41,22.24 18.24,22.58 18.07,22.92 17.82,23.21 17.58,23.50 17.27,23.72 16.96,23.94 15.72,24.38 14.48,24.81 13.43,25.02 12.38,25.24 11.13,25.52 9.89,25.80 7.98,26.19 6.08,26.58 4.66,27.10 3.24,27.63 2.06,28.19 0.88,28.76 -0.66,29.81 -2.20,30.85 -3.08,31.56 -3.96,32.27 -4.04,32.38 -4.12,32.49 -4.42,32.67 -4.73,32.85 -5.06,32.95 -5.40,33.05 -5.75,33.07 -6.10,33.09 -6.45,33.03 -6.79,32.96 -7.11,32.82 -7.43,32.67 -7.71,32.45 -7.99,32.23 -8.20,31.95 -8.42,31.68 -8.56,31.35 -8.70,31.03 -8.76,30.69 -8.83,30.34 -8.80,29.99 -8.78,29.64 -8.67,29.30 -8.57,28.97 -8.38,28.67 -8.20,28.37 -7.95,28.12 -7.70,27.87 -6.50,27.57 -5.30,27.27 -3.80,27.16 -2.30,27.05 -0.63,26.98 1.02,26.92 2.73,26.90 4.43,26.87 5.76,26.91 7.10,26.95 8.97,26.94 10.84,26.93 12.57,26.91 14.30,26.90 14.74,26.87 15.18,26.85 15.56,26.89 15.94,26.94 16.30,27.07 16.65,27.21 16.97,27.43 17.28,27.64 17.53,27.93 17.79,28.21 17.96,28.55 18.14,28.89 18.23,29.26 18.32,29.63 18.32,30.01 18.32,30.39 18.23,30.76 18.14,31.13 17.96,31.47 17.79,31.81 17.53,32.09 17.28,32.38 16.97,32.59 16.65,32.81 16.30,32.95 15.94,33.08 15.56,33.13 15.18,33.17 13.38,33.27 11.58,33.38 10.36,33.54 9.14,33.71 7.95,33.94 6.76,34.18 5.71,34.49 4.66,34.80 2.97,35.49 1.28,36.17 0.03,36.82 -1.20,37.46 -1.89,37.90 -2.58,38.34 -2.94,38.45 -3.30,38.56 -3.68,38.58 -4.06,38.60 -4.43,38.53 -4.80,38.46 -5.15,38.30 -5.49,38.15 -5.79,37.91 -6.09,37.67 -6.32,37.37 -6.55,37.07 -6.71,36.73 -6.86,36.38 -6.93,36.01 -6.99,35.63 -6.97,35.25 -6.94,34.88 -6.83,34.51 -6.71,34.15 -6.51,33.83 -6.31,33.51 -6.05,33.24 -5.78,32.97 -5.45,32.78 -5.12,32.58 -3.94,32.55 -2.75,32.52 -0.98,32.55 0.77,32.57 2.26,32.82 3.74,33.07 5.32,33.26 6.90,33.44 8.06,33.59 9.22,33.73 10.43,33.71 11.64,33.70 13.26,33.75 14.88,33.81 16.08,33.91 17.27,34.01 16.24,34.58 15.21,35.15 14.97,34.00 14.73,32.85 14.74,31.46 14.75,30.06 14.65,28.60 14.55,27.14 14.49,25.96 14.43,24.77 14.48,23.15 14.53,21.53 12.60,21.42 10.66,21.31 9.34,21.20 8.01,21.09 6.75,21.03 5.50,20.97 3.56,20.96 1.62,20.95 0.14,20.97 -1.33,21.00 -2.47,21.04 -3.60,21.09 -2.72,20.13 -1.84,19.17 -1.31,19.57 -0.78,19.96 -0.59,20.47 -0.40,20.97 -0.38,21.51 -0.35,22.05 -0.50,22.56 -0.66,23.08 -0.96,23.52 -1.27,23.97 -1.70,24.29 -2.14,24.61 -2.65,24.77 -3.16,24.94 -3.70,24.93 -4.24,24.92 -4.75,24.74 -5.26,24.57 -5.68,24.23 -6.11,23.90 -6.40,23.45 -6.70,23.00 -6.84,22.48 -6.97,21.96 -6.94,21.42 -6.90,20.89 -6.70,20.39 -6.49,19.89 -6.14,19.48 -5.78,19.08 -5.32,18.81 -4.85,18.53 -4.32,18.43 -3.80,18.32 -3.26,18.38 -2.73,18.45 -2.24,18.68 -1.75,18.91 -1.37,19.29 -0.98,19.66 -0.74,20.14 -0.49,20.62 -0.41,21.15 -0.33,21.69 -0.42,22.22 -0.52,22.75 -0.78,23.22 -1.03,23.69 -1.43,24.06 -1.83,24.42 -2.32,24.64 -2.81,24.86 -3.35,24.92 -3.88,24.97 -4.41,24.84 -4.93,24.72 -5.39,24.44 -5.85,24.15 -6.19,23.74 -6.54,23.32 -6.54,23.32 -6.53,23.32 -6.64,19.95 -6.75,16.58 -4.49,15.59 -2.24,14.60 -1.07,14.64 0.10,14.67 1.78,14.69 3.46,14.71 4.52,14.71 5.59,14.72 6.90,14.70 8.22,14.68 9.69,14.66 11.17,14.64 12.77,14.70 14.36,14.76 16.14,15.09 17.92,15.42 19.39,16.43 20.86,17.44 21.46,19.03 22.06,20.62 21.77,21.83 21.48,23.03 21.47,24.15 21.47,25.27 21.57,26.49 21.67,27.72 21.69,28.89 21.71,30.06 21.72,31.48 21.73,32.89 21.68,34.30 21.63,35.72 21.27,37.25 20.91,38.77 19.82,39.53 18.73,40.29 17.22,40.41 15.72,40.54 14.31,40.42 12.91,40.31 11.75,40.28 10.60,40.26 9.47,40.23 8.34,40.20 7.07,39.88 5.81,39.56 4.37,39.33 2.93,39.10 1.61,38.98 0.29,38.85 -0.79,38.80 -1.87,38.74 -3.29,38.61 -4.71,38.48 -3.64,38.41 -2.57,38.34 -2.94,38.45 -3.30,38.56 -3.68,38.58 -4.06,38.60 -4.43,38.53 -4.80,38.46 -5.15,38.30 -5.49,38.15 -5.79,37.91 -6.09,37.67 -6.32,37.37 -6.55,37.07 -6.71,36.73 -6.86,36.38 -6.93,36.01 -6.99,35.63 -6.97,35.26 -6.94,34.88 -6.83,34.52 -6.71,34.15 -6.51,33.83 -6.32,33.51 -6.05,33.24 -5.78,32.97 -5.45,32.78 -5.12,32.58 -5.15,32.62 -5.18,32.65 -4.02,32.07 -2.85,31.50 -1.02,30.71 0.79,29.93 1.87,29.55 2.94,29.17 4.22,28.77 5.49,28.37 6.82,28.05 8.15,27.74 9.61,27.46 11.07,27.17 13.13,27.01 15.18,26.85 15.56,26.89 15.94,26.94 16.30,27.07 16.65,27.21 16.97,27.43 17.28,27.64 17.53,27.93 17.79,28.21 17.96,28.55 18.14,28.89 18.23,29.26 18.32,29.63 18.32,30.01 18.32,30.39 18.23,30.76 18.14,31.13 17.96,31.47 17.79,31.81 17.53,32.09 17.28,32.38 16.97,32.59 16.65,32.81 16.30,32.95 15.94,33.08 15.56,33.13 15.18,33.17 14.74,33.15 14.30,33.12 12.57,33.11 10.85,33.09 8.97,33.08 7.10,33.07 4.84,33.12 2.58,33.16 1.21,33.14 -0.15,33.13 -2.14,32.81 -4.12,32.49 -4.42,32.67 -4.73,32.85 -5.06,32.95 -5.40,33.05 -5.75,33.07 -6.10,33.09 -6.45,33.03 -6.79,32.96 -7.11,32.82 -7.43,32.67 -7.71,32.45 -7.99,32.23 -8.20,31.95 -8.42,31.68 -8.56,31.35 -8.70,31.03 -8.76,30.69 -8.83,30.34 -8.80,29.99 -8.78,29.64 -8.67,29.30 -8.57,28.97 -8.38,28.67 -8.20,28.37 -7.95,28.12 -7.70,27.87 -6.93,27.36 -6.16,26.85 -4.86,26.14 -3.57,25.42 -2.46,24.75 -1.36,24.08 -0.04,23.45 1.26,22.82 2.89,22.08 4.53,21.35 6.43,20.61 8.33,19.87 9.68,19.47 11.03,19.07 12.47,18.74 13.91,18.41 14.26,18.27 14.62,18.13 14.99,18.07 15.37,18.02 15.75,18.06 16.13,18.10 16.49,18.22 16.84,18.35 17.16,18.56 17.48,18.77 17.74,19.05 18.00,19.33 18.18,19.66 18.36,20.00 18.46,20.36 18.56,20.73 18.57,21.11 18.58,21.49 18.49,21.86 18.41,22.24 18.24,22.58 18.07,22.92 17.82,23.21 17.58,23.50 17.27,23.72 16.96,23.94 15.96,24.31 14.95,24.68 13.39,24.97 11.82,25.26 10.76,25.40 9.70,25.54 8.34,25.78 6.98,26.02 4.61,26.33 2.23,26.65 0.64,26.47 -0.93,26.29 -1.22,23.48 -1.50,20.67 -0.52,19.96 0.44,19.25 1.87,18.29 3.31,17.33 4.34,16.60 5.37,15.87 6.68,15.04 7.99,14.22 9.18,13.73 10.37,13.25 11.61,12.92 12.85,12.58 14.74,12.40 16.64,12.22 16.99,12.30 17.33,12.37 17.65,12.53 17.97,12.69 18.25,12.93 18.52,13.16 18.73,13.45 18.93,13.74 19.07,14.07 19.20,14.40 19.25,14.75 19.30,15.11 19.26,15.46 19.23,15.82 19.11,16.15 18.99,16.49 18.79,16.79 18.59,17.09 18.33,17.33 18.07,17.57 17.76,17.74 17.44,17.91 17.10,18.01 16.75,18.10 16.40,18.11 16.04,18.11 14.97,17.96 13.90,17.80 12.78,17.68 11.67,17.56 10.44,17.39 9.22,17.23 7.40,17.11 5.57,16.99 4.22,16.84 2.87,16.70 1.60,16.52 0.32,16.34 -0.82,16.13 -1.97,15.91 -3.33,15.28 -4.69,14.64 -4.46,11.69 -4.22,8.74 -3.01,8.51 -1.79,8.28 -0.63,8.09 0.52,7.89 1.80,7.59 3.08,7.28 4.66,6.90 6.24,6.52 7.46,6.25 8.68,5.99 10.21,5.67 11.74,5.34 14.21,4.91 16.68,4.47 17.80,4.47 18.93,4.47 19.25,5.58 19.58,6.70 17.99,6.55 16.41,6.41 15.18,6.33 13.95,6.26 11.69,6.35 9.43,6.45 7.13,6.56 4.83,6.68 2.77,6.78 0.71,6.88 -0.94,6.85 -2.59,6.82 -4.06,6.43 -5.52,6.04 -5.83,6.08 -6.14,6.12 -6.46,6.09 -6.77,6.06 -7.06,5.95 -7.36,5.84 -7.62,5.67 -7.88,5.49 -8.09,5.26 -8.30,5.03 -8.45,4.75 -8.60,4.47 -8.67,4.17 -8.75,3.87 -8.76,3.55 -8.76,3.24 -8.69,2.93 -8.62,2.63 -8.47,2.35 -8.33,2.07 -8.13,1.83 -7.92,1.60 -7.67,1.42 -7.41,1.23 -7.12,1.12 -6.83,1.01 -6.63,0.93 -6.44,0.84 -5.07,0.66 -3.69,0.47 -2.15,0.23 -0.61,0.00 1.16,-0.32 2.94,-0.65 4.68,-1.00 6.42,-1.34 8.09,-1.76 9.76,-2.18 11.83,-2.72 13.91,-3.26 15.25,-3.77 16.60,-4.28 16.94,-4.26 17.28,-4.25 17.60,-4.16 17.93,-4.07 18.22,-3.90 18.51,-3.73 18.76,-3.50 19.00,-3.27 19.18,-2.98 19.36,-2.70 19.47,-2.38 19.58,-2.06 19.61,-1.72 19.64,-1.38 19.59,-1.05 19.53,-0.71 19.40,-0.40 19.27,-0.09 19.07,0.17 18.87,0.44 18.61,0.65 18.34,0.87 18.04,1.02 17.74,1.16 17.40,1.23 17.07,1.30 16.17,1.29 15.26,1.28 13.40,1.33 11.54,1.38 10.26,1.53 8.97,1.67 7.59,1.84 6.21,2.01 4.79,2.13 3.37,2.25 1.75,2.37 0.13,2.50 -0.16,2.48 -0.46,2.46 -0.75,2.37 -1.03,2.28 -1.29,2.12 -1.55,1.96 -1.76,1.75 -1.98,1.53 -2.13,1.27 -2.29,1.01 -2.37,0.72 -2.46,0.43 -2.48,0.13 -2.50,-0.16 -2.44,-0.46 -2.38,-0.75 -2.26,-1.03 -2.13,-1.30 -1.95,-1.54 -1.76,-1.78 -1.52,-1.96 -1.28,-2.15 -1.00,-2.27 -0.73,-2.39 -0.43,-2.44 -0.13,-2.50 -0.13,-2.50 L -0.13,-2.50 Z"></path></g><g transform="translate(415.27811220736567 261.8483149583767) rotate(0 85.5250015258789 12.532769635279465)"><text x="85.5250015258789" y="0" font-family="Virgil, Segoe UI Emoji" font-size="20.052431416446964px" fill="#000000" text-anchor="middle" style="white-space: pre;" direction="ltr" dominant-baseline="text-before-edge">background writer</text></g><g transform="translate(847.5 125) rotate(0 176.75 40.625)"><text x="0" y="0" font-family="Virgil, Segoe UI Emoji" font-size="21.66666666666666px" fill="#1e1e1e" text-anchor="start" style="white-space: pre;" direction="ltr" dominant-baseline="text-before-edge">The checkpointer process writes</text><text x="0" y="27.083333333333325" font-family="Virgil, Segoe UI Emoji" font-size="21.66666666666666px" fill="#1e1e1e" text-anchor="start" style="white-space: pre;" direction="ltr" dominant-baseline="text-before-edge">a checkpoint record to the WAL </text><text x="0" y="54.16666666666665" font-family="Virgil, Segoe UI Emoji" font-size="21.66666666666666px" fill="#1e1e1e" text-anchor="start" style="white-space: pre;" direction="ltr" dominant-baseline="text-before-edge">segment file</text></g><g transform="translate(828.0656242370565 255) rotate(0 160.72500610351562 27.499999999999773)"><text x="0" y="0" font-family="Virgil, Segoe UI Emoji" font-size="21.999999999999897px" fill="#1e1e1e" text-anchor="start" style="white-space: pre;" direction="ltr" dominant-baseline="text-before-edge">flushes dirty pages whenever </text><text x="0" y="27.499999999999872" font-family="Virgil, Segoe UI Emoji" font-size="21.999999999999897px" fill="#1e1e1e" text-anchor="start" style="white-space: pre;" direction="ltr" dominant-baseline="text-before-edge">checkpointing starts</text></g><g transform="translate(10 132.5) rotate(0 174.98202753067017 24.375)"><text x="0" y="0" font-family="Virgil, Segoe UI Emoji" font-size="19.5px" fill="#1e1e1e" text-anchor="start" style="white-space: pre;" direction="ltr" dominant-baseline="text-before-edge">The background writer continues to </text><text x="0" y="24.375" font-family="Virgil, Segoe UI Emoji" font-size="19.5px" fill="#1e1e1e" text-anchor="start" style="white-space: pre;" direction="ltr" dominant-baseline="text-before-edge">flush dirty pages little by little</text></g><g transform="translate(73.52083206176758 233.75) rotate(0 130.25833129882812 39.375)"><text x="0" y="0" font-family="Virgil, Segoe UI Emoji" font-size="20.999999999999993px" fill="#1e1e1e" text-anchor="start" style="white-space: pre;" direction="ltr" dominant-baseline="text-before-edge">background writer wakes </text><text x="0" y="26.249999999999993" font-family="Virgil, Segoe UI Emoji" font-size="20.999999999999993px" fill="#1e1e1e" text-anchor="start" style="white-space: pre;" direction="ltr" dominant-baseline="text-before-edge">  </text><text x="0" y="52.499999999999986" font-family="Virgil, Segoe UI Emoji" font-size="20.999999999999993px" fill="#1e1e1e" text-anchor="start" style="white-space: pre;" direction="ltr" dominant-baseline="text-before-edge"></text></g><g transform="translate(76.25 262.5) rotate(0 57.19166564941406 10)"><text x="0" y="0" font-family="Virgil, Segoe UI Emoji" font-size="16px" fill="#1971c2" text-anchor="start" style="white-space: pre;" direction="ltr" dominant-baseline="text-before-edge">bgwriter_delay</text></g><g transform="translate(200 262.5) rotate(0 17.799999237060547 10)"><text x="0" y="0" font-family="Virgil, Segoe UI Emoji" font-size="16px" fill="#1e1e1e" text-anchor="start" style="white-space: pre;" direction="ltr" dominant-baseline="text-before-edge">msec</text></g><g transform="translate(243.75 265) rotate(0 49.15833282470703 20)"><text x="0" y="0" font-family="Virgil, Segoe UI Emoji" font-size="16px" fill="#1e1e1e" text-anchor="start" style="white-space: pre;" direction="ltr" dominant-baseline="text-before-edge">and flushes </text><text x="0" y="20" font-family="Virgil, Segoe UI Emoji" font-size="16px" fill="#1e1e1e" text-anchor="start" style="white-space: pre;" direction="ltr" dominant-baseline="text-before-edge"> </text></g><g transform="translate(75 290) rotate(0 90.67500305175781 10)"><text x="0" y="0" font-family="Virgil, Segoe UI Emoji" font-size="16px" fill="#1971c2" text-anchor="start" style="white-space: pre;" direction="ltr" dominant-baseline="text-before-edge">bgwriter_lru_maxpages</text></g><g transform="translate(265 292.5) rotate(0 34.400001525878906 10)"><text x="0" y="0" font-family="Virgil, Segoe UI Emoji" font-size="16px" fill="#1e1e1e" text-anchor="start" style="white-space: pre;" direction="ltr" dominant-baseline="text-before-edge">at most.</text></g></svg>