<svg version="1.1" xmlns="http://www.w3.org/2000/svg" viewBox="0 0 982.8166681925458 1498.8333333333335" width="982.8166681925458" height="1498.8333333333335">
  <!-- svg-source:excalidraw -->
  
  <defs>
    <style class="style-fonts">
      @font-face {
        font-family: "Virgil";
        src: url("https://excalidraw.com/Virgil.woff2");
      }
      @font-face {
        font-family: "Cascadia";
        src: url("https://excalidraw.com/Cascadia.woff2");
      }
    </style>
    
  </defs>
  <g transform="translate(140.68974556009277 38.5) rotate(0 90.2750015258789 21.000000000000014)"><text x="0" y="0" font-family="Virgil, Segoe UI Emoji" font-size="33.60000000000003px" fill="#000000" text-anchor="start" style="white-space: pre;" direction="ltr" dominant-baseline="text-before-edge">buffer pool</text></g><g stroke-linecap="round"><g transform="translate(182.05819047859165 105.7446695474502) rotate(0 48.18886741929947 45.38907846170392)" fill-rule="evenodd"><path d="M0 0 C0 0, 0 0, 0 0 M0 0 C0 0, 0 0, 0 0 M-0.26 6.4 C2.89 2.77, 6.05 -0.86, 9.58 -4.92 M-0.26 6.4 C2 3.8, 4.26 1.19, 9.58 -4.92 M0.13 12.04 C4.86 6.6, 9.58 1.17, 17.85 -8.34 M0.13 12.04 C5.6 5.75, 11.07 -0.54, 17.85 -8.34 M-0.13 18.44 C7.92 9.18, 15.97 -0.08, 23.49 -8.73 M-0.13 18.44 C6.48 10.84, 13.08 3.24, 23.49 -8.73 M0.27 24.08 C6.65 16.73, 13.04 9.39, 29.79 -9.88 M0.27 24.08 C6.8 16.56, 13.34 9.04, 29.79 -9.88 M0 30.48 C11.64 17.09, 23.28 3.71, 34.78 -9.52 M0 30.48 C11.74 16.98, 23.48 3.48, 34.78 -9.52 M-0.26 36.88 C9.72 25.4, 19.7 13.92, 40.42 -9.91 M-0.26 36.88 C14.59 19.79, 29.45 2.71, 40.42 -9.91 M0.14 42.52 C11.32 29.66, 22.5 16.8, 45.41 -9.55 M0.14 42.52 C13.03 27.69, 25.92 12.86, 45.41 -9.55 M-0.12 48.92 C16.64 29.64, 33.4 10.36, 51.05 -9.95 M-0.12 48.92 C16.75 29.51, 33.62 10.1, 51.05 -9.95 M0.27 54.56 C11.72 41.39, 23.17 28.22, 56.04 -9.59 M0.27 54.56 C16.72 35.63, 33.18 16.71, 56.04 -9.59 M0.01 60.96 C16.45 42.05, 32.89 23.14, 61.02 -9.23 M0.01 60.96 C21.2 36.58, 42.4 12.2, 61.02 -9.23 M0.4 66.6 C15 49.81, 29.6 33.02, 66.67 -9.62 M0.4 66.6 C22.53 41.15, 44.66 15.69, 66.67 -9.62 M0.14 73 C15.06 55.84, 29.97 38.69, 71 -8.51 M0.14 73 C27.94 41.03, 55.73 9.05, 71 -8.51 M-0.12 79.4 C21.39 54.65, 42.91 29.9, 75.33 -7.39 M-0.12 79.4 C19.45 56.89, 39.02 34.38, 75.33 -7.39 M0.28 85.04 C25.9 55.56, 51.53 26.08, 79.66 -6.28 M0.28 85.04 C22.58 59.38, 44.89 33.72, 79.66 -6.28 M1.33 89.93 C24.14 63.69, 46.95 37.45, 83.99 -5.16 M1.33 89.93 C27.89 59.37, 54.46 28.81, 83.99 -5.16 M4.35 92.55 C30.5 62.46, 56.66 32.37, 88.32 -4.05 M4.35 92.55 C35.6 56.6, 66.86 20.64, 88.32 -4.05 M8.02 94.42 C29.15 70.12, 50.28 45.81, 92 -2.18 M8.02 94.42 C30.04 69.09, 52.07 43.75, 92 -2.18 M11.7 96.29 C37.88 66.17, 64.07 36.04, 95.01 0.44 M11.7 96.29 C33.92 70.73, 56.14 45.17, 95.01 0.44 M16.03 97.41 C44.58 64.55, 73.14 31.7, 96.72 4.58 M16.03 97.41 C33.49 77.31, 50.96 57.22, 96.72 4.58 M20.36 98.52 C35.85 80.7, 51.35 62.87, 97.12 10.22 M20.36 98.52 C43.96 71.37, 67.57 44.21, 97.12 10.22 M25.34 98.88 C47.32 73.6, 69.3 48.32, 96.85 16.62 M25.34 98.88 C40.4 81.56, 55.46 64.24, 96.85 16.62 M29.68 100 C48.26 78.62, 66.84 57.25, 96.59 23.02 M29.68 100 C48.41 78.44, 67.15 56.89, 96.59 23.02 M34.66 100.36 C54.56 77.47, 74.45 54.58, 96.99 28.66 M34.66 100.36 C51.08 81.47, 67.51 62.57, 96.99 28.66 M39.65 100.72 C61.22 75.9, 82.79 51.09, 96.73 35.06 M39.65 100.72 C57.42 80.27, 75.2 59.82, 96.73 35.06 M44.64 101.08 C64.32 78.43, 84 55.79, 96.46 41.46 M44.64 101.08 C59.47 84.02, 74.3 66.95, 96.46 41.46 M49.62 101.44 C67.18 81.24, 84.74 61.04, 96.86 47.1 M49.62 101.44 C67.17 81.25, 84.72 61.07, 96.86 47.1 M55.27 101.04 C70.23 83.83, 85.19 66.62, 96.6 53.5 M55.27 101.04 C71.05 82.89, 86.83 64.73, 96.6 53.5 M60.91 100.65 C70.32 89.82, 79.74 78.99, 96.99 59.14 M60.91 100.65 C74.33 85.21, 87.75 69.77, 96.99 59.14 M66.55 100.25 C76.26 89.09, 85.96 77.93, 96.73 65.54 M66.55 100.25 C76.99 88.25, 87.43 76.24, 96.73 65.54 M72.85 99.1 C79.47 91.49, 86.09 83.88, 96.47 71.93 M72.85 99.1 C79.15 91.86, 85.45 84.61, 96.47 71.93 M79.15 97.95 C86.19 89.86, 93.22 81.77, 96.86 77.58 M79.15 97.95 C85.63 90.5, 92.11 83.05, 96.86 77.58 M86.11 96.05 C90.27 91.26, 94.44 86.46, 96.6 83.98 M86.11 96.05 C89.8 91.8, 93.5 87.55, 96.6 83.98 M1.66 91.07 C1.66 91.07, 1.66 91.07, 1.66 91.07 M1.66 91.07 C1.66 91.07, 1.66 91.07, 1.66 91.07 M13.34 95.92 C10.62 93.56, 7.9 91.2, 0.51 84.77 M13.34 95.92 C8.64 91.84, 3.94 87.75, 0.51 84.77 M22 98.15 C16.21 93.12, 10.41 88.08, 0.12 79.13 M22 98.15 C15.77 92.73, 9.54 87.32, 0.12 79.13 M29.91 99.73 C22.32 93.13, 14.73 86.53, 0.48 74.14 M29.91 99.73 C18.43 89.75, 6.95 79.77, 0.48 74.14 M36.31 99.99 C27.32 92.18, 18.33 84.36, 0.08 68.5 M36.31 99.99 C28.34 93.06, 20.38 86.14, 0.08 68.5 M42.71 100.25 C30 89.2, 17.29 78.15, 0.44 63.51 M42.71 100.25 C28.09 87.54, 13.47 74.83, 0.44 63.51 M49.86 101.17 C33.42 86.88, 16.99 72.6, 0.05 57.87 M49.86 101.17 C35.76 88.91, 21.66 76.65, 0.05 57.87 M55.5 100.77 C42.31 89.31, 29.13 77.84, 0.41 52.88 M55.5 100.77 C39.04 86.46, 22.57 72.15, 0.41 52.88 M61.14 100.38 C38.96 81.09, 16.77 61.8, 0.01 47.24 M61.14 100.38 C41.41 83.22, 21.67 66.06, 0.01 47.24 M66.79 99.98 C53.15 88.13, 39.51 76.27, 0.37 42.25 M66.79 99.98 C43.14 79.43, 19.5 58.88, 0.37 42.25 M71.68 98.93 C51.41 81.32, 31.15 63.7, -0.02 36.61 M71.68 98.93 C44.43 75.25, 17.19 51.57, -0.02 36.61 M76.56 97.88 C56.52 80.46, 36.47 63.03, 0.34 31.62 M76.56 97.88 C48.62 73.59, 20.67 49.29, 0.34 31.62 M81.45 96.83 C64.56 82.15, 47.66 67.46, -0.06 25.98 M81.45 96.83 C49.88 69.39, 18.31 41.95, -0.06 25.98 M85.59 95.12 C59.19 72.18, 32.79 49.23, 0.3 20.99 M85.59 95.12 C66.63 78.65, 47.68 62.17, 0.3 20.99 M89.72 93.42 C59.37 67.03, 29.02 40.65, -0.09 15.35 M89.72 93.42 C65.48 72.35, 41.24 51.27, -0.09 15.35 M93.1 91.06 C58.29 60.79, 23.47 30.53, 0.27 10.36 M93.1 91.06 C60.01 62.29, 26.92 33.53, 0.27 10.36 M95.72 88.04 C70.94 66.49, 46.15 44.95, -0.13 4.72 M95.72 88.04 C72.24 67.62, 48.75 47.2, -0.13 4.72 M96.08 83.05 C65.2 56.2, 34.32 29.36, 0.23 -0.27 M96.08 83.05 C72.58 62.62, 49.09 42.2, 0.23 -0.27 M96.44 78.06 C74.55 59.03, 52.65 39.99, 3.61 -2.63 M96.44 78.06 C66.54 52.07, 36.64 26.07, 3.61 -2.63 M96.05 72.42 C65.43 45.81, 34.82 19.19, 7.75 -4.34 M96.05 72.42 C68.99 48.9, 41.94 25.38, 7.75 -4.34 M96.41 67.43 C69.41 43.96, 42.41 20.49, 11.88 -6.05 M96.41 67.43 C79.26 52.53, 62.11 37.62, 11.88 -6.05 M96.01 61.79 C73.85 42.52, 51.69 23.26, 16.01 -7.75 M96.01 61.79 C79.98 47.85, 63.95 33.92, 16.01 -7.75 M96.37 56.8 C78.15 40.96, 59.92 25.11, 20.9 -8.8 M96.37 56.8 C67.62 31.8, 38.86 6.81, 20.9 -8.8 M96.73 51.82 C77.27 34.89, 57.8 17.97, 25.79 -9.85 M96.73 51.82 C73.36 31.49, 49.98 11.17, 25.79 -9.85 M96.34 46.17 C75.74 28.27, 55.15 10.36, 31.43 -10.25 M96.34 46.17 C80.59 32.48, 64.84 18.79, 31.43 -10.25 M96.7 41.18 C76.86 23.93, 57.01 6.68, 37.08 -10.64 M96.7 41.18 C76.52 23.64, 56.34 6.1, 37.08 -10.64 M96.31 35.54 C78.09 19.71, 59.87 3.87, 43.48 -10.38 M96.31 35.54 C76.97 18.74, 57.64 1.93, 43.48 -10.38 M96.67 30.55 C78.63 14.88, 60.6 -0.8, 49.12 -10.78 M96.67 30.55 C86.49 21.71, 76.32 12.87, 49.12 -10.78 M96.27 24.91 C83.85 14.11, 71.42 3.31, 55.52 -10.52 M96.27 24.91 C87.25 17.07, 78.24 9.24, 55.52 -10.52 M96.63 19.92 C83.67 8.66, 70.7 -2.61, 61.91 -10.25 M96.63 19.92 C83.26 8.3, 69.9 -3.32, 61.91 -10.25 M96.24 14.28 C88.95 7.95, 81.66 1.61, 68.31 -9.99 M96.24 14.28 C88.66 7.7, 81.09 1.12, 68.31 -9.99 M96.6 9.29 C92.52 5.75, 88.44 2.21, 76.97 -7.76 M96.6 9.29 C92.22 5.49, 87.85 1.69, 76.97 -7.76 M96.2 3.65 C93.46 1.27, 90.72 -1.12, 85.64 -5.53 M96.2 3.65 C93.34 1.17, 90.49 -1.32, 85.64 -5.53" stroke="#4c6ef5" stroke-width="0.5" fill="none"></path><path d="M0 0 C0 12.86, -0.28 61.96, 0 77.14 C0.28 92.33, -0.52 87.91, 1.69 91.09 C3.9 94.27, 8.45 94.69, 13.27 96.22 C18.09 97.75, 24.64 99.42, 30.62 100.27 C36.59 101.12, 43.4 101.32, 49.12 101.32 C54.83 101.32, 59.81 100.88, 64.91 100.27 C70.01 99.67, 74.79 99.32, 79.72 97.7 C84.66 96.07, 91.87 93.97, 94.5 90.54 C97.13 87.12, 95.21 90.48, 95.51 77.14 C95.81 63.8, 96.38 23.42, 96.31 10.51 C96.24 -2.41, 97.29 2.44, 95.1 -0.34 C92.9 -3.11, 87.36 -4.61, 83.12 -6.12 C78.89 -7.63, 74.84 -8.69, 69.69 -9.4 C64.54 -10.1, 56.98 -10.2, 52.22 -10.36 C47.46 -10.52, 46.92 -10.68, 41.14 -10.33 C35.35 -9.98, 24.38 -9.97, 17.53 -8.25 C10.67 -6.53, 2.92 -1.37, 0 0 M0 0 C0 12.86, -0.28 61.96, 0 77.14 C0.28 92.33, -0.52 87.91, 1.69 91.09 C3.9 94.27, 8.45 94.69, 13.27 96.22 C18.09 97.75, 24.64 99.42, 30.62 100.27 C36.59 101.12, 43.4 101.32, 49.12 101.32 C54.83 101.32, 59.81 100.88, 64.91 100.27 C70.01 99.67, 74.79 99.32, 79.72 97.7 C84.66 96.07, 91.87 93.97, 94.5 90.54 C97.13 87.12, 95.21 90.48, 95.51 77.14 C95.81 63.8, 96.38 23.42, 96.31 10.51 C96.24 -2.41, 97.29 2.44, 95.1 -0.34 C92.9 -3.11, 87.36 -4.61, 83.12 -6.12 C78.89 -7.63, 74.84 -8.69, 69.69 -9.4 C64.54 -10.1, 56.98 -10.2, 52.22 -10.36 C47.46 -10.52, 46.92 -10.68, 41.14 -10.33 C35.35 -9.98, 24.38 -9.97, 17.53 -8.25 C10.67 -6.53, 2.92 -1.37, 0 0" stroke="#364fc7" stroke-width="1" fill="none"></path></g></g><mask></mask><g stroke-linecap="round" transform="translate(182.35133112265373 93.9369009632357) rotate(0 48.07036766429246 13.070086797150054)"><path d="M96.14 13.07 C96.14 13.75, 95.94 14.44, 95.55 15.11 C95.16 15.79, 94.56 16.46, 93.79 17.11 C93.01 17.76, 92.04 18.4, 90.9 19 C89.76 19.61, 88.43 20.2, 86.96 20.75 C85.49 21.3, 83.83 21.83, 82.06 22.31 C80.29 22.79, 78.35 23.24, 76.33 23.64 C74.3 24.04, 72.13 24.41, 69.89 24.72 C67.66 25.03, 65.31 25.29, 62.92 25.5 C60.54 25.71, 58.07 25.87, 55.59 25.98 C53.11 26.09, 50.58 26.14, 48.07 26.14 C45.56 26.14, 43.03 26.09, 40.55 25.98 C38.07 25.87, 35.6 25.71, 33.22 25.5 C30.83 25.29, 28.48 25.03, 26.25 24.72 C24.01 24.41, 21.84 24.04, 19.82 23.64 C17.79 23.24, 15.85 22.79, 14.08 22.31 C12.31 21.83, 10.65 21.3, 9.18 20.75 C7.71 20.2, 6.38 19.61, 5.24 19 C4.1 18.4, 3.13 17.76, 2.35 17.11 C1.58 16.46, 0.98 15.79, 0.59 15.11 C0.2 14.44, 0 13.75, 0 13.07 C0 12.39, 0.2 11.7, 0.59 11.03 C0.98 10.35, 1.58 9.68, 2.35 9.03 C3.13 8.38, 4.1 7.74, 5.24 7.14 C6.38 6.53, 7.71 5.94, 9.18 5.39 C10.65 4.84, 12.31 4.31, 14.08 3.83 C15.85 3.35, 17.79 2.9, 19.82 2.5 C21.84 2.1, 24.01 1.73, 26.25 1.42 C28.48 1.12, 30.83 0.85, 33.22 0.64 C35.6 0.43, 38.07 0.27, 40.55 0.16 C43.03 0.05, 45.56 0, 48.07 0 C50.58 0, 53.11 0.05, 55.59 0.16 C58.07 0.27, 60.54 0.43, 62.92 0.64 C65.31 0.85, 67.66 1.12, 69.89 1.42 C72.13 1.73, 74.3 2.1, 76.33 2.5 C78.35 2.9, 80.29 3.35, 82.06 3.83 C83.83 4.31, 85.49 4.84, 86.96 5.39 C88.43 5.94, 89.76 6.53, 90.9 7.14 C92.04 7.74, 93.01 8.38, 93.79 9.03 C94.56 9.68, 95.16 10.35, 95.55 11.03 C95.94 11.7, 96.04 12.73, 96.14 13.07 C96.24 13.41, 96.24 12.73, 96.14 13.07" stroke="none" stroke-width="0" fill="#ffffff"></path><path d="M96.14 13.07 C96.14 13.75, 95.94 14.44, 95.55 15.11 C95.16 15.79, 94.56 16.46, 93.79 17.11 C93.01 17.76, 92.04 18.4, 90.9 19 C89.76 19.61, 88.43 20.2, 86.96 20.75 C85.49 21.3, 83.83 21.83, 82.06 22.31 C80.29 22.79, 78.35 23.24, 76.33 23.64 C74.3 24.04, 72.13 24.41, 69.89 24.72 C67.66 25.03, 65.31 25.29, 62.92 25.5 C60.54 25.71, 58.07 25.87, 55.59 25.98 C53.11 26.09, 50.58 26.14, 48.07 26.14 C45.56 26.14, 43.03 26.09, 40.55 25.98 C38.07 25.87, 35.6 25.71, 33.22 25.5 C30.83 25.29, 28.48 25.03, 26.25 24.72 C24.01 24.41, 21.84 24.04, 19.82 23.64 C17.79 23.24, 15.85 22.79, 14.08 22.31 C12.31 21.83, 10.65 21.3, 9.18 20.75 C7.71 20.2, 6.38 19.61, 5.24 19 C4.1 18.4, 3.13 17.76, 2.35 17.11 C1.58 16.46, 0.98 15.79, 0.59 15.11 C0.2 14.44, 0 13.75, 0 13.07 C0 12.39, 0.2 11.7, 0.59 11.03 C0.98 10.35, 1.58 9.68, 2.35 9.03 C3.13 8.38, 4.1 7.74, 5.24 7.14 C6.38 6.53, 7.71 5.94, 9.18 5.39 C10.65 4.84, 12.31 4.31, 14.08 3.83 C15.85 3.35, 17.79 2.9, 19.82 2.5 C21.84 2.1, 24.01 1.73, 26.25 1.42 C28.48 1.12, 30.83 0.85, 33.22 0.64 C35.6 0.43, 38.07 0.27, 40.55 0.16 C43.03 0.05, 45.56 0, 48.07 0 C50.58 0, 53.11 0.05, 55.59 0.16 C58.07 0.27, 60.54 0.43, 62.92 0.64 C65.31 0.85, 67.66 1.12, 69.89 1.42 C72.13 1.73, 74.3 2.1, 76.33 2.5 C78.35 2.9, 80.29 3.35, 82.06 3.83 C83.83 4.31, 85.49 4.84, 86.96 5.39 C88.43 5.94, 89.76 6.53, 90.9 7.14 C92.04 7.74, 93.01 8.38, 93.79 9.03 C94.56 9.68, 95.16 10.35, 95.55 11.03 C95.94 11.7, 96.04 12.73, 96.14 13.07 C96.24 13.41, 96.24 12.73, 96.14 13.07" stroke="#364fc7" stroke-width="1" fill="none"></path></g><g stroke-linecap="round"><g transform="translate(152.6778140792402 278.21356939003823) rotate(0 -37.2444771855225 25.78643060996177)"><path d="M0 0 C0.02 -5.94, 0.05 -11.89, 0.07 -16.98 M0 0 C0.02 -5.21, 0.04 -10.42, 0.07 -16.98 M0.07 -16.98 C-17.34 -17.11, -34.74 -17.24, -74.46 -17.53 M0.07 -16.98 C-21.01 -17.14, -42.09 -17.29, -74.46 -17.53 M-74.46 -17.53 C-74.63 15.41, -74.81 48.35, -74.91 68.7 M-74.46 -17.53 C-74.63 14.27, -74.79 46.06, -74.91 68.7 M-74.91 68.7 C-56.22 68.8, -37.52 68.9, 0.36 69.1 M-74.91 68.7 C-47.01 68.85, -19.11 69, 0.36 69.1 M0.36 69.1 C0.38 53.16, 0.4 37.22, 0.43 17.19 M0.36 69.1 C0.38 50.6, 0.41 32.09, 0.43 17.19" stroke="#000" stroke-width="4" fill="none"></path></g></g><mask></mask><g stroke-linecap="round"><g transform="translate(97.73479067162077 287.1298813553154) rotate(0 17.598793255749342 -0.06578807223249328)"><path d="M0 0 C12.48 -0.05, 24.96 -0.09, 35.2 -0.13 M0 0 C8.84 -0.03, 17.69 -0.07, 35.2 -0.13" stroke="#3d71b7" stroke-width="4" fill="none"></path></g></g><mask></mask><g stroke-linecap="round"><g transform="translate(97.73684738903978 304.5166176352844) rotate(0 17.598793255749342 -0.06578807223249328)"><path d="M0 0 C7.45 -0.03, 14.9 -0.06, 35.2 -0.13 M0 0 C8.66 -0.03, 17.32 -0.06, 35.2 -0.13" stroke="#3d71b7" stroke-width="4" fill="none"></path></g></g><mask></mask><g stroke-linecap="round"><g transform="translate(98.21153239244791 321.4642178609709) rotate(0 8.665152127802855 0.1138184731497347)"><path d="M0 0 C6.62 0.09, 13.23 0.17, 17.33 0.23 M0 0 C4.52 0.06, 9.04 0.12, 17.33 0.23" stroke="#3d71b7" stroke-width="4" fill="none"></path></g></g><mask></mask><g stroke-linecap="round"><g transform="translate(272.6778140792401 298.2135693900382) rotate(0 -37.2444771855225 25.78643060996174)"><path d="M0 0 C0.02 -5.05, 0.04 -10.11, 0.07 -16.98 M0 0 C0.02 -6.06, 0.05 -12.12, 0.07 -16.98 M0.07 -16.98 C-29.36 -17.2, -58.79 -17.41, -74.46 -17.53 M0.07 -16.98 C-22.02 -17.14, -44.12 -17.31, -74.46 -17.53 M-74.46 -17.53 C-74.6 9.21, -74.74 35.95, -74.91 68.7 M-74.46 -17.53 C-74.63 15.4, -74.81 48.33, -74.91 68.7 M-74.91 68.7 C-48.63 68.84, -22.35 68.98, 0.36 69.1 M-74.91 68.7 C-52.76 68.81, -30.61 68.93, 0.36 69.1 M0.36 69.1 C0.38 50.06, 0.41 31.02, 0.43 17.19 M0.36 69.1 C0.38 50.52, 0.41 31.94, 0.43 17.19" stroke="#000" stroke-width="4" fill="none"></path></g></g><mask></mask><g stroke-linecap="round"><g transform="translate(217.73479067162066 307.1298813553153) rotate(0 17.598793255749342 -0.06578807223249328)"><path d="M0 0 C13.05 -0.05, 26.1 -0.1, 35.2 -0.13 M0 0 C10.81 -0.04, 21.62 -0.08, 35.2 -0.13" stroke="#2f9e44" stroke-width="4" fill="none"></path></g></g><mask></mask><g stroke-linecap="round"><g transform="translate(217.73684738903967 324.5166176352843) rotate(0 17.598793255749342 -0.06578807223249328)"><path d="M0 0 C11.07 -0.04, 22.15 -0.08, 35.2 -0.13 M0 0 C9.51 -0.04, 19.03 -0.07, 35.2 -0.13" stroke="#2f9e44" stroke-width="4" fill="none"></path></g></g><mask></mask><g stroke-linecap="round"><g transform="translate(218.2115323924479 341.46421786097085) rotate(0 8.665152127802855 0.1138184731497347)"><path d="M0 0 C6.43 0.08, 12.87 0.17, 17.33 0.23 M0 0 C4.28 0.06, 8.57 0.11, 17.33 0.23" stroke="#2f9e44" stroke-width="4" fill="none"></path></g></g><mask></mask><g stroke-linecap="round"><g transform="translate(389.6778140792402 278.2135693900382) rotate(0 -37.24447718552244 25.78643060996174)"><path d="M0 0 C0.02 -4.95, 0.04 -9.9, 0.07 -16.98 M0 0 C0.02 -4.96, 0.04 -9.91, 0.07 -16.98 M0.07 -16.98 C-20.83 -17.13, -41.72 -17.29, -74.46 -17.53 M0.07 -16.98 C-28.8 -17.19, -57.66 -17.4, -74.46 -17.53 M-74.46 -17.53 C-74.64 16.89, -74.82 51.3, -74.91 68.7 M-74.46 -17.53 C-74.6 9.8, -74.75 37.13, -74.91 68.7 M-74.91 68.7 C-52.33 68.82, -29.74 68.94, 0.36 69.1 M-74.91 68.7 C-46.94 68.85, -18.96 69, 0.36 69.1 M0.36 69.1 C0.38 49.79, 0.41 30.48, 0.43 17.19 M0.36 69.1 C0.38 53.63, 0.4 38.17, 0.43 17.19" stroke="#000" stroke-width="4" fill="none"></path></g></g><mask></mask><g stroke-linecap="round"><g transform="translate(334.7347906716208 283.1298813553153) rotate(0 17.598793255749342 -0.06578807223249328)"><path d="M0 0 C8.89 -0.03, 17.77 -0.07, 35.2 -0.13 M0 0 C8.05 -0.03, 16.1 -0.06, 35.2 -0.13" stroke="#e03131" stroke-width="4" fill="none"></path></g></g><mask></mask><g stroke-linecap="round"><g transform="translate(334.73684738903955 300.5166176352843) rotate(0 17.598793255749342 -0.06578807223249328)"><path d="M0 0 C8.16 -0.03, 16.32 -0.06, 35.2 -0.13 M0 0 C10.88 -0.04, 21.77 -0.08, 35.2 -0.13" stroke="#f08c00" stroke-width="4" fill="none"></path></g></g><mask></mask><g stroke-linecap="round"><g transform="translate(335.211532392448 317.46421786097085) rotate(0 8.665152127802799 0.1138184731497347)"><path d="M0 0 C4.71 0.06, 9.43 0.12, 17.33 0.23 M0 0 C3.94 0.05, 7.88 0.1, 17.33 0.23" stroke="#e03131" stroke-width="4" fill="none"></path></g></g><mask></mask><g stroke-linecap="round"><g transform="translate(166.43333689371764 210) rotate(0 -23.78848168700705 14.910486484800941)"><path d="M-0.11 0.01 C-8.1 5.01, -39.84 24.84, -47.79 29.8 M0.31 -0.21 C-7.71 4.84, -39.85 25.01, -47.89 30.03" stroke="#1e1e1e" stroke-width="2" fill="none"></path></g><g transform="translate(166.43333689371764 210) rotate(0 -23.78848168700705 14.910486484800941)"><path d="M-30.49 7.71 C-36.63 15.93, -43.13 23.71, -47.89 30.03 M-30.49 7.71 C-34.19 12.69, -38.08 17.03, -47.89 30.03" stroke="#1e1e1e" stroke-width="2" fill="none"></path></g><g transform="translate(166.43333689371764 210) rotate(0 -23.78848168700705 14.910486484800941)"><path d="M-20.21 24.11 C-29.93 26.57, -40.04 28.58, -47.89 30.03 M-20.21 24.11 C-26.09 25.62, -32.17 26.47, -47.89 30.03" stroke="#1e1e1e" stroke-width="2" fill="none"></path></g></g><mask></mask><g stroke-linecap="round"><g transform="translate(231.43333689371764 221) rotate(0 0.07733951047049459 23.53506598085204)"><path d="M-0.07 -0.12 C-0.08 7.72, -0.08 39.16, -0.07 47 M0.17 0.14 C0.2 8, 0.26 39.37, 0.22 47.19" stroke="#1e1e1e" stroke-width="2" fill="none"></path></g><g transform="translate(231.43333689371764 221) rotate(0 0.07733951047049459 23.53506598085204)"><path d="M-7.79 25.1 C-5.6 31.65, -2.94 38.49, 0.22 47.19 M-7.79 25.1 C-5.76 30.24, -4.08 35.78, 0.22 47.19" stroke="#1e1e1e" stroke-width="2" fill="none"></path></g><g transform="translate(231.43333689371764 221) rotate(0 0.07733951047049459 23.53506598085204)"><path d="M8.28 25.12 C5.6 31.66, 3.39 38.48, 0.22 47.19 M8.28 25.12 C6.47 30.27, 4.31 35.8, 0.22 47.19" stroke="#1e1e1e" stroke-width="2" fill="none"></path></g></g><mask></mask><g stroke-linecap="round"><g transform="translate(294.43333689371764 209) rotate(0 21.459729027668914 13.599846102111428)"><path d="M-0.16 0.18 C7.06 4.69, 35.89 22.63, 43.08 27.13 M0.2 0.07 C7.41 4.49, 35.83 22.32, 42.93 26.77" stroke="#1e1e1e" stroke-width="2" fill="none"></path></g><g transform="translate(294.43333689371764 209) rotate(0 21.459729027668914 13.599846102111428)"><path d="M18.1 21.45 C23.6 22.73, 28.63 23.57, 42.93 26.77 M18.1 21.45 C27.51 23.58, 36.74 25.63, 42.93 26.77" stroke="#1e1e1e" stroke-width="2" fill="none"></path></g><g transform="translate(294.43333689371764 209) rotate(0 21.459729027668914 13.599846102111428)"><path d="M27.33 6.74 C30.94 11.05, 34.06 14.94, 42.93 26.77 M27.33 6.74 C33.27 14.38, 39.05 21.93, 42.93 26.77" stroke="#1e1e1e" stroke-width="2" fill="none"></path></g></g><mask></mask><g transform="translate(48.43333689371764 368) rotate(0 58.00833511352539 12.5)"><text x="0" y="0" font-family="Virgil, Segoe UI Emoji" font-size="20px" fill="#1971c2" text-anchor="start" style="white-space: pre;" direction="ltr" dominant-baseline="text-before-edge">table pages</text></g><g transform="translate(181.43333689371764 396) rotate(0 56.141666412353516 12.5)"><text x="0" y="0" font-family="Virgil, Segoe UI Emoji" font-size="20px" fill="#2f9e44" text-anchor="start" style="white-space: pre;" direction="ltr" dominant-baseline="text-before-edge">index pages</text></g><g transform="translate(324.43333689371764 363) rotate(0 80.9749984741211 25)"><text x="0" y="0" font-family="Virgil, Segoe UI Emoji" font-size="20px" fill="#e03131" text-anchor="start" style="white-space: pre;" direction="ltr" dominant-baseline="text-before-edge">free space maps</text><text x="0" y="25" font-family="Virgil, Segoe UI Emoji" font-size="20px" fill="#e03131" text-anchor="start" style="white-space: pre;" direction="ltr" dominant-baseline="text-before-edge"> (for writes)</text></g><g transform="translate(326.43333689371764 427) rotate(0 65.85832977294922 25)"><text x="0" y="0" font-family="Virgil, Segoe UI Emoji" font-size="20px" fill="#f08c00" text-anchor="start" style="white-space: pre;" direction="ltr" dominant-baseline="text-before-edge">visibility maps</text><text x="0" y="25" font-family="Virgil, Segoe UI Emoji" font-size="20px" fill="#f08c00" text-anchor="start" style="white-space: pre;" direction="ltr" dominant-baseline="text-before-edge">(for vacuum)</text></g><g stroke-linecap="round" transform="translate(683.7450553985096 90.20793838800327) rotate(89.6698853119712 11.847170440031164 12.544062818856474)"><path d="M0 0 C5.84 0.01, 11.21 -0.42, 23.69 0 M0 0 C5.87 0.18, 11.56 0.16, 23.69 0 M23.69 0 C24.03 5.23, 24.04 9.81, 23.69 25.09 M23.69 0 C23.64 9.02, 23.53 18.05, 23.69 25.09 M23.69 25.09 C17.87 25.4, 12.41 25.04, 0 25.09 M23.69 25.09 C18.99 25.19, 14.04 25.23, 0 25.09 M0 25.09 C-0.1 17.96, 0.43 10.52, 0 0 M0 25.09 C0.14 17.4, 0.06 10.1, 0 0" stroke="#000000" stroke-width="1" fill="none"></path></g><g stroke-linecap="round" transform="translate(683.8815716783944 113.90188599167828) rotate(89.6698853119712 11.847170440031164 12.544062818856474)"><path d="M0 0 C8.18 -0.39, 16.96 0.34, 23.69 0 M0 0 C6.71 0.11, 13.09 -0.21, 23.69 0 M23.69 0 C24.13 4.88, 24.02 10.52, 23.69 25.09 M23.69 0 C23.47 5.58, 23.55 11.63, 23.69 25.09 M23.69 25.09 C19 25.13, 13.2 24.81, 0 25.09 M23.69 25.09 C16.24 25.25, 8.7 25.01, 0 25.09 M0 25.09 C0.42 15.76, 0.02 6.65, 0 0 M0 25.09 C0.04 16.9, -0.11 8.62, 0 0" stroke="#000000" stroke-width="1" fill="none"></path></g><g stroke-linecap="round" transform="translate(684.018271987578 137.6277739659032) rotate(89.6698853119712 11.847170440031164 12.544062818856474)"><path d="M0 0 C7.09 0.39, 14.58 0.27, 23.69 0 M0 0 C8.77 -0.21, 17.76 0.15, 23.69 0 M23.69 0 C24.02 8.95, 23.44 17.17, 23.69 25.09 M23.69 0 C23.53 6.44, 23.46 12.75, 23.69 25.09 M23.69 25.09 C14.24 24.76, 5.68 25.37, 0 25.09 M23.69 25.09 C15.51 25.02, 7.52 25.06, 0 25.09 M0 25.09 C-0.04 16.86, 0.09 8.59, 0 0 M0 25.09 C-0.09 19.25, 0.03 13.02, 0 0" stroke="#000000" stroke-width="1" fill="none"></path></g><g stroke-linecap="round" transform="translate(684.1547882674628 161.32172156958842) rotate(89.6698853119712 11.847170440031164 12.544062818856474)"><path d="M0 0 C4.92 0.19, 10.34 0.08, 23.69 0 M0 0 C8.57 0.23, 17.66 0.23, 23.69 0 M23.69 0 C23.43 5.92, 23.53 11.79, 23.69 25.09 M23.69 0 C23.48 5.18, 23.84 10.54, 23.69 25.09 M23.69 25.09 C16.67 25.33, 9.69 25.11, 0 25.09 M23.69 25.09 C15.23 25, 6.53 25.27, 0 25.09 M0 25.09 C0.14 17.97, -0.26 10.37, 0 0 M0 25.09 C0.07 15.92, -0.15 6.88, 0 0" stroke="#000000" stroke-width="1" fill="none"></path></g><g stroke-linecap="round" transform="translate(684.2926429422481 185.2479627772217) rotate(89.6698853119712 11.84717044003105 12.544062818856474)"><path d="M0 0 C9.35 0.09, 18.31 -0.46, 23.69 0 M0 0 C5.3 0.15, 10.29 0.09, 23.69 0 M23.69 0 C23.46 8.7, 23.25 17.97, 23.69 25.09 M23.69 0 C23.82 8.44, 23.65 16.33, 23.69 25.09 M23.69 25.09 C18.56 25.18, 13.31 25.08, 0 25.09 M23.69 25.09 C17.72 25.27, 11.58 25.08, 0 25.09 M0 25.09 C-0.27 16.64, 0.27 7.74, 0 0 M0 25.09 C-0.18 15.43, -0.04 5.43, 0 0" stroke="#000000" stroke-width="1" fill="none"></path></g><g stroke-linecap="round" transform="translate(684.4291592221333 208.94191038090338) rotate(89.6698853119712 11.84717044003105 12.544062818856474)"><path d="M0 0 C8.67 -0.44, 16.38 -0.43, 23.69 0 M0 0 C9.04 0.09, 18.46 -0.2, 23.69 0 M23.69 0 C23.27 6.24, 23.8 12.58, 23.69 25.09 M23.69 0 C23.74 7.27, 23.58 14.98, 23.69 25.09 M23.69 25.09 C15.31 25.05, 6.19 25.4, 0 25.09 M23.69 25.09 C17.28 25.14, 10.97 25.2, 0 25.09 M0 25.09 C0.32 15.57, 0.43 6.43, 0 0 M0 25.09 C0.01 17.35, -0.03 9.75, 0 0" stroke="#000000" stroke-width="1" fill="none"></path></g><g stroke-linecap="round" transform="translate(684.5656755020178 232.63585798458433) rotate(89.6698853119712 11.847170440031164 12.544062818856474)"><path d="M0 0 C7.42 -0.36, 15.9 0.25, 23.69 0 M0 0 C9.35 -0.18, 18.34 -0.13, 23.69 0 M23.69 0 C23.77 4.8, 23.63 10.71, 23.69 25.09 M23.69 0 C23.53 9.58, 23.84 19.19, 23.69 25.09 M23.69 25.09 C16.05 25.39, 8.66 25.24, 0 25.09 M23.69 25.09 C14.48 25.16, 5.23 24.96, 0 25.09 M0 25.09 C0.36 16.73, -0.01 7.83, 0 0 M0 25.09 C-0.06 15.76, 0.21 6.42, 0 0" stroke="#000000" stroke-width="1" fill="none"></path></g><g stroke-linecap="round" transform="translate(684.7021917819023 256.32980558826114) rotate(89.6698853119712 11.84717044003105 12.544062818856474)"><path d="M0 0 C5.12 0.25, 9.88 -0.2, 23.69 0 M0 0 C8.53 -0.06, 17.03 -0.17, 23.69 0 M23.69 0 C23.7 6.51, 24.06 12.32, 23.69 25.09 M23.69 0 C23.79 5.22, 23.68 10.4, 23.69 25.09 M23.69 25.09 C16.69 25.28, 10.35 25.11, 0 25.09 M23.69 25.09 C16.71 24.98, 9.49 25.25, 0 25.09 M0 25.09 C-0.02 18.04, 0.27 11.6, 0 0 M0 25.09 C0.22 18.02, -0.18 10.77, 0 0" stroke="#000000" stroke-width="1" fill="none"></path></g><g stroke-linecap="round" transform="translate(684.836031271985 279.559165984028) rotate(89.6698853119712 11.84717044003105 12.544062818856474)"><path d="M0 0 C5.22 -0.27, 9.95 0.25, 23.69 0 M0 0 C5.26 -0.18, 10.81 0.09, 23.69 0 M23.69 0 C24.04 5.34, 23.28 10.35, 23.69 25.09 M23.69 0 C23.76 8.07, 23.71 15.76, 23.69 25.09 M23.69 25.09 C15.3 25.09, 6.12 25.29, 0 25.09 M23.69 25.09 C15.91 25.2, 7.89 25.25, 0 25.09 M0 25.09 C0.32 16.93, -0.06 8.74, 0 0 M0 25.09 C-0.25 16.83, 0.16 8.45, 0 0" stroke="#000000" stroke-width="1" fill="none"></path></g><g stroke-linecap="round" transform="translate(684.97254755187 303.2531135877069) rotate(89.6698853119712 11.847170440031164 12.544062818856474)"><path d="M0 0 C8.47 0.3, 16.09 -0.15, 23.69 0 M0 0 C5.9 0.11, 11.85 0.04, 23.69 0 M23.69 0 C23.33 9.25, 23.81 19.43, 23.69 25.09 M23.69 0 C23.68 8.55, 23.86 17.22, 23.69 25.09 M23.69 25.09 C15.76 25.27, 7.95 25.41, 0 25.09 M23.69 25.09 C17.92 25.32, 12.34 25.14, 0 25.09 M0 25.09 C-0.1 19.35, 0.09 14.3, 0 0 M0 25.09 C0.26 16.18, -0.09 7.41, 0 0" stroke="#000000" stroke-width="1" fill="none"></path></g><g transform="translate(659.4333368937176 55) rotate(0 43.13333511352539 12.5)"><text x="0" y="0" font-family="Virgil, Segoe UI Emoji" font-size="20px" fill="#1e1e1e" text-anchor="start" style="white-space: pre;" direction="ltr" dominant-baseline="text-before-edge">buffer id</text></g><g stroke-linecap="round"><g transform="translate(828.3467322216876 86.41530806546174) rotate(0 -20.673645447808212 14.31351878398992)"><path d="M0 0 C0.01 -2.31, 0.02 -4.62, 0.04 -9.43 M0 0 C0.01 -3.46, 0.03 -6.92, 0.04 -9.43 M0.04 -9.43 C-13.66 -9.53, -27.35 -9.63, -41.33 -9.73 M0.04 -9.43 C-12.9 -9.52, -25.84 -9.62, -41.33 -9.73 M-41.33 -9.73 C-41.38 0.32, -41.44 10.36, -41.58 38.13 M-41.33 -9.73 C-41.41 5.36, -41.49 20.45, -41.58 38.13 M-41.58 38.13 C-30.13 38.19, -18.67 38.25, 0.2 38.36 M-41.58 38.13 C-28.92 38.2, -16.26 38.27, 0.2 38.36 M0.2 38.36 C0.21 27.12, 0.23 15.89, 0.24 9.54 M0.2 38.36 C0.21 31.16, 0.22 23.96, 0.24 9.54" stroke="#000" stroke-width="4" fill="none"></path></g></g><mask></mask><g stroke-linecap="round"><g transform="translate(797.84898674115 91.3645699749253) rotate(0 9.768729206919033 -0.036517609664770134)"><path d="M0 0 C5.72 -0.02, 11.44 -0.04, 19.54 -0.07 M0 0 C6.09 -0.02, 12.18 -0.05, 19.54 -0.07" stroke="#3d71b7" stroke-width="4" fill="none"></path></g></g><mask></mask><g stroke-linecap="round"><g transform="translate(797.8501283828085 101.01559070361327) rotate(0 9.768729206919033 -0.036517609664770134)"><path d="M0 0 C7.1 -0.03, 14.2 -0.05, 19.54 -0.07 M0 0 C5.86 -0.02, 11.71 -0.04, 19.54 -0.07" stroke="#3d71b7" stroke-width="4" fill="none"></path></g></g><mask></mask><g stroke-linecap="round"><g transform="translate(798.1136162930019 110.42285601470303) rotate(0 4.809848234657238 0.06317830017017911)"><path d="M0 0 C2.53 0.03, 5.07 0.07, 9.62 0.13 M0 0 C2.01 0.03, 4.02 0.05, 9.62 0.13" stroke="#3d71b7" stroke-width="4" fill="none"></path></g></g><mask></mask><g stroke-linecap="round"><g transform="translate(828.1069823415258 156.68648121601007) rotate(0 -20.673645447808212 14.31351878398992)"><path d="M0 0 C0.01 -3.08, 0.02 -6.17, 0.04 -9.43 M0 0 C0.01 -3.45, 0.03 -6.9, 0.04 -9.43 M0.04 -9.43 C-10.49 -9.5, -21.01 -9.58, -41.33 -9.73 M0.04 -9.43 C-9.76 -9.5, -19.55 -9.57, -41.33 -9.73 M-41.33 -9.73 C-41.39 2.52, -41.46 14.76, -41.58 38.13 M-41.33 -9.73 C-41.42 8.25, -41.52 26.22, -41.58 38.13 M-41.58 38.13 C-26.83 38.21, -12.07 38.29, 0.2 38.36 M-41.58 38.13 C-30.38 38.19, -19.17 38.25, 0.2 38.36 M0.2 38.36 C0.21 27.18, 0.23 16, 0.24 9.54 M0.2 38.36 C0.21 27.94, 0.23 17.52, 0.24 9.54" stroke="#000" stroke-width="4" fill="none"></path></g></g><mask></mask><g stroke-linecap="round"><g transform="translate(797.6092368609883 161.6357431254736) rotate(0 9.768729206919033 -0.036517609664770134)"><path d="M0 0 C7.71 -0.03, 15.42 -0.06, 19.54 -0.07 M0 0 C6 -0.02, 12 -0.04, 19.54 -0.07" stroke="#2f9e44" stroke-width="4" fill="none"></path></g></g><mask></mask><g stroke-linecap="round"><g transform="translate(797.610378502647 171.28676385416162) rotate(0 9.768729206919033 -0.036517609664770134)"><path d="M0 0 C5.75 -0.02, 11.51 -0.04, 19.54 -0.07 M0 0 C5 -0.02, 9.99 -0.04, 19.54 -0.07" stroke="#2f9e44" stroke-width="4" fill="none"></path></g></g><mask></mask><g stroke-linecap="round"><g transform="translate(797.8738664128404 180.69402916525132) rotate(0 4.809848234657238 0.06317830017019332)"><path d="M0 0 C2.94 0.04, 5.87 0.08, 9.62 0.13 M0 0 C2.37 0.03, 4.74 0.06, 9.62 0.13" stroke="#2f9e44" stroke-width="4" fill="none"></path></g></g><mask></mask><g stroke-linecap="round"><g transform="translate(830.1069823415261 225.68648121601012) rotate(0 -20.673645447808212 14.313518783989906)"><path d="M0 0 C0.01 -2.35, 0.02 -4.7, 0.04 -9.43 M0 0 C0.01 -3.66, 0.03 -7.33, 0.04 -9.43 M0.04 -9.43 C-13.46 -9.53, -26.95 -9.62, -41.33 -9.73 M0.04 -9.43 C-11.25 -9.51, -22.53 -9.59, -41.33 -9.73 M-41.33 -9.73 C-41.42 7.92, -41.52 25.58, -41.58 38.13 M-41.33 -9.73 C-41.4 3.85, -41.47 17.43, -41.58 38.13 M-41.58 38.13 C-26.87 38.21, -12.16 38.29, 0.2 38.36 M-41.58 38.13 C-24.98 38.22, -8.38 38.31, 0.2 38.36 M0.2 38.36 C0.21 30.19, 0.22 22.02, 0.24 9.54 M0.2 38.36 C0.21 28.61, 0.22 18.87, 0.24 9.54" stroke="#000" stroke-width="4" fill="none"></path></g></g><mask></mask><g stroke-linecap="round"><g transform="translate(799.6092368609885 230.63574312547365) rotate(0 9.768729206919033 -0.036517609664770134)"><path d="M0 0 C5.66 -0.02, 11.32 -0.04, 19.54 -0.07 M0 0 C4.57 -0.02, 9.14 -0.03, 19.54 -0.07" stroke="#e03131" stroke-width="4" fill="none"></path></g></g><mask></mask><g stroke-linecap="round"><g transform="translate(799.6103785026468 240.28676385416162) rotate(0 9.768729206919033 -0.036517609664770134)"><path d="M0 0 C5.23 -0.02, 10.47 -0.04, 19.54 -0.07 M0 0 C4.94 -0.02, 9.87 -0.04, 19.54 -0.07" stroke="#e03131" stroke-width="4" fill="none"></path></g></g><mask></mask><g stroke-linecap="round"><g transform="translate(799.8738664128401 249.69402916525138) rotate(0 4.809848234657238 0.06317830017019332)"><path d="M0 0 C3.49 0.05, 6.97 0.09, 9.62 0.13 M0 0 C2.75 0.04, 5.51 0.07, 9.62 0.13" stroke="#e03131" stroke-width="4" fill="none"></path></g></g><mask></mask><g stroke-linecap="round"><g transform="translate(830.1069823415261 294.6864812160101) rotate(0 -20.673645447808212 14.313518783989906)"><path d="M0 0 C0.01 -2.54, 0.02 -5.07, 0.04 -9.43 M0 0 C0.01 -3.05, 0.02 -6.1, 0.04 -9.43 M0.04 -9.43 C-8.95 -9.49, -17.94 -9.56, -41.33 -9.73 M0.04 -9.43 C-12.53 -9.52, -25.09 -9.61, -41.33 -9.73 M-41.33 -9.73 C-41.41 6.07, -41.5 21.87, -41.58 38.13 M-41.33 -9.73 C-41.41 5.29, -41.49 20.31, -41.58 38.13 M-41.58 38.13 C-27.36 38.21, -13.13 38.28, 0.2 38.36 M-41.58 38.13 C-31.27 38.19, -20.95 38.24, 0.2 38.36 M0.2 38.36 C0.21 30.76, 0.22 23.16, 0.24 9.54 M0.2 38.36 C0.21 29.85, 0.22 21.35, 0.24 9.54" stroke="#000" stroke-width="4" fill="none"></path></g></g><mask></mask><g stroke-linecap="round"><g transform="translate(799.6092368609885 299.63574312547365) rotate(0 9.768729206919033 -0.036517609664770134)"><path d="M0 0 C4.57 -0.02, 9.13 -0.03, 19.54 -0.07 M0 0 C5.21 -0.02, 10.42 -0.04, 19.54 -0.07" stroke="#f08c00" stroke-width="4" fill="none"></path></g></g><mask></mask><g stroke-linecap="round"><g transform="translate(799.6103785026468 309.2867638541616) rotate(0 9.768729206919033 -0.036517609664770134)"><path d="M0 0 C5.16 -0.02, 10.32 -0.04, 19.54 -0.07 M0 0 C5.77 -0.02, 11.54 -0.04, 19.54 -0.07" stroke="#f08c00" stroke-width="4" fill="none"></path></g></g><mask></mask><g stroke-linecap="round"><g transform="translate(799.8738664128401 318.6940291652514) rotate(0 4.809848234657238 0.06317830017019332)"><path d="M0 0 C3.3 0.04, 6.61 0.09, 9.62 0.13 M0 0 C3.57 0.05, 7.14 0.09, 9.62 0.13" stroke="#f08c00" stroke-width="4" fill="none"></path></g></g><mask></mask><g stroke-linecap="round"><g transform="translate(696.4333368937176 102) rotate(0 43.452953800299156 0.026320758777785613)"><path d="M0.02 0.03 C14.54 0.06, 72.57 0.13, 87.05 0.14 M-0.15 -0.08 C14.37 -0.09, 72.47 -0.04, 86.96 -0.05" stroke="#1e1e1e" stroke-width="1" fill="none"></path></g><g transform="translate(696.4333368937176 102) rotate(0 43.452953800299156 0.026320758777785613)"><path d="M58.77 10.21 C65.75 7.78, 72.89 5.03, 86.96 -0.05 M58.77 10.21 C68.46 6.7, 78.43 3.03, 86.96 -0.05" stroke="#1e1e1e" stroke-width="1" fill="none"></path></g><g transform="translate(696.4333368937176 102) rotate(0 43.452953800299156 0.026320758777785613)"><path d="M58.77 -10.31 C65.75 -7.7, 72.88 -5.42, 86.96 -0.05 M58.77 -10.31 C68.46 -6.67, 78.43 -3.19, 86.96 -0.05" stroke="#1e1e1e" stroke-width="1" fill="none"></path></g></g><mask></mask><g stroke-linecap="round"><g transform="translate(695.9803830934187 171.97367924122221) rotate(0 43.45760994798309 -0.08318882620497448)"><path d="M0 -0.03 C14.49 -0.06, 72.6 -0.14, 87.09 -0.12 M-0.17 -0.17 C14.3 -0.2, 72.52 0, 87.02 0.01" stroke="#1e1e1e" stroke-width="1" fill="none"></path></g><g transform="translate(695.9803830934187 171.97367924122221) rotate(0 43.45760994798309 -0.08318882620497448)"><path d="M58.81 10.21 C69.84 6.36, 80.77 2.03, 87.02 0.01 M58.81 10.21 C69.07 6.52, 79.21 2.72, 87.02 0.01" stroke="#1e1e1e" stroke-width="1" fill="none"></path></g><g transform="translate(695.9803830934187 171.97367924122221) rotate(0 43.45760994798309 -0.08318882620497448)"><path d="M58.85 -10.31 C69.89 -6.08, 80.8 -2.34, 87.02 0.01 M58.85 -10.31 C69.12 -6.56, 79.25 -2.91, 87.02 0.01" stroke="#1e1e1e" stroke-width="1" fill="none"></path></g></g><mask></mask><g stroke-linecap="round"><g transform="translate(697.9803830934187 241.97367924122221) rotate(0 43.49950831492515 0.006783114610016128)"><path d="M0.05 0 C14.54 0.04, 72.38 0.13, 86.85 0.14 M-0.11 -0.13 C14.43 -0.11, 72.56 -0.03, 87.11 -0.04" stroke="#1e1e1e" stroke-width="1" fill="none"></path></g><g transform="translate(697.9803830934187 241.97367924122221) rotate(0 43.49950831492515 0.006783114610016128)"><path d="M58.91 10.21 C65.72 7.44, 72.81 5.01, 87.11 -0.04 M58.91 10.21 C68.69 6.83, 78.35 3.31, 87.11 -0.04" stroke="#1e1e1e" stroke-width="1" fill="none"></path></g><g transform="translate(697.9803830934187 241.97367924122221) rotate(0 43.49950831492515 0.006783114610016128)"><path d="M58.92 -10.31 C65.7 -8.13, 72.79 -5.61, 87.11 -0.04 M58.92 -10.31 C68.68 -6.67, 78.34 -3.15, 87.11 -0.04" stroke="#1e1e1e" stroke-width="1" fill="none"></path></g></g><mask></mask><g stroke-linecap="round"><g transform="translate(692.9803830934187 312.9736792412222) rotate(0 43.57250370905285 0.018622367659361316)"><path d="M0.13 0.1 C14.62 0.1, 72.37 0.14, 86.86 0.11 M0.02 0.02 C14.56 -0.03, 72.62 -0.1, 87.12 -0.08" stroke="#1e1e1e" stroke-width="1" fill="none"></path></g><g transform="translate(692.9803830934187 312.9736792412222) rotate(0 43.57250370905285 0.018622367659361316)"><path d="M58.93 10.19 C66.04 7.36, 73 5.29, 87.12 -0.08 M58.93 10.19 C66.44 7.36, 74.27 4.64, 87.12 -0.08" stroke="#1e1e1e" stroke-width="1" fill="none"></path></g><g transform="translate(692.9803830934187 312.9736792412222) rotate(0 43.57250370905285 0.018622367659361316)"><path d="M58.93 -10.33 C66.05 -8.12, 73.01 -5.15, 87.12 -0.08 M58.93 -10.33 C66.43 -7.6, 74.26 -4.77, 87.12 -0.08" stroke="#1e1e1e" stroke-width="1" fill="none"></path></g></g><mask></mask><g transform="translate(774.4333368937176 10) rotate(0 44.82500076293945 25)"><text x="0" y="0" font-family="Virgil, Segoe UI Emoji" font-size="20px" fill="#1e1e1e" text-anchor="start" style="white-space: pre;" direction="ltr" dominant-baseline="text-before-edge">data file</text><text x="0" y="25" font-family="Virgil, Segoe UI Emoji" font-size="20px" fill="#1e1e1e" text-anchor="start" style="white-space: pre;" direction="ltr" dominant-baseline="text-before-edge"> pages</text></g><g transform="translate(648.4333368937176 360) rotate(0 162.19166564941406 37.5)"><text x="0" y="0" font-family="Virgil, Segoe UI Emoji" font-size="20px" fill="#1e1e1e" text-anchor="start" style="white-space: pre;" direction="ltr" dominant-baseline="text-before-edge">The buffer pool is an array, </text><text x="0" y="25" font-family="Virgil, Segoe UI Emoji" font-size="20px" fill="#1e1e1e" text-anchor="start" style="white-space: pre;" direction="ltr" dominant-baseline="text-before-edge">where each slot stores one page</text><text x="0" y="50" font-family="Virgil, Segoe UI Emoji" font-size="20px" fill="#1e1e1e" text-anchor="start" style="white-space: pre;" direction="ltr" dominant-baseline="text-before-edge">of a data file.</text></g><g stroke-linecap="round"><g transform="translate(304.43333689371764 154) rotate(0 167.96493480561185 -1.037808013374189)"><path d="M0.04 0.08 C56.07 -0.3, 280.04 -1.82, 336.04 -2.15 M-0.11 -0.02 C55.9 -0.39, 279.93 -1.68, 335.95 -2.04" stroke="#1e1e1e" stroke-width="1" fill="none"></path></g><g transform="translate(304.43333689371764 154) rotate(0 167.96493480561185 -1.037808013374189)"><path d="M307.82 8.39 C314.7 5.97, 321 3.51, 335.95 -2.04 M307.82 8.39 C318.23 4.6, 328.57 0.85, 335.95 -2.04" stroke="#1e1e1e" stroke-width="1" fill="none"></path></g><g transform="translate(304.43333689371764 154) rotate(0 167.96493480561185 -1.037808013374189)"><path d="M307.7 -12.13 C314.62 -9.64, 320.95 -7.17, 335.95 -2.04 M307.7 -12.13 C318.16 -8.34, 328.54 -4.53, 335.95 -2.04" stroke="#1e1e1e" stroke-width="1" fill="none"></path></g></g><mask></mask><g stroke-linecap="round"><g transform="translate(73.43333689371764 617.3333333333333) rotate(0 -1.6048981573463266 337.4259771405551)"><path d="M-0.07 -0.08 C-0.61 112.41, -2.73 562.31, -3.25 674.79 M0.18 0.22 C-0.39 112.73, -2.82 562.48, -3.39 674.93" stroke="#1e1e1e" stroke-width="1" fill="none"></path></g></g><mask></mask><g stroke-linecap="round"><g transform="translate(321.927330211446 621.0178575411504) rotate(0 -2.643855577104432 332.3664176616295)"><path d="M-0.05 -0.07 C-0.94 110.76, -4.5 553.98, -5.4 664.81 M0.22 -0.24 C-0.69 110.61, -4.54 554.09, -5.51 664.97" stroke="#1e1e1e" stroke-width="1" fill="none"></path></g></g><mask></mask><g stroke-linecap="round"><g transform="translate(571.860173658985 618.0728459387017) rotate(0 -2.107878216828226 334.0803022782137)"><path d="M-0.07 -0.13 C-0.8 111.23, -3.59 556.76, -4.3 668.14 M0.19 0.14 C-0.57 111.52, -3.64 556.94, -4.4 668.29" stroke="#1e1e1e" stroke-width="1" fill="none"></path></g></g><mask></mask><g stroke-linecap="round"><g transform="translate(841.860173658985 622.0728459387017) rotate(0 -1.6174409880046596 332.4728897109589)"><path d="M-0.12 -0.07 C-0.66 110.78, -2.81 554.18, -3.33 665.02 M0.1 0.22 C-0.38 111.04, -2.46 554.07, -3.04 664.82" stroke="#1e1e1e" stroke-width="1" fill="none"></path></g></g><mask></mask><g stroke-linecap="round"><g transform="translate(800.734940364839 1339.6026318054223) rotate(0 50.889702770751 47.97566947690507)" fill-rule="evenodd"><path d="M0.34 -1.84 C-0.09 11.48, -0.33 64.96, -0.36 80.92 C-0.4 96.88, -1.89 90.86, 0.13 93.91 C2.15 96.95, 6.7 97.08, 11.75 99.2 C16.81 101.32, 23.8 105.35, 30.46 106.61 C37.12 107.86, 45.5 106.55, 51.71 106.73 C57.91 106.92, 62.45 108.59, 67.71 107.75 C72.98 106.91, 77.87 103.91, 83.29 101.7 C88.71 99.5, 97.67 97.99, 100.26 94.5 C102.85 91.02, 98.49 95.12, 98.83 80.81 C99.17 66.5, 102.31 22.07, 102.31 8.67 C102.31 -4.74, 101.65 2.73, 98.82 0.4 C96 -1.94, 89.27 -3.44, 85.39 -5.35 C81.5 -7.26, 80.75 -10.37, 75.52 -11.06 C70.29 -11.74, 59.41 -9.19, 54.02 -9.48 C48.63 -9.77, 48.84 -12.6, 43.17 -12.77 C37.5 -12.93, 26.83 -12.73, 20 -10.46 C13.18 -8.19, 5.2 -0.7, 2.21 0.86" stroke="none" stroke-width="0" fill="#228be6" fill-rule="evenodd"></path><path d="M0.53 1.15 C0.56 14.61, -0.08 65.9, 0.25 81.52 C0.59 97.14, 0.11 91.4, 2.54 94.87 C4.97 98.35, 9.97 100.39, 14.84 102.35 C19.71 104.32, 25.43 105.83, 31.74 106.65 C38.06 107.46, 46.43 107.35, 52.72 107.23 C59.01 107.1, 64.35 106.61, 69.47 105.91 C74.6 105.21, 78.43 104.68, 83.46 103.02 C88.5 101.35, 96.85 99.53, 99.67 95.93 C102.49 92.34, 100.03 95.61, 100.41 81.45 C100.79 67.3, 101.94 24.61, 101.96 11.01 C101.98 -2.6, 102.72 2.67, 100.51 -0.19 C98.3 -3.05, 93.33 -4.65, 88.7 -6.13 C84.06 -7.62, 78.21 -8.33, 72.71 -9.09 C67.21 -9.85, 60.69 -10.32, 55.69 -10.69 C50.7 -11.05, 48.96 -11.55, 42.76 -11.28 C36.55 -11.01, 25.45 -10.97, 18.46 -9.06 C11.48 -7.14, 3.98 -1.3, 0.86 0.2 M-0.65 0.7 C-0.76 13.72, -1.03 63.72, -0.56 79.54 C-0.09 95.36, -0.51 92.17, 2.17 95.63 C4.86 99.1, 10.29 98.95, 15.54 100.33 C20.79 101.71, 27.76 102.9, 33.67 103.92 C39.58 104.95, 45.43 106.33, 50.99 106.46 C56.55 106.59, 61.84 105.34, 67.04 104.72 C72.23 104.1, 77 104.39, 82.17 102.74 C87.35 101.1, 94.92 98.46, 98.07 94.85 C101.23 91.24, 100.33 94.93, 101.08 81.11 C101.83 67.3, 102.85 25.57, 102.56 11.96 C102.26 -1.65, 102.07 2.6, 99.29 -0.53 C96.51 -3.65, 90.48 -5.41, 85.87 -6.79 C81.26 -8.18, 76.56 -8.13, 71.64 -8.85 C66.73 -9.57, 61.08 -10.9, 56.39 -11.13 C51.7 -11.36, 50.02 -10.68, 43.49 -10.24 C36.96 -9.8, 24.45 -10.32, 17.21 -8.5 C9.96 -6.68, 2.59 -0.77, 0.02 0.67" stroke="#364fc7" stroke-width="1" fill="none"></path></g></g><mask></mask><g stroke-linecap="round" transform="translate(800.3614780875636 1327.2777777777778) rotate(0 50.62648340191515 13.76508157621231)"><path d="M45.27 -0.02 C54.58 -0.51, 67.55 0.45, 76.12 1.84 C84.69 3.23, 92.74 5.82, 96.72 8.33 C100.69 10.83, 101.99 14.21, 99.97 16.85 C97.94 19.5, 91.91 22.45, 84.55 24.21 C77.18 25.97, 65.68 27.14, 55.76 27.41 C45.84 27.69, 33.62 27.17, 25.04 25.85 C16.45 24.53, 8.23 21.95, 4.27 19.48 C0.3 17, -0.88 13.64, 1.24 11.01 C3.36 8.38, 9.59 5.51, 17 3.7 C24.4 1.89, 40.79 0.7, 45.68 0.14 C50.57 -0.43, 46.26 0.09, 46.33 0.3 M53.71 -0.07 C63.21 0.02, 75.43 1.76, 83.08 3.47 C90.73 5.19, 97.21 7.68, 99.6 10.23 C101.98 12.78, 101.03 16.3, 97.4 18.79 C93.77 21.29, 86.2 23.74, 77.82 25.21 C69.44 26.69, 57.1 27.79, 47.11 27.64 C37.12 27.48, 25.52 26.03, 17.88 24.3 C10.25 22.57, 3.67 19.81, 1.29 17.24 C-1.09 14.67, -0.17 11.37, 3.61 8.86 C7.39 6.36, 15.57 3.64, 23.98 2.19 C32.39 0.75, 49.04 0.49, 54.07 0.19 C59.11 -0.11, 54.23 0.21, 54.19 0.39" stroke="none" stroke-width="0" fill="#ffffff"></path><path d="M54.6 -0.06 C64.12 -0.05, 76.01 1.66, 83.56 3.46 C91.11 5.25, 97.58 8.15, 99.91 10.72 C102.24 13.29, 101.31 16.42, 97.53 18.89 C93.76 21.35, 85.7 24.07, 77.27 25.5 C68.84 26.93, 56.85 27.64, 46.96 27.46 C37.07 27.27, 25.52 26.1, 17.94 24.37 C10.35 22.64, 3.79 19.7, 1.43 17.1 C-0.92 14.5, 0.04 11.3, 3.81 8.77 C7.58 6.24, 15.52 3.35, 24.07 1.92 C32.62 0.49, 49.89 0.47, 55.12 0.19 C60.35 -0.1, 55.57 0.02, 55.46 0.23 M48.7 -0.01 C58.11 -0.28, 70.95 1.03, 79.2 2.49 C87.46 3.96, 94.88 6.27, 98.23 8.78 C101.57 11.28, 102.03 14.91, 99.26 17.5 C96.49 20.08, 89.46 22.69, 81.61 24.31 C73.76 25.93, 62.06 27.04, 52.14 27.21 C42.22 27.38, 30.29 26.79, 22.11 25.33 C13.94 23.88, 6.45 21, 3.07 18.49 C-0.3 15.99, -0.86 12.92, 1.85 10.3 C4.55 7.67, 11.47 4.49, 19.31 2.76 C27.15 1.02, 44.02 0.31, 48.9 -0.11 C53.78 -0.54, 48.54 0.03, 48.58 0.22" stroke="#364fc7" stroke-width="1" fill="none"></path></g><g transform="translate(804.4233707391453 1457.7222222222224) rotate(0 49.43333435058594 12.5)"><text x="49.43333435058594" y="0" font-family="Virgil, Segoe UI Emoji" font-size="20px" fill="#000000" text-anchor="middle" style="white-space: pre;" direction="ltr" dominant-baseline="text-before-edge">Database</text></g><g stroke-linecap="round"><g transform="translate(287.1712855281261 1352.8120452545527) rotate(0 48.95377007674858 46.109540024588114)" fill-rule="evenodd"><path d="M0 0 C0 0, 0 0, 0 0 M0 0 C0 0, 0 0, 0 0 M-0.26 6.4 C2.17 3.6, 4.6 0.8, 9.58 -4.92 M-0.26 6.4 C2.35 3.4, 4.95 0.4, 9.58 -4.92 M0.13 12.04 C5.35 6.04, 10.57 0.04, 17.85 -8.34 M0.13 12.04 C3.98 7.61, 7.84 3.18, 17.85 -8.34 M-0.13 18.44 C8.61 8.38, 17.35 -1.67, 23.49 -8.73 M-0.13 18.44 C6.44 10.88, 13.01 3.33, 23.49 -8.73 M0.27 24.08 C10.85 11.91, 21.44 -0.27, 29.79 -9.88 M0.27 24.08 C9.18 13.83, 18.08 3.58, 29.79 -9.88 M0 30.48 C9.78 19.23, 19.56 7.99, 34.78 -9.52 M0 30.48 C11.33 17.45, 22.66 4.42, 34.78 -9.52 M-0.26 36.88 C14.3 20.13, 28.85 3.39, 40.42 -9.91 M-0.26 36.88 C12.24 22.51, 24.73 8.13, 40.42 -9.91 M0.14 42.52 C12.54 28.26, 24.93 14, 46.06 -10.31 M0.14 42.52 C12.1 28.76, 24.07 14.99, 46.06 -10.31 M-0.12 48.92 C11.27 35.81, 22.66 22.7, 51.05 -9.95 M-0.12 48.92 C20.12 25.64, 40.35 2.35, 51.05 -9.95 M0.27 54.56 C11.83 41.26, 23.4 27.96, 56.04 -9.59 M0.27 54.56 C14.43 38.27, 28.59 21.98, 56.04 -9.59 M0.01 60.96 C16.14 42.4, 32.27 23.85, 61.02 -9.23 M0.01 60.96 C15.12 43.58, 30.23 26.19, 61.02 -9.23 M0.4 66.6 C23.06 40.54, 45.72 14.48, 66.01 -8.87 M0.4 66.6 C26.38 36.72, 52.36 6.83, 66.01 -8.87 M0.14 73 C27.01 42.09, 53.88 11.19, 71.65 -9.26 M0.14 73 C18.96 51.36, 37.77 29.71, 71.65 -9.26 M-0.12 79.4 C24.02 51.62, 48.17 23.85, 75.98 -8.15 M-0.12 79.4 C22.38 53.52, 44.87 27.64, 75.98 -8.15 M0.28 85.04 C18.73 63.81, 37.18 42.58, 80.32 -7.03 M0.28 85.04 C29.1 51.89, 57.92 18.73, 80.32 -7.03 M0.67 90.68 C29.02 58.07, 57.37 25.46, 84.65 -5.92 M0.67 90.68 C24.22 63.59, 47.77 36.5, 84.65 -5.92 M3.03 94.06 C27.45 65.97, 51.87 37.88, 88.98 -4.8 M3.03 94.06 C35.31 56.93, 67.6 19.79, 88.98 -4.8 M6.71 95.93 C24.09 75.94, 41.46 55.95, 92.65 -2.93 M6.71 95.93 C40.82 56.69, 74.93 17.46, 92.65 -2.93 M11.04 97.05 C42.59 60.75, 74.14 24.46, 95.67 -0.31 M11.04 97.05 C33.51 71.2, 55.97 45.36, 95.67 -0.31 M15.37 98.16 C39.19 70.76, 63 43.36, 98.03 3.07 M15.37 98.16 C32.73 78.19, 50.1 58.21, 98.03 3.07 M19.7 99.28 C44.44 70.81, 69.19 42.35, 98.43 8.71 M19.7 99.28 C43.65 71.73, 67.59 44.18, 98.43 8.71 M23.38 101.15 C49.83 70.72, 76.28 40.29, 98.17 15.11 M23.38 101.15 C38.62 83.61, 53.87 66.07, 98.17 15.11 M28.36 101.51 C49.95 76.68, 71.53 51.84, 98.56 20.75 M28.36 101.51 C48.37 78.49, 68.37 55.48, 98.56 20.75 M32.69 102.62 C54.89 77.09, 77.09 51.55, 98.3 27.15 M32.69 102.62 C57.68 73.88, 82.67 45.13, 98.3 27.15 M37.68 102.98 C57.76 79.89, 77.83 56.79, 98.04 33.55 M37.68 102.98 C56.99 80.77, 76.29 58.56, 98.04 33.55 M43.32 102.59 C63.33 79.57, 83.33 56.56, 98.43 39.19 M43.32 102.59 C57.79 85.94, 72.26 69.3, 98.43 39.19 M48.31 102.95 C65.81 82.81, 83.32 62.67, 98.17 45.59 M48.31 102.95 C60.26 89.2, 72.21 75.46, 98.17 45.59 M53.3 103.31 C68 86.39, 82.71 69.47, 97.91 51.99 M53.3 103.31 C66.19 88.47, 79.09 73.64, 97.91 51.99 M58.94 102.91 C70.97 89.08, 82.99 75.24, 98.3 57.63 M58.94 102.91 C74.44 85.08, 89.94 67.25, 98.3 57.63 M64.58 102.52 C75.35 90.14, 86.11 77.76, 98.04 64.03 M64.58 102.52 C71.92 94.08, 79.25 85.65, 98.04 64.03 M70.88 101.37 C79.49 91.47, 88.09 81.57, 97.78 70.43 M70.88 101.37 C77.62 93.62, 84.36 85.86, 97.78 70.43 M77.18 100.22 C81.45 95.3, 85.73 90.39, 98.18 76.07 M77.18 100.22 C84.12 92.23, 91.06 84.25, 98.18 76.07 M83.48 99.07 C87.8 94.1, 92.12 89.13, 97.91 82.47 M83.48 99.07 C89.21 92.48, 94.94 85.89, 97.91 82.47 M92.41 94.9 C93.56 93.57, 94.72 92.23, 97.65 88.86 M92.41 94.9 C93.56 93.57, 94.71 92.25, 97.65 88.86 M1.71 92.54 C1.71 92.54, 1.71 92.54, 1.71 92.54 M1.71 92.54 C1.71 92.54, 1.71 92.54, 1.71 92.54 M13.39 97.39 C10.81 95.15, 8.23 92.9, 0.56 86.24 M13.39 97.39 C10.8 95.14, 8.22 92.89, 0.56 86.24 M22.05 99.62 C15.91 94.28, 9.77 88.94, 0.17 80.59 M22.05 99.62 C15.47 93.9, 8.89 88.18, 0.17 80.59 M29.96 101.19 C19.59 92.18, 9.21 83.16, 0.53 75.61 M29.96 101.19 C20.83 93.25, 11.69 85.31, 0.53 75.61 M36.36 101.45 C21.9 88.89, 7.45 76.32, 0.13 69.96 M36.36 101.45 C28.19 94.35, 20.01 87.25, 0.13 69.96 M42.76 101.72 C31.59 92.01, 20.42 82.3, 0.49 64.98 M42.76 101.72 C30.15 90.75, 17.54 79.79, 0.49 64.98 M49.91 102.63 C34.18 88.96, 18.46 75.29, 0.1 59.33 M49.91 102.63 C31.19 86.36, 12.48 70.09, 0.1 59.33 M55.55 102.24 C38.61 87.52, 21.68 72.79, 0.46 54.35 M55.55 102.24 C42.49 90.88, 29.42 79.53, 0.46 54.35 M61.19 101.84 C46.39 88.98, 31.59 76.11, 0.06 48.7 M61.19 101.84 C40.91 84.21, 20.62 66.57, 0.06 48.7 M66.84 101.45 C51.3 87.94, 35.76 74.43, 0.42 43.72 M66.84 101.45 C45.8 83.16, 24.76 64.87, 0.42 43.72 M71.73 100.4 C45.13 77.28, 18.53 54.16, 0.03 38.07 M71.73 100.4 C43.51 75.88, 15.3 51.35, 0.03 38.07 M76.61 99.35 C47.85 74.35, 19.09 49.35, 0.39 33.09 M76.61 99.35 C57.85 83.04, 39.09 66.73, 0.39 33.09 M82.26 98.95 C59.54 79.21, 36.83 59.46, -0.01 27.44 M82.26 98.95 C51.1 71.86, 19.93 44.78, -0.01 27.44 M86.39 97.25 C64.72 78.41, 43.05 59.57, 0.35 22.46 M86.39 97.25 C64.63 78.33, 42.87 59.41, 0.35 22.46 M90.52 95.54 C62.19 70.91, 33.86 46.29, -0.04 16.81 M90.52 95.54 C70.16 77.83, 49.79 60.13, -0.04 16.81 M93.9 93.18 C60.82 64.42, 27.73 35.66, 0.32 11.83 M93.9 93.18 C67.37 70.11, 40.84 47.05, 0.32 11.83 M97.28 90.81 C76.11 72.41, 54.94 54.01, -0.07 6.18 M97.28 90.81 C59.56 58.02, 21.83 25.23, -0.07 6.18 M97.64 85.83 C62.66 55.42, 27.68 25.01, 0.29 1.2 M97.64 85.83 C77.88 68.65, 58.12 51.47, 0.29 1.2 M98 80.84 C68.74 55.41, 39.48 29.97, 2.91 -1.82 M98 80.84 C75.08 60.91, 52.15 40.98, 2.91 -1.82 M97.61 75.2 C67.95 49.41, 38.29 23.63, 7.04 -3.53 M97.61 75.2 C61.81 44.08, 26.01 12.96, 7.04 -3.53 M97.97 70.21 C73.24 48.71, 48.51 27.22, 10.42 -5.89 M97.97 70.21 C73.54 48.98, 49.12 27.75, 10.42 -5.89 M97.57 64.57 C72.86 43.09, 48.15 21.61, 14.56 -7.6 M97.57 64.57 C67.44 38.37, 37.3 12.17, 14.56 -7.6 M97.93 59.58 C80.51 44.44, 63.09 29.29, 19.44 -8.65 M97.93 59.58 C73.35 38.21, 48.77 16.84, 19.44 -8.65 M97.54 53.94 C76.27 35.44, 54.99 16.95, 24.33 -9.7 M97.54 53.94 C73.56 33.09, 49.57 12.24, 24.33 -9.7 M97.9 48.95 C71.57 26.06, 45.24 3.18, 29.98 -10.09 M97.9 48.95 C79.26 32.75, 60.62 16.54, 29.98 -10.09 M98.26 43.96 C78.71 26.97, 59.16 9.98, 34.86 -11.15 M98.26 43.96 C83.73 31.34, 69.21 18.71, 34.86 -11.15 M97.86 38.32 C85.3 27.39, 72.73 16.47, 41.26 -10.88 M97.86 38.32 C85.85 27.88, 73.84 17.43, 41.26 -10.88 M98.22 33.33 C81.07 18.42, 63.92 3.51, 46.9 -11.28 M98.22 33.33 C81.47 18.77, 64.71 4.2, 46.9 -11.28 M97.83 27.69 C82.28 14.17, 66.73 0.65, 53.3 -11.02 M97.83 27.69 C84.7 16.28, 71.57 4.86, 53.3 -11.02 M98.19 22.7 C85.38 11.57, 72.57 0.43, 59.7 -10.76 M98.19 22.7 C82.89 9.41, 67.6 -3.89, 59.7 -10.76 M97.8 17.06 C85.93 6.74, 74.06 -3.57, 66.1 -10.49 M97.8 17.06 C91.16 11.29, 84.52 5.52, 66.1 -10.49 M98.16 12.07 C91.93 6.66, 85.71 1.25, 73.25 -9.58 M98.16 12.07 C89.73 4.75, 81.31 -2.57, 73.25 -9.58 M97.76 6.43 C93.26 2.52, 88.76 -1.39, 81.91 -7.35 M97.76 6.43 C92.03 1.45, 86.3 -3.53, 81.91 -7.35 M98.12 1.44 C96.68 0.19, 95.24 -1.07, 91.33 -4.46 M98.12 1.44 C95.65 -0.71, 93.18 -2.86, 91.33 -4.46" stroke="#4c6ef5" stroke-width="0.5" fill="none"></path><path d="M0 0 C0 13.06, -0.29 62.94, 0 78.37 C0.29 93.79, -0.53 89.31, 1.71 92.54 C3.96 95.77, 8.58 96.19, 13.48 97.75 C18.38 99.3, 25.03 101, 31.1 101.86 C37.17 102.73, 44.09 102.93, 49.9 102.93 C55.7 102.93, 60.76 102.48, 65.94 101.87 C71.12 101.25, 75.98 100.89, 80.99 99.25 C86 97.6, 93.33 95.46, 96 91.98 C98.67 88.5, 96.72 91.92, 97.03 78.37 C97.33 64.82, 97.91 23.79, 97.84 10.67 C97.77 -2.44, 98.84 2.47, 96.6 -0.34 C94.37 -3.16, 88.74 -4.68, 84.44 -6.22 C80.14 -7.75, 76.03 -8.83, 70.79 -9.55 C65.56 -10.26, 57.88 -10.37, 53.05 -10.52 C48.22 -10.68, 47.66 -10.85, 41.79 -10.5 C35.91 -10.14, 24.77 -10.13, 17.81 -8.38 C10.84 -6.63, 2.97 -1.4, 0 0 M0 0 C0 13.06, -0.29 62.94, 0 78.37 C0.29 93.79, -0.53 89.31, 1.71 92.54 C3.96 95.77, 8.58 96.19, 13.48 97.75 C18.38 99.3, 25.03 101, 31.1 101.86 C37.17 102.73, 44.09 102.93, 49.9 102.93 C55.7 102.93, 60.76 102.48, 65.94 101.87 C71.12 101.25, 75.98 100.89, 80.99 99.25 C86 97.6, 93.33 95.46, 96 91.98 C98.67 88.5, 96.72 91.92, 97.03 78.37 C97.33 64.82, 97.91 23.79, 97.84 10.67 C97.77 -2.44, 98.84 2.47, 96.6 -0.34 C94.37 -3.16, 88.74 -4.68, 84.44 -6.22 C80.14 -7.75, 76.03 -8.83, 70.79 -9.55 C65.56 -10.26, 57.88 -10.37, 53.05 -10.52 C48.22 -10.68, 47.66 -10.85, 41.79 -10.5 C35.91 -10.14, 24.77 -10.13, 17.81 -8.38 C10.84 -6.63, 2.97 -1.4, 0 0" stroke="#364fc7" stroke-width="1" fill="none"></path></g></g><mask></mask><g stroke-linecap="round" transform="translate(287.46907919828425 1340.816851772176) rotate(0 48.833389373249474 13.27754849234293)"><path d="M97.67 13.28 C97.67 13.97, 97.46 14.67, 97.07 15.35 C96.67 16.04, 96.06 16.72, 95.28 17.38 C94.49 18.04, 93.5 18.69, 92.34 19.31 C91.19 19.92, 89.84 20.52, 88.34 21.08 C86.84 21.64, 85.16 22.18, 83.36 22.67 C81.56 23.16, 79.6 23.61, 77.54 24.02 C75.48 24.43, 73.27 24.79, 71 25.11 C68.73 25.42, 66.35 25.69, 63.92 25.91 C61.5 26.12, 58.99 26.28, 56.47 26.39 C53.96 26.5, 51.38 26.56, 48.83 26.56 C46.29 26.56, 43.71 26.5, 41.19 26.39 C38.68 26.28, 36.16 26.12, 33.74 25.91 C31.32 25.69, 28.93 25.42, 26.66 25.11 C24.39 24.79, 22.19 24.43, 20.13 24.02 C18.07 23.61, 16.1 23.16, 14.3 22.67 C12.5 22.18, 10.82 21.64, 9.33 21.08 C7.83 20.52, 6.48 19.92, 5.32 19.31 C4.17 18.69, 3.18 18.04, 2.39 17.38 C1.6 16.72, 1 16.04, 0.6 15.35 C0.2 14.67, 0 13.97, 0 13.28 C0 12.59, 0.2 11.88, 0.6 11.2 C1 10.52, 1.6 9.83, 2.39 9.17 C3.18 8.52, 4.17 7.87, 5.32 7.25 C6.48 6.63, 7.83 6.03, 9.33 5.47 C10.82 4.91, 12.5 4.38, 14.3 3.89 C16.1 3.4, 18.07 2.94, 20.13 2.54 C22.19 2.13, 24.39 1.76, 26.66 1.45 C28.93 1.13, 31.32 0.86, 33.74 0.65 C36.16 0.44, 38.68 0.27, 41.19 0.16 C43.71 0.06, 46.29 0, 48.83 0 C51.38 0, 53.96 0.06, 56.47 0.16 C58.99 0.27, 61.5 0.44, 63.92 0.65 C66.35 0.86, 68.73 1.13, 71 1.45 C73.27 1.76, 75.48 2.13, 77.54 2.54 C79.6 2.94, 81.56 3.4, 83.36 3.89 C85.16 4.38, 86.84 4.91, 88.34 5.47 C89.84 6.03, 91.19 6.63, 92.34 7.25 C93.5 7.87, 94.49 8.52, 95.28 9.17 C96.06 9.83, 96.67 10.52, 97.07 11.2 C97.46 11.88, 97.57 12.93, 97.67 13.28 C97.77 13.62, 97.77 12.93, 97.67 13.28" stroke="none" stroke-width="0" fill="#ffffff"></path><path d="M97.67 13.28 C97.67 13.97, 97.46 14.67, 97.07 15.35 C96.67 16.04, 96.06 16.72, 95.28 17.38 C94.49 18.04, 93.5 18.69, 92.34 19.31 C91.19 19.92, 89.84 20.52, 88.34 21.08 C86.84 21.64, 85.16 22.18, 83.36 22.67 C81.56 23.16, 79.6 23.61, 77.54 24.02 C75.48 24.43, 73.27 24.79, 71 25.11 C68.73 25.42, 66.35 25.69, 63.92 25.91 C61.5 26.12, 58.99 26.28, 56.47 26.39 C53.96 26.5, 51.38 26.56, 48.83 26.56 C46.29 26.56, 43.71 26.5, 41.19 26.39 C38.68 26.28, 36.16 26.12, 33.74 25.91 C31.32 25.69, 28.93 25.42, 26.66 25.11 C24.39 24.79, 22.19 24.43, 20.13 24.02 C18.07 23.61, 16.1 23.16, 14.3 22.67 C12.5 22.18, 10.82 21.64, 9.33 21.08 C7.83 20.52, 6.48 19.92, 5.32 19.31 C4.17 18.69, 3.18 18.04, 2.39 17.38 C1.6 16.72, 1 16.04, 0.6 15.35 C0.2 14.67, 0 13.97, 0 13.28 C0 12.59, 0.2 11.88, 0.6 11.2 C1 10.52, 1.6 9.83, 2.39 9.17 C3.18 8.52, 4.17 7.87, 5.32 7.25 C6.48 6.63, 7.83 6.03, 9.33 5.47 C10.82 4.91, 12.5 4.38, 14.3 3.89 C16.1 3.4, 18.07 2.94, 20.13 2.54 C22.19 2.13, 24.39 1.76, 26.66 1.45 C28.93 1.13, 31.32 0.86, 33.74 0.65 C36.16 0.44, 38.68 0.27, 41.19 0.16 C43.71 0.06, 46.29 0, 48.83 0 C51.38 0, 53.96 0.06, 56.47 0.16 C58.99 0.27, 61.5 0.44, 63.92 0.65 C66.35 0.86, 68.73 1.13, 71 1.45 C73.27 1.76, 75.48 2.13, 77.54 2.54 C79.6 2.94, 81.56 3.4, 83.36 3.89 C85.16 4.38, 86.84 4.91, 88.34 5.47 C89.84 6.03, 91.19 6.63, 92.34 7.25 C93.5 7.87, 94.49 8.52, 95.28 9.17 C96.06 9.83, 96.67 10.52, 97.07 11.2 C97.46 11.88, 97.57 12.93, 97.67 13.28 C97.77 13.62, 97.77 12.93, 97.67 13.28" stroke="#364fc7" stroke-width="1" fill="none"></path></g><g transform="translate(265.0027838812938 1461.2777777777778) rotate(0 76.54166412353516 12.5)"><text x="76.54166412353516" y="0" font-family="Virgil, Segoe UI Emoji" font-size="20px" fill="#000000" text-anchor="middle" style="white-space: pre;" direction="ltr" dominant-baseline="text-before-edge">Buffer manager</text></g><g stroke-linecap="round" transform="translate(547.9099137857075 1333.5219986895224) rotate(89.6698853119712 5.667131446974281 6.000492120325703)"><path d="M0 0 C3.61 -0.13, 7.68 -0.09, 11.33 0 M0 0 C3.21 0.03, 6.51 0.09, 11.33 0 M11.33 0 C11.22 2.91, 11.43 5.6, 11.33 12 M11.33 0 C11.23 3.69, 11.35 7.5, 11.33 12 M11.33 12 C8.4 11.82, 5.63 12, 0 12 M11.33 12 C9.1 11.91, 6.82 12.08, 0 12 M0 12 C0.17 7.54, -0.11 2.64, 0 0 M0 12 C0.02 8.11, -0.08 4.14, 0 0" stroke="#000000" stroke-width="1" fill="none"></path></g><g stroke-linecap="round" transform="translate(547.9752167799267 1344.8560734584673) rotate(89.6698853119712 5.667131446974281 6.000492120325703)"><path d="M0 0 C4.41 -0.06, 8.58 0, 11.33 0 M0 0 C2.95 0.07, 5.78 0.09, 11.33 0 M11.33 0 C11.4 3.45, 11.34 6.93, 11.33 12 M11.33 0 C11.34 4.73, 11.26 9.42, 11.33 12 M11.33 12 C7.45 11.97, 3.54 11.83, 0 12 M11.33 12 C7.71 12.06, 4.05 12.06, 0 12 M0 12 C-0.11 9.47, 0.03 7.04, 0 0 M0 12 C-0.09 8.16, 0.03 4.41, 0 0" stroke="#000000" stroke-width="1" fill="none"></path></g><g stroke-linecap="round" transform="translate(548.0406078051429 1356.205427004677) rotate(89.6698853119712 5.667131446974281 6.000492120325703)"><path d="M0 0 C2.69 0, 5.35 -0.06, 11.33 0 M0 0 C3.63 0.07, 7.38 -0.08, 11.33 0 M11.33 0 C11.36 3.84, 11.52 7.78, 11.33 12 M11.33 0 C11.29 3.36, 11.38 6.49, 11.33 12 M11.33 12 C8.82 11.85, 6.73 12.1, 0 12 M11.33 12 C9.1 12.1, 6.61 12.1, 0 12 M0 12 C0.06 7.33, 0.04 2.9, 0 0 M0 12 C0.05 8.17, -0.06 4.39, 0 0" stroke="#000000" stroke-width="1" fill="none"></path></g><g stroke-linecap="round" transform="translate(548.105910799362 1367.5395017736266) rotate(89.6698853119712 5.667131446974281 6.000492120325703)"><path d="M0 0 C2.87 -0.06, 5.95 0.06, 11.33 0 M0 0 C4.33 -0.08, 8.7 0.02, 11.33 0 M11.33 0 C11.52 2.91, 11.28 6.25, 11.33 12 M11.33 0 C11.36 4.24, 11.23 8.56, 11.33 12 M11.33 12 C8.05 12.09, 4.48 12.1, 0 12 M11.33 12 C6.96 12.11, 2.85 11.97, 0 12 M0 12 C0.03 9.07, 0.03 5.91, 0 0 M0 12 C-0.08 9.02, 0.07 6.05, 0 0" stroke="#000000" stroke-width="1" fill="none"></path></g><g stroke-linecap="round" transform="translate(548.1718540190144 1378.9846949226599) rotate(89.6698853119712 5.667131446974281 6.000492120325703)"><path d="M0 0 C3.39 0.06, 6.84 -0.12, 11.33 0 M0 0 C4.49 0.05, 8.88 0.02, 11.33 0 M11.33 0 C11.3 2.8, 11.47 5.4, 11.33 12 M11.33 0 C11.24 4.49, 11.34 8.97, 11.33 12 M11.33 12 C8.63 12.13, 6.45 12.18, 0 12 M11.33 12 C7.08 11.97, 2.61 12.04, 0 12 M0 12 C0.03 8.86, -0.11 6.14, 0 0 M0 12 C0.09 8.56, 0.07 5.1, 0 0" stroke="#000000" stroke-width="1" fill="none"></path></g><g stroke-linecap="round" transform="translate(548.237157013234 1390.3187696916077) rotate(89.6698853119712 5.667131446974281 6.000492120325703)"><path d="M0 0 C3.17 -0.13, 6.21 -0.02, 11.33 0 M0 0 C2.64 0, 5.3 0.08, 11.33 0 M11.33 0 C11.45 2.38, 11.49 5.05, 11.33 12 M11.33 0 C11.31 2.75, 11.23 5.74, 11.33 12 M11.33 12 C7.48 12.18, 3.48 11.82, 0 12 M11.33 12 C6.84 12.02, 2.4 12.01, 0 12 M0 12 C-0.11 8.33, -0.02 4.37, 0 0 M0 12 C0.04 8.26, 0.09 4.47, 0 0" stroke="#000000" stroke-width="1" fill="none"></path></g><g stroke-linecap="round" transform="translate(548.3024600074531 1401.6528444605556) rotate(89.6698853119712 5.667131446974281 6.000492120325703)"><path d="M0 0 C3.92 0, 7.35 0.07, 11.33 0 M0 0 C3.76 0.08, 7.57 -0.03, 11.33 0 M11.33 0 C11.51 3.98, 11.22 7.62, 11.33 12 M11.33 0 C11.25 3.11, 11.39 6.07, 11.33 12 M11.33 12 C7.41 11.83, 3.34 12.17, 0 12 M11.33 12 C8.41 12.02, 5.6 12.02, 0 12 M0 12 C-0.01 9.29, 0.04 7.02, 0 0 M0 12 C0.09 7.94, 0.06 3.86, 0 0" stroke="#000000" stroke-width="1" fill="none"></path></g><g stroke-linecap="round" transform="translate(548.367763001672 1412.9869192295014) rotate(89.6698853119712 5.667131446974281 6.000492120325703)"><path d="M0 0 C2.56 0.06, 5.44 -0.08, 11.33 0 M0 0 C3.43 -0.04, 7.05 0.04, 11.33 0 M11.33 0 C11.22 2.78, 11.26 5.94, 11.33 12 M11.33 0 C11.37 2.32, 11.38 4.92, 11.33 12 M11.33 12 C7.14 12.14, 2.51 11.88, 0 12 M11.33 12 C7.66 12.02, 3.87 11.96, 0 12 M0 12 C0.04 8.13, 0.09 4.06, 0 0 M0 12 C0.05 7.8, -0.01 3.3, 0 0" stroke="#000000" stroke-width="1" fill="none"></path></g><g stroke-linecap="round" transform="translate(548.4317855450239 1424.0987572382742) rotate(89.6698853119712 5.667131446974281 6.000492120325703)"><path d="M0 0 C3.42 -0.09, 6.7 -0.14, 11.33 0 M0 0 C4.44 0.06, 8.77 0.08, 11.33 0 M11.33 0 C11.23 4.02, 11.12 7.9, 11.33 12 M11.33 0 C11.41 3.98, 11.43 7.89, 11.33 12 M11.33 12 C8.95 11.91, 6.8 11.91, 0 12 M11.33 12 C7.67 11.96, 4.21 11.99, 0 12 M0 12 C0.09 9.38, 0.12 6.76, 0 0 M0 12 C-0.01 7.57, 0.08 3.27, 0 0" stroke="#000000" stroke-width="1" fill="none"></path></g><g stroke-linecap="round" transform="translate(548.497088539243 1435.432832007221) rotate(89.6698853119712 5.667131446974281 6.000492120325703)"><path d="M0 0 C3.78 -0.13, 7.7 -0.17, 11.33 0 M0 0 C3.05 0.06, 6.23 -0.07, 11.33 0 M11.33 0 C11.12 2.3, 11.38 5.03, 11.33 12 M11.33 0 C11.43 2.54, 11.25 5, 11.33 12 M11.33 12 C7.07 11.89, 2.75 12.01, 0 12 M11.33 12 C7.76 11.98, 4.05 12.01, 0 12 M0 12 C0.11 7.73, 0.12 3.2, 0 0 M0 12 C0.09 7.15, 0.01 2.44, 0 0" stroke="#000000" stroke-width="1" fill="none"></path></g><g stroke-linecap="round"><g transform="translate(617.0805832006469 1331.7077819804424) rotate(0 -9.889303680901776 6.846916977197907)" fill-rule="evenodd"><path d="M0 0 L0.02 -4.51 L-19.77 -4.65 L-19.89 18.24 L0.1 18.35 L0.11 4.56" stroke="none" stroke-width="0" fill="#ff00" fill-rule="evenodd"></path><path d="M0 0 C0 -1.03, 0.01 -2.07, 0.02 -4.51 M0 0 C0.01 -1.7, 0.01 -3.41, 0.02 -4.51 M0.02 -4.51 C-4.37 -4.54, -8.76 -4.57, -19.77 -4.65 M0.02 -4.51 C-7.55 -4.56, -15.12 -4.62, -19.77 -4.65 M-19.77 -4.65 C-19.8 1, -19.83 6.66, -19.89 18.24 M-19.77 -4.65 C-19.81 1.99, -19.84 8.63, -19.89 18.24 M-19.89 18.24 C-11.9 18.28, -3.91 18.33, 0.1 18.35 M-19.89 18.24 C-15.01 18.27, -10.12 18.29, 0.1 18.35 M0.1 18.35 C0.1 15.15, 0.1 11.96, 0.11 4.56 M0.1 18.35 C0.1 14.03, 0.11 9.72, 0.11 4.56 M0.11 4.56 C0.08 3.24, 0.05 1.91, 0 0 M0.11 4.56 C0.07 2.97, 0.03 1.37, 0 0" stroke="#000" stroke-width="4" fill="none"></path></g></g><mask></mask><g stroke-linecap="round"><g transform="translate(602.4918902001167 1334.0752770670042) rotate(0 4.672902509990422 -0.01746831407103855)"><path d="M0 0 C1.94 -0.01, 3.88 -0.01, 9.35 -0.03 M0 0 C2.22 -0.01, 4.45 -0.02, 9.35 -0.03" stroke="#3d71b7" stroke-width="4" fill="none"></path></g></g><mask></mask><g stroke-linecap="round"><g transform="translate(602.4924363080146 1338.6918733541766) rotate(0 4.672902509990422 -0.01746831407103855)"><path d="M0 0 C3.04 -0.01, 6.08 -0.02, 9.35 -0.03 M0 0 C2.4 -0.01, 4.8 -0.02, 9.35 -0.03" stroke="#3d71b7" stroke-width="4" fill="none"></path></g></g><mask></mask><g stroke-linecap="round"><g transform="translate(602.618476583143 1343.1918684664583) rotate(0 2.300806114318675 0.03022153968947805)"><path d="M0 0 C1.14 0.01, 2.28 0.03, 4.6 0.06 M0 0 C0.93 0.01, 1.85 0.02, 4.6 0.06" stroke="#3d71b7" stroke-width="4" fill="none"></path></g></g><mask></mask><g stroke-linecap="round"><g transform="translate(616.9658980872563 1365.322219891424) rotate(0 -9.889303680901776 6.846916977197907)" fill-rule="evenodd"><path d="M0 0 L0.02 -4.51 L-19.77 -4.65 L-19.89 18.24 L0.1 18.35 L0.11 4.56" stroke="none" stroke-width="0" fill="#ff00" fill-rule="evenodd"></path><path d="M0 0 C0.01 -1.51, 0.01 -3.03, 0.02 -4.51 M0 0 C0.01 -1.47, 0.01 -2.93, 0.02 -4.51 M0.02 -4.51 C-3.98 -4.54, -7.98 -4.57, -19.77 -4.65 M0.02 -4.51 C-6.23 -4.55, -12.48 -4.6, -19.77 -4.65 M-19.77 -4.65 C-19.8 0.54, -19.83 5.74, -19.89 18.24 M-19.77 -4.65 C-19.81 3.62, -19.86 11.88, -19.89 18.24 M-19.89 18.24 C-13.64 18.27, -7.39 18.31, 0.1 18.35 M-19.89 18.24 C-14.45 18.27, -9.01 18.3, 0.1 18.35 M0.1 18.35 C0.1 14.64, 0.1 10.93, 0.11 4.56 M0.1 18.35 C0.1 13.75, 0.11 9.15, 0.11 4.56 M0.11 4.56 C0.07 2.96, 0.03 1.36, 0 0 M0.11 4.56 C0.07 2.89, 0.03 1.22, 0 0" stroke="#000" stroke-width="4" fill="none"></path></g></g><mask></mask><g stroke-linecap="round"><g transform="translate(602.3772050867261 1367.689714977986) rotate(0 4.672902509990422 -0.01746831407103855)"><path d="M0 0 C1.92 -0.01, 3.83 -0.01, 9.35 -0.03 M0 0 C1.91 -0.01, 3.82 -0.01, 9.35 -0.03" stroke="#2f9e44" stroke-width="4" fill="none"></path></g></g><mask></mask><g stroke-linecap="round"><g transform="translate(602.377751194624 1372.3063112651582) rotate(0 4.672902509990422 -0.01746831407103855)"><path d="M0 0 C2.75 -0.01, 5.5 -0.02, 9.35 -0.03 M0 0 C3.53 -0.01, 7.06 -0.03, 9.35 -0.03" stroke="#2f9e44" stroke-width="4" fill="none"></path></g></g><mask></mask><g stroke-linecap="round"><g transform="translate(602.5037914697524 1376.80630637744) rotate(0 2.300806114318675 0.03022153968947805)"><path d="M0 0 C1.02 0.01, 2.04 0.03, 4.6 0.06 M0 0 C1.76 0.02, 3.52 0.05, 4.6 0.06" stroke="#2f9e44" stroke-width="4" fill="none"></path></g></g><mask></mask><g stroke-linecap="round"><g transform="translate(617.9226044123087 1398.328588105723) rotate(0 -9.889303680901776 6.846916977197907)" fill-rule="evenodd"><path d="M0 0 L0.02 -4.51 L-19.77 -4.65 L-19.89 18.24 L0.1 18.35 L0.11 4.56" stroke="none" stroke-width="0" fill="#ff00" fill-rule="evenodd"></path><path d="M0 0 C0.01 -1.59, 0.01 -3.19, 0.02 -4.51 M0 0 C0.01 -1.77, 0.01 -3.53, 0.02 -4.51 M0.02 -4.51 C-6.15 -4.55, -12.32 -4.6, -19.77 -4.65 M0.02 -4.51 C-6.25 -4.55, -12.51 -4.6, -19.77 -4.65 M-19.77 -4.65 C-19.82 3.88, -19.86 12.41, -19.89 18.24 M-19.77 -4.65 C-19.81 2.87, -19.85 10.4, -19.89 18.24 M-19.89 18.24 C-14.96 18.27, -10.03 18.29, 0.1 18.35 M-19.89 18.24 C-13.76 18.27, -7.62 18.31, 0.1 18.35 M0.1 18.35 C0.1 15.57, 0.1 12.8, 0.11 4.56 M0.1 18.35 C0.1 13.49, 0.11 8.62, 0.11 4.56 M0.11 4.56 C0.07 2.74, 0.02 0.92, 0 0 M0.11 4.56 C0.08 3.4, 0.06 2.24, 0 0" stroke="#000" stroke-width="4" fill="none"></path></g></g><mask></mask><g stroke-linecap="round"><g transform="translate(603.3339114117783 1400.6960831922845) rotate(0 4.672902509990422 -0.01746831407103855)"><path d="M0 0 C3.37 -0.01, 6.74 -0.03, 9.35 -0.03 M0 0 C2.37 -0.01, 4.73 -0.02, 9.35 -0.03" stroke="#e03131" stroke-width="4" fill="none"></path></g></g><mask></mask><g stroke-linecap="round"><g transform="translate(603.3344575196762 1405.312679479457) rotate(0 4.672902509990422 -0.01746831407103855)"><path d="M0 0 C3.6 -0.01, 7.2 -0.03, 9.35 -0.03 M0 0 C3.04 -0.01, 6.08 -0.02, 9.35 -0.03" stroke="#e03131" stroke-width="4" fill="none"></path></g></g><mask></mask><g stroke-linecap="round"><g transform="translate(603.4604977948046 1409.8126745917386) rotate(0 2.300806114318675 0.03022153968947805)"><path d="M0 0 C0.93 0.01, 1.86 0.02, 4.6 0.06 M0 0 C1.45 0.02, 2.91 0.04, 4.6 0.06" stroke="#e03131" stroke-width="4" fill="none"></path></g></g><mask></mask><g stroke-linecap="round"><g transform="translate(617.9226044123087 1431.3349563200215) rotate(0 -9.889303680901776 6.846916977197907)" fill-rule="evenodd"><path d="M0 0 L0.02 -4.51 L-19.77 -4.65 L-19.89 18.24 L0.1 18.35 L0.11 4.56" stroke="none" stroke-width="0" fill="#ff00" fill-rule="evenodd"></path><path d="M0 0 C0.01 -1.71, 0.01 -3.43, 0.02 -4.51 M0 0 C0.01 -1.43, 0.01 -2.87, 0.02 -4.51 M0.02 -4.51 C-7.36 -4.56, -14.74 -4.62, -19.77 -4.65 M0.02 -4.51 C-7.89 -4.57, -15.79 -4.62, -19.77 -4.65 M-19.77 -4.65 C-19.8 0.65, -19.83 5.95, -19.89 18.24 M-19.77 -4.65 C-19.8 1.82, -19.84 8.29, -19.89 18.24 M-19.89 18.24 C-14.41 18.27, -8.93 18.3, 0.1 18.35 M-19.89 18.24 C-13.63 18.27, -7.37 18.31, 0.1 18.35 M0.1 18.35 C0.1 15.23, 0.1 12.11, 0.11 4.56 M0.1 18.35 C0.1 15.45, 0.1 12.56, 0.11 4.56 M0.11 4.56 C0.07 2.93, 0.03 1.29, 0 0 M0.11 4.56 C0.08 3.06, 0.04 1.56, 0 0" stroke="#000" stroke-width="4" fill="none"></path></g></g><mask></mask><g stroke-linecap="round"><g transform="translate(603.3339114117783 1433.7024514065834) rotate(0 4.672902509990422 -0.01746831407103855)"><path d="M0 0 C2.3 -0.01, 4.6 -0.02, 9.35 -0.03 M0 0 C2.33 -0.01, 4.67 -0.02, 9.35 -0.03" stroke="#f08c00" stroke-width="4" fill="none"></path></g></g><mask></mask><g stroke-linecap="round"><g transform="translate(603.3344575196762 1438.3190476937557) rotate(0 4.672902509990422 -0.01746831407103855)"><path d="M0 0 C2.31 -0.01, 4.62 -0.02, 9.35 -0.03 M0 0 C2.71 -0.01, 5.42 -0.02, 9.35 -0.03" stroke="#f08c00" stroke-width="4" fill="none"></path></g></g><mask></mask><g stroke-linecap="round"><g transform="translate(603.4604977948046 1442.8190428060375) rotate(0 2.300806114318675 0.03022153968947805)"><path d="M0 0 C1.43 0.02, 2.87 0.04, 4.6 0.06 M0 0 C1.46 0.02, 2.91 0.04, 4.6 0.06" stroke="#f08c00" stroke-width="4" fill="none"></path></g></g><mask></mask><g stroke-linecap="round"><g transform="translate(553.9793933659611 1339.1627686543234) rotate(0 20.84228264875935 -0.09776818412683497)"><path d="M0.05 -0.01 C6.99 0, 34.56 0.01, 41.51 0.02 M-0.1 -0.15 C6.9 -0.17, 34.82 -0.21, 41.78 -0.22" stroke="#1e1e1e" stroke-width="1" fill="none"></path></g><g transform="translate(553.9793933659611 1339.1627686543234) rotate(0 20.84228264875935 -0.09776818412683497)"><path d="M22.24 6.92 C26.4 5.18, 30.65 4.07, 41.78 -0.22 M22.24 6.92 C29.09 4.54, 35.76 2.14, 41.78 -0.22" stroke="#1e1e1e" stroke-width="1" fill="none"></path></g><g transform="translate(553.9793933659611 1339.1627686543234) rotate(0 20.84228264875935 -0.09776818412683497)"><path d="M22.22 -7.31 C26.37 -6.01, 30.63 -4.08, 41.78 -0.22 M22.22 -7.31 C29.09 -4.81, 35.76 -2.32, 41.78 -0.22" stroke="#1e1e1e" stroke-width="1" fill="none"></path></g></g><mask></mask><g stroke-linecap="round"><g transform="translate(553.7627214831099 1372.6348994129467) rotate(0 20.808390878136834 -0.04835813288570989)"><path d="M-0.11 0.02 C6.84 0.04, 34.76 0.05, 41.72 0.06 M0.1 -0.09 C7.04 -0.12, 34.74 -0.15, 41.66 -0.16" stroke="#1e1e1e" stroke-width="1" fill="none"></path></g><g transform="translate(553.7627214831099 1372.6348994129467) rotate(0 20.808390878136834 -0.04835813288570989)"><path d="M22.12 6.98 C28.72 4.82, 35.35 2.36, 41.66 -0.16 M22.12 6.98 C29.22 4.55, 36.14 1.71, 41.66 -0.16" stroke="#1e1e1e" stroke-width="1" fill="none"></path></g><g transform="translate(553.7627214831099 1372.6348994129467) rotate(0 20.808390878136834 -0.04835813288570989)"><path d="M22.1 -7.25 C28.7 -4.65, 35.34 -2.33, 41.66 -0.16 M22.1 -7.25 C29.23 -4.58, 36.15 -2.32, 41.66 -0.16" stroke="#1e1e1e" stroke-width="1" fill="none"></path></g></g><mask></mask><g stroke-linecap="round"><g transform="translate(554.7194278081619 1406.1196207897715) rotate(0 20.839081297837538 -0.020510295542180756)"><path d="M0.11 0.06 C7.07 0.07, 34.75 0.08, 41.69 0.09 M-0.01 -0.03 C6.95 -0.06, 34.66 -0.11, 41.62 -0.13" stroke="#1e1e1e" stroke-width="1" fill="none"></path></g><g transform="translate(554.7194278081619 1406.1196207897715) rotate(0 20.839081297837538 -0.020510295542180756)"><path d="M22.08 7.03 C26.64 5.53, 31.12 4.05, 41.62 -0.13 M22.08 7.03 C29.14 4.29, 36.32 1.75, 41.62 -0.13" stroke="#1e1e1e" stroke-width="1" fill="none"></path></g><g transform="translate(554.7194278081619 1406.1196207897715) rotate(0 20.839081297837538 -0.020510295542180756)"><path d="M22.05 -7.2 C26.62 -5.47, 31.1 -3.72, 41.62 -0.13 M22.05 -7.2 C29.14 -4.81, 36.32 -2.2, 41.62 -0.13" stroke="#1e1e1e" stroke-width="1" fill="none"></path></g></g><mask></mask><g stroke-linecap="round"><g transform="translate(552.3276619955317 1440.0826953291223) rotate(0 20.850913151847635 -0.015594637318827154)"><path d="M0.08 0.09 C7.02 0.09, 34.82 0.08, 41.76 0.09 M-0.06 0 C6.87 -0.04, 34.77 -0.11, 41.72 -0.12" stroke="#1e1e1e" stroke-width="1" fill="none"></path></g><g transform="translate(552.3276619955317 1440.0826953291223) rotate(0 20.850913151847635 -0.015594637318827154)"><path d="M22.18 7.04 C29.64 4.64, 36.93 1.89, 41.72 -0.12 M22.18 7.04 C30.12 4.12, 37.81 1.39, 41.72 -0.12" stroke="#1e1e1e" stroke-width="1" fill="none"></path></g><g transform="translate(552.3276619955317 1440.0826953291223) rotate(0 20.850913151847635 -0.015594637318827154)"><path d="M22.15 -7.2 C29.62 -4.29, 36.93 -1.72, 41.72 -0.12 M22.15 -7.2 C30.1 -4.42, 37.81 -1.48, 41.72 -0.12" stroke="#1e1e1e" stroke-width="1" fill="none"></path></g></g><mask></mask><g transform="translate(528.0166714986168 1460.4999999999995) rotate(0 56.08333206176758 12.5)"><text x="56.08333206176758" y="0" font-family="Virgil, Segoe UI Emoji" font-size="20px" fill="#000000" text-anchor="middle" style="white-space: pre;" direction="ltr" dominant-baseline="text-before-edge">Buffer pool</text></g><g stroke-linecap="round"><g transform="translate(105.31225552000171 1355.3359650245336) rotate(0 -20.157390389608565 8.844951574459401)"><path d="M0 0 C-0.01 -1.47, -0.02 -2.95, -0.05 -6.01 M0 0 C-0.02 -2.27, -0.03 -4.54, -0.05 -6.01 M-0.05 -6.01 C-12.94 -6.02, -25.83 -6.02, -40.66 -6.02 M-0.05 -6.01 C-12.49 -6.02, -24.93 -6.02, -40.66 -6.02 M-40.66 -6.02 C-40.64 1.82, -40.62 9.66, -40.59 23.55 M-40.66 -6.02 C-40.63 4.7, -40.61 15.42, -40.59 23.55 M-40.59 23.55 C-31.12 23.59, -21.65 23.62, 0.33 23.71 M-40.59 23.55 C-27.85 23.6, -15.12 23.65, 0.33 23.71 M0.33 23.71 C0.33 22.07, 0.34 20.42, 0.34 17.34 M0.33 23.71 C0.33 21.56, 0.34 19.4, 0.34 17.34" stroke="#000" stroke-width="4" fill="none"></path></g></g><mask></mask><g stroke-linecap="round" transform="translate(99.36431880787757 1406.80506909023) rotate(0 14.742134079345988 14.93874870320019)"><path d="M0 0 C7.51 0, 15.01 0, 29.48 0 M0 0 C9.16 0, 18.33 0, 29.48 0 M29.48 0 C29.48 9.43, 29.48 18.87, 29.48 29.88 M29.48 0 C29.48 9.57, 29.48 19.15, 29.48 29.88 M29.48 29.88 C22.05 29.88, 14.62 29.88, 0 29.88 M29.48 29.88 C18.04 29.88, 6.6 29.88, 0 29.88 M0 29.88 C0 23.76, 0 17.64, 0 0 M0 29.88 C0 23.53, 0 17.19, 0 0" stroke="#000" stroke-width="4" fill="none"></path></g><g stroke-linecap="round" transform="translate(41.57364237642116 1406.7514154827388) rotate(0 14.742134079345988 14.93874870320019)"><path d="M0 0 C9.44 0, 18.87 0, 29.48 0 M0 0 C8.89 0, 17.78 0, 29.48 0 M29.48 0 C29.48 10.46, 29.48 20.91, 29.48 29.88 M29.48 0 C29.48 8.35, 29.48 16.71, 29.48 29.88 M29.48 29.88 C21.08 29.88, 12.68 29.88, 0 29.88 M29.48 29.88 C22.55 29.88, 15.62 29.88, 0 29.88 M0 29.88 C0 20.12, 0 10.36, 0 0 M0 29.88 C0 19.79, 0 9.71, 0 0" stroke="#000" stroke-width="4" fill="none"></path></g><g stroke-linecap="round"><g transform="translate(85.20224356533117 1379.1100455273659) rotate(0 -0.002844117568997717 5.260600360085164)"><path d="M0 0 C0 3.71, 0 7.42, -0.01 10.52 M0 0 C0 2.46, 0 4.93, -0.01 10.52" stroke="#000" stroke-width="4" fill="none"></path></g></g><mask></mask><g stroke-linecap="round"><g transform="translate(55.95913963881617 1406.2788967539223) rotate(0 29.13002025935168 -8.21816152178451)"><path d="M0 0 C0.02 -5.35, 0.04 -10.69, 0.07 -16.43 M0 0 C0.02 -4.13, 0.03 -8.26, 0.07 -16.43 M0.07 -16.43 C21.15 -16.43, 42.22 -16.43, 58.26 -16.44 M0.07 -16.43 C13.17 -16.43, 26.27 -16.43, 58.26 -16.44 M58.26 -16.44 C58.26 -13.08, 58.25 -9.73, 58.24 -0.02 M58.26 -16.44 C58.26 -12.64, 58.25 -8.84, 58.24 -0.02" stroke="#000" stroke-width="4" fill="none"></path></g></g><mask></mask><g stroke-linecap="round"><g transform="translate(75.85946555584303 1361.0454510608213) rotate(0 6.2537064040184305 0.002761193545552487)"><path d="M0 0 C3.87 0, 7.74 0, 12.51 0.01 M0 0 C3.94 0, 7.88 0, 12.51 0.01" stroke="#3d71b7" stroke-width="4" fill="none"></path></g></g><mask></mask><g transform="translate(10 1463.8333333333335) rotate(0 80.76667022705078 12.5)"><text x="80.76667022705078" y="0" font-family="Virgil, Segoe UI Emoji" font-size="20px" fill="#000000" text-anchor="middle" style="white-space: pre;" direction="ltr" dominant-baseline="text-before-edge">Backend process</text></g><g stroke-linecap="round"><g transform="translate(77.92493661696517 666.6472566568251) rotate(0 119.71807923503553 -0.21897198562970743)"><path d="M-0.12 0 C39.82 -0.08, 199.64 -0.36, 239.56 -0.44 M0.08 -0.13 C40.02 -0.19, 199.53 -0.28, 239.47 -0.31" stroke="#1e1e1e" stroke-width="1" fill="none"></path></g><g transform="translate(77.92493661696517 666.6472566568251) rotate(0 119.71807923503553 -0.21897198562970743)"><path d="M211.28 9.97 C217.89 7.69, 224.27 4.98, 239.47 -0.31 M211.28 9.97 C217.2 7.69, 223 5.59, 239.47 -0.31" stroke="#1e1e1e" stroke-width="1" fill="none"></path></g><g transform="translate(77.92493661696517 666.6472566568251) rotate(0 119.71807923503553 -0.21897198562970743)"><path d="M211.27 -10.55 C217.89 -8.02, 224.26 -5.91, 239.47 -0.31 M211.27 -10.55 C217.17 -8.54, 222.97 -6.35, 239.47 -0.31" stroke="#1e1e1e" stroke-width="1" fill="none"></path></g></g><mask></mask><g transform="translate(15.211114671495466 526.3333333333335) rotate(0 459.8666687011719 12.5)"><text x="459.8666687011719" y="0" font-family="Virgil, Segoe UI Emoji" font-size="20px" fill="#1e1e1e" text-anchor="middle" style="white-space: pre;" direction="ltr" dominant-baseline="text-before-edge">In PostgreSQL, each page of all data files can be assigned a unique tag, i.e. a buffer tag.</text></g><g transform="translate(104.06726594012355 590.2708471833049) rotate(0 97.17500305175781 31.895819483361777)"><text x="97.17500305175781" y="0" font-family="Virgil, Segoe UI Emoji" font-size="25.51665558668943px" fill="#1e1e1e" text-anchor="middle" style="white-space: pre;" direction="ltr" dominant-baseline="text-before-edge">request a page</text><text x="97.17500305175781" y="31.89581948336179" font-family="Virgil, Segoe UI Emoji" font-size="25.51665558668943px" fill="#1e1e1e" text-anchor="middle" style="white-space: pre;" direction="ltr" dominant-baseline="text-before-edge"> by buffer_tag</text></g><g stroke-linecap="round"><g transform="translate(324.43803040740966 761.7113905222998) rotate(0 124.46933669383543 -0.0017926586089060947)"><path d="M0.1 -0.12 C41.6 -0.15, 207.48 -0.14, 248.96 -0.13 M-0.02 0.14 C41.47 0.12, 207.39 0.13, 248.88 0.05" stroke="#1e1e1e" stroke-width="1" fill="none"></path></g><g transform="translate(324.43803040740966 761.7113905222998) rotate(0 124.46933669383543 -0.0017926586089060947)"><path d="M220.7 10.34 C228.21 7.61, 236.18 4.82, 248.88 0.05 M220.7 10.34 C230.23 6.95, 240.1 3.24, 248.88 0.05" stroke="#1e1e1e" stroke-width="1" fill="none"></path></g><g transform="translate(324.43803040740966 761.7113905222998) rotate(0 124.46933669383543 -0.0017926586089060947)"><path d="M220.68 -10.19 C228.21 -7.27, 236.19 -4.42, 248.88 0.05 M220.68 -10.19 C230.2 -6.54, 240.07 -3.22, 248.88 0.05" stroke="#1e1e1e" stroke-width="1" fill="none"></path></g></g><mask></mask><g transform="translate(325.47173876104864 684.4129444836295) rotate(0 107.81300923694573 28.00693059447292)"><text x="107.81300923694579" y="0" font-family="Virgil, Segoe UI Emoji" font-size="22.405544475578345px" fill="#1e1e1e" text-anchor="middle" style="white-space: pre;" direction="ltr" dominant-baseline="text-before-edge">get the buffer_id</text><text x="107.81300923694579" y="28.006930594472934" font-family="Virgil, Segoe UI Emoji" font-size="22.405544475578345px" fill="#1e1e1e" text-anchor="middle" style="white-space: pre;" direction="ltr" dominant-baseline="text-before-edge">of the target page</text></g><g stroke-linecap="round"><g transform="translate(89.86084804643997 1264.0328529726592) rotate(0 233.0362185418668 0.936725025377541)"><path d="M-0.04 0.03 C77.66 0.35, 388.45 1.66, 466.11 1.95 M0.21 -0.08 C77.92 0.19, 388.46 1.38, 466.06 1.71" stroke="#1e1e1e" stroke-width="1" fill="none"></path></g><g transform="translate(89.86084804643997 1264.0328529726592) rotate(0 233.0362185418668 0.936725025377541)"><path d="M437.83 11.86 C444.21 9.84, 450.56 7.21, 466.06 1.71 M437.83 11.86 C444.63 9.5, 451.26 7.11, 466.06 1.71" stroke="#1e1e1e" stroke-width="1" fill="none"></path></g><g transform="translate(89.86084804643997 1264.0328529726592) rotate(0 233.0362185418668 0.936725025377541)"><path d="M437.91 -8.66 C444.28 -6.08, 450.61 -4.12, 466.06 1.71 M437.91 -8.66 C444.72 -6.11, 451.32 -3.58, 466.06 1.71" stroke="#1e1e1e" stroke-width="1" fill="none"></path></g></g><mask></mask><g stroke-linecap="round"><g transform="translate(559.65555911594 1140.7777777777778) rotate(0 -244.97099265861198 -1.587977961552724)"><path d="M0.1 -0.08 C-81.58 -0.65, -408.25 -2.86, -489.96 -3.39 M-0.03 0.21 C-81.74 -0.33, -408.4 -2.6, -490.04 -3.22" stroke="#1e1e1e" stroke-width="1" fill="none"></path></g><g transform="translate(559.65555911594 1140.7777777777778) rotate(0 -244.97099265861198 -1.587977961552724)"><path d="M-461.78 -13.27 C-472.6 -9.31, -483.22 -5.95, -490.04 -3.22 M-461.78 -13.27 C-471.46 -9.83, -481.17 -6.3, -490.04 -3.22" stroke="#1e1e1e" stroke-width="1" fill="none"></path></g><g transform="translate(559.65555911594 1140.7777777777778) rotate(0 -244.97099265861198 -1.587977961552724)"><path d="M-461.93 7.25 C-472.7 3.46, -483.26 -0.92, -490.04 -3.22 M-461.93 7.25 C-471.57 3.61, -481.23 0.04, -490.04 -3.22" stroke="#1e1e1e" stroke-width="1" fill="none"></path></g></g><mask></mask><g transform="translate(325.4250055948895 1093) rotate(0 113.90046013726112 13.888888888888914)"><text x="113.90046013726116" y="0" font-family="Virgil, Segoe UI Emoji" font-size="22.2222222222222px" fill="#1e1e1e" text-anchor="middle" style="white-space: pre;" direction="ltr" dominant-baseline="text-before-edge">return the buffer_id</text></g><g transform="translate(75.77500152587902 1154.0451596638463) rotate(0 104.99166870117188 47.84372922504269)"><text x="104.99166870117188" y="0" font-family="Virgil, Segoe UI Emoji" font-size="25.51665558668943px" fill="#1e1e1e" text-anchor="middle" style="white-space: pre;" direction="ltr" dominant-baseline="text-before-edge">access the page</text><text x="104.99166870117188" y="31.89581948336179" font-family="Virgil, Segoe UI Emoji" font-size="25.51665558668943px" fill="#1e1e1e" text-anchor="middle" style="white-space: pre;" direction="ltr" dominant-baseline="text-before-edge"> from the buffer</text><text x="104.99166870117188" y="63.79163896672358" font-family="Virgil, Segoe UI Emoji" font-size="25.51665558668943px" fill="#1e1e1e" text-anchor="middle" style="white-space: pre;" direction="ltr" dominant-baseline="text-before-edge">pool</text></g><g stroke-linecap="round"><g transform="translate(323.2074101765937 866.3333333333333) rotate(0 120.42432356155734 0.5469293416807091)"><path d="M0.08 -0.03 C40.25 0.16, 200.76 0.9, 240.91 1.09 M-0.06 -0.18 C40.11 0.05, 200.64 1.03, 240.8 1.27" stroke="#1e1e1e" stroke-width="1" fill="none"></path></g><g transform="translate(323.2074101765937 866.3333333333333) rotate(0 120.42432356155734 0.5469293416807091)"><path d="M212.55 11.36 C218.45 9.24, 224.44 7.23, 240.8 1.27 M212.55 11.36 C221.4 8.12, 230.29 5.11, 240.8 1.27" stroke="#1e1e1e" stroke-width="1" fill="none"></path></g><g transform="translate(323.2074101765937 866.3333333333333) rotate(0 120.42432356155734 0.5469293416807091)"><path d="M212.67 -9.16 C218.53 -6.95, 224.49 -4.63, 240.8 1.27 M212.67 -9.16 C221.46 -5.94, 230.31 -2.48, 240.8 1.27" stroke="#1e1e1e" stroke-width="1" fill="none"></path></g></g><mask></mask><g transform="translate(325.6800954606798 792.204765615392) rotate(0 124.17777845594617 26.786506081192897)"><text x="124.17777845594621" y="0" font-family="Virgil, Segoe UI Emoji" font-size="21.429204864954325px" fill="#1e1e1e" text-anchor="middle" style="white-space: pre;" direction="ltr" dominant-baseline="text-before-edge">check if a page exists </text><text x="124.17777845594621" y="26.786506081192908" font-family="Virgil, Segoe UI Emoji" font-size="21.429204864954325px" fill="#1e1e1e" text-anchor="middle" style="white-space: pre;" direction="ltr" dominant-baseline="text-before-edge">in the table</text></g><g stroke-linecap="round"><g transform="translate(325.09694169602324 974.6316367072727) rotate(0 249.94435840254175 2.056092623630775)"><path d="M0 0.15 C83.35 0.8, 416.74 3.39, 500.07 4.02 M-0.18 0.09 C83.14 0.69, 416.51 3.12, 499.93 3.8" stroke="#1e1e1e" stroke-width="1" fill="none"></path></g><g transform="translate(325.09694169602324 974.6316367072727) rotate(0 249.94435840254175 2.056092623630775)"><path d="M471.66 13.84 C480.75 10.62, 489.47 7.36, 499.93 3.8 M471.66 13.84 C480.95 10.64, 490.04 7.36, 499.93 3.8" stroke="#1e1e1e" stroke-width="1" fill="none"></path></g><g transform="translate(325.09694169602324 974.6316367072727) rotate(0 249.94435840254175 2.056092623630775)"><path d="M471.81 -6.68 C480.88 -3.5, 489.55 -0.36, 499.93 3.8 M471.81 -6.68 C481.04 -3.24, 490.08 0.11, 499.93 3.8" stroke="#1e1e1e" stroke-width="1" fill="none"></path></g></g><mask></mask><g transform="translate(327.54167175293003 886.213493918807) rotate(0 117.66944291856544 39.95979445432761)"><text x="117.66944291856541" y="0" font-family="Virgil, Segoe UI Emoji" font-size="21.311890375641394px" fill="#1e1e1e" text-anchor="middle" style="white-space: pre;" direction="ltr" dominant-baseline="text-before-edge">fetch a page from DB</text><text x="117.66944291856541" y="26.639862969551743" font-family="Virgil, Segoe UI Emoji" font-size="21.311890375641394px" fill="#1e1e1e" text-anchor="middle" style="white-space: pre;" direction="ltr" dominant-baseline="text-before-edge">if it is missing in the</text><text x="117.66944291856541" y="53.279725939103486" font-family="Virgil, Segoe UI Emoji" font-size="21.311890375641394px" fill="#1e1e1e" text-anchor="middle" style="white-space: pre;" direction="ltr" dominant-baseline="text-before-edge">pool</text></g><g transform="translate(333.24444749620295 989.6007926112786) rotate(0 107.5222227308484 29.8811177316162)"><text x="107.52222273084844" y="0" font-family="Virgil, Segoe UI Emoji" font-size="23.904894185292957px" fill="#1e1e1e" text-anchor="middle" style="white-space: pre;" direction="ltr" dominant-baseline="text-before-edge">insert a page in a</text><text x="107.52222273084844" y="29.881117731616197" font-family="Virgil, Segoe UI Emoji" font-size="23.904894185292957px" fill="#1e1e1e" text-anchor="middle" style="white-space: pre;" direction="ltr" dominant-baseline="text-before-edge"> table slot</text></g><g stroke-linecap="round"><g transform="translate(322.69148002227496 1059.429933563774) rotate(0 122.9937948704677 -0.568278086068176)"><path d="M-0.03 -0.05 C40.9 -0.2, 204.77 -0.73, 245.74 -0.84 M0.22 -0.21 C41.19 -0.41, 205.1 -0.96, 246.02 -1.08" stroke="#1e1e1e" stroke-width="1" fill="none"></path></g><g transform="translate(322.69148002227496 1059.429933563774) rotate(0 122.9937948704677 -0.568278086068176)"><path d="M217.86 9.27 C228.81 5, 240.02 1.1, 246.02 -1.08 M217.86 9.27 C229.12 5.17, 240.36 0.88, 246.02 -1.08" stroke="#1e1e1e" stroke-width="1" fill="none"></path></g><g transform="translate(322.69148002227496 1059.429933563774) rotate(0 122.9937948704677 -0.568278086068176)"><path d="M217.79 -11.25 C228.78 -7.47, 240.02 -3.32, 246.02 -1.08 M217.79 -11.25 C229.1 -7.16, 240.36 -3.26, 246.02 -1.08" stroke="#1e1e1e" stroke-width="1" fill="none"></path></g></g><mask></mask></svg>