<svg version="1.1" xmlns="http://www.w3.org/2000/svg" viewBox="0 0 8698.077104048094 9888.604871195741" width="8698.077104048094" height="9888.604871195741">
  <!-- svg-source:excalidraw -->
  
  <defs>
    <style class="style-fonts">
      @font-face {
        font-family: "Virgil";
        src: url("https://excalidraw.com/Virgil.woff2");
      }
      @font-face {
        font-family: "Cascadia";
        src: url("https://excalidraw.com/Cascadia.woff2");
      }
    </style>
    
  </defs>
  <g transform="translate(10 10) rotate(0 4339.038552024047 237.49999999999272)"><text x="0" y="0" font-family="Virgil, Segoe UI Emoji" font-size="379.9999999999912px" fill="#1e1e1e" text-anchor="start" style="white-space: pre;" direction="ltr" dominant-baseline="text-before-edge">Logical Replication on Standbys in Postgres 16</text></g><g stroke-linecap="round"><g transform="translate(1426.1009809359493 2106.760329817407) rotate(0 505.75071116356776 476.7988148122058)" fill-rule="evenodd"><path d="M-0.34 0.81 C-0.74 135.97, -4.89 652.74, -1.86 812.28 C1.17 971.83, -5.82 925.31, 17.84 958.09 C41.51 990.86, 89.24 992.68, 140.12 1008.94 C190.99 1025.2, 260.25 1046.4, 323.1 1055.64 C385.96 1064.89, 457.1 1064.63, 517.24 1064.4 C577.38 1064.17, 630.6 1060.68, 683.94 1054.26 C737.29 1047.83, 785.85 1043.43, 837.29 1025.85 C888.73 1008.28, 965.18 984.71, 992.58 948.81 C1019.97 912.92, 998.1 949.84, 1001.66 810.5 C1005.23 671.16, 1014.27 248.15, 1013.99 112.78 C1013.72 -22.59, 1023.21 27.9, 1000 -1.71 C976.79 -31.32, 919.5 -48.97, 874.74 -64.9 C829.98 -80.83, 785.91 -90.24, 731.45 -97.3 C677 -104.35, 597.6 -105.74, 547.99 -107.23 C498.37 -108.72, 494.04 -109.93, 433.75 -106.25 C373.45 -102.56, 258.76 -102.76, 186.22 -85.12 C113.67 -67.49, 29.39 -14.73, -1.53 -0.44" stroke="none" stroke-width="0" fill="#228be6" fill-rule="evenodd"></path><path d="M-0.48 -0.51 C-0.39 134.52, -3.12 651.24, -0.24 810.87 C2.64 970.5, -6.33 923.98, 16.78 957.26 C39.89 990.54, 87.72 994.55, 138.4 1010.54 C189.09 1026.53, 257.91 1044.17, 320.88 1053.2 C383.84 1062.22, 455.82 1064.56, 516.17 1064.68 C576.53 1064.79, 629.4 1060.29, 683.02 1053.89 C736.65 1047.49, 786.18 1043.46, 837.94 1026.28 C889.69 1009.09, 965.95 986.78, 993.55 950.76 C1021.15 914.74, 1000.64 950.38, 1003.51 810.13 C1006.38 669.88, 1011.37 245.03, 1010.77 109.25 C1010.17 -26.53, 1022.68 24.47, 999.92 -4.54 C977.16 -33.56, 918.79 -49.15, 874.22 -64.82 C829.65 -80.48, 786.81 -91.17, 732.52 -98.51 C678.23 -105.86, 598.59 -107.16, 548.49 -108.9 C498.38 -110.64, 492.52 -112.77, 431.9 -108.95 C371.28 -105.12, 256.56 -103.94, 184.75 -85.96 C112.95 -67.99, 31.75 -15.33, 1.07 -1.11 M1.47 -1.82 C1.45 132.78, -4.27 649.54, -1.32 809.03 C1.64 968.52, -4.06 921.37, 19.18 955.12 C42.42 988.87, 87.55 995.15, 138.13 1011.55 C188.72 1027.95, 259.41 1044.82, 322.67 1053.54 C385.94 1062.26, 458.05 1063.96, 517.71 1063.85 C577.37 1063.73, 627.38 1059.15, 680.62 1052.84 C733.86 1046.53, 785.21 1042.63, 837.16 1025.96 C889.12 1009.3, 964.47 988.93, 992.34 952.86 C1020.22 916.79, 1001.36 950.1, 1004.41 809.57 C1007.45 669.03, 1011.5 244.88, 1010.61 109.64 C1009.71 -25.59, 1022.25 27.42, 999.04 -1.84 C975.83 -31.1, 915.84 -49.79, 871.35 -65.92 C826.85 -82.04, 785.83 -91.34, 732.07 -98.6 C678.31 -105.87, 598.65 -107.94, 548.78 -109.5 C498.91 -111.05, 493.66 -112.02, 432.83 -107.91 C372.01 -103.8, 255.91 -102.62, 183.83 -84.86 C111.75 -67.09, 31.05 -15.34, 0.35 -1.32" stroke="#364fc7" stroke-width="1" fill="none"></path></g></g><mask></mask><g stroke-linecap="round" transform="translate(1422.3760823356133 1983.8327028242056) rotate(0 504.9466268442584 137.29240198187472)"><path d="M406.33 1.65 C436.36 -2.43, 474.69 -0.73, 508.72 -0.55 C542.75 -0.37, 577.44 0.79, 610.51 2.72 C643.58 4.65, 676.22 7.18, 707.15 11.04 C738.07 14.9, 768.33 20.57, 796.04 25.9 C823.75 31.22, 850.23 36.54, 873.42 42.98 C896.61 49.42, 917.47 56.75, 935.18 64.54 C952.89 72.33, 968.11 80.99, 979.67 89.71 C991.22 98.44, 999.57 107.5, 1004.51 116.9 C1009.46 126.29, 1011.34 136.69, 1009.35 146.07 C1007.36 155.45, 1001.46 164.45, 992.58 173.19 C983.7 181.92, 971.19 190.2, 956.05 198.5 C940.9 206.79, 922.67 215.61, 901.71 222.94 C880.74 230.27, 855.92 236.56, 830.25 242.48 C804.58 248.4, 777.41 254.22, 747.7 258.47 C717.98 262.72, 684.68 265.36, 651.97 267.98 C619.25 270.59, 585.19 273.06, 551.43 274.15 C517.67 275.24, 482.87 275.66, 449.43 274.53 C415.99 273.4, 382.98 270.46, 350.81 267.37 C318.64 264.28, 285.94 260.38, 256.41 255.98 C226.88 251.57, 199.21 246.86, 173.63 240.96 C148.05 235.07, 123.46 227.91, 102.9 220.59 C82.35 213.27, 64.77 205.35, 50.29 197.02 C35.81 188.7, 24.22 179.43, 16.03 170.63 C7.84 161.83, 2.8 153.43, 1.13 144.22 C-0.54 135.01, 0.68 124.63, 6.02 115.37 C11.36 106.1, 21.21 97.22, 33.19 88.63 C45.17 80.03, 59.95 71.54, 77.9 63.82 C95.85 56.1, 117.35 49.07, 140.91 42.31 C164.47 35.55, 191.24 28.67, 219.25 23.27 C247.26 17.87, 276.34 13.57, 308.99 9.93 C341.65 6.29, 395.45 2.44, 415.17 1.44 C434.89 0.43, 425.6 1.39, 427.29 3.88 M391.01 4.67 C420.34 0.82, 458.05 1.94, 492.29 1.38 C526.52 0.82, 563.02 0, 596.44 1.3 C629.87 2.59, 661.49 5.32, 692.84 9.13 C724.19 12.95, 756.35 18.82, 784.55 24.2 C812.75 29.58, 838.17 35.22, 862.03 41.42 C885.89 47.62, 908.79 54.06, 927.72 61.41 C946.65 68.77, 963.42 76.78, 975.62 85.54 C987.83 94.3, 995.28 104.77, 1000.93 113.97 C1006.58 123.17, 1010.1 131.43, 1009.53 140.75 C1008.97 150.08, 1005.17 160.78, 997.54 169.9 C989.92 179.02, 978.34 187.51, 963.78 195.46 C949.23 203.41, 930.46 210.07, 910.23 217.6 C890 225.13, 867.32 234.22, 842.42 240.66 C817.53 247.11, 790.04 251.65, 760.85 256.27 C731.67 260.88, 699.42 265.52, 667.31 268.35 C635.2 271.18, 601.77 272.51, 568.21 273.24 C534.64 273.96, 499.78 273.4, 465.91 272.69 C432.05 271.97, 397.74 271.09, 365.04 268.94 C332.34 266.78, 299.91 264.16, 269.74 259.73 C239.57 255.31, 210.3 248.38, 184 242.36 C157.71 236.35, 133.44 230.71, 111.99 223.64 C90.54 216.58, 70.75 208.36, 55.33 199.96 C39.91 191.55, 28.35 182.23, 19.47 173.23 C10.6 164.23, 4.43 154.96, 2.09 145.93 C-0.25 136.91, 1.15 127.87, 5.44 119.07 C9.73 110.27, 17.06 101.97, 27.85 93.16 C38.63 84.34, 53.09 74.44, 70.15 66.21 C87.21 57.97, 107.49 50.15, 130.21 43.73 C152.93 37.31, 178.92 33.06, 206.47 27.7 C234.02 22.33, 264.48 15.8, 295.51 11.56 C326.53 7.32, 376.32 3.13, 392.63 2.24 C408.94 1.35, 391.51 3.65, 393.37 6.23" stroke="none" stroke-width="0" fill="#ffffff"></path><path d="M311.72 9.81 C338.25 4.56, 376.31 4.13, 409.67 2.65 C443.02 1.18, 477.87 0.84, 511.84 0.99 C545.81 1.14, 580.44 1.65, 613.49 3.58 C646.54 5.51, 679.3 8.87, 710.14 12.58 C740.97 16.29, 770.97 20.73, 798.49 25.84 C826.01 30.95, 852.33 36.37, 875.25 43.24 C898.16 50.11, 918.53 58.88, 935.96 67.03 C953.4 75.19, 968.42 83.56, 979.86 92.17 C991.29 100.78, 999.72 109.71, 1004.59 118.68 C1009.45 127.64, 1011.13 136.88, 1009.04 145.97 C1006.94 155.07, 1001.03 164.28, 992.03 173.26 C983.02 182.25, 970.23 191.48, 955.02 199.87 C939.81 208.27, 921.94 216.41, 900.76 223.63 C879.58 230.84, 854.1 237.39, 827.92 243.18 C801.75 248.98, 773.3 254.15, 743.7 258.4 C714.11 262.65, 682.68 266.19, 650.37 268.67 C618.06 271.15, 583.53 272.44, 549.83 273.29 C516.12 274.13, 481.76 274.61, 448.13 273.74 C414.5 272.86, 380.48 270.82, 348.03 268.04 C315.58 265.26, 282.78 261.6, 253.45 257.06 C224.12 252.53, 197.34 246.87, 172.05 240.82 C146.76 234.77, 122.2 228.22, 101.71 220.77 C81.23 213.31, 63.69 204.55, 49.13 196.08 C34.57 187.61, 22.65 178.98, 14.36 169.94 C6.08 160.89, 0.67 150.85, -0.57 141.81 C-1.81 132.76, 1.04 124.59, 6.93 115.68 C12.81 106.78, 22.44 97.03, 34.73 88.39 C47.03 79.74, 62.59 71.67, 80.68 63.81 C98.77 55.94, 119.64 47.92, 143.27 41.18 C166.9 34.44, 190.37 28.79, 222.48 23.37 C254.59 17.94, 312.53 10.99, 335.95 8.65 C359.37 6.31, 360.17 7.39, 363 9.33 M460.76 0.42 C492.07 -2.72, 528.71 -0.65, 561.96 0.53 C595.21 1.72, 627.87 4.84, 660.25 7.53 C692.63 10.21, 726.84 12.33, 756.24 16.67 C785.64 21, 811.37 27.3, 836.64 33.55 C861.91 39.81, 887.2 46.78, 907.87 54.19 C928.55 61.6, 946.21 69.89, 960.68 78.03 C975.16 86.17, 986.49 93.91, 994.73 103.03 C1002.98 112.15, 1008.93 123.35, 1010.14 132.74 C1011.36 142.14, 1007.72 150.53, 1002.04 159.39 C996.35 168.25, 987.92 177.14, 976.02 185.93 C964.12 194.72, 948.84 204.34, 930.65 212.13 C912.45 219.91, 890.57 226.32, 866.84 232.65 C843.11 238.99, 816.29 244.88, 788.28 250.14 C760.27 255.41, 729.73 260.49, 698.78 264.27 C667.84 268.04, 635.94 270.89, 602.61 272.78 C569.28 274.67, 533.15 275.59, 498.8 275.6 C464.45 275.61, 429.6 274.97, 396.51 272.84 C363.41 270.71, 330.79 266.77, 300.23 262.82 C269.67 258.88, 240.79 254.67, 213.17 249.15 C185.55 243.62, 157.58 236.28, 134.5 229.68 C111.43 223.08, 92.31 217.13, 74.72 209.55 C57.13 201.97, 40.69 193.23, 28.97 184.19 C17.24 175.14, 9.29 164.52, 4.38 155.29 C-0.53 146.07, -2.55 137.88, -0.48 128.83 C1.58 119.78, 7.72 110.1, 16.77 101.01 C25.82 91.91, 38.26 82.39, 53.83 74.27 C69.4 66.15, 88.88 59.35, 110.17 52.3 C131.47 45.24, 155.99 37.95, 181.6 31.95 C207.2 25.95, 234.25 20.53, 263.8 16.31 C293.36 12.1, 326.53 9.3, 358.94 6.66 C391.35 4.02, 441.51 0.93, 458.26 0.46 C475.02 -0.01, 458.48 1.77, 459.46 3.84" stroke="#364fc7" stroke-width="1" fill="none"></path></g><g transform="translate(1442.276400841538 3180.708155149594) rotate(0 493.71112408422323 124.67452628389583)"><text x="493.7111240842236" y="0" font-family="Virgil, Segoe UI Emoji" font-size="199.4792420542318px" fill="#000000" text-anchor="middle" style="white-space: pre;" direction="ltr" dominant-baseline="text-before-edge">Database</text></g><g stroke-linecap="round"><g transform="translate(3624.4237135891817 2089.1004698609104) rotate(0 490.73376211354935 461.97672763812443)" fill-rule="evenodd"><path d="M1.01 -1.04 C0.41 129.64, -4.82 628.57, -2.13 783.12 C0.56 937.67, -5.6 893.57, 17.16 926.27 C39.92 958.97, 85.65 963.23, 134.42 979.32 C183.19 995.41, 248.76 1013.71, 309.77 1022.8 C370.77 1031.88, 442 1034.39, 500.47 1033.83 C558.94 1033.28, 608.78 1026.03, 660.6 1019.48 C712.42 1012.93, 760.92 1011.1, 811.4 994.55 C861.89 977.99, 936.69 955.2, 963.51 920.14 C990.33 885.07, 969.32 919.62, 972.32 784.17 C975.32 648.71, 982.56 238.27, 981.53 107.38 C980.5 -23.5, 988.98 27.31, 966.12 -1.14 C943.26 -29.58, 887.18 -47.75, 844.36 -63.28 C801.54 -78.8, 761.5 -86.88, 709.18 -94.3 C656.86 -101.73, 578.75 -105.8, 530.41 -107.84 C482.08 -109.89, 477.69 -110.41, 419.18 -106.55 C360.67 -102.69, 249.33 -102.26, 179.36 -84.7 C109.39 -67.14, 29.38 -15.58, -0.65 -1.17" stroke="none" stroke-width="0" fill="#fa5252" fill-rule="evenodd"></path><path d="M0.62 1.15 C0.49 132.03, -3.74 629.93, -1.06 784.36 C1.63 938.79, -5.92 895.17, 16.74 927.73 C39.4 960.28, 85.76 964.2, 134.91 979.69 C184.06 995.18, 250.94 1011.9, 311.63 1020.65 C372.32 1029.39, 440.73 1032.24, 499.06 1032.14 C557.4 1032.04, 609.56 1026.36, 661.65 1020.06 C713.74 1013.75, 761.58 1010.67, 811.62 994.33 C861.65 977.98, 934.9 956.85, 961.84 922.01 C988.77 887.16, 970.14 921.16, 973.24 785.25 C976.33 649.34, 981.31 238, 980.39 106.52 C979.47 -24.95, 990.02 24.36, 967.71 -3.59 C945.4 -31.54, 889.47 -45.75, 846.54 -61.18 C803.61 -76.62, 762.47 -88.62, 710.13 -96.19 C657.8 -103.76, 580.9 -105.04, 532.54 -106.61 C484.17 -108.18, 478.96 -109.56, 419.94 -105.63 C360.93 -101.7, 248.43 -100.54, 178.45 -83.03 C108.46 -65.52, 29.92 -14.55, 0.03 -0.55 M-0.52 0.71 C-0.26 131.77, -1.61 630.58, 1.1 785.32 C3.81 940.07, -6.58 896.58, 15.75 929.16 C38.07 961.74, 85.99 965.51, 135.05 980.79 C184.11 996.08, 249.28 1012.44, 310.09 1020.87 C370.91 1029.3, 441.16 1031.2, 499.93 1031.37 C558.69 1031.54, 610.91 1028.14, 662.67 1021.88 C714.44 1015.61, 760.36 1010.64, 810.52 993.77 C860.68 976.91, 936.93 955.52, 963.64 920.67 C990.34 885.82, 967.92 920.25, 970.74 784.69 C973.56 649.12, 980.76 238.73, 980.58 107.26 C980.4 -24.2, 991.95 24, 969.67 -4.11 C947.38 -32.22, 890.19 -45.99, 846.86 -61.41 C803.54 -76.83, 761.99 -89.53, 709.73 -96.64 C657.47 -103.76, 581.94 -102.77, 533.3 -104.09 C484.66 -105.42, 477.25 -107.71, 417.89 -104.6 C358.54 -101.49, 247.04 -102.8, 177.18 -85.44 C107.32 -68.09, 28.14 -14.99, -1.24 -0.47" stroke="#c92a2a" stroke-width="1" fill="none"></path></g></g><mask></mask><g stroke-linecap="round" transform="translate(3620.8131331888453 1969.9455267863668) rotate(0 489.4496709078985 133.0788590234697)"><path d="M695.22 11.85 C727.14 13.2, 754.78 19.78, 781.02 25.22 C807.26 30.65, 830.86 37.73, 852.66 44.45 C874.46 51.18, 894.98 57.8, 911.83 65.59 C928.68 73.37, 943.12 82.6, 953.75 91.15 C964.38 99.71, 971.74 108.35, 975.6 116.94 C979.45 125.53, 979.51 133.7, 976.87 142.68 C974.22 151.67, 968.65 162.08, 959.74 170.85 C950.83 179.62, 938.64 187.43, 923.4 195.32 C908.16 203.2, 889.12 211.31, 868.29 218.13 C847.46 224.96, 823.87 230.9, 798.4 236.25 C772.93 241.6, 744.67 246.11, 715.46 250.23 C686.25 254.35, 654.84 258.27, 623.14 260.97 C591.44 263.67, 558.13 265.88, 525.25 266.44 C492.37 267, 458.49 265.6, 425.86 264.34 C393.22 263.07, 360.58 261.69, 329.45 258.84 C298.33 255.98, 267.24 251.93, 239.1 247.23 C210.96 242.53, 184.68 236.73, 160.61 230.63 C136.53 224.54, 113.91 217.75, 94.63 210.65 C75.35 203.54, 58.62 195.91, 44.93 188.01 C31.24 180.11, 20.01 172.03, 12.49 163.25 C4.97 154.48, 0.71 144.51, -0.18 135.37 C-1.07 126.23, 1.33 116.95, 7.17 108.43 C13 99.91, 22.44 92.49, 34.83 84.25 C47.21 76.01, 63.2 66.73, 81.48 59.01 C99.75 51.28, 121.34 44.1, 144.5 37.91 C167.66 31.71, 192.95 26.48, 220.42 21.82 C247.88 17.16, 278.5 13.18, 309.28 9.95 C340.07 6.72, 372.94 4.25, 405.12 2.46 C437.31 0.66, 469.84 -1.13, 502.41 -0.84 C534.97 -0.54, 565.75 1.58, 600.52 4.21 C635.28 6.85, 690.52 12.53, 711 14.97 C731.48 17.4, 727.02 16.93, 723.4 18.82 M339.77 7.47 C366.77 2.77, 402.51 2.25, 435.26 1.06 C468 -0.14, 503.56 -0.63, 536.25 0.3 C568.94 1.23, 600.36 4.1, 631.41 6.65 C662.46 9.2, 693.64 11.35, 722.54 15.61 C751.45 19.86, 779.6 26.38, 804.84 32.17 C830.09 37.97, 853.58 43.28, 874.04 50.38 C894.49 57.48, 912.79 66.51, 927.57 74.75 C942.36 82.99, 954.37 91.33, 962.76 99.81 C971.14 108.29, 976.12 116.87, 977.88 125.6 C979.64 134.33, 978.03 143.59, 973.31 152.19 C968.59 160.78, 960.39 168.83, 949.54 177.16 C938.69 185.49, 925.28 194.29, 908.21 202.16 C891.15 210.04, 869.63 217.57, 847.13 224.4 C824.63 231.24, 800.16 238.18, 773.19 243.16 C746.22 248.13, 715.29 251.02, 685.33 254.27 C655.37 257.52, 625.62 260.91, 593.42 262.67 C561.23 264.43, 525.25 264.57, 492.18 264.84 C459.11 265.12, 427.23 265.61, 395.01 264.33 C362.79 263.05, 329.35 261, 298.89 257.18 C268.42 253.37, 239.08 246.54, 212.23 241.45 C185.37 236.35, 160.39 232.84, 137.74 226.6 C115.1 220.37, 94.13 211.72, 76.35 204.03 C58.57 196.33, 42.97 188.71, 31.06 180.41 C19.15 172.11, 9.76 162.94, 4.9 154.22 C0.04 145.5, 0.04 137.09, 1.89 128.11 C3.74 119.13, 8.45 109.32, 16.01 100.33 C23.57 91.35, 33.31 82.18, 47.24 74.2 C61.17 66.23, 79.6 59.54, 99.61 52.48 C119.61 45.42, 142.6 37.54, 167.27 31.82 C191.94 26.11, 218.92 22.45, 247.63 18.2 C276.34 13.96, 323.88 7.82, 339.51 6.35 C355.15 4.88, 339.17 7.29, 341.45 9.37" stroke="none" stroke-width="0" fill="#ffffff"></path><path d="M400.41 2.12 C429.56 -1.68, 465.95 -1.14, 498.86 -0.85 C531.77 -0.55, 565.91 1.79, 597.86 3.88 C629.81 5.98, 660.75 8.2, 690.54 11.73 C720.33 15.26, 749.88 19.71, 776.61 25.08 C803.33 30.44, 828.7 37.34, 850.87 43.94 C873.05 50.55, 892.93 57.23, 909.67 64.72 C926.41 72.21, 940.51 80.39, 951.31 88.88 C962.11 97.37, 969.93 106.67, 974.48 115.68 C979.03 124.69, 980.99 133.92, 978.63 142.92 C976.28 151.92, 969.51 160.99, 960.34 169.66 C951.17 178.33, 938.63 187.13, 923.6 194.95 C908.57 202.77, 890.47 209.77, 870.14 216.58 C849.82 223.38, 827.01 230.21, 801.66 235.77 C776.3 241.33, 747.05 245.67, 718.02 249.95 C689 254.22, 659.02 258.73, 627.51 261.42 C596 264.12, 561.89 265.65, 528.95 266.13 C496.01 266.61, 462.59 265.46, 429.9 264.31 C397.2 263.16, 363.92 261.98, 332.77 259.23 C301.62 256.49, 271.26 252.47, 243 247.85 C214.74 243.23, 187.49 237.39, 163.21 231.51 C138.93 225.63, 116.72 219.64, 97.31 212.59 C77.9 205.53, 60.86 197.32, 46.75 189.18 C32.65 181.04, 20.44 172.31, 12.68 163.74 C4.91 155.16, 1.19 146.64, 0.16 137.73 C-0.87 128.82, 0.94 119.09, 6.48 110.27 C12.02 101.44, 21.22 93.21, 33.38 84.77 C45.54 76.32, 61.27 67.28, 79.44 59.6 C97.6 51.92, 119.36 44.92, 142.37 38.69 C165.37 32.46, 190.18 27.12, 217.44 22.22 C244.7 17.31, 274.66 12.59, 305.92 9.24 C337.18 5.89, 387.24 2.85, 405.01 2.09 C422.78 1.33, 411.05 2.57, 412.55 4.68 M373.49 3.12 C401.95 -1.42, 438.48 -0.95, 471.29 -1.37 C504.1 -1.79, 537.94 -0.98, 570.35 0.6 C602.77 2.17, 635.07 4.44, 665.78 8.08 C696.5 11.71, 727.09 17.3, 754.67 22.41 C782.25 27.52, 808.01 32.72, 831.26 38.72 C854.5 44.72, 875.78 50.92, 894.15 58.39 C912.52 65.87, 929 75.2, 941.47 83.58 C953.94 91.97, 962.52 99.98, 968.97 108.7 C975.42 117.43, 980.6 127.27, 980.18 135.95 C979.75 144.64, 973.96 152.21, 966.43 160.8 C958.9 169.4, 948.39 179.05, 934.98 187.55 C921.56 196.04, 904.72 204.71, 885.94 211.77 C867.17 218.83, 846.33 224.25, 822.33 229.9 C798.34 235.55, 770.12 240.88, 741.97 245.69 C713.82 250.5, 684.44 255.52, 653.43 258.74 C622.42 261.95, 588.45 263.73, 555.91 264.96 C523.36 266.19, 490.59 266.74, 458.15 266.12 C425.71 265.5, 392.85 263.4, 361.27 261.24 C329.69 259.08, 298.24 257.21, 268.67 253.16 C239.1 249.1, 209.57 242.73, 183.85 236.91 C158.12 231.09, 135.38 225.05, 114.31 218.23 C93.25 211.41, 73.27 203.76, 57.48 195.99 C41.69 188.22, 28.89 180.35, 19.56 171.6 C10.23 162.85, 4.27 152.68, 1.51 143.5 C-1.25 134.32, -0.65 125.37, 3.01 116.52 C6.66 107.67, 12.94 98.79, 23.42 90.37 C33.9 81.95, 49.24 73.39, 65.9 66.02 C82.55 58.64, 101.9 52.71, 123.37 46.12 C144.84 39.53, 168.63 32.26, 194.7 26.48 C220.77 20.7, 249.78 15.46, 279.78 11.43 C309.78 7.41, 358.48 3.03, 374.71 2.32 C390.94 1.62, 375.59 4.97, 377.16 7.22" stroke="#c92a2a" stroke-width="1" fill="none"></path></g><g transform="translate(3628.233937970459 3126.592376886867) rotate(0 478.5589889307712 120.84822952797185)"><text x="478.558988930771" y="0" font-family="Virgil, Segoe UI Emoji" font-size="193.35716724475597px" fill="#000000" text-anchor="middle" style="white-space: pre;" direction="ltr" dominant-baseline="text-before-edge">Database</text></g><g stroke-linecap="round"><g transform="translate(5963.319832942132 1081.5588993673227) rotate(0 426.7888210815745 403.1268808677196)" fill-rule="evenodd"><path d="M0.9 0.57 C1.13 114.68, -3.18 550.2, -0.74 684.81 C1.71 819.42, -4.15 779.93, 15.56 808.22 C35.27 836.51, 74.93 841.24, 117.51 854.54 C160.09 867.84, 217.89 880.91, 271.04 888.01 C324.19 895.11, 385.74 897.13, 436.4 897.14 C487.07 897.15, 529.8 893.01, 575.03 888.06 C620.25 883.1, 663.66 881.95, 707.75 867.41 C751.84 852.87, 816.35 831.57, 839.58 800.81 C862.8 770.04, 844.34 800.37, 847.1 682.82 C849.86 565.28, 856.52 210.11, 856.14 95.52 C855.76 -19.08, 864.4 20.54, 844.81 -4.75 C825.22 -30.05, 776.44 -42.79, 738.6 -56.25 C700.77 -69.71, 663.73 -79.49, 617.81 -85.52 C571.88 -91.55, 504.93 -91.82, 463.05 -92.44 C421.17 -93.06, 417.41 -92.55, 366.51 -89.24 C315.6 -85.92, 218.5 -87.22, 157.64 -72.54 C96.78 -57.86, 27.97 -13.2, 1.33 -1.18" stroke="none" stroke-width="0" fill="#40c057" fill-rule="evenodd"></path><path d="M-0.68 -0.43 C-0.82 113.67, -3.03 550.21, -0.59 684.85 C1.84 819.49, -5.7 779.29, 13.93 807.4 C33.56 835.51, 74.05 839.97, 117.18 853.49 C160.3 867.01, 219.48 881.21, 272.66 888.51 C325.83 895.8, 385.89 897.22, 436.22 897.26 C486.54 897.3, 529.6 893.94, 574.59 888.74 C619.59 883.55, 662.32 880.28, 706.19 866.09 C750.06 851.9, 814.39 833.92, 837.8 803.6 C861.21 773.28, 844.16 802.5, 846.66 684.17 C849.16 565.84, 853.3 208.15, 852.81 93.62 C852.32 -20.92, 862.96 21.48, 843.74 -3.04 C824.52 -27.57, 774.98 -40.17, 737.5 -53.52 C700.01 -66.88, 664.66 -76.95, 618.84 -83.2 C573.01 -89.45, 505.07 -89.62, 462.54 -91.01 C420 -92.41, 414.79 -94.49, 363.63 -91.59 C312.47 -88.68, 216.07 -88.8, 155.57 -73.58 C95.07 -58.36, 26.69 -12.55, 0.63 -0.28 M1.16 -1.7 C1.4 112.05, -0.71 548.11, 1.81 683.15 C4.33 818.19, -2.94 779.94, 16.28 808.54 C35.51 837.14, 74.58 841.41, 117.16 854.75 C159.75 868.09, 218.94 881.15, 271.8 888.57 C324.66 895.99, 383.84 898.9, 434.33 899.28 C484.82 899.65, 529.04 896.44, 574.72 890.84 C620.41 885.24, 664.27 880.36, 708.43 865.66 C752.6 850.95, 816.57 832.91, 839.71 802.6 C862.85 772.29, 845.16 801.75, 847.29 683.79 C849.43 565.83, 853.29 209.39, 852.5 94.84 C851.72 -19.71, 861.69 21.3, 842.59 -3.5 C823.5 -28.3, 775.28 -40.65, 737.95 -53.96 C700.62 -67.26, 664.5 -77.13, 618.6 -83.32 C572.71 -89.51, 505.01 -89.96, 462.59 -91.12 C420.17 -92.29, 415.45 -93.33, 364.08 -90.32 C312.71 -87.31, 215.12 -88.11, 154.39 -73.07 C93.66 -58.02, 25.23 -12.29, -0.33 -0.06" stroke="#2b8a3e" stroke-width="1" fill="none"></path></g></g><mask></mask><g stroke-linecap="round" transform="translate(5960.175481441165 977.7902576084889) rotate(0 426.24775984049666 115.89458306440793)"><path d="M262.01 8.32 C286.03 3.27, 319.03 2.51, 349.08 1.09 C379.13 -0.33, 411.48 -0.49, 442.31 -0.19 C473.14 0.11, 504.56 0.88, 534.04 2.87 C563.52 4.86, 592.17 8, 619.19 11.76 C646.21 15.51, 672.4 19.94, 696.14 25.4 C719.88 30.85, 742.72 37.75, 761.62 44.49 C780.52 51.22, 796.16 58.46, 809.53 65.82 C822.9 73.18, 834.54 80.77, 841.82 88.64 C849.11 96.51, 852.86 104.77, 853.25 113.04 C853.63 121.3, 850.16 129.91, 844.13 138.25 C838.11 146.59, 829.5 155.42, 817.09 163.09 C804.68 170.76, 788.03 177.66, 769.69 184.27 C751.36 190.89, 729.93 197.12, 707.08 202.79 C684.23 208.46, 659.06 214.19, 632.58 218.29 C606.1 222.39, 577.44 225.1, 548.22 227.39 C519.01 229.69, 487.86 231.65, 457.29 232.08 C426.71 232.5, 395 231.2, 364.79 229.97 C334.57 228.74, 304.64 227.67, 275.98 224.71 C247.33 221.75, 218.42 216.84, 192.84 212.23 C167.27 207.62, 144.02 203, 122.55 197.07 C101.08 191.14, 80.37 183.57, 64.01 176.65 C47.64 169.74, 34.44 163.37, 24.37 155.58 C14.3 147.78, 7.47 138.26, 3.59 129.87 C-0.3 121.49, -1.71 113.34, 1.05 105.27 C3.82 97.2, 10.84 89.28, 20.2 81.46 C29.55 73.64, 41.94 65.54, 57.19 58.35 C72.43 51.17, 90.94 44.64, 111.66 38.34 C132.38 32.03, 151.35 25.93, 181.48 20.53 C211.62 15.13, 268.22 8.5, 292.47 5.93 C316.72 3.35, 324.66 3.23, 326.98 5.1 M576.51 6.95 C606.09 8.21, 632.66 14.97, 658.12 19.35 C683.58 23.73, 707.76 27.3, 729.25 33.24 C750.75 39.18, 770.46 47.92, 787.09 54.98 C803.72 62.04, 818.5 67.78, 829.01 75.6 C839.53 83.42, 846.67 93.25, 850.17 101.92 C853.68 110.59, 852.91 119.21, 850.04 127.6 C847.17 135.99, 841.87 144.6, 832.95 152.25 C824.04 159.89, 811.84 166.51, 796.56 173.47 C781.27 180.44, 762.25 187.8, 741.25 194.01 C720.25 200.23, 695.51 206.13, 670.56 210.79 C645.6 215.44, 619.45 218.59, 591.51 221.97 C563.57 225.35, 533.05 229.23, 502.91 231.07 C472.78 232.91, 441.33 233.66, 410.7 233 C380.07 232.34, 348.57 229.57, 319.15 227.09 C289.73 224.62, 261.61 221.75, 234.19 218.15 C206.77 214.55, 178.59 210.69, 154.65 205.48 C130.72 200.27, 109.27 193.53, 90.56 186.9 C71.86 180.27, 55.76 173.07, 42.43 165.71 C29.1 158.35, 17.4 150.8, 10.58 142.73 C3.76 134.66, 2.06 125.37, 1.52 117.26 C0.98 109.16, 1.57 102.06, 7.33 94.08 C13.1 86.09, 23.59 77.25, 36.12 69.37 C48.65 61.48, 64.16 53.45, 82.5 46.77 C100.83 40.09, 123.16 34.69, 146.12 29.29 C169.08 23.88, 193.88 18.6, 220.25 14.33 C246.62 10.07, 275.11 5.82, 304.36 3.67 C333.62 1.53, 365.29 2.03, 395.78 1.45 C426.28 0.87, 457.13 -1.04, 487.33 0.19 C517.54 1.42, 562.49 7.43, 577.01 8.81 C591.53 10.2, 576.95 6.76, 574.45 8.5" stroke="none" stroke-width="0" fill="#ffffff"></path><path d="M249.04 11.49 C272.49 6.66, 306.08 5.24, 335.73 3.18 C365.38 1.13, 396.39 -0.65, 426.96 -0.82 C457.53 -0.99, 489.23 0.26, 519.16 2.19 C549.1 4.12, 578.75 7.19, 606.58 10.78 C634.41 14.36, 661.85 18.79, 686.14 23.7 C710.42 28.61, 732.66 33.76, 752.31 40.21 C771.95 46.67, 789.82 54.86, 803.99 62.44 C818.16 70.01, 829.25 77.62, 837.35 85.68 C845.44 93.75, 851.02 102.66, 852.58 110.82 C854.14 118.98, 851.76 126.75, 846.72 134.66 C841.67 142.57, 833.74 150.48, 822.31 158.28 C810.88 166.07, 795.55 174.33, 778.14 181.42 C760.72 188.52, 740.09 195.31, 717.8 200.87 C695.5 206.42, 670.5 210.74, 644.34 214.76 C618.17 218.78, 589.73 222.2, 560.8 224.99 C531.87 227.78, 501.09 230.56, 470.74 231.53 C440.4 232.49, 409.05 231.71, 378.74 230.76 C348.43 229.81, 317.79 228.47, 288.88 225.82 C259.97 223.18, 231.33 219.28, 205.26 214.9 C179.19 210.52, 154.66 205.2, 132.46 199.54 C110.26 193.87, 89.28 187.81, 72.06 180.91 C54.84 174.02, 40.34 165.87, 29.14 158.14 C17.95 150.41, 9.56 142.58, 4.9 134.53 C0.24 126.48, -0.53 118.17, 1.18 109.83 C2.89 101.5, 7.02 92.49, 15.15 84.53 C23.27 76.57, 35.23 69.31, 49.94 62.08 C64.65 54.85, 83.59 47.52, 103.42 41.17 C123.24 34.82, 141.42 29.49, 168.9 23.98 C196.37 18.47, 247.82 10.73, 268.27 8.11 C288.73 5.5, 288.92 6.37, 291.63 8.29 M626.38 12.73 C654.82 14.65, 677.43 21.75, 700.55 27.25 C723.68 32.75, 746.36 39.22, 765.14 45.73 C783.92 52.23, 800.37 58.63, 813.24 66.27 C826.12 73.91, 835.92 83.46, 842.37 91.59 C848.83 99.72, 851.7 107.03, 851.97 115.08 C852.25 123.12, 850.27 131.56, 844 139.87 C837.73 148.18, 827.46 157.23, 814.37 164.96 C801.28 172.69, 783.94 179.8, 765.44 186.25 C746.94 192.71, 726.53 198.18, 703.39 203.68 C680.25 209.18, 653.67 215.51, 626.6 219.25 C599.53 223, 570.7 224.23, 540.97 226.15 C511.25 228.07, 478.7 230.16, 448.25 230.77 C417.8 231.37, 388.27 231.05, 358.27 229.78 C328.27 228.51, 296.79 226.09, 268.26 223.17 C239.74 220.26, 212.22 217.01, 187.11 212.28 C161.99 207.54, 138.82 201.04, 117.59 194.78 C96.36 188.52, 75.48 181.94, 59.73 174.74 C43.97 167.53, 32.51 159.02, 23.06 151.57 C13.6 144.11, 6.46 138.09, 2.99 130.03 C-0.49 121.97, -0.98 111.97, 2.19 103.22 C5.36 94.48, 12.39 85.47, 22.02 77.55 C31.65 69.63, 44.28 62.35, 59.99 55.69 C75.7 49.03, 95.39 43.31, 116.26 37.6 C137.14 31.9, 159.93 26.45, 185.24 21.47 C210.54 16.49, 239.73 10.8, 268.11 7.73 C296.48 4.65, 325.33 4.26, 355.5 3.01 C385.66 1.76, 418.63 0.14, 449.12 0.22 C479.6 0.29, 509.06 1.14, 538.41 3.47 C567.76 5.79, 611.6 12.41, 625.23 14.18 C638.86 15.94, 623.36 12.73, 620.19 14.07" stroke="#2b8a3e" stroke-width="1" fill="none"></path></g><g transform="translate(5966.638048692494 1985.0810130959726) rotate(0 416.7633754965973 105.24327664055454)"><text x="416.7633754965969" y="0" font-family="Virgil, Segoe UI Emoji" font-size="168.38924262488763px" fill="#000000" text-anchor="middle" style="white-space: pre;" direction="ltr" dominant-baseline="text-before-edge">Database</text></g><g stroke-linecap="round"><g transform="translate(6013.916965970911 3194.87998737453) rotate(0 427.39264706212634 402.4002038551225)" fill-rule="evenodd"><path d="M-1.35 0.5 C-0.97 114.36, -2.07 548.01, 0.64 682.86 C3.34 817.72, -4.35 781.26, 14.87 809.62 C34.1 837.98, 73.24 839.47, 115.98 853.02 C158.71 866.56, 217.79 883.61, 271.28 890.87 C324.77 898.13, 386.38 896.53, 436.92 896.55 C487.45 896.57, 529.09 895.93, 574.49 890.99 C619.89 886.05, 664.98 881.89, 709.29 866.9 C753.61 851.91, 817.34 831.35, 840.39 801.04 C863.43 770.73, 845.24 802.93, 847.59 685.06 C849.93 567.18, 855.53 208.54, 854.45 93.8 C853.37 -20.95, 860.28 21.52, 841.09 -3.39 C821.89 -28.3, 776.08 -42.04, 739.28 -55.66 C702.49 -69.28, 666.04 -79.15, 620.32 -85.13 C574.61 -91.1, 507.55 -90.51, 465.01 -91.54 C422.47 -92.56, 416.94 -94.08, 365.07 -91.28 C313.21 -88.47, 214.77 -90.14, 153.82 -74.71 C92.87 -59.29, 25.06 -11.06, -0.64 1.29" stroke="none" stroke-width="0" fill="#40c057" fill-rule="evenodd"></path><path d="M0.18 1.13 C-0.03 114.98, -2.97 548.94, -0.7 683.53 C1.57 818.11, -5.95 780.31, 13.79 808.64 C33.52 836.97, 74.73 840.11, 117.7 853.5 C160.68 866.89, 218.69 881.49, 271.65 888.97 C324.61 896.46, 384.94 898.29, 435.45 898.42 C485.97 898.54, 529.56 895.25, 574.74 889.7 C619.91 884.15, 662.58 879.53, 706.49 865.12 C750.39 850.71, 814.69 833.37, 838.18 803.23 C861.67 773.1, 844.74 802.49, 847.44 684.33 C850.14 566.16, 854.98 208.98, 854.4 94.26 C853.81 -20.46, 863.65 20.9, 843.91 -3.99 C824.16 -28.87, 773.78 -41.82, 735.93 -55.04 C698.07 -68.27, 662.34 -77.28, 616.78 -83.33 C571.21 -89.38, 504.59 -89.87, 462.52 -91.33 C420.46 -92.79, 415.39 -95.24, 364.39 -92.08 C313.39 -88.93, 217.38 -87.65, 156.5 -72.39 C95.63 -57.14, 25.22 -12.64, -0.87 -0.58 M-1.19 0.67 C-1.05 114.64, -1.23 550.44, 1.65 684.79 C4.52 819.14, -3.32 778.44, 16.06 806.77 C35.45 835.1, 75.6 841.02, 117.97 854.77 C160.33 868.52, 217.12 882.18, 270.26 889.28 C323.4 896.38, 386.04 897.49, 436.82 897.38 C487.6 897.27, 530.2 893.56, 574.94 888.64 C619.67 883.71, 661.61 882.27, 705.22 867.83 C748.84 853.4, 812.75 832.68, 836.63 802.05 C860.51 771.41, 845.44 802.34, 848.49 684.03 C851.54 565.71, 855.86 206.37, 854.92 92.15 C853.98 -22.07, 862.75 22.85, 842.86 -1.28 C822.96 -25.41, 772.84 -38.91, 735.55 -52.61 C698.26 -66.32, 664.62 -77.03, 619.12 -83.52 C573.62 -90.02, 504.89 -90.34, 462.57 -91.6 C420.26 -92.86, 416.36 -93.86, 365.23 -91.08 C314.11 -88.29, 216.51 -90.01, 155.81 -74.92 C95.12 -59.82, 27.26 -13.03, 1.05 -0.52" stroke="#2b8a3e" stroke-width="1" fill="none"></path></g></g><mask></mask><g stroke-linecap="round" transform="translate(6010.7726144699445 3091.1113456157036) rotate(0 426.24775984049666 115.89458306440793)"><path d="M500.75 1.2 C530.41 0.82, 561.22 6.37, 589.55 9.58 C617.88 12.78, 645.79 15.8, 670.73 20.41 C695.68 25.03, 718.46 31.23, 739.21 37.26 C759.96 43.29, 779.9 49.45, 795.23 56.6 C810.56 63.74, 821.98 72.03, 831.19 80.13 C840.4 88.22, 847.31 97.03, 850.48 105.18 C853.66 113.34, 853.97 121.03, 850.22 129.07 C846.47 137.12, 838.28 145.52, 828 153.45 C817.72 161.38, 804.48 169.54, 788.55 176.65 C772.62 183.77, 753.75 190.11, 732.41 196.13 C711.08 202.14, 686.13 207.9, 660.52 212.73 C634.92 217.57, 607.44 222.23, 578.77 225.13 C550.11 228.03, 518.8 229.14, 488.54 230.12 C458.28 231.09, 427.52 231.36, 397.21 230.97 C366.89 230.57, 335.9 229.97, 306.64 227.76 C277.39 225.55, 248.36 221.75, 221.7 217.69 C195.04 213.63, 169.66 208.8, 146.69 203.38 C123.72 197.96, 102.33 191.83, 83.9 185.15 C65.47 178.48, 48.57 171.11, 36.1 163.34 C23.64 155.56, 15.07 146.77, 9.11 138.52 C3.15 130.26, -0.04 122.05, 0.37 113.82 C0.78 105.59, 4.74 97.2, 11.57 89.14 C18.4 81.09, 28.28 72.81, 41.33 65.46 C54.39 58.11, 71.14 51.66, 89.91 45.04 C108.68 38.41, 130.39 31.02, 153.94 25.7 C177.5 20.38, 203.96 16.9, 231.24 13.13 C258.53 9.36, 287.88 5.32, 317.65 3.1 C347.42 0.87, 377.31 -0.16, 409.86 -0.23 C442.41 -0.3, 493.78 1.58, 512.93 2.66 C532.09 3.75, 526.22 4.26, 524.78 6.26 M524.11 4.66 C554.2 4.89, 585.84 8.9, 613.48 12.06 C641.11 15.21, 666.22 18.34, 689.92 23.58 C713.62 28.83, 736.21 36.76, 755.66 43.54 C775.12 50.32, 792.74 56.82, 806.66 64.27 C820.58 71.72, 831.39 80.44, 839.19 88.25 C846.98 96.06, 852.46 102.87, 853.43 111.14 C854.41 119.41, 850.51 129.77, 845.03 137.88 C839.56 145.99, 832.41 152.33, 820.58 159.79 C808.75 167.24, 791.77 175.8, 774.05 182.62 C756.33 189.43, 736.91 195.13, 714.26 200.66 C691.62 206.2, 664.68 211.49, 638.19 215.83 C611.71 220.17, 584.37 223.91, 555.35 226.72 C526.33 229.53, 494.5 231.82, 464.07 232.67 C433.65 233.52, 403.08 233.08, 372.8 231.83 C342.51 230.58, 310.95 228.06, 282.36 225.19 C253.76 222.32, 226.98 219.17, 201.22 214.62 C175.46 210.06, 149.88 203.87, 127.79 197.87 C105.7 191.87, 85.47 185.7, 68.67 178.62 C51.87 171.54, 37.48 163.24, 26.99 155.42 C16.5 147.6, 9.88 139.65, 5.73 131.72 C1.59 123.79, 0.24 116.14, 2.13 107.84 C4.02 99.54, 8.66 89.91, 17.06 81.94 C25.46 73.97, 37.67 67.2, 52.52 60.02 C67.37 52.84, 85.78 45.2, 106.15 38.87 C126.52 32.54, 149.95 27.05, 174.73 22.06 C199.5 17.07, 226.71 12.35, 254.81 8.94 C282.91 5.53, 313.25 3.11, 343.32 1.61 C373.38 0.12, 405.07 -0.21, 435.19 -0.04 C465.31 0.12, 509.39 1.8, 524.03 2.62 C538.67 3.45, 524.25 2.98, 523.03 4.91" stroke="none" stroke-width="0" fill="#ffffff"></path><path d="M226.12 13.74 C248.32 8.35, 281.91 6.6, 311.29 4.22 C340.66 1.84, 371.76 0, 402.35 -0.52 C432.94 -1.04, 464.85 -0.36, 494.84 1.12 C524.83 2.59, 553.91 5.15, 582.28 8.34 C610.66 11.54, 639.56 15.62, 665.07 20.29 C690.59 24.96, 714.22 30.31, 735.37 36.35 C756.52 42.39, 776.34 49.63, 791.95 56.52 C807.57 63.42, 819.53 70.11, 829.08 77.72 C838.63 85.33, 845.76 93.83, 849.26 102.17 C852.76 110.51, 853.15 119.39, 850.08 127.76 C847.02 136.12, 840.66 144.28, 830.9 152.38 C821.14 160.48, 807.19 169.29, 791.52 176.35 C775.85 183.4, 757.87 188.82, 736.89 194.71 C715.91 200.59, 691.01 206.96, 665.65 211.64 C640.3 216.32, 613.04 219.8, 584.74 222.8 C556.45 225.81, 525.99 228.16, 495.9 229.67 C465.81 231.19, 434.76 232.24, 404.2 231.89 C373.64 231.54, 341.89 229.95, 312.54 227.59 C283.18 225.22, 255.04 221.59, 228.09 217.7 C201.15 213.82, 174.19 209.44, 150.86 204.28 C127.54 199.13, 106.78 193.44, 88.13 186.78 C69.48 180.12, 51.86 171.78, 38.99 164.32 C26.12 156.85, 17.35 149.86, 10.9 141.99 C4.44 134.13, 0.56 125.53, 0.26 117.12 C-0.05 108.7, 2.51 99.73, 9.04 91.48 C15.58 83.23, 26.53 75.35, 39.46 67.62 C52.4 59.88, 68.33 51.57, 86.67 45.06 C105.01 38.56, 124.88 33.91, 149.5 28.61 C174.12 23.32, 218.12 15.74, 234.38 13.3 C250.64 10.87, 243.75 12.42, 247.05 14 M455.61 1.07 C485.17 -0.16, 517.19 2.34, 546.5 4.35 C575.81 6.35, 604.82 9.13, 631.49 13.11 C658.16 17.08, 683.73 22.65, 706.54 28.19 C729.34 33.73, 750.26 39.34, 768.32 46.36 C786.37 53.38, 802.39 62.74, 814.86 70.32 C827.33 77.89, 836.83 84.08, 843.14 91.82 C849.44 99.56, 853.19 108.35, 852.66 116.74 C852.14 125.12, 846.9 133.86, 840 142.13 C833.09 150.4, 824.33 158.85, 811.24 166.35 C798.15 173.85, 780.66 180.57, 761.48 187.11 C742.31 193.65, 719.85 200.36, 696.2 205.59 C672.56 210.82, 646.48 214.74, 619.62 218.49 C592.76 222.24, 564.62 225.95, 535.05 228.11 C505.47 230.26, 473.12 231.08, 442.16 231.41 C411.2 231.74, 379.37 231.56, 349.29 230.08 C319.22 228.6, 289.62 225.72, 261.72 222.54 C233.82 219.36, 206.73 215.85, 181.9 211.01 C157.08 206.17, 133.42 199.69, 112.77 193.49 C92.12 187.28, 73.57 180.95, 58.01 173.78 C42.46 166.62, 28.56 158.29, 19.42 150.49 C10.28 142.7, 6.03 135.34, 3.18 127.01 C0.33 118.67, -1.16 108.67, 2.33 100.47 C5.82 92.26, 13.92 85.26, 24.12 77.76 C34.32 70.27, 47.26 62.47, 63.54 55.5 C79.82 48.54, 100.41 42.04, 121.81 35.99 C143.2 29.94, 166.51 24.07, 191.92 19.2 C217.33 14.33, 245.38 9.97, 274.27 6.78 C303.16 3.58, 335.14 1, 365.24 0.03 C395.34 -0.94, 440.04 0.6, 454.87 0.94 C469.7 1.27, 454.57 0.42, 454.23 2.02" stroke="#2b8a3e" stroke-width="1" fill="none"></path></g><g transform="translate(6017.235181721273 4098.402101103187) rotate(0 416.7633754965973 105.24327664055454)"><text x="416.7633754965969" y="0" font-family="Virgil, Segoe UI Emoji" font-size="168.38924262488763px" fill="#000000" text-anchor="middle" style="white-space: pre;" direction="ltr" dominant-baseline="text-before-edge">Database</text></g><g stroke-linecap="round"><g transform="translate(2560 2739.9999999999927) rotate(0 429.9893895503519 -0.012062367801263463)"><path d="M-0.12 0 C143.25 0.04, 716.77 0.1, 860.1 0.11 M0.09 -0.13 C143.45 -0.12, 716.69 -0.15, 860.03 -0.1" stroke="#1e1e1e" stroke-width="4" fill="none"></path></g><g transform="translate(2560 2739.9999999999927) rotate(0 429.9893895503519 -0.012062367801263463)"><path d="M831.84 10.16 C838.08 8.12, 844.51 5.39, 860.03 -0.1 M831.84 10.16 C840.53 6.92, 849.37 3.96, 860.03 -0.1" stroke="#1e1e1e" stroke-width="4" fill="none"></path></g><g transform="translate(2560 2739.9999999999927) rotate(0 429.9893895503519 -0.012062367801263463)"><path d="M831.84 -10.36 C838.05 -7.87, 844.48 -6.07, 860.03 -0.1 M831.84 -10.36 C840.52 -7.27, 849.36 -3.89, 860.03 -0.1" stroke="#1e1e1e" stroke-width="4" fill="none"></path></g></g><mask></mask><g transform="translate(2466.666666666666 2503.333333333321) rotate(0 566.5879821777244 70.83333333333212)"><text x="0" y="0" font-family="Virgil, Segoe UI Emoji" font-size="113.33333333333141px" fill="#2f9e44" text-anchor="start" style="white-space: pre;" direction="ltr" dominant-baseline="text-before-edge">streaming replication</text></g><g transform="translate(1573.3333333333358 3441.6666666666642) rotate(0 345.33055496216093 129.19391746439214)"><text x="0" y="0" font-family="Virgil, Segoe UI Emoji" font-size="206.71026794302767px" fill="#f08c00" text-anchor="start" style="white-space: pre;" direction="ltr" dominant-baseline="text-before-edge">primary</text></g><g transform="translate(3853.1916669209822 3416.639415868929) rotate(0 359.5863608675827 119.19391746439214)"><text x="0" y="0" font-family="Virgil, Segoe UI Emoji" font-size="190.71026794303012px" fill="#f08c00" text-anchor="start" style="white-space: pre;" direction="ltr" dominant-baseline="text-before-edge">standby</text></g><g stroke-linecap="round"><g transform="translate(4673.333333333336 2380.8333333333285) rotate(0 574.7666878084055 -375.0896353959979)"><path d="M0.01 1.11 C191.83 -123.73, 959.4 -624.15, 1150.97 -749.45 M-1.44 0.65 C190.3 -124.52, 958.9 -626.22, 1150.54 -751.29" stroke="#1e1e1e" stroke-width="4" fill="none"></path></g><g transform="translate(4673.333333333336 2380.8333333333285) rotate(0 574.7666878084055 -375.0896353959979)"><path d="M1132.54 -727.29 C1139.97 -733.01, 1144.54 -742.87, 1150.54 -751.29 M1132.54 -727.29 C1137.12 -732.42, 1140.67 -738.33, 1150.54 -751.29" stroke="#1e1e1e" stroke-width="4" fill="none"></path></g><g transform="translate(4673.333333333336 2380.8333333333285) rotate(0 574.7666878084055 -375.0896353959979)"><path d="M1121.32 -744.47 C1132.13 -744.94, 1140.12 -749.55, 1150.54 -751.29 M1121.32 -744.47 C1128.54 -745.42, 1134.77 -747.22, 1150.54 -751.29" stroke="#1e1e1e" stroke-width="4" fill="none"></path></g></g><mask></mask><g stroke-linecap="round"><g transform="translate(4693.333333333336 2630.8333333333285) rotate(0 540.0093207326672 450.58108657410776)"><path d="M0.33 0.81 C180.63 151.13, 900.99 751.17, 1080.98 900.97 M-0.96 0.19 C179.34 150.28, 900.45 749.27, 1080.54 899.36" stroke="#1e1e1e" stroke-width="4" fill="none"></path></g><g transform="translate(4693.333333333336 2630.8333333333285) rotate(0 540.0093207326672 450.58108657410776)"><path d="M1052.31 889.22 C1060.14 893.13, 1066.98 894.23, 1080.54 899.36 M1052.31 889.22 C1060.53 892.72, 1066.75 894.62, 1080.54 899.36" stroke="#1e1e1e" stroke-width="4" fill="none"></path></g><g transform="translate(4693.333333333336 2630.8333333333285) rotate(0 540.0093207326672 450.58108657410776)"><path d="M1065.43 873.44 C1070.09 881.06, 1073.87 885.83, 1080.54 899.36 M1065.43 873.44 C1070.27 881.15, 1072.96 887.27, 1080.54 899.36" stroke="#1e1e1e" stroke-width="4" fill="none"></path></g></g><mask></mask><g transform="translate(3953.3333333333358 3670.8333333333285) rotate(0 430.9194624159072 132.5)"><text x="0" y="0" font-family="Virgil, Segoe UI Emoji" font-size="212.00000000000003px" fill="#1971c2" text-anchor="start" style="white-space: pre;" direction="ltr" dominant-baseline="text-before-edge">publisher</text></g><g transform="translate(6602.413870917429 2268.3333333333285) rotate(0 508.6000061035156 132.5)"><text x="0" y="0" font-family="Virgil, Segoe UI Emoji" font-size="212.00000000000003px" fill="#1971c2" text-anchor="start" style="white-space: pre;" direction="ltr" dominant-baseline="text-before-edge">subscriber</text></g><g transform="translate(6672.413870917429 4348.3333333333285) rotate(0 508.6000061035156 132.5)"><text x="0" y="0" font-family="Virgil, Segoe UI Emoji" font-size="212.00000000000003px" fill="#1971c2" text-anchor="start" style="white-space: pre;" direction="ltr" dominant-baseline="text-before-edge">subscriber</text></g><g transform="translate(4543.333333333336 1582.5858446974016) rotate(327.662573392616 713.5750122070312 106.62374431796343)"><text x="0" y="0" font-family="Virgil, Segoe UI Emoji" font-size="170.59799090874398px" fill="#2f9e44" text-anchor="start" style="white-space: pre;" direction="ltr" dominant-baseline="text-before-edge">logical replication</text></g><g transform="translate(4637.216664632164 2794.2095890153723) rotate(39.5596679689936 716.1166687011719 106.62374431796343)"><text x="0" y="0" font-family="Virgil, Segoe UI Emoji" font-size="170.59799090874398px" fill="#2f9e44" text-anchor="start" style="white-space: pre;" direction="ltr" dominant-baseline="text-before-edge">logical replication</text></g><g transform="translate(1473.3333333333358 4740.8333333333285) rotate(0 1109.0416259765625 535.9930524361262)"><text x="0" y="0" font-family="Virgil, Segoe UI Emoji" font-size="214.39722097445016px" fill="#1e1e1e" text-anchor="start" style="white-space: pre;" direction="ltr" dominant-baseline="text-before-edge">Upon failover, </text><text x="0" y="267.9965262180627" font-family="Virgil, Segoe UI Emoji" font-size="214.39722097445016px" fill="#1e1e1e" text-anchor="start" style="white-space: pre;" direction="ltr" dominant-baseline="text-before-edge">the replication slots</text><text x="0" y="535.9930524361254" font-family="Virgil, Segoe UI Emoji" font-size="214.39722097445016px" fill="#1e1e1e" text-anchor="start" style="white-space: pre;" direction="ltr" dominant-baseline="text-before-edge">for logical replication</text><text x="0" y="803.9895786541881" font-family="Virgil, Segoe UI Emoji" font-size="214.39722097445016px" fill="#1e1e1e" text-anchor="start" style="white-space: pre;" direction="ltr" dominant-baseline="text-before-edge">preserve</text></g><g stroke-linecap="round"><g transform="translate(1373.439331539248 7372.03186767982) rotate(0 505.77566330171067 476.3812459494984)" fill-rule="evenodd"><path d="M-1.34 0.2 C-0.93 135.17, -1.07 650.56, 1.8 809.79 C4.67 969.03, -7.43 922.45, 15.88 955.63 C39.19 988.82, 90.42 993.02, 141.66 1008.9 C192.91 1024.78, 261.3 1042.09, 323.34 1050.91 C385.37 1059.73, 454.44 1061.47, 513.87 1061.84 C573.31 1062.22, 625.66 1059.33, 679.95 1053.16 C734.25 1046.99, 787.58 1041.72, 839.65 1024.83 C891.72 1007.94, 964.97 987.24, 992.36 951.82 C1019.75 916.4, 1001.02 952.94, 1003.99 812.31 C1006.95 671.68, 1010.94 244.34, 1010.14 108.05 C1009.35 -28.24, 1022.04 23.32, 999.24 -5.42 C976.44 -34.16, 917.95 -49.08, 873.36 -64.37 C828.78 -79.66, 785.85 -89.6, 731.73 -97.14 C677.61 -104.68, 598.74 -108.08, 548.65 -109.63 C498.56 -111.18, 491.56 -110.14, 431.19 -106.46 C370.81 -102.79, 258.2 -105.08, 186.39 -87.56 C114.59 -70.03, 31.38 -15.94, 0.35 -1.3" stroke="none" stroke-width="0" fill="#228be6" fill-rule="evenodd"></path><path d="M0.5 0.38 C0.49 135.58, -3.13 651.43, -0.18 810.71 C2.77 969.99, -5.21 922.63, 18.22 956.04 C41.65 989.46, 90.01 994.92, 140.4 1011.2 C190.79 1027.48, 258.14 1044.9, 320.56 1053.75 C382.98 1062.59, 454.81 1064.29, 514.91 1064.29 C575 1064.29, 627.42 1060.26, 681.11 1053.74 C734.8 1047.21, 785.18 1042.07, 837.05 1025.13 C888.91 1008.2, 964.62 988.03, 992.32 952.13 C1020.02 916.23, 999.98 949.94, 1003.25 809.73 C1006.53 669.52, 1012.64 246.23, 1011.99 110.87 C1011.34 -24.5, 1022.3 26.64, 999.33 -2.49 C976.35 -31.61, 918.76 -48, 874.14 -63.9 C829.52 -79.79, 785.68 -90.51, 731.59 -97.84 C677.5 -105.16, 599.63 -106.16, 549.59 -107.85 C499.55 -109.55, 492.37 -111.73, 431.36 -108.01 C370.36 -104.3, 255.49 -103.42, 183.56 -85.59 C111.63 -67.75, 30.44 -15.34, -0.23 -0.99 M-0.69 -0.47 C-0.86 134.4, -4.28 649.22, -1.22 808.78 C1.85 968.35, -6.02 923.57, 17.71 956.92 C41.44 990.28, 90.43 992.66, 141.18 1008.9 C191.92 1025.14, 259.76 1045.32, 322.2 1054.38 C384.63 1063.44, 455.91 1063.55, 515.77 1063.25 C575.64 1062.96, 628.03 1058.51, 681.37 1052.61 C734.71 1046.72, 783.68 1044.77, 835.81 1027.88 C887.93 1011, 966.09 987.78, 994.13 951.29 C1022.16 914.8, 1000.96 948.82, 1004.01 808.96 C1007.07 669.09, 1013.45 247.33, 1012.47 112.11 C1011.49 -23.11, 1021.06 27.07, 998.13 -2.36 C975.2 -31.8, 919.46 -48.64, 874.88 -64.51 C830.3 -80.38, 785.33 -90.34, 730.65 -97.57 C675.97 -104.8, 596.58 -105.8, 546.81 -107.9 C497.03 -110, 492.2 -113.48, 432.01 -110.15 C371.82 -106.82, 257.95 -106.11, 185.67 -87.95 C113.39 -69.78, 29.05 -15.97, -1.64 -1.15" stroke="#364fc7" stroke-width="1" fill="none"></path></g></g><mask></mask><g stroke-linecap="round" transform="translate(1369.714432938912 7249.104240686633) rotate(0 504.9466268442584 137.29240198187472)"><path d="M293.16 11.71 C318.88 6.14, 357.37 5.89, 390.34 3.95 C423.32 2, 457.2 0.43, 490.99 0.06 C524.78 -0.32, 559.63 0.07, 593.07 1.67 C626.51 3.28, 659.93 6.14, 691.64 9.68 C723.35 13.22, 755.13 17.72, 783.34 22.9 C811.54 28.09, 837.18 34.25, 860.86 40.79 C884.54 47.34, 906.7 54.65, 925.42 62.17 C944.14 69.68, 960.46 77.32, 973.17 85.9 C985.89 94.48, 995.5 104.53, 1001.69 113.65 C1007.88 122.77, 1011.17 131.52, 1010.3 140.62 C1009.43 149.71, 1004.17 159.17, 996.47 168.22 C988.78 177.26, 978.22 186.46, 964.14 194.88 C950.05 203.29, 932.05 211.48, 911.97 218.73 C891.89 225.97, 868.63 232.22, 843.66 238.35 C818.69 244.49, 791.46 250.6, 762.14 255.52 C732.83 260.44, 700.05 264.85, 667.78 267.88 C635.51 270.92, 602.13 272.6, 568.52 273.72 C534.91 274.84, 499.84 275.21, 466.12 274.63 C432.4 274.04, 398.48 272.85, 366.21 270.22 C333.93 267.58, 302.38 263.17, 272.48 258.82 C242.58 254.47, 213.32 249.95, 186.83 244.14 C160.33 238.33, 135.09 231.18, 113.49 223.95 C91.89 216.71, 72.89 208.99, 57.22 200.73 C41.56 192.46, 28.92 183.02, 19.5 174.35 C10.08 165.67, 3.22 157.69, 0.7 148.69 C-1.81 139.68, -0.08 129.57, 4.42 120.3 C8.91 111.02, 16.86 101.64, 27.67 93.04 C38.48 84.45, 52.19 76.61, 69.27 68.73 C86.35 60.85, 107.4 52.92, 130.14 45.77 C152.89 38.61, 174.72 31.79, 205.74 25.78 C236.75 19.78, 293.75 12.35, 316.24 9.74 C338.74 7.14, 337.63 7.94, 340.69 10.16 M591.84 2.41 C625.12 1.73, 660.7 4.78, 692.44 8.33 C724.19 11.89, 754.18 18.33, 782.3 23.75 C810.42 29.18, 837.28 34.62, 861.14 40.86 C885.01 47.1, 906.88 53.48, 925.49 61.19 C944.1 68.9, 959.94 78.43, 972.79 87.14 C985.64 95.86, 996.61 104.7, 1002.58 113.47 C1008.54 122.25, 1009.37 130.69, 1008.57 139.8 C1007.77 148.91, 1005.12 159.04, 997.77 168.14 C990.42 177.23, 978.72 186.09, 964.48 194.37 C950.23 202.66, 932.53 210.43, 912.32 217.83 C892.11 225.22, 868.39 232.42, 843.23 238.74 C818.08 245.07, 790.58 251.15, 761.39 255.78 C732.21 260.42, 700.22 263.5, 668.13 266.56 C636.04 269.61, 602.22 272.63, 568.84 274.11 C535.46 275.58, 501.61 275.95, 467.85 275.4 C434.09 274.85, 398.93 273.61, 366.27 270.8 C333.61 267.99, 301.6 262.98, 271.88 258.55 C242.16 254.11, 214.24 250.1, 187.96 244.2 C161.68 238.29, 136.1 230.16, 114.2 223.11 C92.3 216.05, 72.4 209.93, 56.56 201.86 C40.72 193.78, 28.22 183.67, 19.18 174.68 C10.15 165.69, 4.98 157.13, 2.35 147.91 C-0.28 138.7, -0.67 128.4, 3.41 119.41 C7.49 110.41, 15.7 102.4, 26.83 93.95 C37.97 85.49, 53.29 76.75, 70.2 68.69 C87.11 60.63, 105.63 52.73, 128.29 45.58 C150.96 38.43, 178.68 31.19, 206.2 25.76 C233.72 20.34, 262.94 16.96, 293.43 13.04 C323.91 9.13, 356.15 4.31, 389.08 2.29 C422.02 0.27, 456.87 0.92, 491.04 0.92 C525.22 0.92, 577.43 1.56, 594.14 2.31 C610.86 3.06, 593.13 3.34, 591.33 5.41" stroke="none" stroke-width="0" fill="#ffffff"></path><path d="M608.11 1.99 C641.48 1.29, 674.46 6.69, 705.5 10.38 C736.54 14.08, 766.59 18.81, 794.35 24.17 C822.11 29.54, 848.93 35.84, 872.06 42.59 C895.2 49.33, 915.22 56.76, 933.16 64.65 C951.11 72.53, 967.95 81.15, 979.72 89.89 C991.48 98.62, 998.76 107.89, 1003.74 117.06 C1008.72 126.23, 1011.16 135.61, 1009.59 144.9 C1008.03 154.2, 1002.94 164.03, 994.36 172.82 C985.78 181.62, 973.13 189.4, 958.12 197.67 C943.1 205.94, 925 215.21, 904.28 222.44 C883.56 229.67, 859.61 235.29, 833.8 241.05 C807.99 246.81, 779.08 252.49, 749.43 257.01 C719.78 261.53, 688.46 265.44, 655.9 268.19 C623.34 270.93, 587.87 272.59, 554.07 273.49 C520.28 274.39, 486.69 274.57, 453.13 273.6 C419.56 272.63, 385.05 270.26, 352.69 267.65 C320.33 265.04, 288.61 262.44, 258.98 257.92 C229.36 253.4, 200.71 246.49, 174.95 240.51 C149.2 234.52, 125.21 229.07, 104.44 222.01 C83.68 214.96, 65.29 206.75, 50.36 198.18 C35.43 189.6, 23.32 179.73, 14.86 170.56 C6.4 161.39, 1.08 152.07, -0.4 143.16 C-1.89 134.25, 0.65 126.09, 5.93 117.09 C11.21 108.1, 19.36 97.93, 31.26 89.2 C43.16 80.46, 59.11 72.59, 77.33 64.7 C95.54 56.81, 117.37 48.54, 140.56 41.85 C163.75 35.16, 188.88 29.69, 216.47 24.57 C244.06 19.44, 274.77 14.74, 306.09 11.09 C337.41 7.43, 370.95 4.47, 404.39 2.63 C437.83 0.78, 469.04 -0.18, 506.73 0.04 C544.42 0.26, 606.38 2.36, 630.52 3.96 C654.66 5.56, 653.68 7.34, 651.57 9.64 M374.02 4.78 C403.03 0.38, 440.76 1.43, 474.32 0.79 C507.88 0.16, 541.73 -0.3, 575.37 0.97 C609 2.24, 644.24 5.28, 676.13 8.41 C708.03 11.54, 738.15 14.88, 766.76 19.78 C795.36 24.67, 822.85 31.64, 847.76 37.79 C872.67 43.95, 896.36 49.54, 916.23 56.71 C936.1 63.88, 953.07 72.44, 966.99 80.81 C980.9 89.18, 992.36 97.58, 999.72 106.94 C1007.07 116.3, 1010.74 127.56, 1011.11 136.96 C1011.48 146.36, 1008.44 154.4, 1001.93 163.33 C995.42 172.26, 985.45 181.98, 972.05 190.55 C958.65 199.12, 940.61 207.14, 921.51 214.73 C902.41 222.32, 881.53 229.64, 857.46 236.09 C833.4 242.55, 805.59 248.68, 777.14 253.46 C748.68 258.23, 718.37 261.41, 686.75 264.77 C655.13 268.12, 621.04 271.95, 587.42 273.59 C553.8 275.23, 518.75 274.86, 485.04 274.6 C451.32 274.34, 418.01 274.1, 385.12 272.04 C352.23 269.99, 318.53 266.58, 287.69 262.24 C256.86 257.91, 227.08 251.54, 200.14 246.04 C173.19 240.54, 148.38 236.06, 126.05 229.23 C103.72 222.4, 82.97 213.5, 66.17 205.06 C49.36 196.63, 35.6 187.41, 25.22 178.61 C14.85 169.81, 7.64 161.01, 3.91 152.26 C0.18 143.5, 0.07 135.07, 2.84 126.08 C5.6 117.09, 10.92 107.37, 20.52 98.31 C30.11 89.25, 44.33 80.09, 60.4 71.72 C76.47 63.35, 95.06 55.28, 116.94 48.08 C138.82 40.89, 165.11 34.21, 191.69 28.56 C218.27 22.9, 246.32 17.89, 276.42 14.15 C306.52 10.42, 355.89 7.23, 372.29 6.16 C388.7 5.09, 372.67 5.89, 374.85 7.74" stroke="#364fc7" stroke-width="1" fill="none"></path></g><g transform="translate(1389.6147514448385 8445.979693012021) rotate(0 493.71112408422323 124.67452628389583)"><text x="493.7111240842236" y="0" font-family="Virgil, Segoe UI Emoji" font-size="199.4792420542318px" fill="#000000" text-anchor="middle" style="white-space: pre;" direction="ltr" dominant-baseline="text-before-edge">Database</text></g><g stroke-linecap="round"><g transform="translate(3571.7620641924805 7354.37200772333) rotate(0 490.52848705781525 462.23988370587176)" fill-rule="evenodd"><path d="M2.27 -1.82 C2.87 128.9, -0.42 628.61, 1.72 783.09 C3.86 937.57, -6.81 892.33, 15.11 925.07 C37.03 957.81, 83.41 963.78, 133.22 979.53 C183.02 995.28, 252.85 1010.77, 313.94 1019.57 C375.04 1028.38, 441.86 1031.78, 499.81 1032.34 C557.75 1032.91, 609.9 1029.62, 661.64 1022.97 C713.37 1016.31, 760.07 1009.56, 810.21 992.4 C860.36 975.24, 935.45 954.52, 962.53 920.02 C989.61 885.51, 969.71 920.63, 972.68 785.39 C975.65 650.15, 981.06 240.16, 980.34 108.56 C979.61 -23.04, 990.83 23.91, 968.35 -4.22 C945.87 -32.36, 888.2 -44.85, 845.45 -60.25 C802.69 -75.65, 764.06 -88.84, 711.83 -96.6 C659.6 -104.36, 580.86 -105.41, 532.07 -106.79 C483.27 -108.16, 477.63 -108.67, 419.05 -104.87 C360.46 -101.07, 250.19 -101.61, 180.55 -83.99 C110.92 -66.37, 31.42 -13.03, 1.25 0.86" stroke="none" stroke-width="0" fill="#fa5252" fill-rule="evenodd"></path><path d="M1.01 0.49 C0.75 131.61, -3.58 631.42, -1.06 785.92 C1.46 940.43, -6.43 895.15, 16.14 927.51 C38.72 959.88, 85.18 964.72, 134.38 980.11 C183.58 995.51, 250.44 1011.12, 311.34 1019.88 C372.24 1028.63, 441.51 1032.56, 499.77 1032.65 C558.03 1032.73, 608.86 1026.63, 660.91 1020.39 C712.95 1014.15, 761.78 1011.45, 812.06 995.21 C862.34 978.97, 935.71 957.84, 962.61 922.95 C989.51 888.06, 970.53 921.71, 973.46 785.86 C976.39 650.02, 980.89 239.25, 980.19 107.87 C979.5 -23.52, 991.72 25.83, 969.29 -2.45 C946.87 -30.72, 889.01 -46.44, 845.62 -61.8 C802.24 -77.16, 761.35 -87.18, 709 -94.63 C656.64 -102.08, 579.93 -104.8, 531.48 -106.48 C483.04 -108.16, 477.22 -108.48, 418.33 -104.73 C359.45 -100.98, 248.01 -101.46, 178.18 -83.99 C108.35 -66.52, 28.89 -13.85, -0.65 0.1 M0.08 -0.3 C0.14 130.53, -1.97 629.19, 1.1 784.04 C4.17 938.9, -3.7 895.94, 18.49 928.84 C40.68 961.74, 85.1 966.29, 134.24 981.44 C183.38 996.58, 252.19 1011.25, 313.31 1019.7 C374.44 1028.15, 442.96 1031.7, 501 1032.15 C559.04 1032.6, 609.84 1028.55, 661.54 1022.38 C713.24 1016.21, 761.26 1011.84, 811.19 995.13 C861.13 978.42, 934.51 957.03, 961.16 922.12 C987.81 887.2, 967.9 921.7, 971.08 785.62 C974.27 649.54, 980.72 236.98, 980.28 105.65 C979.84 -25.68, 990.9 25.64, 968.43 -2.36 C945.96 -30.36, 888.87 -47.03, 845.46 -62.35 C802.06 -77.67, 760.29 -87.34, 707.99 -94.27 C655.7 -101.19, 579.84 -101.8, 531.69 -103.9 C483.54 -106, 478.26 -110.33, 419.1 -106.88 C359.95 -103.44, 246.39 -101.15, 176.77 -83.24 C107.15 -65.34, 30.84 -13.33, 1.38 0.52" stroke="#c92a2a" stroke-width="1" fill="none"></path></g></g><mask></mask><g stroke-linecap="round" transform="translate(3568.1514837921422 7235.217064648779) rotate(0 489.4496709078985 133.0788590234697)"><path d="M577.4 1.73 C609.61 1.12, 642.13 6.17, 672.81 9.64 C703.49 13.12, 734.25 17.53, 761.48 22.6 C788.72 27.66, 813.42 33.68, 836.24 40.06 C859.06 46.44, 880.41 53.55, 898.41 60.86 C916.41 68.17, 932.08 75.57, 944.25 83.9 C956.41 92.24, 965.56 102.03, 971.4 110.88 C977.23 119.73, 980.26 128.19, 979.24 137 C978.23 145.81, 972.92 154.98, 965.29 163.74 C957.66 172.5, 947.28 181.4, 933.47 189.55 C919.66 197.69, 902.04 205.6, 882.44 212.59 C862.83 219.58, 840.16 225.58, 815.84 231.49 C791.53 237.39, 765.05 243.3, 736.54 248.03 C708.03 252.77, 676.15 257.01, 644.8 259.91 C613.46 262.81, 581.09 264.37, 548.49 265.42 C515.89 266.46, 481.87 266.77, 449.21 266.16 C416.54 265.55, 383.7 264.36, 352.47 261.76 C321.25 259.16, 290.75 254.8, 261.85 250.54 C232.96 246.29, 204.69 241.88, 179.11 236.21 C153.53 230.54, 129.17 223.57, 108.36 216.52 C87.55 209.47, 69.29 201.97, 54.26 193.94 C39.23 185.9, 27.15 176.71, 18.19 168.29 C9.22 159.88, 2.73 152.18, 0.47 143.45 C-1.79 134.72, 0.09 124.9, 4.63 115.91 C9.16 106.93, 17.05 97.83, 27.68 89.52 C38.32 81.21, 51.75 73.66, 68.45 66.05 C85.15 58.44, 105.71 50.77, 127.89 43.85 C150.07 36.94, 174.87 29.92, 201.51 24.55 C228.16 19.18, 257.94 15.2, 287.76 11.63 C317.59 8.06, 348.55 5.02, 380.47 3.14 C412.4 1.26, 444.19 0.36, 479.31 0.35 C514.43 0.34, 571 2.23, 591.21 3.09 C611.41 3.96, 602.24 3.27, 600.53 5.54 M276.74 14.08 C301.22 8.18, 337.69 5.88, 369.44 3.74 C401.18 1.59, 434.2 1.42, 467.22 1.19 C500.24 0.97, 535.21 1.25, 567.55 2.37 C599.89 3.5, 630.56 4.87, 661.27 7.93 C691.97 10.99, 723.78 15.82, 751.77 20.71 C779.76 25.6, 805.73 31.17, 829.22 37.27 C852.71 43.37, 874.34 49.98, 892.71 57.3 C911.08 64.62, 926.75 72.82, 939.44 81.19 C952.13 89.55, 962.46 98.77, 968.84 107.48 C975.21 116.18, 977.96 124.42, 977.69 133.4 C977.42 142.39, 973.81 152.36, 967.21 161.39 C960.61 170.41, 951.2 179.24, 938.08 187.55 C924.96 195.87, 907.48 204.25, 888.47 211.25 C869.47 218.25, 847.65 223.63, 824.04 229.56 C800.44 235.48, 774.81 242.21, 746.85 246.78 C718.89 251.36, 687.6 253.88, 656.3 256.99 C625 260.11, 591.61 264.1, 559.04 265.48 C526.46 266.86, 493.27 265.91, 460.84 265.26 C428.41 264.61, 396.18 263.9, 364.46 261.58 C332.74 259.25, 300.03 255.16, 270.52 251.32 C241 247.49, 212.96 243.79, 187.37 238.55 C161.78 233.31, 138.4 226.8, 116.96 219.88 C95.52 212.95, 74.47 205.14, 58.73 196.99 C42.99 188.85, 31.89 179.53, 22.52 171.03 C13.15 162.54, 5.9 154.98, 2.52 146.05 C-0.87 137.11, -1.26 126.21, 2.22 117.42 C5.71 108.62, 13.09 101.52, 23.43 93.27 C33.78 85.03, 48.14 75.76, 64.3 67.94 C80.45 60.12, 99.13 53.26, 120.35 46.34 C141.58 39.42, 165.4 31.71, 191.66 26.42 C217.92 21.13, 262.89 16.21, 277.9 14.6 C292.9 13, 278.14 15.23, 281.68 16.79" stroke="none" stroke-width="0" fill="#ffffff"></path><path d="M284.86 11.89 C309.7 6.42, 345.21 5.18, 377.28 3.2 C409.35 1.22, 444.37 0.18, 477.27 0.03 C510.16 -0.12, 542.4 0.69, 574.66 2.31 C606.92 3.94, 640.08 6.38, 670.82 9.78 C701.56 13.17, 731.69 17.9, 759.12 22.68 C786.55 27.47, 812.19 32.17, 835.42 38.49 C858.65 44.8, 880.31 53.16, 898.5 60.57 C916.69 67.97, 932.38 74.87, 944.55 82.93 C956.72 91, 965.69 100.1, 971.54 108.96 C977.39 117.81, 980.63 127.14, 979.64 136.08 C978.64 145.02, 973.01 153.88, 965.55 162.57 C958.09 171.26, 948.4 180.13, 934.87 188.23 C921.33 196.33, 903.79 203.79, 884.33 211.16 C864.88 218.53, 842.51 226.48, 818.13 232.44 C793.75 238.4, 766.46 242.35, 738.08 246.92 C709.7 251.49, 679.01 256.73, 647.86 259.88 C616.71 263.02, 583.83 264.93, 551.18 265.77 C518.53 266.62, 484.75 265.85, 451.96 264.94 C419.16 264.03, 385.86 262.45, 354.43 260.3 C322.99 258.14, 292.4 256.03, 263.34 252.01 C234.28 248, 205.5 241.94, 180.08 236.2 C154.66 230.47, 131.38 224.6, 110.82 217.6 C90.26 210.61, 72.18 202.16, 56.73 194.22 C41.27 186.28, 27.45 178.46, 18.11 169.99 C8.77 161.53, 3.07 152.39, 0.69 143.44 C-1.69 134.5, -0.53 125.18, 3.81 116.32 C8.15 107.45, 16.21 98.74, 26.74 90.24 C37.28 81.75, 50.34 72.9, 67 65.35 C83.66 57.79, 104.71 51.47, 126.69 44.92 C148.66 38.37, 170.14 31.8, 198.86 26.06 C227.59 20.32, 279.11 12.83, 299.05 10.51 C318.98 8.18, 315.23 9.97, 318.48 12.09 M576.5 2.46 C608.61 1.85, 639.97 5.85, 670.13 9.26 C700.29 12.68, 729.93 18.18, 757.46 22.97 C784.99 27.76, 811.87 32.03, 835.32 38 C858.77 43.98, 879.84 51.43, 898.14 58.82 C916.44 66.22, 932.75 73.75, 945.12 82.39 C957.5 91.04, 966.56 101.72, 972.37 110.7 C978.18 119.67, 980.85 127.43, 979.99 136.24 C979.12 145.05, 974.96 154.82, 967.18 163.58 C959.39 172.34, 947.01 180.72, 933.27 188.81 C919.53 196.9, 903.92 204.87, 884.74 212.1 C865.55 219.34, 842.42 226.4, 818.17 232.21 C793.92 238.02, 767.5 242.37, 739.24 246.97 C710.97 251.56, 679.83 256.75, 648.57 259.79 C617.32 262.83, 584.15 263.95, 551.72 265.19 C519.29 266.43, 486.71 267.76, 453.97 267.24 C421.22 266.72, 387.08 264.89, 355.25 262.07 C323.43 259.25, 292.04 254.4, 263 250.32 C233.97 246.25, 206.47 243.18, 181.02 237.63 C155.58 232.09, 131.16 224.41, 110.36 217.06 C89.55 209.72, 71.29 201.5, 56.19 193.55 C41.08 185.6, 28.73 177.53, 19.75 169.34 C10.76 161.16, 5.07 153.17, 2.26 144.45 C-0.54 135.73, -1.02 126.13, 2.92 117.03 C6.85 107.93, 15.31 98.58, 25.87 89.86 C36.42 81.14, 49.51 72.55, 66.25 64.72 C82.99 56.88, 104.27 49.4, 126.28 42.84 C148.3 36.27, 172.04 30.2, 198.34 25.33 C224.65 20.45, 254.21 17.18, 284.1 13.59 C313.99 10, 345.73 6.17, 377.69 3.78 C409.65 1.39, 442.78 -0.46, 475.85 -0.76 C508.93 -1.07, 560.1 0.95, 576.15 1.95 C592.21 2.95, 573.89 3.17, 572.2 5.24" stroke="#c92a2a" stroke-width="1" fill="none"></path></g><g transform="translate(3575.572288573756 8391.863914749294) rotate(0 478.5589889307712 120.84822952797185)"><text x="478.558988930771" y="0" font-family="Virgil, Segoe UI Emoji" font-size="193.35716724475597px" fill="#000000" text-anchor="middle" style="white-space: pre;" direction="ltr" dominant-baseline="text-before-edge">Database</text></g><g stroke-linecap="round"><g transform="translate(5910.658183545431 6346.8304372297425) rotate(0 426.6094694176136 402.9496216493644)" fill-rule="evenodd"><path d="M-1.9 -0.16 C-1.19 114.02, -0.57 547.88, 2.19 682.65 C4.95 817.42, -4.71 779.71, 14.66 808.46 C34.02 837.22, 75.83 842.11, 118.38 855.16 C160.93 868.22, 217.04 879.91, 269.95 886.8 C322.87 893.69, 384.89 896.14, 435.86 896.51 C486.83 896.89, 530.65 893.85, 575.78 889.08 C620.91 884.3, 662.92 882.35, 706.63 867.85 C750.34 853.35, 814.82 832.35, 838.05 802.06 C861.27 771.77, 842.95 804.41, 845.99 686.11 C849.03 567.81, 856.68 207.32, 856.27 92.26 C855.87 -22.81, 863.41 20.09, 843.57 -4.28 C823.74 -28.64, 774.54 -40.76, 737.28 -53.94 C700.02 -67.12, 665.51 -77.16, 620.01 -83.34 C574.52 -89.52, 506.93 -89.52, 464.31 -91 C421.69 -92.49, 415.44 -95.33, 364.31 -92.24 C313.18 -89.15, 218.35 -87.8, 157.54 -72.48 C96.74 -57.15, 25.95 -12.66, -0.53 -0.28" stroke="none" stroke-width="0" fill="#40c057" fill-rule="evenodd"></path><path d="M-0.73 0.42 C-0.63 114.24, -2.97 548.23, -0.41 682.95 C2.15 817.68, -5.06 780.5, 14.62 808.77 C34.3 837.04, 74.79 839.11, 117.65 852.58 C160.51 866.06, 218.75 881.8, 271.8 889.61 C324.85 897.43, 385.15 899.46, 435.95 899.45 C486.74 899.44, 531.47 894.93, 576.56 889.55 C621.65 884.17, 662.75 881.44, 706.49 867.15 C750.23 852.87, 815.71 834.27, 838.99 803.84 C862.27 773.41, 843.76 802.83, 846.17 684.56 C848.58 566.29, 853.97 208.98, 853.44 94.23 C852.91 -20.53, 862.47 20.7, 842.99 -3.97 C823.51 -28.64, 774.13 -40.57, 736.57 -53.8 C699.01 -67.02, 663.33 -77.01, 617.64 -83.34 C571.95 -89.67, 504.4 -90.34, 462.4 -91.77 C420.4 -93.19, 416.95 -94.89, 365.64 -91.88 C314.33 -88.88, 215.28 -88.91, 154.53 -73.74 C93.77 -58.58, 26.73 -12.99, 1.11 -0.89 M1.08 -0.41 C1.08 113.53, -3.67 549.36, -1.57 683.92 C0.53 818.48, -6.23 778.73, 13.67 806.97 C33.58 835.21, 75.08 839.48, 117.89 853.37 C160.69 867.25, 217.82 882.66, 270.49 890.26 C323.16 897.86, 383.32 899.27, 433.92 898.96 C484.51 898.65, 528.84 893.69, 574.06 888.41 C619.28 883.13, 661.27 881.52, 705.23 867.27 C749.2 853.03, 814.31 833.45, 837.86 802.97 C861.42 772.48, 843.95 802.86, 846.55 684.38 C849.15 565.9, 854.31 206.38, 853.46 92.11 C852.61 -22.17, 860.94 23.16, 841.46 -1.26 C821.97 -25.67, 773.98 -40.66, 736.53 -54.37 C699.08 -68.08, 662.47 -77.22, 616.78 -83.53 C571.09 -89.85, 504.6 -91.07, 462.39 -92.27 C420.17 -93.48, 414.47 -93.93, 363.48 -90.77 C312.49 -87.61, 216.97 -88.28, 156.46 -73.32 C95.95 -58.35, 26.51 -12.96, 0.41 -0.99" stroke="#2b8a3e" stroke-width="1" fill="none"></path></g></g><mask></mask><g stroke-linecap="round" transform="translate(5907.513832044464 6243.061795470916) rotate(0 426.24775984049666 115.89458306440793)"><path d="M243.54 11.11 C266.73 5.89, 300.98 4.31, 330.85 2.45 C360.71 0.59, 391.93 -0.13, 422.71 -0.06 C453.49 0, 485.74 0.99, 515.52 2.83 C545.29 4.67, 573.85 7.54, 601.37 11 C628.89 14.47, 656.13 18.81, 680.64 23.61 C705.15 28.42, 728.35 33.51, 748.42 39.83 C768.49 46.14, 786.37 54.15, 801.07 61.51 C815.76 68.87, 828.25 76.12, 836.61 83.99 C844.97 91.85, 849.4 100.37, 851.22 108.73 C853.05 117.08, 852.24 125.87, 847.57 134.12 C842.9 142.37, 834.33 150.67, 823.19 158.22 C812.06 165.78, 797.57 172.59, 780.78 179.45 C763.99 186.31, 744.58 193.38, 722.44 199.38 C700.3 205.38, 674.2 211.06, 647.93 215.45 C621.67 219.83, 593.71 223.01, 564.84 225.68 C535.97 228.35, 504.98 230.37, 474.71 231.44 C444.44 232.51, 413.29 233.04, 383.21 232.1 C353.13 231.16, 323.1 228.47, 294.23 225.79 C265.36 223.11, 236.5 220.25, 209.99 216.03 C183.47 211.81, 157.65 206.22, 135.15 200.45 C112.64 194.69, 92.25 188.38, 74.96 181.44 C57.67 174.5, 43.01 166.31, 31.41 158.8 C19.81 151.29, 10.47 144.39, 5.38 136.38 C0.29 128.38, -0.77 119.18, 0.89 110.75 C2.55 102.32, 7.51 93.7, 15.33 85.8 C23.15 77.91, 33.79 70.7, 47.8 63.39 C61.81 56.09, 79.76 48.67, 99.4 41.98 C119.05 35.29, 139.96 28.64, 165.67 23.26 C191.38 17.89, 237.17 11.78, 253.66 9.73 C270.15 7.68, 261.81 9.08, 264.6 10.95 M499.43 2.08 C529.36 1.61, 561.76 4.1, 590.24 7.43 C618.72 10.76, 645.46 16.95, 670.31 22.06 C695.16 27.18, 718.74 32.28, 739.32 38.13 C759.9 43.97, 778.46 49.9, 793.77 57.11 C809.09 64.31, 821.61 73.27, 831.21 81.34 C840.81 89.41, 848.52 97.54, 851.35 105.52 C854.18 113.5, 851.9 121.07, 848.19 129.22 C844.49 137.36, 839.01 146.44, 829.13 154.39 C819.24 162.34, 805.15 169.97, 788.91 176.93 C772.67 183.9, 753.18 190.26, 731.68 196.17 C710.19 202.09, 685.49 207.71, 659.93 212.41 C634.37 217.12, 606.87 221.5, 578.33 224.42 C549.79 227.34, 518.95 228.64, 488.69 229.94 C458.44 231.24, 427.04 232.46, 396.79 232.19 C366.53 231.93, 336.46 230.55, 307.16 228.36 C277.87 226.16, 247.87 223.31, 221 219.03 C194.13 214.75, 168.62 208.34, 145.94 202.69 C123.26 197.05, 103.07 191.94, 84.92 185.17 C66.77 178.39, 49.95 169.55, 37.05 162.04 C24.15 154.53, 13.77 148.15, 7.5 140.1 C1.23 132.06, -1.32 122.2, -0.58 113.76 C0.17 105.31, 5 97.56, 11.96 89.44 C18.92 81.33, 28.14 72.41, 41.19 65.06 C54.24 57.72, 71.22 51.65, 90.25 45.37 C109.29 39.09, 132.08 32.82, 155.4 27.41 C178.71 22, 202.97 17.02, 230.14 12.92 C257.31 8.82, 288.64 4.87, 318.43 2.79 C348.22 0.72, 378.62 0.87, 408.87 0.48 C439.11 0.08, 484.86 -0.3, 499.88 0.44 C514.91 1.18, 499.97 2.76, 499.04 4.92" stroke="none" stroke-width="0" fill="#ffffff"></path><path d="M365.23 1.43 C392.9 -1.5, 427.58 -0.04, 458.26 0.67 C488.95 1.38, 520.12 3.42, 549.37 5.69 C578.61 7.95, 607.08 10.2, 633.75 14.24 C660.42 18.29, 686.43 24.49, 709.39 29.95 C732.34 35.41, 753.56 40.52, 771.5 47.01 C789.44 53.49, 804.77 61.2, 817.04 68.88 C829.32 76.55, 839.41 84.91, 845.16 93.06 C850.92 101.21, 852.28 109.5, 851.58 117.8 C850.89 126.09, 848.03 134.77, 841.01 142.82 C833.98 150.88, 822.86 158.48, 809.43 166.11 C795.99 173.74, 779.43 182.13, 760.42 188.6 C741.42 195.08, 719.17 199.68, 695.4 204.96 C671.63 210.24, 645.16 216.3, 617.81 220.29 C590.45 224.27, 560.94 227.1, 531.28 228.87 C501.61 230.63, 470.38 230.84, 439.81 230.88 C409.24 230.91, 377.75 230.31, 347.87 229.09 C317.98 227.87, 288.57 226.69, 260.5 223.57 C232.43 220.45, 204.32 215.27, 179.45 210.37 C154.58 205.47, 131.6 200.41, 111.27 194.18 C90.95 187.96, 72.91 180.24, 57.49 173.01 C42.06 165.79, 28.15 158.63, 18.71 150.82 C9.28 143.02, 3.43 134.51, 0.89 126.19 C-1.65 117.88, -0.67 109.18, 3.48 100.93 C7.62 92.69, 15.48 84.59, 25.77 76.73 C36.05 68.88, 48.87 60.67, 65.17 53.79 C81.47 46.91, 102.14 41.28, 123.58 35.45 C145.02 29.62, 168.4 23.49, 193.79 18.83 C219.18 14.17, 246.3 10.31, 275.92 7.48 C305.55 4.64, 354.52 2.46, 371.54 1.81 C388.56 1.16, 377.11 1.84, 378.06 3.59 M371.87 0.76 C399.42 -1.99, 433.01 0.93, 463.52 1.56 C494.03 2.18, 525.61 2.36, 554.92 4.53 C584.24 6.7, 612.78 10.5, 639.43 14.6 C666.09 18.69, 692.15 23.15, 714.87 29.1 C737.59 35.06, 758.15 43.35, 775.74 50.32 C793.33 57.29, 808.65 63.39, 820.41 70.93 C832.18 78.48, 841.21 87.34, 846.32 95.57 C851.43 103.8, 852.19 112.04, 851.05 120.31 C849.91 128.57, 846.85 137.11, 839.46 145.18 C832.06 153.26, 820.4 161.52, 806.69 168.74 C792.99 175.97, 776.55 182.05, 757.23 188.54 C737.91 195.02, 714.95 202.37, 690.8 207.66 C666.64 212.95, 639.65 216.53, 612.31 220.26 C584.98 223.99, 556.48 227.96, 526.78 230.04 C497.09 232.13, 464.92 232.99, 434.14 232.77 C403.36 232.55, 371.96 230.32, 342.11 228.74 C312.25 227.16, 282.92 226.54, 255 223.29 C227.08 220.04, 199.27 214.56, 174.59 209.22 C149.91 203.89, 126.98 197.55, 106.92 191.28 C86.85 185.01, 68.9 178.46, 54.17 171.6 C39.45 164.73, 27.55 157.87, 18.56 150.1 C9.56 142.32, 2.61 133.47, 0.21 124.95 C-2.2 116.43, -0.2 107.45, 4.14 98.97 C8.49 90.48, 15.39 81.95, 26.27 74.04 C37.15 66.13, 52.73 58.42, 69.42 51.53 C86.11 44.63, 104.78 38.09, 126.41 32.69 C148.04 27.28, 173.27 23.37, 199.21 19.1 C225.14 14.83, 253.3 10.24, 282.03 7.08 C310.76 3.92, 356.23 0.79, 371.6 0.13 C386.96 -0.53, 373.44 0.98, 374.22 3.12" stroke="#2b8a3e" stroke-width="1" fill="none"></path></g><g transform="translate(5913.976399295792 7250.3525509584) rotate(0 416.7633754965973 105.24327664055454)"><text x="416.7633754965969" y="0" font-family="Virgil, Segoe UI Emoji" font-size="168.38924262488763px" fill="#000000" text-anchor="middle" style="white-space: pre;" direction="ltr" dominant-baseline="text-before-edge">Database</text></g><g stroke-linecap="round"><g transform="translate(5961.25531657421 8460.151525236957) rotate(0 427.1043086580248 402.4275431987262)" fill-rule="evenodd"><path d="M0.71 1.97 C0.51 115.47, -3.97 547.73, -1.54 681.71 C0.89 815.69, -4.61 777.28, 15.29 805.85 C35.19 834.41, 75.22 838.97, 117.87 853.11 C160.52 867.25, 218.23 883.28, 271.19 890.7 C324.15 898.12, 385.05 897.52, 435.63 897.61 C486.2 897.69, 529.07 896.6, 574.66 891.22 C620.26 885.85, 665.26 880.31, 709.2 865.36 C753.14 850.42, 815.31 831.73, 838.3 801.57 C861.29 771.4, 844.15 802.44, 847.11 684.37 C850.08 566.3, 856.52 207.58, 856.08 93.16 C855.65 -21.25, 864.39 22.56, 844.48 -2.12 C824.57 -26.79, 774.03 -41.47, 736.63 -54.89 C699.22 -68.32, 665.73 -76.46, 620.05 -82.67 C574.37 -88.88, 505.3 -90.95, 462.53 -92.15 C419.75 -93.34, 414.53 -92.77, 363.4 -89.83 C312.27 -86.9, 216.23 -89.27, 155.76 -74.54 C95.28 -59.81, 26.15 -13.55, 0.56 -1.45" stroke="none" stroke-width="0" fill="#40c057" fill-rule="evenodd"></path><path d="M-0.02 -0.61 C0.09 113.31, -2.26 549.63, 0.31 684.53 C2.87 819.43, -4.34 780.61, 15.38 808.78 C35.1 836.96, 76.03 840.05, 118.65 853.58 C161.26 867.12, 218.06 882.37, 271.05 890 C324.04 897.64, 385.94 899.44, 436.57 899.38 C487.2 899.33, 529.87 895.01, 574.84 889.67 C619.81 884.33, 662.55 881.96, 706.37 867.33 C750.18 852.7, 814.38 832.34, 837.72 801.87 C861.06 771.4, 843.74 802.63, 846.4 684.52 C849.07 566.4, 854.35 207.73, 853.71 93.17 C853.07 -21.4, 861.86 21.74, 842.57 -2.88 C823.28 -27.5, 775.55 -41.03, 737.96 -54.54 C700.37 -68.05, 662.66 -77.57, 617.03 -83.94 C571.4 -90.31, 506.08 -91.28, 464.17 -92.76 C422.27 -94.23, 417.22 -95.85, 365.6 -92.78 C313.97 -89.71, 215.5 -89.78, 154.42 -74.33 C93.33 -58.88, 24.63 -12.35, -0.93 -0.08 M-1.49 1.69 C-1.48 115.76, -3.2 548.45, -0.48 682.66 C2.24 816.88, -5.15 778.28, 14.83 806.99 C34.81 835.69, 76.38 840.92, 119.41 854.9 C162.44 868.87, 220.43 883.53, 273.01 890.85 C325.59 898.18, 384.52 899.23, 434.87 898.85 C485.22 898.48, 529.46 893.82, 575.1 888.6 C620.73 883.38, 664.62 881.71, 708.7 867.54 C752.78 853.38, 816.55 834.17, 839.58 803.63 C862.61 773.09, 844.52 802.56, 846.9 684.31 C849.28 566.07, 854.28 208.74, 853.87 94.15 C853.47 -20.45, 863.68 21.69, 844.47 -3.25 C825.27 -28.19, 776.14 -41.97, 738.65 -55.5 C701.16 -69.03, 665.72 -78.68, 619.51 -84.45 C573.31 -90.22, 504.11 -88.84, 461.42 -90.12 C418.74 -91.41, 414.27 -94.8, 363.42 -92.14 C312.56 -89.49, 216.7 -89.61, 156.29 -74.21 C95.88 -58.81, 26.96 -11.99, 0.96 0.25" stroke="#2b8a3e" stroke-width="1" fill="none"></path></g></g><mask></mask><g stroke-linecap="round" transform="translate(5958.110965073243 8356.38288347813) rotate(0 426.24775984049666 115.89458306440793)"><path d="M330.58 3.33 C357.17 -0.18, 390.13 0.74, 420.37 0.68 C450.61 0.61, 482.07 1.43, 512.03 2.95 C541.98 4.47, 572.1 6.36, 600.09 9.79 C628.07 13.22, 655.23 18.51, 679.95 23.51 C704.66 28.51, 728.36 33.64, 748.37 39.79 C768.38 45.94, 785.43 53.05, 799.99 60.41 C814.55 67.77, 827.18 75.92, 835.74 83.94 C844.29 91.96, 849.34 100.42, 851.31 108.52 C853.28 116.62, 851.97 124.39, 847.53 132.56 C843.1 140.72, 835.81 149.49, 824.71 157.48 C813.61 165.47, 798 173.53, 780.94 180.51 C763.88 187.48, 744.29 193.6, 722.36 199.33 C700.44 205.06, 675.3 210.44, 649.39 214.91 C623.47 219.38, 595.39 223.53, 566.87 226.17 C538.35 228.81, 508.46 229.82, 478.28 230.73 C448.11 231.64, 416.45 232.41, 385.83 231.61 C355.21 230.82, 323.78 228.61, 294.55 225.95 C265.33 223.29, 236.79 219.96, 210.48 215.66 C184.17 211.36, 159.2 205.6, 136.71 200.14 C114.21 194.68, 92.88 189.55, 75.53 182.91 C58.18 176.27, 44.01 168.11, 32.61 160.3 C21.21 152.48, 12.57 144.09, 7.14 136.04 C1.72 127.99, -1.12 120.21, 0.09 111.98 C1.29 103.74, 6.52 94.98, 14.39 86.64 C22.27 78.29, 33.26 69.41, 47.33 61.91 C61.41 54.41, 79.41 47.91, 98.83 41.64 C118.25 35.37, 139.85 29.31, 163.85 24.3 C187.84 19.3, 213.23 15.25, 242.8 11.62 C272.37 7.99, 322.94 3.93, 341.27 2.55 C359.6 1.17, 351.38 1.33, 352.78 3.32 M241 12.37 C263.97 6.99, 297.84 4.71, 327.46 2.83 C357.08 0.95, 387.96 1.05, 418.71 1.08 C449.46 1.11, 482.11 1.66, 511.95 3.03 C541.8 4.39, 569.87 6.01, 597.77 9.28 C625.68 12.54, 654.54 17.58, 679.39 22.62 C704.23 27.65, 726.87 33.34, 746.85 39.49 C766.83 45.63, 784.75 52.26, 799.28 59.49 C813.81 66.72, 825.43 74.77, 834.01 82.87 C842.59 90.97, 848.64 99.85, 850.76 108.08 C852.88 116.31, 851.25 123.98, 846.74 132.25 C842.23 140.52, 834.33 149.66, 823.7 157.71 C813.08 165.77, 799.69 173.49, 782.99 180.57 C766.28 187.64, 745.38 194.66, 723.48 200.17 C701.58 205.68, 677.15 209.44, 651.59 213.64 C626.02 217.85, 598.84 222.74, 570.09 225.42 C541.33 228.1, 509.79 228.61, 479.05 229.71 C448.31 230.81, 416.16 232.7, 385.66 232.02 C355.17 231.34, 324.81 228.29, 296.07 225.63 C267.33 222.97, 239.62 220.24, 213.22 216.04 C186.81 211.85, 160.29 205.93, 137.65 200.46 C115.02 195, 94.71 189.77, 77.41 183.24 C60.11 176.72, 45.82 169.08, 33.84 161.31 C21.87 153.53, 10.98 145.06, 5.56 136.59 C0.14 128.11, -0.09 118.69, 1.33 110.44 C2.75 102.19, 6.65 95.16, 14.07 87.07 C21.49 78.99, 32.04 69.26, 45.85 61.94 C59.67 54.62, 77.28 49.33, 96.98 43.17 C116.68 37.01, 140.03 30.16, 164.07 24.98 C188.12 19.81, 227.9 14.16, 241.23 12.12 C254.55 10.07, 240.77 10.84, 244.01 12.71" stroke="none" stroke-width="0" fill="#ffffff"></path><path d="M500.19 1.37 C529.95 0.89, 560.8 6.46, 589.12 9.58 C617.45 12.7, 645.12 15.57, 670.16 20.08 C695.2 24.59, 718.59 30.5, 739.36 36.66 C760.13 42.82, 779.52 49.88, 794.77 57.05 C810.02 64.22, 821.49 71.8, 830.84 79.69 C840.19 87.58, 847.78 96.15, 850.88 104.39 C853.98 112.64, 853.14 120.75, 849.45 129.15 C845.76 137.56, 838.84 147.04, 828.73 154.85 C818.63 162.66, 804.94 168.89, 788.8 175.99 C772.67 183.09, 753.27 191.24, 731.93 197.45 C710.59 203.66, 686.34 208.95, 660.79 213.24 C635.24 217.52, 607.19 220.44, 578.65 223.18 C550.11 225.92, 519.59 228.15, 489.55 229.69 C459.51 231.23, 428.8 232.87, 398.39 232.44 C367.99 232.01, 336.38 229.5, 307.11 227.09 C277.83 224.68, 249.32 222.03, 222.73 217.97 C196.13 213.92, 170.79 208.23, 147.53 202.76 C124.26 197.29, 101.61 191.69, 83.13 185.14 C64.65 178.59, 49.03 171.09, 36.66 163.47 C24.3 155.85, 14.94 147.57, 8.94 139.43 C2.95 131.29, 0.38 123, 0.67 114.65 C0.96 106.3, 3.75 97.3, 10.68 89.35 C17.61 81.41, 29.12 74.41, 42.25 67 C55.37 59.58, 70.9 51.58, 89.42 44.88 C107.94 38.19, 129.8 32.01, 153.39 26.82 C176.97 21.63, 203.68 17.49, 230.91 13.75 C258.14 10.02, 287.21 6.7, 316.77 4.4 C346.32 2.1, 373.43 -0.02, 408.24 -0.07 C443.05 -0.13, 502.13 2.88, 525.64 4.07 C549.15 5.27, 550.94 5.48, 549.3 7.12 M578.46 6.72 C608.24 7.72, 635.87 12.93, 661.55 17.85 C687.24 22.76, 711.26 30.08, 732.56 36.21 C753.87 42.34, 773.34 47.69, 789.41 54.63 C805.47 61.57, 819.15 69.95, 828.93 77.84 C838.71 85.73, 844.4 93.76, 848.09 101.97 C851.77 110.18, 853.69 118.8, 851.06 127.1 C848.43 135.4, 841.55 144.04, 832.32 151.76 C823.09 159.49, 811.02 166.21, 795.68 173.45 C780.34 180.69, 761.14 188.92, 740.28 195.18 C719.41 201.43, 695.39 206.1, 670.51 210.96 C645.63 215.83, 619.17 221.03, 590.97 224.36 C562.78 227.7, 531.63 229.88, 501.32 230.97 C471.02 232.06, 439.57 231.19, 409.14 230.91 C378.71 230.64, 348.26 231.34, 318.74 229.33 C289.23 227.32, 259.28 223.06, 232.07 218.85 C204.85 214.63, 178.88 209.37, 155.45 204.04 C132.02 198.72, 110.24 193.03, 91.48 186.89 C72.72 180.76, 56.41 174.52, 42.9 167.22 C29.39 159.92, 17.63 151.41, 10.44 143.09 C3.26 134.77, 0.28 125.85, -0.2 117.28 C-0.68 108.71, 1.32 99.95, 7.55 91.67 C13.78 83.4, 24.75 75.17, 37.19 67.65 C49.63 60.13, 64.21 52.82, 82.19 46.55 C100.16 40.29, 122 35.38, 145.05 30.06 C168.1 24.73, 193.73 18.98, 220.48 14.62 C247.22 10.26, 275.97 6.3, 305.52 3.89 C335.08 1.48, 367.44 0.51, 397.79 0.16 C428.15 -0.18, 457.71 0.72, 487.65 1.82 C517.6 2.93, 563.13 5.46, 577.48 6.79 C591.83 8.11, 576.09 7.99, 573.76 9.76" stroke="#2b8a3e" stroke-width="1" fill="none"></path></g><g transform="translate(5964.573532324572 9363.673638965614) rotate(0 416.7633754965973 105.24327664055454)"><text x="416.7633754965969" y="0" font-family="Virgil, Segoe UI Emoji" font-size="168.38924262488763px" fill="#000000" text-anchor="middle" style="white-space: pre;" direction="ltr" dominant-baseline="text-before-edge">Database</text></g><g stroke-linecap="round"><g transform="translate(2507.3383506032987 8005.2715378624125) rotate(0 429.9750605018626 0.0063061423861654475)"><path d="M0.12 0.05 C143.44 0.05, 716.61 0.1, 859.95 0.11 M0 -0.05 C143.29 -0.03, 716.45 -0.09, 859.8 -0.09" stroke="#1e1e1e" stroke-width="4" fill="none"></path></g><g transform="translate(2507.3383506032987 8005.2715378624125) rotate(0 429.9750605018626 0.0063061423861654475)"><path d="M831.61 10.17 C841.13 6.59, 850.68 3.51, 859.8 -0.09 M831.61 10.17 C842.3 6.36, 853.09 2.21, 859.8 -0.09" stroke="#1e1e1e" stroke-width="4" fill="none"></path></g><g transform="translate(2507.3383506032987 8005.2715378624125) rotate(0 429.9750605018626 0.0063061423861654475)"><path d="M831.61 -10.35 C841.16 -7.06, 850.71 -3.27, 859.8 -0.09 M831.61 -10.35 C842.28 -6.33, 853.07 -2.67, 859.8 -0.09" stroke="#1e1e1e" stroke-width="4" fill="none"></path></g></g><mask></mask><g transform="translate(2414.005017269963 7768.604871195741) rotate(0 566.5879821777253 70.83333333333212)"><text x="0" y="0" font-family="Virgil, Segoe UI Emoji" font-size="113.33333333333141px" fill="#2f9e44" text-anchor="start" style="white-space: pre;" direction="ltr" dominant-baseline="text-before-edge">streaming replication</text></g><g transform="translate(3790.6716839366345 8656.938204529084) rotate(0 345.1416664123535 129.12325110903112)"><text x="0" y="0" font-family="Virgil, Segoe UI Emoji" font-size="206.59720177445104px" fill="#f08c00" text-anchor="start" style="white-space: pre;" direction="ltr" dominant-baseline="text-before-edge">primary</text></g><g stroke-linecap="round"><g transform="translate(4620.6716839366345 7646.104871195741) rotate(0 574.5996857516475 -374.9690822593875)"><path d="M-0.57 1.05 C191.18 -124.2, 958.09 -625.9, 1149.77 -750.99 M1.34 0.56 C192.97 -124.62, 957.51 -624.61, 1148.7 -749.98" stroke="#1e1e1e" stroke-width="4" fill="none"></path></g><g transform="translate(4620.6716839366345 7646.104871195741) rotate(0 574.5996857516475 -374.9690822593875)"><path d="M1130.73 -725.95 C1136.67 -731.98, 1137.54 -738.16, 1148.7 -749.98 M1130.73 -725.95 C1136.35 -734.03, 1143.73 -742.49, 1148.7 -749.98" stroke="#1e1e1e" stroke-width="4" fill="none"></path></g><g transform="translate(4620.6716839366345 7646.104871195741) rotate(0 574.5996857516475 -374.9690822593875)"><path d="M1119.49 -743.12 C1128.18 -745, 1131.73 -747.09, 1148.7 -749.98 M1119.49 -743.12 C1128.88 -745.36, 1140.09 -748, 1148.7 -749.98" stroke="#1e1e1e" stroke-width="4" fill="none"></path></g></g><mask></mask><g stroke-linecap="round"><g transform="translate(4640.6716839366345 7896.104871195741) rotate(0 538.8393020502426 449.7424457319066)"><path d="M-0.23 -0.99 C179.78 148.91, 899.51 750.31, 1079.49 900.48 M-1.82 1.1 C178.04 151.16, 898.18 748.57, 1078.28 898.6" stroke="#1e1e1e" stroke-width="4" fill="none"></path></g><g transform="translate(4640.6716839366345 7896.104871195741) rotate(0 538.8393020502426 449.7424457319066)"><path d="M1050.04 888.48 C1055.62 890.25, 1065.2 893.15, 1078.28 898.6 M1050.04 888.48 C1059.18 891.26, 1066.14 894.01, 1078.28 898.6" stroke="#1e1e1e" stroke-width="4" fill="none"></path></g><g transform="translate(4640.6716839366345 7896.104871195741) rotate(0 538.8393020502426 449.7424457319066)"><path d="M1063.16 872.69 C1065.56 878.43, 1071.83 885.32, 1078.28 898.6 M1063.16 872.69 C1068.28 880.22, 1071.32 887.69, 1078.28 898.6" stroke="#1e1e1e" stroke-width="4" fill="none"></path></g></g><mask></mask><g transform="translate(3900.6716839366345 8936.104871195741) rotate(0 430.9194624159072 132.5)"><text x="0" y="0" font-family="Virgil, Segoe UI Emoji" font-size="212.00000000000003px" fill="#1971c2" text-anchor="start" style="white-space: pre;" direction="ltr" dominant-baseline="text-before-edge">publisher</text></g><g transform="translate(6549.752221520728 7533.604871195741) rotate(0 508.6000061035156 132.5)"><text x="0" y="0" font-family="Virgil, Segoe UI Emoji" font-size="212.00000000000003px" fill="#1971c2" text-anchor="start" style="white-space: pre;" direction="ltr" dominant-baseline="text-before-edge">subscriber</text></g><g transform="translate(6619.752221520728 9613.604871195741) rotate(0 508.6000061035156 132.5)"><text x="0" y="0" font-family="Virgil, Segoe UI Emoji" font-size="212.00000000000003px" fill="#1971c2" text-anchor="start" style="white-space: pre;" direction="ltr" dominant-baseline="text-before-edge">subscriber</text></g><g transform="translate(4490.6716839366345 6847.857382559829) rotate(327.662573392616 713.5750122070312 106.62374431796343)"><text x="0" y="0" font-family="Virgil, Segoe UI Emoji" font-size="170.59799090874398px" fill="#2f9e44" text-anchor="start" style="white-space: pre;" direction="ltr" dominant-baseline="text-before-edge">logical replication</text></g><g transform="translate(4584.555015235463 8059.481126877799) rotate(39.5596679689936 716.1166687011719 106.62374431796343)"><text x="0" y="0" font-family="Virgil, Segoe UI Emoji" font-size="170.59799090874398px" fill="#2f9e44" text-anchor="start" style="white-space: pre;" direction="ltr" dominant-baseline="text-before-edge">logical replication</text></g><g stroke-linecap="round" transform="translate(1165.116303576744 7212.616303576739) rotate(0 703.2170297565872 703.2170297565863)"><path d="M564.4 14.01 C594.11 -3.78, 632.29 2.44, 666.51 0.54 C700.73 -1.36, 735.83 -0.56, 769.72 2.59 C803.61 5.74, 836.81 11.13, 869.84 19.44 C902.87 27.76, 936.12 39.42, 967.88 52.49 C999.65 65.57, 1031.08 80.77, 1060.42 97.92 C1089.77 115.07, 1117.48 134.25, 1143.96 155.4 C1170.43 176.54, 1195.97 199.88, 1219.27 224.8 C1242.57 249.73, 1264.33 276.7, 1283.75 304.94 C1303.18 333.18, 1320.91 363.48, 1335.8 394.24 C1350.69 424.99, 1362.89 456.76, 1373.09 489.49 C1383.29 522.21, 1391.37 556.96, 1396.99 590.58 C1402.61 624.19, 1406.28 657.36, 1406.82 691.2 C1407.35 725.04, 1404.77 759.59, 1400.21 793.62 C1395.64 827.64, 1388.52 862.3, 1379.42 895.36 C1370.33 928.43, 1359.67 960.92, 1345.65 992 C1331.63 1023.08, 1313.86 1053.05, 1295.32 1081.83 C1276.77 1110.61, 1256.49 1138.88, 1234.38 1164.66 C1212.26 1190.44, 1188.35 1214.23, 1162.61 1236.5 C1136.86 1258.77, 1108.91 1279.93, 1079.9 1298.28 C1050.88 1316.64, 1019.93 1332.93, 988.51 1346.63 C957.09 1360.33, 924.07 1371.62, 891.39 1380.51 C858.7 1389.4, 826.19 1395.59, 792.38 1399.99 C758.58 1404.39, 722.89 1407.31, 688.57 1406.91 C654.25 1406.52, 620.18 1403.5, 586.48 1397.62 C552.78 1391.73, 518.7 1382.16, 486.38 1371.6 C454.05 1361.03, 423.01 1349.25, 392.53 1334.22 C362.04 1319.18, 331.51 1300.71, 303.47 1281.37 C275.43 1262.02, 249.38 1241.46, 224.27 1218.15 C199.16 1194.84, 174.17 1168.38, 152.8 1141.51 C131.43 1114.65, 113.12 1086.35, 96.04 1056.95 C78.95 1027.55, 63.05 996.86, 50.3 965.13 C37.56 933.39, 27.33 899.69, 19.57 866.53 C11.82 833.36, 6.86 799.87, 3.78 766.11 C0.7 732.36, -0.65 698, 1.09 663.97 C2.82 629.94, 7.27 595.55, 14.2 561.93 C21.14 528.3, 30.85 494.52, 42.71 462.22 C54.57 429.91, 69.07 398.05, 85.35 368.11 C101.62 338.17, 119.95 309.78, 140.37 282.57 C160.79 255.36, 183.92 229.08, 207.87 204.86 C231.82 180.65, 256.77 157.46, 284.1 137.26 C311.43 117.05, 341.73 99.48, 371.83 83.63 C401.93 67.77, 428.58 54.52, 464.71 42.14 C500.83 29.76, 563.21 12.99, 588.58 9.34 C613.95 5.69, 614.89 8.81, 616.93 20.26 M782.18 3.7 C815.8 -4.2, 849.51 15.62, 882.53 24.21 C915.54 32.8, 948.95 42.01, 980.28 55.24 C1011.6 68.47, 1041.78 85.46, 1070.46 103.61 C1099.14 121.76, 1126.18 142.22, 1152.36 164.12 C1178.53 186.03, 1204.76 209.8, 1227.5 235.04 C1250.24 260.28, 1270.12 287.01, 1288.81 315.57 C1307.5 344.13, 1324.96 375.46, 1339.62 406.4 C1354.28 437.33, 1367.09 468.57, 1376.75 501.17 C1386.4 533.77, 1392.51 568.03, 1397.55 602 C1402.59 635.97, 1406.97 670.87, 1406.98 705 C1406.98 739.12, 1402.48 773.44, 1397.6 806.77 C1392.71 840.09, 1387.4 872.46, 1377.64 904.94 C1367.88 937.43, 1353.91 970.47, 1339.04 1001.67 C1324.17 1032.88, 1307.07 1063.41, 1288.42 1092.17 C1269.77 1120.92, 1249.83 1148.62, 1227.15 1174.18 C1204.46 1199.74, 1178.55 1223.8, 1152.32 1245.55 C1126.09 1267.3, 1098.97 1287.09, 1069.76 1304.68 C1040.55 1322.26, 1008.76 1338.04, 977.04 1351.04 C945.32 1364.04, 912.46 1374.07, 879.46 1382.69 C846.45 1391.3, 813.02 1399.04, 779.01 1402.73 C745.01 1406.43, 709.25 1406.18, 675.43 1404.83 C641.61 1403.49, 609.33 1400.57, 576.11 1394.66 C542.9 1388.75, 508.78 1380.63, 476.14 1369.38 C443.49 1358.12, 410.47 1343.11, 380.25 1327.12 C350.03 1311.13, 322.55 1292.99, 294.83 1273.42 C267.1 1253.84, 238.52 1232.98, 213.89 1209.67 C189.27 1186.37, 167.63 1160.93, 147.09 1133.59 C126.56 1106.25, 107.45 1075.83, 90.69 1045.63 C73.94 1015.44, 58.82 984.16, 46.58 952.42 C34.34 920.69, 24.87 888.4, 17.26 855.21 C9.64 822.02, 3.55 787.42, 0.88 753.27 C-1.78 719.13, -1.4 684.39, 1.27 650.36 C3.94 616.32, 9.11 582.25, 16.89 549.08 C24.67 515.92, 35.54 483.08, 47.96 451.38 C60.38 419.69, 74.74 388.57, 91.42 358.92 C108.09 329.27, 127.52 300.4, 148.01 273.5 C168.49 246.6, 189.68 221.2, 214.32 197.51 C238.96 173.82, 268.06 151.46, 295.85 131.35 C323.64 111.25, 351.12 92.47, 381.05 76.87 C410.97 61.28, 442.99 48.74, 475.4 37.78 C507.82 26.83, 541.56 17.48, 575.51 11.14 C609.47 4.81, 645.01 1.01, 679.14 -0.23 C713.28 -1.47, 763.52 0.52, 780.31 3.72 C797.11 6.93, 781.23 7.34, 779.89 19.01" stroke="#e03131" stroke-width="4" fill="none"></path></g><g stroke-linecap="round"><g transform="translate(1752.7816311970164 7519.250113567614) rotate(227.27022492945142 106.52675362630634 403.8590939397873)"><path d="M-0.48 -1.19 C0.33 46.21, 50.53 230.32, 4.44 285.07 C-41.65 339.81, -231.95 292.11, -277.01 327.29 C-322.07 362.47, -314 468.04, -265.94 496.16 C-217.87 524.27, -36.19 447.91, 11.39 496 C58.96 544.09, -19.78 739.79, 19.52 784.72 C58.82 829.64, 209.73 810.6, 247.2 765.55 C284.67 720.51, 204.69 560.29, 244.33 514.43 C283.98 468.57, 443.78 526.42, 485.05 490.39 C526.33 454.36, 531.68 330.41, 492 298.25 C452.32 266.09, 293.47 342.12, 246.99 297.43 C200.51 252.75, 254.34 79.76, 213.12 30.14 C171.9 -19.47, 34.99 4.68, -0.34 -0.25 M1.47 0.8 C2.12 48.35, 49.82 232.59, 3.29 286.65 C-43.23 340.71, -232.8 290.56, -277.68 325.15 C-322.55 359.73, -314.46 465.65, -265.96 494.16 C-217.47 522.68, -34.47 447.98, 13.27 496.24 C61.02 544.51, -18.04 739.03, 20.53 783.76 C59.1 828.48, 207.49 809.57, 244.71 764.6 C281.92 719.62, 203.43 559.84, 243.81 513.9 C284.19 467.97, 445.57 524.96, 486.98 488.99 C528.39 453.01, 532.33 330.34, 492.3 298.04 C452.27 265.75, 292.96 339.98, 246.78 295.24 C200.6 250.5, 256.39 79.02, 215.21 29.62 C174.03 -19.79, 35.4 3.62, -0.29 -1.2" stroke="#e03131" stroke-width="4" fill="none"></path></g></g><mask></mask></svg>