<svg version="1.1" xmlns="http://www.w3.org/2000/svg" viewBox="0 0 8692.083072937563 4806.624817418062" width="8692.083072937563" height="4806.624817418062">
  <!-- svg-source:excalidraw -->
  
  <defs>
    <style class="style-fonts">
      @font-face {
        font-family: "Virgil";
        src: url("https://excalidraw.com/Virgil.woff2");
      }
      @font-face {
        font-family: "Cascadia";
        src: url("https://excalidraw.com/Cascadia.woff2");
      }
    </style>
    
  </defs>
  <g transform="translate(1028.416513082415 10) rotate(0 2506.60009765625 170)"><text x="0" y="0" font-family="Virgil, Segoe UI Emoji" font-size="271.9999999999996px" fill="#1e1e1e" text-anchor="start" style="white-space: pre;" direction="ltr" dominant-baseline="text-before-edge">Continuous Archiving and Archive Logs</text></g><g stroke-linecap="round"><g transform="translate(329.4335367121457 2520.2719172532816) rotate(0 138.61710135152316 46.1417223535409)" fill-rule="evenodd"><path d="M-0.93 0.7 L23.55 -40.95 L9.93 -73.82 L53.39 -104.35 L82.5 -83.87 L123.04 -96.45 L135.79 -132.81 L181.2 -128.6 L186.38 -95.31 L226.97 -73.46 L263.76 -86.19 L294.09 -52.52 L273.31 -21.83 L284.59 24.37 L320.27 41.53 L312.16 87.27 L279.35 93.43 L253.93 137.83 L269.18 169.2 L236.74 198.3 L207.14 177.39 L160.94 192.4 L142.06 226.87 L95.89 219.18 L91.99 182.79 L49.92 165.44 L19.04 174.31 L-8.49 143.62 L7.2 111.63 L-8.14 64.93 L-41.87 46.03 L-33.94 6.48 L0.07 0.95" stroke="none" stroke-width="0" fill="#e1effc" fill-rule="evenodd"></path><path d="M0 0 C6.79 -8.72, 14.87 -22.23, 24.14 -39.34 M0 0 C5.91 -9.4, 9.72 -17, 24.14 -39.34 M24.14 -39.34 C19.84 -53.34, 12.47 -63.81, 10.09 -72.7 M24.14 -39.34 C19.57 -47.99, 16.05 -56.8, 10.09 -72.7 M10.09 -72.7 C19.2 -80.6, 30.28 -86.4, 53.98 -104.29 M10.09 -72.7 C22.98 -81.16, 34.37 -89.86, 53.98 -104.29 M53.98 -104.29 C60.8 -100.3, 69.21 -94.88, 80.67 -85.23 M53.98 -104.29 C63.86 -97.84, 73.28 -90.36, 80.67 -85.23 M80.67 -85.23 C89.69 -87, 104.31 -92.75, 123.33 -97.99 M80.67 -85.23 C92.95 -88.75, 106.56 -91.75, 123.33 -97.99 M123.33 -97.99 C127.19 -109.75, 132.5 -120.92, 134.9 -133.1 M123.33 -97.99 C126.84 -108.19, 131.08 -118.16, 134.9 -133.1 M134.9 -133.1 C146.86 -129.9, 163.19 -129.15, 180.41 -128.04 M134.9 -133.1 C150.24 -130.76, 165.99 -129.88, 180.41 -128.04 M180.41 -128.04 C182.22 -117.72, 184.07 -101.83, 185.7 -96.82 M180.41 -128.04 C182.13 -121.87, 182.12 -114.11, 185.7 -96.82 M185.7 -96.82 C193.16 -93.09, 203.6 -85.96, 226.97 -71.95 M185.7 -96.82 C198.16 -89.44, 210.75 -82.55, 226.97 -71.95 M226.97 -71.95 C236.85 -75.52, 243.43 -76.18, 265.07 -84.65 M226.97 -71.95 C237.26 -74.49, 249.5 -79.77, 265.07 -84.65 M265.07 -84.65 C271.24 -75.31, 280.82 -65.97, 292.58 -50.79 M265.07 -84.65 C273.73 -72.1, 284.09 -61.68, 292.58 -50.79 M292.58 -50.79 C286.38 -40.02, 279.23 -29.05, 273 -20.1 M292.58 -50.79 C287.02 -41.53, 280.67 -33.03, 273 -20.1 M273 -20.1 C276.38 -4.18, 284.86 12.9, 286.23 25.4 M273 -20.1 C278.67 -3.74, 282.95 12.59, 286.23 25.4 M286.23 25.4 C295.1 30.14, 306.52 36.41, 319.56 41.8 M286.23 25.4 C294.46 30.15, 303.91 33.79, 319.56 41.8 M319.56 41.8 C318.99 54.4, 315.77 65.62, 313.74 87.83 M319.56 41.8 C317.62 54.53, 316.08 67.62, 313.74 87.83 M313.74 87.83 C307.69 90.25, 298.04 90.31, 280.41 94.17 M313.74 87.83 C307.43 89.04, 299.54 90.48, 280.41 94.17 M280.41 94.17 C271.37 109.26, 264.93 125.54, 255.54 138.62 M280.41 94.17 C271.54 111.33, 262.62 125.64, 255.54 138.62 M255.54 138.62 C258.73 145.19, 262.21 150.79, 269.3 168.25 M255.54 138.62 C259.9 147.91, 264.35 155.41, 269.3 168.25 M269.3 168.25 C263.09 174.47, 252.41 182.72, 234.91 197.87 M269.3 168.25 C259.05 177.99, 247.78 187.28, 234.91 197.87 M234.91 197.87 C223.32 191.11, 215.32 181.82, 206.87 178.83 M234.91 197.87 C224.66 190, 214.73 184.28, 206.87 178.83 M206.87 178.83 C195.74 180.83, 182.2 184.17, 159.78 190.47 M206.87 178.83 C191.45 182.96, 175.52 185.5, 159.78 190.47 M159.78 190.47 C155.07 198.48, 149.95 209.35, 143.38 225.39 M159.78 190.47 C155.78 199.44, 150.91 207.82, 143.38 225.39 M143.38 225.39 C128.64 222.82, 116.89 221.25, 96.29 217.98 M143.38 225.39 C128.57 222.72, 115.21 220.5, 96.29 217.98 M96.29 217.98 C92.38 203.99, 90.81 191.05, 90.47 182 M96.29 217.98 C95.8 209.1, 93.16 198.25, 90.47 182 M90.47 182 C77.58 176.23, 63.32 171.53, 48.67 165.07 M90.47 182 C74.74 175.02, 58.33 169.23, 48.67 165.07 M48.67 165.07 C40.46 169.18, 32.83 169.74, 17.99 175.12 M48.67 165.07 C40.78 167.38, 30.91 169.69, 17.99 175.12 M17.99 175.12 C7.77 163.96, -3.68 149.66, -9.52 143.38 M17.99 175.12 C11.72 166.59, 4.98 159.97, -9.52 143.38 M-9.52 143.38 C-5.68 137.06, -3.73 127.42, 5.82 110.58 M-9.52 143.38 C-4.71 133.39, 0.54 122.12, 5.82 110.58 M5.82 110.58 C3.08 97.53, 0.14 84.88, -6.88 66.66 M5.82 110.58 C-0.45 93.29, -4.74 75.36, -6.88 66.66 M-6.88 66.66 C-22.07 57.59, -33 52.88, -42.33 47.62 M-6.88 66.66 C-16.56 60.58, -27.69 55.85, -42.33 47.62 M-42.33 47.62 C-42.12 38.02, -38.28 26.25, -34.92 7.94 M-42.33 47.62 C-40.41 36, -37.47 26.14, -34.92 7.94 M-34.92 7.94 C-27.84 5.02, -21.21 4.7, 0 0 M-34.92 7.94 C-23.89 6.04, -15.12 4.07, 0 0 M0 0 C0 0, 0 0, 0 0 M0 0 C0 0, 0 0, 0 0" stroke="#aaa" stroke-width="1" fill="none"></path></g></g><mask></mask><g stroke-linecap="round" transform="translate(357.33369068905813 2455.2222040890374) rotate(0 109.58129781703065 109.58129781703065)"><path d="M77.02 5.76 C88.46 0.74, 104.45 0.58, 117.65 1.21 C130.86 1.84, 144.39 3.92, 156.24 9.54 C168.09 15.16, 179.77 25.08, 188.74 34.94 C197.72 44.8, 204.87 56.56, 210.09 68.68 C215.3 80.81, 219.72 94.75, 220.05 107.68 C220.37 120.6, 216.62 134.02, 212.04 146.25 C207.46 158.48, 201.33 170.94, 192.57 181.05 C183.81 191.15, 171.43 200.79, 159.5 206.87 C147.57 212.94, 134.03 216.09, 120.99 217.5 C107.95 218.9, 93.89 218.62, 81.27 215.29 C68.66 211.97, 55.78 205.17, 45.29 197.56 C34.8 189.96, 25.43 180.45, 18.33 169.66 C11.22 158.88, 5.47 145.98, 2.65 132.85 C-0.17 119.72, -0.77 104.11, 1.39 90.9 C3.54 77.69, 8.72 64.89, 15.56 53.59 C22.41 42.29, 31.21 31.39, 42.44 23.11 C53.68 14.83, 75.11 7.23, 82.95 3.91 C90.79 0.59, 89.13 1.68, 89.49 3.18 M153.56 9.38 C165.5 12.9, 176.9 21.69, 186.26 31.1 C195.63 40.51, 204.3 53.48, 209.75 65.85 C215.2 78.21, 218.27 92.23, 218.95 105.31 C219.63 118.4, 218.27 131.8, 213.84 144.38 C209.41 156.97, 200.92 170.79, 192.37 180.81 C183.83 190.84, 173.64 198.29, 162.57 204.51 C151.5 210.74, 139.18 216.04, 125.94 218.17 C112.69 220.29, 96.28 220.07, 83.11 217.26 C69.93 214.44, 57.78 208.95, 46.89 201.28 C35.99 193.61, 25.08 182.39, 17.76 171.23 C10.44 160.08, 5.72 147.05, 2.95 134.36 C0.17 121.67, -0.53 108.09, 1.12 95.11 C2.77 82.13, 6.23 68.03, 12.84 56.5 C19.44 44.96, 30.63 34.59, 40.76 25.89 C50.88 17.19, 61.41 8.4, 73.59 4.32 C85.77 0.24, 100.57 0.46, 113.81 1.43 C127.06 2.41, 146.36 8.68, 153.05 10.16 C159.73 11.64, 154.32 8.72, 153.92 10.32" stroke="none" stroke-width="0" fill="#c9d5e1"></path><path d="M63.46 10.81 C74.13 3.83, 88.54 0.2, 101.77 -0.63 C114.99 -1.46, 130.26 1.8, 142.81 5.82 C155.37 9.84, 166.79 15.5, 177.09 23.5 C187.4 31.5, 197.99 42.27, 204.66 53.82 C211.32 65.37, 215.15 79.64, 217.11 92.79 C219.07 105.95, 219.18 120.02, 216.42 132.74 C213.66 145.46, 207.66 158.16, 200.54 169.11 C193.42 180.05, 184.21 190.76, 173.69 198.42 C163.17 206.07, 150.3 211.62, 137.44 215.04 C124.58 218.46, 109.85 220.42, 96.55 218.92 C83.25 217.42, 69.26 212.26, 57.62 206.03 C45.99 199.8, 35.33 191.59, 26.74 181.56 C18.15 171.53, 10.59 158.27, 6.09 145.88 C1.59 133.48, -0.67 120.32, -0.25 107.2 C0.18 94.08, 3.47 79.49, 8.65 67.14 C13.82 54.8, 18.97 43.71, 30.79 33.12 C42.61 22.54, 68.34 8.79, 79.56 3.65 C90.77 -1.49, 97.35 0.52, 98.09 2.29 M136.34 2.74 C149.25 4.22, 162.75 12.78, 173.3 20.51 C183.86 28.24, 192.61 38.58, 199.66 49.12 C206.71 59.67, 212.4 70.83, 215.62 83.78 C218.83 96.73, 220.89 113.55, 218.96 126.84 C217.04 140.13, 210.54 152.46, 204.08 163.51 C197.62 174.55, 190.39 184.72, 180.2 193.09 C170.02 201.45, 155.64 209.15, 142.95 213.7 C130.25 218.24, 116.96 220.91, 104.03 220.35 C91.1 219.78, 77.61 215.91, 65.38 210.3 C53.15 204.68, 40.01 196, 30.65 186.68 C21.29 177.35, 14.19 166.46, 9.22 154.34 C4.26 142.22, 1.39 127.1, 0.86 113.94 C0.32 100.78, 1.83 87.77, 6 75.36 C10.17 62.95, 17.15 49.62, 25.86 39.48 C34.57 29.35, 46.69 20.96, 58.24 14.52 C69.79 8.09, 82.51 3.01, 95.15 0.86 C107.79 -1.3, 127.33 0.82, 134.09 1.6 C140.86 2.38, 135.91 3.4, 135.74 5.54" stroke="transparent" stroke-width="1" fill="none"></path></g><g stroke-linecap="round"><g transform="translate(817.6606864309051 2526.8838919233076) rotate(0 51.707679144014946 17.213844065689955)" fill-rule="evenodd"><path d="M-0.17 -1.13 L8.41 -14.74 L5.6 -25.76 L19.84 -37.36 L30.98 -31.5 L46.79 -37.12 L50.99 -48.14 L67.3 -49.27 L67.97 -37.65 L86.18 -28.57 L99.19 -33.3 L107.5 -19.97 L102.55 -7.77 L105.19 8.92 L118.14 14.85 L115.42 31.97 L104.49 36.08 L97.16 52.14 L100.73 61.32 L88.78 75.74 L75.85 68.19 L59.2 72.25 L55 84.86 L37.16 81.69 L34.8 67.08 L19.19 61.82 L8.09 66.38 L-4.82 51.75 L2.63 39.66 L-1.59 23.41 L-15.72 18.71 L-13.81 4.8 L-0.14 -1.99" stroke="none" stroke-width="0" fill="#e1effc" fill-rule="evenodd"></path><path d="M0 0 C1.85 -5.17, 6.54 -9.75, 9 -14.68 M0 0 C2.82 -4.15, 3.77 -6.38, 9 -14.68 M9 -14.68 C7.51 -17.49, 5.9 -21.4, 3.77 -27.12 M9 -14.68 C6.71 -18.95, 5.73 -23.69, 3.77 -27.12 M3.77 -27.12 C7.76 -31.3, 12.17 -32.35, 20.14 -38.9 M3.77 -27.12 C8.44 -31.51, 13.59 -34.43, 20.14 -38.9 M20.14 -38.9 C23.24 -37.69, 24.95 -34.49, 30.09 -31.79 M20.14 -38.9 C22.7 -36.6, 25.43 -35.54, 30.09 -31.79 M30.09 -31.79 C35.87 -32.2, 40.26 -36.1, 46.01 -36.55 M30.09 -31.79 C35.23 -32.97, 39.12 -34.77, 46.01 -36.55 M46.01 -36.55 C47.18 -40.52, 49.68 -44.51, 50.32 -49.65 M46.01 -36.55 C47.33 -40.9, 48.15 -45.79, 50.32 -49.65 M50.32 -49.65 C57.38 -49.62, 62.38 -49.33, 67.3 -47.76 M50.32 -49.65 C57.02 -48.75, 62.93 -48.41, 67.3 -47.76 M67.3 -47.76 C66.67 -44.5, 69.14 -42.65, 69.27 -36.12 M67.3 -47.76 C67.29 -45.42, 68.31 -42.53, 69.27 -36.12 M69.27 -36.12 C72.26 -35.63, 76.77 -31.41, 84.67 -26.84 M69.27 -36.12 C73.84 -32.72, 79.48 -29.28, 84.67 -26.84 M84.67 -26.84 C88.24 -29.5, 90.82 -30.77, 98.88 -31.58 M84.67 -26.84 C89.92 -28.55, 95.12 -30.89, 98.88 -31.58 M98.88 -31.58 C102.69 -27.45, 104.81 -25.76, 109.14 -18.95 M98.88 -31.58 C103.43 -26.73, 105.89 -21.43, 109.14 -18.95 M109.14 -18.95 C107.21 -16.06, 105.33 -13.16, 101.84 -7.5 M109.14 -18.95 C107.01 -14.62, 103.38 -11.52, 101.84 -7.5 M101.84 -7.5 C104.09 -2.38, 103.1 1.95, 106.77 9.47 M101.84 -7.5 C103.27 -1.24, 104.35 3.28, 106.77 9.47 M106.77 9.47 C109.84 12.43, 113.69 12.67, 119.2 15.59 M106.77 9.47 C110.89 12.3, 115.72 13.93, 119.2 15.59 M119.2 15.59 C118.13 21.22, 116.72 26.94, 117.03 32.76 M119.2 15.59 C117.99 19.77, 118.04 25.03, 117.03 32.76 M117.03 32.76 C111.56 34.15, 108.8 35.34, 104.6 35.13 M117.03 32.76 C113.89 33.4, 110.68 33.85, 104.6 35.13 M104.6 35.13 C103.19 41.32, 101.21 44.33, 95.32 51.71 M104.6 35.13 C100.17 41.33, 97.86 48.1, 95.32 51.71 M95.32 51.71 C96.81 55.06, 99.13 59.1, 100.46 62.76 M95.32 51.71 C97.04 56.43, 98.95 60.77, 100.46 62.76 M100.46 62.76 C97.27 65.15, 92.08 69.86, 87.63 73.81 M100.46 62.76 C96.35 66.57, 90.87 70.5, 87.63 73.81 M87.63 73.81 C85.15 71.34, 80.26 69.38, 77.17 66.71 M87.63 73.81 C84.89 72.41, 82.69 70.92, 77.17 66.71 M77.17 66.71 C73.32 68, 66.7 68.78, 59.6 71.05 M77.17 66.71 C70.09 68.16, 63.64 69.67, 59.6 71.05 M59.6 71.05 C57.1 73.69, 55.39 78.12, 53.48 84.08 M59.6 71.05 C57.32 76.1, 54.59 80.19, 53.48 84.08 M53.48 84.08 C48.27 82.55, 44.17 81.6, 35.92 81.31 M53.48 84.08 C50.09 84.17, 45.53 82.06, 35.92 81.31 M35.92 81.31 C34.95 76.5, 33.97 75.3, 33.75 67.89 M35.92 81.31 C35.47 75.7, 34.97 71.79, 33.75 67.89 M33.75 67.89 C30.75 66.53, 24.79 65.24, 18.16 61.58 M33.75 67.89 C29.32 65.68, 25.06 64.58, 18.16 61.58 M18.16 61.58 C13.54 62.41, 8.22 65.45, 6.71 65.33 M18.16 61.58 C15.46 62.88, 11.4 63.66, 6.71 65.33 M6.71 65.33 C2.39 61.59, -1.31 58.1, -3.55 53.48 M6.71 65.33 C3.33 62.84, 1.58 59.55, -3.55 53.48 M-3.55 53.48 C-1.21 48.18, -0.25 44.46, 2.17 41.25 M-3.55 53.48 C-1.72 48.8, 0.51 45.05, 2.17 41.25 M2.17 41.25 C2.65 38.9, -0.91 31.95, -2.57 24.87 M2.17 41.25 C1.3 35.12, -0.45 29.6, -2.57 24.87 M-2.57 24.87 C-5.31 24.72, -8.28 23.49, -15.79 17.76 M-2.57 24.87 C-6.14 23.59, -10.04 20.55, -15.79 17.76 M-15.79 17.76 C-15.07 10.8, -14.04 5.36, -13.03 2.96 M-15.79 17.76 C-15.82 14.78, -14.9 10.8, -13.03 2.96 M-13.03 2.96 C-10 2.97, -6.18 2.58, 0 0 M-13.03 2.96 C-7.62 1.44, -3.01 1.13, 0 0 M0 0 C0 0, 0 0, 0 0 M0 0 C0 0, 0 0, 0 0" stroke="#aaa" stroke-width="1" fill="none"></path></g></g><mask></mask><g stroke-linecap="round" transform="translate(832.8345268164012 2506.865164897861) rotate(0 36.73287704919221 36.73287704919221)"><path d="M73.47 36.73 C73.47 38.65, 73.31 40.59, 73.01 42.48 C72.71 44.37, 72.26 46.26, 71.67 48.08 C71.08 49.91, 70.33 51.7, 69.46 53.41 C68.59 55.12, 67.58 56.77, 66.45 58.32 C65.32 59.87, 64.06 61.35, 62.71 62.71 C61.35 64.06, 59.87 65.32, 58.32 66.45 C56.77 67.58, 55.12 68.59, 53.41 69.46 C51.7 70.33, 49.91 71.08, 48.08 71.67 C46.26 72.26, 44.37 72.71, 42.48 73.01 C40.59 73.31, 38.65 73.47, 36.73 73.47 C34.82 73.47, 32.88 73.31, 30.99 73.01 C29.09 72.71, 27.2 72.26, 25.38 71.67 C23.56 71.08, 21.76 70.33, 20.06 69.46 C18.35 68.59, 16.69 67.58, 15.14 66.45 C13.59 65.32, 12.11 64.06, 10.76 62.71 C9.4 61.35, 8.14 59.87, 7.02 58.32 C5.89 56.77, 4.87 55.12, 4 53.41 C3.13 51.7, 2.39 49.91, 1.8 48.08 C1.21 46.26, 0.75 44.37, 0.45 42.48 C0.15 40.59, 0 38.65, 0 36.73 C0 34.82, 0.15 32.88, 0.45 30.99 C0.75 29.09, 1.21 27.2, 1.8 25.38 C2.39 23.56, 3.13 21.76, 4 20.06 C4.87 18.35, 5.89 16.69, 7.02 15.14 C8.14 13.59, 9.4 12.11, 10.76 10.76 C12.11 9.4, 13.59 8.14, 15.14 7.02 C16.69 5.89, 18.35 4.87, 20.06 4 C21.76 3.13, 23.56 2.39, 25.38 1.8 C27.2 1.21, 29.09 0.75, 30.99 0.45 C32.88 0.15, 34.82 0, 36.73 0 C38.65 0, 40.59 0.15, 42.48 0.45 C44.37 0.75, 46.26 1.21, 48.08 1.8 C49.91 2.39, 51.7 3.13, 53.41 4 C55.12 4.87, 56.77 5.89, 58.32 7.02 C59.87 8.14, 61.35 9.4, 62.71 10.76 C64.06 12.11, 65.32 13.59, 66.45 15.14 C67.58 16.69, 68.59 18.35, 69.46 20.06 C70.33 21.76, 71.08 23.56, 71.67 25.38 C72.26 27.2, 72.71 29.09, 73.01 30.99 C73.31 32.88, 73.39 35.78, 73.47 36.73 C73.54 37.69, 73.54 35.78, 73.47 36.73" stroke="none" stroke-width="0" fill="#c9d5e1"></path><path d="M73.47 36.73 C73.47 38.65, 73.31 40.59, 73.01 42.48 C72.71 44.37, 72.26 46.26, 71.67 48.08 C71.08 49.91, 70.33 51.7, 69.46 53.41 C68.59 55.12, 67.58 56.77, 66.45 58.32 C65.32 59.87, 64.06 61.35, 62.71 62.71 C61.35 64.06, 59.87 65.32, 58.32 66.45 C56.77 67.58, 55.12 68.59, 53.41 69.46 C51.7 70.33, 49.91 71.08, 48.08 71.67 C46.26 72.26, 44.37 72.71, 42.48 73.01 C40.59 73.31, 38.65 73.47, 36.73 73.47 C34.82 73.47, 32.88 73.31, 30.99 73.01 C29.09 72.71, 27.2 72.26, 25.38 71.67 C23.56 71.08, 21.76 70.33, 20.06 69.46 C18.35 68.59, 16.69 67.58, 15.14 66.45 C13.59 65.32, 12.11 64.06, 10.76 62.71 C9.4 61.35, 8.14 59.87, 7.02 58.32 C5.89 56.77, 4.87 55.12, 4 53.41 C3.13 51.7, 2.39 49.91, 1.8 48.08 C1.21 46.26, 0.75 44.37, 0.45 42.48 C0.15 40.59, 0 38.65, 0 36.73 C0 34.82, 0.15 32.88, 0.45 30.99 C0.75 29.09, 1.21 27.2, 1.8 25.38 C2.39 23.56, 3.13 21.76, 4 20.06 C4.87 18.35, 5.89 16.69, 7.02 15.14 C8.14 13.59, 9.4 12.11, 10.76 10.76 C12.11 9.4, 13.59 8.14, 15.14 7.02 C16.69 5.89, 18.35 4.87, 20.06 4 C21.76 3.13, 23.56 2.39, 25.38 1.8 C27.2 1.21, 29.09 0.75, 30.99 0.45 C32.88 0.15, 34.82 0, 36.73 0 C38.65 0, 40.59 0.15, 42.48 0.45 C44.37 0.75, 46.26 1.21, 48.08 1.8 C49.91 2.39, 51.7 3.13, 53.41 4 C55.12 4.87, 56.77 5.89, 58.32 7.02 C59.87 8.14, 61.35 9.4, 62.71 10.76 C64.06 12.11, 65.32 13.59, 66.45 15.14 C67.58 16.69, 68.59 18.35, 69.46 20.06 C70.33 21.76, 71.08 23.56, 71.67 25.38 C72.26 27.2, 72.71 29.09, 73.01 30.99 C73.31 32.88, 73.39 35.78, 73.47 36.73 C73.54 37.69, 73.54 35.78, 73.47 36.73" stroke="transparent" stroke-width="1" fill="none"></path></g><g stroke-linecap="round"><g transform="translate(549.9438216103681 2298.274169895174) rotate(0 76.03742971605061 25.27791864293158)" fill-rule="evenodd"><path d="M1.83 1.35 L12.95 -20.04 L6.43 -39.59 L30.41 -57.79 L44.94 -45.25 L67.67 -55.27 L72.72 -74.57 L100.51 -71.98 L102.21 -54.85 L122.91 -40.51 L146.15 -46.72 L158.96 -28.42 L148.74 -11.77 L155.45 13.14 L175.23 23.89 L173.99 48.62 L154.14 50.24 L141.38 77.99 L146.45 93.8 L128.49 109.78 L115.03 98.91 L88.92 104.89 L79.73 122.86 L53.87 119.85 L51.03 100.92 L25.44 88.84 L10.33 94.5 L-4.25 77.21 L3.27 61.62 L-4.56 38.41 L-23.37 24.14 L-19.4 3.92 L-0.71 0.59" stroke="none" stroke-width="0" fill="#e1effc" fill-rule="evenodd"></path><path d="M0 0 C2.67 -8.56, 8.94 -12.06, 13.24 -21.59 M0 0 C2.16 -5.22, 5.94 -9.25, 13.24 -21.59 M13.24 -21.59 C12.06 -28.02, 10.29 -34.2, 5.54 -39.89 M13.24 -21.59 C10.5 -27.15, 8.79 -33.24, 5.54 -39.89 M5.54 -39.89 C11.98 -44.55, 18.15 -49.76, 29.62 -57.23 M5.54 -39.89 C10.59 -43.09, 16.35 -47.36, 29.62 -57.23 M29.62 -57.23 C32.93 -53.15, 38.18 -52.86, 44.27 -46.76 M29.62 -57.23 C35.45 -52.4, 39.65 -49.46, 44.27 -46.76 M44.27 -46.76 C53.09 -49.07, 63.58 -51.02, 67.67 -53.77 M44.27 -46.76 C52.56 -48.5, 61.13 -51.7, 67.67 -53.77 M67.67 -53.77 C70 -57.8, 72.73 -65.53, 74.02 -73.03 M67.67 -53.77 C70.33 -59.11, 71.79 -64.48, 74.02 -73.03 M74.02 -73.03 C81.57 -73.75, 86.36 -69.54, 99 -70.26 M74.02 -73.03 C81.06 -72.39, 90.85 -72.06, 99 -70.26 M99 -70.26 C99.35 -65.22, 102.23 -58.54, 101.9 -53.13 M99 -70.26 C98.8 -67.09, 100 -63.16, 101.9 -53.13 M101.9 -53.13 C107.68 -48.37, 111.78 -48.74, 124.54 -39.48 M101.9 -53.13 C108.97 -49.08, 117.56 -44.34, 124.54 -39.48 M124.54 -39.48 C130.69 -40.25, 131.94 -42.73, 145.45 -46.45 M124.54 -39.48 C130.79 -41.13, 137.07 -43.05, 145.45 -46.45 M145.45 -46.45 C151.9 -40.59, 154.15 -32.45, 160.54 -27.87 M145.45 -46.45 C149.39 -40.03, 153.52 -35.43, 160.54 -27.87 M160.54 -27.87 C158.26 -24.16, 154.41 -16.16, 149.8 -11.03 M160.54 -27.87 C156.09 -21.29, 152.42 -15.84, 149.8 -11.03 M149.8 -11.03 C152.71 -1.41, 155.92 6.32, 157.06 13.93 M149.8 -11.03 C152.39 -0.39, 156.09 7.9, 157.06 13.93 M157.06 13.93 C165.18 19.22, 171.39 20.1, 175.35 22.93 M157.06 13.93 C164.77 16.84, 171.77 20.93, 175.35 22.93 M175.35 22.93 C173.43 30.01, 172.28 35.92, 172.15 48.19 M175.35 22.93 C174.96 29.56, 173.4 35.97, 172.15 48.19 M172.15 48.19 C165.36 49.43, 159.2 51.49, 153.86 51.68 M172.15 48.19 C166.57 49.86, 161.59 50.8, 153.86 51.68 M153.86 51.68 C150.82 60.33, 142.35 68.11, 140.22 76.06 M153.86 51.68 C150.27 58.9, 146.03 65.24, 140.22 76.06 M140.22 76.06 C144.01 82.44, 144.38 84.47, 147.77 92.32 M140.22 76.06 C142.65 81.87, 145.99 88.38, 147.77 92.32 M147.77 92.32 C144 97.35, 138.87 102.55, 128.9 108.58 M147.77 92.32 C143.08 96.99, 137.14 101.27, 128.9 108.58 M128.9 108.58 C123.25 106.73, 121.3 101.8, 113.51 98.12 M128.9 108.58 C123.33 105.18, 118.39 102.02, 113.51 98.12 M113.51 98.12 C106.86 99.12, 96.15 101.22, 87.67 104.51 M113.51 98.12 C105.62 99.17, 99.15 101.19, 87.67 104.51 M87.67 104.51 C86.49 107.85, 84.05 113.95, 78.67 123.67 M87.67 104.51 C84.38 112.09, 81.55 117.97, 78.67 123.67 M78.67 123.67 C70.51 123.51, 63.92 122.78, 52.84 119.61 M78.67 123.67 C68.06 121.44, 57.97 119.93, 52.84 119.61 M52.84 119.61 C53.75 114.84, 50.5 112.51, 49.64 99.87 M52.84 119.61 C51.83 116.25, 51.73 112.24, 49.64 99.87 M49.64 99.87 C41.46 97.65, 35.62 93.18, 26.71 90.58 M49.64 99.87 C45.4 97.81, 39.22 95.49, 26.71 90.58 M26.71 90.58 C22 91.46, 16.82 94.85, 9.87 96.09 M26.71 90.58 C21.05 92.27, 13.95 94.15, 9.87 96.09 M9.87 96.09 C4.15 92.21, 1.83 83.08, -5.23 78.67 M9.87 96.09 C4.84 89.47, -1.83 83.78, -5.23 78.67 M-5.23 78.67 C-2.26 74.54, -1.79 70.23, 3.19 60.67 M-5.23 78.67 C-3.77 74.79, -2.11 70.98, 3.19 60.67 M3.19 60.67 C1.17 51.08, -2.34 43.1, -3.77 36.58 M3.19 60.67 C0.51 55.76, 0.27 49.94, -3.77 36.58 M-3.77 36.58 C-11.9 33.38, -17.55 28.62, -23.22 26.13 M-3.77 36.58 C-9.94 32.54, -17.24 28.42, -23.22 26.13 M-23.22 26.13 C-23.69 22.14, -20.66 14.55, -19.16 4.35 M-23.22 26.13 C-22.36 17.6, -20.21 10.79, -19.16 4.35 M-19.16 4.35 C-11.17 1.16, -3.66 3.06, 0 0 M-19.16 4.35 C-14.91 2.92, -8.94 2.49, 0 0 M0 0 C0 0, 0 0, 0 0 M0 0 C0 0, 0 0, 0 0" stroke="#aaa" stroke-width="1" fill="none"></path></g></g><mask></mask><g stroke-linecap="round" transform="translate(572.2641610324463 2268.8271234880576) rotate(0 54.0331427547635 54.0331427547635)"><path d="M108.07 54.03 C108.07 56.38, 107.91 58.76, 107.6 61.09 C107.3 63.42, 106.83 65.75, 106.23 68.02 C105.62 70.29, 104.85 72.54, 103.95 74.71 C103.05 76.88, 102 79.01, 100.83 81.05 C99.65 83.09, 98.33 85.06, 96.9 86.93 C95.47 88.79, 93.9 90.58, 92.24 92.24 C90.58 93.9, 88.79 95.47, 86.93 96.9 C85.06 98.33, 83.09 99.65, 81.05 100.83 C79.01 102, 76.88 103.05, 74.71 103.95 C72.54 104.85, 70.29 105.62, 68.02 106.23 C65.75 106.83, 63.42 107.3, 61.09 107.6 C58.76 107.91, 56.38 108.07, 54.03 108.07 C51.68 108.07, 49.31 107.91, 46.98 107.6 C44.65 107.3, 42.32 106.83, 40.05 106.23 C37.78 105.62, 35.53 104.85, 33.36 103.95 C31.18 103.05, 29.05 102, 27.02 100.83 C24.98 99.65, 23 98.33, 21.14 96.9 C19.27 95.47, 17.49 93.9, 15.83 92.24 C14.16 90.58, 12.6 88.79, 11.17 86.93 C9.73 85.06, 8.41 83.09, 7.24 81.05 C6.06 79.01, 5.01 76.88, 4.11 74.71 C3.21 72.54, 2.45 70.29, 1.84 68.02 C1.23 65.75, 0.77 63.42, 0.46 61.09 C0.16 58.76, 0 56.38, 0 54.03 C0 51.68, 0.16 49.31, 0.46 46.98 C0.77 44.65, 1.23 42.32, 1.84 40.05 C2.45 37.78, 3.21 35.53, 4.11 33.36 C5.01 31.18, 6.06 29.05, 7.24 27.02 C8.41 24.98, 9.73 23, 11.17 21.14 C12.6 19.27, 14.16 17.49, 15.83 15.83 C17.49 14.16, 19.27 12.6, 21.14 11.17 C23 9.73, 24.98 8.41, 27.02 7.24 C29.05 6.06, 31.18 5.01, 33.36 4.11 C35.53 3.21, 37.78 2.45, 40.05 1.84 C42.32 1.23, 44.65 0.77, 46.98 0.46 C49.31 0.16, 51.68 0, 54.03 0 C56.38 0, 58.76 0.16, 61.09 0.46 C63.42 0.77, 65.75 1.23, 68.02 1.84 C70.29 2.45, 72.54 3.21, 74.71 4.11 C76.88 5.01, 79.01 6.06, 81.05 7.24 C83.09 8.41, 85.06 9.73, 86.93 11.17 C88.79 12.6, 90.58 14.16, 92.24 15.83 C93.9 17.49, 95.47 19.27, 96.9 21.14 C98.33 23, 99.65 24.98, 100.83 27.02 C102 29.05, 103.05 31.18, 103.95 33.36 C104.85 35.53, 105.62 37.78, 106.23 40.05 C106.83 42.32, 107.3 44.65, 107.6 46.98 C107.91 49.31, 107.99 52.86, 108.07 54.03 C108.14 55.21, 108.14 52.86, 108.07 54.03" stroke="none" stroke-width="0" fill="#c9d5e1"></path><path d="M108.07 54.03 C108.07 56.38, 107.91 58.76, 107.6 61.09 C107.3 63.42, 106.83 65.75, 106.23 68.02 C105.62 70.29, 104.85 72.54, 103.95 74.71 C103.05 76.88, 102 79.01, 100.83 81.05 C99.65 83.09, 98.33 85.06, 96.9 86.93 C95.47 88.79, 93.9 90.58, 92.24 92.24 C90.58 93.9, 88.79 95.47, 86.93 96.9 C85.06 98.33, 83.09 99.65, 81.05 100.83 C79.01 102, 76.88 103.05, 74.71 103.95 C72.54 104.85, 70.29 105.62, 68.02 106.23 C65.75 106.83, 63.42 107.3, 61.09 107.6 C58.76 107.91, 56.38 108.07, 54.03 108.07 C51.68 108.07, 49.31 107.91, 46.98 107.6 C44.65 107.3, 42.32 106.83, 40.05 106.23 C37.78 105.62, 35.53 104.85, 33.36 103.95 C31.18 103.05, 29.05 102, 27.02 100.83 C24.98 99.65, 23 98.33, 21.14 96.9 C19.27 95.47, 17.49 93.9, 15.83 92.24 C14.16 90.58, 12.6 88.79, 11.17 86.93 C9.73 85.06, 8.41 83.09, 7.24 81.05 C6.06 79.01, 5.01 76.88, 4.11 74.71 C3.21 72.54, 2.45 70.29, 1.84 68.02 C1.23 65.75, 0.77 63.42, 0.46 61.09 C0.16 58.76, 0 56.38, 0 54.03 C0 51.68, 0.16 49.31, 0.46 46.98 C0.77 44.65, 1.23 42.32, 1.84 40.05 C2.45 37.78, 3.21 35.53, 4.11 33.36 C5.01 31.18, 6.06 29.05, 7.24 27.02 C8.41 24.98, 9.73 23, 11.17 21.14 C12.6 19.27, 14.16 17.49, 15.83 15.83 C17.49 14.16, 19.27 12.6, 21.14 11.17 C23 9.73, 24.98 8.41, 27.02 7.24 C29.05 6.06, 31.18 5.01, 33.36 4.11 C35.53 3.21, 37.78 2.45, 40.05 1.84 C42.32 1.23, 44.65 0.77, 46.98 0.46 C49.31 0.16, 51.68 0, 54.03 0 C56.38 0, 58.76 0.16, 61.09 0.46 C63.42 0.77, 65.75 1.23, 68.02 1.84 C70.29 2.45, 72.54 3.21, 74.71 4.11 C76.88 5.01, 79.01 6.06, 81.05 7.24 C83.09 8.41, 85.06 9.73, 86.93 11.17 C88.79 12.6, 90.58 14.16, 92.24 15.83 C93.9 17.49, 95.47 19.27, 96.9 21.14 C98.33 23, 99.65 24.98, 100.83 27.02 C102 29.05, 103.05 31.18, 103.95 33.36 C104.85 35.53, 105.62 37.78, 106.23 40.05 C106.83 42.32, 107.3 44.65, 107.6 46.98 C107.91 49.31, 107.99 52.86, 108.07 54.03 C108.14 55.21, 108.14 52.86, 108.07 54.03" stroke="transparent" stroke-width="1" fill="none"></path></g><g stroke-linecap="round"><g transform="translate(621.3083783191832 2521.132174887558) rotate(0 219.92266295735044 69.16176790375994)" fill-rule="evenodd"><path d="M-0.11 -0.35 L73.23 31.6 L75.4 59.53 L58.54 87.7 L-21.18 69.23 L-19.54 103 L27.56 140.43 L95.97 126.77 L122.03 99.52 L447.1 170.79 L462.16 125.72 L131.01 54.11 L116.69 2.91 L49.36 -30.53 L1.85 -0.37" stroke="none" stroke-width="0" fill="#ced4da" fill-rule="evenodd"></path><path d="M0 0 C13.73 5.19, 31.76 11.58, 72.42 31.58 M0 0 C16.74 6.87, 32.58 15.2, 72.42 31.58 M72.42 31.58 C73.27 40.06, 72.63 45.84, 73.96 60.11 M72.42 31.58 C72.6 40.31, 74.18 49.72, 73.96 60.11 M73.96 60.11 C68.05 67.12, 65 74.53, 58.76 86.25 M73.96 60.11 C67.68 69.9, 63.11 79.7, 58.76 86.25 M58.76 86.25 C28.77 77.83, -5.41 73.1, -22.11 68.02 M58.76 86.25 C27.28 78.19, -6.36 71.72, -22.11 68.02 M-22.11 68.02 C-20.5 76.88, -21.04 88.61, -20.97 101.05 M-22.11 68.02 C-21.44 81.09, -20.98 92.82, -20.97 101.05 M-20.97 101.05 C-1.51 114.3, 16.06 132.04, 28 138.64 M-20.97 101.05 C-5.39 112.78, 10.23 125.63, 28 138.64 M28 138.64 C43.49 137.59, 57.81 131.54, 96.34 128.39 M28 138.64 C47.21 137.35, 65.29 133.15, 96.34 128.39 M96.34 128.39 C100.33 122.78, 106.28 114.2, 123.68 99.91 M96.34 128.39 C102.5 121.95, 110.68 114.42, 123.68 99.91 M123.68 99.91 C250.83 129.04, 378.11 156.57, 446.01 170.53 M123.68 99.91 C209.97 118.5, 296.5 138.61, 446.01 170.53 M446.01 170.53 C451.55 154.59, 455.33 140.77, 461.96 124.97 M446.01 170.53 C451.56 155.36, 455.59 141.18, 461.96 124.97 M461.96 124.97 C368.82 105.75, 276.26 86.32, 131.65 54.35 M461.96 124.97 C333.8 97.07, 205.19 70.01, 131.65 54.35 M131.65 54.35 C129.03 40.76, 122.96 29.17, 116.84 1.96 M131.65 54.35 C126.81 33.42, 121.22 14.06, 116.84 1.96 M116.84 1.96 C95.47 -11.37, 70.3 -21.21, 48.51 -32.21 M116.84 1.96 C90.68 -12.16, 62.77 -24.63, 48.51 -32.21 M48.51 -32.21 C31.73 -19.55, 11.47 -6.69, 0 0 M48.51 -32.21 C36.93 -25.16, 25.37 -17.45, 0 0 M0 0 C0 0, 0 0, 0 0 M0 0 C0 0, 0 0, 0 0" stroke="#495057" stroke-width="2" fill="none"></path></g></g><mask></mask><g transform="translate(267.53043237719976 2765.913881164375) rotate(0 416.75 111.32637212193822)"><text x="416.75" y="0" font-family="Virgil, Segoe UI Emoji" font-size="89.06109769755032px" fill="#000000" text-anchor="middle" style="white-space: pre;" direction="ltr" dominant-baseline="text-before-edge">Archiver</text><text x="416.75" y="111.32637212193795" font-family="Virgil, Segoe UI Emoji" font-size="89.06109769755032px" fill="#000000" text-anchor="middle" style="white-space: pre;" direction="ltr" dominant-baseline="text-before-edge">background process</text></g><g transform="translate(148.41651308242035 726.6666666666679) rotate(0 3933.091552734376 229.9999999999991)"><text x="0" y="0" font-family="Virgil, Segoe UI Emoji" font-size="183.99999999999937px" fill="#1e1e1e" text-anchor="start" style="white-space: pre;" direction="ltr" dominant-baseline="text-before-edge">Continuous archiving is a feature that copies WAL segment files to an archival area </text><text x="0" y="229.9999999999992" font-family="Virgil, Segoe UI Emoji" font-size="183.99999999999937px" fill="#1e1e1e" text-anchor="start" style="white-space: pre;" direction="ltr" dominant-baseline="text-before-edge">at the time when a WAL segment switch occurs.</text></g><g stroke-linecap="round" transform="translate(1830.176718441082 2119.8458250146086) rotate(0 189.9201336828819 201.09190625246356)"><path d="M0 0 C114.51 -0.27, 228.9 -1.24, 379.84 0 M0 0 C94.04 -1.98, 189.12 -1.71, 379.84 0 M379.84 0 C380.73 134.96, 381.09 269.13, 379.84 402.18 M379.84 0 C381.96 130.58, 382.25 260.95, 379.84 402.18 M379.84 402.18 C251.7 403.11, 125.87 403.74, 0 402.18 M379.84 402.18 C286.4 401.43, 193.46 401.29, 0 402.18 M0 402.18 C-1.67 263.31, -1.42 121.77, 0 0 M0 402.18 C0.34 245.1, -0.12 88.22, 0 0" stroke="#000000" stroke-width="4" fill="none"></path></g><g stroke-linecap="round" transform="translate(2210.016985806771 2119.8458250146086) rotate(0 189.9201336828819 201.09190625246356)"><path d="M0 0 C124.44 -1.31, 249.15 -0.65, 379.84 0 M0 0 C141.02 1.27, 282.17 1.87, 379.84 0 M379.84 0 C377.07 161.04, 378.02 321.99, 379.84 402.18 M379.84 0 C380.48 118.18, 380.31 237.24, 379.84 402.18 M379.84 402.18 C242.41 401.32, 103.29 400.14, 0 402.18 M379.84 402.18 C283.82 403.55, 187.86 403.98, 0 402.18 M0 402.18 C-0.35 240.99, -0.17 80.81, 0 0 M0 402.18 C-2.15 283.36, -2.18 164.84, 0 0" stroke="#000000" stroke-width="4" fill="none"></path></g><g stroke-linecap="round" transform="translate(2590.369292748652 2119.8458250146086) rotate(0 189.9201336828819 201.09190625246356)"><path d="M0 0 C125.57 1.19, 253.23 0.09, 379.84 0 M0 0 C91.53 0.85, 183.25 -0.21, 379.84 0 M379.84 0 C378.75 145.76, 378.41 289.62, 379.84 402.18 M379.84 0 C381.5 123.18, 381.66 244.81, 379.84 402.18 M379.84 402.18 C281.46 401.33, 183.82 402.02, 0 402.18 M379.84 402.18 C246.27 403.43, 112.71 403.15, 0 402.18 M0 402.18 C-0.67 242.27, -1.74 83.25, 0 0 M0 402.18 C-0.34 285.75, -0.42 167.91, 0 0" stroke="#000000" stroke-width="4" fill="none"></path></g><g stroke-linecap="round" transform="translate(2970.2095601145156 2119.8458250146086) rotate(0 189.9201336828819 201.09190625246356)"><path d="M0 0 C96.45 -1.18, 190.47 -0.1, 379.84 0 M0 0 C108.84 -2.5, 216.86 -2.3, 379.84 0 M379.84 0 C380.33 140.65, 380.45 281.74, 379.84 402.18 M379.84 0 C380.99 108.56, 380.39 218.21, 379.84 402.18 M379.84 402.18 C261.78 399.77, 145.48 400.39, 0 402.18 M379.84 402.18 C255.64 404.78, 130.84 404.91, 0 402.18 M0 402.18 C-2.1 298.96, -2.15 193.7, 0 0 M0 402.18 C-0.28 274.8, 0.19 148.81, 0 0" stroke="#000000" stroke-width="4" fill="none"></path></g><g stroke-linecap="round" transform="translate(3353.773751670069 2119.8458250146086) rotate(0 189.9201336828819 201.09190625246356)"><path d="M0 0 C116.04 1.99, 233.33 2.32, 379.84 0 M0 0 C146.64 1.75, 292.85 2.26, 379.84 0 M379.84 0 C379.76 157.79, 379.38 314.53, 379.84 402.18 M379.84 0 C381.03 161.01, 381.32 321.22, 379.84 402.18 M379.84 402.18 C300.39 401.7, 220.02 402.04, 0 402.18 M379.84 402.18 C228.54 403.83, 75.81 403.92, 0 402.18 M0 402.18 C-0.01 277.75, 0.27 153.04, 0 0 M0 402.18 C0.49 248.07, -0.14 93.14, 0 0" stroke="#000000" stroke-width="4" fill="none"></path></g><g stroke-linecap="round" transform="translate(3733.6140190358674 2119.8458250146086) rotate(0 189.9201336828819 201.09190625246356)"><path d="M0 0 C81.85 0.27, 165.09 1.05, 379.84 0 M0 0 C79.13 1.52, 158.2 1.34, 379.84 0 M379.84 0 C379.62 125.97, 381.07 251.85, 379.84 402.18 M379.84 0 C378.93 90.32, 378.37 180.99, 379.84 402.18 M379.84 402.18 C278.22 403.21, 177.12 403.83, 0 402.18 M379.84 402.18 C245.71 404.43, 112.12 403.86, 0 402.18 M0 402.18 C0.39 241.69, 1.16 80.91, 0 0 M0 402.18 C-2.04 314.1, -1.38 225.69, 0 0" stroke="#000000" stroke-width="4" fill="none"></path></g><g stroke-linecap="round" transform="translate(4113.4542864016585 2119.8458250146086) rotate(0 189.9201336828819 201.09190625246356)"><path d="M0 0 C117.27 0.42, 231.39 -0.05, 379.84 0 M0 0 C91.63 -0.6, 182.24 -0.53, 379.84 0 M379.84 0 C380.31 147.36, 378.34 292.82, 379.84 402.18 M379.84 0 C379.55 137.87, 379.87 276.56, 379.84 402.18 M379.84 402.18 C259.65 404.48, 137.7 404.45, 0 402.18 M379.84 402.18 C237.65 404.22, 95.94 404.19, 0 402.18 M0 402.18 C0.6 274.21, -1.26 147.19, 0 0 M0 402.18 C1.16 247.1, 0.63 92.59, 0 0" stroke="#000000" stroke-width="4" fill="none"></path></g><g stroke-linecap="round" transform="translate(4493.294553767377 2119.8458250146086) rotate(0 189.9201336828819 201.09190625246356)"><path d="M0 0 C125.72 -1.54, 252.93 -1.67, 379.84 0 M0 0 C123.38 0.16, 246.99 -0.04, 379.84 0 M379.84 0 C381.26 134.25, 382.59 269.57, 379.84 402.18 M379.84 0 C377.64 99.03, 377.93 197.63, 379.84 402.18 M379.84 402.18 C248.27 405.63, 116.33 403.97, 0 402.18 M379.84 402.18 C232.13 402.03, 83.34 402.18, 0 402.18 M0 402.18 C-2.82 277.54, -0.95 150.7, 0 0 M0 402.18 C-2.03 272.04, -1.45 140.85, 0 0" stroke="#000000" stroke-width="4" fill="none"></path></g><g stroke-linecap="round" transform="translate(4865.686972753469 2119.8458250146086) rotate(0 189.9201336828819 201.09190625246356)"><path d="M0 0 C150.85 -0.77, 303.44 -0.28, 379.84 0 M0 0 C112.15 -0.29, 223.74 0.49, 379.84 0 M379.84 0 C378.64 146.17, 377.54 291.13, 379.84 402.18 M379.84 0 C379.24 101.95, 379.4 204.15, 379.84 402.18 M379.84 402.18 C228.92 403.93, 77.3 404.53, 0 402.18 M379.84 402.18 C267.65 402.07, 155.31 402.48, 0 402.18 M0 402.18 C2.79 281.6, 2.1 162.67, 0 0 M0 402.18 C0.68 285.16, 0.53 168.24, 0 0" stroke="#000000" stroke-width="4" fill="none"></path></g><g stroke-linecap="round" transform="translate(5245.527240119209 2119.8458250146086) rotate(0 189.9201336828819 201.09190625246356)"><path d="M0 0 C136.99 -0.04, 273.33 -0.98, 379.84 0 M379.84 0 C381.7 123.74, 382.02 244.39, 379.84 402.18 M379.84 402.18 C281.46 401.33, 183.82 402.02, 0 402.18 M0 402.18 C0.1 261.57, 0.68 119.3, 0 0" stroke="#000000" stroke-width="4.5" fill="none" stroke-dasharray="1.5 10"></path></g><g transform="translate(1890.0434578045715 2270.7989687449262) rotate(0 133.10833740234375 63.46079649739568)"><text x="0" y="0" font-family="Virgil, Segoe UI Emoji" font-size="99.34107256957051px" fill="#000000" text-anchor="start" style="white-space: pre;" direction="ltr" dominant-baseline="text-before-edge">WAL0</text></g><g transform="translate(2263.1375823093585 2263.091643659467) rotate(0 112.46666717529297 63.46079649739568)"><text x="0" y="0" font-family="Virgil, Segoe UI Emoji" font-size="99.34107256957051px" fill="#000000" text-anchor="start" style="white-space: pre;" direction="ltr" dominant-baseline="text-before-edge">WAL1</text></g><g transform="translate(2654.040108222809 2263.09164365946) rotate(0 134.2916717529297 63.46079649739568)"><text x="0" y="0" font-family="Virgil, Segoe UI Emoji" font-size="99.34107256957051px" fill="#000000" text-anchor="start" style="white-space: pre;" direction="ltr" dominant-baseline="text-before-edge">WAL2</text></g><g transform="translate(3026.0279957856073 2263.09164365946) rotate(0 132.75833129882812 63.46079649739568)"><text x="0" y="0" font-family="Virgil, Segoe UI Emoji" font-size="99.34107256957051px" fill="#000000" text-anchor="start" style="white-space: pre;" direction="ltr" dominant-baseline="text-before-edge">WAL3</text></g><g transform="translate(3429.5402805994927 2250.481884759025) rotate(0 130.73333740234375 63.46079649739568)"><text x="0" y="0" font-family="Virgil, Segoe UI Emoji" font-size="99.34107256957051px" fill="#000000" text-anchor="start" style="white-space: pre;" direction="ltr" dominant-baseline="text-before-edge">WAL4</text></g><g transform="translate(3801.528168162291 2263.09164365946) rotate(0 129.64166259765625 63.46079649739568)"><text x="0" y="0" font-family="Virgil, Segoe UI Emoji" font-size="99.34107256957051px" fill="#000000" text-anchor="start" style="white-space: pre;" direction="ltr" dominant-baseline="text-before-edge">WAL5</text></g><g transform="translate(4173.5160557250965 2263.091643659467) rotate(0 130.73333740234375 63.46079649739568)"><text x="0" y="0" font-family="Virgil, Segoe UI Emoji" font-size="99.34107256957051px" fill="#000000" text-anchor="start" style="white-space: pre;" direction="ltr" dominant-baseline="text-before-edge">WAL6</text></g><g transform="translate(4558.11370218833 2263.09164365946) rotate(0 125.68333435058594 63.46079649739568)"><text x="0" y="0" font-family="Virgil, Segoe UI Emoji" font-size="99.34107256957051px" fill="#000000" text-anchor="start" style="white-space: pre;" direction="ltr" dominant-baseline="text-before-edge">WAL7</text></g><g transform="translate(4923.796710300918 2256.7867642092497) rotate(0 136.9166717529297 63.46079649739568)"><text x="0" y="0" font-family="Virgil, Segoe UI Emoji" font-size="99.34107256957051px" fill="#000000" text-anchor="start" style="white-space: pre;" direction="ltr" dominant-baseline="text-before-edge">WAL8</text></g><g stroke-linecap="round" transform="translate(1804.0854906261338 3033.778807287974) rotate(0 189.9201336828819 201.09190625246447)"><path d="M0 0 C102.3 0.13, 205.12 0.75, 379.84 0 M0 0 C133.65 -1.16, 267.84 -1.72, 379.84 0 M379.84 0 C379.81 160.77, 380.58 321.25, 379.84 402.18 M379.84 0 C381.55 88.36, 382.21 176.38, 379.84 402.18 M379.84 402.18 C267.75 405.29, 155.87 404.09, 0 402.18 M379.84 402.18 C298.74 402.92, 216.32 403.09, 0 402.18 M0 402.18 C-1.98 310.86, -2.38 219.39, 0 0 M0 402.18 C-2.29 271.17, -2.28 139.94, 0 0" stroke="#000000" stroke-width="4" fill="none"></path></g><g stroke-linecap="round" transform="translate(2183.925757991823 3033.778807287974) rotate(0 189.9201336828819 201.09190625246447)"><path d="M0 0 C122.59 0.1, 243.4 0.08, 379.84 0 M0 0 C142.31 -2.09, 285.09 -2.12, 379.84 0 M379.84 0 C381.14 127.95, 379.29 256.86, 379.84 402.18 M379.84 0 C379.68 154.97, 379.15 310.52, 379.84 402.18 M379.84 402.18 C228.41 403.51, 76.53 404.44, 0 402.18 M379.84 402.18 C257.19 403.52, 135.12 403.63, 0 402.18 M0 402.18 C-0.39 242.62, 0.33 84.82, 0 0 M0 402.18 C1.12 256.66, 1.27 112.12, 0 0" stroke="#000000" stroke-width="4" fill="none"></path></g><g stroke-linecap="round" transform="translate(2564.2780649337037 3033.778807287974) rotate(0 189.9201336828819 201.09190625246447)"><path d="M0 0 C132.83 -1.1, 265.3 -2.76, 379.84 0 M0 0 C148.9 0.04, 296.72 0.19, 379.84 0 M379.84 0 C380.84 126.51, 382.71 250.83, 379.84 402.18 M379.84 0 C381.81 131.08, 382.39 261.11, 379.84 402.18 M379.84 402.18 C237.29 402.17, 97.06 402.38, 0 402.18 M379.84 402.18 C249.94 404.26, 121.5 403.73, 0 402.18 M0 402.18 C1.15 286.84, 1.55 168.86, 0 0 M0 402.18 C1.24 282.6, 1.77 161.47, 0 0" stroke="#000000" stroke-width="4" fill="none"></path></g><g stroke-linecap="round" transform="translate(2944.1183322995676 3033.778807287974) rotate(0 189.9201336828819 201.09190625246447)"><path d="M0 0 C152.71 -2.72, 304.71 -2.11, 379.84 0 M0 0 C112.41 0.31, 224.68 0.72, 379.84 0 M379.84 0 C378.98 119.93, 378.29 241.5, 379.84 402.18 M379.84 0 C380.27 116.79, 380.12 233.67, 379.84 402.18 M379.84 402.18 C276.38 404.14, 172.9 402.31, 0 402.18 M379.84 402.18 C240.52 404.14, 99.98 403.92, 0 402.18 M0 402.18 C0.11 295.09, -0.6 188.75, 0 0 M0 402.18 C1.17 296.85, 1.1 192.06, 0 0" stroke="#000000" stroke-width="4" fill="none"></path></g><g stroke-linecap="round" transform="translate(3327.6825238551173 3033.778807287974) rotate(0 189.9201336828819 201.09190625246447)"><path d="M0 0 C152.22 1.04, 302.22 2.12, 379.84 0 M0 0 C110.49 0.15, 220.83 -0.84, 379.84 0 M379.84 0 C382.05 154.98, 381.67 307.9, 379.84 402.18 M379.84 0 C382.47 153.69, 381.91 307.17, 379.84 402.18 M379.84 402.18 C247.26 402.7, 114.53 402.84, 0 402.18 M379.84 402.18 C233.02 401.91, 86.12 402.3, 0 402.18 M0 402.18 C-1.4 246.7, -1.83 92.24, 0 0 M0 402.18 C-1.04 242.02, -0.99 82.47, 0 0" stroke="#000000" stroke-width="4" fill="none"></path></g><g stroke-linecap="round" transform="translate(3707.5227912209193 3033.778807287974) rotate(0 189.9201336828819 201.09190625246447)"><path d="M0 0 C98.49 0.97, 196.98 -0.01, 379.84 0 M0 0 C119.87 -2.41, 240.25 -1.41, 379.84 0 M379.84 0 C380.3 108.88, 381.33 218.98, 379.84 402.18 M379.84 0 C381.33 111.96, 381.77 225.01, 379.84 402.18 M379.84 402.18 C241.11 399.36, 101.78 401.39, 0 402.18 M379.84 402.18 C266.39 401.47, 153.87 401.68, 0 402.18 M0 402.18 C-0.41 307.33, 1.13 213.96, 0 0 M0 402.18 C-0.74 313.73, -1.47 225.82, 0 0" stroke="#000000" stroke-width="4" fill="none"></path></g><g stroke-linecap="round" transform="translate(4087.3630585867104 3033.778807287974) rotate(0 189.9201336828819 201.09190625246447)"><path d="M0 0 C117.6 -2.05, 235.62 -2.12, 379.84 0 M0 0 C146.5 2.35, 291.84 1.99, 379.84 0 M379.84 0 C380.56 157.28, 379.4 313.18, 379.84 402.18 M379.84 0 C379.51 111.12, 379.61 222.22, 379.84 402.18 M379.84 402.18 C299.25 401.66, 216.56 400.38, 0 402.18 M379.84 402.18 C280.84 403.14, 180.44 402.76, 0 402.18 M0 402.18 C1.98 307.89, -0.02 212.82, 0 0 M0 402.18 C-1.68 308.07, -1.66 213.69, 0 0" stroke="#000000" stroke-width="4" fill="none"></path></g><g stroke-linecap="round" transform="translate(4467.203325952429 3033.778807287974) rotate(0 189.9201336828819 201.09190625246447)"><path d="M0 0 C151.9 -0.27, 304.43 -0.43, 379.84 0 M0 0 C83.14 -1.8, 167.17 -2, 379.84 0 M379.84 0 C381.48 119.24, 381.44 236.54, 379.84 402.18 M379.84 0 C381.36 86.53, 380.5 172.98, 379.84 402.18 M379.84 402.18 C293.69 404.24, 207.12 403.94, 0 402.18 M379.84 402.18 C255.72 403.57, 131.99 403.35, 0 402.18 M0 402.18 C-3.11 297.01, -2.94 191.42, 0 0 M0 402.18 C1.27 289.94, 1.58 177.19, 0 0" stroke="#000000" stroke-width="4" fill="none"></path></g><g stroke-linecap="round" transform="translate(4839.595744938517 3033.778807287974) rotate(0 189.9201336828819 201.09190625246447)"><path d="M0 0 C121.87 -0.29, 240.74 0.72, 379.84 0 M0 0 C146.94 -0.62, 292.8 -0.07, 379.84 0 M379.84 0 C379.11 159.73, 378.42 320.63, 379.84 402.18 M379.84 0 C380.89 129.71, 380.95 259.14, 379.84 402.18 M379.84 402.18 C229.06 401.51, 79.51 402.95, 0 402.18 M379.84 402.18 C242.22 401.92, 105.15 402.74, 0 402.18 M0 402.18 C1.09 259.02, 1.59 113.77, 0 0 M0 402.18 C1.5 258.81, 1.42 115.45, 0 0" stroke="#000000" stroke-width="4" fill="none"></path></g><g stroke-linecap="round" transform="translate(5219.436012304257 3033.778807287974) rotate(0 189.9201336828819 201.09190625246447)"><path d="M0 0 C117.64 1.02, 238.23 -0.33, 379.84 0 M0 0 C123.32 0.71, 247.3 0.09, 379.84 0 M379.84 0 C378.33 150.41, 379.54 300.45, 379.84 402.18 M379.84 0 C377.5 137.56, 378.45 274.14, 379.84 402.18 M379.84 402.18 C270.31 402.39, 160.91 400.59, 0 402.18 M379.84 402.18 C266.16 401.87, 153.27 400.81, 0 402.18 M0 402.18 C1.25 261.95, 2.12 122.59, 0 0 M0 402.18 C0.17 255.18, 0.04 107.22, 0 0" stroke="#000000" stroke-width="4" fill="none"></path></g><g transform="translate(1863.9522299896198 3184.7319510182897) rotate(0 133.10833740234375 63.46079649739477)"><text x="0" y="0" font-family="Virgil, Segoe UI Emoji" font-size="99.34107256957051px" fill="#000000" text-anchor="start" style="white-space: pre;" direction="ltr" dominant-baseline="text-before-edge">WAL0</text></g><g transform="translate(2237.046354494407 3177.0246259328305) rotate(0 112.46666717529297 63.46079649739477)"><text x="0" y="0" font-family="Virgil, Segoe UI Emoji" font-size="99.34107256957051px" fill="#000000" text-anchor="start" style="white-space: pre;" direction="ltr" dominant-baseline="text-before-edge">WAL1</text></g><g transform="translate(2627.9488804078574 3177.0246259328233) rotate(0 134.2916717529297 63.46079649739477)"><text x="0" y="0" font-family="Virgil, Segoe UI Emoji" font-size="99.34107256957051px" fill="#000000" text-anchor="start" style="white-space: pre;" direction="ltr" dominant-baseline="text-before-edge">WAL2</text></g><g transform="translate(2999.9367679706593 3177.0246259328233) rotate(0 132.75833129882812 63.46079649739477)"><text x="0" y="0" font-family="Virgil, Segoe UI Emoji" font-size="99.34107256957051px" fill="#000000" text-anchor="start" style="white-space: pre;" direction="ltr" dominant-baseline="text-before-edge">WAL3</text></g><g transform="translate(3403.4490527845446 3164.4148670323884) rotate(0 130.73333740234375 63.46079649739477)"><text x="0" y="0" font-family="Virgil, Segoe UI Emoji" font-size="99.34107256957051px" fill="#000000" text-anchor="start" style="white-space: pre;" direction="ltr" dominant-baseline="text-before-edge">WAL4</text></g><g transform="translate(3775.436940347343 3177.0246259328233) rotate(0 129.64166259765625 63.46079649739477)"><text x="0" y="0" font-family="Virgil, Segoe UI Emoji" font-size="99.34107256957051px" fill="#000000" text-anchor="start" style="white-space: pre;" direction="ltr" dominant-baseline="text-before-edge">WAL5</text></g><g transform="translate(4147.424827910148 3177.0246259328305) rotate(0 130.73333740234375 63.46079649739477)"><text x="0" y="0" font-family="Virgil, Segoe UI Emoji" font-size="99.34107256957051px" fill="#000000" text-anchor="start" style="white-space: pre;" direction="ltr" dominant-baseline="text-before-edge">WAL6</text></g><g transform="translate(4532.022474373382 3177.0246259328233) rotate(0 125.68333435058594 63.46079649739477)"><text x="0" y="0" font-family="Virgil, Segoe UI Emoji" font-size="99.34107256957051px" fill="#000000" text-anchor="start" style="white-space: pre;" direction="ltr" dominant-baseline="text-before-edge">WAL7</text></g><g transform="translate(4897.705482485966 3170.719746482613) rotate(0 136.9166717529297 63.46079649739477)"><text x="0" y="0" font-family="Virgil, Segoe UI Emoji" font-size="99.34107256957051px" fill="#000000" text-anchor="start" style="white-space: pre;" direction="ltr" dominant-baseline="text-before-edge">WAL8</text></g><g transform="translate(5275.998249498985 3170.719746482606) rotate(0 129.19166564941406 63.46079649739477)"><text x="0" y="0" font-family="Virgil, Segoe UI Emoji" font-size="99.34107256957051px" fill="#000000" text-anchor="start" style="white-space: pre;" direction="ltr" dominant-baseline="text-before-edge">WAL9</text></g><g stroke-linecap="round"><g transform="translate(5031.680885148075 1744.8707135404347) rotate(0 -0.6208092608321749 116.09350929207176)"><path d="M-0.23 0.27 C-0.41 38.84, -1.12 193.11, -1.37 231.66 M0.22 0.14 C0.04 38.75, -1.11 193.44, -1.46 232.05" stroke="#1e1e1e" stroke-width="4" fill="none"></path></g><g transform="translate(5031.680885148075 1744.8707135404347) rotate(0 -0.6208092608321749 116.09350929207176)"><path d="M-10.99 204.34 C-9.29 209.81, -7.35 215.74, -1.31 232.55 M-11.68 203.66 C-8.03 214.28, -4.13 223.97, -1.32 231.86" stroke="#1e1e1e" stroke-width="4" fill="none"></path></g><g transform="translate(5031.680885148075 1744.8707135404347) rotate(0 -0.6208092608321749 116.09350929207176)"><path d="M9.53 204.5 C6.82 209.9, 4.35 215.79, -1.31 232.55 M8.84 203.83 C5.08 214.38, 1.56 224.02, -1.32 231.86" stroke="#1e1e1e" stroke-width="4" fill="none"></path></g></g><mask></mask><g transform="translate(5076.680885148075 1737.3707135404347) rotate(0 124.01667022705078 83.43837897563844)"><text x="0" y="0" font-family="Virgil, Segoe UI Emoji" font-size="133.50140636102162px" fill="#1971c2" text-anchor="start" style="white-space: pre;" direction="ltr" dominant-baseline="text-before-edge">LSN</text></g><g stroke-linecap="round"><g transform="translate(5442.346576086336 2671.120058825476) rotate(0 -1.054235299417087 115.65085098810869)"><path d="M-0.03 -0.12 C-0.38 38.51, -1.55 193.08, -1.78 231.75 M-0.42 -0.44 C-0.84 38.08, -1.9 192.61, -2.07 231.24" stroke="#1e1e1e" stroke-width="4" fill="none"></path></g><g transform="translate(5442.346576086336 2671.120058825476) rotate(0 -1.054235299417087 115.65085098810869)"><path d="M-12.39 202.79 C-8.02 214.67, -3.82 224.98, -2.08 230.87 M-12 202.76 C-9.43 210.14, -6.77 217.64, -2.29 231.41" stroke="#1e1e1e" stroke-width="4" fill="none"></path></g><g transform="translate(5442.346576086336 2671.120058825476) rotate(0 -1.054235299417087 115.65085098810869)"><path d="M8.13 202.91 C4.38 214.74, 0.46 224.99, -2.08 230.87 M8.52 202.88 C5.74 210.29, 3.05 217.76, -2.29 231.41" stroke="#1e1e1e" stroke-width="4" fill="none"></path></g></g><mask></mask><g transform="translate(5487.346576086336 2663.620058825476) rotate(0 124.01667022705078 83.43837897563844)"><text x="0" y="0" font-family="Virgil, Segoe UI Emoji" font-size="133.50140636102162px" fill="#1971c2" text-anchor="start" style="white-space: pre;" direction="ltr" dominant-baseline="text-before-edge">LSN</text></g><g transform="translate(5714.180885148078 3133.2040468737796) rotate(0 769.2833251953125 86.66666666666788)"><text x="0" y="0" font-family="Virgil, Segoe UI Emoji" font-size="138.66666666666714px" fill="#1971c2" text-anchor="start" style="white-space: pre;" direction="ltr" dominant-baseline="text-before-edge">WAL9 &lt; max_wal_size</text></g><g stroke-linecap="round" transform="translate(1827.407918910012 4097.2414270808695) rotate(0 189.9201336828819 201.09190625246447)"><path d="M0 0 C133.17 1.48, 268.63 1.17, 379.84 0 M379.84 0 C379.42 80.44, 379.52 163.72, 379.84 402.18 M379.84 402.18 C231.71 401.76, 82 402.73, 0 402.18 M0 402.18 C-0.59 280.31, -1.17 158, 0 0" stroke="#000000" stroke-width="4.5" fill="none" stroke-dasharray="1.5 10"></path></g><g stroke-linecap="round" transform="translate(2207.2481862757013 4097.2414270808695) rotate(0 189.9201336828819 201.09190625246447)"><path d="M0 0 C78.98 0.27, 155.86 0.8, 379.84 0 M379.84 0 C381.12 123.24, 381.65 244.31, 379.84 402.18 M379.84 402.18 C264.14 401.78, 150.39 401.87, 0 402.18 M0 402.18 C-1.12 315.93, -0.11 232.37, 0 0" stroke="#000000" stroke-width="4.5" fill="none" stroke-dasharray="1.5 10"></path></g><g stroke-linecap="round" transform="translate(2587.600493217582 4097.2414270808695) rotate(0 189.9201336828819 201.09190625246447)"><path d="M0 0 C92.29 1.39, 186.97 2.24, 379.84 0 M379.84 0 C381.84 83.48, 380.85 168.4, 379.84 402.18 M379.84 402.18 C280.94 403.73, 180.93 403.7, 0 402.18 M0 402.18 C1.06 293.32, -0.24 184.17, 0 0" stroke="#000000" stroke-width="4.5" fill="none" stroke-dasharray="1.5 10"></path></g><g stroke-linecap="round" transform="translate(2967.440760583446 4097.2414270808695) rotate(0 189.9201336828819 201.09190625246447)"><path d="M0 0 C83.64 1.23, 166.08 1.34, 379.84 0 M379.84 0 C381.92 149.31, 381.45 297.13, 379.84 402.18 M379.84 402.18 C248.95 403.87, 119.85 403.24, 0 402.18 M0 402.18 C-2.25 320.25, -2.99 236.56, 0 0" stroke="#000000" stroke-width="4.5" fill="none" stroke-dasharray="1.5 10"></path></g><g stroke-linecap="round" transform="translate(3351.0049521389956 4097.2414270808695) rotate(0 189.9201336828819 201.09190625246447)"><path d="M0 0 C99.27 -0.27, 201.58 0.3, 379.84 0 M379.84 0 C379.44 99.27, 380.36 200.36, 379.84 402.18 M379.84 402.18 C246.9 403.19, 113.5 404.26, 0 402.18 M0 402.18 C-0.38 260.98, 0.42 120.86, 0 0" stroke="#000000" stroke-width="4.5" fill="none" stroke-dasharray="1.5 10"></path></g><g stroke-linecap="round" transform="translate(3730.8452195047976 4097.2414270808695) rotate(0 189.9201336828819 201.09190625246447)"><path d="M0 0 C128.03 0.1, 253.77 -0.96, 379.84 0 M379.84 0 C379.41 131.18, 379.5 261.33, 379.84 402.18 M379.84 402.18 C246.99 403.08, 117.01 401.7, 0 402.18 M0 402.18 C1.9 251.89, 2.61 98.56, 0 0" stroke="#000000" stroke-width="4.5" fill="none" stroke-dasharray="1.5 10"></path></g><g stroke-linecap="round" transform="translate(4110.685486870589 4097.2414270808695) rotate(0 189.9201336828819 201.09190625246447)"><path d="M0 0 C129.81 -2.05, 261.16 -2.54, 379.84 0 M379.84 0 C381.34 87.55, 381.31 176.77, 379.84 402.18 M379.84 402.18 C268.4 403.73, 156.66 402.94, 0 402.18 M0 402.18 C0.99 281.91, 0 163.72, 0 0" stroke="#000000" stroke-width="4.5" fill="none" stroke-dasharray="1.5 10"></path></g><g stroke-linecap="round" transform="translate(4490.525754236307 4097.2414270808695) rotate(0 189.9201336828819 201.09190625246447)"><path d="M0 0 C148.75 -0.52, 295.92 0.45, 379.84 0 M379.84 0 C381.48 121.25, 380.9 242.07, 379.84 402.18 M379.84 402.18 C234.86 400.32, 88 401.18, 0 402.18 M0 402.18 C-1.43 245.78, -1.96 88.51, 0 0" stroke="#000000" stroke-width="4.5" fill="none" stroke-dasharray="1.5 10"></path></g><g stroke-linecap="round" transform="translate(4862.918173222395 4097.2414270808695) rotate(0 189.9201336828819 201.09190625246447)"><path d="M0 0 C113.78 1.4, 229.51 1.49, 379.84 0 M379.84 0 C380.84 84.13, 381.85 170.96, 379.84 402.18 M379.84 402.18 C277.61 399.69, 176.53 400.44, 0 402.18 M0 402.18 C0.05 317.6, 1.84 234.25, 0 0" stroke="#000000" stroke-width="4.5" fill="none" stroke-dasharray="1.5 10"></path></g><g transform="translate(1887.274658273498 4248.194570811185) rotate(0 133.10833740234375 63.46079649739477)"><text x="0" y="0" font-family="Virgil, Segoe UI Emoji" font-size="99.34107256957051px" fill="#000000" text-anchor="start" style="white-space: pre;" direction="ltr" dominant-baseline="text-before-edge">WAL0</text></g><g transform="translate(2260.368782778285 4240.487245725726) rotate(0 112.46666717529297 63.46079649739477)"><text x="0" y="0" font-family="Virgil, Segoe UI Emoji" font-size="99.34107256957051px" fill="#000000" text-anchor="start" style="white-space: pre;" direction="ltr" dominant-baseline="text-before-edge">WAL1</text></g><g transform="translate(2651.2713086917356 4240.487245725719) rotate(0 134.2916717529297 63.46079649739477)"><text x="0" y="0" font-family="Virgil, Segoe UI Emoji" font-size="99.34107256957051px" fill="#000000" text-anchor="start" style="white-space: pre;" direction="ltr" dominant-baseline="text-before-edge">WAL2</text></g><g transform="translate(3023.2591962545375 4240.487245725719) rotate(0 132.75833129882812 63.46079649739477)"><text x="0" y="0" font-family="Virgil, Segoe UI Emoji" font-size="99.34107256957051px" fill="#000000" text-anchor="start" style="white-space: pre;" direction="ltr" dominant-baseline="text-before-edge">WAL3</text></g><g transform="translate(3426.771481068423 4227.877486825284) rotate(0 130.73333740234375 63.46079649739477)"><text x="0" y="0" font-family="Virgil, Segoe UI Emoji" font-size="99.34107256957051px" fill="#000000" text-anchor="start" style="white-space: pre;" direction="ltr" dominant-baseline="text-before-edge">WAL4</text></g><g transform="translate(3798.759368631221 4240.487245725719) rotate(0 129.64166259765625 63.46079649739477)"><text x="0" y="0" font-family="Virgil, Segoe UI Emoji" font-size="99.34107256957051px" fill="#000000" text-anchor="start" style="white-space: pre;" direction="ltr" dominant-baseline="text-before-edge">WAL5</text></g><g transform="translate(4170.747256194027 4240.487245725726) rotate(0 130.73333740234375 63.46079649739477)"><text x="0" y="0" font-family="Virgil, Segoe UI Emoji" font-size="99.34107256957051px" fill="#000000" text-anchor="start" style="white-space: pre;" direction="ltr" dominant-baseline="text-before-edge">WAL6</text></g><g transform="translate(4555.34490265726 4240.487245725719) rotate(0 125.68333435058594 63.46079649739477)"><text x="0" y="0" font-family="Virgil, Segoe UI Emoji" font-size="99.34107256957051px" fill="#000000" text-anchor="start" style="white-space: pre;" direction="ltr" dominant-baseline="text-before-edge">WAL7</text></g><g transform="translate(4921.027910769844 4234.182366275509) rotate(0 136.9166717529297 63.46079649739477)"><text x="0" y="0" font-family="Virgil, Segoe UI Emoji" font-size="99.34107256957051px" fill="#000000" text-anchor="start" style="white-space: pre;" direction="ltr" dominant-baseline="text-before-edge">WAL8</text></g><g stroke-opacity="0" fill-opacity="0" stroke-linecap="round" transform="translate(206.70451816725108 3794.9546717515004) rotate(0 473.37866158183806 473.37866158183715)"><path d="M627.86 25.86 C655.4 27.5, 680.07 47.48, 704.69 61.32 C729.31 75.16, 753.8 90.86, 775.6 108.9 C797.39 126.95, 817.25 147.92, 835.45 169.59 C853.66 191.25, 870.71 214.61, 884.83 238.9 C898.95 263.18, 910.8 288.85, 920.17 315.31 C929.55 341.77, 936.7 369.96, 941.07 397.68 C945.43 425.4, 946.98 453.42, 946.38 481.65 C945.77 509.89, 942.8 539.29, 937.45 567.1 C932.1 594.92, 924.74 622.3, 914.27 648.55 C903.8 674.8, 889.63 700.63, 874.62 724.6 C859.61 748.57, 843.01 771.66, 824.19 792.39 C805.37 813.12, 784.23 832.07, 761.7 848.97 C739.17 865.86, 714.27 880.93, 689.03 893.75 C663.79 906.57, 637.13 917.74, 610.26 925.9 C583.39 934.06, 555.61 939.53, 527.82 942.71 C500.02 945.9, 471.7 946.55, 443.49 945.02 C415.27 943.49, 385.99 940.34, 358.53 933.52 C331.07 926.71, 304.4 915.68, 278.72 904.16 C253.04 892.64, 227.6 880.33, 204.44 864.41 C181.27 848.49, 159.74 828.65, 139.73 808.65 C119.72 788.65, 100.5 767.56, 84.39 744.4 C68.27 721.24, 54.57 695.21, 43.05 669.67 C31.53 644.14, 22.34 618.19, 15.28 591.19 C8.23 564.2, 2.74 535.87, 0.71 507.71 C-1.31 479.54, -0.03 450.29, 3.13 422.22 C6.29 394.14, 11.71 366.44, 19.67 339.26 C27.63 312.08, 38.17 284.49, 50.92 259.15 C63.66 233.81, 79.05 209.72, 96.12 187.22 C113.2 164.72, 132.59 143.15, 153.37 124.14 C174.15 105.12, 197.23 88.1, 220.8 73.11 C244.37 58.12, 268.73 44.79, 294.8 34.21 C320.87 23.63, 349.42 15.33, 377.23 9.63 C405.05 3.94, 433.44 0.67, 461.69 0.03 C489.94 -0.6, 516.25 0.57, 546.72 5.82 C577.2 11.07, 626.07 24.58, 644.53 31.53 C662.99 38.48, 660.36 40.24, 657.48 47.54 M695.92 55.21 C722.98 61.24, 744.83 84.88, 767.07 102.34 C789.32 119.81, 810.83 138.89, 829.4 160 C847.96 181.11, 864.16 204.63, 878.48 229.02 C892.79 253.41, 905.16 279.79, 915.28 306.34 C925.39 332.89, 934.13 360.62, 939.19 388.32 C944.24 416.02, 945.48 444.74, 945.6 472.53 C945.72 500.33, 944.66 527.44, 939.91 555.1 C935.16 582.76, 926.8 612.04, 917.09 638.51 C907.38 664.98, 896.13 689.67, 881.65 713.93 C867.16 738.19, 848.56 762.64, 830.16 784.05 C811.75 805.46, 793.09 824.71, 771.22 842.37 C749.35 860.03, 723.83 876.4, 698.94 890.01 C674.04 903.62, 648.44 915.33, 621.84 924.02 C595.25 932.71, 567.55 938.46, 539.37 942.14 C511.19 945.83, 481.24 947.41, 452.77 946.11 C424.3 944.82, 395.95 940.67, 368.56 934.37 C341.17 928.08, 313.9 919.38, 288.42 908.34 C262.94 897.3, 239.05 883.55, 215.67 868.11 C192.3 852.67, 168.98 834.77, 148.15 815.7 C127.33 796.63, 107.38 776.4, 90.7 753.68 C74.01 730.97, 60.44 704.75, 48.06 679.43 C35.67 654.1, 23.87 628.8, 16.39 601.73 C8.91 574.65, 5.78 545.29, 3.18 516.98 C0.58 488.66, -1.25 459.93, 0.78 431.82 C2.82 403.71, 7.76 375.52, 15.38 348.3 C23 321.08, 34.23 293.6, 46.51 268.5 C58.8 243.41, 72.52 220.12, 89.1 197.71 C105.69 175.3, 125.51 153.56, 146.01 134.05 C166.51 114.54, 188.64 96.6, 212.1 80.64 C235.56 64.68, 260.94 49.79, 286.77 38.29 C312.61 26.79, 339.67 17.71, 367.11 11.65 C394.55 5.59, 423.38 3.19, 451.42 1.92 C479.46 0.65, 507.5 0.45, 535.35 4.03 C563.2 7.62, 591.99 14.89, 618.52 23.42 C645.05 31.95, 682.43 48.63, 694.55 55.21 C706.68 61.79, 694.65 55.93, 691.28 62.91" stroke="#1e1e1e" stroke-width="1" fill="none"></path></g><g transform="translate(365.9006512417054 4391.186726893964) rotate(0 304.07501220703125 202.7190452620489)"><text x="304.07501220703125" y="0" font-family="Virgil, Segoe UI Emoji" font-size="162.17523620963874px" fill="#1e1e1e" text-anchor="middle" style="white-space: pre;" direction="ltr" dominant-baseline="text-before-edge">Archival</text><text x="304.07501220703125" y="202.71904526204844" font-family="Virgil, Segoe UI Emoji" font-size="162.17523620963874px" fill="#1e1e1e" text-anchor="middle" style="white-space: pre;" direction="ltr" dominant-baseline="text-before-edge">area</text></g><g stroke-linecap="round"><g transform="translate(447.83290361402214 4318.066854161756) rotate(0 219.47827682287698 -100.54748089180612)"><path d="M-1.04 -0.4 C7.8 -29.29, 28.07 -139.16, 53.87 -172.31 C79.67 -205.46, 89.45 -195.24, 153.77 -199.3 C218.08 -203.37, 391.94 -197.3, 439.78 -196.7 M0.61 -1.66 C9.21 -29.91, 27.37 -138.62, 52.81 -171.34 C78.26 -204.05, 88.76 -193.86, 153.29 -197.93 C217.82 -202, 392.23 -196.25, 440 -195.77" stroke="#1e1e1e" stroke-width="1" fill="none"></path></g></g><mask></mask><g stroke-linecap="round"><g transform="translate(879.5562724456431 4116.862266177708) rotate(0 -192.71450855963576 40.446224151159186)"><path d="M-0.21 -1.07 C9.75 3.39, 56.2 -4.18, 58.66 26.37 C61.13 56.91, 33.21 150.61, 14.59 182.19 C-4.04 213.77, 11.21 210.22, -53.08 215.82 C-117.37 221.43, -307.27 223.91, -371.13 215.81 C-434.98 207.7, -424.65 217.13, -436.23 167.21 C-447.8 117.29, -444.58 -33.7, -440.56 -83.72 C-436.53 -133.75, -436.2 -124.75, -412.08 -132.95 C-387.97 -141.16, -321.83 -141.86, -295.87 -132.94 C-269.91 -124.01, -296.98 -88.28, -256.34 -79.39 C-215.71 -70.51, -94.38 -83.33, -52.06 -79.62 C-9.73 -75.92, -11.04 -70.27, -2.38 -57.14 C6.29 -44.01, -0.33 -10.21, -0.07 -0.85 M-1.77 0.99 C8.16 5.7, 55.41 -2.43, 58 27.96 C60.6 58.35, 32.17 152.4, 13.79 183.34 C-4.6 214.28, 12.03 208.07, -52.31 213.6 C-116.65 219.13, -308.48 224.39, -372.25 216.52 C-436.02 208.66, -423.65 216.11, -434.93 166.42 C-446.21 116.73, -444.11 -31.64, -439.94 -81.6 C-435.77 -131.55, -433.67 -124.61, -409.9 -133.3 C-386.13 -141.99, -323.08 -142.59, -297.32 -133.73 C-271.55 -124.87, -296.3 -89.34, -255.3 -80.12 C-214.29 -70.91, -93.27 -82.23, -51.27 -78.45 C-9.26 -74.66, -11.83 -70.73, -3.27 -57.4 C5.3 -44.07, -0.71 -7.75, 0.13 1.54" stroke="#1e1e1e" stroke-width="1" fill="none"></path></g></g><mask></mask><g stroke-linecap="round"><g transform="translate(10.083179749086412 3885.8333333333358) rotate(0 4134.813681149584 -2.616755051896689)"><path d="M-0.08 -0.27 C1378.23 -1.12, 6891.4 -4.16, 8269.71 -4.97" stroke="#1e1e1e" stroke-width="4.5" fill="none" stroke-dasharray="8 12"></path></g></g><mask></mask><g transform="translate(175.0831797490864 3620.5898964562293) rotate(0 585.3250122070312 65.12171843855322)"><text x="0" y="0" font-family="Virgil, Segoe UI Emoji" font-size="104.1947495016859px" fill="#1e1e1e" text-anchor="start" style="white-space: pre;" direction="ltr" dominant-baseline="text-before-edge">Archived WAL segments</text></g><g stroke-linecap="round"><g transform="translate(5005.083179749086 3545.8333333333358) rotate(0 0.14171528019596735 232.5403922399746)"><path d="M0.29 0.25 C0.27 77.69, 0.25 387.23, 0.17 464.72 M0.07 0.12 C0.01 77.57, -0.03 387.53, 0.02 464.96" stroke="#2f9e44" stroke-width="4" fill="none"></path></g><g transform="translate(5005.083179749086 3545.8333333333358) rotate(0 0.14171528019596735 232.5403922399746)"><path d="M-9.78 437.09 C-6.82 447.09, -2.01 457.88, 0.47 464.87 M-10.18 436.83 C-7.06 444.54, -4.61 452.61, 0.01 465.07" stroke="#2f9e44" stroke-width="4" fill="none"></path></g><g transform="translate(5005.083179749086 3545.8333333333358) rotate(0 0.14171528019596735 232.5403922399746)"><path d="M10.74 437.09 C5.85 447.15, 2.8 457.94, 0.47 464.87 M10.34 436.83 C7.65 444.49, 4.28 452.56, 0.01 465.07" stroke="#2f9e44" stroke-width="4" fill="none"></path></g></g><mask></mask><g transform="translate(5375.083179749086 3965.8333333333358) rotate(0 1653.4999465942383 75)"><text x="0" y="0" font-family="Virgil, Segoe UI Emoji" font-size="119.99999999999999px" fill="#2f9e44" text-anchor="start" style="white-space: pre;" direction="ltr" dominant-baseline="text-before-edge">archive_command = 'cp %p /home/postgres/archives/%f'</text></g><g transform="translate(5790.083179749086 4175.833333333336) rotate(0 1339.239521026595 65.86154180197809)"><text x="0" y="0" font-family="Virgil, Segoe UI Emoji" font-size="105.37846688316624px" fill="#2f9e44" text-anchor="start" style="white-space: pre;" direction="ltr" dominant-baseline="text-before-edge">%p placeholder represents the copied WAL segment,</text></g><g transform="translate(5815.083179749086 4375.833333333336) rotate(0 1088.3187026977394 64.96455707201676)"><text x="0" y="0" font-family="Virgil, Segoe UI Emoji" font-size="103.9432913152265px" fill="#2f9e44" text-anchor="start" style="white-space: pre;" direction="ltr" dominant-baseline="text-before-edge">%f placeholder represents the archive log.</text></g></svg>