<svg version="1.1" xmlns="http://www.w3.org/2000/svg" viewBox="0 0 5545.233317057289 3692.882452508369" width="5545.233317057289" height="3692.882452508369">
  <!-- svg-source:excalidraw -->
  
  <defs>
    <style class="style-fonts">
      @font-face {
        font-family: "Virgil";
        src: url("https://excalidraw.com/Virgil.woff2");
      }
      @font-face {
        font-family: "Cascadia";
        src: url("https://excalidraw.com/Cascadia.woff2");
      }
    </style>
    
  </defs>
  <g stroke-linecap="round" transform="translate(112.66249995966973 1081.190897315868) rotate(0 189.9201336828819 201.09190625246356)"><path d="M0 0 C111.85 1.81, 223.35 1.65, 379.84 0 M0 0 C95.1 0.77, 189.58 1.1, 379.84 0 M379.84 0 C379.09 157.58, 378.32 318.16, 379.84 402.18 M379.84 0 C377.26 141.14, 378.14 281.78, 379.84 402.18 M379.84 402.18 C273.77 402.77, 166.96 401.21, 0 402.18 M379.84 402.18 C250.93 402.16, 121.14 402.1, 0 402.18 M0 402.18 C-0.44 245.24, -1.14 89.93, 0 0 M0 402.18 C-0.13 250.8, -0.71 100.07, 0 0" stroke="#000000" stroke-width="4" fill="none"></path></g><g stroke-linecap="round" transform="translate(492.50276732535895 1081.190897315868) rotate(0 189.9201336828819 201.09190625246356)"><path d="M0 0 C87.06 -0.34, 173.84 0.72, 379.84 0 M0 0 C95.26 1.26, 191.85 0.81, 379.84 0 M379.84 0 C381.93 90.57, 382.32 178.12, 379.84 402.18 M379.84 0 C378.51 93.05, 377.97 186.67, 379.84 402.18 M379.84 402.18 C271.82 403.27, 163.24 404.87, 0 402.18 M379.84 402.18 C267.67 402.67, 156.97 402.97, 0 402.18 M0 402.18 C-1.57 283.46, -0.88 166.28, 0 0 M0 402.18 C-2.03 306.29, -2.02 209.82, 0 0" stroke="#000000" stroke-width="4" fill="none"></path></g><g stroke-linecap="round" transform="translate(872.8550742672396 1081.190897315868) rotate(0 189.9201336828819 201.09190625246356)"><path d="M0 0 C119.76 1.02, 240.14 0.14, 379.84 0 M0 0 C93.49 -0.44, 185.39 0.51, 379.84 0 M379.84 0 C380.77 83.48, 379.43 168.22, 379.84 402.18 M379.84 0 C381.5 134.34, 381.53 268.32, 379.84 402.18 M379.84 402.18 C237.44 401.9, 94.02 401.36, 0 402.18 M379.84 402.18 C259.16 402.74, 137.4 402.85, 0 402.18 M0 402.18 C0.52 322.03, -1.02 242.22, 0 0 M0 402.18 C0.32 291.12, 0.63 179.85, 0 0" stroke="#000000" stroke-width="4" fill="none"></path></g><g stroke-linecap="round" transform="translate(1252.6953416331035 1081.190897315868) rotate(0 189.9201336828819 201.09190625246356)"><path d="M0 0 C114.85 -1.88, 230.19 -2.87, 379.84 0 M0 0 C113.39 2.21, 227.17 1.8, 379.84 0 M379.84 0 C380.21 154.72, 381.36 312.07, 379.84 402.18 M379.84 0 C379.33 112.26, 379.84 224.17, 379.84 402.18 M379.84 402.18 C286.42 404.41, 193.38 403.05, 0 402.18 M379.84 402.18 C262.38 403.96, 144.39 403.59, 0 402.18 M0 402.18 C-2.4 304.6, -1.99 204.9, 0 0 M0 402.18 C0.61 252.93, 0.77 103.27, 0 0" stroke="#000000" stroke-width="4" fill="none"></path></g><g stroke-linecap="round" transform="translate(1636.2595331886532 1081.190897315868) rotate(0 189.9201336828819 201.09190625246356)"><path d="M0 0 C148.35 -1.2, 298.02 0.71, 379.84 0 M0 0 C84.96 -1.83, 171.52 -1.62, 379.84 0 M379.84 0 C378.67 83.46, 378.05 164.95, 379.84 402.18 M379.84 0 C379.95 144.47, 379.21 288.67, 379.84 402.18 M379.84 402.18 C235.96 402.03, 91.74 404.02, 0 402.18 M379.84 402.18 C243.34 404.02, 107.7 404.39, 0 402.18 M0 402.18 C1.11 270.54, 2.18 139.11, 0 0 M0 402.18 C-0.49 265.95, -0.7 129.97, 0 0" stroke="#000000" stroke-width="4" fill="none"></path></g><g stroke-linecap="round" transform="translate(2016.0998005544552 1081.190897315868) rotate(0 189.9201336828819 201.09190625246356)"><path d="M0 0 C121.06 2.59, 241.23 0.53, 379.84 0 M0 0 C146.53 -0.06, 291.46 -0.77, 379.84 0 M379.84 0 C380.35 89.04, 381.25 178.36, 379.84 402.18 M379.84 0 C381.26 141.87, 382.01 283.25, 379.84 402.18 M379.84 402.18 C252.94 401.45, 126.51 400.32, 0 402.18 M379.84 402.18 C236.39 402.98, 93.76 402.16, 0 402.18 M0 402.18 C1.33 247.14, 0.97 92.91, 0 0 M0 402.18 C-1.31 264.95, -1.36 126.57, 0 0" stroke="#000000" stroke-width="4" fill="none"></path></g><g stroke-linecap="round" transform="translate(2395.9400679202463 1081.190897315868) rotate(0 189.9201336828819 201.09190625246356)"><path d="M0 0 C88.73 -3.08, 180.28 -3.23, 379.84 0 M0 0 C119.37 -1.56, 239.42 -0.95, 379.84 0 M379.84 0 C380.01 151.85, 379.94 304.88, 379.84 402.18 M379.84 0 C379.06 137.98, 378.81 276.13, 379.84 402.18 M379.84 402.18 C296.31 404.1, 212.32 402.98, 0 402.18 M379.84 402.18 C260.43 403.55, 141.21 403.78, 0 402.18 M0 402.18 C-1.19 289.35, -1.15 176.39, 0 0 M0 402.18 C-0.52 275.69, -0.95 149.7, 0 0" stroke="#000000" stroke-width="4" fill="none"></path></g><g stroke-linecap="round" transform="translate(2775.7803352859646 1081.190897315868) rotate(0 189.9201336828819 201.09190625246356)"><path d="M0 0 C150.8 0.68, 299.75 2.8, 379.84 0 M0 0 C132.65 1.76, 266.71 1.43, 379.84 0 M379.84 0 C381.75 113.83, 381.65 225.34, 379.84 402.18 M379.84 0 C381.83 136.82, 381.2 273.47, 379.84 402.18 M379.84 402.18 C233.6 400.84, 85.7 401.38, 0 402.18 M379.84 402.18 C237.5 400.66, 94.02 401.23, 0 402.18 M0 402.18 C-0.41 289.38, -0.73 175.42, 0 0 M0 402.18 C-0.77 252.31, -0.48 102.5, 0 0" stroke="#000000" stroke-width="4" fill="none"></path></g><g stroke-linecap="round" transform="translate(3148.1727542720528 1081.190897315868) rotate(0 189.9201336828819 201.09190625246356)"><path d="M0 0 C84.8 3.09, 169.83 0.91, 379.84 0 M0 0 C88.46 -0.89, 175.88 -0.41, 379.84 0 M379.84 0 C381.51 114.31, 381.47 230.74, 379.84 402.18 M379.84 0 C380.18 118.32, 381.11 236.86, 379.84 402.18 M379.84 402.18 C268.48 399.25, 157.67 400.23, 0 402.18 M379.84 402.18 C288.79 402.08, 197.85 401.89, 0 402.18 M0 402.18 C-0.8 266.66, -0.14 130.74, 0 0 M0 402.18 C1.24 304.39, 0.92 206.77, 0 0" stroke="#000000" stroke-width="4" fill="none"></path></g><g stroke-linecap="round" transform="translate(3528.013021637793 1081.190897315868) rotate(0 189.9201336828819 201.09190625246356)"><path d="M0 0 C80.46 -3.12, 158.89 -2.92, 379.84 0 M379.84 0 C381.39 134.67, 381.44 268.62, 379.84 402.18 M379.84 402.18 C237.44 401.9, 94.02 401.36, 0 402.18 M0 402.18 C2.76 274.5, 1.7 146.39, 0 0" stroke="#000000" stroke-width="4.5" fill="none" stroke-dasharray="1.5 10"></path></g><g transform="translate(172.5292393231557 1232.1440410461837) rotate(0 133.10833740234375 63.46079649739568)"><text x="0" y="0" font-family="Virgil, Segoe UI Emoji" font-size="99.34107256957051px" fill="#000000" text-anchor="start" style="white-space: pre;" direction="ltr" dominant-baseline="text-before-edge">WAL0</text></g><g transform="translate(545.6233638279427 1224.4367159607245) rotate(0 112.46666717529297 63.46079649739568)"><text x="0" y="0" font-family="Virgil, Segoe UI Emoji" font-size="99.34107256957051px" fill="#000000" text-anchor="start" style="white-space: pre;" direction="ltr" dominant-baseline="text-before-edge">WAL1</text></g><g transform="translate(936.5258897413933 1224.4367159607173) rotate(0 134.2916717529297 63.46079649739568)"><text x="0" y="0" font-family="Virgil, Segoe UI Emoji" font-size="99.34107256957051px" fill="#000000" text-anchor="start" style="white-space: pre;" direction="ltr" dominant-baseline="text-before-edge">WAL2</text></g><g transform="translate(1308.5137773041952 1224.4367159607173) rotate(0 132.75833129882812 63.46079649739568)"><text x="0" y="0" font-family="Virgil, Segoe UI Emoji" font-size="99.34107256957051px" fill="#000000" text-anchor="start" style="white-space: pre;" direction="ltr" dominant-baseline="text-before-edge">WAL3</text></g><g transform="translate(1712.0260621180805 1211.8269570602824) rotate(0 130.73333740234375 63.46079649739568)"><text x="0" y="0" font-family="Virgil, Segoe UI Emoji" font-size="99.34107256957051px" fill="#000000" text-anchor="start" style="white-space: pre;" direction="ltr" dominant-baseline="text-before-edge">WAL4</text></g><g transform="translate(2084.013949680879 1224.4367159607173) rotate(0 129.64166259765625 63.46079649739568)"><text x="0" y="0" font-family="Virgil, Segoe UI Emoji" font-size="99.34107256957051px" fill="#000000" text-anchor="start" style="white-space: pre;" direction="ltr" dominant-baseline="text-before-edge">WAL5</text></g><g transform="translate(2456.0018372436843 1224.4367159607245) rotate(0 130.73333740234375 63.46079649739568)"><text x="0" y="0" font-family="Virgil, Segoe UI Emoji" font-size="99.34107256957051px" fill="#000000" text-anchor="start" style="white-space: pre;" direction="ltr" dominant-baseline="text-before-edge">WAL6</text></g><g transform="translate(2840.5994837069175 1224.4367159607173) rotate(0 125.68333435058594 63.46079649739568)"><text x="0" y="0" font-family="Virgil, Segoe UI Emoji" font-size="99.34107256957051px" fill="#000000" text-anchor="start" style="white-space: pre;" direction="ltr" dominant-baseline="text-before-edge">WAL7</text></g><g transform="translate(3206.282491819502 1218.1318365105071) rotate(0 136.9166717529297 63.46079649739568)"><text x="0" y="0" font-family="Virgil, Segoe UI Emoji" font-size="99.34107256957051px" fill="#000000" text-anchor="start" style="white-space: pre;" direction="ltr" dominant-baseline="text-before-edge">WAL8</text></g><g transform="translate(419.1666666666606 10) rotate(0 1523.425048828125 144.53986415331565)"><text x="0" y="0" font-family="Virgil, Segoe UI Emoji" font-size="231.26378264530516px" fill="#1e1e1e" text-anchor="start" style="white-space: pre;" direction="ltr" dominant-baseline="text-before-edge">Creating WAL segment file.</text></g><g stroke-linecap="round" transform="translate(86.57127214471984 1995.1238795892332) rotate(0 189.9201336828819 201.09190625246356)"><path d="M0 0 C152.01 1.11, 302.24 2.78, 379.84 0 M0 0 C148.66 -1.54, 297.61 -1.92, 379.84 0 M379.84 0 C379.57 131.96, 380.17 262.07, 379.84 402.18 M379.84 0 C377.55 140.34, 377.85 280.64, 379.84 402.18 M379.84 402.18 C269.12 401.07, 159.99 400.91, 0 402.18 M379.84 402.18 C254.86 400.79, 129.35 401.25, 0 402.18 M0 402.18 C-2.47 314.4, -0.87 227.59, 0 0 M0 402.18 C1.51 293.86, 1.32 185.89, 0 0" stroke="#000000" stroke-width="4" fill="none"></path></g><g stroke-linecap="round" transform="translate(466.41153951040906 1995.1238795892332) rotate(0 189.9201336828819 201.09190625246356)"><path d="M0 0 C83.71 2.24, 170.54 0.7, 379.84 0 M0 0 C141.09 -0.64, 282.53 -0.36, 379.84 0 M379.84 0 C379.65 96.06, 379.87 191.16, 379.84 402.18 M379.84 0 C379.6 154.49, 379.35 309.88, 379.84 402.18 M379.84 402.18 C278.25 400.96, 177.17 400.64, 0 402.18 M379.84 402.18 C285.61 401.74, 191.6 401.94, 0 402.18 M0 402.18 C2.31 311.34, 1.04 218.05, 0 0 M0 402.18 C-0.95 246.14, -1.43 90.41, 0 0" stroke="#000000" stroke-width="4" fill="none"></path></g><g stroke-linecap="round" transform="translate(846.7638464522897 1995.1238795892332) rotate(0 189.9201336828819 201.09190625246356)"><path d="M0 0 C94.78 -2.45, 188.22 -2.34, 379.84 0 M0 0 C120.12 1.06, 239.57 0.93, 379.84 0 M379.84 0 C381.08 151.49, 381.48 304.93, 379.84 402.18 M379.84 0 C380.56 108.33, 380.44 215.99, 379.84 402.18 M379.84 402.18 C277.91 400.35, 174.64 401.37, 0 402.18 M379.84 402.18 C277.38 403.69, 175.47 402.85, 0 402.18 M0 402.18 C-2.19 282.06, -0.85 163.7, 0 0 M0 402.18 C-0.67 294.61, -0.2 185.88, 0 0" stroke="#000000" stroke-width="4" fill="none"></path></g><g stroke-linecap="round" transform="translate(1226.6041138181536 1995.1238795892332) rotate(0 189.9201336828819 201.09190625246356)"><path d="M0 0 C147.13 0.58, 292.72 0.78, 379.84 0 M0 0 C95.81 -0.13, 192.84 0.19, 379.84 0 M379.84 0 C381.92 118.15, 380.61 237.13, 379.84 402.18 M379.84 0 C379.41 93.02, 379.42 186.78, 379.84 402.18 M379.84 402.18 C281.88 400.78, 184.81 399.88, 0 402.18 M379.84 402.18 C248.29 403.61, 117.59 404.47, 0 402.18 M0 402.18 C1.7 249.59, 0.35 96.12, 0 0 M0 402.18 C1.72 280.48, 2.18 160.05, 0 0" stroke="#000000" stroke-width="4" fill="none"></path></g><g stroke-linecap="round" transform="translate(1610.1683053737033 1995.1238795892332) rotate(0 189.9201336828819 201.09190625246356)"><path d="M0 0 C97.89 0.56, 194.83 1.07, 379.84 0 M0 0 C114.3 0.71, 227.62 0.83, 379.84 0 M379.84 0 C381.42 82.3, 381 163.7, 379.84 402.18 M379.84 0 C378.93 130.29, 378.85 260.81, 379.84 402.18 M379.84 402.18 C292.05 401.82, 205.56 401.55, 0 402.18 M379.84 402.18 C235.97 401.27, 92.62 400.6, 0 402.18 M0 402.18 C-2.35 304.07, -1.98 204.87, 0 0 M0 402.18 C0.32 257.87, -0.72 112.43, 0 0" stroke="#000000" stroke-width="4" fill="none"></path></g><g stroke-linecap="round" transform="translate(1990.0085727395053 1995.1238795892332) rotate(0 189.9201336828819 201.09190625246356)"><path d="M0 0 C100.78 0.68, 202.68 -0.36, 379.84 0 M0 0 C105.07 -0.39, 209.63 -0.18, 379.84 0 M379.84 0 C378.38 112.86, 379.41 225.59, 379.84 402.18 M379.84 0 C378.9 92.88, 378.75 185.13, 379.84 402.18 M379.84 402.18 C260.56 399.84, 141.14 399.96, 0 402.18 M379.84 402.18 C289.7 403.85, 198.25 404.57, 0 402.18 M0 402.18 C0.73 262.73, 1.39 125.03, 0 0 M0 402.18 C-2.59 315.38, -2.27 229.93, 0 0" stroke="#000000" stroke-width="4" fill="none"></path></g><g stroke-linecap="round" transform="translate(2369.8488401052964 1995.1238795892332) rotate(0 189.9201336828819 201.09190625246356)"><path d="M0 0 C107.82 -1.32, 215.37 0.36, 379.84 0 M0 0 C124.86 -0.62, 250.77 -1.31, 379.84 0 M379.84 0 C378.58 134.19, 377.52 268.77, 379.84 402.18 M379.84 0 C378.46 117.75, 378.94 235.93, 379.84 402.18 M379.84 402.18 C289.47 399.46, 196.46 400.28, 0 402.18 M379.84 402.18 C234.68 402, 90.46 401.28, 0 402.18 M0 402.18 C0.64 277.17, -0.99 153, 0 0 M0 402.18 C1.92 259.27, 2.32 116.02, 0 0" stroke="#000000" stroke-width="4" fill="none"></path></g><g stroke-linecap="round" transform="translate(2749.6891074710147 1995.1238795892332) rotate(0 189.9201336828819 201.09190625246356)"><path d="M0 0 C123.5 2.34, 247.93 1.32, 379.84 0 M0 0 C132.59 -2.13, 265.62 -2.35, 379.84 0 M379.84 0 C379.6 116, 380.31 232.2, 379.84 402.18 M379.84 0 C378.35 132.25, 377.92 265.11, 379.84 402.18 M379.84 402.18 C296.23 400.51, 215.06 401.51, 0 402.18 M379.84 402.18 C277.97 404, 175.63 404.2, 0 402.18 M0 402.18 C-2.31 312.19, -0.72 219.08, 0 0 M0 402.18 C1.01 317.58, 0.98 232.64, 0 0" stroke="#000000" stroke-width="4" fill="none"></path></g><g stroke-linecap="round" transform="translate(3122.081526457103 1995.1238795892332) rotate(0 189.9201336828819 201.09190625246356)"><path d="M0 0 C91.15 -1.88, 182.16 -2.97, 379.84 0 M0 0 C146.47 0.3, 292.47 0.85, 379.84 0 M379.84 0 C378.19 106.99, 378.6 214.17, 379.84 402.18 M379.84 0 C379.85 99.65, 379.73 199.23, 379.84 402.18 M379.84 402.18 C294.16 403.09, 206.15 401.45, 0 402.18 M379.84 402.18 C232.52 401.47, 84.63 401.82, 0 402.18 M0 402.18 C2.57 277.14, 0.93 153.79, 0 0 M0 402.18 C-0.61 256.91, -0.32 111.08, 0 0" stroke="#000000" stroke-width="4" fill="none"></path></g><g stroke-linecap="round" transform="translate(3501.921793822843 1995.1238795892332) rotate(0 189.9201336828819 201.09190625246356)"><path d="M0 0 C144.69 -1.03, 289.22 -0.1, 379.84 0 M0 0 C102.12 1.69, 204.16 1.13, 379.84 0 M379.84 0 C380.02 107.51, 379.1 216.78, 379.84 402.18 M379.84 0 C378.03 108.41, 378.09 215.59, 379.84 402.18 M379.84 402.18 C266.61 403.35, 155.19 404.56, 0 402.18 M379.84 402.18 C277.48 402.57, 176.06 401.7, 0 402.18 M0 402.18 C-2.27 244.5, -0.57 88.02, 0 0 M0 402.18 C-0.19 255.28, -0.48 107.74, 0 0" stroke="#000000" stroke-width="4" fill="none"></path></g><g transform="translate(146.43801150820582 2146.077023319549) rotate(0 133.10833740234375 63.46079649739568)"><text x="0" y="0" font-family="Virgil, Segoe UI Emoji" font-size="99.34107256957051px" fill="#000000" text-anchor="start" style="white-space: pre;" direction="ltr" dominant-baseline="text-before-edge">WAL0</text></g><g transform="translate(519.5321360129929 2138.36969823409) rotate(0 112.46666717529297 63.46079649739568)"><text x="0" y="0" font-family="Virgil, Segoe UI Emoji" font-size="99.34107256957051px" fill="#000000" text-anchor="start" style="white-space: pre;" direction="ltr" dominant-baseline="text-before-edge">WAL1</text></g><g transform="translate(910.4346619264434 2138.3696982340825) rotate(0 134.2916717529297 63.46079649739568)"><text x="0" y="0" font-family="Virgil, Segoe UI Emoji" font-size="99.34107256957051px" fill="#000000" text-anchor="start" style="white-space: pre;" direction="ltr" dominant-baseline="text-before-edge">WAL2</text></g><g transform="translate(1282.4225494892453 2138.3696982340825) rotate(0 132.75833129882812 63.46079649739568)"><text x="0" y="0" font-family="Virgil, Segoe UI Emoji" font-size="99.34107256957051px" fill="#000000" text-anchor="start" style="white-space: pre;" direction="ltr" dominant-baseline="text-before-edge">WAL3</text></g><g transform="translate(1685.9348343031306 2125.7599393336477) rotate(0 130.73333740234375 63.46079649739568)"><text x="0" y="0" font-family="Virgil, Segoe UI Emoji" font-size="99.34107256957051px" fill="#000000" text-anchor="start" style="white-space: pre;" direction="ltr" dominant-baseline="text-before-edge">WAL4</text></g><g transform="translate(2057.922721865929 2138.3696982340825) rotate(0 129.64166259765625 63.46079649739568)"><text x="0" y="0" font-family="Virgil, Segoe UI Emoji" font-size="99.34107256957051px" fill="#000000" text-anchor="start" style="white-space: pre;" direction="ltr" dominant-baseline="text-before-edge">WAL5</text></g><g transform="translate(2429.9106094287345 2138.36969823409) rotate(0 130.73333740234375 63.46079649739568)"><text x="0" y="0" font-family="Virgil, Segoe UI Emoji" font-size="99.34107256957051px" fill="#000000" text-anchor="start" style="white-space: pre;" direction="ltr" dominant-baseline="text-before-edge">WAL6</text></g><g transform="translate(2814.5082558919676 2138.3696982340825) rotate(0 125.68333435058594 63.46079649739568)"><text x="0" y="0" font-family="Virgil, Segoe UI Emoji" font-size="99.34107256957051px" fill="#000000" text-anchor="start" style="white-space: pre;" direction="ltr" dominant-baseline="text-before-edge">WAL7</text></g><g transform="translate(3180.191264004552 2132.0648187838724) rotate(0 136.9166717529297 63.46079649739568)"><text x="0" y="0" font-family="Virgil, Segoe UI Emoji" font-size="99.34107256957051px" fill="#000000" text-anchor="start" style="white-space: pre;" direction="ltr" dominant-baseline="text-before-edge">WAL8</text></g><g transform="translate(3558.4840310175714 2132.064818783865) rotate(0 129.19166564941406 63.46079649739568)"><text x="0" y="0" font-family="Virgil, Segoe UI Emoji" font-size="99.34107256957051px" fill="#000000" text-anchor="start" style="white-space: pre;" direction="ltr" dominant-baseline="text-before-edge">WAL9</text></g><g stroke-linecap="round"><g transform="translate(3314.1666666666606 706.2157858416958) rotate(0 -0.804469534290547 115.64922251913868)"><path d="M-0.26 -0.07 C-0.53 38.55, -1.33 192.8, -1.58 231.41 M0.17 -0.37 C-0.13 38.3, -1.42 192.96, -1.78 231.67" stroke="#1e1e1e" stroke-width="4" fill="none"></path></g><g transform="translate(3314.1666666666606 706.2157858416958) rotate(0 -0.804469534290547 115.64922251913868)"><path d="M-11.92 203.55 C-9.28 211.94, -5.89 221.14, -2.14 231.43 M-11.57 203.36 C-8.81 211.9, -5.99 219.94, -1.52 231.73" stroke="#1e1e1e" stroke-width="4" fill="none"></path></g><g transform="translate(3314.1666666666606 706.2157858416958) rotate(0 -0.804469534290547 115.64922251913868)"><path d="M8.6 203.73 C4.92 212.01, 1.99 221.16, -2.14 231.43 M8.96 203.54 C5.69 212.08, 2.49 220.07, -1.52 231.73" stroke="#1e1e1e" stroke-width="4" fill="none"></path></g></g><mask></mask><g transform="translate(3359.1666666666606 698.7157858416958) rotate(0 124.01667022705078 83.43837897563844)"><text x="0" y="0" font-family="Virgil, Segoe UI Emoji" font-size="133.50140636102162px" fill="#1971c2" text-anchor="start" style="white-space: pre;" direction="ltr" dominant-baseline="text-before-edge">LSN</text></g><g stroke-linecap="round"><g transform="translate(3724.8323576049206 1632.4651311267316) rotate(0 -0.6833408048696583 115.88062842412819)"><path d="M-0.25 0.06 C-0.44 38.67, -1.16 193.01, -1.43 231.59 M0.19 -0.18 C-0.01 38.48, -1.31 193.27, -1.55 231.94" stroke="#1e1e1e" stroke-width="4" fill="none"></path></g><g transform="translate(3724.8323576049206 1632.4651311267316) rotate(0 -0.6833408048696583 115.88062842412819)"><path d="M-11.49 204.12 C-9.6 209.36, -7.51 215.32, -1.96 231.97 M-11.7 203.51 C-9.39 209.21, -7.48 215.08, -1.78 232.16" stroke="#1e1e1e" stroke-width="4" fill="none"></path></g><g transform="translate(3724.8323576049206 1632.4651311267316) rotate(0 -0.6833408048696583 115.88062842412819)"><path d="M9.03 204.27 C6.49 209.44, 4.15 215.36, -1.96 231.97 M8.82 203.66 C6.95 209.32, 4.69 215.16, -1.78 232.16" stroke="#1e1e1e" stroke-width="4" fill="none"></path></g></g><mask></mask><g transform="translate(3769.8323576049206 1624.9651311267316) rotate(0 124.01667022705078 83.43837897563844)"><text x="0" y="0" font-family="Virgil, Segoe UI Emoji" font-size="133.50140636102162px" fill="#1971c2" text-anchor="start" style="white-space: pre;" direction="ltr" dominant-baseline="text-before-edge">LSN</text></g><g transform="translate(3996.6666666666642 2094.5491191750352) rotate(0 769.2833251953125 86.66666666666697)"><text x="0" y="0" font-family="Virgil, Segoe UI Emoji" font-size="138.66666666666714px" fill="#1971c2" text-anchor="start" style="white-space: pre;" direction="ltr" dominant-baseline="text-before-edge">WAL9 &lt; max_wal_size</text></g><g transform="translate(45 2662.882452508369) rotate(0 2015.425048828125 210)"><text x="0" y="0" font-family="Virgil, Segoe UI Emoji" font-size="112.00000000000017px" fill="#1e1e1e" text-anchor="start" style="white-space: pre;" direction="ltr" dominant-baseline="text-before-edge">If more WAL segment files are required due to a spike in WAL activity, </text><text x="0" y="140.00000000000023" font-family="Virgil, Segoe UI Emoji" font-size="112.00000000000017px" fill="#1e1e1e" text-anchor="start" style="white-space: pre;" direction="ltr" dominant-baseline="text-before-edge">new WAL segment files will be created while the total size of the WAL </text><text x="0" y="280.00000000000045" font-family="Virgil, Segoe UI Emoji" font-size="112.00000000000017px" fill="#1e1e1e" text-anchor="start" style="white-space: pre;" direction="ltr" dominant-baseline="text-before-edge">segment files is less than the                  parameter.</text></g><g transform="translate(1820 2952.882452508369) rotate(0 402.1666564941406 72.5)"><text x="0" y="0" font-family="Virgil, Segoe UI Emoji" font-size="116.00000000000014px" fill="#f08c00" text-anchor="start" style="white-space: pre;" direction="ltr" dominant-baseline="text-before-edge">max_wal_size</text></g><g transform="translate(10 3352.882452508369) rotate(0 1801.949951171875 155.0000000000009)"><text x="0" y="0" font-family="Virgil, Segoe UI Emoji" font-size="124.00000000000067px" fill="#1e1e1e" text-anchor="start" style="white-space: pre;" direction="ltr" dominant-baseline="text-before-edge">If the total size of the WAL segment files exceeds the  </text><text x="0" y="155.00000000000082" font-family="Virgil, Segoe UI Emoji" font-size="124.00000000000067px" fill="#1e1e1e" text-anchor="start" style="white-space: pre;" direction="ltr" dominant-baseline="text-before-edge">parameter, a                will be started.</text></g><g transform="translate(835 3507.882452508369) rotate(0 455.42498779296875 87.5)"><text x="0" y="0" font-family="Virgil, Segoe UI Emoji" font-size="139.99999999999937px" fill="#1971c2" text-anchor="start" style="white-space: pre;" direction="ltr" dominant-baseline="text-before-edge">CHECKPOINT</text></g><g transform="translate(3550 3332.882452508369) rotate(0 506.1916809082031 91.71742989151608)"><text x="0" y="0" font-family="Virgil, Segoe UI Emoji" font-size="146.7478878264258px" fill="#f08c00" text-anchor="start" style="white-space: pre;" direction="ltr" dominant-baseline="text-before-edge">max_wal_size</text></g></svg>