<svg version="1.1" xmlns="http://www.w3.org/2000/svg" viewBox="0 0 1436.088051123581 1647.7696078431327" width="1436.088051123581" height="1647.7696078431327">
  <!-- svg-source:excalidraw -->
  
  <defs>
    <style class="style-fonts">
      @font-face {
        font-family: "Virgil";
        src: url("https://excalidraw.com/Virgil.woff2");
      }
      @font-face {
        font-family: "Cascadia";
        src: url("https://excalidraw.com/Cascadia.woff2");
      }
    </style>
    
  </defs>
  <g transform="translate(443.75831150086015 10) rotate(0 230.11111111111313 76.13970588235316)"><text x="0" y="0" font-family="Virgil, Segoe UI Emoji" font-size="121.82352941176595px" fill="#1e1e1e" text-anchor="start" style="white-space: pre;" direction="ltr" dominant-baseline="text-before-edge">Failover</text></g><g stroke-linecap="round"><g transform="translate(118.05699917016318 893.2373110412518) rotate(0 145.916004800858 137.49481042399384)" fill-rule="evenodd"><path d="M0.44 -1.62 C0.51 37.35, -2.13 187.87, -1.16 234.12 C-0.19 280.36, -0.92 266.03, 6.27 275.84 C13.46 285.65, 27.2 288.09, 41.98 292.99 C56.76 297.89, 76.81 303.05, 94.94 305.26 C113.08 307.47, 133.88 306.6, 150.78 306.26 C167.68 305.92, 181.47 305.22, 196.33 303.23 C211.19 301.24, 224.65 299, 239.93 294.32 C255.22 289.63, 279.85 284.87, 288.01 275.12 C296.18 265.37, 288.51 276.52, 288.93 235.83 C289.36 195.13, 290.88 70.7, 290.58 30.95 C290.28 -8.79, 293.84 5.49, 287.12 -2.63 C280.39 -10.75, 262.98 -13.43, 250.25 -17.77 C237.52 -22.11, 226.01 -26.02, 210.71 -28.67 C195.41 -31.33, 172.95 -33.61, 158.45 -33.71 C143.95 -33.8, 141.08 -30.42, 123.73 -29.23 C106.37 -28.05, 75 -31.55, 54.32 -26.58 C33.65 -21.62, 8.64 -3.63, -0.34 0.55" stroke="none" stroke-width="0" fill="#40c057" fill-rule="evenodd"></path><path d="M0.15 1.11 C0.34 39.82, -0.59 187.38, 0.15 233.43 C0.89 279.47, -1.93 267.64, 4.6 277.38 C11.14 287.13, 24.53 287.29, 39.36 291.89 C54.2 296.49, 75.32 302.36, 93.6 304.97 C111.87 307.58, 131.95 307.65, 149.01 307.55 C166.07 307.45, 180.58 305.99, 195.95 304.38 C211.33 302.76, 226.11 302.87, 241.28 297.86 C256.45 292.85, 278.73 284.93, 286.97 274.31 C295.22 263.7, 290.01 274.58, 290.76 234.19 C291.51 193.8, 291.68 71.33, 291.47 31.99 C291.27 -7.36, 296.24 6.67, 289.55 -1.88 C282.87 -10.43, 264.32 -14.74, 251.38 -19.33 C238.43 -23.91, 227.48 -27.31, 211.88 -29.4 C196.27 -31.48, 172.26 -31.46, 157.75 -31.83 C143.23 -32.2, 142.24 -32.74, 124.81 -31.62 C107.39 -30.51, 73.97 -30.46, 53.21 -25.12 C32.44 -19.78, 9.04 -3.72, 0.23 0.41 M-1.22 0.64 C-1.1 40, -1.52 188.71, -0.72 234.51 C0.07 280.3, -3.07 265.7, 3.57 275.42 C10.21 285.14, 24.3 287.79, 39.12 292.81 C53.93 297.84, 73.91 303.31, 92.45 305.58 C110.98 307.85, 133.08 306.86, 150.34 306.42 C167.59 305.98, 180.45 304.33, 195.97 302.94 C211.49 301.56, 228.58 302.58, 243.47 298.13 C258.35 293.67, 277.21 286.97, 285.28 276.23 C293.35 265.49, 290.89 274.22, 291.88 233.68 C292.88 193.15, 291.81 72.42, 291.25 33.01 C290.69 -6.39, 295.23 5.56, 288.53 -2.76 C281.82 -11.07, 263.91 -12.33, 251.04 -16.88 C238.17 -21.42, 226.86 -27.42, 211.29 -30.04 C195.73 -32.65, 171.88 -32.5, 157.62 -32.58 C143.37 -32.66, 143.4 -31.86, 125.78 -30.5 C108.17 -29.14, 73.06 -29.65, 51.94 -24.41 C30.82 -19.16, 7.86 -3.04, -0.94 0.99" stroke="#2b8a3e" stroke-width="4" fill="none"></path></g></g><mask></mask><g stroke-linecap="round" transform="translate(116.98001100578404 857.6949745772727) rotate(0 145.99633415726385 39.695655602788975)"><path d="M147.15 0.75 C163.87 -0.01, 183.9 0.82, 200.34 2.41 C216.78 4, 233.12 6.83, 245.8 10.29 C258.48 13.74, 268.71 18.7, 276.45 23.12 C284.18 27.54, 290.73 32.18, 292.23 36.8 C293.72 41.43, 290.53 46.49, 285.41 50.89 C280.29 55.28, 272.1 59.28, 261.51 63.17 C250.92 67.07, 236.8 71.77, 221.89 74.27 C206.97 76.77, 189.42 77.43, 172 78.17 C154.58 78.91, 134.48 79.4, 117.37 78.71 C100.26 78.01, 84.1 76.65, 69.33 73.98 C54.57 71.31, 39.35 66.63, 28.77 62.68 C18.19 58.73, 10.65 54.86, 5.88 50.28 C1.1 45.69, -1.65 39.75, 0.13 35.16 C1.9 30.57, 8.51 27.03, 16.54 22.74 C24.56 18.45, 35.42 12.75, 48.26 9.43 C61.09 6.1, 75.8 4.42, 93.54 2.78 C111.29 1.15, 143.37 0.05, 154.72 -0.4 C166.06 -0.85, 161.88 -0.8, 161.61 0.08 M187.07 2.41 C203.62 3.09, 220.51 4.81, 234.48 7.56 C248.44 10.31, 261.71 14.63, 270.87 18.94 C280.02 23.25, 286.4 28.58, 289.4 33.43 C292.4 38.28, 292.35 43.42, 288.87 48.06 C285.4 52.71, 278.09 57.42, 268.54 61.31 C258.99 65.19, 245.46 68.68, 231.55 71.37 C217.65 74.07, 201.83 76.36, 185.09 77.47 C168.36 78.59, 148.97 78.48, 131.14 78.07 C113.3 77.65, 93.73 77.09, 78.07 75 C62.41 72.91, 48.5 69.32, 37.18 65.55 C25.86 61.78, 16.21 56.9, 10.15 52.39 C4.09 47.87, 0.99 43.06, 0.81 38.45 C0.63 33.85, 2.5 29.3, 9.06 24.74 C15.63 20.18, 28.11 14.73, 40.19 11.09 C52.27 7.45, 66 4.76, 81.54 2.93 C97.09 1.1, 115.96 0.47, 133.48 0.11 C151.01 -0.26, 177.77 0.38, 186.69 0.75 C195.6 1.13, 187.59 1.38, 186.99 2.34" stroke="none" stroke-width="0" fill="#ffffff"></path><path d="M114.33 1.44 C130.11 -0.04, 151.19 -0.15, 168.59 0.33 C185.99 0.8, 203.57 2.02, 218.72 4.31 C233.87 6.59, 248.28 10.18, 259.5 14.06 C270.72 17.94, 280.76 22.82, 286.03 27.59 C291.31 32.36, 292.4 38.03, 291.16 42.66 C289.92 47.29, 285.83 51.03, 278.61 55.39 C271.38 59.74, 260.52 65.45, 247.8 68.78 C235.09 72.1, 218.63 73.54, 202.33 75.33 C186.04 77.13, 167.6 79.38, 150.03 79.56 C132.46 79.74, 113.44 78.07, 96.91 76.43 C80.37 74.8, 64.1 72.76, 50.82 69.77 C37.54 66.78, 25.53 62.65, 17.24 58.49 C8.95 54.33, 3.16 49.5, 1.07 44.81 C-1.02 40.12, 0.48 35.11, 4.71 30.34 C8.95 25.56, 16.38 20.07, 26.48 16.15 C36.58 12.23, 49.92 9.47, 65.33 6.81 C80.73 4.15, 108.98 1.04, 118.91 0.18 C128.85 -0.67, 124.44 0.84, 124.93 1.68 M169.52 -0.42 C186.08 -0.53, 203.79 2.23, 218.62 4.53 C233.45 6.83, 247.29 9.5, 258.48 13.37 C269.67 17.25, 280.36 22.82, 285.78 27.78 C291.2 32.73, 292.4 38.46, 291.01 43.12 C289.61 47.78, 284.81 51.72, 277.39 55.73 C269.97 59.75, 259.14 63.73, 246.48 67.23 C233.82 70.74, 217.54 74.76, 201.42 76.77 C185.3 78.78, 167.13 79.46, 149.77 79.29 C132.41 79.12, 113.85 77.11, 97.24 75.75 C80.64 74.39, 63.37 74.17, 50.16 71.13 C36.95 68.09, 26.18 61.88, 17.97 57.5 C9.76 53.12, 3.09 49.62, 0.88 44.87 C-1.33 40.13, 0.51 33.79, 4.71 29.03 C8.9 24.27, 16.02 20.1, 26.03 16.33 C36.05 12.56, 49.77 8.8, 64.77 6.44 C79.76 4.07, 98.76 3.01, 116 2.13 C133.23 1.25, 159.43 1.16, 168.17 1.15 C176.9 1.13, 168.5 1.71, 168.42 2.04" stroke="#2b8a3e" stroke-width="4" fill="none"></path></g><g transform="translate(97.54830078064697 1202.70736311558) rotate(0 164.3930261146652 36.047421316581676)"><text x="164.39302611466601" y="0" font-family="Virgil, Segoe UI Emoji" font-size="57.67587410653197px" fill="#000000" text-anchor="middle" style="white-space: pre;" direction="ltr" dominant-baseline="text-before-edge">Database 1</text></g><g stroke-linecap="round"><g transform="translate(247.09082697081612 451.87154644437396) rotate(0 0.10423031479695055 -32.039467719350796)" fill-rule="evenodd"><path d="M-1.75 -0.75 C4.19 -0.54, 29.76 6.04, 36.1 -0.5 C42.43 -7.03, 37.93 -30.79, 36.28 -39.96 C34.63 -49.13, 31.85 -51.13, 26.22 -55.53 C20.59 -59.93, 11.47 -66.47, 2.5 -66.38 C-6.46 -66.29, -21.33 -59.46, -27.57 -55.01 C-33.81 -50.55, -33.29 -48.79, -34.95 -39.65 C-36.6 -30.51, -43.52 -6.65, -37.5 -0.18 C-31.49 6.29, -5.39 -0.98, 1.14 -0.82" stroke="none" stroke-width="0" fill="#4c6ef5" fill-rule="evenodd"></path><path d="M-0.94 -0.34 C5.31 -0.39, 30.77 7.03, 36.95 0.43 C43.14 -6.18, 38.24 -30.49, 36.18 -39.99 C34.11 -49.48, 30.43 -52.43, 24.56 -56.53 C18.69 -60.63, 9.38 -64.68, 0.95 -64.58 C-7.48 -64.48, -20.08 -60.35, -26.02 -55.94 C-31.97 -51.53, -32.81 -47.47, -34.71 -38.13 C-36.6 -28.79, -43.29 -6.14, -37.38 0.08 C-31.47 6.29, -5.31 -0.72, 0.73 -0.86 M0.77 -1.57 C6.95 -2.05, 30.56 4.73, 36.32 -1.47 C42.08 -7.67, 37.35 -29.75, 35.33 -38.76 C33.3 -47.77, 29.62 -50.77, 24.18 -55.52 C18.74 -60.27, 10.83 -67.55, 2.69 -67.25 C-5.44 -66.94, -18.56 -58.3, -24.63 -53.68 C-30.7 -49.06, -31.93 -48.44, -33.71 -39.53 C-35.48 -30.62, -40.81 -6.97, -35.29 -0.22 C-29.76 6.52, -6.29 1.19, -0.55 0.97" stroke="#000000" stroke-width="2" fill="none"></path></g></g><mask></mask><g stroke-linecap="round" transform="translate(198.0456129382801 413.7738869651221) rotate(0 48.827540760648844 32.55169384043256)"><path d="M-1.39 -1.32 L95.85 0.67 L96.89 65 L-0.13 63.27" stroke="none" stroke-width="0" fill="#ced4da"></path><path d="M0 0 C22.36 -0.77, 43.02 -2.48, 97.66 0 M0 0 C27.88 -1.5, 56.39 -1.02, 97.66 0 M97.66 0 C96.26 12.11, 96.47 28.2, 97.66 65.1 M97.66 0 C97.09 14.69, 97.16 29.73, 97.66 65.1 M97.66 65.1 C65.97 64.09, 35.54 65.74, 0 65.1 M97.66 65.1 C75.31 64.7, 52.71 65.34, 0 65.1 M0 65.1 C-1.38 39.71, -1.27 13.85, 0 0 M0 65.1 C-0.73 52.57, -1.05 38.4, 0 0" stroke="#000000" stroke-width="2" fill="none"></path></g><g stroke-linecap="round" transform="translate(241.4519277708605 440.90435487749346) rotate(0 5.421225928061176 5.421225928061176)"><path d="M5.54 0.08 C6.65 0.01, 7.9 0.49, 8.78 1.23 C9.65 1.96, 10.59 3.35, 10.79 4.48 C11 5.61, 10.61 7.02, 10.02 8.01 C9.43 9, 8.33 9.99, 7.26 10.43 C6.18 10.87, 4.64 11.03, 3.58 10.65 C2.51 10.26, 1.45 9.13, 0.88 8.12 C0.31 7.1, -0.03 5.66, 0.15 4.55 C0.34 3.43, 1.15 2.2, 2 1.45 C2.86 0.69, 4.72 0.25, 5.28 0.03 C5.84 -0.19, 5.34 0.01, 5.38 0.11 M5.48 0.22 C6.55 0.12, 8.04 0.45, 8.96 1.22 C9.89 1.98, 10.82 3.69, 11.02 4.83 C11.22 5.97, 10.82 7.13, 10.18 8.06 C9.53 9, 8.31 10.05, 7.16 10.44 C6.01 10.83, 4.32 10.8, 3.27 10.39 C2.21 9.98, 1.38 9.05, 0.83 7.99 C0.28 6.94, -0.24 5.18, -0.04 4.08 C0.17 2.98, 1.1 2.09, 2.06 1.4 C3.03 0.71, 5.19 0.14, 5.74 -0.06 C6.29 -0.25, 5.41 0.17, 5.38 0.24" stroke="none" stroke-width="0" fill="#ffffff"></path><path d="M5.13 0.01 C6.21 -0.11, 7.53 0.44, 8.45 1.09 C9.37 1.73, 10.33 2.77, 10.65 3.89 C10.96 5.01, 10.85 6.78, 10.34 7.83 C9.83 8.88, 8.65 9.71, 7.57 10.19 C6.5 10.67, 5.02 10.98, 3.9 10.68 C2.78 10.39, 1.5 9.36, 0.85 8.39 C0.2 7.43, -0.15 6.05, -0.03 4.91 C0.09 3.78, 0.73 2.38, 1.57 1.57 C2.4 0.76, 4.4 0.28, 4.99 0.05 C5.58 -0.18, 5.1 0.1, 5.1 0.17 M5.35 -0.02 C6.47 -0.06, 8.13 0.44, 9.06 1.21 C9.99 1.98, 10.74 3.43, 10.94 4.61 C11.15 5.78, 10.89 7.29, 10.29 8.25 C9.7 9.21, 8.54 10.03, 7.4 10.38 C6.25 10.73, 4.59 10.79, 3.44 10.36 C2.28 9.94, 1.02 8.83, 0.47 7.84 C-0.07 6.86, -0.04 5.52, 0.19 4.45 C0.42 3.37, 1.01 2.15, 1.85 1.4 C2.7 0.64, 4.7 0.14, 5.27 -0.1 C5.84 -0.34, 5.3 -0.18, 5.29 -0.06" stroke="#000000" stroke-width="2" fill="none"></path></g><g stroke-linecap="round"><g transform="translate(197.7153387163853 473.4265397957497) rotate(0 49.54251431692137 3.76702020036646)" fill-rule="evenodd"><path d="M-0.12 -0.23 C-1.09 0.24, -7.09 1.25, -6.66 2.49 C-6.23 3.74, -14.61 6.24, 2.46 7.23 C19.54 8.22, 78.93 9.03, 95.8 8.44 C112.67 7.85, 103.36 5.44, 103.66 3.71 C103.96 1.97, 114.97 -1.33, 97.6 -1.96 C80.23 -2.59, 15.63 -0.35, -0.55 -0.08" stroke="none" stroke-width="0" fill="#ced4da" fill-rule="evenodd"></path><path d="M-0.17 -0.02 C-1.29 0.43, -7.15 1.6, -6.75 2.73 C-6.35 3.85, -14.81 5.74, 2.24 6.74 C19.29 7.74, 78.56 9.25, 95.57 8.73 C112.57 8.2, 103.94 5.27, 104.26 3.6 C104.58 1.92, 114.9 -0.7, 97.5 -1.32 C80.1 -1.94, 16.09 -0.3, -0.16 -0.11 M0.05 -0.18 C-1.01 0.23, -6.78 1.33, -6.43 2.51 C-6.08 3.69, -14.89 5.82, 2.13 6.88 C19.14 7.94, 78.59 9.41, 95.65 8.88 C112.71 8.34, 104.23 5.31, 104.49 3.66 C104.76 2.01, 114.67 -0.43, 97.23 -1.01 C79.79 -1.59, 16.08 0.04, -0.14 0.17" stroke="#000000" stroke-width="2" fill="none"></path></g></g><mask></mask><g stroke-linecap="round" transform="translate(214.90365082400967 326.42699414778326) rotate(0 32.55169384043256 32.55169384043256)"><path d="M35.12 -0.35 C41.28 -0.04, 48.81 4.49, 53.81 8.71 C58.8 12.93, 63.55 18.85, 65.08 24.98 C66.61 31.11, 65.51 39.43, 62.97 45.49 C60.42 51.56, 55.52 58.11, 49.84 61.39 C44.16 64.67, 35.38 65.86, 28.87 65.15 C22.35 64.44, 15.31 61.23, 10.77 57.13 C6.23 53.03, 2.94 46.63, 1.63 40.54 C0.32 34.45, 0.42 26.63, 2.92 20.59 C5.42 14.55, 10.33 7.63, 16.63 4.3 C22.92 0.97, 36.24 0.71, 40.69 0.6 C45.14 0.5, 43.46 3.01, 43.33 3.67 M19.22 2.05 C24.8 -0.55, 35.07 -0.43, 41.27 0.89 C47.48 2.2, 52.5 4.88, 56.47 9.96 C60.43 15.04, 64.26 24.83, 65.06 31.39 C65.85 37.94, 64.8 43.93, 61.26 49.27 C57.72 54.61, 49.9 61.09, 43.82 63.44 C37.74 65.78, 30.97 64.75, 24.8 63.33 C18.62 61.92, 10.67 59.65, 6.79 54.94 C2.91 50.23, 2.02 41.76, 1.5 35.06 C0.97 28.37, 0.5 20.16, 3.65 14.78 C6.81 9.4, 17.75 4.8, 20.42 2.79 C23.1 0.78, 19.78 2.43, 19.7 2.73" stroke="none" stroke-width="0" fill="#ffffff"></path><path d="M31.97 -0.86 C38.13 -1.38, 46.24 2.88, 51.35 6.54 C56.46 10.21, 60.69 15.16, 62.64 21.12 C64.59 27.09, 64.92 36.2, 63.05 42.33 C61.17 48.46, 56.42 54.1, 51.37 57.88 C46.32 61.66, 39.03 64.79, 32.74 65 C26.45 65.21, 18.79 62.77, 13.62 59.15 C8.44 55.53, 3.66 49.25, 1.69 43.27 C-0.28 37.29, -0.06 29.48, 1.78 23.25 C3.63 17.01, 6.88 9.66, 12.76 5.87 C18.63 2.07, 32.35 1.21, 37.04 0.48 C41.72 -0.26, 40.97 0.88, 40.86 1.47 M28.31 0.9 C34.2 -0.77, 42.57 -0.13, 48 2.5 C53.43 5.12, 58.32 11.1, 60.89 16.65 C63.46 22.21, 64.15 29.37, 63.41 35.83 C62.66 42.28, 60.78 50.44, 56.43 55.4 C52.08 60.36, 43.88 64.63, 37.29 65.58 C30.7 66.54, 22.68 64.28, 16.91 61.13 C11.13 57.97, 5.65 52.12, 2.67 46.65 C-0.32 41.18, -2.01 34.47, -1.01 28.31 C0 22.15, 4.04 14.57, 8.71 9.7 C13.38 4.83, 24.06 0.3, 27.02 -0.92 C29.98 -2.13, 26.26 1.81, 26.48 2.42" stroke="#000000" stroke-width="2" fill="none"></path></g><g stroke-linecap="round"><g transform="translate(225.2978732680058 357.76798769614106) rotate(356.85899504108176 7.014279541121141 -4.439248430280713)"><path d="M-0.01 -0.1 C0.41 -1.06, 1.12 -4.1, 2.4 -5.6 C3.67 -7.1, 6.06 -9, 7.66 -9.1 C9.26 -9.19, 10.94 -7.46, 12 -6.14 C13.06 -4.83, 13.65 -2.04, 14.01 -1.22 M-0.21 0.22 C0.2 -0.64, 0.95 -3.87, 2.31 -5.39 C3.68 -6.91, 6.36 -8.8, 7.99 -8.91 C9.62 -9.02, 11.05 -7.33, 12.09 -6.05 C13.13 -4.77, 13.85 -2.07, 14.24 -1.22" stroke="#000000" stroke-width="2" fill="none"></path></g></g><mask></mask><g stroke-linecap="round"><g transform="translate(252.8612195430469 358.01287179793144) rotate(356.85899504108176 7.068799200518697 -4.622779882145551)"><path d="M0.1 -0.01 C0.46 -0.93, 0.85 -4.04, 2.15 -5.57 C3.46 -7.11, 6.32 -9.13, 7.91 -9.23 C9.51 -9.32, 10.7 -7.46, 11.74 -6.13 C12.79 -4.8, 13.81 -2.06, 14.2 -1.24 M-0.06 -0.17 C0.35 -1.04, 1.14 -3.86, 2.46 -5.35 C3.78 -6.84, 6.32 -8.99, 7.86 -9.1 C9.4 -9.22, 10.68 -7.34, 11.7 -6.03 C12.72 -4.72, 13.59 -2.02, 14.01 -1.24" stroke="#000000" stroke-width="2" fill="none"></path></g></g><mask></mask><g stroke-linecap="round"><g transform="translate(232.08728059299756 371.314252837401) rotate(0 13.432183607810657 2.546137422492393)"><path d="M-0.14 0.01 C2 0.85, 8.41 4.81, 12.89 5.05 C17.36 5.29, 24.37 2.06, 26.7 1.46 M0.08 -0.12 C2.19 0.74, 8.32 4.91, 12.81 5.2 C17.3 5.48, 24.65 2.19, 27 1.58" stroke="#000000" stroke-width="2" fill="none"></path></g></g><mask></mask><g stroke-linecap="round"><g transform="translate(246.20769821562862 323.8297573970267) rotate(0 -5.685119545987618 -2.5884334432867036)"><path d="M0.1 -0.11 C-1.79 -1.01, -9.57 -4.47, -11.47 -5.35 M-0.04 0.17 C-1.87 -0.7, -9.3 -4.29, -11.19 -5.2" stroke="#000000" stroke-width="2" fill="none"></path></g></g><mask></mask><g stroke-linecap="round"><g transform="translate(248.4691914159339 323.10219621122087) rotate(0 10.023969394880623 -0.9645300103893533)"><path d="M-0.14 -0.09 C1.22 -0.4, 4.88 -1.65, 8.21 -1.97 C11.55 -2.29, 17.92 -1.99, 19.88 -1.99 M0.07 0.19 C1.4 -0.1, 4.76 -1.49, 8.11 -1.83 C11.46 -2.17, 18.2 -1.84, 20.18 -1.84" stroke="#000000" stroke-width="2" fill="none"></path></g></g><mask></mask><g stroke-linecap="round"><g transform="translate(244.40513459275826 325.07554165473994) rotate(0 -10.708016862650766 0.02983051779665402)"><path d="M0.03 -0.11 C-2.05 -0.24, -9.05 -1.06, -12.61 -0.91 C-16.17 -0.75, -19.89 0.54, -21.34 0.84 M-0.14 0.16 C-2.16 0.06, -8.78 -0.88, -12.33 -0.74 C-15.88 -0.6, -19.95 0.7, -21.44 0.99" stroke="#000000" stroke-width="2" fill="none"></path></g></g><mask></mask><g stroke-linecap="round" transform="translate(10 816.6143366707474) rotate(0 250.53239345515976 250.53239345515976)"><path d="M237.86 0.51 C256.71 -4.44, 278.92 1.19, 298.51 4.85 C318.09 8.52, 337.28 14.1, 355.38 22.47 C373.48 30.84, 391.58 42.55, 407.12 55.06 C422.66 67.57, 436.49 81.64, 448.63 97.54 C460.76 113.44, 471.87 131.98, 479.94 150.48 C488.02 168.98, 493.6 188.79, 497.07 208.54 C500.54 228.29, 502.05 249.04, 500.75 268.97 C499.45 288.9, 495.54 309.29, 489.25 328.12 C482.97 346.95, 473.67 365.22, 463.02 381.96 C452.37 398.7, 439.69 414.44, 425.36 428.56 C411.02 442.67, 394.11 456.4, 377 466.64 C359.89 476.87, 341.58 484.44, 322.71 489.99 C303.84 495.54, 283.8 498.99, 263.77 499.96 C243.74 500.93, 222.34 499.62, 202.51 495.8 C182.67 491.98, 162.78 485.38, 144.76 477.05 C126.74 468.71, 109.89 458.14, 94.38 445.8 C78.88 433.46, 64.1 418.86, 51.72 402.99 C39.35 387.11, 28 368.78, 20.13 350.56 C12.27 332.34, 7.9 313.29, 4.54 293.66 C1.18 274.02, -1.3 252.74, 0 232.75 C1.29 212.77, 6.19 192.87, 12.33 173.77 C18.47 154.68, 26.39 135.29, 36.82 118.19 C47.24 101.08, 60.54 84.91, 74.9 71.14 C89.27 57.37, 105.6 45.7, 122.99 35.57 C140.37 25.44, 158.81 16.24, 179.22 10.36 C199.63 4.48, 233.22 1.02, 245.45 0.29 C257.67 -0.45, 252.7 1.79, 252.57 5.95 M197.77 6.33 C215.63 -1.69, 238.3 0.71, 258.03 1.35 C277.75 1.98, 297.09 5.24, 316.12 10.15 C335.16 15.06, 354.45 21.1, 372.22 30.82 C390 40.54, 407.95 54.89, 422.76 68.47 C437.57 82.05, 450.36 95.92, 461.09 112.33 C471.82 128.74, 480.82 147.94, 487.14 166.93 C493.46 185.91, 496.94 206.24, 498.99 226.26 C501.05 246.27, 502.36 267.43, 499.46 287.02 C496.55 306.61, 489.3 325.08, 481.57 343.8 C473.84 362.53, 464.54 383.03, 453.08 399.38 C441.62 415.72, 428.32 429.1, 412.83 441.88 C397.34 454.66, 378.25 467.3, 360.15 476.04 C342.04 484.79, 323.68 490, 304.18 494.37 C284.69 498.74, 262.92 502.64, 243.19 502.28 C223.46 501.92, 205.12 497.81, 185.81 492.2 C166.5 486.59, 144.97 478.3, 127.33 468.62 C109.69 458.94, 94.5 447.67, 79.96 434.11 C65.42 420.55, 51.32 404.17, 40.1 387.24 C28.89 370.31, 18.95 351.18, 12.67 332.52 C6.39 313.86, 4.14 295.11, 2.41 275.27 C0.68 255.42, -0.29 233.24, 2.29 213.45 C4.88 193.66, 10.47 175.06, 17.92 156.52 C25.38 137.99, 35.19 118.58, 47.03 102.25 C58.87 85.92, 73.59 71.2, 88.98 58.55 C104.36 45.89, 121.42 35.02, 139.34 26.33 C157.26 17.64, 186.85 8.96, 196.51 6.4 C206.16 3.85, 196.48 7.08, 197.27 11.01" stroke="#e03131" stroke-width="4" fill="none"></path></g><g stroke-linecap="round"><g transform="translate(219.36523839627625 925.8575703817842) rotate(227.27022492945142 38.45595510175917 143.69927247001397)"><path d="M-0.12 -0.24 C0.3 16.73, 18.08 81.94, 1.68 101.46 C-14.72 120.98, -82.54 104.44, -98.53 116.87 C-114.51 129.31, -111.22 166.06, -94.22 176.07 C-77.21 186.08, -13.46 159.82, 3.49 176.93 C20.43 194.04, -6.5 262.81, 7.44 278.72 C21.38 294.63, 73.84 288.34, 87.14 272.39 C100.45 256.44, 72.84 199.21, 87.27 183 C101.69 166.78, 158.79 187.86, 173.67 175.1 C188.56 162.34, 190.65 118.13, 176.56 106.44 C162.47 94.74, 105.96 120.97, 89.14 104.93 C72.32 88.88, 90.67 27.85, 75.63 10.16 C60.6 -7.52, 11.44 0.51, -1.08 -1.18 M-1.64 -1.42 C-1.31 15.78, 16.97 83.6, 0.72 102.96 C-15.54 122.33, -83.42 102.41, -99.17 114.75 C-114.92 127.09, -111.2 166.56, -93.79 177 C-76.38 187.44, -11.86 160.07, 5.27 177.39 C22.4 194.71, -4.74 265.32, 8.97 280.92 C22.67 296.52, 74.56 287.41, 87.49 271 C100.41 254.59, 72.38 198.63, 86.53 182.45 C100.69 166.26, 157.83 186.62, 172.44 173.91 C187.04 161.2, 187.93 117.57, 174.17 106.17 C160.41 94.78, 105.96 121.67, 89.87 105.54 C73.79 89.41, 92.88 26.82, 77.67 9.4 C62.45 -8.02, 11.52 2.63, -1.42 1.04" stroke="#e03131" stroke-width="4" fill="none"></path></g></g><mask></mask><g stroke-linecap="round"><g transform="translate(955.0643813012866 884.2344307829117) rotate(0 150.82112816715562 141.96566565664398)" fill-rule="evenodd"><path d="M1.09 -1.53 C1.23 38.57, -1.11 195.08, -0.34 242.74 C0.43 290.4, -1.04 274.66, 5.72 284.45 C12.48 294.23, 25.34 296.41, 40.22 301.43 C55.09 306.45, 75.68 311.45, 94.97 314.56 C114.27 317.67, 137.95 319.85, 155.98 320.08 C174.02 320.3, 187.38 317.92, 203.19 315.91 C219 313.89, 234.89 313.6, 250.85 307.98 C266.82 302.36, 290.74 293.32, 298.98 282.17 C307.22 271.03, 299.7 282.34, 300.27 241.13 C300.84 199.92, 302.41 75.17, 302.4 34.94 C302.38 -5.29, 306.77 8.44, 300.17 -0.24 C293.57 -8.92, 276.51 -12.62, 262.8 -17.15 C249.1 -21.68, 234.49 -24.63, 217.92 -27.44 C201.36 -30.24, 177.82 -33.49, 163.4 -34 C148.98 -34.52, 149.24 -31.55, 131.4 -30.51 C113.56 -29.48, 78.23 -32.69, 56.38 -27.81 C34.52 -22.93, 9.93 -5.75, 0.28 -1.23" stroke="none" stroke-width="0" fill="#fa5252" fill-rule="evenodd"></path><path d="M-0.03 -0.07 C0.03 40.41, -0.72 194.98, 0.23 242.6 C1.17 290.22, -1.14 275.74, 5.64 285.67 C12.42 295.6, 25.77 297.48, 40.89 302.2 C56 306.93, 77.55 311.37, 96.34 314.01 C115.13 316.64, 135.63 317.93, 153.64 318 C171.64 318.07, 188.1 316.23, 204.35 314.41 C220.6 312.59, 235.57 312.05, 251.12 307.08 C266.67 302.12, 289.39 295.55, 297.64 284.61 C305.89 273.68, 299.92 283.52, 300.64 241.47 C301.36 199.43, 302.5 72.96, 301.97 32.34 C301.44 -8.27, 304.22 6.35, 297.47 -2.23 C290.72 -10.81, 274.67 -14.73, 261.46 -19.15 C248.25 -23.57, 234.63 -26.45, 218.22 -28.75 C201.82 -31.06, 177.99 -32.25, 163 -33 C148.02 -33.74, 146.49 -34.48, 128.31 -33.23 C110.14 -31.98, 75.41 -31.02, 53.95 -25.49 C32.49 -19.97, 8.54 -4.13, -0.46 -0.06 M-1.51 -1.15 C-1.58 38.98, -1.69 192.7, -0.6 240.69 C0.49 288.69, -1.84 276.37, 5.05 286.82 C11.94 297.27, 25.74 298.85, 40.73 303.37 C55.72 307.9, 75.98 311.72, 94.98 313.98 C113.99 316.24, 136.37 316.49, 154.75 316.92 C173.13 317.34, 189.32 318.17, 205.29 316.51 C221.25 314.85, 235.33 312.45, 250.53 306.94 C265.72 301.42, 288.53 294.47, 296.47 283.42 C304.41 272.37, 297.23 282.39, 298.16 240.65 C299.1 198.91, 301.91 73.03, 302.08 32.99 C302.24 -7.05, 305.84 9.21, 299.15 0.39 C292.46 -8.43, 275.6 -15.12, 261.95 -19.95 C248.29 -24.77, 233.74 -26.24, 217.23 -28.55 C200.71 -30.86, 177.56 -33.16, 162.84 -33.8 C148.12 -34.44, 146.75 -33.94, 128.91 -32.39 C111.07 -30.85, 76.99 -29.98, 55.79 -24.54 C34.58 -19.09, 11.22 -3.58, 1.67 0.27" stroke="#c92a2a" stroke-width="4" fill="none"></path></g></g><mask></mask><g stroke-linecap="round" transform="translate(953.9510985949601 847.4943162332929) rotate(0 150.91641615057415 41.033400700782295)"><path d="M218.33 4.57 C234.84 6.16, 250.91 9.59, 263.13 13.07 C275.36 16.54, 285.32 20.6, 291.67 25.43 C298.03 30.27, 301.2 37.01, 301.25 42.07 C301.3 47.13, 298.58 51.4, 291.97 55.78 C285.36 60.16, 273.91 64.79, 261.6 68.36 C249.28 71.92, 234.39 74.95, 218.07 77.18 C201.74 79.41, 181.86 81.25, 163.64 81.75 C145.42 82.24, 126.06 81.53, 108.75 80.15 C91.44 78.78, 74.12 76.49, 59.76 73.48 C45.41 70.47, 32.14 66.37, 22.62 62.09 C13.1 57.8, 5.98 52.47, 2.63 47.78 C-0.72 43.09, -0.84 38.65, 2.49 33.95 C5.82 29.25, 13.06 24.03, 22.61 19.6 C32.16 15.18, 45.17 10.38, 59.79 7.4 C74.4 4.43, 92.72 2.84, 110.28 1.74 C127.85 0.65, 145.3 0.01, 165.19 0.83 C185.09 1.66, 217.33 5.52, 229.66 6.69 C241.99 7.86, 240.36 7.28, 239.15 7.87 M78.27 4.91 C92.35 2.13, 112.74 0.05, 130.93 -0.58 C149.13 -1.21, 169.71 -0.38, 187.44 1.13 C205.16 2.65, 222.61 5.65, 237.29 8.52 C251.97 11.39, 265.39 14.29, 275.52 18.34 C285.66 22.39, 294 28.23, 298.09 32.82 C302.17 37.4, 302.64 40.93, 300.01 45.84 C297.37 50.75, 291.22 57.87, 282.27 62.26 C273.33 66.66, 260.51 69.36, 246.34 72.22 C232.16 75.07, 214.39 77.88, 197.23 79.38 C180.07 80.88, 161.72 81.26, 143.39 81.24 C125.06 81.22, 104.03 80.97, 87.24 79.24 C70.45 77.51, 54.95 74.63, 42.65 70.85 C30.35 67.07, 20.71 61.07, 13.43 56.54 C6.14 52, -0.33 48.7, -1.05 43.63 C-1.78 38.56, 2.67 30.83, 9.08 26.13 C15.49 21.43, 25.61 18.94, 37.42 15.46 C49.22 11.98, 72.57 7.08, 79.92 5.24 C87.26 3.39, 80.29 3.65, 81.49 4.39" stroke="none" stroke-width="0" fill="#ffffff"></path><path d="M172.41 0.59 C189.77 0.66, 208.35 2.32, 224.17 4.79 C239.98 7.25, 255.68 11.4, 267.3 15.4 C278.91 19.41, 288.07 24.07, 293.85 28.82 C299.62 33.57, 302.76 38.94, 301.96 43.87 C301.16 48.8, 296.6 54.07, 289.05 58.4 C281.5 62.72, 269.68 66.6, 256.65 69.82 C243.61 73.04, 227.55 75.63, 210.84 77.73 C194.12 79.83, 174.42 82.16, 156.36 82.44 C138.3 82.72, 119.43 81.21, 102.49 79.42 C85.55 77.64, 68.72 74.93, 54.71 71.72 C40.7 68.51, 27.42 64.52, 18.42 60.18 C9.42 55.83, 3.04 50.5, 0.71 45.65 C-1.61 40.81, 0.14 35.78, 4.47 31.11 C8.79 26.44, 16.55 21.74, 26.67 17.66 C36.78 13.57, 49.98 9.3, 65.16 6.6 C80.35 3.91, 97.55 2.42, 117.77 1.5 C137.99 0.58, 172.64 0.75, 186.47 1.06 C200.3 1.36, 201.35 2.74, 200.74 3.32 M132.03 1.58 C148.89 0.46, 168.42 0.73, 185.96 1.82 C203.5 2.9, 222.05 5.6, 237.27 8.09 C252.5 10.59, 267.16 12.91, 277.33 16.77 C287.49 20.62, 294.46 26, 298.28 31.22 C302.11 36.45, 302.77 43.05, 300.28 48.14 C297.78 53.22, 292.07 57.4, 283.32 61.71 C274.57 66.02, 262.07 70.76, 247.77 74.02 C233.47 77.28, 215.02 80.1, 197.51 81.28 C180 82.46, 160.55 81.38, 142.73 81.11 C124.9 80.83, 106.92 81.72, 90.53 79.65 C74.14 77.59, 57.38 72.54, 44.4 68.7 C31.43 64.87, 20.21 61.04, 12.68 56.64 C5.14 52.23, -0.23 47.1, -0.81 42.28 C-1.39 37.46, 3.29 32.6, 9.17 27.74 C15.06 22.88, 22.98 16.69, 34.5 13.14 C46.02 9.58, 62.06 8.59, 78.3 6.4 C94.54 4.21, 123.27 0.76, 131.92 0.02 C140.58 -0.72, 130.05 1.37, 130.21 1.96" stroke="#c92a2a" stroke-width="4" fill="none"></path></g><g transform="translate(921.6683698246925 1204.1336353388251) rotate(0 183.7574599218533 37.26222078088904)"><text x="183.75745992185313" y="0" font-family="Virgil, Segoe UI Emoji" font-size="59.61955324942235px" fill="#000000" text-anchor="middle" style="white-space: pre;" direction="ltr" dominant-baseline="text-before-edge">Database 2</text></g><g stroke-linecap="round"><g transform="translate(506.0501396265463 989.2355014494024) rotate(0 172.18622120837972 0)"><path d="M0 0 C113.11 0, 226.21 0, 344.37 0 M0 0 C100.83 0, 201.65 0, 344.37 0" stroke="#000000" stroke-width="4" fill="none"></path></g><g transform="translate(506.0501396265463 989.2355014494024) rotate(0 172.18622120837972 0)"><path d="M316.18 10.26 C325.44 6.89, 334.7 3.52, 344.37 0 M316.18 10.26 C324.44 7.26, 332.69 4.25, 344.37 0" stroke="#000000" stroke-width="4" fill="none"></path></g><g transform="translate(506.0501396265463 989.2355014494024) rotate(0 172.18622120837972 0)"><path d="M316.18 -10.26 C325.44 -6.89, 334.7 -3.52, 344.37 0 M316.18 -10.26 C324.44 -7.26, 332.69 -4.25, 344.37 0" stroke="#000000" stroke-width="4" fill="none"></path></g></g><mask></mask><g stroke-linecap="round"><g transform="translate(858.6966819488007 1093.7125294626967) rotate(0 -179.19976380226035 0.041905543563188985)"><path d="M0.03 -0.1 C-59.67 -0.1, -298.58 -0.02, -358.28 -0.01 M-0.14 0.17 C-59.85 0.19, -298.75 0.18, -358.43 0.17" stroke="#1e1e1e" stroke-width="4" fill="none"></path></g><g transform="translate(858.6966819488007 1093.7125294626967) rotate(0 -179.19976380226035 0.041905543563188985)"><path d="M-330.23 -10.09 C-337.06 -7.8, -343.53 -5.12, -358.43 0.17 M-330.23 -10.09 C-337.62 -7.3, -345.15 -4.69, -358.43 0.17" stroke="#1e1e1e" stroke-width="4" fill="none"></path></g><g transform="translate(858.6966819488007 1093.7125294626967) rotate(0 -179.19976380226035 0.041905543563188985)"><path d="M-330.24 10.43 C-337.07 7.89, -343.54 5.74, -358.43 0.17 M-330.24 10.43 C-337.64 7.75, -345.17 4.89, -358.43 0.17" stroke="#1e1e1e" stroke-width="4" fill="none"></path></g></g><mask></mask><g stroke-linecap="round"><g transform="translate(824.6310508158931 802.423685892667) rotate(0 -209.68946671178674 -111.50602920966412)"><path d="M-0.57 -0.09 C-70.61 -37.11, -350.19 -185.91, -420.06 -222.93 M1.34 -1.18 C-68.84 -37.96, -350.47 -184.41, -420.71 -221.6" stroke="#1e1e1e" stroke-width="4" fill="none"></path></g><g transform="translate(824.6310508158931 802.423685892667) rotate(0 -209.68946671178674 -111.50602920966412)"><path d="M-390.98 -217.6 C-400.55 -218.08, -410.54 -218.91, -420.71 -221.6 M-390.98 -217.6 C-400.2 -219.43, -411.03 -220.7, -420.71 -221.6" stroke="#1e1e1e" stroke-width="4" fill="none"></path></g><g transform="translate(824.6310508158931 802.423685892667) rotate(0 -209.68946671178674 -111.50602920966412)"><path d="M-400.51 -199.43 C-406.93 -205.64, -413.88 -212.25, -420.71 -221.6 M-400.51 -199.43 C-406.72 -207.3, -414.4 -214.58, -420.71 -221.6" stroke="#1e1e1e" stroke-width="4" fill="none"></path></g></g><mask></mask><g stroke-linecap="round"><g transform="translate(432.502984636114 543.2663826388962) rotate(0 200.92294034878614 104.51141581672346)"><path d="M0.56 -0.4 C67.73 34.73, 335.45 175.5, 402.45 210.68 M-0.6 -1.66 C66.53 33.1, 334.78 173.73, 401.93 208.76" stroke="#1e1e1e" stroke-width="4" fill="none"></path></g><g transform="translate(432.502984636114 543.2663826388962) rotate(0 200.92294034878614 104.51141581672346)"><path d="M372.2 204.78 C379.04 207.02, 387.84 208.25, 401.93 208.76 M372.2 204.78 C381.69 205.73, 390.92 206.6, 401.93 208.76" stroke="#1e1e1e" stroke-width="4" fill="none"></path></g><g transform="translate(432.502984636114 543.2663826388962) rotate(0 200.92294034878614 104.51141581672346)"><path d="M381.71 186.6 C386.13 193.48, 392.54 199.3, 401.93 208.76 M381.71 186.6 C388.18 193.48, 394.28 200.34, 401.93 208.76" stroke="#1e1e1e" stroke-width="4" fill="none"></path></g></g><mask></mask><g stroke-linecap="round"><g transform="translate(1079.0292621800036 766.8959492048671) rotate(0 0.04617070110180066 -119.4750835318373)"><path d="M0.1 0.05 C0.11 -39.74, 0.12 -198.94, 0.12 -238.76 M-0.02 -0.06 C-0.03 -39.88, 0.05 -199.21, 0.06 -239" stroke="#1e1e1e" stroke-width="4" fill="none"></path></g><g transform="translate(1079.0292621800036 766.8959492048671) rotate(0 0.04617070110180066 -119.4750835318373)"><path d="M10.31 -210.8 C6.86 -220.34, 3.3 -230.16, 0.06 -239 M10.31 -210.8 C7.73 -217.73, 5.45 -224.36, 0.06 -239" stroke="#1e1e1e" stroke-width="4" fill="none"></path></g><g transform="translate(1079.0292621800036 766.8959492048671) rotate(0 0.04617070110180066 -119.4750835318373)"><path d="M-10.21 -210.81 C-6.55 -220.36, -2.99 -230.18, 0.06 -239 M-10.21 -210.81 C-7.86 -217.72, -5.2 -224.35, 0.06 -239" stroke="#1e1e1e" stroke-width="4" fill="none"></path></g></g><mask></mask><g stroke-linecap="round"><g transform="translate(1101.2143160216365 446.19438918894593) rotate(0 -0.045090952207829105 -31.308618348673917)" fill-rule="evenodd"><path d="M-1.21 2.15 C5.05 2.27, 31.23 5.37, 37.43 -1.53 C43.63 -8.44, 37.88 -29.88, 36 -39.27 C34.13 -48.67, 32.12 -53.38, 26.18 -57.9 C20.24 -62.42, 9.25 -66.78, 0.37 -66.38 C-8.52 -65.98, -21.48 -60.56, -27.14 -55.5 C-32.8 -50.45, -31.97 -45.47, -33.6 -36.04 C-35.24 -26.6, -42.64 -5.12, -36.94 1.1 C-31.25 7.31, -5.98 1.8, 0.56 1.27" stroke="none" stroke-width="0" fill="#4c6ef5" fill-rule="evenodd"></path><path d="M0.96 0.35 C7.01 0.17, 31.3 6.09, 37.13 -0.71 C42.96 -7.52, 38.02 -31, 35.94 -40.47 C33.87 -49.94, 30.28 -53.34, 24.67 -57.54 C19.06 -61.74, 10.83 -66.18, 2.3 -65.67 C-6.24 -65.17, -20.11 -59.04, -26.55 -54.51 C-32.99 -49.98, -34.56 -47.45, -36.33 -38.5 C-38.1 -29.54, -43.05 -7.27, -37.18 -0.79 C-31.3 5.69, -7.2 0.28, -1.08 0.4 M0 -0.51 C5.89 -0.58, 30.77 6.94, 36.59 0.45 C42.42 -6.05, 37.01 -29.9, 34.97 -39.49 C32.93 -49.07, 30 -52.76, 24.35 -57.05 C18.7 -61.34, 9.38 -65.56, 1.09 -65.25 C-7.21 -64.93, -19.22 -59.96, -25.43 -55.16 C-31.64 -50.36, -34.59 -45.36, -36.18 -36.43 C-37.78 -27.49, -41.07 -7.49, -34.98 -1.55 C-28.89 4.4, -5.5 -0.94, 0.34 -0.77" stroke="#000000" stroke-width="2" fill="none"></path></g></g><mask></mask><g stroke-linecap="round" transform="translate(1052.1691019891005 408.09672970969405) rotate(0 48.827540760648844 32.55169384043256)"><path d="M1.1 -1.56 L97.89 -1 L96.41 64.56 L1.42 65.07" stroke="none" stroke-width="0" fill="#ced4da"></path><path d="M0 0 C35.9 -1.31, 73.1 -2.44, 97.66 0 M0 0 C19.27 0.58, 38.68 -0.44, 97.66 0 M97.66 0 C97.89 14.24, 97.12 29.89, 97.66 65.1 M97.66 0 C97.78 12.94, 97.2 27.36, 97.66 65.1 M97.66 65.1 C66.13 63.59, 35.46 65.98, 0 65.1 M97.66 65.1 C60.65 66.06, 24.13 64.69, 0 65.1 M0 65.1 C1.87 45.78, 0.95 25.32, 0 0 M0 65.1 C0 39.48, 1.15 15.84, 0 0" stroke="#000000" stroke-width="2" fill="none"></path></g><g stroke-linecap="round" transform="translate(1095.5754168216954 435.22719762206543) rotate(0 5.421225928061176 5.421225928061176)"><path d="M5.58 0.02 C6.71 0.05, 8.43 0.82, 9.3 1.6 C10.16 2.37, 10.65 3.54, 10.77 4.67 C10.89 5.81, 10.68 7.43, 10.03 8.4 C9.38 9.37, 7.97 10.15, 6.87 10.51 C5.77 10.87, 4.46 11.02, 3.41 10.55 C2.36 10.09, 1.13 8.77, 0.57 7.71 C0.02 6.65, -0.21 5.31, 0.07 4.19 C0.34 3.07, 1.28 1.71, 2.23 0.99 C3.18 0.26, 5.16 -0.03, 5.74 -0.15 C6.32 -0.27, 5.69 0.16, 5.7 0.27 M5.08 -0.13 C6.19 -0.26, 7.8 0.35, 8.73 1.11 C9.66 1.86, 10.41 3.24, 10.65 4.4 C10.89 5.56, 10.71 7.06, 10.15 8.08 C9.6 9.09, 8.44 10.09, 7.34 10.5 C6.24 10.91, 4.64 10.91, 3.58 10.52 C2.52 10.14, 1.55 9.2, 0.98 8.19 C0.41 7.18, 0.03 5.6, 0.14 4.47 C0.24 3.33, 0.75 2.14, 1.61 1.38 C2.47 0.62, 4.67 0.16, 5.3 -0.08 C5.94 -0.33, 5.4 -0.17, 5.41 -0.09" stroke="none" stroke-width="0" fill="#ffffff"></path><path d="M5.02 -0.06 C6.16 -0.25, 7.75 0.21, 8.69 0.88 C9.62 1.55, 10.36 2.84, 10.61 3.96 C10.86 5.08, 10.68 6.56, 10.2 7.62 C9.71 8.67, 8.75 9.79, 7.71 10.3 C6.67 10.8, 5.1 10.95, 3.95 10.63 C2.8 10.31, 1.42 9.34, 0.79 8.4 C0.16 7.45, 0.05 6.11, 0.17 4.96 C0.3 3.82, 0.71 2.34, 1.53 1.52 C2.34 0.7, 4.5 0.29, 5.08 0.04 C5.65 -0.21, 4.98 -0.05, 4.97 0.02 M5.31 0.11 C6.4 0.02, 7.98 0.69, 8.93 1.37 C9.87 2.06, 10.78 3.12, 10.99 4.22 C11.2 5.32, 10.79 6.9, 10.18 7.98 C9.57 9.06, 8.39 10.26, 7.32 10.7 C6.25 11.14, 4.84 11, 3.78 10.62 C2.71 10.23, 1.57 9.36, 0.94 8.38 C0.31 7.41, -0.17 5.95, -0.01 4.74 C0.14 3.53, 0.91 1.9, 1.85 1.14 C2.78 0.39, 5 0.41, 5.61 0.2 C6.22 -0.01, 5.55 -0.13, 5.52 -0.09" stroke="#000000" stroke-width="2" fill="none"></path></g><g stroke-linecap="round"><g transform="translate(1051.8388277672202 467.74938254032895) rotate(0 49.537504562551476 3.7465207956502127)" fill-rule="evenodd"><path d="M0.51 -0.72 C-0.52 -0.42, -7.11 1.68, -6.79 2.82 C-6.47 3.96, -14.48 5.18, 2.45 6.11 C19.38 7.05, 77.89 8.88, 94.79 8.44 C111.69 8, 103.29 4.92, 103.86 3.47 C104.44 2.02, 115.59 0.23, 98.23 -0.26 C80.87 -0.75, 16.05 0.37, -0.28 0.52" stroke="none" stroke-width="0" fill="#ced4da" fill-rule="evenodd"></path><path d="M-0.15 -0.17 C-1.24 0.28, -6.95 1.38, -6.56 2.57 C-6.17 3.75, -14.82 5.93, 2.16 6.95 C19.15 7.96, 78.31 9.26, 95.33 8.68 C112.36 8.1, 103.97 5.11, 104.29 3.47 C104.6 1.84, 114.63 -0.56, 97.24 -1.14 C79.84 -1.72, 16.14 -0.17, -0.07 -0.01 M0.08 0.12 C-1.02 0.6, -6.98 1.7, -6.66 2.79 C-6.33 3.88, -14.98 5.67, 2.02 6.67 C19.01 7.67, 78.21 9.33, 95.3 8.8 C112.39 8.27, 104.19 5.15, 104.54 3.47 C104.88 1.79, 114.78 -0.64, 97.36 -1.26 C79.93 -1.87, 16.24 -0.45, -0.01 -0.2" stroke="#000000" stroke-width="2" fill="none"></path></g></g><mask></mask><g stroke-linecap="round" transform="translate(1069.02713987483 320.7498368923625) rotate(0 32.55169384043256 32.55169384043256)"><path d="M19.94 1.66 C25.46 -0.82, 35.17 0.39, 41.45 1.94 C47.73 3.49, 53.75 6.19, 57.6 10.97 C61.45 15.75, 64.11 24.21, 64.56 30.62 C65.01 37.04, 63.66 44.27, 60.29 49.48 C56.93 54.68, 50.44 59.26, 44.38 61.84 C38.32 64.42, 29.99 66.4, 23.94 64.94 C17.89 63.49, 12.13 58.22, 8.09 53.1 C4.05 47.97, 0.11 40.63, -0.31 34.2 C-0.74 27.77, 1.49 20.05, 5.54 14.5 C9.58 8.94, 20.14 3.17, 23.96 0.86 C27.78 -1.46, 28.17 0.07, 28.45 0.6 M37.77 0.27 C44.06 0.84, 52.67 5.23, 57.26 9.75 C61.86 14.27, 64.9 20.97, 65.34 27.39 C65.79 33.81, 63.01 42.57, 59.91 48.26 C56.8 53.94, 52.15 58.99, 46.73 61.51 C41.31 64.02, 33.58 64.59, 27.39 63.36 C21.2 62.12, 14.37 58.57, 9.6 54.09 C4.83 49.61, -0.44 42.93, -1.24 36.47 C-2.03 30.02, 1.7 21.09, 4.85 15.36 C7.99 9.63, 12.16 4.55, 17.64 2.08 C23.12 -0.39, 34.44 0.86, 37.75 0.56 C41.05 0.27, 37.41 -0.21, 37.47 0.31" stroke="none" stroke-width="0" fill="#ffffff"></path><path d="M24.62 0.19 C30.2 -1.66, 38.4 -0.9, 44.41 1.6 C50.42 4.1, 57.25 9.63, 60.67 15.21 C64.1 20.8, 65.67 28.77, 64.94 35.11 C64.22 41.44, 60.34 48.32, 56.35 53.25 C52.35 58.17, 47.12 63.13, 40.97 64.66 C34.81 66.2, 25.41 64.96, 19.41 62.46 C13.41 59.97, 8.31 55.2, 4.99 49.68 C1.67 44.16, -0.95 35.81, -0.52 29.35 C-0.09 22.88, 2.53 15.64, 7.57 10.89 C12.62 6.14, 25.1 2.58, 29.76 0.84 C34.42 -0.9, 35.39 0.02, 35.53 0.48 M41.15 0.44 C46.88 1.98, 53.66 8.05, 57.81 13.19 C61.96 18.33, 65.51 24.88, 66.05 31.26 C66.58 37.64, 64.74 45.98, 61.03 51.47 C57.31 56.96, 49.96 62.24, 43.77 64.18 C37.58 66.12, 29.72 64.76, 23.88 63.11 C18.03 61.46, 12.53 59.28, 8.69 54.29 C4.86 49.3, 1.43 39.86, 0.87 33.17 C0.32 26.48, 2.21 19.38, 5.38 14.15 C8.54 8.92, 13.77 3.97, 19.87 1.79 C25.97 -0.39, 38.63 1.32, 41.96 1.06 C45.29 0.8, 40.16 -0.53, 39.85 0.22" stroke="#000000" stroke-width="2" fill="none"></path></g><g stroke-linecap="round"><g transform="translate(1079.4213623188261 352.09083044071303) rotate(356.85899504108176 7.146349651769924 -4.5562718613946345)"><path d="M-0.08 0.11 C0.27 -0.84, 0.87 -4.09, 2.17 -5.65 C3.46 -7.2, 6.1 -9.16, 7.69 -9.22 C9.29 -9.27, 10.67 -7.32, 11.74 -5.97 C12.81 -4.62, 13.7 -1.91, 14.1 -1.12 M0.19 0.01 C0.58 -0.91, 1.17 -3.95, 2.48 -5.47 C3.79 -6.98, 6.5 -9.04, 8.04 -9.09 C9.57 -9.14, 10.64 -7.12, 11.7 -5.78 C12.76 -4.45, 13.93 -1.87, 14.37 -1.07" stroke="#000000" stroke-width="2" fill="none"></path></g></g><mask></mask><g stroke-linecap="round"><g transform="translate(1106.9847085938673 352.3357145425034) rotate(356.85899504108176 7.010217418006505 -4.707510975564219)"><path d="M-0.13 -0.07 C0.24 -1.03, 0.88 -4.2, 2.18 -5.69 C3.48 -7.19, 6.05 -8.99, 7.66 -9.05 C9.26 -9.11, 10.75 -7.33, 11.83 -6.03 C12.91 -4.74, 13.78 -2.11, 14.15 -1.27 M0.11 -0.25 C0.54 -1.2, 1.19 -4.02, 2.5 -5.54 C3.81 -7.05, 6.43 -9.29, 7.98 -9.35 C9.54 -9.41, 10.84 -7.22, 11.83 -5.88 C12.83 -4.54, 13.54 -2.1, 13.94 -1.29" stroke="#000000" stroke-width="2" fill="none"></path></g></g><mask></mask><g stroke-linecap="round"><g transform="translate(1086.2107696438325 365.63709558197297) rotate(0 13.333738292561975 2.565717447987481)"><path d="M-0.11 -0.1 C2.02 0.78, 8.16 4.94, 12.64 5.22 C17.13 5.5, 24.41 2.18, 26.78 1.55 M0.12 0.18 C2.31 1.02, 8.51 4.71, 12.93 4.97 C17.35 5.22, 24.33 2.3, 26.65 1.72" stroke="#000000" stroke-width="2" fill="none"></path></g></g><mask></mask><g stroke-linecap="round"><g transform="translate(1100.331187266449 318.15260014160594) rotate(0 -5.734152013767016 -2.6025004441944475)"><path d="M-0.14 0.05 C-2.02 -0.81, -9.52 -4.35, -11.39 -5.26 M0.07 -0.06 C-1.82 -0.88, -9.62 -4.19, -11.54 -5.06" stroke="#000000" stroke-width="2" fill="none"></path></g></g><mask></mask><g stroke-linecap="round"><g transform="translate(1102.5926804667833 317.42503895579284) rotate(0 9.927212232954844 -1.0523458383577236)"><path d="M-0.06 -0.01 C1.33 -0.35, 4.85 -1.7, 8.18 -2 C11.5 -2.3, 17.93 -1.8, 19.91 -1.81 M0.19 -0.14 C1.56 -0.47, 4.79 -1.56, 8.05 -1.88 C11.32 -2.19, 17.77 -2.02, 19.78 -2.03" stroke="#000000" stroke-width="2" fill="none"></path></g></g><mask></mask><g stroke-linecap="round"><g transform="translate(1098.5286236435932 319.3983843993192) rotate(0 -10.665261300488055 -0.02290022824126936)"><path d="M-0.01 -0.14 C-2.1 -0.26, -9.03 -0.88, -12.58 -0.73 C-16.12 -0.58, -19.8 0.5, -21.26 0.77 M-0.2 0.12 C-2.23 -0.04, -8.76 -1.05, -12.28 -0.92 C-15.8 -0.8, -19.81 0.56, -21.32 0.89" stroke="#000000" stroke-width="2" fill="none"></path></g></g><mask></mask><g stroke-linecap="round"><g transform="translate(1123.8051313285541 526.7344692262486) rotate(0 0.04204562171071302 120.81661026804068)"><path d="M-0.07 0.13 C-0.06 40.39, 0.06 201.19, 0.07 241.43 M0.16 0.07 C0.16 40.36, 0.03 201.29, -0.02 241.57" stroke="#1e1e1e" stroke-width="4" fill="none"></path></g><g transform="translate(1123.8051313285541 526.7344692262486) rotate(0 0.04204562171071302 120.81661026804068)"><path d="M-10.25 213.37 C-7.03 221.78, -4.45 229.9, -0.02 241.57 M-10.25 213.37 C-7.03 222.43, -3.71 231.54, -0.02 241.57" stroke="#1e1e1e" stroke-width="4" fill="none"></path></g><g transform="translate(1123.8051313285541 526.7344692262486) rotate(0 0.04204562171071302 120.81661026804068)"><path d="M10.27 213.38 C7.46 221.78, 4.01 229.89, -0.02 241.57 M10.27 213.38 C6.88 222.42, 3.58 231.53, -0.02 241.57" stroke="#1e1e1e" stroke-width="4" fill="none"></path></g></g><mask></mask><g transform="translate(615.7655984985322 570.7677766861088) rotate(0 116.49640628938505 18.76968252186998)"><text x="0" y="0" font-family="Virgil, Segoe UI Emoji" font-size="30.03149203499149px" fill="#1e1e1e" text-anchor="start" style="white-space: pre;" direction="ltr" dominant-baseline="text-before-edge">READ / WRITE</text></g><g transform="translate(469.5916448341959 1397.7696078431327) rotate(0 207.925933837887 35)"><text x="0" y="0" font-family="Virgil, Segoe UI Emoji" font-size="55.99999999999896px" fill="#f08c00" text-anchor="start" style="white-space: pre;" direction="ltr" dominant-baseline="text-before-edge">pg_ctl promote</text></g><g transform="translate(452.0916448341959 1580.2696078431327) rotate(0 255.53426445855075 28.75)"><text x="0" y="0" font-family="Virgil, Segoe UI Emoji" font-size="46px" fill="#f08c00" text-anchor="start" style="white-space: pre;" direction="ltr" dominant-baseline="text-before-edge">SELECT pg_promote();</text></g><g transform="translate(652.0916448341959 1492.7696078431327) rotate(0 23.96666717529297 30.437440976264043)"><text x="0" y="0" font-family="Virgil, Segoe UI Emoji" font-size="48.69990556202224px" fill="#f08c00" text-anchor="start" style="white-space: pre;" direction="ltr" dominant-baseline="text-before-edge">or</text></g><g transform="translate(1193.0952385448109 548.9999253212591) rotate(0 116.49640628938505 18.76968252186998)"><text x="0" y="0" font-family="Virgil, Segoe UI Emoji" font-size="30.03149203499149px" fill="#1e1e1e" text-anchor="start" style="white-space: pre;" direction="ltr" dominant-baseline="text-before-edge">READ / WRITE</text></g></svg>