<svg version="1.1" xmlns="http://www.w3.org/2000/svg" viewBox="0 0 4073.6666870117006 2795.593019622942" width="4073.6666870117006" height="2795.593019622942">
  <!-- svg-source:excalidraw -->
  
  <defs>
    <style class="style-fonts">
      @font-face {
        font-family: "Virgil";
        src: url("https://excalidraw.com/Virgil.woff2");
      }
      @font-face {
        font-family: "Cascadia";
        src: url("https://excalidraw.com/Cascadia.woff2");
      }
    </style>
    
  </defs>
  <g stroke-linecap="round"><g transform="translate(1876.7808847741871 1151.2571237249867) rotate(0 190.45935414171254 178.98934967377136)" fill-rule="evenodd"><path d="M1.85 -1.68 C1.77 49.42, 0.14 244.92, 0.85 305.52 C1.57 366.12, -2.58 349.33, 6.14 361.94 C14.86 374.55, 33.79 375.47, 53.19 381.16 C72.58 386.84, 99.19 392.81, 122.53 396.05 C145.86 399.28, 171.25 400.7, 193.2 400.55 C215.15 400.4, 233.83 397.78, 254.22 395.12 C274.6 392.45, 295.43 391.03, 315.52 384.56 C335.6 378.08, 364.21 369.44, 374.73 356.25 C385.25 343.05, 377.61 357.83, 378.63 305.36 C379.65 252.89, 381.46 92.43, 380.86 41.43 C380.26 -9.57, 383.56 9.98, 375.05 -0.65 C366.55 -11.29, 346.6 -15.97, 329.84 -22.39 C313.09 -28.82, 294.98 -36.08, 274.52 -39.2 C254.05 -42.32, 225.37 -40.97, 207.04 -41.13 C188.71 -41.29, 187.77 -41.84, 164.53 -40.17 C141.29 -38.5, 94.9 -38.14, 67.61 -31.08 C40.32 -24.03, 12.3 -3.35, 0.8 2.14" stroke="none" stroke-width="0" fill="#40c057" fill-rule="evenodd"></path><path d="M-1.03 0.15 C-0.68 50.98, -0.09 244.47, 1.09 304.34 C2.27 364.21, -2.69 346.64, 6.05 359.39 C14.79 372.14, 34.18 374.63, 53.53 380.81 C72.88 387, 98.75 393.27, 122.14 396.53 C145.53 399.78, 171.32 400.25, 193.86 400.35 C216.41 400.45, 237.04 399.59, 257.42 397.13 C277.8 394.68, 296.83 392.13, 316.12 385.63 C335.41 379.13, 362.92 371.41, 373.16 358.13 C383.41 344.85, 376.23 358.54, 377.57 305.97 C378.92 253.4, 381.5 94.08, 381.22 42.7 C380.94 -8.69, 384.85 8.82, 375.9 -2.36 C366.95 -13.54, 344.24 -18.49, 327.51 -24.4 C310.77 -30.32, 295.74 -35.21, 275.48 -37.84 C255.21 -40.48, 224.73 -39.86, 205.91 -40.22 C187.09 -40.57, 185.45 -41.24, 162.54 -39.98 C139.63 -38.71, 95.45 -39.26, 68.44 -32.62 C41.43 -25.99, 12.01 -5.48, 0.48 -0.15 M0.63 -0.82 C1 50.22, 0 245.4, 0.72 305.61 C1.44 365.81, -3.37 348.24, 4.96 360.39 C13.29 372.55, 31.31 372.45, 50.69 378.56 C70.07 384.67, 97.19 393.61, 121.27 397.06 C145.34 400.52, 172.88 399.43, 195.15 399.29 C217.42 399.15, 234.79 398.61, 254.88 396.24 C274.96 393.87, 295.63 391.61, 315.65 385.06 C335.67 378.5, 364.54 370.07, 375 356.91 C385.46 343.75, 377.27 358.81, 378.41 306.1 C379.55 253.39, 382.5 91.6, 381.86 40.64 C381.21 -10.32, 383.65 11.33, 374.54 0.34 C365.43 -10.66, 343.84 -18.88, 327.22 -25.34 C310.6 -31.8, 295.02 -35.9, 274.82 -38.41 C254.61 -40.92, 224.54 -39.81, 205.99 -40.39 C187.45 -40.98, 186.16 -43.35, 163.56 -41.93 C140.97 -40.52, 97.77 -38.9, 70.41 -31.89 C43.06 -24.88, 10.99 -5.05, -0.55 0.13" stroke="#2b8a3e" stroke-width="4" fill="none"></path></g></g><mask></mask><g stroke-linecap="round" transform="translate(1875.3795449352656 1105.0106618760547) rotate(0 189.96539252644288 51.6506174056085)"><path d="M262.99 3.38 C282.03 4.69, 300.23 9.63, 315.47 13.51 C330.7 17.39, 344.21 21.75, 354.39 26.66 C364.58 31.57, 372.66 37.45, 376.57 42.95 C380.47 48.45, 380.98 54.13, 377.84 59.68 C374.69 65.22, 367.07 71.34, 357.69 76.19 C348.31 81.05, 336.35 85.23, 321.54 88.8 C306.73 92.37, 287.61 95.17, 268.84 97.61 C250.08 100.04, 229.29 102.6, 208.97 103.4 C188.64 104.21, 166.91 103.81, 146.88 102.44 C126.84 101.06, 106.31 98.08, 88.76 95.16 C71.22 92.25, 54.6 89.36, 41.61 84.93 C28.61 80.49, 17.75 73.89, 10.81 68.56 C3.88 63.23, 0.31 58.44, -0.01 52.93 C-0.33 47.42, 2.62 40.86, 8.88 35.49 C15.14 30.12, 25.23 25.19, 37.56 20.72 C49.88 16.25, 65.6 11.88, 82.82 8.66 C100.05 5.44, 120.99 2.9, 140.89 1.4 C160.78 -0.11, 179.83 -0.96, 202.19 -0.39 C224.55 0.18, 261.21 3.19, 275.07 4.79 C288.93 6.39, 286.84 8.31, 285.38 9.2 M200.25 1.11 C220.15 0.79, 243.73 2.19, 262.82 3.93 C281.91 5.67, 299.31 7.85, 314.77 11.54 C330.24 15.22, 345.36 21.13, 355.6 26.06 C365.83 30.99, 372.39 35.4, 376.18 41.11 C379.97 46.83, 381.36 54.85, 378.33 60.38 C375.31 65.91, 367.51 69.74, 358.04 74.3 C348.57 78.85, 336.02 83.51, 321.52 87.72 C307.03 91.93, 289.89 96.95, 271.07 99.58 C252.25 102.21, 229.09 102.86, 208.6 103.5 C188.1 104.14, 168.03 104.66, 148.08 103.41 C128.13 102.16, 106.39 99.37, 88.9 96.02 C71.41 92.68, 55.96 87.67, 43.12 83.33 C30.27 78.99, 18.91 75.27, 11.83 69.98 C4.76 64.69, 1.23 57.25, 0.67 51.61 C0.1 45.97, 2.38 41.4, 8.44 36.14 C14.5 30.88, 24.52 24.47, 37.04 20.07 C49.56 15.66, 66.62 12.97, 83.57 9.71 C100.52 6.45, 119.27 1.91, 138.73 0.52 C158.2 -0.87, 189.82 1.09, 200.35 1.39 C210.89 1.69, 202.14 1.71, 201.93 2.3" stroke="none" stroke-width="0" fill="#ffffff"></path><path d="M142.14 2.65 C160.39 0.33, 183.74 -0.44, 204.16 -0.06 C224.58 0.32, 245.67 2.54, 264.65 4.92 C283.64 7.3, 302.87 10.64, 318.07 14.22 C333.27 17.8, 345.96 21.66, 355.84 26.42 C365.71 31.18, 373.53 37.17, 377.31 42.8 C381.1 48.43, 381.62 54.68, 378.54 60.2 C375.46 65.72, 368.75 71.18, 358.83 75.9 C348.91 80.62, 334.22 84.69, 319.03 88.51 C303.84 92.33, 286.38 96.46, 267.67 98.83 C248.97 101.19, 227.13 102.2, 206.78 102.7 C186.44 103.2, 165.37 103.19, 145.61 101.82 C125.85 100.44, 105.65 97.4, 88.23 94.46 C70.81 91.51, 54.02 88.51, 41.1 84.15 C28.18 79.79, 17.68 73.53, 10.73 68.29 C3.79 63.04, -0.32 58.05, -0.56 52.68 C-0.8 47.32, 2.82 41.42, 9.29 36.08 C15.77 30.74, 25.71 25.25, 38.31 20.65 C50.91 16.04, 65.76 11.67, 84.89 8.45 C104.03 5.23, 139.94 2.38, 153.13 1.33 C166.32 0.28, 163.55 1.43, 164.03 2.17 M196.38 -0.9 C216.36 -1.59, 238.9 0.21, 258.2 2.41 C277.49 4.6, 296.44 8.52, 312.15 12.25 C327.85 15.97, 341.94 19.96, 352.42 24.75 C362.91 29.55, 370.56 35.35, 375.07 41.01 C379.58 46.66, 381.88 53.4, 379.51 58.68 C377.14 63.95, 369.77 67.81, 360.84 72.65 C351.91 77.49, 340.03 83.46, 325.91 87.73 C311.8 91.99, 294.78 95.58, 276.15 98.25 C257.52 100.92, 234.65 102.88, 214.16 103.77 C193.66 104.66, 173.29 104.67, 153.16 103.61 C133.02 102.54, 111.18 100.4, 93.34 97.38 C75.5 94.36, 59.42 90.14, 46.12 85.49 C32.82 80.85, 21.11 74.5, 13.53 69.5 C5.95 64.5, 1.7 61.01, 0.65 55.47 C-0.39 49.93, 1.58 41.87, 7.27 36.27 C12.95 30.66, 22.93 26.3, 34.75 21.84 C46.57 17.38, 61.7 12.78, 78.18 9.5 C94.67 6.22, 113.88 3.79, 133.68 2.17 C153.47 0.54, 186.81 0.08, 196.95 -0.25 C207.1 -0.58, 194.9 -0.64, 194.56 0.18" stroke="#2b8a3e" stroke-width="4" fill="none"></path></g><g transform="translate(1850.0956740649017 1553.9288774838933) rotate(0 213.9025333392492 46.90366083160916)"><text x="213.90253333924755" y="0" font-family="Virgil, Segoe UI Emoji" font-size="75.04585733057492px" fill="#000000" text-anchor="middle" style="white-space: pre;" direction="ltr" dominant-baseline="text-before-edge">Database 1</text></g><g stroke-linecap="round"><g transform="translate(2701.044119345901 2131.742237551487) rotate(0 197.73636416071895 185.33769123432103)" fill-rule="evenodd"><path d="M0.74 0.92 C1.09 53.08, 0.66 253.03, 1.53 314.92 C2.41 376.81, -2.4 359.44, 5.99 372.27 C14.39 385.1, 31.98 385.93, 51.91 391.9 C71.83 397.87, 100.53 404.69, 125.53 408.09 C150.54 411.49, 178.45 411.98, 201.92 412.32 C225.39 412.66, 245.68 412.35, 266.35 410.13 C287.02 407.91, 306.11 405.59, 325.93 398.99 C345.75 392.39, 374.36 384.22, 385.29 370.55 C396.22 356.87, 390.3 371.87, 391.51 316.93 C392.72 261.98, 392.95 93.94, 392.55 40.86 C392.15 -12.22, 397.63 9.31, 389.13 -1.56 C380.63 -12.43, 359.22 -18.45, 341.53 -24.34 C323.85 -30.23, 304.25 -34.24, 283.02 -36.88 C261.78 -39.52, 233.52 -39.6, 214.12 -40.19 C194.72 -40.77, 190.37 -41.49, 166.62 -40.38 C142.86 -39.27, 99.4 -39.88, 71.6 -33.52 C43.81 -27.16, 11.67 -8.14, -0.16 -2.22" stroke="none" stroke-width="0" fill="#fa5252" fill-rule="evenodd"></path><path d="M1.09 0.58 C1.38 53.24, 0.21 253.48, 1.14 315.4 C2.07 377.32, -2.34 358.99, 6.66 372.07 C15.65 385.16, 35.2 387.74, 55.11 393.92 C75.02 400.1, 101.93 405.79, 126.14 409.17 C150.35 412.55, 177.17 413.94, 200.36 414.2 C223.55 414.46, 244.31 413.06, 265.3 410.73 C286.28 408.41, 306.15 407.24, 326.29 400.26 C346.43 393.27, 375.65 383.06, 386.13 368.84 C396.62 354.62, 387.95 369.35, 389.18 314.91 C390.41 260.48, 393.71 94.81, 393.51 42.22 C393.32 -10.38, 397 10.41, 388 -0.65 C379.01 -11.71, 356.9 -17.85, 339.54 -24.15 C322.18 -30.44, 304.8 -35.36, 283.85 -38.42 C262.89 -41.47, 233.23 -41.73, 213.81 -42.47 C194.39 -43.22, 190.93 -44.26, 167.34 -42.89 C143.76 -41.51, 100.02 -41.24, 72.28 -34.23 C44.54 -27.22, 12.89 -6.58, 0.91 -0.82 M0.2 -0.17 C0.49 52.17, -0.13 251.16, 0.79 313.42 C1.72 375.68, -3.41 360.3, 5.76 373.37 C14.94 386.44, 35.92 385.82, 55.83 391.82 C75.74 397.81, 100.93 405.74, 125.22 409.33 C149.52 412.91, 178.16 413.22, 201.62 413.33 C225.09 413.44, 245.35 412.11, 266.01 409.97 C286.67 407.84, 305.83 407.1, 325.58 400.53 C345.34 393.96, 373.87 384.94, 384.52 370.57 C395.16 356.21, 387.87 368.97, 389.43 314.35 C390.99 259.72, 393.78 95.34, 393.88 42.83 C393.97 -9.68, 399.03 10.53, 390.01 -0.69 C380.99 -11.92, 357.03 -18.2, 339.76 -24.52 C322.49 -30.84, 307.26 -35.52, 286.37 -38.62 C265.48 -41.72, 234.12 -42.55, 214.39 -43.11 C194.67 -43.67, 191.85 -43.55, 168.01 -41.99 C144.18 -40.43, 99.37 -40.61, 71.38 -33.76 C43.39 -26.91, 12.12 -6.64, 0.1 -0.89" stroke="#c92a2a" stroke-width="4" fill="none"></path></g></g><mask></mask><g stroke-linecap="round" transform="translate(2699.5955543013006 2083.9372681858295) rotate(0 196.36723345290375 53.391245169363174)"><path d="M264.46 4.19 C283.61 5.13, 303.37 8.3, 319.25 11.44 C335.12 14.58, 348.66 18.34, 359.72 23.03 C370.77 27.71, 380.06 34.02, 385.57 39.56 C391.07 45.11, 393.67 50.9, 392.75 56.29 C391.82 61.69, 387.25 66.73, 380.01 71.93 C372.76 77.14, 361.97 83.3, 349.28 87.51 C336.6 91.73, 320.68 94.26, 303.89 97.21 C287.09 100.16, 267.98 103.67, 248.53 105.21 C229.08 106.75, 207.46 106.75, 187.19 106.45 C166.92 106.16, 145.86 105.36, 126.91 103.43 C107.96 101.5, 89.11 98.37, 73.51 94.86 C57.92 91.35, 44.42 87, 33.33 82.37 C22.25 77.74, 12.67 72.45, 7.02 67.09 C1.38 61.72, -1.34 55.46, -0.53 50.2 C0.27 44.94, 4.77 40.55, 11.85 35.52 C18.92 30.49, 29.15 24.55, 41.9 20.01 C54.65 15.47, 71.42 11.42, 88.35 8.28 C105.27 5.15, 123.88 2.51, 143.47 1.2 C163.06 -0.11, 183.69 -0.09, 205.9 0.41 C228.11 0.92, 263.56 3.07, 276.74 4.26 C289.93 5.44, 286.34 6.68, 285 7.52 M139.02 1.35 C156.43 -1.38, 180.13 -1.57, 200.66 -1.11 C221.19 -0.65, 243.31 2.03, 262.21 4.12 C281.11 6.21, 298.03 8.04, 314.07 11.43 C330.1 14.81, 346.8 19.91, 358.4 24.43 C369.99 28.96, 377.88 33.7, 383.66 38.57 C389.43 43.45, 393.35 48.18, 393.04 53.67 C392.72 59.15, 388.4 66.37, 381.75 71.51 C375.1 76.66, 365.49 80.22, 353.13 84.55 C340.77 88.87, 324.39 94.24, 307.58 97.44 C290.78 100.64, 271.42 102.08, 252.31 103.74 C233.2 105.4, 213.15 107.64, 192.93 107.41 C172.7 107.19, 150.4 104.12, 130.97 102.41 C111.53 100.7, 92.2 100.06, 76.32 97.14 C60.44 94.23, 47.23 89.73, 35.7 84.94 C24.17 80.15, 13.31 74.09, 7.13 68.41 C0.95 62.72, -2.01 56.16, -1.39 50.83 C-0.78 45.5, 3.73 41.28, 10.83 36.44 C17.94 31.6, 28.86 26.02, 41.21 21.78 C53.56 17.53, 68.58 14.42, 84.94 10.97 C101.3 7.52, 130.25 2.29, 139.37 1.07 C148.49 -0.14, 138.48 2.79, 139.66 3.68" stroke="none" stroke-width="0" fill="#ffffff"></path><path d="M177.69 1.15 C196.45 -0.38, 218.25 -0.05, 237.93 0.99 C257.62 2.04, 278.12 4.52, 295.79 7.42 C313.47 10.32, 330.41 14.3, 343.98 18.41 C357.54 22.51, 369.37 27.22, 377.19 32.04 C385.01 36.86, 389.11 41.83, 390.91 47.3 C392.72 52.77, 392.3 59.42, 388.03 64.86 C383.75 70.31, 375.35 75.23, 365.27 79.97 C355.18 84.7, 342.42 89.65, 327.52 93.26 C312.63 96.86, 294.55 99.32, 275.92 101.6 C257.29 103.88, 236.01 106.36, 215.75 106.92 C195.48 107.49, 174.16 106.12, 154.31 104.97 C134.46 103.82, 114.15 102.59, 96.64 100.04 C79.13 97.48, 62.71 93.79, 49.24 89.64 C35.77 85.5, 23.83 80.37, 15.83 75.17 C7.83 69.98, 2.98 63.93, 1.23 58.45 C-0.52 52.97, 0.99 47.53, 5.33 42.29 C9.66 37.06, 17.19 31.91, 27.25 27.06 C37.32 22.2, 50.67 17.06, 65.73 13.14 C80.79 9.22, 95.84 5.71, 117.6 3.55 C139.36 1.39, 179.97 0.47, 196.29 0.19 C212.62 -0.09, 215.57 0.93, 215.53 1.87 M216.25 0.7 C235.79 0.59, 258.42 3.74, 276.89 5.7 C295.37 7.65, 312.11 8.94, 327.08 12.42 C342.06 15.89, 356.32 21.5, 366.74 26.54 C377.16 31.57, 385.62 37.09, 389.61 42.65 C393.6 48.2, 392.88 54.23, 390.66 59.85 C388.45 65.47, 384.51 71.31, 376.32 76.37 C368.14 81.43, 355.16 86.31, 341.55 90.2 C327.95 94.09, 312.09 97.37, 294.71 99.71 C277.34 102.05, 257 102.91, 237.29 104.24 C217.57 105.58, 196.57 108.23, 176.44 107.71 C156.31 107.18, 135.01 103.55, 116.52 101.09 C98.03 98.63, 80.52 96.48, 65.5 92.93 C50.48 89.37, 36.67 84.49, 26.4 79.74 C16.14 74.99, 7.98 69.79, 3.9 64.43 C-0.18 59.07, -0.02 53.18, 1.92 47.59 C3.85 41.99, 7.52 35.91, 15.49 30.84 C23.46 25.77, 36.14 20.95, 49.74 17.17 C63.34 13.4, 79.28 10.8, 97.08 8.19 C114.88 5.58, 136.51 2.86, 156.54 1.51 C176.57 0.16, 207.47 0.28, 217.28 0.1 C227.09 -0.08, 215.71 -0.24, 215.39 0.43" stroke="#c92a2a" stroke-width="4" fill="none"></path></g><g transform="translate(2657.590381513426 2547.9840446704256) rotate(0 239.0988664558863 48.48431597894523)"><text x="239.09886645588682" y="0" font-family="Virgil, Segoe UI Emoji" font-size="77.57490556631281px" fill="#000000" text-anchor="middle" style="white-space: pre;" direction="ltr" dominant-baseline="text-before-edge">Database 2</text></g><g stroke-linecap="round"><g transform="translate(2307.474042330814 1661.0411380901278) rotate(0 169.31291245913235 194.20271994308496)"><path d="M0 0 C94.89 108.83, 189.77 217.67, 338.63 388.41 M0 0 C110.56 126.81, 221.12 253.62, 338.63 388.41" stroke="#000000" stroke-width="4" fill="none"></path></g><g transform="translate(2307.474042330814 1661.0411380901278) rotate(0 169.31291245913235 194.20271994308496)"><path d="M312.37 373.9 C319.72 377.96, 327.08 382.03, 338.63 388.41 M312.37 373.9 C320.94 378.64, 329.51 383.37, 338.63 388.41" stroke="#000000" stroke-width="4" fill="none"></path></g><g transform="translate(2307.474042330814 1661.0411380901278) rotate(0 169.31291245913235 194.20271994308496)"><path d="M327.83 360.41 C330.86 368.26, 333.88 376.1, 338.63 388.41 M327.83 360.41 C331.36 369.55, 334.88 378.69, 338.63 388.41" stroke="#000000" stroke-width="4" fill="none"></path></g></g><mask></mask><g stroke-linecap="round"><g transform="translate(2011.2889200172685 1034.8844895463626) rotate(0 -0.018351869151956635 -155.48810888598018)"><path d="M0.13 -0.05 C0.11 -51.85, -0.02 -258.93, -0.03 -310.69 M0.02 -0.21 C-0.04 -52.06, -0.15 -259.16, -0.17 -310.92" stroke="#1e1e1e" stroke-width="4" fill="none"></path></g><g transform="translate(2011.2889200172685 1034.8844895463626) rotate(0 -0.018351869151956635 -155.48810888598018)"><path d="M10.11 -282.74 C6.12 -293.37, 2.44 -303.85, -0.17 -310.92 M10.11 -282.74 C6.06 -293.91, 1.9 -304.88, -0.17 -310.92" stroke="#1e1e1e" stroke-width="4" fill="none"></path></g><g transform="translate(2011.2889200172685 1034.8844895463626) rotate(0 -0.018351869151956635 -155.48810888598018)"><path d="M-10.41 -282.73 C-6.7 -293.39, -2.68 -303.87, -0.17 -310.92 M-10.41 -282.73 C-6.4 -293.94, -2.5 -304.91, -0.17 -310.92" stroke="#1e1e1e" stroke-width="4" fill="none"></path></g></g><mask></mask><g stroke-linecap="round"><g transform="translate(2043.6863051440923 619.9526575503987) rotate(0 -0.053474217074835906 -40.50480545647406)" fill-rule="evenodd"><path d="M1.38 -1.09 C9.8 -1.14, 41.35 6.66, 49.14 -1.68 C56.93 -10.02, 50.83 -39.53, 48.14 -51.15 C45.45 -62.76, 40.48 -65.81, 32.98 -71.38 C25.47 -76.96, 13.97 -84.49, 3.1 -84.61 C-7.78 -84.73, -23.94 -78, -32.28 -72.12 C-40.62 -66.23, -44.06 -61.15, -46.94 -49.32 C-49.83 -37.49, -57.49 -9.12, -49.59 -1.15 C-41.69 6.82, -8.02 -1.45, 0.46 -1.52" stroke="none" stroke-width="0" fill="#4c6ef5" fill-rule="evenodd"></path><path d="M-0.28 0.32 C7.44 0.58, 39.39 9.61, 47.42 1.11 C55.45 -7.38, 50.2 -38.06, 47.9 -50.64 C45.6 -63.22, 41.36 -68.52, 33.61 -74.37 C25.85 -80.22, 12.59 -86.04, 1.37 -85.74 C-9.86 -85.45, -25.75 -78.78, -33.73 -72.61 C-41.71 -66.45, -44.24 -61, -46.5 -48.75 C-48.77 -36.51, -54.92 -7.26, -47.31 0.86 C-39.7 8.98, -8.79 0.14, -0.83 -0.03 M1.77 -0.56 C9.25 -0.57, 38.93 8.21, 46.54 -0.43 C54.16 -9.06, 49.56 -40.14, 47.46 -52.37 C45.35 -64.6, 41.31 -68.29, 33.91 -73.81 C26.5 -79.32, 14.07 -86.04, 3.04 -85.47 C-7.99 -84.89, -24.09 -76.32, -32.28 -70.37 C-40.47 -64.41, -43.43 -61.61, -46.1 -49.72 C-48.78 -37.83, -56.15 -7.08, -48.35 0.96 C-40.54 9.01, -7.58 -1.15, 0.73 -1.43" stroke="#000000" stroke-width="2" fill="none"></path></g></g><mask></mask><g stroke-linecap="round" transform="translate(1979.8703649082345 570.3812975632391) rotate(0 63.5327112851046 42.35514085673822)"><path d="M-1.35 1.23 L127.72 1.75 L125.9 86.21 L0 84.85" stroke="none" stroke-width="0" fill="#ced4da"></path><path d="M0 0 C36.96 0.88, 72.17 0.03, 127.07 0 M0 0 C27.27 -0.36, 54.02 0.83, 127.07 0 M127.07 0 C127.62 26.07, 127.42 49.37, 127.07 84.71 M127.07 0 C128.3 19.93, 127.89 41.5, 127.07 84.71 M127.07 84.71 C92.44 86.35, 56.14 84.36, 0 84.71 M127.07 84.71 C88.31 83.49, 49.71 83.47, 0 84.71 M0 84.71 C-0.25 54.57, 0.38 26.75, 0 0 M0 84.71 C0.58 53, 1.11 21.72, 0 0" stroke="#000000" stroke-width="2" fill="none"></path></g><g stroke-linecap="round" transform="translate(2036.3491640705215 605.6825262971615) rotate(0 7.0539121228175645 7.0539121228157455)"><path d="M6.89 0.05 C8.35 -0.04, 10.57 0.66, 11.73 1.63 C12.9 2.6, 13.63 4.38, 13.87 5.87 C14.1 7.37, 13.88 9.29, 13.14 10.58 C12.4 11.87, 10.84 13.1, 9.42 13.63 C8 14.16, 6.05 14.32, 4.63 13.79 C3.21 13.25, 1.68 11.75, 0.91 10.41 C0.14 9.08, -0.25 7.24, 0 5.76 C0.26 4.28, 1.25 2.48, 2.46 1.54 C3.66 0.6, 6.43 0.36, 7.22 0.14 C8 -0.08, 7.2 0.13, 7.17 0.21 M6.78 -0.04 C8.22 -0.16, 10.27 0.53, 11.48 1.4 C12.69 2.27, 13.7 3.7, 14.04 5.19 C14.39 6.69, 14.27 8.99, 13.56 10.35 C12.84 11.72, 11.24 12.82, 9.77 13.39 C8.3 13.96, 6.17 14.18, 4.75 13.78 C3.33 13.37, 2.01 12.24, 1.24 10.97 C0.48 9.7, 0.03 7.7, 0.18 6.16 C0.34 4.62, 1.05 2.8, 2.17 1.75 C3.29 0.7, 6.17 0.11, 6.89 -0.16 C7.61 -0.42, 6.49 0.01, 6.48 0.14" stroke="none" stroke-width="0" fill="#ffffff"></path><path d="M7.07 0.01 C8.52 -0.05, 10.35 0.64, 11.52 1.62 C12.7 2.59, 13.83 4.4, 14.12 5.88 C14.41 7.36, 14.05 9.19, 13.26 10.5 C12.48 11.82, 10.86 13.26, 9.41 13.77 C7.96 14.28, 6 14.08, 4.57 13.56 C3.14 13.04, 1.57 11.91, 0.82 10.64 C0.06 9.36, -0.23 7.41, 0.04 5.91 C0.31 4.42, 1.24 2.67, 2.44 1.68 C3.64 0.69, 6.4 0.21, 7.22 -0.04 C8.05 -0.28, 7.38 0.06, 7.38 0.2 M6.75 -0.13 C8.21 -0.26, 10.37 0.49, 11.6 1.45 C12.83 2.4, 13.84 4.08, 14.13 5.6 C14.42 7.13, 14.08 9.25, 13.32 10.59 C12.56 11.93, 11 13.12, 9.55 13.65 C8.09 14.18, 6.01 14.25, 4.61 13.77 C3.21 13.3, 1.89 12.18, 1.12 10.82 C0.35 9.47, -0.24 7.18, 0 5.66 C0.24 4.13, 1.35 2.6, 2.55 1.66 C3.75 0.73, 6.5 0.3, 7.22 0.07 C7.93 -0.15, 6.84 0.16, 6.82 0.31" stroke="#000000" stroke-width="2" fill="none"></path></g><g stroke-linecap="round"><g transform="translate(1979.4406234865492 647.9992711625455) rotate(0 64.43306213555115 4.847966352672302)" fill-rule="evenodd"><path d="M0.88 -0.8 C-0.6 -0.11, -8.52 1.88, -8.22 3.65 C-7.92 5.42, -19.46 8.47, 2.67 9.83 C24.8 11.19, 102.26 12.69, 124.58 11.81 C146.9 10.94, 136.29 6.78, 136.58 4.57 C136.87 2.35, 149.24 -0.63, 126.29 -1.48 C103.35 -2.33, 19.92 -0.67, -1.1 -0.55" stroke="none" stroke-width="0" fill="#ced4da" fill-rule="evenodd"></path><path d="M0.02 -0.16 C-1.46 0.36, -9.26 1.81, -8.77 3.3 C-8.29 4.79, -19.22 7.43, 2.93 8.79 C25.09 10.16, 102 12.15, 124.15 11.49 C146.31 10.82, 135.44 6.97, 135.85 4.8 C136.26 2.62, 149.23 -0.76, 126.6 -1.56 C103.97 -2.36, 21.19 -0.27, 0.07 -0.02 M-0.19 0.16 C-1.63 0.78, -8.95 2.05, -8.45 3.51 C-7.94 4.97, -19.27 7.66, 2.83 8.93 C24.93 10.21, 102.02 11.83, 124.15 11.16 C146.29 10.49, 135.19 7.06, 135.63 4.92 C136.06 2.77, 149.32 -0.86, 126.75 -1.72 C104.18 -2.58, 21.29 -0.49, 0.21 -0.24" stroke="#000000" stroke-width="2" fill="none"></path></g></g><mask></mask><g stroke-linecap="round" transform="translate(2001.8054621329102 456.728534459362) rotate(0 42.3551408567364 42.35514085673822)"><path d="M36.08 -0.5 C43.09 -2.29, 52.39 0.21, 59.31 3.42 C66.23 6.63, 73.25 12.17, 77.6 18.78 C81.94 25.39, 85.28 35.28, 85.39 43.08 C85.49 50.89, 82.49 59.39, 78.24 65.59 C73.99 71.78, 66.96 77.06, 59.88 80.26 C52.8 83.45, 43.47 85.68, 35.78 84.77 C28.08 83.87, 19.39 79.77, 13.68 74.81 C7.98 69.86, 3.56 62.38, 1.55 55.07 C-0.45 47.75, -0.35 38.24, 1.66 30.93 C3.67 23.61, 7.14 16.35, 13.62 11.17 C20.1 5.99, 35.58 1.72, 40.56 -0.16 C45.53 -2.03, 43.5 -0.88, 43.45 -0.08 M46.51 -0.63 C53.86 -0.56, 64.32 3.5, 70.14 8.42 C75.96 13.34, 79.12 21.57, 81.42 28.89 C83.72 36.2, 85.69 45.01, 83.93 52.31 C82.16 59.61, 76.48 67.52, 70.83 72.71 C65.17 77.9, 57.5 81.77, 49.99 83.45 C42.48 85.14, 32.95 85.64, 25.78 82.81 C18.61 79.98, 11.37 73.14, 6.95 66.48 C2.53 59.81, -0.35 50.59, -0.72 42.8 C-1.09 35.01, 0.49 26.36, 4.73 19.74 C8.97 13.11, 17.72 6.27, 24.72 3.05 C31.72 -0.17, 43.18 0.92, 46.72 0.42 C50.26 -0.08, 46.18 -0.81, 45.95 0.03" stroke="none" stroke-width="0" fill="#ffffff"></path><path d="M44.4 0.01 C51.88 -0.39, 60.99 2.42, 67.16 6.83 C73.34 11.24, 78.64 19.42, 81.43 26.48 C84.23 33.55, 85.36 41.68, 83.92 49.22 C82.49 56.76, 78.08 65.91, 72.84 71.72 C67.59 77.54, 59.87 82.27, 52.46 84.13 C45.04 86, 35.49 85.47, 28.36 82.91 C21.24 80.35, 14.25 74.72, 9.69 68.77 C5.14 62.83, 1.86 54.71, 1.05 47.26 C0.24 39.81, 1.57 31.03, 4.82 24.09 C8.08 17.14, 13.59 9.73, 20.59 5.6 C27.59 1.47, 42.07 -0.05, 46.82 -0.71 C51.57 -1.37, 49.26 0.72, 49.08 1.66 M29.19 2.09 C35.69 -0.74, 44.93 -0.35, 52.43 1.74 C59.94 3.84, 69.05 9.32, 74.23 14.64 C79.41 19.95, 82.23 26.32, 83.51 33.63 C84.78 40.94, 84.51 51.18, 81.87 58.5 C79.23 65.83, 74.18 73.07, 67.67 77.59 C61.16 82.1, 50.54 85.2, 42.79 85.61 C35.04 86.02, 27.71 83.93, 21.18 80.06 C14.65 76.19, 7.07 69.41, 3.58 62.38 C0.09 55.35, -0.71 45.87, 0.25 37.87 C1.2 29.87, 4.45 20.12, 9.32 14.37 C14.18 8.62, 26.14 5.45, 29.45 3.36 C32.75 1.28, 28.94 1.42, 29.16 1.86" stroke="#000000" stroke-width="2" fill="none"></path></g><g stroke-linecap="round"><g transform="translate(2015.330065733262 497.5083538702238) rotate(356.85899504108176 9.153597949571122 -5.888006294679144)"><path d="M0.01 -0.1 C0.52 -1.29, 1.23 -5.22, 2.93 -7.16 C4.62 -9.09, 8.09 -11.61, 10.16 -11.72 C12.23 -11.84, 13.97 -9.55, 15.36 -7.84 C16.75 -6.13, 18.01 -2.52, 18.5 -1.47 M-0.2 0.22 C0.3 -1.01, 1.05 -5.37, 2.75 -7.41 C4.46 -9.45, 7.95 -11.95, 10.04 -12 C12.14 -12.04, 13.95 -9.44, 15.33 -7.68 C16.71 -5.92, 17.8 -2.5, 18.32 -1.43" stroke="#000000" stroke-width="2" fill="none"></path></g></g><mask></mask><g stroke-linecap="round"><g transform="translate(2051.194540856599 497.82698861396057) rotate(356.85899504108176 9.263694540662982 -5.874671200032026)"><path d="M-0.07 0.11 C0.43 -1.06, 1.31 -5.14, 2.99 -7.14 C4.68 -9.13, 7.95 -11.73, 10.04 -11.85 C12.13 -11.97, 14.17 -9.58, 15.55 -7.86 C16.93 -6.14, 17.83 -2.61, 18.33 -1.55 M0.22 0.01 C0.69 -1.2, 1.15 -5.44, 2.85 -7.38 C4.55 -9.33, 8.27 -11.61, 10.4 -11.66 C12.53 -11.72, 14.26 -9.4, 15.62 -7.71 C16.99 -6.02, 18.16 -2.63, 18.6 -1.54" stroke="#000000" stroke-width="2" fill="none"></path></g></g><mask></mask><g stroke-linecap="round"><g transform="translate(2024.1642082818325 515.1342866697014) rotate(0 17.394000768501428 3.4895104028819333)"><path d="M0 0.12 C2.76 1.22, 10.69 6.4, 16.53 6.72 C22.36 7.03, 31.94 2.8, 34.99 2.01 M-0.2 0.03 C2.62 1.16, 10.98 6.57, 16.83 6.92 C22.69 7.28, 31.92 2.99, 34.92 2.17" stroke="#000000" stroke-width="2" fill="none"></path></g></g><mask></mask><g stroke-linecap="round"><g transform="translate(2042.5372084794399 453.34909961471567) rotate(0 -7.318331672402564 -3.427632031223766)"><path d="M-0.11 0 C-2.56 -1.17, -12.22 -5.7, -14.67 -6.85 M0.13 -0.15 C-2.33 -1.29, -12.25 -5.55, -14.76 -6.66" stroke="#000000" stroke-width="2" fill="none"></path></g></g><mask></mask><g stroke-linecap="round"><g transform="translate(2045.4797854008102 452.4024221036161) rotate(0 13.00106538228647 -1.3690064464281022)"><path d="M0.06 -0.02 C1.84 -0.44, 6.22 -2.08, 10.56 -2.51 C14.9 -2.94, 23.5 -2.57, 26.09 -2.59 M-0.09 -0.16 C1.75 -0.56, 6.5 -1.98, 10.86 -2.36 C15.21 -2.74, 23.48 -2.43, 26.04 -2.46" stroke="#000000" stroke-width="2" fill="none"></path></g></g><mask></mask><g stroke-linecap="round"><g transform="translate(2040.191774889292 454.9700711061305) rotate(0 -13.764913185419573 -0.03503507846289722)"><path d="M-0.09 -0.09 C-2.79 -0.28, -11.59 -1.37, -16.18 -1.19 C-20.77 -1, -25.72 0.63, -27.63 1.03 M0.14 0.2 C-2.58 0.02, -11.62 -1.19, -16.26 -1.03 C-20.89 -0.87, -25.78 0.74, -27.67 1.14" stroke="#000000" stroke-width="2" fill="none"></path></g></g><mask></mask><g stroke-linecap="round"><g transform="translate(2069.549736000208 722.3946583652141) rotate(0 0.030834532884910004 157.11200212318363)"><path d="M0.08 -0.07 C0.12 52.31, 0.12 261.76, 0.11 314.15 M-0.05 0.22 C-0.02 52.61, 0.05 261.91, 0.05 314.29" stroke="#1e1e1e" stroke-width="4" fill="none"></path></g><g transform="translate(2069.549736000208 722.3946583652141) rotate(0 0.030834532884910004 157.11200212318363)"><path d="M-10.21 286.1 C-7.88 293.13, -5.46 299.84, 0.05 314.29 M-10.21 286.1 C-6.82 295.37, -3.41 304.52, 0.05 314.29" stroke="#1e1e1e" stroke-width="4" fill="none"></path></g><g transform="translate(2069.549736000208 722.3946583652141) rotate(0 0.030834532884910004 157.11200212318363)"><path d="M10.31 286.1 C7.67 293.15, 5.12 299.85, 0.05 314.29 M10.31 286.1 C6.99 295.39, 3.68 304.55, 0.05 314.29" stroke="#1e1e1e" stroke-width="4" fill="none"></path></g></g><mask></mask><g stroke-linecap="round"><g transform="translate(3363.368872415278 1316.4034729361083) rotate(0 -0.13832955540783587 -40.925403611383445)" fill-rule="evenodd"><path d="M-0.75 0.68 C7.32 0.99, 40.78 10.89, 48.64 1.8 C56.5 -7.29, 48.82 -41.32, 46.41 -53.87 C44 -66.43, 41.19 -68.36, 34.17 -73.52 C27.16 -78.69, 15.93 -85.39, 4.32 -84.87 C-7.29 -84.35, -27.21 -76.65, -35.47 -70.4 C-43.73 -64.14, -43.04 -59.38, -45.24 -47.34 C-47.45 -35.3, -56.25 -6.09, -48.71 1.83 C-41.17 9.75, -8.1 0.85, 0 0.17" stroke="none" stroke-width="0" fill="#4c6ef5" fill-rule="evenodd"></path><path d="M0.91 -0.82 C8.75 -0.68, 40.02 8.66, 47.71 0.33 C55.39 -8.01, 49.34 -38.65, 47.03 -50.85 C44.72 -63.06, 41.19 -67.09, 33.87 -72.89 C26.55 -78.68, 14.46 -85.81, 3.1 -85.63 C-8.25 -85.46, -25.88 -77.76, -34.26 -71.83 C-42.63 -65.9, -45.04 -61.89, -47.17 -50.04 C-49.3 -38.19, -55.03 -8.96, -47.06 -0.74 C-39.1 7.47, -7.31 -0.93, 0.63 -0.77 M-0.07 1.36 C7.58 1.17, 39.28 7.38, 46.98 -1.62 C54.68 -10.63, 48.24 -41.04, 46.13 -52.69 C44.02 -64.35, 41.66 -66.11, 34.31 -71.55 C26.96 -76.98, 13.26 -85.08, 2.02 -85.29 C-9.21 -85.51, -24.89 -79.04, -33.08 -72.83 C-41.27 -66.62, -44.64 -59.91, -47.12 -48.02 C-49.6 -36.13, -55.7 -9.66, -47.97 -1.48 C-40.24 6.71, -8.99 0.87, -0.72 1.11" stroke="#000000" stroke-width="2" fill="none"></path></g></g><mask></mask><g stroke-linecap="round" transform="translate(3299.5529321794056 1266.8321129489414) rotate(0 63.5327112851046 42.35514085673822)"><path d="M-0.76 -0.71 L125.81 1.35 L128.65 85.16 L0.77 84.46" stroke="none" stroke-width="0" fill="#ced4da"></path><path d="M0 0 C48.28 -0.87, 97.07 0.17, 127.07 0 M0 0 C42.53 0.17, 84.85 -0.36, 127.07 0 M127.07 0 C125.26 27.98, 126.96 54.23, 127.07 84.71 M127.07 0 C127.36 25.82, 126.45 49.33, 127.07 84.71 M127.07 84.71 C86.02 84.38, 45.14 86.39, 0 84.71 M127.07 84.71 C77.85 85.73, 28.58 84.75, 0 84.71 M0 84.71 C-2.15 57.5, -0.92 29.26, 0 0 M0 84.71 C0.82 61.31, -0.7 37.69, 0 0" stroke="#000000" stroke-width="2" fill="none"></path></g><g stroke-linecap="round" transform="translate(3356.0317313416926 1302.133341682871) rotate(0 7.0539121228175645 7.0539121228157455)"><path d="M7.19 0.09 C8.6 0.08, 10.46 0.87, 11.6 1.88 C12.73 2.9, 13.77 4.7, 14.01 6.2 C14.25 7.7, 13.85 9.59, 13.03 10.87 C12.21 12.15, 10.49 13.45, 9.07 13.9 C7.64 14.35, 5.88 14.17, 4.49 13.56 C3.1 12.94, 1.45 11.51, 0.73 10.2 C0 8.88, -0.2 7.09, 0.14 5.65 C0.47 4.22, 1.55 2.53, 2.75 1.59 C3.95 0.64, 6.57 0.18, 7.33 -0.03 C8.09 -0.25, 7.33 0.2, 7.31 0.3 M6.96 -0.11 C8.38 -0.21, 10.42 0.51, 11.58 1.53 C12.75 2.56, 13.68 4.54, 13.93 6.04 C14.17 7.54, 13.82 9.31, 13.06 10.55 C12.3 11.79, 10.79 12.98, 9.36 13.48 C7.92 13.97, 5.81 14.03, 4.45 13.51 C3.09 12.98, 1.93 11.61, 1.2 10.34 C0.47 9.07, -0.11 7.36, 0.08 5.89 C0.27 4.41, 1.23 2.43, 2.36 1.48 C3.48 0.53, 6.04 0.4, 6.84 0.18 C7.63 -0.04, 7.11 0.1, 7.13 0.15" stroke="none" stroke-width="0" fill="#ffffff"></path><path d="M7.23 -0.06 C8.66 -0.16, 10.63 0.59, 11.75 1.61 C12.86 2.63, 13.75 4.51, 13.95 6.05 C14.15 7.59, 13.75 9.54, 12.95 10.84 C12.16 12.14, 10.58 13.37, 9.17 13.83 C7.76 14.3, 5.89 14.21, 4.5 13.63 C3.11 13.05, 1.56 11.67, 0.84 10.36 C0.13 9.04, -0.13 7.22, 0.19 5.74 C0.52 4.26, 1.64 2.41, 2.8 1.46 C3.96 0.52, 6.39 0.25, 7.14 0.05 C7.9 -0.14, 7.3 0.2, 7.33 0.29 M7.29 0.21 C8.71 0.16, 10.75 0.97, 11.88 1.93 C13 2.89, 13.85 4.44, 14.04 5.97 C14.23 7.5, 13.86 9.86, 13.03 11.13 C12.2 12.4, 10.52 13.21, 9.07 13.61 C7.62 14.01, 5.73 14.08, 4.35 13.51 C2.96 12.93, 1.47 11.52, 0.76 10.17 C0.05 8.82, -0.26 6.9, 0.11 5.43 C0.48 3.96, 1.8 2.29, 2.98 1.36 C4.16 0.43, 6.46 0.07, 7.19 -0.15 C7.92 -0.36, 7.33 -0.12, 7.33 0.06" stroke="#000000" stroke-width="2" fill="none"></path></g><g stroke-linecap="round"><g transform="translate(3299.1231907577203 1344.4500865482623) rotate(0 64.50950996832034 4.884830287464865)" fill-rule="evenodd"><path d="M0.64 0.86 C-0.8 1.19, -9.48 1.02, -9.05 2.35 C-8.61 3.68, -19.13 7.25, 3.24 8.81 C25.61 10.37, 103.19 12.26, 125.16 11.69 C147.13 11.12, 134.74 7.42, 135.06 5.39 C135.39 3.35, 149.73 0.21, 127.1 -0.54 C104.48 -1.29, 20.51 0.77, -0.68 0.87" stroke="none" stroke-width="0" fill="#ced4da" fill-rule="evenodd"></path><path d="M0.06 0.07 C-1.36 0.6, -8.98 1.84, -8.51 3.32 C-8.05 4.79, -19.24 7.58, 2.85 8.91 C24.95 10.24, 101.88 12.02, 124.05 11.29 C146.22 10.57, 135.42 6.71, 135.89 4.55 C136.35 2.39, 149.45 -0.92, 126.82 -1.67 C104.19 -2.42, 21.22 -0.24, 0.09 0.04 M-0.13 -0.05 C-1.56 0.49, -9.07 2.01, -8.6 3.54 C-8.12 5.06, -19.39 7.8, 2.71 9.11 C24.81 10.42, 101.84 12.17, 124 11.41 C146.17 10.65, 135.26 6.68, 135.68 4.55 C136.1 2.43, 149.11 -0.56, 126.53 -1.34 C103.95 -2.12, 21.34 -0.36, 0.23 -0.14" stroke="#000000" stroke-width="2" fill="none"></path></g></g><mask></mask><g stroke-linecap="round" transform="translate(3321.488029404096 1153.1793498450643) rotate(0 42.3551408567364 42.35514085673822)"><path d="M57.96 2.24 C64.81 4.56, 72.53 12.02, 77.02 18.52 C81.51 25.03, 84.63 33.76, 84.89 41.29 C85.16 48.82, 82.64 57.08, 78.61 63.7 C74.59 70.32, 67.67 77.69, 60.77 81.03 C53.88 84.37, 44.75 84.62, 37.25 83.73 C29.75 82.84, 21.67 80.42, 15.77 75.71 C9.87 71.01, 4.34 62.79, 1.86 55.5 C-0.63 48.21, -0.98 39.38, 0.89 31.98 C2.76 24.58, 7.28 16.41, 13.07 11.12 C18.87 5.83, 27.88 1.57, 35.66 0.26 C43.45 -1.05, 55.73 2.59, 59.79 3.28 C63.85 3.96, 60.41 3.48, 60.01 4.36 M21.88 3.79 C27.87 0.04, 37.19 0.32, 45.02 1.18 C52.85 2.04, 62.75 4.64, 68.85 8.93 C74.96 13.21, 79.1 19.72, 81.66 26.91 C84.23 34.1, 85.96 44.59, 84.25 52.09 C82.54 59.6, 76.94 66.41, 71.39 71.94 C65.85 77.47, 58.57 83.79, 50.98 85.28 C43.39 86.78, 33.06 84.1, 25.86 80.89 C18.65 77.68, 11.92 71.88, 7.76 66.03 C3.6 60.18, 1.51 53.12, 0.91 45.77 C0.31 38.41, 0.44 28.5, 4.16 21.91 C7.88 15.33, 20.21 8.89, 23.23 6.25 C26.24 3.61, 21.97 5.86, 22.26 6.09" stroke="none" stroke-width="0" fill="#ffffff"></path><path d="M34.14 0.9 C41.04 -0.76, 50.69 0.73, 57.73 3.66 C64.77 6.59, 71.85 12.32, 76.37 18.5 C80.9 24.67, 84.47 33.22, 84.88 40.72 C85.3 48.21, 82.71 56.8, 78.86 63.46 C75.01 70.12, 68.47 77.23, 61.8 80.68 C55.12 84.12, 46.57 84.95, 38.79 84.13 C31.01 83.31, 21.22 80.31, 15.12 75.75 C9.01 71.19, 4.43 64.14, 2.16 56.76 C-0.1 49.37, -0.43 38.91, 1.53 31.43 C3.49 23.94, 7.36 17.16, 13.94 11.84 C20.52 6.51, 35.6 1.29, 41 -0.52 C46.41 -2.33, 46.47 0.18, 46.37 0.97 M23.64 3.19 C29.89 -0.75, 40.09 -0.9, 47.7 0.11 C55.3 1.13, 63.51 4.4, 69.27 9.26 C75.02 14.12, 79.76 21.99, 82.24 29.28 C84.72 36.56, 86.27 45.72, 84.15 52.97 C82.02 60.22, 75.36 67.67, 69.49 72.77 C63.61 77.87, 56.33 81.99, 48.88 83.58 C41.43 85.17, 31.54 85.18, 24.81 82.33 C18.08 79.48, 12.54 73, 8.51 66.49 C4.47 59.98, 1.14 51.08, 0.59 43.24 C0.05 35.41, 1.26 26.19, 5.25 19.45 C9.24 12.72, 21.26 5.26, 24.51 2.82 C27.77 0.37, 24.4 3.91, 24.77 4.78" stroke="#000000" stroke-width="2" fill="none"></path></g><g stroke-linecap="round"><g transform="translate(3335.0126330044477 1193.9591692559334) rotate(356.85899504108176 9.225869324982341 -5.975069126810922)"><path d="M-0.07 0.01 C0.39 -1.21, 1.12 -5.35, 2.83 -7.35 C4.54 -9.34, 8.07 -11.86, 10.19 -11.96 C12.32 -12.06, 14.18 -9.71, 15.57 -7.95 C16.96 -6.19, 18.04 -2.5, 18.52 -1.41 M0.22 -0.14 C0.72 -1.33, 1.49 -5.22, 3.14 -7.16 C4.78 -9.11, 8.01 -11.71, 10.1 -11.82 C12.19 -11.94, 14.28 -9.59, 15.65 -7.85 C17.03 -6.1, 17.84 -2.38, 18.35 -1.34" stroke="#000000" stroke-width="2" fill="none"></path></g></g><mask></mask><g stroke-linecap="round"><g transform="translate(3370.8771081277846 1194.2778039996701) rotate(356.85899504108176 9.141072623064247 -5.853400453608629)"><path d="M-0.17 -0.08 C0.35 -1.31, 1.29 -5.39, 3.03 -7.37 C4.76 -9.35, 8.16 -11.89, 10.25 -11.96 C12.34 -12.03, 14.2 -9.55, 15.56 -7.8 C16.93 -6.05, 17.98 -2.52, 18.45 -1.46 M0.07 0.26 C0.57 -0.95, 1.22 -5.19, 2.91 -7.2 C4.59 -9.22, 8.07 -11.76, 10.19 -11.83 C12.31 -11.9, 14.3 -9.36, 15.64 -7.62 C16.99 -5.88, 17.76 -2.42, 18.24 -1.4" stroke="#000000" stroke-width="2" fill="none"></path></g></g><mask></mask><g stroke-linecap="round"><g transform="translate(3343.846775553033 1211.5851020554182) rotate(0 17.425979612762603 3.345680515494678)"><path d="M0.03 -0.1 C2.84 1.01, 10.9 6.26, 16.72 6.62 C22.55 6.98, 31.97 2.83, 35 2.06 M-0.15 0.2 C2.66 1.34, 10.79 6.43, 16.64 6.77 C22.49 7.11, 31.88 3.02, 34.94 2.25" stroke="#000000" stroke-width="2" fill="none"></path></g></g><mask></mask><g stroke-linecap="round"><g transform="translate(3362.21977575064 1149.7999150004252) rotate(0 -7.328503393084247 -3.435424982881159)"><path d="M0.09 -0.1 C-2.36 -1.22, -12.19 -5.67, -14.66 -6.8 M-0.07 0.19 C-2.53 -0.97, -12.29 -5.92, -14.74 -7.06" stroke="#000000" stroke-width="2" fill="none"></path></g></g><mask></mask><g stroke-linecap="round"><g transform="translate(3365.162352671996 1148.8532374893257) rotate(0 12.944370582292322 -1.29946926537923)"><path d="M0.07 0.03 C1.84 -0.36, 6.35 -2.01, 10.67 -2.43 C14.98 -2.85, 23.39 -2.48, 25.96 -2.48 M-0.07 -0.08 C1.67 -0.44, 6.24 -1.87, 10.56 -2.24 C14.88 -2.61, 23.24 -2.22, 25.84 -2.3" stroke="#000000" stroke-width="2" fill="none"></path></g></g><mask></mask><g stroke-linecap="round"><g transform="translate(3359.8743421604922 1151.42088649184) rotate(0 -13.851505074646411 -0.05056923650226963)"><path d="M0.02 -0.01 C-2.72 -0.19, -11.7 -1.29, -16.31 -1.08 C-20.93 -0.87, -25.75 0.9, -27.67 1.24 M-0.16 -0.14 C-2.92 -0.37, -11.86 -1.51, -16.45 -1.32 C-21.05 -1.13, -25.83 0.61, -27.72 1.01" stroke="#000000" stroke-width="2" fill="none"></path></g></g><mask></mask><g transform="translate(2112.428131599143 690.3217849200664) rotate(0 250.2001359383321 40.31177671545993)"><text x="0" y="0" font-family="Virgil, Segoe UI Emoji" font-size="64.49884274473489px" fill="#1e1e1e" text-anchor="start" style="white-space: pre;" direction="ltr" dominant-baseline="text-before-edge">READ / WRITE</text></g><g stroke-linecap="round"><g transform="translate(1068.3745602228628 2095.9514514882867) rotate(0 198.35554392433914 187.72223450502133)" fill-rule="evenodd"><path d="M-1.47 -1.5 C-1.43 51.26, -0.38 253.34, 1.19 316.22 C2.76 379.11, -1.26 362.29, 7.97 375.81 C17.2 389.33, 36.64 391.33, 56.57 397.33 C76.5 403.34, 102.85 408.14, 127.55 411.83 C152.25 415.52, 181.45 419.33, 204.79 419.49 C228.13 419.65, 247.22 415.51, 267.58 412.8 C287.94 410.1, 306.33 409.65, 326.94 403.27 C347.54 396.88, 379.75 388.68, 391.21 374.5 C402.67 360.31, 394.7 373.58, 395.7 318.16 C396.71 262.74, 397.39 95.49, 397.24 41.98 C397.09 -11.54, 404.08 8.32, 394.79 -2.91 C385.5 -14.14, 359.2 -19.26, 341.51 -25.38 C323.83 -31.5, 309.77 -36.54, 288.69 -39.61 C267.61 -42.69, 234.8 -43.15, 215.02 -43.81 C195.25 -44.48, 193.92 -45.6, 170.04 -43.62 C146.16 -41.64, 100.26 -39.18, 71.75 -31.93 C43.24 -24.68, 11.13 -5.13, -1.03 -0.1" stroke="none" stroke-width="0" fill="#228be6" fill-rule="evenodd"></path><path d="M0.66 0.88 C0.65 53.76, -1.54 255.07, -0.43 317.62 C0.67 380.16, -2.07 362.8, 7.3 376.16 C16.66 389.51, 36.05 391.29, 55.78 397.74 C75.5 404.2, 101.07 411.27, 125.65 414.9 C150.23 418.53, 179.64 419.5, 203.26 419.53 C226.89 419.56, 246.41 417.72, 267.41 415.07 C288.41 412.41, 308.82 410.63, 329.29 403.6 C349.76 396.57, 379.32 386.89, 390.24 372.89 C401.17 358.89, 393.58 374.66, 394.82 319.6 C396.06 264.54, 397.97 96.04, 397.68 42.52 C397.39 -11, 402.14 9.82, 393.08 -1.53 C384.03 -12.88, 360.93 -19.36, 343.33 -25.59 C325.73 -31.82, 308.65 -36, 287.49 -38.91 C266.33 -41.81, 236.17 -42.27, 216.38 -43.01 C196.6 -43.76, 192.85 -44.8, 168.77 -43.38 C144.7 -41.96, 100.2 -41.86, 71.94 -34.49 C43.69 -27.13, 11.08 -4.98, -0.75 0.81 M-0.45 0.3 C-0.62 53.27, -2.8 255.77, -1.61 318.62 C-0.41 381.48, -2.99 364.03, 6.7 377.42 C16.39 390.82, 36.41 392.64, 56.53 399.02 C76.65 405.39, 103.3 412.34, 127.41 415.68 C151.53 419.02, 177.84 419.29, 201.22 419.04 C224.6 418.79, 246.51 416.82, 267.69 414.19 C288.86 411.57, 308.12 409.9, 328.26 403.3 C348.4 396.7, 377.28 388.53, 388.53 374.59 C399.78 360.65, 394.19 374.91, 395.76 319.66 C397.33 264.4, 398.59 96.66, 397.94 43.05 C397.29 -10.57, 400.9 9.58, 391.83 -2.03 C382.77 -13.63, 361.1 -20.39, 343.56 -26.58 C326.02 -32.77, 307.69 -36.29, 286.61 -39.15 C265.52 -42, 236.64 -43.13, 217.07 -43.69 C197.51 -44.24, 193.04 -44.12, 169.22 -42.5 C145.39 -40.88, 102.11 -41.32, 74.11 -33.97 C46.11 -26.62, 13.57 -4.17, 1.23 1.6" stroke="#364fc7" stroke-width="1" fill="none"></path></g></g><mask></mask><g stroke-linecap="round" transform="translate(1066.9099096912141 2047.6156352562793) rotate(0 198.54777936510436 53.98412443620509)"><path d="M111.47 5.04 C127.49 1.92, 150.2 1.51, 170.17 0.8 C190.14 0.1, 211.15 -0.14, 231.31 0.82 C251.46 1.79, 273.01 4.07, 291.1 6.59 C309.18 9.11, 325.54 12.08, 339.8 15.94 C354.05 19.81, 367.5 24.63, 376.61 29.79 C385.73 34.96, 391.46 41.42, 394.48 46.92 C397.49 52.42, 398.2 57.55, 394.7 62.8 C391.19 68.05, 382.89 73.36, 373.46 78.42 C364.03 83.48, 352.47 89.3, 338.12 93.16 C323.77 97.03, 305.86 99.41, 287.35 101.63 C268.84 103.84, 247.58 105.53, 227.06 106.44 C206.55 107.34, 184.31 107.71, 164.26 107.04 C144.22 106.38, 124.66 104.97, 106.78 102.45 C88.9 99.92, 71.2 96.05, 56.99 91.89 C42.79 87.72, 30.85 82.66, 21.57 77.47 C12.29 72.29, 4.39 66.13, 1.31 60.79 C-1.77 55.45, -0.36 50.64, 3.1 45.44 C6.57 40.23, 12.61 34.73, 22.09 29.56 C31.56 24.38, 41.37 18.94, 59.93 14.39 C78.5 9.84, 117.55 4.39, 133.5 2.24 C149.45 0.09, 154.77 0.46, 155.64 1.49 M263.25 1.87 C282.71 2.75, 302.86 8.64, 319.08 12.17 C335.3 15.7, 348.9 18.64, 360.58 23.05 C372.26 27.46, 382.95 33.12, 389.16 38.63 C395.37 44.13, 398.61 50.47, 397.83 56.05 C397.05 61.64, 391.46 66.99, 384.5 72.13 C377.54 77.28, 368.25 82.55, 356.05 86.94 C343.85 91.33, 327.86 95.26, 311.31 98.47 C294.75 101.68, 276.11 104.49, 256.74 106.21 C237.37 107.93, 215.9 109.08, 195.1 108.78 C174.29 108.48, 151.27 106.3, 131.89 104.41 C112.51 102.52, 94.76 100.89, 78.83 97.47 C62.89 94.05, 47.95 88.54, 36.27 83.89 C24.6 79.24, 14.87 74.77, 8.75 69.57 C2.63 64.38, -0.91 58.29, -0.45 52.72 C0.02 47.15, 4.45 41.33, 11.53 36.16 C18.61 30.98, 29.44 25.98, 42.03 21.68 C54.61 17.37, 70.29 13.47, 87.04 10.3 C103.79 7.13, 123.23 4.49, 142.52 2.65 C161.82 0.8, 182.37 -0.97, 202.84 -0.75 C223.31 -0.53, 255.14 2.94, 265.33 3.99 C275.53 5.03, 265.08 4.57, 264 5.51" stroke="none" stroke-width="0" fill="#ffffff"></path><path d="M225.79 -0.18 C245.58 -0.39, 267.09 3.27, 285.6 5.71 C304.11 8.15, 322.08 10.65, 336.86 14.44 C351.64 18.24, 364.76 23.49, 374.29 28.48 C383.82 33.46, 390.69 38.85, 394.03 44.37 C397.37 49.89, 397 56.09, 394.35 61.59 C391.69 67.09, 386.98 72.38, 378.1 77.39 C369.23 82.39, 355.42 87.58, 341.1 91.61 C326.79 95.64, 310.18 99.03, 292.23 101.56 C274.29 104.1, 253.55 105.75, 233.43 106.83 C213.3 107.91, 191.75 108.91, 171.5 108.04 C151.25 107.18, 130.43 104.22, 111.93 101.64 C93.43 99.06, 75.31 96.36, 60.52 92.56 C45.73 88.77, 32.65 83.57, 23.2 78.86 C13.75 74.16, 7.33 69.63, 3.81 64.33 C0.29 59.02, -0.58 52.78, 2.06 47.04 C4.71 41.3, 10.91 34.87, 19.67 29.88 C28.44 24.89, 40.63 20.95, 54.65 17.1 C68.66 13.26, 85.66 9.4, 103.76 6.81 C121.86 4.23, 142.23 2.52, 163.23 1.57 C184.23 0.62, 218.24 0.93, 229.77 1.12 C241.29 1.31, 232.85 1.94, 232.41 2.72 M144.4 2.41 C162.58 0.11, 185.97 -0.25, 206.26 -0.25 C226.55 -0.25, 246.85 0.59, 266.15 2.39 C285.45 4.18, 306.06 6.96, 322.05 10.52 C338.04 14.08, 350.74 19.06, 362.06 23.75 C373.37 28.43, 384.19 33.37, 389.94 38.62 C395.69 43.88, 397.35 49.71, 396.56 55.25 C395.77 60.79, 392.19 66.33, 385.19 71.88 C378.19 77.43, 367.3 84.07, 354.58 88.54 C341.87 93.01, 325.93 95.97, 308.91 98.68 C291.89 101.39, 272.24 103.41, 252.49 104.78 C232.74 106.15, 210.49 107.15, 190.4 106.9 C170.31 106.65, 151 104.96, 131.96 103.26 C112.91 101.56, 92.62 100.06, 76.15 96.7 C59.68 93.34, 44.7 87.58, 33.11 83.11 C21.52 78.64, 12.01 75.03, 6.6 69.87 C1.2 64.7, -0.13 58.08, 0.66 52.13 C1.46 46.18, 4.34 39.41, 11.36 34.19 C18.38 28.96, 30.15 25.07, 42.79 20.77 C55.42 16.46, 70.26 11.23, 87.16 8.35 C104.06 5.47, 134.72 4.5, 144.19 3.48 C153.65 2.46, 143.12 1.79, 143.93 2.23" stroke="#364fc7" stroke-width="1" fill="none"></path></g><g transform="translate(1028.8036980277284 2518.2336186280263) rotate(0 240.06104403873542 49.022706601223035)"><text x="240.06104403873692" y="0" font-family="Virgil, Segoe UI Emoji" font-size="78.43633056195806px" fill="#000000" text-anchor="middle" style="white-space: pre;" direction="ltr" dominant-baseline="text-before-edge">Database 3</text></g><g stroke-linecap="round"><g transform="translate(1820.2942915330968 1648.9142323226333) rotate(0 -153.52021737916948 196.0629399859081)"><path d="M0.97 0.32 C-50.42 65.79, -256.71 327.23, -308.01 392.68 M0.01 -0.55 C-51.02 64.58, -254.49 325.65, -305.72 390.94" stroke="#1e1e1e" stroke-width="4" fill="none"></path></g><g transform="translate(1820.2942915330968 1648.9142323226333) rotate(0 -153.52021737916948 196.0629399859081)"><path d="M-296.44 362.41 C-298.96 370.47, -301.3 381.81, -305.72 390.94 M-296.44 362.41 C-300.2 373.6, -303.86 383.67, -305.72 390.94" stroke="#1e1e1e" stroke-width="4" fill="none"></path></g><g transform="translate(1820.2942915330968 1648.9142323226333) rotate(0 -153.52021737916948 196.0629399859081)"><path d="M-280.28 375.05 C-288.07 379.1, -295.71 386.31, -305.72 390.94 M-280.28 375.05 C-290.22 381.47, -300.14 386.64, -305.72 390.94" stroke="#1e1e1e" stroke-width="4" fill="none"></path></g></g><mask></mask><g transform="translate(2409.9643684511866 1659.5071079558911) rotate(0 267.09052738601895 34.86922446684912)"><text x="0" y="0" font-family="Virgil, Segoe UI Emoji" font-size="55.79075914695974px" fill="#1e1e1e" text-anchor="start" style="white-space: pre;" direction="ltr" dominant-baseline="text-before-edge">Propagate WRITEs</text></g><g transform="translate(1180.9617974549947 1663.9208061364188) rotate(0 250.1843361750034 32.661366535881825)"><text x="0" y="0" font-family="Virgil, Segoe UI Emoji" font-size="52.258186457412094px" fill="#1e1e1e" text-anchor="start" style="white-space: pre;" direction="ltr" dominant-baseline="text-before-edge">Propagate WRITEs</text></g><g stroke-linecap="round"><g transform="translate(3313.889755822649 1465.3043880128098) rotate(0 -102.30383382195942 294.064172172697)"><path d="M-0.7 0.9 C-34.89 98.43, -170.77 488.86, -204.8 586.22 M1.14 0.32 C-33.25 98.58, -171.28 490.23, -205.75 587.8" stroke="#1e1e1e" stroke-width="4" fill="none"></path></g><g transform="translate(3313.889755822649 1465.3043880128098) rotate(0 -102.30383382195942 294.064172172697)"><path d="M-206.05 557.81 C-204.19 567.78, -205.44 577.64, -205.75 587.8 M-206.05 557.81 C-206 563.35, -205.58 570.24, -205.75 587.8" stroke="#1e1e1e" stroke-width="4" fill="none"></path></g><g transform="translate(3313.889755822649 1465.3043880128098) rotate(0 -102.30383382195942 294.064172172697)"><path d="M-186.69 564.63 C-191.33 572.23, -199.03 579.81, -205.75 587.8 M-186.69 564.63 C-190.71 568.9, -194.35 574.36, -205.75 587.8" stroke="#1e1e1e" stroke-width="4" fill="none"></path></g></g><mask></mask><g transform="translate(3045.5369064467413 1334.6589218692752) rotate(0 100.41163360693463 45.019721441352885)"><text x="0" y="0" font-family="Virgil, Segoe UI Emoji" font-size="72.03155430616319px" fill="#1e1e1e" text-anchor="start" style="white-space: pre;" direction="ltr" dominant-baseline="text-before-edge">READ</text></g><g stroke-linecap="round"><g transform="translate(3172.6514140458494 2076.1602161974224) rotate(0 100.0081736281063 -292.91379749668886)"><path d="M-0.08 -1.09 C33.52 -98.63, 168.05 -487.51, 201.59 -585.17 M-1.58 0.95 C31.89 -96.92, 167.17 -488.93, 200.82 -586.78" stroke="#1e1e1e" stroke-width="4" fill="none"></path></g><g transform="translate(3172.6514140458494 2076.1602161974224) rotate(0 100.0081736281063 -292.91379749668886)"><path d="M201.33 -556.79 C199.34 -565.23, 202.62 -574.97, 200.82 -586.78 M201.33 -556.79 C201.14 -563.85, 200.73 -570.47, 200.82 -586.78" stroke="#1e1e1e" stroke-width="4" fill="none"></path></g><g transform="translate(3172.6514140458494 2076.1602161974224) rotate(0 100.0081736281063 -292.91379749668886)"><path d="M181.93 -563.47 C185.76 -569.9, 194.86 -577.63, 200.82 -586.78 M181.93 -563.47 C186.16 -568.99, 190.15 -574.1, 200.82 -586.78" stroke="#1e1e1e" stroke-width="4" fill="none"></path></g></g><mask></mask><g stroke-linecap="round"><g transform="translate(718.238568814344 1256.7912790497576) rotate(0 -1.0312259391030238 -40.75853242069388)" fill-rule="evenodd"><path d="M-1.47 -1.5 C-9.31 -1.85, -38.63 6.05, -46.1 -2.4 C-53.57 -10.86, -48.68 -40.41, -46.29 -52.25 C-43.9 -64.09, -39.25 -67.49, -31.75 -73.42 C-24.24 -79.36, -12.51 -88.28, -1.26 -87.86 C9.98 -87.44, 27.94 -77.07, 35.73 -70.9 C43.53 -64.73, 43.98 -62.62, 45.51 -50.84 C47.05 -39.07, 52.37 -8.81, 44.93 -0.25 C37.49 8.31, 8.17 0.56, 0.89 0.52" stroke="none" stroke-width="0" fill="#4c6ef5" fill-rule="evenodd"></path><path d="M0.33 0.97 C-7.56 1.01, -39.52 7.94, -47.41 -0.88 C-55.29 -9.7, -49.3 -39.83, -46.98 -51.95 C-44.66 -64.08, -40.89 -68.04, -33.51 -73.65 C-26.12 -79.26, -14.03 -85.87, -2.7 -85.62 C8.64 -85.37, 26.57 -78.03, 34.5 -72.13 C42.44 -66.22, 42.86 -62.13, 44.91 -50.18 C46.97 -38.23, 54.44 -8.92, 46.83 -0.43 C39.22 8.07, 6.89 0.69, -0.75 0.81 M-0.96 0.44 C-9.01 0.69, -40.65 8.72, -48.42 0.2 C-56.19 -8.33, -50.11 -38.56, -47.59 -50.71 C-45.06 -62.86, -41.07 -66.95, -33.26 -72.71 C-25.44 -78.47, -11.67 -85.18, -0.69 -85.28 C10.29 -85.37, 25.01 -79.46, 32.62 -73.28 C40.22 -67.11, 42.8 -60.28, 44.96 -48.23 C47.12 -36.19, 52.92 -9, 45.57 -0.99 C38.21 7.02, 8.67 -0.31, 0.84 -0.15" stroke="#000000" stroke-width="2" fill="none"></path></g></g><mask></mask><g stroke-linecap="round" transform="translate(655.2899026472915 1207.219919062598) rotate(0 63.5327112851046 42.35514085673822)"><path d="M-0.84 -0.08 L126.07 -1.47 L125.49 83.33 L1.8 82.78" stroke="none" stroke-width="0" fill="#ced4da"></path><path d="M0 0 C40.12 0.64, 82.94 0.13, 127.07 0 M0 0 C35.4 -0.09, 68.71 -0.49, 127.07 0 M127.07 0 C128.11 23.77, 127.21 45.14, 127.07 84.71 M127.07 0 C127.04 23.35, 126.97 48.49, 127.07 84.71 M127.07 84.71 C77.91 86.84, 33.39 84.84, 0 84.71 M127.07 84.71 C96.4 84.79, 65.5 84.39, 0 84.71 M0 84.71 C-0.75 59.75, 0.41 38.46, 0 0 M0 84.71 C0.29 61.67, -0.03 40.28, 0 0" stroke="#000000" stroke-width="2" fill="none"></path></g><g stroke-linecap="round" transform="translate(711.7687018095785 1242.5211477965204) rotate(0 7.0539121228175645 7.0539121228157455)"><path d="M7.64 -0.07 C9.09 -0.07, 10.79 0.82, 11.88 1.9 C12.98 2.99, 14.03 4.94, 14.2 6.46 C14.36 7.97, 13.77 9.74, 12.86 10.99 C11.96 12.23, 10.22 13.53, 8.77 13.94 C7.31 14.34, 5.48 14.06, 4.12 13.42 C2.75 12.78, 1.2 11.49, 0.58 10.12 C-0.04 8.74, 0.01 6.63, 0.39 5.15 C0.78 3.68, 1.67 2.11, 2.86 1.27 C4.05 0.43, 6.7 0.34, 7.53 0.13 C8.36 -0.08, 7.81 -0.1, 7.83 0.01 M7.71 -0.15 C9.18 -0.12, 10.96 1.07, 12.04 2.13 C13.12 3.19, 14.07 4.7, 14.19 6.2 C14.31 7.7, 13.65 9.85, 12.76 11.11 C11.86 12.36, 10.24 13.31, 8.83 13.72 C7.42 14.13, 5.66 14.22, 4.29 13.57 C2.92 12.92, 1.3 11.16, 0.6 9.81 C-0.11 8.46, -0.36 6.87, 0.06 5.48 C0.48 4.1, 1.91 2.42, 3.14 1.5 C4.37 0.58, 6.74 0.23, 7.45 -0.03 C8.15 -0.29, 7.36 -0.22, 7.38 -0.07" stroke="none" stroke-width="0" fill="#ffffff"></path><path d="M7.04 0.1 C8.48 -0.01, 10.41 0.54, 11.56 1.48 C12.7 2.42, 13.64 4.26, 13.9 5.76 C14.15 7.26, 13.82 9.12, 13.1 10.47 C12.38 11.81, 10.99 13.28, 9.59 13.82 C8.18 14.37, 6.13 14.31, 4.68 13.75 C3.24 13.19, 1.7 11.78, 0.92 10.47 C0.14 9.17, -0.24 7.37, 0 5.92 C0.23 4.46, 1.16 2.69, 2.34 1.72 C3.52 0.76, 6.27 0.38, 7.07 0.13 C7.87 -0.12, 7.17 0.1, 7.15 0.22 M7.05 -0.02 C8.52 -0.03, 10.69 0.87, 11.88 1.88 C13.07 2.89, 13.99 4.57, 14.17 6.03 C14.35 7.5, 13.76 9.39, 12.97 10.65 C12.18 11.91, 10.9 13.11, 9.44 13.6 C7.98 14.09, 5.62 14.13, 4.2 13.58 C2.78 13.02, 1.6 11.62, 0.91 10.27 C0.23 8.91, -0.22 6.94, 0.08 5.46 C0.39 3.98, 1.54 2.25, 2.74 1.38 C3.93 0.51, 6.5 0.45, 7.24 0.24 C7.99 0.03, 7.21 0.09, 7.19 0.13" stroke="#000000" stroke-width="2" fill="none"></path></g><g stroke-linecap="round"><g transform="translate(782.6890006924987 1284.8378926619116) rotate(0 -64.54339881116539 4.9195306803776475)" fill-rule="evenodd"><path d="M0.57 -1.14 C2.2 -0.5, 9.54 1.46, 9.1 3.12 C8.66 4.79, 20.05 7.67, -2.08 8.86 C-24.22 10.05, -101.56 10.89, -123.7 10.27 C-145.85 9.65, -134.39 7.22, -134.94 5.14 C-135.48 3.07, -149.28 -1.33, -126.97 -2.21 C-104.67 -3.08, -22.35 -0.53, -1.12 -0.12" stroke="none" stroke-width="0" fill="#ced4da" fill-rule="evenodd"></path><path d="M0 -0.05 C1.42 0.51, 9.04 1.83, 8.57 3.32 C8.1 4.8, 19.34 7.54, -2.82 8.86 C-24.98 10.19, -102.21 11.98, -124.39 11.27 C-146.58 10.56, -135.51 6.72, -135.92 4.6 C-136.33 2.48, -149.51 -0.67, -126.84 -1.43 C-104.16 -2.19, -21.01 -0.19, 0.14 0.04 M-0.22 -0.23 C1.17 0.36, 8.85 1.99, 8.41 3.54 C7.96 5.09, 19.26 7.74, -2.88 9.04 C-25.02 10.35, -102.32 12.12, -124.44 11.38 C-146.57 10.65, -135.26 6.78, -135.63 4.63 C-136 2.48, -149.25 -0.73, -126.68 -1.53 C-104.12 -2.32, -21.34 -0.38, -0.23 -0.14" stroke="#000000" stroke-width="2" fill="none"></path></g></g><mask></mask><g stroke-linecap="round" transform="translate(675.7099462793449 1093.5671559587136) rotate(0 42.3551408567364 42.35514085673822)"><path d="M51.17 1.27 C58.53 2.24, 68.18 6.63, 73.52 12.01 C78.86 17.4, 81.96 25.9, 83.23 33.58 C84.5 41.26, 83.66 51.1, 81.15 58.1 C78.63 65.1, 74.13 71.11, 68.15 75.59 C62.18 80.07, 52.88 84.45, 45.3 84.98 C37.71 85.52, 29.31 82.52, 22.64 78.78 C15.98 75.04, 9.18 69.17, 5.32 62.53 C1.46 55.9, -1.12 46.56, -0.5 38.98 C0.11 31.4, 4.39 23.19, 8.99 17.06 C13.6 10.93, 19.73 4.85, 27.12 2.2 C34.51 -0.45, 48.87 0.97, 53.35 1.17 C57.82 1.37, 54.08 2.72, 53.96 3.4 M24.6 5.47 C30.83 1.49, 38.97 -0.48, 46.17 -0.01 C53.37 0.46, 61.76 3.3, 67.81 8.31 C73.85 13.33, 79.69 22.48, 82.44 30.1 C85.18 37.71, 86.15 46.49, 84.28 54 C82.4 61.5, 77.11 70.3, 71.19 75.13 C65.28 79.95, 56.63 81.84, 48.81 82.94 C40.99 84.04, 31.05 84.69, 24.27 81.74 C17.49 78.78, 12.01 71.56, 8.13 65.2 C4.25 58.84, 1.57 50.85, 1 43.59 C0.42 36.34, 1.1 28.45, 4.69 21.67 C8.28 14.89, 19.51 5.79, 22.54 2.9 C25.57 0.02, 22.3 3.31, 22.88 4.34" stroke="none" stroke-width="0" fill="#ffffff"></path><path d="M53.74 1.35 C60.84 2.88, 68.84 8.05, 74.04 14.02 C79.24 19.99, 83.79 29.44, 84.96 37.16 C86.14 44.89, 84.4 53.67, 81.09 60.37 C77.78 67.08, 71.66 73.27, 65.09 77.41 C58.53 81.55, 49.47 85.04, 41.7 85.2 C33.92 85.36, 24.78 82.47, 18.44 78.37 C12.09 74.28, 6.64 67.57, 3.63 60.63 C0.62 53.69, -0.56 44.27, 0.4 36.73 C1.37 29.19, 4.34 21.24, 9.42 15.37 C14.5 9.5, 22.84 3.7, 30.87 1.49 C38.91 -0.72, 52.54 1.37, 57.62 2.11 C62.71 2.84, 61.53 4.99, 61.39 5.89 M39.58 -0.74 C46.62 -1.88, 54 1.08, 60.67 4.66 C67.33 8.23, 75.64 14.19, 79.57 20.71 C83.5 27.22, 84.69 36.16, 84.25 43.76 C83.81 51.37, 81.36 59.82, 76.93 66.36 C72.5 72.9, 64.89 80.07, 57.68 82.99 C50.47 85.91, 41.24 85.73, 33.69 83.88 C26.13 82.03, 17.98 77.33, 12.37 71.89 C6.75 66.46, 1.46 58.76, 0.01 51.29 C-1.44 43.81, 1.01 34.04, 3.69 27.03 C6.36 20.03, 10.42 13.88, 16.06 9.23 C21.7 4.58, 33.99 0.34, 37.54 -0.86 C41.09 -2.06, 37.06 1.16, 37.35 2.05" stroke="#000000" stroke-width="2" fill="none"></path></g><g stroke-linecap="round"><g transform="translate(746.9369394430723 1134.3469753695827) rotate(3.1410049589182636 -9.16614199945252 -5.972532465530094)"><path d="M0.1 -0.03 C-0.42 -1.26, -1.44 -5.39, -3.16 -7.37 C-4.88 -9.35, -8.16 -11.85, -10.23 -11.91 C-12.3 -11.97, -14.25 -9.47, -15.59 -7.72 C-16.93 -5.97, -17.83 -2.45, -18.29 -1.41 M-0.06 -0.2 C-0.52 -1.41, -1.13 -5.27, -2.85 -7.19 C-4.57 -9.12, -8.25 -11.61, -10.38 -11.75 C-12.5 -11.89, -14.27 -9.77, -15.61 -8.03 C-16.95 -6.29, -17.93 -2.4, -18.43 -1.33" stroke="#000000" stroke-width="2" fill="none"></path></g></g><mask></mask><g stroke-linecap="round"><g transform="translate(711.0819605376346 1134.6656101133194) rotate(3.1410049589182636 -9.236382879818848 -5.893159558918342)"><path d="M-0.17 -0.1 C-0.69 -1.32, -1.38 -5.39, -3.06 -7.33 C-4.75 -9.26, -8.23 -11.65, -10.27 -11.73 C-12.32 -11.81, -13.99 -9.51, -15.34 -7.8 C-16.69 -6.09, -17.83 -2.51, -18.36 -1.47 M0.07 0.23 C-0.49 -0.96, -1.57 -5.09, -3.23 -7.13 C-4.9 -9.17, -7.91 -11.93, -9.91 -12.01 C-11.91 -12.09, -13.79 -9.38, -15.23 -7.62 C-16.67 -5.85, -18.02 -2.49, -18.54 -1.43" stroke="#000000" stroke-width="2" fill="none"></path></g></g><mask></mask><g stroke-linecap="round"><g transform="translate(738.079279500369 1151.9729081690675) rotate(0 -17.314643504269043 3.313153797225823)"><path d="M-0.06 -0.06 C-2.83 1.1, -10.95 6.48, -16.74 6.83 C-22.53 7.19, -31.77 2.87, -34.79 2.06 M0.2 -0.23 C-2.5 0.89, -10.59 6.19, -16.43 6.6 C-22.27 7.02, -31.77 3, -34.83 2.26" stroke="#000000" stroke-width="2" fill="none"></path></g></g><mask></mask><g stroke-linecap="round"><g transform="translate(719.7486164448092 1090.1877211140745) rotate(0 7.380585938000877 -3.4753680036446895)"><path d="M-0.1 0.11 C2.39 -1.01, 12.38 -5.63, 14.86 -6.79 M0.14 0.03 C2.62 -1.14, 12.37 -5.94, 14.8 -7.06" stroke="#000000" stroke-width="2" fill="none"></path></g></g><mask></mask><g stroke-linecap="round"><g transform="translate(716.7721311609093 1089.241043602975) rotate(0 -12.988921740405203 -1.3253327576931042)"><path d="M0.12 0.03 C-1.63 -0.39, -6.22 -2, -10.59 -2.44 C-14.96 -2.88, -23.54 -2.58, -26.1 -2.62 M0 -0.08 C-1.76 -0.49, -6.38 -1.86, -10.68 -2.26 C-14.98 -2.66, -23.25 -2.44, -25.78 -2.5" stroke="#000000" stroke-width="2" fill="none"></path></g></g><mask></mask><g stroke-linecap="round"><g transform="translate(722.0633408478061 1091.8086926054893) rotate(0 13.864744973223424 -0.07927944928633224)"><path d="M0.06 -0.02 C2.73 -0.23, 11.55 -1.38, 16.17 -1.21 C20.8 -1.05, 25.88 0.6, 27.82 0.98 M-0.09 -0.16 C2.62 -0.35, 11.82 -1.27, 16.47 -1.07 C21.11 -0.86, 25.86 0.69, 27.77 1.07" stroke="#000000" stroke-width="2" fill="none"></path></g></g><mask></mask><g stroke-linecap="round"><g transform="translate(768.3716311237113 1405.692194126459) rotate(0 102.3286930086615 292.57217262312406)"><path d="M-0.72 -0.74 C33.43 96.78, 171.04 487.18, 205.38 584.96 M1.1 1.49 C35.11 99.13, 170.79 488.27, 204.74 585.88" stroke="#1e1e1e" stroke-width="4" fill="none"></path></g><g transform="translate(768.3716311237113 1405.692194126459) rotate(0 102.3286930086615 292.57217262312406)"><path d="M185.78 562.63 C190.94 571.59, 196.62 579.31, 204.74 585.88 M185.78 562.63 C191.74 568.25, 197.42 576.16, 204.74 585.88" stroke="#1e1e1e" stroke-width="4" fill="none"></path></g><g transform="translate(768.3716311237113 1405.692194126459) rotate(0 102.3286930086615 292.57217262312406)"><path d="M205.15 555.88 C203.75 567.01, 202.87 577.01, 204.74 585.88 M205.15 555.88 C205.7 563.39, 205.92 573.22, 204.74 585.88" stroke="#1e1e1e" stroke-width="4" fill="none"></path></g></g><mask></mask><g transform="translate(834.3769855388273 1310.3563134271317) rotate(0 100.41163360693463 45.019721441352885)"><text x="0" y="0" font-family="Virgil, Segoe UI Emoji" font-size="72.03155430616319px" fill="#1e1e1e" text-anchor="start" style="white-space: pre;" direction="ltr" dominant-baseline="text-before-edge">READ</text></g><g stroke-linecap="round"><g transform="translate(908.8566425211793 2016.5480223110717) rotate(0 -100.20345296438973 -293.19819340049435)"><path d="M0.49 -0.22 C-33.01 -97.72, -166.87 -488.34, -200.4 -586.18 M-0.71 -1.37 C-34.34 -98.57, -167.48 -487.13, -200.9 -584.67" stroke="#1e1e1e" stroke-width="4" fill="none"></path></g><g transform="translate(908.8566425211793 2016.5480223110717) rotate(0 -100.20345296438973 -293.19819340049435)"><path d="M-182.05 -561.32 C-188.75 -567.95, -195.03 -576.63, -200.9 -584.67 M-182.05 -561.32 C-186.31 -566.59, -190.92 -570.91, -200.9 -584.67" stroke="#1e1e1e" stroke-width="4" fill="none"></path></g><g transform="translate(908.8566425211793 2016.5480223110717) rotate(0 -100.20345296438973 -293.19819340049435)"><path d="M-201.47 -554.67 C-201.33 -563.69, -200.85 -574.7, -200.9 -584.67 M-201.47 -554.67 C-201.8 -561.38, -202.43 -567.07, -200.9 -584.67" stroke="#1e1e1e" stroke-width="4" fill="none"></path></g></g><mask></mask><g transform="translate(1174.1288779042843 222.4069803770617) rotate(0 907.5240168743039 52.08163853019141)"><text x="0" y="0" font-family="Virgil, Segoe UI Emoji" font-size="83.33062164830582px" fill="#1e1e1e" text-anchor="start" style="white-space: pre;" direction="ltr" dominant-baseline="text-before-edge">allowing only one server to modify the data.</text></g><g transform="translate(1816.7633329886776 1726.5953202998717) rotate(0 253.15705052026533 45.01972144135107)"><text x="0" y="0" font-family="Virgil, Segoe UI Emoji" font-size="72.03155430616265px" fill="#f08c00" text-anchor="start" style="white-space: pre;" direction="ltr" dominant-baseline="text-before-edge">Primary server</text></g><g transform="translate(953.7648755943628 2695.158326318069) rotate(0 372.57501220703125 45.01972144135107)"><text x="0" y="0" font-family="Virgil, Segoe UI Emoji" font-size="72.03155430616266px" fill="#f08c00" text-anchor="start" style="white-space: pre;" direction="ltr" dominant-baseline="text-before-edge">Warm Standby server</text></g><g transform="translate(2573.0742910358786 2695.55357674024) rotate(0 341.2083435058594 45.01972144135107)"><text x="0" y="0" font-family="Virgil, Segoe UI Emoji" font-size="72.03155430616266px" fill="#f08c00" text-anchor="start" style="white-space: pre;" direction="ltr" dominant-baseline="text-before-edge">Hot standby server</text></g><g stroke-linecap="round" transform="translate(729.4496369100707 1577.4496369100852) rotate(0 108.21702975658991 108.21702975658991)"><path d="M129.79 1.29 C142.22 1.74, 154.06 8.9, 164.93 15.93 C175.8 22.97, 187.08 33, 195 43.51 C202.92 54.01, 208.9 66.22, 212.44 78.96 C215.98 91.71, 217.48 106.82, 216.24 119.99 C215 133.16, 211.09 146.47, 204.98 158 C198.86 169.52, 189.43 180.58, 179.53 189.14 C169.64 197.7, 157.54 204.67, 145.6 209.34 C133.66 214.01, 120.79 217.3, 107.9 217.16 C95.02 217.02, 80.66 213.52, 68.3 208.49 C55.94 203.47, 43.41 195.7, 33.73 187.01 C24.04 178.32, 15.67 167.85, 10.19 156.35 C4.71 144.84, 1.83 131.21, 0.83 117.99 C-0.17 104.78, 0.54 89.75, 4.17 77.07 C7.81 64.39, 14.79 52.14, 22.65 41.9 C30.51 31.65, 40.28 22.29, 51.32 15.62 C62.37 8.94, 75.11 3.84, 88.93 1.85 C102.74 -0.15, 126 2.98, 134.23 3.65 C142.46 4.31, 138.91 4.3, 138.3 5.84 M145.6 7.81 C157.77 10.66, 170.52 19.17, 180.36 27.53 C190.19 35.9, 198.65 46.57, 204.61 57.99 C210.57 69.41, 214.87 83.25, 216.12 96.04 C217.37 108.84, 215.46 122.24, 212.1 134.77 C208.74 147.31, 203.69 160.5, 195.95 171.25 C188.21 182, 176.83 192.14, 165.66 199.27 C154.49 206.4, 141.35 211.62, 128.93 214.02 C116.51 216.43, 103.94 215.91, 91.15 213.67 C78.35 211.43, 63.35 207.3, 52.18 200.6 C41.01 193.9, 32.13 183.57, 24.11 173.49 C16.08 163.4, 7.88 152.37, 4.01 140.08 C0.15 127.79, -0.4 112.79, 0.92 99.76 C2.23 86.72, 6.3 73.82, 11.9 61.89 C17.49 49.95, 25.25 37.16, 34.49 28.17 C43.72 19.18, 55.56 12.53, 67.33 7.94 C79.09 3.36, 92.06 1.07, 105.08 0.65 C118.1 0.24, 139.05 3.94, 145.48 5.46 C151.9 6.99, 143.98 7.94, 143.62 9.82" stroke="#e03131" stroke-width="4" fill="none"></path></g><g stroke-linecap="round"><g transform="translate(819.8845859442408 1624.6370609001497) rotate(227.27022492945142 15.93120992549666 61.81962842900066)"><path d="M0.46 -0.75 C0.94 6.75, 9.13 36.62, 1.8 44.95 C-5.52 53.27, -36.25 44, -43.5 49.19 C-50.74 54.39, -49.21 71.61, -41.68 76.12 C-34.15 80.64, -5.7 68.77, 1.68 76.27 C9.07 83.78, -3.6 114.19, 2.63 121.15 C8.87 128.1, 33.11 125.18, 39.08 117.99 C45.05 110.8, 32.43 85.3, 38.45 78.02 C44.46 70.74, 68.94 79.58, 75.16 74.31 C81.38 69.04, 81.79 51.2, 75.77 46.4 C69.75 41.61, 46.26 52.69, 39.04 45.53 C31.82 38.38, 39.06 11.22, 32.43 3.47 C25.79 -4.27, 4.51 -0.47, -0.77 -0.96 M-0.76 1.47 C-0.25 8.66, 8.13 35.32, 1.41 43.4 C-5.3 51.47, -33.83 44.29, -41.04 49.92 C-48.26 55.56, -48.74 72.75, -41.87 77.19 C-35.01 81.64, -7.48 69.42, 0.13 76.61 C7.74 83.8, -2.3 113.63, 3.79 120.32 C9.88 127.02, 30.99 123.4, 36.69 116.8 C42.38 110.2, 31.77 87.52, 37.95 80.71 C44.12 73.91, 67.33 81.72, 73.75 75.98 C80.18 70.24, 82.15 51.17, 76.49 46.26 C70.84 41.34, 46.82 53.16, 39.82 46.47 C32.81 39.77, 41.25 13.6, 34.46 6.08 C27.67 -1.43, 4.73 2.28, -0.94 1.37" stroke="#e03131" stroke-width="4" fill="none"></path></g></g><mask></mask><g transform="translate(3350.999999999982 1735.6666666666715) rotate(0 356.3333435058594 63.33333333333212)"><text x="0" y="0" font-family="Virgil, Segoe UI Emoji" font-size="50.66666666666569px" fill="#2f9e44" text-anchor="start" style="white-space: pre;" direction="ltr" dominant-baseline="text-before-edge">can accept connections</text><text x="0" y="63.333333333332114" font-family="Virgil, Segoe UI Emoji" font-size="50.66666666666569px" fill="#2f9e44" text-anchor="start" style="white-space: pre;" direction="ltr" dominant-baseline="text-before-edge">and serves read-only queries</text></g><g transform="translate(1011.6666666666679 10) rotate(0 1053.25830078125 85.83333333333394)"><text x="0" y="0" font-family="Virgil, Segoe UI Emoji" font-size="137.33333333333502px" fill="#1e1e1e" text-anchor="start" style="white-space: pre;" direction="ltr" dominant-baseline="text-before-edge">Hot and Warm Standby servers</text></g><g transform="translate(10 1811.6666666666679) rotate(0 363.50618489582666 53.33333333333212)"><text x="0" y="0" font-family="Virgil, Segoe UI Emoji" font-size="42.666666666665705px" fill="#2f9e44" text-anchor="start" style="white-space: pre;" direction="ltr" dominant-baseline="text-before-edge">cannot be connected to until </text><text x="0" y="53.333333333332135" font-family="Virgil, Segoe UI Emoji" font-size="42.666666666665705px" fill="#2f9e44" text-anchor="start" style="white-space: pre;" direction="ltr" dominant-baseline="text-before-edge">it is promoted to a primary server</text></g></svg>