<svg version="1.1" xmlns="http://www.w3.org/2000/svg" viewBox="0 0 3167.626977486485 2310.8333333333267" width="3167.626977486485" height="2310.8333333333267">
  <!-- svg-source:excalidraw -->
  
  <defs>
    <style class="style-fonts">
      @font-face {
        font-family: "Virgil";
        src: url("https://excalidraw.com/Virgil.woff2");
      }
      @font-face {
        font-family: "Cascadia";
        src: url("https://excalidraw.com/Cascadia.woff2");
      }
    </style>
    
  </defs>
  <g transform="translate(403.8602945437924 10) rotate(0 951.2666625976562 72.5)"><text x="0" y="0" font-family="Virgil, Segoe UI Emoji" font-size="115.99999999999956px" fill="#1e1e1e" text-anchor="start" style="white-space: pre;" direction="ltr" dominant-baseline="text-before-edge">How Point-in-Time Recovery Works</text></g><g stroke-linecap="round"><g transform="translate(231.08209630854617 614.6229176872966) rotate(0 272.232686672196 257.0786573557298)" fill-rule="evenodd"><path d="M0.57 -1.61 C0.63 71.15, -0.46 349.83, 1.22 436.35 C2.9 522.88, -1.38 499.7, 10.64 517.55 C22.67 535.4, 46.48 535.25, 73.37 543.48 C100.25 551.7, 137.46 561.74, 171.96 566.9 C206.46 572.06, 247.48 574.31, 280.36 574.42 C313.24 574.54, 340.33 571.26, 369.24 567.62 C398.15 563.97, 425.93 561.8, 453.81 552.57 C481.69 543.33, 522.3 531.44, 536.53 512.2 C550.76 492.96, 537.99 512.19, 539.17 437.12 C540.35 362.04, 544.04 135.06, 543.6 61.75 C543.15 -11.55, 548.73 13.63, 536.49 -2.71 C524.25 -19.04, 493.75 -27.65, 470.15 -36.26 C446.55 -44.87, 423.58 -50.86, 394.88 -54.36 C366.17 -57.86, 324.54 -56.87, 297.94 -57.24 C271.33 -57.61, 268.22 -58.54, 235.23 -56.56 C202.25 -54.58, 138.89 -54.57, 100.05 -45.36 C61.2 -36.15, 19.04 -9.1, 2.16 -1.3" stroke="none" stroke-width="0" fill="#ced4da" fill-rule="evenodd"></path><path d="M-0.56 -0.16 C-0.76 72.6, -2.87 350.87, -1.16 436.77 C0.55 522.66, -2.89 497.12, 9.71 515.22 C22.31 533.33, 47.19 536.66, 74.45 545.38 C101.7 554.11, 139.45 562.68, 173.23 567.58 C207.02 572.48, 244.95 574.89, 277.14 574.81 C309.34 574.72, 337.45 570.57, 366.41 567.07 C395.38 563.57, 422.7 563.02, 450.95 553.8 C479.2 544.58, 520.89 531.38, 535.92 511.76 C550.95 492.13, 539.62 511.45, 541.13 436.02 C542.64 360.6, 545.41 132.3, 544.98 59.2 C544.56 -13.9, 551.03 13.11, 538.6 -2.57 C526.17 -18.25, 494.33 -26.39, 470.41 -34.89 C446.49 -43.39, 424.1 -49.53, 395.08 -53.56 C366.06 -57.59, 323.38 -58.03, 296.29 -59.05 C269.21 -60.07, 265.38 -61.74, 232.58 -59.66 C199.78 -57.59, 138.07 -56.4, 99.5 -46.62 C60.93 -36.83, 17.91 -8.55, 1.14 -0.96 M1.35 -1.28 C1.49 71.66, -0.34 352.04, 0.94 438.3 C2.22 524.55, -3.21 498.78, 9.02 516.25 C21.26 533.73, 47.22 534.53, 74.34 543.14 C101.45 551.74, 137.74 562.68, 171.7 567.89 C205.65 573.09, 245.59 574.18, 278.06 574.37 C310.52 574.56, 337.87 572.46, 366.47 569.03 C395.08 565.6, 421.65 563.05, 449.69 553.81 C477.73 544.56, 519.3 533.33, 534.7 513.56 C550.1 493.79, 540.35 510.76, 542.09 435.17 C543.83 359.59, 545.93 133.12, 545.13 60.03 C544.33 -13.06, 549.71 12.63, 537.28 -3.35 C524.84 -19.33, 494.29 -27.41, 470.52 -35.84 C446.75 -44.27, 423.58 -49.94, 394.65 -53.94 C365.72 -57.93, 323.81 -58.97, 296.94 -59.81 C270.07 -60.66, 266.53 -61.35, 233.44 -59.02 C200.34 -56.69, 137.21 -55.48, 98.38 -45.82 C59.55 -36.17, 16.75 -8.51, 0.46 -1.1" stroke="#495057" stroke-width="1" fill="none"></path></g></g><mask></mask><g stroke-linecap="round" transform="translate(231.70913346905218 545.8310495985443) rotate(0 272.17356856796323 74.00259947909217)"><path d="M215.81 1.45 C237.51 -0.87, 265.54 0.53, 290.05 1.05 C314.57 1.58, 339.83 2.66, 362.92 4.59 C386 6.53, 408.39 9.02, 428.56 12.66 C448.73 16.3, 468.47 21.2, 483.93 26.45 C499.39 31.7, 511.68 37.83, 521.33 44.15 C530.97 50.48, 538.43 57.65, 541.81 64.4 C545.18 71.15, 545.01 78.27, 541.59 84.65 C538.17 91.03, 530.87 96.62, 521.3 102.69 C511.72 108.76, 499.54 115.76, 484.14 121.07 C468.75 126.38, 448.95 130.63, 428.94 134.54 C408.93 138.45, 387.17 142.19, 364.07 144.52 C340.98 146.84, 314.9 148.17, 290.36 148.48 C265.81 148.79, 240.63 147.79, 216.81 146.38 C192.98 144.97, 169.07 143.18, 147.42 140 C125.78 136.81, 104.91 132, 86.93 127.28 C68.95 122.56, 52.23 117.15, 39.54 111.66 C26.85 106.16, 17.31 100.68, 10.79 94.31 C4.27 87.94, 0.49 80.07, 0.43 73.44 C0.37 66.8, 3.82 60.82, 10.42 54.48 C17.02 48.15, 27.43 41.01, 40.04 35.4 C52.65 29.79, 68.39 25.5, 86.07 20.84 C103.76 16.18, 121.31 10.72, 146.16 7.45 C171 4.17, 217.28 2.03, 235.14 1.21 C253 0.4, 252.66 1.36, 253.31 2.55 M177.48 5.32 C197.6 1.9, 224.31 -0.04, 248.63 -0.56 C272.95 -1.08, 299.49 1.05, 323.43 2.21 C347.37 3.36, 370.55 3.36, 392.27 6.37 C413.99 9.39, 435.45 15.49, 453.74 20.3 C472.03 25.11, 488.69 29.6, 502.01 35.24 C515.34 40.88, 526.67 47.7, 533.68 54.15 C540.69 60.61, 543.54 67.43, 544.08 74 C544.62 80.56, 542.87 87.42, 536.92 93.57 C530.98 99.71, 520.79 105.14, 508.42 110.86 C496.06 116.59, 480.5 123.2, 462.74 127.91 C444.97 132.61, 423.66 136.24, 401.82 139.09 C379.98 141.94, 355.65 143.73, 331.72 145 C307.78 146.27, 282.33 146.78, 258.21 146.71 C234.09 146.64, 210.16 146.45, 187 144.57 C163.84 142.69, 139.8 139.46, 119.27 135.42 C98.74 131.38, 79.75 125.44, 63.83 120.34 C47.91 115.23, 33.96 110.63, 23.76 104.8 C13.56 98.97, 6.04 92.02, 2.61 85.35 C-0.81 78.68, 0.48 71.55, 3.23 64.75 C5.98 57.96, 10.08 50.65, 19.12 44.6 C28.17 38.55, 42.37 33.47, 57.49 28.44 C72.6 23.41, 90.21 18.42, 109.82 14.41 C129.43 10.41, 163.71 5.88, 175.15 4.39 C186.6 2.9, 176.8 4.32, 178.47 5.47" stroke="none" stroke-width="0" fill="#ffffff"></path><path d="M290.08 0.05 C313.62 -0.77, 338.92 1.31, 362.09 3.37 C385.27 5.44, 409.15 8.55, 429.14 12.44 C449.12 16.32, 466.54 21.26, 482 26.68 C497.46 32.1, 512.08 38.75, 521.9 44.95 C531.71 51.16, 537.66 57.49, 540.9 63.91 C544.14 70.33, 544.48 76.92, 541.34 83.49 C538.19 90.06, 531.67 97.21, 522.03 103.34 C512.38 109.47, 498.83 115.04, 483.47 120.27 C468.12 125.49, 449.77 130.72, 429.88 134.7 C409.99 138.68, 387.17 142, 364.12 144.14 C341.07 146.28, 316.11 147.1, 291.58 147.53 C267.05 147.97, 240.89 147.85, 216.97 146.73 C193.05 145.61, 169.81 144.03, 148.06 140.81 C126.31 137.59, 104.57 132.03, 86.45 127.41 C68.33 122.79, 52.03 118.56, 39.34 113.08 C26.65 107.59, 17 100.88, 10.33 94.51 C3.66 88.13, -0.54 81.44, -0.66 74.82 C-0.78 68.2, 2.87 61.41, 9.61 54.79 C16.34 48.17, 27.18 40.97, 39.75 35.1 C52.32 29.23, 67.38 23.85, 85.02 19.56 C102.66 15.28, 123.76 12.24, 145.59 9.36 C167.41 6.49, 190.42 3.65, 215.97 2.31 C241.52 0.98, 283.67 1.27, 298.89 1.34 C314.11 1.41, 307.78 1.77, 307.31 2.72 M289.49 -0.32 C313.12 -1.47, 339.66 1.09, 362.95 3.29 C386.25 5.48, 408.98 8.68, 429.26 12.83 C449.54 16.97, 468.98 22.68, 484.64 28.16 C500.3 33.63, 513.6 39.6, 523.21 45.69 C532.82 51.79, 538.97 58.47, 542.29 64.73 C545.62 70.99, 546.68 76.66, 543.14 83.26 C539.61 89.87, 530.94 98.24, 521.08 104.35 C511.23 110.45, 499.14 114.78, 484.01 119.91 C468.88 125.04, 450.28 131.25, 430.29 135.14 C410.31 139.03, 387.3 141.3, 364.11 143.25 C340.91 145.2, 315.86 146.11, 291.11 146.86 C266.36 147.6, 239.44 148.69, 215.63 147.72 C191.83 146.75, 170.04 144.13, 148.27 141.02 C126.5 137.91, 103.25 133.82, 85.01 129.07 C66.77 124.33, 51.35 118.2, 38.84 112.53 C26.33 106.87, 16.51 101.41, 9.96 95.07 C3.4 88.73, -0.49 81.44, -0.49 74.51 C-0.49 67.57, 3.03 59.8, 9.95 53.45 C16.87 47.11, 28.12 42.09, 41 36.44 C53.89 30.79, 69.7 24.19, 87.23 19.53 C104.77 14.87, 124.7 11.34, 146.22 8.47 C167.74 5.6, 192.36 3.79, 216.33 2.31 C240.31 0.84, 277.62 -0.08, 290.07 -0.39 C302.53 -0.69, 291.25 -0.91, 291.05 0.49" stroke="#495057" stroke-width="1" fill="none"></path></g><g transform="translate(333.1699271778234 728.3310495985443) rotate(0 167.625 33.75)"><text x="0" y="0" font-family="Virgil, Segoe UI Emoji" font-size="53.99999999999996px" fill="#000000" text-anchor="start" style="white-space: pre;" direction="ltr" dominant-baseline="text-before-edge">Base backup</text></g><g stroke-linecap="round" transform="translate(439.12737398632817 812.5331772581194) rotate(0 67.02127659574762 81.91489361702497)"><path d="M-1.4 1.84 L132.46 -0.66 L133.64 162.52 L0.25 162.89" stroke="none" stroke-width="0" fill="#868e96"></path><path d="M0 0 C42.92 0.56, 83.6 -0.83, 134.04 0 M0 0 C52.63 1.31, 106.73 0.01, 134.04 0 M134.04 0 C132.52 54.3, 131.89 107.63, 134.04 163.83 M134.04 0 C135.25 45.59, 134.46 90.87, 134.04 163.83 M134.04 163.83 C89.4 163.32, 46.19 165.82, 0 163.83 M134.04 163.83 C95.38 162.77, 56.17 163.68, 0 163.83 M0 163.83 C0.2 128.36, 1.5 90.6, 0 0 M0 163.83 C-1.01 115.42, -2.27 67.52, 0 0" stroke="#000000" stroke-width="1" fill="none"></path></g><g stroke-linecap="round" transform="translate(433.1699271778234 805.8310495985443) rotate(0 67.02127659574762 81.91489361702497)"><path d="M-1.58 -0.66 L133.64 -1.31 L134.29 162.89 L1.84 164.99" stroke="none" stroke-width="0" fill="#ffffff"></path><path d="M0 0 C32.3 -1.45, 67.02 -1.71, 134.04 0 M0 0 C33.33 -1.48, 65.52 -1.36, 134.04 0 M134.04 0 C132.52 44.26, 133.25 90.14, 134.04 163.83 M134.04 0 C134.6 43.39, 135.09 88.78, 134.04 163.83 M134.04 163.83 C79.27 163.34, 27.9 163.1, 0 163.83 M134.04 163.83 C103.1 164.32, 70.55 163.06, 0 163.83 M0 163.83 C1.18 125.42, 0.45 86.18, 0 0 M0 163.83 C-1.64 118.71, -1.68 74.23, 0 0" stroke="#000000" stroke-width="1" fill="none"></path></g><g stroke-linecap="round"><g transform="translate(441.0020963655152 824.2971967965641) rotate(0 59.57731434772177 0.028468911061281688)"><path d="M-0.12 0.14 C19.72 0.13, 99.14 -0.07, 119.01 -0.08 M0.09 0.08 C19.97 0.09, 99.46 0.1, 119.27 0.06" stroke="#000000" stroke-width="1" fill="none"></path></g></g><mask></mask><g stroke-linecap="round"><g transform="translate(523.5674892578354 813.6431497285012) rotate(0 -0.06808658191221184 75.04596825698263)"><path d="M-0.14 -0.08 C-0.13 24.92, -0.1 125.16, -0.05 150.18 M0.06 0.19 C0.06 25.22, -0.2 124.98, -0.2 149.96" stroke="#000000" stroke-width="1" fill="none"></path></g></g><mask></mask><g transform="translate(448.06354419909985 813.2778581091825) rotate(0 12.908333778381348 4.6542553191493425)"><text x="0" y="0" font-family="Virgil, Segoe UI Emoji" font-size="7.446808510638638px" fill="#000000" text-anchor="start" style="white-space: pre;" direction="ltr" dominant-baseline="text-before-edge">EMPNO</text></g><g transform="translate(485.2975867522946 813.2778581091825) rotate(0 12.699999809265137 4.6542553191493425)"><text x="0" y="0" font-family="Virgil, Segoe UI Emoji" font-size="7.446808510638641px" fill="#000000" text-anchor="start" style="white-space: pre;" direction="ltr" dominant-baseline="text-before-edge">ENAME</text></g><g transform="translate(529.9784378161239 813.2778581091825) rotate(0 6.925000190734863 4.6542553191493425)"><text x="0" y="0" font-family="Virgil, Segoe UI Emoji" font-size="7.446808510638642px" fill="#000000" text-anchor="start" style="white-space: pre;" direction="ltr" dominant-baseline="text-before-edge">SAL</text></g><g transform="translate(485.2975867522946 828.1714751304607) rotate(0 15.574999809265137 65.15957446808807)"><text x="0" y="0" font-family="Virgil, Segoe UI Emoji" font-size="7.446808510638639px" fill="#000000" text-anchor="start" style="white-space: pre;" direction="ltr" dominant-baseline="text-before-edge">SMITH</text><text x="0" y="9.308510638298301" font-family="Virgil, Segoe UI Emoji" font-size="7.446808510638639px" fill="#000000" text-anchor="start" style="white-space: pre;" direction="ltr" dominant-baseline="text-before-edge">ALLEN</text><text x="0" y="18.617021276596603" font-family="Virgil, Segoe UI Emoji" font-size="7.446808510638639px" fill="#000000" text-anchor="start" style="white-space: pre;" direction="ltr" dominant-baseline="text-before-edge">WARD</text><text x="0" y="27.925531914894904" font-family="Virgil, Segoe UI Emoji" font-size="7.446808510638639px" fill="#000000" text-anchor="start" style="white-space: pre;" direction="ltr" dominant-baseline="text-before-edge">JONES</text><text x="0" y="37.234042553193206" font-family="Virgil, Segoe UI Emoji" font-size="7.446808510638639px" fill="#000000" text-anchor="start" style="white-space: pre;" direction="ltr" dominant-baseline="text-before-edge">MARTIN</text><text x="0" y="46.54255319149151" font-family="Virgil, Segoe UI Emoji" font-size="7.446808510638639px" fill="#000000" text-anchor="start" style="white-space: pre;" direction="ltr" dominant-baseline="text-before-edge">BLAKE</text><text x="0" y="55.85106382978981" font-family="Virgil, Segoe UI Emoji" font-size="7.446808510638639px" fill="#000000" text-anchor="start" style="white-space: pre;" direction="ltr" dominant-baseline="text-before-edge">CLARK</text><text x="0" y="65.15957446808811" font-family="Virgil, Segoe UI Emoji" font-size="7.446808510638639px" fill="#000000" text-anchor="start" style="white-space: pre;" direction="ltr" dominant-baseline="text-before-edge">SCOTT</text><text x="0" y="74.46808510638641" font-family="Virgil, Segoe UI Emoji" font-size="7.446808510638639px" fill="#000000" text-anchor="start" style="white-space: pre;" direction="ltr" dominant-baseline="text-before-edge">KING</text><text x="0" y="83.77659574468471" font-family="Virgil, Segoe UI Emoji" font-size="7.446808510638639px" fill="#000000" text-anchor="start" style="white-space: pre;" direction="ltr" dominant-baseline="text-before-edge">TURNER</text><text x="0" y="93.08510638298301" font-family="Virgil, Segoe UI Emoji" font-size="7.446808510638639px" fill="#000000" text-anchor="start" style="white-space: pre;" direction="ltr" dominant-baseline="text-before-edge">ADAMS</text><text x="0" y="102.39361702128132" font-family="Virgil, Segoe UI Emoji" font-size="7.446808510638639px" fill="#000000" text-anchor="start" style="white-space: pre;" direction="ltr" dominant-baseline="text-before-edge">JAMES</text><text x="0" y="111.70212765957962" font-family="Virgil, Segoe UI Emoji" font-size="7.446808510638639px" fill="#000000" text-anchor="start" style="white-space: pre;" direction="ltr" dominant-baseline="text-before-edge">FORD</text><text x="0" y="121.01063829787792" font-family="Virgil, Segoe UI Emoji" font-size="7.446808510638639px" fill="#000000" text-anchor="start" style="white-space: pre;" direction="ltr" dominant-baseline="text-before-edge">MILLER</text></g><g transform="translate(529.9784378161239 828.1714751304607) rotate(0 10.350000381469727 65.15957446808807)"><text x="0" y="0" font-family="Virgil, Segoe UI Emoji" font-size="7.446808510638641px" fill="#000000" text-anchor="start" style="white-space: pre;" direction="ltr" dominant-baseline="text-before-edge">800</text><text x="0" y="9.308510638298301" font-family="Virgil, Segoe UI Emoji" font-size="7.446808510638641px" fill="#000000" text-anchor="start" style="white-space: pre;" direction="ltr" dominant-baseline="text-before-edge">1600</text><text x="0" y="18.617021276596603" font-family="Virgil, Segoe UI Emoji" font-size="7.446808510638641px" fill="#000000" text-anchor="start" style="white-space: pre;" direction="ltr" dominant-baseline="text-before-edge">1250</text><text x="0" y="27.925531914894904" font-family="Virgil, Segoe UI Emoji" font-size="7.446808510638641px" fill="#000000" text-anchor="start" style="white-space: pre;" direction="ltr" dominant-baseline="text-before-edge">2975</text><text x="0" y="37.234042553193206" font-family="Virgil, Segoe UI Emoji" font-size="7.446808510638641px" fill="#000000" text-anchor="start" style="white-space: pre;" direction="ltr" dominant-baseline="text-before-edge">1250</text><text x="0" y="46.54255319149151" font-family="Virgil, Segoe UI Emoji" font-size="7.446808510638641px" fill="#000000" text-anchor="start" style="white-space: pre;" direction="ltr" dominant-baseline="text-before-edge">2850</text><text x="0" y="55.85106382978981" font-family="Virgil, Segoe UI Emoji" font-size="7.446808510638641px" fill="#000000" text-anchor="start" style="white-space: pre;" direction="ltr" dominant-baseline="text-before-edge">2450</text><text x="0" y="65.15957446808811" font-family="Virgil, Segoe UI Emoji" font-size="7.446808510638641px" fill="#000000" text-anchor="start" style="white-space: pre;" direction="ltr" dominant-baseline="text-before-edge">3000</text><text x="0" y="74.46808510638641" font-family="Virgil, Segoe UI Emoji" font-size="7.446808510638641px" fill="#000000" text-anchor="start" style="white-space: pre;" direction="ltr" dominant-baseline="text-before-edge">5000</text><text x="0" y="83.77659574468471" font-family="Virgil, Segoe UI Emoji" font-size="7.446808510638641px" fill="#000000" text-anchor="start" style="white-space: pre;" direction="ltr" dominant-baseline="text-before-edge">1500</text><text x="0" y="93.08510638298301" font-family="Virgil, Segoe UI Emoji" font-size="7.446808510638641px" fill="#000000" text-anchor="start" style="white-space: pre;" direction="ltr" dominant-baseline="text-before-edge">1100</text><text x="0" y="102.39361702128132" font-family="Virgil, Segoe UI Emoji" font-size="7.446808510638641px" fill="#000000" text-anchor="start" style="white-space: pre;" direction="ltr" dominant-baseline="text-before-edge">950</text><text x="0" y="111.70212765957962" font-family="Virgil, Segoe UI Emoji" font-size="7.446808510638641px" fill="#000000" text-anchor="start" style="white-space: pre;" direction="ltr" dominant-baseline="text-before-edge">3000</text><text x="0" y="121.01063829787792" font-family="Virgil, Segoe UI Emoji" font-size="7.446808510638641px" fill="#000000" text-anchor="start" style="white-space: pre;" direction="ltr" dominant-baseline="text-before-edge">1300</text></g><g transform="translate(448.06354419909985 828.1714751304607) rotate(0 9.683333396911621 65.15957446808807)"><text x="0" y="0" font-family="Virgil, Segoe UI Emoji" font-size="7.446808510638646px" fill="#000000" text-anchor="start" style="white-space: pre;" direction="ltr" dominant-baseline="text-before-edge">7369</text><text x="0" y="9.308510638298301" font-family="Virgil, Segoe UI Emoji" font-size="7.446808510638646px" fill="#000000" text-anchor="start" style="white-space: pre;" direction="ltr" dominant-baseline="text-before-edge">7499</text><text x="0" y="18.617021276596603" font-family="Virgil, Segoe UI Emoji" font-size="7.446808510638646px" fill="#000000" text-anchor="start" style="white-space: pre;" direction="ltr" dominant-baseline="text-before-edge">7521</text><text x="0" y="27.925531914894904" font-family="Virgil, Segoe UI Emoji" font-size="7.446808510638646px" fill="#000000" text-anchor="start" style="white-space: pre;" direction="ltr" dominant-baseline="text-before-edge">7566</text><text x="0" y="37.234042553193206" font-family="Virgil, Segoe UI Emoji" font-size="7.446808510638646px" fill="#000000" text-anchor="start" style="white-space: pre;" direction="ltr" dominant-baseline="text-before-edge">7654</text><text x="0" y="46.54255319149151" font-family="Virgil, Segoe UI Emoji" font-size="7.446808510638646px" fill="#000000" text-anchor="start" style="white-space: pre;" direction="ltr" dominant-baseline="text-before-edge">7698</text><text x="0" y="55.85106382978981" font-family="Virgil, Segoe UI Emoji" font-size="7.446808510638646px" fill="#000000" text-anchor="start" style="white-space: pre;" direction="ltr" dominant-baseline="text-before-edge">7782</text><text x="0" y="65.15957446808811" font-family="Virgil, Segoe UI Emoji" font-size="7.446808510638646px" fill="#000000" text-anchor="start" style="white-space: pre;" direction="ltr" dominant-baseline="text-before-edge">7788</text><text x="0" y="74.46808510638641" font-family="Virgil, Segoe UI Emoji" font-size="7.446808510638646px" fill="#000000" text-anchor="start" style="white-space: pre;" direction="ltr" dominant-baseline="text-before-edge">7839</text><text x="0" y="83.77659574468471" font-family="Virgil, Segoe UI Emoji" font-size="7.446808510638646px" fill="#000000" text-anchor="start" style="white-space: pre;" direction="ltr" dominant-baseline="text-before-edge">7844</text><text x="0" y="93.08510638298301" font-family="Virgil, Segoe UI Emoji" font-size="7.446808510638646px" fill="#000000" text-anchor="start" style="white-space: pre;" direction="ltr" dominant-baseline="text-before-edge">7876</text><text x="0" y="102.39361702128132" font-family="Virgil, Segoe UI Emoji" font-size="7.446808510638646px" fill="#000000" text-anchor="start" style="white-space: pre;" direction="ltr" dominant-baseline="text-before-edge">7900</text><text x="0" y="111.70212765957962" font-family="Virgil, Segoe UI Emoji" font-size="7.446808510638646px" fill="#000000" text-anchor="start" style="white-space: pre;" direction="ltr" dominant-baseline="text-before-edge">7902</text><text x="0" y="121.01063829787792" font-family="Virgil, Segoe UI Emoji" font-size="7.446808510638646px" fill="#000000" text-anchor="start" style="white-space: pre;" direction="ltr" dominant-baseline="text-before-edge">7934</text></g><g stroke-linecap="round"><g transform="translate(478.47292144126914 813.4628967382596) rotate(0 0.000463586629848578 75.00887868934205)"><path d="M0.06 -0.04 C0.08 24.97, 0.09 125.05, 0.08 150.05 M-0.08 -0.19 C-0.08 24.84, 0.01 125.17, 0 150.21" stroke="#000000" stroke-width="1" fill="none"></path></g></g><mask></mask><g transform="translate(556.1699271778234 1065.8310495985443) rotate(0 40.54166793823242 17.5)"><text x="0" y="0" font-family="Virgil, Segoe UI Emoji" font-size="28px" fill="#000000" text-anchor="start" style="white-space: pre;" direction="ltr" dominant-baseline="text-before-edge">DATA</text></g><g stroke-linecap="round"><g transform="translate(516.2043770285927 1070.7228187062829) rotate(0 13.385796505361213 12.60807735047365)" fill-rule="evenodd"><path d="M0 0 C0 0, 0 0, 0 0 M0 0 C0 0, 0 0, 0 0 M0.39 5.64 C2.68 3.02, 4.96 0.39, 6.96 -1.9 M0.39 5.64 C2.93 2.72, 5.47 -0.2, 6.96 -1.9 M0.13 12.04 C3.46 8.21, 6.8 4.38, 12.6 -2.3 M0.13 12.04 C3.54 8.12, 6.95 4.2, 12.6 -2.3 M0.53 17.68 C6.72 10.56, 12.91 3.44, 18.24 -2.69 M0.53 17.68 C6.9 10.35, 13.28 3.01, 18.24 -2.69 M0.27 24.08 C7.73 15.49, 15.2 6.91, 22.57 -1.58 M0.27 24.08 C7.04 16.3, 13.8 8.51, 22.57 -1.58 M3.94 25.95 C11.58 17.16, 19.22 8.38, 26.25 0.29 M3.94 25.95 C10.02 18.96, 16.09 11.97, 26.25 0.29 M7.62 27.82 C11.68 23.15, 15.74 18.47, 26.64 5.93 M7.62 27.82 C14.4 20.01, 21.19 12.21, 26.64 5.93 M12.6 28.18 C17.43 22.63, 22.25 17.09, 26.38 12.33 M12.6 28.18 C16.42 23.79, 20.24 19.39, 26.38 12.33 M18.25 27.79 C20.26 25.47, 22.28 23.15, 26.12 18.73 M18.25 27.79 C21.35 24.21, 24.46 20.63, 26.12 18.73 M24.55 26.64 C25.29 25.78, 26.03 24.93, 26.51 24.37 M24.55 26.64 C24.98 26.14, 25.41 25.64, 26.51 24.37 M0.5 25.33 C0.5 25.33, 0.5 25.33, 0.5 25.33 M0.5 25.33 C0.5 25.33, 0.5 25.33, 0.5 25.33 M9.16 27.56 C6.31 25.08, 3.46 22.61, 0.11 19.69 M9.16 27.56 C6.1 24.9, 3.04 22.24, 0.11 19.69 M15.56 27.82 C11 23.86, 6.44 19.89, 0.47 14.7 M15.56 27.82 C9.77 22.79, 3.97 17.75, 0.47 14.7 M20.45 26.77 C15.72 22.66, 10.99 18.55, 0.07 9.06 M20.45 26.77 C13.08 20.37, 5.71 13.96, 0.07 9.06 M25.34 25.72 C16.02 17.62, 6.71 9.53, 0.43 4.07 M25.34 25.72 C18.63 19.89, 11.91 14.05, 0.43 4.07 M27.21 22.05 C19.71 15.53, 12.2 9, 0.79 -0.91 M27.21 22.05 C21.6 17.18, 16 12.3, 0.79 -0.91 M26.81 16.41 C19.26 9.84, 11.71 3.28, 4.93 -2.62 M26.81 16.41 C22.24 12.43, 17.66 8.45, 4.93 -2.62 M27.17 11.42 C23.73 8.42, 20.28 5.43, 10.57 -3.01 M27.17 11.42 C22.12 7.03, 17.07 2.64, 10.57 -3.01 M26.78 5.78 C23.28 2.74, 19.79 -0.3, 16.21 -3.41 M26.78 5.78 C22.81 2.33, 18.85 -1.12, 16.21 -3.41 M27.14 0.79 C26.64 0.35, 26.13 -0.09, 24.88 -1.18 M27.14 0.79 C26.59 0.31, 26.04 -0.17, 24.88 -1.18" stroke="#868e96" stroke-width="0.5" fill="none"></path><path d="M0 0 C0 3.57, -0.08 17.21, 0 21.43 C0.08 25.65, -0.15 24.42, 0.47 25.3 C1.08 26.19, 2.35 26.3, 3.69 26.73 C5.03 27.15, 6.85 27.62, 8.5 27.85 C10.16 28.09, 12.06 28.14, 13.64 28.14 C15.23 28.14, 16.61 28.02, 18.03 27.85 C19.45 27.69, 20.78 27.59, 22.15 27.14 C23.52 26.69, 25.52 26.1, 26.25 25.15 C26.98 24.2, 26.45 25.13, 26.53 21.43 C26.61 17.72, 26.77 6.51, 26.75 2.92 C26.73 -0.67, 27.03 0.68, 26.42 -0.09 C25.8 -0.86, 24.27 -1.28, 23.09 -1.7 C21.91 -2.12, 20.79 -2.41, 19.36 -2.61 C17.93 -2.81, 15.83 -2.83, 14.51 -2.88 C13.18 -2.92, 13.03 -2.97, 11.43 -2.87 C9.82 -2.77, 6.77 -2.77, 4.87 -2.29 C2.96 -1.81, 0.81 -0.38, 0 0 M0 0 C0 3.57, -0.08 17.21, 0 21.43 C0.08 25.65, -0.15 24.42, 0.47 25.3 C1.08 26.19, 2.35 26.3, 3.69 26.73 C5.03 27.15, 6.85 27.62, 8.5 27.85 C10.16 28.09, 12.06 28.14, 13.64 28.14 C15.23 28.14, 16.61 28.02, 18.03 27.85 C19.45 27.69, 20.78 27.59, 22.15 27.14 C23.52 26.69, 25.52 26.1, 26.25 25.15 C26.98 24.2, 26.45 25.13, 26.53 21.43 C26.61 17.72, 26.77 6.51, 26.75 2.92 C26.73 -0.67, 27.03 0.68, 26.42 -0.09 C25.8 -0.86, 24.27 -1.28, 23.09 -1.7 C21.91 -2.12, 20.79 -2.41, 19.36 -2.61 C17.93 -2.81, 15.83 -2.83, 14.51 -2.88 C13.18 -2.92, 13.03 -2.97, 11.43 -2.87 C9.82 -2.77, 6.77 -2.77, 4.87 -2.29 C2.96 -1.81, 0.81 -0.38, 0 0" stroke="#495057" stroke-width="1" fill="none"></path></g></g><mask></mask><g stroke-linecap="round" transform="translate(516.2858049852839 1067.7952722993305) rotate(0 13.352879906748058 3.6305796658753025)"><path d="M26.71 3.63 C26.71 3.84, 26.64 4.05, 26.5 4.26 C26.37 4.47, 26.16 4.67, 25.9 4.87 C25.64 5.07, 25.3 5.26, 24.92 5.45 C24.53 5.63, 24.08 5.8, 23.58 5.96 C23.08 6.13, 22.53 6.28, 21.94 6.41 C21.34 6.55, 20.7 6.67, 20.03 6.77 C19.36 6.88, 18.65 6.97, 17.92 7.04 C17.19 7.11, 16.43 7.17, 15.67 7.21 C14.91 7.24, 14.13 7.26, 13.35 7.26 C12.58 7.26, 11.8 7.24, 11.03 7.21 C10.27 7.17, 9.51 7.11, 8.79 7.04 C8.06 6.97, 7.35 6.88, 6.68 6.77 C6.01 6.67, 5.36 6.55, 4.77 6.41 C4.18 6.28, 3.62 6.13, 3.12 5.96 C2.63 5.8, 2.18 5.63, 1.79 5.45 C1.4 5.26, 1.07 5.07, 0.81 4.87 C0.54 4.67, 0.34 4.47, 0.2 4.26 C0.07 4.05, 0 3.84, 0 3.63 C0 3.42, 0.07 3.21, 0.2 3 C0.34 2.79, 0.54 2.59, 0.81 2.39 C1.07 2.19, 1.4 2, 1.79 1.82 C2.18 1.63, 2.63 1.46, 3.12 1.3 C3.62 1.14, 4.18 0.98, 4.77 0.85 C5.36 0.71, 6.01 0.59, 6.68 0.49 C7.35 0.38, 8.06 0.29, 8.79 0.22 C9.51 0.15, 10.27 0.09, 11.03 0.06 C11.8 0.02, 12.58 0, 13.35 0 C14.13 0, 14.91 0.02, 15.67 0.06 C16.43 0.09, 17.19 0.15, 17.92 0.22 C18.65 0.29, 19.36 0.38, 20.03 0.49 C20.7 0.59, 21.34 0.71, 21.94 0.85 C22.53 0.98, 23.08 1.14, 23.58 1.3 C24.08 1.46, 24.53 1.63, 24.92 1.82 C25.3 2, 25.64 2.19, 25.9 2.39 C26.16 2.59, 26.37 2.79, 26.5 3 C26.64 3.21, 26.67 3.53, 26.71 3.63 C26.74 3.74, 26.74 3.53, 26.71 3.63" stroke="none" stroke-width="0" fill="#ffffff"></path><path d="M26.71 3.63 C26.71 3.84, 26.64 4.05, 26.5 4.26 C26.37 4.47, 26.16 4.67, 25.9 4.87 C25.64 5.07, 25.3 5.26, 24.92 5.45 C24.53 5.63, 24.08 5.8, 23.58 5.96 C23.08 6.13, 22.53 6.28, 21.94 6.41 C21.34 6.55, 20.7 6.67, 20.03 6.77 C19.36 6.88, 18.65 6.97, 17.92 7.04 C17.19 7.11, 16.43 7.17, 15.67 7.21 C14.91 7.24, 14.13 7.26, 13.35 7.26 C12.58 7.26, 11.8 7.24, 11.03 7.21 C10.27 7.17, 9.51 7.11, 8.79 7.04 C8.06 6.97, 7.35 6.88, 6.68 6.77 C6.01 6.67, 5.36 6.55, 4.77 6.41 C4.18 6.28, 3.62 6.13, 3.12 5.96 C2.63 5.8, 2.18 5.63, 1.79 5.45 C1.4 5.26, 1.07 5.07, 0.81 4.87 C0.54 4.67, 0.34 4.47, 0.2 4.26 C0.07 4.05, 0 3.84, 0 3.63 C0 3.42, 0.07 3.21, 0.2 3 C0.34 2.79, 0.54 2.59, 0.81 2.39 C1.07 2.19, 1.4 2, 1.79 1.82 C2.18 1.63, 2.63 1.46, 3.12 1.3 C3.62 1.14, 4.18 0.98, 4.77 0.85 C5.36 0.71, 6.01 0.59, 6.68 0.49 C7.35 0.38, 8.06 0.29, 8.79 0.22 C9.51 0.15, 10.27 0.09, 11.03 0.06 C11.8 0.02, 12.58 0, 13.35 0 C14.13 0, 14.91 0.02, 15.67 0.06 C16.43 0.09, 17.19 0.15, 17.92 0.22 C18.65 0.29, 19.36 0.38, 20.03 0.49 C20.7 0.59, 21.34 0.71, 21.94 0.85 C22.53 0.98, 23.08 1.14, 23.58 1.3 C24.08 1.46, 24.53 1.63, 24.92 1.82 C25.3 2, 25.64 2.19, 25.9 2.39 C26.16 2.59, 26.37 2.79, 26.5 3 C26.64 3.21, 26.67 3.53, 26.71 3.63 C26.74 3.74, 26.74 3.53, 26.71 3.63" stroke="#495057" stroke-width="1" fill="none"></path></g><g transform="translate(376.1699271778234 1025.8310495985443) rotate(0 55.65833282470703 17.5)"><text x="0" y="0" font-family="Virgil, Segoe UI Emoji" font-size="28px" fill="#000000" text-anchor="start" style="white-space: pre;" direction="ltr" dominant-baseline="text-before-edge">SYSTEM</text></g><g stroke-linecap="round"><g transform="translate(336.2043770285927 1030.8990133617244) rotate(0 13.385796505361213 12.60807735047365)" fill-rule="evenodd"><path d="M0 0 C0 0, 0 0, 0 0 M0 0 C0 0, 0 0, 0 0 M0.39 5.64 C2.91 2.75, 5.43 -0.15, 6.96 -1.9 M0.39 5.64 C2.84 2.83, 5.28 0.02, 6.96 -1.9 M0.13 12.04 C4.61 6.89, 9.08 1.75, 12.6 -2.3 M0.13 12.04 C3.41 8.27, 6.68 4.51, 12.6 -2.3 M0.53 17.68 C5.11 12.41, 9.7 7.14, 18.24 -2.69 M0.53 17.68 C5.62 11.83, 10.7 5.98, 18.24 -2.69 M0.27 24.08 C6.3 17.14, 12.34 10.19, 22.57 -1.58 M0.27 24.08 C8.42 14.7, 16.58 5.32, 22.57 -1.58 M3.94 25.95 C12.09 16.58, 20.24 7.2, 26.25 0.29 M3.94 25.95 C10.11 18.85, 16.28 11.75, 26.25 0.29 M7.62 27.82 C14.03 20.44, 20.45 13.06, 26.64 5.93 M7.62 27.82 C14.6 19.79, 21.59 11.75, 26.64 5.93 M12.6 28.18 C17.36 22.7, 22.12 17.23, 26.38 12.33 M12.6 28.18 C17.59 22.45, 22.57 16.72, 26.38 12.33 M18.25 27.79 C21.04 24.57, 23.83 21.36, 26.12 18.73 M18.25 27.79 C20.39 25.32, 22.53 22.86, 26.12 18.73 M24.55 26.64 C25.09 26.01, 25.63 25.39, 26.51 24.37 M24.55 26.64 C24.95 26.17, 25.35 25.71, 26.51 24.37 M0.5 25.33 C0.5 25.33, 0.5 25.33, 0.5 25.33 M0.5 25.33 C0.5 25.33, 0.5 25.33, 0.5 25.33 M9.16 27.56 C5.89 24.72, 2.62 21.87, 0.11 19.69 M9.16 27.56 C7.23 25.88, 5.29 24.19, 0.11 19.69 M15.56 27.82 C10.39 23.33, 5.21 18.83, 0.47 14.7 M15.56 27.82 C11.47 24.27, 7.38 20.71, 0.47 14.7 M20.45 26.77 C15.43 22.41, 10.42 18.05, 0.07 9.06 M20.45 26.77 C15.67 22.61, 10.88 18.45, 0.07 9.06 M25.34 25.72 C17.36 18.79, 9.39 11.86, 0.43 4.07 M25.34 25.72 C16.97 18.45, 8.6 11.17, 0.43 4.07 M27.21 22.05 C19.21 15.09, 11.21 8.14, 0.79 -0.91 M27.21 22.05 C20.4 16.13, 13.59 10.21, 0.79 -0.91 M26.81 16.41 C21.07 11.41, 15.32 6.42, 4.93 -2.62 M26.81 16.41 C21.45 11.74, 16.08 7.07, 4.93 -2.62 M27.17 11.42 C21.56 6.54, 15.95 1.66, 10.57 -3.01 M27.17 11.42 C21.95 6.87, 16.72 2.33, 10.57 -3.01 M26.78 5.78 C22.76 2.28, 18.75 -1.21, 16.21 -3.41 M26.78 5.78 C22.93 2.43, 19.08 -0.92, 16.21 -3.41 M27.14 0.79 C26.48 0.22, 25.82 -0.36, 24.88 -1.18 M27.14 0.79 C26.28 0.04, 25.42 -0.71, 24.88 -1.18" stroke="#40c057" stroke-width="0.5" fill="none"></path><path d="M0 0 C0 3.57, -0.08 17.21, 0 21.43 C0.08 25.65, -0.15 24.42, 0.47 25.3 C1.08 26.19, 2.35 26.3, 3.69 26.73 C5.03 27.15, 6.85 27.62, 8.5 27.85 C10.16 28.09, 12.06 28.14, 13.64 28.14 C15.23 28.14, 16.61 28.02, 18.03 27.85 C19.45 27.69, 20.78 27.59, 22.15 27.14 C23.52 26.69, 25.52 26.1, 26.25 25.15 C26.98 24.2, 26.45 25.13, 26.53 21.43 C26.61 17.72, 26.77 6.51, 26.75 2.92 C26.73 -0.67, 27.03 0.68, 26.42 -0.09 C25.8 -0.86, 24.27 -1.28, 23.09 -1.7 C21.91 -2.12, 20.79 -2.41, 19.36 -2.61 C17.93 -2.81, 15.83 -2.83, 14.51 -2.88 C13.18 -2.92, 13.03 -2.97, 11.43 -2.87 C9.82 -2.77, 6.77 -2.77, 4.87 -2.29 C2.96 -1.81, 0.81 -0.38, 0 0 M0 0 C0 3.57, -0.08 17.21, 0 21.43 C0.08 25.65, -0.15 24.42, 0.47 25.3 C1.08 26.19, 2.35 26.3, 3.69 26.73 C5.03 27.15, 6.85 27.62, 8.5 27.85 C10.16 28.09, 12.06 28.14, 13.64 28.14 C15.23 28.14, 16.61 28.02, 18.03 27.85 C19.45 27.69, 20.78 27.59, 22.15 27.14 C23.52 26.69, 25.52 26.1, 26.25 25.15 C26.98 24.2, 26.45 25.13, 26.53 21.43 C26.61 17.72, 26.77 6.51, 26.75 2.92 C26.73 -0.67, 27.03 0.68, 26.42 -0.09 C25.8 -0.86, 24.27 -1.28, 23.09 -1.7 C21.91 -2.12, 20.79 -2.41, 19.36 -2.61 C17.93 -2.81, 15.83 -2.83, 14.51 -2.88 C13.18 -2.92, 13.03 -2.97, 11.43 -2.87 C9.82 -2.77, 6.77 -2.77, 4.87 -2.29 C2.96 -1.81, 0.81 -0.38, 0 0" stroke="#2b8a3e" stroke-width="1" fill="none"></path></g></g><mask></mask><g stroke-linecap="round" transform="translate(336.2858049852766 1027.619077643887) rotate(0 13.352879906748058 3.6305796658753025)"><path d="M26.71 3.63 C26.71 3.84, 26.64 4.05, 26.5 4.26 C26.37 4.47, 26.16 4.67, 25.9 4.87 C25.64 5.07, 25.3 5.26, 24.92 5.45 C24.53 5.63, 24.08 5.8, 23.58 5.96 C23.08 6.13, 22.53 6.28, 21.94 6.41 C21.34 6.55, 20.7 6.67, 20.03 6.77 C19.36 6.88, 18.65 6.97, 17.92 7.04 C17.19 7.11, 16.43 7.17, 15.67 7.21 C14.91 7.24, 14.13 7.26, 13.35 7.26 C12.58 7.26, 11.8 7.24, 11.03 7.21 C10.27 7.17, 9.51 7.11, 8.79 7.04 C8.06 6.97, 7.35 6.88, 6.68 6.77 C6.01 6.67, 5.36 6.55, 4.77 6.41 C4.18 6.28, 3.62 6.13, 3.12 5.96 C2.63 5.8, 2.18 5.63, 1.79 5.45 C1.4 5.26, 1.07 5.07, 0.81 4.87 C0.54 4.67, 0.34 4.47, 0.2 4.26 C0.07 4.05, 0 3.84, 0 3.63 C0 3.42, 0.07 3.21, 0.2 3 C0.34 2.79, 0.54 2.59, 0.81 2.39 C1.07 2.19, 1.4 2, 1.79 1.82 C2.18 1.63, 2.63 1.46, 3.12 1.3 C3.62 1.14, 4.18 0.98, 4.77 0.85 C5.36 0.71, 6.01 0.59, 6.68 0.49 C7.35 0.38, 8.06 0.29, 8.79 0.22 C9.51 0.15, 10.27 0.09, 11.03 0.06 C11.8 0.02, 12.58 0, 13.35 0 C14.13 0, 14.91 0.02, 15.67 0.06 C16.43 0.09, 17.19 0.15, 17.92 0.22 C18.65 0.29, 19.36 0.38, 20.03 0.49 C20.7 0.59, 21.34 0.71, 21.94 0.85 C22.53 0.98, 23.08 1.14, 23.58 1.3 C24.08 1.46, 24.53 1.63, 24.92 1.82 C25.3 2, 25.64 2.19, 25.9 2.39 C26.16 2.59, 26.37 2.79, 26.5 3 C26.64 3.21, 26.67 3.53, 26.71 3.63 C26.74 3.74, 26.74 3.53, 26.71 3.63" stroke="none" stroke-width="0" fill="#ffffff"></path><path d="M26.71 3.63 C26.71 3.84, 26.64 4.05, 26.5 4.26 C26.37 4.47, 26.16 4.67, 25.9 4.87 C25.64 5.07, 25.3 5.26, 24.92 5.45 C24.53 5.63, 24.08 5.8, 23.58 5.96 C23.08 6.13, 22.53 6.28, 21.94 6.41 C21.34 6.55, 20.7 6.67, 20.03 6.77 C19.36 6.88, 18.65 6.97, 17.92 7.04 C17.19 7.11, 16.43 7.17, 15.67 7.21 C14.91 7.24, 14.13 7.26, 13.35 7.26 C12.58 7.26, 11.8 7.24, 11.03 7.21 C10.27 7.17, 9.51 7.11, 8.79 7.04 C8.06 6.97, 7.35 6.88, 6.68 6.77 C6.01 6.67, 5.36 6.55, 4.77 6.41 C4.18 6.28, 3.62 6.13, 3.12 5.96 C2.63 5.8, 2.18 5.63, 1.79 5.45 C1.4 5.26, 1.07 5.07, 0.81 4.87 C0.54 4.67, 0.34 4.47, 0.2 4.26 C0.07 4.05, 0 3.84, 0 3.63 C0 3.42, 0.07 3.21, 0.2 3 C0.34 2.79, 0.54 2.59, 0.81 2.39 C1.07 2.19, 1.4 2, 1.79 1.82 C2.18 1.63, 2.63 1.46, 3.12 1.3 C3.62 1.14, 4.18 0.98, 4.77 0.85 C5.36 0.71, 6.01 0.59, 6.68 0.49 C7.35 0.38, 8.06 0.29, 8.79 0.22 C9.51 0.15, 10.27 0.09, 11.03 0.06 C11.8 0.02, 12.58 0, 13.35 0 C14.13 0, 14.91 0.02, 15.67 0.06 C16.43 0.09, 17.19 0.15, 17.92 0.22 C18.65 0.29, 19.36 0.38, 20.03 0.49 C20.7 0.59, 21.34 0.71, 21.94 0.85 C22.53 0.98, 23.08 1.14, 23.58 1.3 C24.08 1.46, 24.53 1.63, 24.92 1.82 C25.3 2, 25.64 2.19, 25.9 2.39 C26.16 2.59, 26.37 2.79, 26.5 3 C26.64 3.21, 26.67 3.53, 26.71 3.63 C26.74 3.74, 26.74 3.53, 26.71 3.63" stroke="#2b8a3e" stroke-width="1" fill="none"></path></g><g transform="translate(376.1699271778234 1065.8310495985443) rotate(0 51.79999923706055 17.5)"><text x="0" y="0" font-family="Virgil, Segoe UI Emoji" font-size="28px" fill="#000000" text-anchor="start" style="white-space: pre;" direction="ltr" dominant-baseline="text-before-edge">SYSAUX</text></g><g stroke-linecap="round"><g transform="translate(336.2043770285927 1070.8990133617244) rotate(0 13.385796505361213 12.60807735047365)" fill-rule="evenodd"><path d="M0 0 C0 0, 0 0, 0 0 M0 0 C0 0, 0 0, 0 0 M0.39 5.64 C2.3 3.46, 4.2 1.27, 6.96 -1.9 M0.39 5.64 C2.74 2.94, 5.09 0.24, 6.96 -1.9 M0.13 12.04 C3.37 8.32, 6.61 4.59, 12.6 -2.3 M0.13 12.04 C4.01 7.59, 7.88 3.13, 12.6 -2.3 M0.53 17.68 C7.41 9.76, 14.3 1.84, 18.24 -2.69 M0.53 17.68 C5.18 12.33, 9.84 6.97, 18.24 -2.69 M0.27 24.08 C5.35 18.24, 10.43 12.39, 22.57 -1.58 M0.27 24.08 C5.44 18.13, 10.61 12.18, 22.57 -1.58 M3.94 25.95 C8.71 20.46, 13.48 14.98, 26.25 0.29 M3.94 25.95 C11.54 17.21, 19.15 8.46, 26.25 0.29 M7.62 27.82 C11.64 23.2, 15.66 18.57, 26.64 5.93 M7.62 27.82 C11.95 22.83, 16.29 17.84, 26.64 5.93 M12.6 28.18 C17.45 22.6, 22.3 17.02, 26.38 12.33 M12.6 28.18 C17.51 22.54, 22.42 16.89, 26.38 12.33 M18.25 27.79 C21.21 24.38, 24.17 20.97, 26.12 18.73 M18.25 27.79 C19.99 25.78, 21.74 23.76, 26.12 18.73 M24.55 26.64 C25.08 26.02, 25.62 25.4, 26.51 24.37 M24.55 26.64 C25.07 26.04, 25.59 25.44, 26.51 24.37 M0.5 25.33 C0.5 25.33, 0.5 25.33, 0.5 25.33 M0.5 25.33 C0.5 25.33, 0.5 25.33, 0.5 25.33 M9.16 27.56 C7.08 25.76, 5 23.95, 0.11 19.69 M9.16 27.56 C6.3 25.07, 3.43 22.58, 0.11 19.69 M15.56 27.82 C11.37 24.18, 7.17 20.53, 0.47 14.7 M15.56 27.82 C10.95 23.82, 6.35 19.81, 0.47 14.7 M20.45 26.77 C13.17 20.44, 5.89 14.11, 0.07 9.06 M20.45 26.77 C13.3 20.56, 6.14 14.34, 0.07 9.06 M25.34 25.72 C20.09 21.16, 14.84 16.6, 0.43 4.07 M25.34 25.72 C16.6 18.13, 7.86 10.53, 0.43 4.07 M27.21 22.05 C17.32 13.45, 7.44 4.86, 0.79 -0.91 M27.21 22.05 C19.25 15.13, 11.3 8.22, 0.79 -0.91 M26.81 16.41 C19.88 10.38, 12.94 4.35, 4.93 -2.62 M26.81 16.41 C20.09 10.56, 13.37 4.72, 4.93 -2.62 M27.17 11.42 C22.5 7.35, 17.82 3.29, 10.57 -3.01 M27.17 11.42 C22.32 7.2, 17.47 2.98, 10.57 -3.01 M26.78 5.78 C24.39 3.7, 22 1.62, 16.21 -3.41 M26.78 5.78 C24.59 3.87, 22.39 1.96, 16.21 -3.41 M27.14 0.79 C26.54 0.27, 25.95 -0.25, 24.88 -1.18 M27.14 0.79 C26.37 0.12, 25.59 -0.56, 24.88 -1.18" stroke="#40c057" stroke-width="0.5" fill="none"></path><path d="M0 0 C0 3.57, -0.08 17.21, 0 21.43 C0.08 25.65, -0.15 24.42, 0.47 25.3 C1.08 26.19, 2.35 26.3, 3.69 26.73 C5.03 27.15, 6.85 27.62, 8.5 27.85 C10.16 28.09, 12.06 28.14, 13.64 28.14 C15.23 28.14, 16.61 28.02, 18.03 27.85 C19.45 27.69, 20.78 27.59, 22.15 27.14 C23.52 26.69, 25.52 26.1, 26.25 25.15 C26.98 24.2, 26.45 25.13, 26.53 21.43 C26.61 17.72, 26.77 6.51, 26.75 2.92 C26.73 -0.67, 27.03 0.68, 26.42 -0.09 C25.8 -0.86, 24.27 -1.28, 23.09 -1.7 C21.91 -2.12, 20.79 -2.41, 19.36 -2.61 C17.93 -2.81, 15.83 -2.83, 14.51 -2.88 C13.18 -2.92, 13.03 -2.97, 11.43 -2.87 C9.82 -2.77, 6.77 -2.77, 4.87 -2.29 C2.96 -1.81, 0.81 -0.38, 0 0 M0 0 C0 3.57, -0.08 17.21, 0 21.43 C0.08 25.65, -0.15 24.42, 0.47 25.3 C1.08 26.19, 2.35 26.3, 3.69 26.73 C5.03 27.15, 6.85 27.62, 8.5 27.85 C10.16 28.09, 12.06 28.14, 13.64 28.14 C15.23 28.14, 16.61 28.02, 18.03 27.85 C19.45 27.69, 20.78 27.59, 22.15 27.14 C23.52 26.69, 25.52 26.1, 26.25 25.15 C26.98 24.2, 26.45 25.13, 26.53 21.43 C26.61 17.72, 26.77 6.51, 26.75 2.92 C26.73 -0.67, 27.03 0.68, 26.42 -0.09 C25.8 -0.86, 24.27 -1.28, 23.09 -1.7 C21.91 -2.12, 20.79 -2.41, 19.36 -2.61 C17.93 -2.81, 15.83 -2.83, 14.51 -2.88 C13.18 -2.92, 13.03 -2.97, 11.43 -2.87 C9.82 -2.77, 6.77 -2.77, 4.87 -2.29 C2.96 -1.81, 0.81 -0.38, 0 0" stroke="#2b8a3e" stroke-width="1" fill="none"></path></g></g><mask></mask><g stroke-linecap="round" transform="translate(336.2858049852766 1067.619077643887) rotate(0 13.352879906748058 3.6305796658753025)"><path d="M26.71 3.63 C26.71 3.84, 26.64 4.05, 26.5 4.26 C26.37 4.47, 26.16 4.67, 25.9 4.87 C25.64 5.07, 25.3 5.26, 24.92 5.45 C24.53 5.63, 24.08 5.8, 23.58 5.96 C23.08 6.13, 22.53 6.28, 21.94 6.41 C21.34 6.55, 20.7 6.67, 20.03 6.77 C19.36 6.88, 18.65 6.97, 17.92 7.04 C17.19 7.11, 16.43 7.17, 15.67 7.21 C14.91 7.24, 14.13 7.26, 13.35 7.26 C12.58 7.26, 11.8 7.24, 11.03 7.21 C10.27 7.17, 9.51 7.11, 8.79 7.04 C8.06 6.97, 7.35 6.88, 6.68 6.77 C6.01 6.67, 5.36 6.55, 4.77 6.41 C4.18 6.28, 3.62 6.13, 3.12 5.96 C2.63 5.8, 2.18 5.63, 1.79 5.45 C1.4 5.26, 1.07 5.07, 0.81 4.87 C0.54 4.67, 0.34 4.47, 0.2 4.26 C0.07 4.05, 0 3.84, 0 3.63 C0 3.42, 0.07 3.21, 0.2 3 C0.34 2.79, 0.54 2.59, 0.81 2.39 C1.07 2.19, 1.4 2, 1.79 1.82 C2.18 1.63, 2.63 1.46, 3.12 1.3 C3.62 1.14, 4.18 0.98, 4.77 0.85 C5.36 0.71, 6.01 0.59, 6.68 0.49 C7.35 0.38, 8.06 0.29, 8.79 0.22 C9.51 0.15, 10.27 0.09, 11.03 0.06 C11.8 0.02, 12.58 0, 13.35 0 C14.13 0, 14.91 0.02, 15.67 0.06 C16.43 0.09, 17.19 0.15, 17.92 0.22 C18.65 0.29, 19.36 0.38, 20.03 0.49 C20.7 0.59, 21.34 0.71, 21.94 0.85 C22.53 0.98, 23.08 1.14, 23.58 1.3 C24.08 1.46, 24.53 1.63, 24.92 1.82 C25.3 2, 25.64 2.19, 25.9 2.39 C26.16 2.59, 26.37 2.79, 26.5 3 C26.64 3.21, 26.67 3.53, 26.71 3.63 C26.74 3.74, 26.74 3.53, 26.71 3.63" stroke="none" stroke-width="0" fill="#ffffff"></path><path d="M26.71 3.63 C26.71 3.84, 26.64 4.05, 26.5 4.26 C26.37 4.47, 26.16 4.67, 25.9 4.87 C25.64 5.07, 25.3 5.26, 24.92 5.45 C24.53 5.63, 24.08 5.8, 23.58 5.96 C23.08 6.13, 22.53 6.28, 21.94 6.41 C21.34 6.55, 20.7 6.67, 20.03 6.77 C19.36 6.88, 18.65 6.97, 17.92 7.04 C17.19 7.11, 16.43 7.17, 15.67 7.21 C14.91 7.24, 14.13 7.26, 13.35 7.26 C12.58 7.26, 11.8 7.24, 11.03 7.21 C10.27 7.17, 9.51 7.11, 8.79 7.04 C8.06 6.97, 7.35 6.88, 6.68 6.77 C6.01 6.67, 5.36 6.55, 4.77 6.41 C4.18 6.28, 3.62 6.13, 3.12 5.96 C2.63 5.8, 2.18 5.63, 1.79 5.45 C1.4 5.26, 1.07 5.07, 0.81 4.87 C0.54 4.67, 0.34 4.47, 0.2 4.26 C0.07 4.05, 0 3.84, 0 3.63 C0 3.42, 0.07 3.21, 0.2 3 C0.34 2.79, 0.54 2.59, 0.81 2.39 C1.07 2.19, 1.4 2, 1.79 1.82 C2.18 1.63, 2.63 1.46, 3.12 1.3 C3.62 1.14, 4.18 0.98, 4.77 0.85 C5.36 0.71, 6.01 0.59, 6.68 0.49 C7.35 0.38, 8.06 0.29, 8.79 0.22 C9.51 0.15, 10.27 0.09, 11.03 0.06 C11.8 0.02, 12.58 0, 13.35 0 C14.13 0, 14.91 0.02, 15.67 0.06 C16.43 0.09, 17.19 0.15, 17.92 0.22 C18.65 0.29, 19.36 0.38, 20.03 0.49 C20.7 0.59, 21.34 0.71, 21.94 0.85 C22.53 0.98, 23.08 1.14, 23.58 1.3 C24.08 1.46, 24.53 1.63, 24.92 1.82 C25.3 2, 25.64 2.19, 25.9 2.39 C26.16 2.59, 26.37 2.79, 26.5 3 C26.64 3.21, 26.67 3.53, 26.71 3.63 C26.74 3.74, 26.74 3.53, 26.71 3.63" stroke="#2b8a3e" stroke-width="1" fill="none"></path></g><g transform="translate(376.1699271778234 1105.8310495985443) rotate(0 40.099998474121094 17.5)"><text x="0" y="0" font-family="Virgil, Segoe UI Emoji" font-size="28px" fill="#000000" text-anchor="start" style="white-space: pre;" direction="ltr" dominant-baseline="text-before-edge">UNDO</text></g><g stroke-linecap="round"><g transform="translate(336.2043770285927 1110.8990133617244) rotate(0 13.385796505361213 12.60807735047365)" fill-rule="evenodd"><path d="M0 0 C0 0, 0 0, 0 0 M0 0 C0 0, 0 0, 0 0 M0.39 5.64 C2.98 2.67, 5.57 -0.31, 6.96 -1.9 M0.39 5.64 C2.7 3, 5 0.35, 6.96 -1.9 M0.13 12.04 C4.31 7.24, 8.49 2.43, 12.6 -2.3 M0.13 12.04 C3.37 8.32, 6.61 4.59, 12.6 -2.3 M0.53 17.68 C4.44 13.19, 8.35 8.69, 18.24 -2.69 M0.53 17.68 C4.72 12.86, 8.92 8.03, 18.24 -2.69 M0.27 24.08 C8.77 14.3, 17.27 4.53, 22.57 -1.58 M0.27 24.08 C7.67 15.57, 15.06 7.06, 22.57 -1.58 M3.94 25.95 C9.19 19.91, 14.44 13.87, 26.25 0.29 M3.94 25.95 C9.43 19.64, 14.92 13.32, 26.25 0.29 M7.62 27.82 C13.96 20.53, 20.3 13.23, 26.64 5.93 M7.62 27.82 C12.26 22.48, 16.9 17.14, 26.64 5.93 M12.6 28.18 C16.67 23.51, 20.73 18.83, 26.38 12.33 M12.6 28.18 C17.57 22.46, 22.54 16.75, 26.38 12.33 M18.25 27.79 C20.23 25.5, 22.22 23.22, 26.12 18.73 M18.25 27.79 C20.71 24.96, 23.16 22.13, 26.12 18.73 M24.55 26.64 C25.31 25.76, 26.08 24.88, 26.51 24.37 M24.55 26.64 C25.15 25.95, 25.75 25.26, 26.51 24.37 M0.5 25.33 C0.5 25.33, 0.5 25.33, 0.5 25.33 M0.5 25.33 C0.5 25.33, 0.5 25.33, 0.5 25.33 M9.16 27.56 C6.09 24.89, 3.02 22.22, 0.11 19.69 M9.16 27.56 C6.94 25.63, 4.72 23.7, 0.11 19.69 M15.56 27.82 C11.85 24.59, 8.13 21.36, 0.47 14.7 M15.56 27.82 C10.42 23.35, 5.28 18.88, 0.47 14.7 M20.45 26.77 C14.32 21.44, 8.19 16.12, 0.07 9.06 M20.45 26.77 C14.53 21.62, 8.6 16.48, 0.07 9.06 M25.34 25.72 C16.46 18.01, 7.59 10.29, 0.43 4.07 M25.34 25.72 C15.55 17.21, 5.76 8.71, 0.43 4.07 M27.21 22.05 C20.29 16.03, 13.37 10.02, 0.79 -0.91 M27.21 22.05 C16.87 13.06, 6.52 4.07, 0.79 -0.91 M26.81 16.41 C20.18 10.64, 13.54 4.87, 4.93 -2.62 M26.81 16.41 C18.37 9.06, 9.92 1.72, 4.93 -2.62 M27.17 11.42 C21.48 6.47, 15.79 1.52, 10.57 -3.01 M27.17 11.42 C23.17 7.94, 19.17 4.46, 10.57 -3.01 M26.78 5.78 C24.02 3.37, 21.26 0.97, 16.21 -3.41 M26.78 5.78 C23.65 3.05, 20.52 0.33, 16.21 -3.41 M27.14 0.79 C26.47 0.2, 25.79 -0.38, 24.88 -1.18 M27.14 0.79 C26.29 0.05, 25.44 -0.69, 24.88 -1.18" stroke="#40c057" stroke-width="0.5" fill="none"></path><path d="M0 0 C0 3.57, -0.08 17.21, 0 21.43 C0.08 25.65, -0.15 24.42, 0.47 25.3 C1.08 26.19, 2.35 26.3, 3.69 26.73 C5.03 27.15, 6.85 27.62, 8.5 27.85 C10.16 28.09, 12.06 28.14, 13.64 28.14 C15.23 28.14, 16.61 28.02, 18.03 27.85 C19.45 27.69, 20.78 27.59, 22.15 27.14 C23.52 26.69, 25.52 26.1, 26.25 25.15 C26.98 24.2, 26.45 25.13, 26.53 21.43 C26.61 17.72, 26.77 6.51, 26.75 2.92 C26.73 -0.67, 27.03 0.68, 26.42 -0.09 C25.8 -0.86, 24.27 -1.28, 23.09 -1.7 C21.91 -2.12, 20.79 -2.41, 19.36 -2.61 C17.93 -2.81, 15.83 -2.83, 14.51 -2.88 C13.18 -2.92, 13.03 -2.97, 11.43 -2.87 C9.82 -2.77, 6.77 -2.77, 4.87 -2.29 C2.96 -1.81, 0.81 -0.38, 0 0 M0 0 C0 3.57, -0.08 17.21, 0 21.43 C0.08 25.65, -0.15 24.42, 0.47 25.3 C1.08 26.19, 2.35 26.3, 3.69 26.73 C5.03 27.15, 6.85 27.62, 8.5 27.85 C10.16 28.09, 12.06 28.14, 13.64 28.14 C15.23 28.14, 16.61 28.02, 18.03 27.85 C19.45 27.69, 20.78 27.59, 22.15 27.14 C23.52 26.69, 25.52 26.1, 26.25 25.15 C26.98 24.2, 26.45 25.13, 26.53 21.43 C26.61 17.72, 26.77 6.51, 26.75 2.92 C26.73 -0.67, 27.03 0.68, 26.42 -0.09 C25.8 -0.86, 24.27 -1.28, 23.09 -1.7 C21.91 -2.12, 20.79 -2.41, 19.36 -2.61 C17.93 -2.81, 15.83 -2.83, 14.51 -2.88 C13.18 -2.92, 13.03 -2.97, 11.43 -2.87 C9.82 -2.77, 6.77 -2.77, 4.87 -2.29 C2.96 -1.81, 0.81 -0.38, 0 0" stroke="#2b8a3e" stroke-width="1" fill="none"></path></g></g><mask></mask><g stroke-linecap="round" transform="translate(336.2858049852766 1107.619077643887) rotate(0 13.352879906748058 3.6305796658753025)"><path d="M26.71 3.63 C26.71 3.84, 26.64 4.05, 26.5 4.26 C26.37 4.47, 26.16 4.67, 25.9 4.87 C25.64 5.07, 25.3 5.26, 24.92 5.45 C24.53 5.63, 24.08 5.8, 23.58 5.96 C23.08 6.13, 22.53 6.28, 21.94 6.41 C21.34 6.55, 20.7 6.67, 20.03 6.77 C19.36 6.88, 18.65 6.97, 17.92 7.04 C17.19 7.11, 16.43 7.17, 15.67 7.21 C14.91 7.24, 14.13 7.26, 13.35 7.26 C12.58 7.26, 11.8 7.24, 11.03 7.21 C10.27 7.17, 9.51 7.11, 8.79 7.04 C8.06 6.97, 7.35 6.88, 6.68 6.77 C6.01 6.67, 5.36 6.55, 4.77 6.41 C4.18 6.28, 3.62 6.13, 3.12 5.96 C2.63 5.8, 2.18 5.63, 1.79 5.45 C1.4 5.26, 1.07 5.07, 0.81 4.87 C0.54 4.67, 0.34 4.47, 0.2 4.26 C0.07 4.05, 0 3.84, 0 3.63 C0 3.42, 0.07 3.21, 0.2 3 C0.34 2.79, 0.54 2.59, 0.81 2.39 C1.07 2.19, 1.4 2, 1.79 1.82 C2.18 1.63, 2.63 1.46, 3.12 1.3 C3.62 1.14, 4.18 0.98, 4.77 0.85 C5.36 0.71, 6.01 0.59, 6.68 0.49 C7.35 0.38, 8.06 0.29, 8.79 0.22 C9.51 0.15, 10.27 0.09, 11.03 0.06 C11.8 0.02, 12.58 0, 13.35 0 C14.13 0, 14.91 0.02, 15.67 0.06 C16.43 0.09, 17.19 0.15, 17.92 0.22 C18.65 0.29, 19.36 0.38, 20.03 0.49 C20.7 0.59, 21.34 0.71, 21.94 0.85 C22.53 0.98, 23.08 1.14, 23.58 1.3 C24.08 1.46, 24.53 1.63, 24.92 1.82 C25.3 2, 25.64 2.19, 25.9 2.39 C26.16 2.59, 26.37 2.79, 26.5 3 C26.64 3.21, 26.67 3.53, 26.71 3.63 C26.74 3.74, 26.74 3.53, 26.71 3.63" stroke="none" stroke-width="0" fill="#ffffff"></path><path d="M26.71 3.63 C26.71 3.84, 26.64 4.05, 26.5 4.26 C26.37 4.47, 26.16 4.67, 25.9 4.87 C25.64 5.07, 25.3 5.26, 24.92 5.45 C24.53 5.63, 24.08 5.8, 23.58 5.96 C23.08 6.13, 22.53 6.28, 21.94 6.41 C21.34 6.55, 20.7 6.67, 20.03 6.77 C19.36 6.88, 18.65 6.97, 17.92 7.04 C17.19 7.11, 16.43 7.17, 15.67 7.21 C14.91 7.24, 14.13 7.26, 13.35 7.26 C12.58 7.26, 11.8 7.24, 11.03 7.21 C10.27 7.17, 9.51 7.11, 8.79 7.04 C8.06 6.97, 7.35 6.88, 6.68 6.77 C6.01 6.67, 5.36 6.55, 4.77 6.41 C4.18 6.28, 3.62 6.13, 3.12 5.96 C2.63 5.8, 2.18 5.63, 1.79 5.45 C1.4 5.26, 1.07 5.07, 0.81 4.87 C0.54 4.67, 0.34 4.47, 0.2 4.26 C0.07 4.05, 0 3.84, 0 3.63 C0 3.42, 0.07 3.21, 0.2 3 C0.34 2.79, 0.54 2.59, 0.81 2.39 C1.07 2.19, 1.4 2, 1.79 1.82 C2.18 1.63, 2.63 1.46, 3.12 1.3 C3.62 1.14, 4.18 0.98, 4.77 0.85 C5.36 0.71, 6.01 0.59, 6.68 0.49 C7.35 0.38, 8.06 0.29, 8.79 0.22 C9.51 0.15, 10.27 0.09, 11.03 0.06 C11.8 0.02, 12.58 0, 13.35 0 C14.13 0, 14.91 0.02, 15.67 0.06 C16.43 0.09, 17.19 0.15, 17.92 0.22 C18.65 0.29, 19.36 0.38, 20.03 0.49 C20.7 0.59, 21.34 0.71, 21.94 0.85 C22.53 0.98, 23.08 1.14, 23.58 1.3 C24.08 1.46, 24.53 1.63, 24.92 1.82 C25.3 2, 25.64 2.19, 25.9 2.39 C26.16 2.59, 26.37 2.79, 26.5 3 C26.64 3.21, 26.67 3.53, 26.71 3.63 C26.74 3.74, 26.74 3.53, 26.71 3.63" stroke="#2b8a3e" stroke-width="1" fill="none"></path></g><g transform="translate(556.1699271778234 1105.8310495985443) rotate(0 57.141666412353516 17.5)"><text x="0" y="0" font-family="Virgil, Segoe UI Emoji" font-size="28px" fill="#000000" text-anchor="start" style="white-space: pre;" direction="ltr" dominant-baseline="text-before-edge">SECRET</text></g><g stroke-linecap="round"><g transform="translate(516.2043770285927 1110.8990133617244) rotate(0 13.385796505361213 12.60807735047365)" fill-rule="evenodd"><path d="M0 0 C0 0, 0 0, 0 0 M0 0 C0 0, 0 0, 0 0 M0.39 5.64 C2.19 3.58, 3.98 1.52, 6.96 -1.9 M0.39 5.64 C2.54 3.17, 4.69 0.71, 6.96 -1.9 M0.13 12.04 C3.74 7.9, 7.34 3.75, 12.6 -2.3 M0.13 12.04 C4.89 6.57, 9.64 1.1, 12.6 -2.3 M0.53 17.68 C6.99 10.25, 13.45 2.82, 18.24 -2.69 M0.53 17.68 C6.69 10.59, 12.86 3.49, 18.24 -2.69 M0.27 24.08 C7.52 15.74, 14.77 7.4, 22.57 -1.58 M0.27 24.08 C7.92 15.28, 15.57 6.48, 22.57 -1.58 M3.94 25.95 C12.57 16.02, 21.2 6.09, 26.25 0.29 M3.94 25.95 C12.44 16.17, 20.95 6.39, 26.25 0.29 M7.62 27.82 C13.34 21.24, 19.06 14.65, 26.64 5.93 M7.62 27.82 C14.97 19.36, 22.32 10.91, 26.64 5.93 M12.6 28.18 C17.99 21.98, 23.38 15.79, 26.38 12.33 M12.6 28.18 C16.75 23.41, 20.9 18.64, 26.38 12.33 M18.25 27.79 C20.58 25.1, 22.91 22.42, 26.12 18.73 M18.25 27.79 C20.57 25.11, 22.89 22.44, 26.12 18.73 M24.55 26.64 C24.96 26.16, 25.37 25.68, 26.51 24.37 M24.55 26.64 C25.09 26.01, 25.63 25.39, 26.51 24.37 M0.5 25.33 C0.5 25.33, 0.5 25.33, 0.5 25.33 M0.5 25.33 C0.5 25.33, 0.5 25.33, 0.5 25.33 M9.16 27.56 C5.88 24.71, 2.59 21.85, 0.11 19.69 M9.16 27.56 C6.78 25.49, 4.4 23.42, 0.11 19.69 M15.56 27.82 C10.58 23.49, 5.59 19.16, 0.47 14.7 M15.56 27.82 C10.22 23.18, 4.87 18.53, 0.47 14.7 M20.45 26.77 C13.38 20.62, 6.3 14.47, 0.07 9.06 M20.45 26.77 C14 21.17, 7.55 15.56, 0.07 9.06 M25.34 25.72 C18.04 19.38, 10.75 13.04, 0.43 4.07 M25.34 25.72 C18.29 19.6, 11.25 13.47, 0.43 4.07 M27.21 22.05 C18.08 14.11, 8.94 6.17, 0.79 -0.91 M27.21 22.05 C19.84 15.64, 12.47 9.24, 0.79 -0.91 M26.81 16.41 C19.74 10.25, 12.66 4.1, 4.93 -2.62 M26.81 16.41 C21.71 11.96, 16.6 7.52, 4.93 -2.62 M27.17 11.42 C21.8 6.74, 16.42 2.07, 10.57 -3.01 M27.17 11.42 C22.42 7.28, 17.66 3.14, 10.57 -3.01 M26.78 5.78 C23.97 3.33, 21.16 0.89, 16.21 -3.41 M26.78 5.78 C24.66 3.93, 22.54 2.09, 16.21 -3.41 M27.14 0.79 C26.39 0.14, 25.65 -0.51, 24.88 -1.18 M27.14 0.79 C26.53 0.26, 25.93 -0.27, 24.88 -1.18" stroke="#fa5252" stroke-width="0.5" fill="none"></path><path d="M0 0 C0 3.57, -0.08 17.21, 0 21.43 C0.08 25.65, -0.15 24.42, 0.47 25.3 C1.08 26.19, 2.35 26.3, 3.69 26.73 C5.03 27.15, 6.85 27.62, 8.5 27.85 C10.16 28.09, 12.06 28.14, 13.64 28.14 C15.23 28.14, 16.61 28.02, 18.03 27.85 C19.45 27.69, 20.78 27.59, 22.15 27.14 C23.52 26.69, 25.52 26.1, 26.25 25.15 C26.98 24.2, 26.45 25.13, 26.53 21.43 C26.61 17.72, 26.77 6.51, 26.75 2.92 C26.73 -0.67, 27.03 0.68, 26.42 -0.09 C25.8 -0.86, 24.27 -1.28, 23.09 -1.7 C21.91 -2.12, 20.79 -2.41, 19.36 -2.61 C17.93 -2.81, 15.83 -2.83, 14.51 -2.88 C13.18 -2.92, 13.03 -2.97, 11.43 -2.87 C9.82 -2.77, 6.77 -2.77, 4.87 -2.29 C2.96 -1.81, 0.81 -0.38, 0 0 M0 0 C0 3.57, -0.08 17.21, 0 21.43 C0.08 25.65, -0.15 24.42, 0.47 25.3 C1.08 26.19, 2.35 26.3, 3.69 26.73 C5.03 27.15, 6.85 27.62, 8.5 27.85 C10.16 28.09, 12.06 28.14, 13.64 28.14 C15.23 28.14, 16.61 28.02, 18.03 27.85 C19.45 27.69, 20.78 27.59, 22.15 27.14 C23.52 26.69, 25.52 26.1, 26.25 25.15 C26.98 24.2, 26.45 25.13, 26.53 21.43 C26.61 17.72, 26.77 6.51, 26.75 2.92 C26.73 -0.67, 27.03 0.68, 26.42 -0.09 C25.8 -0.86, 24.27 -1.28, 23.09 -1.7 C21.91 -2.12, 20.79 -2.41, 19.36 -2.61 C17.93 -2.81, 15.83 -2.83, 14.51 -2.88 C13.18 -2.92, 13.03 -2.97, 11.43 -2.87 C9.82 -2.77, 6.77 -2.77, 4.87 -2.29 C2.96 -1.81, 0.81 -0.38, 0 0" stroke="#c92a2a" stroke-width="1" fill="none"></path></g></g><mask></mask><g stroke-linecap="round" transform="translate(516.2858049852766 1107.619077643887) rotate(0 13.352879906748058 3.6305796658753025)"><path d="M26.71 3.63 C26.71 3.84, 26.64 4.05, 26.5 4.26 C26.37 4.47, 26.16 4.67, 25.9 4.87 C25.64 5.07, 25.3 5.26, 24.92 5.45 C24.53 5.63, 24.08 5.8, 23.58 5.96 C23.08 6.13, 22.53 6.28, 21.94 6.41 C21.34 6.55, 20.7 6.67, 20.03 6.77 C19.36 6.88, 18.65 6.97, 17.92 7.04 C17.19 7.11, 16.43 7.17, 15.67 7.21 C14.91 7.24, 14.13 7.26, 13.35 7.26 C12.58 7.26, 11.8 7.24, 11.03 7.21 C10.27 7.17, 9.51 7.11, 8.79 7.04 C8.06 6.97, 7.35 6.88, 6.68 6.77 C6.01 6.67, 5.36 6.55, 4.77 6.41 C4.18 6.28, 3.62 6.13, 3.12 5.96 C2.63 5.8, 2.18 5.63, 1.79 5.45 C1.4 5.26, 1.07 5.07, 0.81 4.87 C0.54 4.67, 0.34 4.47, 0.2 4.26 C0.07 4.05, 0 3.84, 0 3.63 C0 3.42, 0.07 3.21, 0.2 3 C0.34 2.79, 0.54 2.59, 0.81 2.39 C1.07 2.19, 1.4 2, 1.79 1.82 C2.18 1.63, 2.63 1.46, 3.12 1.3 C3.62 1.14, 4.18 0.98, 4.77 0.85 C5.36 0.71, 6.01 0.59, 6.68 0.49 C7.35 0.38, 8.06 0.29, 8.79 0.22 C9.51 0.15, 10.27 0.09, 11.03 0.06 C11.8 0.02, 12.58 0, 13.35 0 C14.13 0, 14.91 0.02, 15.67 0.06 C16.43 0.09, 17.19 0.15, 17.92 0.22 C18.65 0.29, 19.36 0.38, 20.03 0.49 C20.7 0.59, 21.34 0.71, 21.94 0.85 C22.53 0.98, 23.08 1.14, 23.58 1.3 C24.08 1.46, 24.53 1.63, 24.92 1.82 C25.3 2, 25.64 2.19, 25.9 2.39 C26.16 2.59, 26.37 2.79, 26.5 3 C26.64 3.21, 26.67 3.53, 26.71 3.63 C26.74 3.74, 26.74 3.53, 26.71 3.63" stroke="none" stroke-width="0" fill="#ffffff"></path><path d="M26.71 3.63 C26.71 3.84, 26.64 4.05, 26.5 4.26 C26.37 4.47, 26.16 4.67, 25.9 4.87 C25.64 5.07, 25.3 5.26, 24.92 5.45 C24.53 5.63, 24.08 5.8, 23.58 5.96 C23.08 6.13, 22.53 6.28, 21.94 6.41 C21.34 6.55, 20.7 6.67, 20.03 6.77 C19.36 6.88, 18.65 6.97, 17.92 7.04 C17.19 7.11, 16.43 7.17, 15.67 7.21 C14.91 7.24, 14.13 7.26, 13.35 7.26 C12.58 7.26, 11.8 7.24, 11.03 7.21 C10.27 7.17, 9.51 7.11, 8.79 7.04 C8.06 6.97, 7.35 6.88, 6.68 6.77 C6.01 6.67, 5.36 6.55, 4.77 6.41 C4.18 6.28, 3.62 6.13, 3.12 5.96 C2.63 5.8, 2.18 5.63, 1.79 5.45 C1.4 5.26, 1.07 5.07, 0.81 4.87 C0.54 4.67, 0.34 4.47, 0.2 4.26 C0.07 4.05, 0 3.84, 0 3.63 C0 3.42, 0.07 3.21, 0.2 3 C0.34 2.79, 0.54 2.59, 0.81 2.39 C1.07 2.19, 1.4 2, 1.79 1.82 C2.18 1.63, 2.63 1.46, 3.12 1.3 C3.62 1.14, 4.18 0.98, 4.77 0.85 C5.36 0.71, 6.01 0.59, 6.68 0.49 C7.35 0.38, 8.06 0.29, 8.79 0.22 C9.51 0.15, 10.27 0.09, 11.03 0.06 C11.8 0.02, 12.58 0, 13.35 0 C14.13 0, 14.91 0.02, 15.67 0.06 C16.43 0.09, 17.19 0.15, 17.92 0.22 C18.65 0.29, 19.36 0.38, 20.03 0.49 C20.7 0.59, 21.34 0.71, 21.94 0.85 C22.53 0.98, 23.08 1.14, 23.58 1.3 C24.08 1.46, 24.53 1.63, 24.92 1.82 C25.3 2, 25.64 2.19, 25.9 2.39 C26.16 2.59, 26.37 2.79, 26.5 3 C26.64 3.21, 26.67 3.53, 26.71 3.63 C26.74 3.74, 26.74 3.53, 26.71 3.63" stroke="#c92a2a" stroke-width="1" fill="none"></path></g><g transform="translate(556.1699271778234 1025.8310495985443) rotate(0 40.66666793823242 17.5)"><text x="0" y="0" font-family="Virgil, Segoe UI Emoji" font-size="28px" fill="#000000" text-anchor="start" style="white-space: pre;" direction="ltr" dominant-baseline="text-before-edge">TEMP</text></g><g stroke-linecap="round"><g transform="translate(516.2043770285927 1030.8990133617244) rotate(0 13.385796505361213 12.60807735047365)" fill-rule="evenodd"><path d="M0 0 C0 0, 0 0, 0 0 M0 0 C0 0, 0 0, 0 0 M0.39 5.64 C2.38 3.36, 4.36 1.08, 6.96 -1.9 M0.39 5.64 C1.9 3.91, 3.41 2.17, 6.96 -1.9 M0.13 12.04 C2.82 8.94, 5.52 5.85, 12.6 -2.3 M0.13 12.04 C3.54 8.12, 6.95 4.19, 12.6 -2.3 M0.53 17.68 C6.06 11.32, 11.6 4.95, 18.24 -2.69 M0.53 17.68 C6.21 11.14, 11.9 4.6, 18.24 -2.69 M0.27 24.08 C7.55 15.7, 14.84 7.32, 22.57 -1.58 M0.27 24.08 C6.7 16.68, 13.14 9.28, 22.57 -1.58 M3.94 25.95 C12.61 15.98, 21.28 6.01, 26.25 0.29 M3.94 25.95 C11.5 17.26, 19.05 8.57, 26.25 0.29 M7.62 27.82 C12.67 22.01, 17.71 16.2, 26.64 5.93 M7.62 27.82 C15.04 19.28, 22.46 10.74, 26.64 5.93 M12.6 28.18 C16.75 23.41, 20.9 18.64, 26.38 12.33 M12.6 28.18 C17.1 23.01, 21.59 17.84, 26.38 12.33 M18.25 27.79 C20.27 25.46, 22.29 23.13, 26.12 18.73 M18.25 27.79 C20.65 25.02, 23.05 22.26, 26.12 18.73 M24.55 26.64 C25.04 26.06, 25.54 25.49, 26.51 24.37 M24.55 26.64 C25.27 25.8, 26 24.97, 26.51 24.37 M0.5 25.33 C0.5 25.33, 0.5 25.33, 0.5 25.33 M0.5 25.33 C0.5 25.33, 0.5 25.33, 0.5 25.33 M9.16 27.56 C5.71 24.56, 2.26 21.56, 0.11 19.69 M9.16 27.56 C6.5 25.25, 3.84 22.94, 0.11 19.69 M15.56 27.82 C12.39 25.07, 9.21 22.31, 0.47 14.7 M15.56 27.82 C10.39 23.33, 5.22 18.83, 0.47 14.7 M20.45 26.77 C15.26 22.26, 10.07 17.75, 0.07 9.06 M20.45 26.77 C12.9 20.21, 5.34 13.64, 0.07 9.06 M25.34 25.72 C19.48 20.63, 13.62 15.54, 0.43 4.07 M25.34 25.72 C18.38 19.67, 11.41 13.62, 0.43 4.07 M27.21 22.05 C17.31 13.44, 7.4 4.83, 0.79 -0.91 M27.21 22.05 C21.62 17.19, 16.03 12.33, 0.79 -0.91 M26.81 16.41 C21.58 11.85, 16.34 7.3, 4.93 -2.62 M26.81 16.41 C21.16 11.49, 15.51 6.58, 4.93 -2.62 M27.17 11.42 C22.58 7.42, 17.98 3.43, 10.57 -3.01 M27.17 11.42 C22.69 7.52, 18.2 3.62, 10.57 -3.01 M26.78 5.78 C24.03 3.38, 21.27 0.99, 16.21 -3.41 M26.78 5.78 C22.91 2.41, 19.04 -0.95, 16.21 -3.41 M27.14 0.79 C26.62 0.34, 26.11 -0.11, 24.88 -1.18 M27.14 0.79 C26.36 0.11, 25.59 -0.56, 24.88 -1.18" stroke="#4c6ef5" stroke-width="0.5" fill="none"></path><path d="M0 0 C0 3.57, -0.08 17.21, 0 21.43 C0.08 25.65, -0.15 24.42, 0.47 25.3 C1.08 26.19, 2.35 26.3, 3.69 26.73 C5.03 27.15, 6.85 27.62, 8.5 27.85 C10.16 28.09, 12.06 28.14, 13.64 28.14 C15.23 28.14, 16.61 28.02, 18.03 27.85 C19.45 27.69, 20.78 27.59, 22.15 27.14 C23.52 26.69, 25.52 26.1, 26.25 25.15 C26.98 24.2, 26.45 25.13, 26.53 21.43 C26.61 17.72, 26.77 6.51, 26.75 2.92 C26.73 -0.67, 27.03 0.68, 26.42 -0.09 C25.8 -0.86, 24.27 -1.28, 23.09 -1.7 C21.91 -2.12, 20.79 -2.41, 19.36 -2.61 C17.93 -2.81, 15.83 -2.83, 14.51 -2.88 C13.18 -2.92, 13.03 -2.97, 11.43 -2.87 C9.82 -2.77, 6.77 -2.77, 4.87 -2.29 C2.96 -1.81, 0.81 -0.38, 0 0 M0 0 C0 3.57, -0.08 17.21, 0 21.43 C0.08 25.65, -0.15 24.42, 0.47 25.3 C1.08 26.19, 2.35 26.3, 3.69 26.73 C5.03 27.15, 6.85 27.62, 8.5 27.85 C10.16 28.09, 12.06 28.14, 13.64 28.14 C15.23 28.14, 16.61 28.02, 18.03 27.85 C19.45 27.69, 20.78 27.59, 22.15 27.14 C23.52 26.69, 25.52 26.1, 26.25 25.15 C26.98 24.2, 26.45 25.13, 26.53 21.43 C26.61 17.72, 26.77 6.51, 26.75 2.92 C26.73 -0.67, 27.03 0.68, 26.42 -0.09 C25.8 -0.86, 24.27 -1.28, 23.09 -1.7 C21.91 -2.12, 20.79 -2.41, 19.36 -2.61 C17.93 -2.81, 15.83 -2.83, 14.51 -2.88 C13.18 -2.92, 13.03 -2.97, 11.43 -2.87 C9.82 -2.77, 6.77 -2.77, 4.87 -2.29 C2.96 -1.81, 0.81 -0.38, 0 0" stroke="#364fc7" stroke-width="1" fill="none"></path></g></g><mask></mask><g stroke-linecap="round" transform="translate(516.2858049852766 1027.619077643887) rotate(0 13.352879906748058 3.6305796658753025)"><path d="M26.71 3.63 C26.71 3.84, 26.64 4.05, 26.5 4.26 C26.37 4.47, 26.16 4.67, 25.9 4.87 C25.64 5.07, 25.3 5.26, 24.92 5.45 C24.53 5.63, 24.08 5.8, 23.58 5.96 C23.08 6.13, 22.53 6.28, 21.94 6.41 C21.34 6.55, 20.7 6.67, 20.03 6.77 C19.36 6.88, 18.65 6.97, 17.92 7.04 C17.19 7.11, 16.43 7.17, 15.67 7.21 C14.91 7.24, 14.13 7.26, 13.35 7.26 C12.58 7.26, 11.8 7.24, 11.03 7.21 C10.27 7.17, 9.51 7.11, 8.79 7.04 C8.06 6.97, 7.35 6.88, 6.68 6.77 C6.01 6.67, 5.36 6.55, 4.77 6.41 C4.18 6.28, 3.62 6.13, 3.12 5.96 C2.63 5.8, 2.18 5.63, 1.79 5.45 C1.4 5.26, 1.07 5.07, 0.81 4.87 C0.54 4.67, 0.34 4.47, 0.2 4.26 C0.07 4.05, 0 3.84, 0 3.63 C0 3.42, 0.07 3.21, 0.2 3 C0.34 2.79, 0.54 2.59, 0.81 2.39 C1.07 2.19, 1.4 2, 1.79 1.82 C2.18 1.63, 2.63 1.46, 3.12 1.3 C3.62 1.14, 4.18 0.98, 4.77 0.85 C5.36 0.71, 6.01 0.59, 6.68 0.49 C7.35 0.38, 8.06 0.29, 8.79 0.22 C9.51 0.15, 10.27 0.09, 11.03 0.06 C11.8 0.02, 12.58 0, 13.35 0 C14.13 0, 14.91 0.02, 15.67 0.06 C16.43 0.09, 17.19 0.15, 17.92 0.22 C18.65 0.29, 19.36 0.38, 20.03 0.49 C20.7 0.59, 21.34 0.71, 21.94 0.85 C22.53 0.98, 23.08 1.14, 23.58 1.3 C24.08 1.46, 24.53 1.63, 24.92 1.82 C25.3 2, 25.64 2.19, 25.9 2.39 C26.16 2.59, 26.37 2.79, 26.5 3 C26.64 3.21, 26.67 3.53, 26.71 3.63 C26.74 3.74, 26.74 3.53, 26.71 3.63" stroke="none" stroke-width="0" fill="#ffffff"></path><path d="M26.71 3.63 C26.71 3.84, 26.64 4.05, 26.5 4.26 C26.37 4.47, 26.16 4.67, 25.9 4.87 C25.64 5.07, 25.3 5.26, 24.92 5.45 C24.53 5.63, 24.08 5.8, 23.58 5.96 C23.08 6.13, 22.53 6.28, 21.94 6.41 C21.34 6.55, 20.7 6.67, 20.03 6.77 C19.36 6.88, 18.65 6.97, 17.92 7.04 C17.19 7.11, 16.43 7.17, 15.67 7.21 C14.91 7.24, 14.13 7.26, 13.35 7.26 C12.58 7.26, 11.8 7.24, 11.03 7.21 C10.27 7.17, 9.51 7.11, 8.79 7.04 C8.06 6.97, 7.35 6.88, 6.68 6.77 C6.01 6.67, 5.36 6.55, 4.77 6.41 C4.18 6.28, 3.62 6.13, 3.12 5.96 C2.63 5.8, 2.18 5.63, 1.79 5.45 C1.4 5.26, 1.07 5.07, 0.81 4.87 C0.54 4.67, 0.34 4.47, 0.2 4.26 C0.07 4.05, 0 3.84, 0 3.63 C0 3.42, 0.07 3.21, 0.2 3 C0.34 2.79, 0.54 2.59, 0.81 2.39 C1.07 2.19, 1.4 2, 1.79 1.82 C2.18 1.63, 2.63 1.46, 3.12 1.3 C3.62 1.14, 4.18 0.98, 4.77 0.85 C5.36 0.71, 6.01 0.59, 6.68 0.49 C7.35 0.38, 8.06 0.29, 8.79 0.22 C9.51 0.15, 10.27 0.09, 11.03 0.06 C11.8 0.02, 12.58 0, 13.35 0 C14.13 0, 14.91 0.02, 15.67 0.06 C16.43 0.09, 17.19 0.15, 17.92 0.22 C18.65 0.29, 19.36 0.38, 20.03 0.49 C20.7 0.59, 21.34 0.71, 21.94 0.85 C22.53 0.98, 23.08 1.14, 23.58 1.3 C24.08 1.46, 24.53 1.63, 24.92 1.82 C25.3 2, 25.64 2.19, 25.9 2.39 C26.16 2.59, 26.37 2.79, 26.5 3 C26.64 3.21, 26.67 3.53, 26.71 3.63 C26.74 3.74, 26.74 3.53, 26.71 3.63" stroke="#364fc7" stroke-width="1" fill="none"></path></g><g stroke-linecap="round" transform="translate(623.9656254816 1575.295024809795) rotate(0 102.80519894116696 108.85256358476454)"><path d="M0 0 C43.78 -1.96, 84.5 -1.89, 205.61 0 M205.61 0 C206.69 71.47, 205.66 141.9, 205.61 217.71 M205.61 217.71 C147.01 216.91, 89.41 219.86, 0 217.71 M0 217.71 C-1.11 165.87, 0.91 112.35, 0 0" stroke="#000000" stroke-width="4.5" fill="none" stroke-dasharray="1.5 10"></path></g><g stroke-linecap="round" transform="translate(829.5760233638903 1575.295024809795) rotate(0 102.80519894116696 108.85256358476454)"><path d="M0 0 C78.85 0.08, 160.55 1.28, 205.61 0 M205.61 0 C204.74 76.74, 205.32 155.27, 205.61 217.71 M205.61 217.71 C137.36 218.16, 71.48 216.06, 0 217.71 M0 217.71 C2.15 150.38, 2.78 81.45, 0 0" stroke="#000000" stroke-width="4.5" fill="none" stroke-dasharray="1.5 10"></path></g><g stroke-linecap="round" transform="translate(1035.4635921257286 1575.295024809795) rotate(0 102.80519894116696 108.85256358476454)"><path d="M0 0 C58.42 1.21, 116.85 0.35, 205.61 0 M205.61 0 C204.2 65.98, 204.99 130.78, 205.61 217.71 M205.61 217.71 C157.14 219.09, 110.9 217.92, 0 217.71 M0 217.71 C0.58 133.34, 0.9 47.2, 0 0" stroke="#000000" stroke-width="4.5" fill="none" stroke-dasharray="1.5 10"></path></g><g stroke-linecap="round" transform="translate(1241.073990008117 1575.295024809795) rotate(0 102.80519894116696 108.85256358476454)"><path d="M0 0 C59.7 -0.89, 117.45 -1.95, 205.61 0 M205.61 0 C205.62 52.43, 204 105.83, 205.61 217.71 M205.61 217.71 C124.39 215.75, 44.28 217.82, 0 217.71 M0 217.71 C0.22 133.7, 0.28 46.66, 0 0" stroke="#000000" stroke-width="4.5" fill="none" stroke-dasharray="1.5 10"></path></g><g stroke-linecap="round" transform="translate(1448.7001761049396 1575.295024809795) rotate(0 102.80519894116696 108.85256358476454)"><path d="M0 0 C72.62 -1.06, 144.18 -0.47, 205.61 0 M205.61 0 C204.86 62.85, 207.74 128.02, 205.61 217.71 M205.61 217.71 C150.07 216.62, 92.79 217.26, 0 217.71 M0 217.71 C-0.07 132.15, -2.73 47.24, 0 0" stroke="#000000" stroke-width="4.5" fill="none" stroke-dasharray="1.5 10"></path></g><g stroke-linecap="round" transform="translate(1654.3105739872954 1575.295024809795) rotate(0 102.80519894116696 108.85256358476454)"><path d="M0 0 C61.69 0.62, 125.21 1.43, 205.61 0 M205.61 0 C205.98 48.08, 203.93 98.34, 205.61 217.71 M205.61 217.71 C163.52 219.38, 119.78 219.71, 0 217.71 M0 217.71 C-2.8 134.81, -2.44 52.59, 0 0" stroke="#000000" stroke-width="4.5" fill="none" stroke-dasharray="1.5 10"></path></g><g stroke-linecap="round" transform="translate(1859.9209718696438 1575.295024809795) rotate(0 102.80519894116696 108.85256358476454)"><path d="M0 0 C50.34 0.82, 99.49 -0.83, 205.61 0 M205.61 0 C207.06 45.22, 205.92 91.51, 205.61 217.71 M205.61 217.71 C139.65 220.36, 71.87 220.42, 0 217.71 M0 217.71 C0.46 155.88, 2.39 89.95, 0 0" stroke="#000000" stroke-width="4.5" fill="none" stroke-dasharray="1.5 10"></path></g><g stroke-linecap="round" transform="translate(2065.5313697519523 1575.295024809795) rotate(0 102.80519894116696 108.85256358476454)"><path d="M0 0 C55.93 -1.66, 112.86 1.28, 205.61 0 M205.61 0 C203.68 55.14, 205.7 108.58, 205.61 217.71 M205.61 217.71 C132.11 220.76, 55.5 218.03, 0 217.71 M0 217.71 C2 147.18, 0.63 79.05, 0 0" stroke="#000000" stroke-width="4.5" fill="none" stroke-dasharray="1.5 10"></path></g><g stroke-linecap="round" transform="translate(2267.1101912052472 1575.295024809795) rotate(0 102.80519894116696 108.85256358476454)"><path d="M0 0 C64.92 2.98, 132.2 0.88, 205.61 0 M205.61 0 C204.46 70.54, 205.08 139.47, 205.61 217.71 M205.61 217.71 C126.72 218.09, 48.49 218.46, 0 217.71 M0 217.71 C-1.47 135.82, -2.02 56.4, 0 0" stroke="#000000" stroke-width="4.5" fill="none" stroke-dasharray="1.5 10"></path></g><g transform="translate(656.3719424469127 1657.0070985697148) rotate(0 72.5999984741211 34.35180716423292)"><text x="0" y="0" font-family="Virgil, Segoe UI Emoji" font-size="53.77407087126579px" fill="#000000" text-anchor="start" style="white-space: pre;" direction="ltr" dominant-baseline="text-before-edge">WAL0</text></g><g transform="translate(858.3306023830919 1652.8350654453188) rotate(0 61.34166717529297 34.35180716423292)"><text x="0" y="0" font-family="Virgil, Segoe UI Emoji" font-size="53.774070871265806px" fill="#000000" text-anchor="start" style="white-space: pre;" direction="ltr" dominant-baseline="text-before-edge">WAL1</text></g><g transform="translate(1069.929084144056 1652.8350654453152) rotate(0 73.25 34.35180716423292)"><text x="0" y="0" font-family="Virgil, Segoe UI Emoji" font-size="53.774070871265806px" fill="#000000" text-anchor="start" style="white-space: pre;" direction="ltr" dominant-baseline="text-before-edge">WAL2</text></g><g transform="translate(1271.2889296907779 1652.8350654453152) rotate(0 72.40833282470703 34.35180716423292)"><text x="0" y="0" font-family="Virgil, Segoe UI Emoji" font-size="53.7740708712658px" fill="#000000" text-anchor="start" style="white-space: pre;" direction="ltr" dominant-baseline="text-before-edge">WAL3</text></g><g transform="translate(1489.7131689279013 1646.0093079691524) rotate(0 71.30833435058594 34.35180716423292)"><text x="0" y="0" font-family="Virgil, Segoe UI Emoji" font-size="53.7740708712658px" fill="#000000" text-anchor="start" style="white-space: pre;" direction="ltr" dominant-baseline="text-before-edge">WAL4</text></g><g transform="translate(1691.073014474623 1652.8350654453152) rotate(0 70.70833587646484 34.35180716423292)"><text x="0" y="0" font-family="Virgil, Segoe UI Emoji" font-size="53.7740708712658px" fill="#000000" text-anchor="start" style="white-space: pre;" direction="ltr" dominant-baseline="text-before-edge">WAL5</text></g><g transform="translate(1892.4328600213485 1652.8350654453188) rotate(0 71.30833435058594 34.35180716423292)"><text x="0" y="0" font-family="Virgil, Segoe UI Emoji" font-size="53.7740708712658px" fill="#000000" text-anchor="start" style="white-space: pre;" direction="ltr" dominant-baseline="text-before-edge">WAL6</text></g><g transform="translate(2100.6184630442294 1652.8350654453152) rotate(0 68.55000305175781 34.35180716423292)"><text x="0" y="0" font-family="Virgil, Segoe UI Emoji" font-size="53.774070871265806px" fill="#000000" text-anchor="start" style="white-space: pre;" direction="ltr" dominant-baseline="text-before-edge">WAL7</text></g><g transform="translate(2298.5654298528752 1649.4221867072374) rotate(0 74.68333435058594 34.35180716423292)"><text x="0" y="0" font-family="Virgil, Segoe UI Emoji" font-size="53.7740708712658px" fill="#000000" text-anchor="start" style="white-space: pre;" direction="ltr" dominant-baseline="text-before-edge">WAL8</text></g><g stroke-opacity="0" fill-opacity="0" stroke-linecap="round" transform="translate(10 1411.664927166721) rotate(0 256.24343525201766 256.24343525201766)"><path d="M238.65 0.08 C257.96 -5.41, 280.79 0, 300.74 3.44 C320.7 6.89, 339.67 12.38, 358.36 20.75 C377.05 29.12, 396.69 40.95, 412.89 53.65 C429.08 66.35, 443.03 81.24, 455.53 96.94 C468.02 112.65, 479.23 129.63, 487.86 147.88 C496.49 166.12, 503.35 186.3, 507.3 206.43 C511.26 226.56, 512.44 248.22, 511.59 268.65 C510.73 289.08, 508 309.49, 502.16 329 C496.31 348.52, 486.95 368.04, 476.53 385.76 C466.1 403.48, 453.7 420.68, 439.6 435.33 C425.5 449.97, 409.37 462.77, 391.91 473.61 C374.45 484.44, 354.36 493.88, 334.85 500.33 C315.34 506.79, 295.24 511.09, 274.86 512.33 C254.48 513.58, 232.88 511.28, 212.56 507.8 C192.23 504.31, 171.62 499.63, 152.91 491.44 C134.21 483.26, 116.35 471.15, 100.34 458.7 C84.34 446.26, 69.72 432.44, 56.89 416.77 C44.06 401.11, 31.93 383.44, 23.37 364.71 C14.81 345.98, 9.55 324.76, 5.56 304.4 C1.57 284.05, -1.54 263.02, -0.55 242.58 C0.44 222.14, 5.41 201.15, 11.5 181.75 C17.6 162.34, 25.69 143.65, 36.01 126.14 C46.33 108.63, 59.13 91.22, 73.44 76.69 C87.75 62.17, 104.54 49.72, 121.89 38.98 C139.24 28.23, 157.43 18.53, 177.54 12.2 C197.64 5.87, 230.97 2.12, 242.53 0.98 C254.1 -0.17, 246.58 1.04, 246.91 5.31 M232.81 -0.02 C251.57 -6.07, 272.72 -1.08, 292.54 2.06 C312.35 5.21, 332.5 11, 351.68 18.84 C370.86 26.69, 390.98 36.82, 407.62 49.11 C424.26 61.4, 438.58 76.94, 451.52 92.58 C464.47 108.23, 476.05 124.96, 485.29 142.99 C494.52 161.02, 502.4 180.73, 506.92 200.77 C511.43 220.81, 512.72 242.49, 512.38 263.25 C512.04 284, 510.5 305.57, 504.88 325.32 C499.27 345.07, 488.95 364.16, 478.67 381.74 C468.39 399.31, 456.68 415.98, 443.19 430.75 C429.71 445.53, 414.85 459, 397.78 470.4 C380.7 481.79, 360.37 492.19, 340.73 499.12 C321.09 506.04, 300.41 510.12, 279.93 511.95 C259.45 513.79, 237.99 513.1, 217.85 510.13 C197.72 507.16, 178.01 501.79, 159.11 494.13 C140.22 486.48, 120.76 476.17, 104.49 464.2 C88.21 452.23, 74.5 438.08, 61.45 422.3 C48.41 406.52, 35.42 388.07, 26.24 369.52 C17.06 350.97, 10.78 330.88, 6.4 310.98 C2.02 291.09, -0.49 270.71, -0.06 250.15 C0.37 229.59, 3.81 207.58, 8.98 187.65 C14.15 167.72, 20.89 148.14, 30.98 130.59 C41.06 113.04, 55.23 96.97, 69.48 82.37 C83.72 67.77, 99.34 54.4, 116.44 42.99 C133.54 31.58, 152.6 20.84, 172.08 13.92 C191.55 6.99, 223.42 2.57, 233.29 1.44 C243.15 0.32, 231.08 2.84, 231.26 7.17" stroke="#1e1e1e" stroke-width="1" fill="none"></path></g><g transform="translate(95.59715749173483 1734.4098297496657) rotate(0 165.1750030517578 109.73334618712215)"><text x="165.1750030517578" y="0" font-family="Virgil, Segoe UI Emoji" font-size="87.78667694969793px" fill="#1e1e1e" text-anchor="middle" style="white-space: pre;" direction="ltr" dominant-baseline="text-before-edge">Archival</text><text x="165.1750030517578" y="109.73334618712242" font-family="Virgil, Segoe UI Emoji" font-size="87.78667694969793px" fill="#1e1e1e" text-anchor="middle" style="white-space: pre;" direction="ltr" dominant-baseline="text-before-edge">area</text></g><g stroke-linecap="round"><g transform="translate(140.52461134852638 1694.8294918622705) rotate(0 118.34237547083649 -54.23772838696823)"><path d="M-0.54 0.72 C4.25 -14.45, 14.73 -73.28, 28.59 -91.51 C42.45 -109.73, 47.83 -106.3, 82.6 -108.61 C117.38 -110.92, 211.16 -105.62, 237.23 -105.38 M1.37 0.05 C6.57 -15.38, 17.56 -75.05, 30.94 -93 C44.32 -110.95, 47.31 -105.23, 81.66 -107.64 C116.01 -110.05, 210.96 -107.52, 237.02 -107.45" stroke="#1e1e1e" stroke-width="1" fill="none"></path></g></g><mask></mask><g stroke-linecap="round"><g transform="translate(374.2197228652112 1585.9159328074238) rotate(0 -105.18827916923874 21.230426969082146)"><path d="M-0.68 1.19 C4.59 3.33, 29.83 -2.87, 31.12 13.55 C32.42 29.97, 16.98 82.71, 7.07 99.71 C-2.84 116.72, 6.22 112.99, -28.33 115.6 C-62.88 118.21, -165.45 119.69, -200.21 115.37 C-234.97 111.05, -230.32 116.54, -236.88 89.68 C-243.44 62.81, -241.9 -18.98, -239.59 -45.83 C-237.28 -72.67, -236.04 -66.85, -223.01 -71.39 C-209.99 -75.93, -175.28 -77.88, -161.43 -73.05 C-147.58 -68.22, -161.99 -47.5, -139.9 -42.39 C-117.8 -37.27, -51.78 -44.2, -28.87 -42.36 C-5.96 -40.53, -7.3 -38.51, -2.43 -31.37 C2.43 -24.22, -0.18 -4.68, 0.33 0.51 M1.16 0.77 C6.3 2.99, 28.61 -1.45, 30 14.73 C31.39 30.91, 19.11 80.94, 9.51 97.86 C-0.09 114.77, 7.52 113.35, -27.59 116.24 C-62.7 119.13, -166.42 119.22, -201.14 115.18 C-235.86 111.14, -229.52 118.5, -235.92 91.99 C-242.32 65.48, -241.49 -16.65, -239.55 -43.88 C-237.6 -71.12, -237.52 -66.91, -224.26 -71.43 C-211 -75.96, -174.1 -75.82, -159.99 -71.03 C-145.88 -66.23, -161.46 -47.1, -139.58 -42.68 C-117.69 -38.27, -51.84 -46.34, -28.66 -44.55 C-5.48 -42.76, -5.4 -39.35, -0.5 -31.93 C4.4 -24.51, 0.61 -5.28, 0.73 -0.04" stroke="#1e1e1e" stroke-width="1" fill="none"></path></g></g><mask></mask><g stroke-linecap="round"><g transform="translate(1237.193627877121 1256.6666666666642) rotate(0 1.5417688811721746 146.68766308077193)"><path d="M-0.31 -0.23 C0.26 48.72, 2.78 244.72, 3.4 293.6" stroke="#e03131" stroke-width="4.5" fill="none" stroke-dasharray="8 12"></path></g></g><mask></mask><g transform="translate(1274.693627877121 1265.8333333333303) rotate(0 166.84165954589844 36.9741202467394)"><text x="0" y="0" font-family="Virgil, Segoe UI Emoji" font-size="59.15859239478275px" fill="#e03131" text-anchor="start" style="white-space: pre;" direction="ltr" dominant-baseline="text-before-edge">REDO point</text></g><g stroke-linecap="round" transform="translate(1101.3602945437888 1545.8333333333303) rotate(0 32.5 33.75)"><path d="M57.37 9.65 C61.72 13.79, 63.76 23.08, 64.14 29.82 C64.52 36.56, 62.33 44.3, 59.65 50.08 C56.97 55.87, 53.54 61.69, 48.07 64.55 C42.6 67.41, 33.38 68.86, 26.82 67.22 C20.27 65.58, 12.98 59.69, 8.76 54.72 C4.55 49.74, 2.11 43.42, 1.54 37.36 C0.98 31.3, 2.62 24.29, 5.39 18.35 C8.17 12.4, 12.37 4.43, 18.2 1.69 C24.03 -1.05, 33.71 -0.53, 40.39 1.91 C47.07 4.36, 54.82 13.32, 58.26 16.37 C61.71 19.42, 61.25 20.26, 61.08 20.21" stroke="none" stroke-width="0" fill="#ffc9c9"></path><path d="M54.74 6.4 C59.73 10.32, 63.89 19.38, 65.4 26.14 C66.91 32.9, 66.3 40.59, 63.8 46.97 C61.29 53.34, 56.27 60.84, 50.37 64.39 C44.47 67.95, 34.99 69.11, 28.4 68.29 C21.8 67.47, 15.54 63.74, 10.78 59.49 C6.02 55.24, 1.42 49.35, -0.15 42.78 C-1.72 36.2, -1.61 26.51, 1.35 20.03 C4.32 13.56, 11.77 7.06, 17.66 3.91 C23.55 0.75, 29.85 -0.56, 36.68 1.11 C43.51 2.77, 54.11 10.22, 58.65 13.89 C63.19 17.56, 64.43 22.56, 63.92 23.13" stroke="#e03131" stroke-width="4.5" fill="none" stroke-dasharray="8 12"></path></g><g transform="translate(1271.3602945437888 1380.8333333333303) rotate(0 284.48333740234375 32.399716484634155)"><text x="0" y="0" font-family="Virgil, Segoe UI Emoji" font-size="51.83954637541518px" fill="#f08c00" text-anchor="start" style="white-space: pre;" direction="ltr" dominant-baseline="text-before-edge">set by pg_basebackup</text></g><g stroke-linecap="round"><g transform="translate(2058.8602945437888 1265.8333333333303) rotate(0 2.4325400858542707 142.28922984173823)"><path d="M0.02 -0.17 C0.87 47.29, 3.98 237.2, 4.84 284.75" stroke="#1971c2" stroke-width="4.5" fill="none" stroke-dasharray="8 12"></path></g></g><mask></mask><g transform="translate(2101.3602945437888 1265.8333333333303) rotate(0 248.7916717529297 38.70569889929902)"><text x="0" y="0" font-family="Virgil, Segoe UI Emoji" font-size="61.9291182388791px" fill="#1971c2" text-anchor="start" style="white-space: pre;" direction="ltr" dominant-baseline="text-before-edge">Recovery target</text></g><g stroke-linecap="round" transform="translate(1927.1936278771245 1551.2499999999982) rotate(0 32.5 30)"><path d="M46.66 2.88 C52.65 5.03, 57.98 10.29, 60.64 15.88 C63.3 21.46, 63.82 29.76, 62.62 36.4 C61.42 43.04, 58.74 51.75, 53.43 55.72 C48.13 59.69, 38.21 60.54, 30.81 60.23 C23.4 59.93, 14.39 58.56, 9 53.91 C3.61 49.26, -0.65 38.71, -1.53 32.32 C-2.4 25.94, -0.09 20.81, 3.73 15.61 C7.54 10.41, 13.08 2.42, 21.37 1.12 C29.67 -0.17, 46.73 5.14, 53.5 7.84 C60.28 10.55, 62.25 16.57, 62.02 17.35" stroke="none" stroke-width="0" fill="#a5d8ff"></path><path d="M56.03 11.52 C60.6 16.17, 64.76 23.04, 64.73 29.57 C64.7 36.09, 60.12 45.63, 55.83 50.65 C51.54 55.67, 45.17 58.57, 38.99 59.66 C32.82 60.75, 24.76 60.44, 18.79 57.18 C12.83 53.91, 6.08 46.07, 3.2 40.07 C0.32 34.06, -0.93 27.15, 1.49 21.15 C3.91 15.15, 11.74 7.74, 17.7 4.08 C23.66 0.43, 29.16 -4.32, 37.26 -0.79 C45.36 2.75, 62.17 18.12, 66.29 25.3 C70.42 32.47, 62.93 42.12, 62 42.26" stroke="#1971c2" stroke-width="4.5" fill="none" stroke-dasharray="8 12"></path></g><g transform="translate(1203.8602945437888 725.8333333333303) rotate(0 461.7166748046875 120.00000000000091)"><text x="0" y="0" font-family="Virgil, Segoe UI Emoji" font-size="64.00000000000048px" fill="#1971c2" text-anchor="start" style="white-space: pre;" direction="ltr" dominant-baseline="text-before-edge">Postgres will replay WAL logs</text><text x="0" y="80.0000000000006" font-family="Virgil, Segoe UI Emoji" font-size="64.00000000000048px" fill="#1971c2" text-anchor="start" style="white-space: pre;" direction="ltr" dominant-baseline="text-before-edge">from the given </text><text x="0" y="160.0000000000012" font-family="Virgil, Segoe UI Emoji" font-size="64.00000000000048px" fill="#1971c2" text-anchor="start" style="white-space: pre;" direction="ltr" dominant-baseline="text-before-edge">up to the given  </text></g><g transform="translate(1726.3602945437888 893.3333333333303) rotate(0 294.10833740234375 33.75)"><text x="0" y="0" font-family="Virgil, Segoe UI Emoji" font-size="54.000000000000014px" fill="#f08c00" text-anchor="start" style="white-space: pre;" direction="ltr" dominant-baseline="text-before-edge">recovery_target_time</text></g><g transform="translate(1691.3602945437888 815.8333333333303) rotate(0 179.5749969482422 39.6055901850541)"><text x="0" y="0" font-family="Virgil, Segoe UI Emoji" font-size="63.368944296087285px" fill="#e03131" text-anchor="start" style="white-space: pre;" direction="ltr" dominant-baseline="text-before-edge">REDO point</text></g><g transform="translate(2382.571397347325 634.1666666666642) rotate(0 194.4166717529297 33.33333333333394)"><text x="0" y="0" font-family="Virgil, Segoe UI Emoji" font-size="53.33333333333431px" fill="#2f9e44" text-anchor="start" style="white-space: pre;" direction="ltr" dominant-baseline="text-before-edge">postgresql.conf</text></g><g stroke-linecap="round"><g transform="translate(2593.860294543785 744.1666666666642) rotate(0 -113.79780570181902 73.12096758795269)"><path d="M-1.83 -1.29 C-39.78 23.49, -189.15 122.8, -225.77 147.54" stroke="#2f9e44" stroke-width="4.5" fill="none" stroke-dasharray="8 12"></path></g><g transform="translate(2593.860294543785 744.1666666666642) rotate(0 -113.79780570181902 73.12096758795269)"><path d="M-209.89 119.86 C-213.54 134.64, -220.69 143.84, -222.1 145.59" stroke="#2f9e44" stroke-width="4.5" fill="none"></path></g><g transform="translate(2593.860294543785 744.1666666666642) rotate(0 -113.79780570181902 73.12096758795269)"><path d="M-198.48 136.91 C-206.21 145.24, -217.57 148.15, -222.1 145.59" stroke="#2f9e44" stroke-width="4.5" fill="none"></path></g></g><mask></mask><g transform="translate(1463.8602945437779 2127.4999999999964) rotate(0 252.24166870117188 33.7260146431272)"><text x="0" y="0" font-family="Virgil, Segoe UI Emoji" font-size="53.961623429003694px" fill="#2f9e44" text-anchor="start" style="white-space: pre;" direction="ltr" dominant-baseline="text-before-edge">00000002.history'</text></g><g stroke-linecap="round"><g transform="translate(1933.8602945437779 1840.8333333333303) rotate(0 -0.1566651221983193 113.19034124695281)"><path d="M-0.09 -0.28 C-0.16 37.5, -0.23 188.84, -0.22 226.66" stroke="#2f9e44" stroke-width="4.5" fill="none" stroke-dasharray="8 12"></path></g><g transform="translate(1933.8602945437779 1840.8333333333303) rotate(0 -0.1566651221983193 113.19034124695281)"><path d="M-11.01 198.05 C-6.82 208.48, -3.19 218.93, -0.44 226.69" stroke="#2f9e44" stroke-width="4.5" fill="none"></path></g><g transform="translate(1933.8602945437779 1840.8333333333303) rotate(0 -0.1566651221983193 113.19034124695281)"><path d="M9.51 198.06 C6.35 208.47, 2.64 218.92, -0.44 226.69" stroke="#2f9e44" stroke-width="4.5" fill="none"></path></g></g><mask></mask><g transform="translate(1977.0269612104457 1864.1666666666624) rotate(0 553.6083374023438 80)"><text x="0" y="0" font-family="Virgil, Segoe UI Emoji" font-size="64.00000000000036px" fill="#2f9e44" text-anchor="start" style="white-space: pre;" direction="ltr" dominant-baseline="text-before-edge">A new timeline history file has been</text><text x="0" y="80.00000000000044" font-family="Virgil, Segoe UI Emoji" font-size="64.00000000000036px" fill="#2f9e44" text-anchor="start" style="white-space: pre;" direction="ltr" dominant-baseline="text-before-edge">created</text></g><g transform="translate(612.19362787711 2242.4999999999945) rotate(0 1272.7166748046875 29.16666666666606)"><text x="0" y="0" font-family="Virgil, Segoe UI Emoji" font-size="46.666666666665726px" fill="#2f9e44" text-anchor="start" style="white-space: pre;" direction="ltr" dominant-baseline="text-before-edge">A timeline in PostgreSQL is used to distinguish between the original database cluster and the recovered ones.</text></g></svg>