<svg version="1.1" xmlns="http://www.w3.org/2000/svg" viewBox="0 0 1978.0468342001818 1019.1272620651546" width="1978.0468342001818" height="1019.1272620651546">
  <!-- svg-source:excalidraw -->
  
  <defs>
    <style class="style-fonts">
      @font-face {
        font-family: "Virgil";
        src: url("https://excalidraw.com/Virgil.woff2");
      }
      @font-face {
        font-family: "Cascadia";
        src: url("https://excalidraw.com/Cascadia.woff2");
      }
    </style>
    
  </defs>
  <g transform="translate(486.98557026222625 10) rotate(0 413.9333190917969 31.027969858294654)"><text x="0" y="0" font-family="Virgil, Segoe UI Emoji" font-size="49.64475177327145px" fill="#1e1e1e" text-anchor="start" style="white-space: pre;" direction="ltr" dominant-baseline="text-before-edge">Insertion operations without WAL.</text></g><g transform="translate(321.13654114986 160.01540965948124) rotate(0 90.2750015258789 21.000000000000014)"><text x="0" y="0" font-family="Virgil, Segoe UI Emoji" font-size="33.60000000000003px" fill="#000000" text-anchor="start" style="white-space: pre;" direction="ltr" dominant-baseline="text-before-edge">buffer pool</text></g><g stroke-linecap="round"><g transform="translate(362.5049860683589 227.26007920693144) rotate(0 48.18886741929941 45.389078461703946)" fill-rule="evenodd"><path d="M0 0 C0 0, 0 0, 0 0 M0 0 C0 0, 0 0, 0 0 M-0.26 6.4 C2.83 2.85, 5.91 -0.71, 9.58 -4.92 M-0.26 6.4 C2.97 2.68, 6.2 -1.04, 9.58 -4.92 M0.13 12.04 C4.48 7.04, 8.84 2.03, 17.85 -8.34 M0.13 12.04 C7.04 4.09, 13.95 -3.86, 17.85 -8.34 M-0.13 18.44 C9.08 7.85, 18.29 -2.75, 23.49 -8.73 M-0.13 18.44 C4.7 12.89, 9.52 7.34, 23.49 -8.73 M0.27 24.08 C7.93 15.26, 15.6 6.44, 29.79 -9.88 M0.27 24.08 C10.48 12.33, 20.7 0.58, 29.79 -9.88 M0 30.48 C12.61 15.98, 25.21 1.48, 34.78 -9.52 M0 30.48 C11.03 17.8, 22.05 5.12, 34.78 -9.52 M-0.26 36.88 C9.26 25.93, 18.77 14.99, 40.42 -9.91 M-0.26 36.88 C14.4 20.01, 29.06 3.15, 40.42 -9.91 M0.14 42.52 C16.99 23.13, 33.85 3.74, 45.41 -9.55 M0.14 42.52 C17.22 22.87, 34.31 3.21, 45.41 -9.55 M-0.12 48.92 C13.88 32.8, 27.89 16.69, 51.05 -9.95 M-0.12 48.92 C17.38 28.78, 34.89 8.65, 51.05 -9.95 M0.27 54.56 C20.63 31.14, 41 7.71, 56.04 -9.59 M0.27 54.56 C12.38 40.63, 24.49 26.7, 56.04 -9.59 M0.01 60.96 C14.64 44.13, 29.27 27.29, 61.02 -9.23 M0.01 60.96 C22.58 34.99, 45.15 9.03, 61.02 -9.23 M0.4 66.6 C26.32 36.79, 52.24 6.97, 66.67 -9.62 M0.4 66.6 C19.47 44.67, 38.54 22.74, 66.67 -9.62 M0.14 73 C17.66 52.85, 35.17 32.7, 71 -8.51 M0.14 73 C28.02 40.93, 55.89 8.87, 71 -8.51 M-0.12 79.4 C22.91 52.91, 45.93 26.42, 75.33 -7.39 M-0.12 79.4 C27.13 48.05, 54.38 16.7, 75.33 -7.39 M0.28 85.04 C29.3 51.65, 58.33 18.25, 79.66 -6.28 M0.28 85.04 C26.64 54.71, 53.01 24.38, 79.66 -6.28 M1.33 89.93 C23.4 64.54, 45.47 39.14, 83.99 -5.16 M1.33 89.93 C20.33 68.07, 39.33 46.21, 83.99 -5.16 M4.35 92.55 C31.2 61.66, 58.05 30.78, 88.32 -4.05 M4.35 92.55 C35.93 56.22, 67.51 19.89, 88.32 -4.05 M8.02 94.42 C28.25 71.15, 48.49 47.87, 92 -2.18 M8.02 94.42 C25.35 74.49, 42.67 54.56, 92 -2.18 M11.7 96.29 C44.07 59.05, 76.45 21.8, 95.01 0.44 M11.7 96.29 C35.48 68.93, 59.27 41.56, 95.01 0.44 M16.03 97.41 C39.91 69.93, 63.79 42.46, 96.72 4.58 M16.03 97.41 C34.06 76.66, 52.1 55.91, 96.72 4.58 M20.36 98.52 C43.85 71.5, 67.34 44.47, 97.12 10.22 M20.36 98.52 C42.69 72.83, 65.03 47.13, 97.12 10.22 M25.34 98.88 C47.21 73.72, 69.08 48.56, 96.85 16.62 M25.34 98.88 C49.28 71.35, 73.22 43.81, 96.85 16.62 M29.68 100 C53.81 72.23, 77.95 44.46, 96.59 23.02 M29.68 100 C56.01 69.71, 82.34 39.42, 96.59 23.02 M34.66 100.36 C50.17 82.51, 65.69 64.67, 96.99 28.66 M34.66 100.36 C47.97 85.05, 61.27 69.74, 96.99 28.66 M39.65 100.72 C56.53 81.3, 73.41 61.88, 96.73 35.06 M39.65 100.72 C54.73 83.37, 69.81 66.03, 96.73 35.06 M44.64 101.08 C60.61 82.7, 76.59 64.32, 96.46 41.46 M44.64 101.08 C57.78 85.95, 70.93 70.83, 96.46 41.46 M49.62 101.44 C59.5 90.07, 69.38 78.71, 96.86 47.1 M49.62 101.44 C65.9 82.71, 82.18 63.99, 96.86 47.1 M55.27 101.04 C70.63 83.37, 85.99 65.7, 96.6 53.5 M55.27 101.04 C66.4 88.23, 77.54 75.42, 96.6 53.5 M60.91 100.65 C70.06 90.12, 79.2 79.6, 96.99 59.14 M60.91 100.65 C73.41 86.26, 85.92 71.88, 96.99 59.14 M66.55 100.25 C76.56 88.74, 86.57 77.23, 96.73 65.54 M66.55 100.25 C78.48 86.53, 90.42 72.8, 96.73 65.54 M72.85 99.1 C80.79 89.97, 88.73 80.84, 96.47 71.93 M72.85 99.1 C81.17 89.53, 89.49 79.96, 96.47 71.93 M79.15 97.95 C85.97 90.11, 92.8 82.26, 96.86 77.58 M79.15 97.95 C85.99 90.09, 92.83 82.22, 96.86 77.58 M86.11 96.05 C88.4 93.41, 90.7 90.76, 96.6 83.98 M86.11 96.05 C89.4 92.26, 92.7 88.46, 96.6 83.98 M1.66 91.07 C1.66 91.07, 1.66 91.07, 1.66 91.07 M1.66 91.07 C1.66 91.07, 1.66 91.07, 1.66 91.07 M13.34 95.92 C10.53 93.48, 7.73 91.04, 0.51 84.77 M13.34 95.92 C8.79 91.96, 4.23 88, 0.51 84.77 M22 98.15 C15.76 92.72, 9.51 87.3, 0.12 79.13 M22 98.15 C15.8 92.76, 9.6 87.37, 0.12 79.13 M29.91 99.73 C20.88 91.88, 11.85 84.03, 0.48 74.14 M29.91 99.73 C22.02 92.87, 14.14 86.02, 0.48 74.14 M36.31 99.99 C23.64 88.98, 10.98 77.97, 0.08 68.5 M36.31 99.99 C25.41 90.51, 14.51 81.04, 0.08 68.5 M42.71 100.25 C33.87 92.57, 25.03 84.88, 0.44 63.51 M42.71 100.25 C33.56 92.3, 24.42 84.36, 0.44 63.51 M49.86 101.17 C32.77 86.31, 15.68 71.46, 0.05 57.87 M49.86 101.17 C39.61 92.26, 29.36 83.35, 0.05 57.87 M55.5 100.77 C38.61 86.09, 21.73 71.41, 0.41 52.88 M55.5 100.77 C42.62 89.57, 29.73 78.37, 0.41 52.88 M61.14 100.38 C43.65 85.17, 26.16 69.97, 0.01 47.24 M61.14 100.38 C39.49 81.56, 17.84 62.73, 0.01 47.24 M66.79 99.98 C44.58 80.67, 22.36 61.37, 0.37 42.25 M66.79 99.98 C45.23 81.24, 23.67 62.5, 0.37 42.25 M71.68 98.93 C49.86 79.97, 28.05 61.01, -0.02 36.61 M71.68 98.93 C48.52 78.8, 25.36 58.67, -0.02 36.61 M76.56 97.88 C55 79.13, 33.43 60.38, 0.34 31.62 M76.56 97.88 C48.9 73.83, 21.24 49.79, 0.34 31.62 M81.45 96.83 C54.78 73.65, 28.11 50.47, -0.06 25.98 M81.45 96.83 C64.4 82.01, 47.36 67.19, -0.06 25.98 M85.59 95.12 C60.27 73.12, 34.95 51.11, 0.3 20.99 M85.59 95.12 C52.03 65.96, 18.48 36.79, 0.3 20.99 M89.72 93.42 C54.72 62.99, 19.72 32.57, -0.09 15.35 M89.72 93.42 C60.09 67.66, 30.46 41.9, -0.09 15.35 M93.1 91.06 C58.23 60.74, 23.35 30.43, 0.27 10.36 M93.1 91.06 C62.36 64.34, 31.63 37.62, 0.27 10.36 M95.72 88.04 C63.98 60.45, 32.24 32.85, -0.13 4.72 M95.72 88.04 C64.76 61.12, 33.81 34.21, -0.13 4.72 M96.08 83.05 C69.87 60.26, 43.65 37.47, 0.23 -0.27 M96.08 83.05 C71.05 61.29, 46.01 39.52, 0.23 -0.27 M96.44 78.06 C69.01 54.22, 41.59 30.38, 3.61 -2.63 M96.44 78.06 C73.58 58.19, 50.73 38.32, 3.61 -2.63 M96.05 72.42 C60.79 41.77, 25.53 11.12, 7.75 -4.34 M96.05 72.42 C66.09 46.37, 36.12 20.33, 7.75 -4.34 M96.41 67.43 C76.85 50.43, 57.29 33.42, 11.88 -6.05 M96.41 67.43 C72.92 47.01, 49.42 26.59, 11.88 -6.05 M96.01 61.79 C70.69 39.77, 45.36 17.76, 16.01 -7.75 M96.01 61.79 C72.7 41.52, 49.39 21.26, 16.01 -7.75 M96.37 56.8 C66.76 31.06, 37.15 5.32, 20.9 -8.8 M96.37 56.8 C80.02 42.59, 63.67 28.38, 20.9 -8.8 M96.73 51.82 C79.46 36.8, 62.18 21.78, 25.79 -9.85 M96.73 51.82 C74.48 32.47, 52.23 13.13, 25.79 -9.85 M96.34 46.17 C81 32.83, 65.65 19.5, 31.43 -10.25 M96.34 46.17 C71.6 24.66, 46.85 3.15, 31.43 -10.25 M96.7 41.18 C75.64 22.88, 54.59 4.58, 37.08 -10.64 M96.7 41.18 C74.49 21.88, 52.28 2.57, 37.08 -10.64 M96.31 35.54 C79.07 20.56, 61.83 5.57, 43.48 -10.38 M96.31 35.54 C79.88 21.27, 63.46 6.99, 43.48 -10.38 M96.67 30.55 C83.68 19.27, 70.7 7.99, 49.12 -10.78 M96.67 30.55 C82.16 17.95, 67.66 5.34, 49.12 -10.78 M96.27 24.91 C86.92 16.78, 77.56 8.65, 55.52 -10.52 M96.27 24.91 C85.47 15.52, 74.67 6.13, 55.52 -10.52 M96.63 19.92 C83.25 8.29, 69.87 -3.34, 61.91 -10.25 M96.63 19.92 C85.59 10.33, 74.54 0.73, 61.91 -10.25 M96.24 14.28 C90.14 8.99, 84.05 3.69, 68.31 -9.99 M96.24 14.28 C87.2 6.43, 78.16 -1.43, 68.31 -9.99 M96.6 9.29 C90.17 3.71, 83.75 -1.87, 76.97 -7.76 M96.6 9.29 C90.92 4.36, 85.24 -0.58, 76.97 -7.76 M96.2 3.65 C92.3 0.26, 88.4 -3.13, 85.64 -5.53 M96.2 3.65 C93.17 1.02, 90.14 -1.61, 85.64 -5.53" stroke="#4c6ef5" stroke-width="0.5" fill="none"></path><path d="M0 0 C0 12.86, -0.28 61.96, 0 77.14 C0.28 92.33, -0.52 87.91, 1.69 91.09 C3.9 94.27, 8.45 94.69, 13.27 96.22 C18.09 97.75, 24.64 99.42, 30.62 100.27 C36.59 101.12, 43.4 101.32, 49.12 101.32 C54.83 101.32, 59.81 100.88, 64.91 100.27 C70.01 99.67, 74.79 99.32, 79.72 97.7 C84.66 96.07, 91.87 93.97, 94.5 90.54 C97.13 87.12, 95.21 90.48, 95.51 77.14 C95.81 63.8, 96.38 23.42, 96.31 10.51 C96.24 -2.41, 97.29 2.44, 95.1 -0.34 C92.9 -3.11, 87.36 -4.61, 83.12 -6.12 C78.89 -7.63, 74.84 -8.69, 69.69 -9.4 C64.54 -10.1, 56.98 -10.2, 52.22 -10.36 C47.46 -10.52, 46.92 -10.68, 41.14 -10.33 C35.35 -9.98, 24.38 -9.97, 17.53 -8.25 C10.67 -6.53, 2.92 -1.37, 0 0 M0 0 C0 12.86, -0.28 61.96, 0 77.14 C0.28 92.33, -0.52 87.91, 1.69 91.09 C3.9 94.27, 8.45 94.69, 13.27 96.22 C18.09 97.75, 24.64 99.42, 30.62 100.27 C36.59 101.12, 43.4 101.32, 49.12 101.32 C54.83 101.32, 59.81 100.88, 64.91 100.27 C70.01 99.67, 74.79 99.32, 79.72 97.7 C84.66 96.07, 91.87 93.97, 94.5 90.54 C97.13 87.12, 95.21 90.48, 95.51 77.14 C95.81 63.8, 96.38 23.42, 96.31 10.51 C96.24 -2.41, 97.29 2.44, 95.1 -0.34 C92.9 -3.11, 87.36 -4.61, 83.12 -6.12 C78.89 -7.63, 74.84 -8.69, 69.69 -9.4 C64.54 -10.1, 56.98 -10.2, 52.22 -10.36 C47.46 -10.52, 46.92 -10.68, 41.14 -10.33 C35.35 -9.98, 24.38 -9.97, 17.53 -8.25 C10.67 -6.53, 2.92 -1.37, 0 0" stroke="#364fc7" stroke-width="1" fill="none"></path></g></g><mask></mask><g stroke-linecap="round" transform="translate(362.798126712421 215.45231062271694) rotate(0 48.07036766429246 13.070086797150054)"><path d="M96.14 13.07 C96.14 13.75, 95.94 14.44, 95.55 15.11 C95.16 15.79, 94.56 16.46, 93.79 17.11 C93.01 17.76, 92.04 18.4, 90.9 19 C89.76 19.61, 88.43 20.2, 86.96 20.75 C85.49 21.3, 83.83 21.83, 82.06 22.31 C80.29 22.79, 78.35 23.24, 76.33 23.64 C74.3 24.04, 72.13 24.41, 69.89 24.72 C67.66 25.03, 65.31 25.29, 62.92 25.5 C60.54 25.71, 58.07 25.87, 55.59 25.98 C53.11 26.09, 50.58 26.14, 48.07 26.14 C45.56 26.14, 43.03 26.09, 40.55 25.98 C38.07 25.87, 35.6 25.71, 33.22 25.5 C30.83 25.29, 28.48 25.03, 26.25 24.72 C24.01 24.41, 21.84 24.04, 19.82 23.64 C17.79 23.24, 15.85 22.79, 14.08 22.31 C12.31 21.83, 10.65 21.3, 9.18 20.75 C7.71 20.2, 6.38 19.61, 5.24 19 C4.1 18.4, 3.13 17.76, 2.35 17.11 C1.58 16.46, 0.98 15.79, 0.59 15.11 C0.2 14.44, 0 13.75, 0 13.07 C0 12.39, 0.2 11.7, 0.59 11.03 C0.98 10.35, 1.58 9.68, 2.35 9.03 C3.13 8.38, 4.1 7.74, 5.24 7.14 C6.38 6.53, 7.71 5.94, 9.18 5.39 C10.65 4.84, 12.31 4.31, 14.08 3.83 C15.85 3.35, 17.79 2.9, 19.82 2.5 C21.84 2.1, 24.01 1.73, 26.25 1.42 C28.48 1.12, 30.83 0.85, 33.22 0.64 C35.6 0.43, 38.07 0.27, 40.55 0.16 C43.03 0.05, 45.56 0, 48.07 0 C50.58 0, 53.11 0.05, 55.59 0.16 C58.07 0.27, 60.54 0.43, 62.92 0.64 C65.31 0.85, 67.66 1.12, 69.89 1.42 C72.13 1.73, 74.3 2.1, 76.33 2.5 C78.35 2.9, 80.29 3.35, 82.06 3.83 C83.83 4.31, 85.49 4.84, 86.96 5.39 C88.43 5.94, 89.76 6.53, 90.9 7.14 C92.04 7.74, 93.01 8.38, 93.79 9.03 C94.56 9.68, 95.16 10.35, 95.55 11.03 C95.94 11.7, 96.04 12.73, 96.14 13.07 C96.24 13.41, 96.24 12.73, 96.14 13.07" stroke="none" stroke-width="0" fill="#ffffff"></path><path d="M96.14 13.07 C96.14 13.75, 95.94 14.44, 95.55 15.11 C95.16 15.79, 94.56 16.46, 93.79 17.11 C93.01 17.76, 92.04 18.4, 90.9 19 C89.76 19.61, 88.43 20.2, 86.96 20.75 C85.49 21.3, 83.83 21.83, 82.06 22.31 C80.29 22.79, 78.35 23.24, 76.33 23.64 C74.3 24.04, 72.13 24.41, 69.89 24.72 C67.66 25.03, 65.31 25.29, 62.92 25.5 C60.54 25.71, 58.07 25.87, 55.59 25.98 C53.11 26.09, 50.58 26.14, 48.07 26.14 C45.56 26.14, 43.03 26.09, 40.55 25.98 C38.07 25.87, 35.6 25.71, 33.22 25.5 C30.83 25.29, 28.48 25.03, 26.25 24.72 C24.01 24.41, 21.84 24.04, 19.82 23.64 C17.79 23.24, 15.85 22.79, 14.08 22.31 C12.31 21.83, 10.65 21.3, 9.18 20.75 C7.71 20.2, 6.38 19.61, 5.24 19 C4.1 18.4, 3.13 17.76, 2.35 17.11 C1.58 16.46, 0.98 15.79, 0.59 15.11 C0.2 14.44, 0 13.75, 0 13.07 C0 12.39, 0.2 11.7, 0.59 11.03 C0.98 10.35, 1.58 9.68, 2.35 9.03 C3.13 8.38, 4.1 7.74, 5.24 7.14 C6.38 6.53, 7.71 5.94, 9.18 5.39 C10.65 4.84, 12.31 4.31, 14.08 3.83 C15.85 3.35, 17.79 2.9, 19.82 2.5 C21.84 2.1, 24.01 1.73, 26.25 1.42 C28.48 1.12, 30.83 0.85, 33.22 0.64 C35.6 0.43, 38.07 0.27, 40.55 0.16 C43.03 0.05, 45.56 0, 48.07 0 C50.58 0, 53.11 0.05, 55.59 0.16 C58.07 0.27, 60.54 0.43, 62.92 0.64 C65.31 0.85, 67.66 1.12, 69.89 1.42 C72.13 1.73, 74.3 2.1, 76.33 2.5 C78.35 2.9, 80.29 3.35, 82.06 3.83 C83.83 4.31, 85.49 4.84, 86.96 5.39 C88.43 5.94, 89.76 6.53, 90.9 7.14 C92.04 7.74, 93.01 8.38, 93.79 9.03 C94.56 9.68, 95.16 10.35, 95.55 11.03 C95.94 11.7, 96.04 12.73, 96.14 13.07 C96.24 13.41, 96.24 12.73, 96.14 13.07" stroke="#364fc7" stroke-width="1" fill="none"></path></g><g stroke-linecap="round"><g transform="translate(27.962597495350565 825.8130332591688) rotate(0 64.50075660747393 61.11173108243656)" fill-rule="evenodd"><path d="M-0.35 0.11 C-0.42 18.25, 0.78 85.87, 1.12 106.42 C1.47 126.96, -0.81 119.56, 1.72 123.4 C4.25 127.25, 9.49 127.7, 16.28 129.5 C23.08 131.3, 33.79 133.28, 42.51 134.2 C51.22 135.12, 60.91 135.03, 68.59 135.02 C76.27 135.02, 82.43 134.75, 88.59 134.17 C94.75 133.59, 99.19 133.88, 105.53 131.53 C111.88 129.19, 123.15 124.58, 126.67 120.1 C130.19 115.62, 126.49 122.31, 126.65 104.64 C126.8 86.97, 127.32 31.56, 127.6 14.06 C127.88 -3.45, 131.29 2.95, 128.34 -0.37 C125.38 -3.68, 115.43 -3.37, 109.88 -5.82 C104.34 -8.26, 101.22 -13.66, 95.05 -15.05 C88.88 -16.43, 79.85 -14.32, 72.85 -14.13 C65.85 -13.94, 61.39 -14.39, 53.06 -13.91 C44.73 -13.43, 31.83 -13.47, 22.85 -11.23 C13.87 -8.99, 2.68 -2.68, -0.81 -0.48" stroke="none" stroke-width="0" fill="#228be6" fill-rule="evenodd"></path><path d="M-1.14 1.06 C-1.13 18.03, -0.85 82.68, -0.36 102.9 C0.14 123.11, -1.05 117.83, 1.83 122.35 C4.71 126.87, 10.22 127.86, 16.92 130.01 C23.62 132.17, 33.68 134.07, 42.05 135.27 C50.42 136.48, 59.47 137.4, 67.13 137.24 C74.8 137.08, 81.46 135.43, 88.03 134.33 C94.61 133.23, 100.2 132.71, 106.58 130.62 C112.96 128.53, 122.47 126.42, 126.3 121.79 C130.14 117.17, 129.14 120.72, 129.6 102.89 C130.07 85.07, 129.43 31.94, 129.07 14.85 C128.71 -2.23, 130.34 4.14, 127.45 0.37 C124.57 -3.4, 117.2 -5.66, 111.76 -7.78 C106.32 -9.9, 101.83 -11.39, 94.83 -12.35 C87.82 -13.31, 76.2 -13.09, 69.73 -13.53 C63.25 -13.97, 63.8 -15.25, 55.99 -15 C48.17 -14.76, 32.29 -14.69, 22.83 -12.08 C13.37 -9.47, 3.24 -1.38, -0.75 0.67 M0.46 0.57 C0.32 18.15, -1.56 83.35, -1.49 103.82 C-1.43 124.29, -2.19 118.82, 0.84 123.39 C3.86 127.96, 9.96 129.18, 16.65 131.23 C23.34 133.28, 32.85 134.79, 40.97 135.67 C49.08 136.55, 57.35 136.42, 65.34 136.5 C73.34 136.58, 81.69 136.68, 88.92 136.15 C96.15 135.62, 102.25 135.37, 108.71 133.33 C115.17 131.28, 124.61 128.53, 127.67 123.89 C130.74 119.25, 126.9 124.05, 127.11 105.49 C127.32 86.93, 128.59 30.05, 128.94 12.53 C129.3 -4.99, 132.13 3.86, 129.27 0.38 C126.41 -3.11, 117.58 -6.23, 111.79 -8.36 C106.01 -10.48, 101.57 -11.45, 94.55 -12.37 C87.53 -13.28, 75.89 -13.53, 69.68 -13.86 C63.47 -14.18, 64.76 -14.65, 57.28 -14.31 C49.8 -13.98, 34.15 -14.45, 24.81 -11.83 C15.47 -9.21, 5.27 -0.68, 1.22 1.39" stroke="#364fc7" stroke-width="1" fill="none"></path></g></g><mask></mask><g stroke-linecap="round" transform="translate(27.484249638516303 810.0267869134079) rotate(0 64.84475490010709 17.630956784087118)"><path d="M73.98 0.08 C85.1 0.29, 98.39 2.06, 107.23 4.19 C116.06 6.32, 123.63 9.78, 126.98 12.86 C130.33 15.95, 130.57 19.73, 127.32 22.72 C124.06 25.72, 116.33 28.73, 107.46 30.83 C98.59 32.93, 85.69 34.83, 74.08 35.32 C62.47 35.81, 48.41 35.11, 37.81 33.76 C27.22 32.41, 16.79 29.89, 10.49 27.23 C4.2 24.57, 0.03 21, 0.02 17.78 C0.01 14.55, 4.15 10.56, 10.42 7.89 C16.69 5.22, 26.96 2.99, 37.64 1.75 C48.32 0.51, 68.33 0.6, 74.5 0.44 C80.67 0.28, 74.82 0.56, 74.66 0.77 M65.88 0.34 C77.03 0.04, 90.95 0.9, 100.71 2.64 C110.47 4.37, 119.76 7.77, 124.45 10.76 C129.13 13.75, 130.75 17.5, 128.83 20.58 C126.92 23.67, 120.65 26.95, 112.97 29.27 C105.29 31.59, 93.9 33.56, 82.77 34.49 C71.63 35.42, 57.45 35.82, 46.16 34.85 C34.87 33.87, 22.58 31.06, 15.02 28.64 C7.47 26.21, 2.29 23.36, 0.84 20.3 C-0.62 17.24, 1.42 13.28, 6.3 10.3 C11.18 7.31, 20.23 4.1, 30.12 2.38 C40.01 0.66, 59.8 0.26, 65.65 -0.04 C71.51 -0.33, 65.23 0.36, 65.25 0.62" stroke="none" stroke-width="0" fill="#ffffff"></path><path d="M61.46 0.2 C72.52 -0.13, 86.8 0.96, 96.97 2.52 C107.13 4.09, 117.08 6.84, 122.46 9.58 C127.83 12.32, 130.32 15.88, 129.2 18.98 C128.09 22.08, 122.9 25.6, 115.75 28.17 C108.6 30.75, 97.32 33.38, 86.3 34.44 C75.28 35.51, 60.95 35.38, 49.62 34.58 C38.29 33.79, 26.35 31.94, 18.32 29.67 C10.29 27.4, 3.72 24.02, 1.44 20.97 C-0.85 17.92, 0.36 14.33, 4.63 11.36 C8.89 8.39, 17.45 5.02, 27.03 3.15 C36.6 1.28, 56.18 0.63, 62.05 0.14 C67.93 -0.36, 62.28 -0.08, 62.28 0.17 M70.31 -0.37 C81.51 -0.38, 94.81 1.56, 104.1 3.63 C113.38 5.7, 122.01 9.03, 126 12.03 C129.98 15.03, 130.65 18.6, 127.99 21.62 C125.32 24.64, 118.29 27.97, 110.01 30.15 C101.73 32.33, 89.61 34.1, 78.29 34.7 C66.96 35.31, 52.98 34.94, 42.06 33.8 C31.15 32.67, 19.83 30.4, 12.78 27.88 C5.73 25.36, 0.56 21.89, -0.23 18.69 C-1.01 15.49, 2.38 11.44, 8.06 8.69 C13.75 5.94, 23.62 3.63, 33.88 2.19 C44.14 0.74, 63.62 0.33, 69.63 0.04 C75.64 -0.26, 70.03 0.06, 69.94 0.42" stroke="#364fc7" stroke-width="1" fill="none"></path></g><g transform="translate(32.96175684705986 977.1060991565463) rotate(0 63.04166793823242 16.010581454304145)"><text x="63.04166793823242" y="0" font-family="Virgil, Segoe UI Emoji" font-size="25.61693032688662px" fill="#000000" text-anchor="middle" style="white-space: pre;" direction="ltr" dominant-baseline="text-before-edge">Database</text></g><g stroke-linecap="round"><g transform="translate(79.43146174192907 800.6788758161119) rotate(0 0.04737214324222805 -84.0695235493431)"><path d="M0.11 -0.12 C0.13 -28.17, 0.08 -140.26, 0.07 -168.27 M-0.02 0.13 C0 -27.91, -0.01 -140.11, -0.01 -168.14" stroke="#1e1e1e" stroke-width="1" fill="none"></path></g><g transform="translate(79.43146174192907 800.6788758161119) rotate(0 0.04737214324222805 -84.0695235493431)"><path d="M10.25 -139.95 C7.4 -146.98, 4.8 -154.21, -0.01 -168.14 M10.25 -139.95 C7.56 -147.62, 4.52 -155.41, -0.01 -168.14" stroke="#1e1e1e" stroke-width="1" fill="none"></path></g><g transform="translate(79.43146174192907 800.6788758161119) rotate(0 0.04737214324222805 -84.0695235493431)"><path d="M-10.27 -139.95 C-7.91 -147, -5.29 -154.23, -0.01 -168.14 M-10.27 -139.95 C-7.28 -147.63, -4.65 -155.43, -0.01 -168.14" stroke="#1e1e1e" stroke-width="1" fill="none"></path></g></g><mask></mask><g transform="translate(100.0573507813524 693.6935497119098) rotate(0 112.00833129882812 36.71428479435224)"><text x="0" y="0" font-family="Virgil, Segoe UI Emoji" font-size="19.580951890321188px" fill="#1e1e1e" text-anchor="start" style="white-space: pre;" direction="ltr" dominant-baseline="text-before-edge">2. A data page has </text><text x="0" y="24.476189862901485" font-family="Virgil, Segoe UI Emoji" font-size="19.580951890321188px" fill="#1e1e1e" text-anchor="start" style="white-space: pre;" direction="ltr" dominant-baseline="text-before-edge">been fetched from the </text><text x="0" y="48.95237972580297" font-family="Virgil, Segoe UI Emoji" font-size="19.580951890321188px" fill="#1e1e1e" text-anchor="start" style="white-space: pre;" direction="ltr" dominant-baseline="text-before-edge">database cluster</text></g><g stroke-linecap="round"><g transform="translate(161.64799065552006 389.35483029089363) rotate(0 81.08535784488777 -43.007017777448425)"><path d="M-0.86 -0.73 C26.49 -15.17, 135.96 -71.51, 163.03 -85.8 M0.89 1.49 C28.26 -13.34, 135.98 -73.08, 162.59 -87.51" stroke="#1e1e1e" stroke-width="1" fill="none"></path></g><g transform="translate(161.64799065552006 389.35483029089363) rotate(0 81.08535784488777 -43.007017777448425)"><path d="M142.82 -64.94 C145.64 -67.97, 152.38 -75.19, 162.59 -87.51 M142.82 -64.94 C148.61 -71.09, 155.05 -78.95, 162.59 -87.51" stroke="#1e1e1e" stroke-width="1" fill="none"></path></g><g transform="translate(161.64799065552006 389.35483029089363) rotate(0 81.08535784488777 -43.007017777448425)"><path d="M132.94 -82.93 C137.97 -82.07, 146.8 -85.48, 162.59 -87.51 M132.94 -82.93 C141.95 -83.48, 151.46 -85.74, 162.59 -87.51" stroke="#1e1e1e" stroke-width="1" fill="none"></path></g></g><mask></mask><g stroke-linecap="round"><g transform="translate(582.4177544598965 245.38878602640904) rotate(0 692.7412193918487 0.9555588671634894)"><path d="M-0.15 0.13 C230.8 0.41, 1154.66 1.42, 1385.63 1.72 M0.05 0.06 C230.99 0.35, 1154.61 1.57, 1385.54 1.85" stroke="#1e1e1e" stroke-width="1" fill="none"></path></g><g transform="translate(582.4177544598965 245.38878602640904) rotate(0 692.7412193918487 0.9555588671634894)"><path d="M1357.34 12.07 C1364.82 9.6, 1371.54 7.04, 1385.54 1.85 M1357.34 12.07 C1368.04 8.15, 1378.63 4.41, 1385.54 1.85" stroke="#1e1e1e" stroke-width="1" fill="none"></path></g><g transform="translate(582.4177544598965 245.38878602640904) rotate(0 692.7412193918487 0.9555588671634894)"><path d="M1357.36 -8.45 C1364.85 -5.66, 1371.57 -2.95, 1385.54 1.85 M1357.36 -8.45 C1368.05 -4.68, 1378.62 -0.72, 1385.54 1.85" stroke="#1e1e1e" stroke-width="1" fill="none"></path></g></g><mask></mask><g transform="translate(940.7711581903027 417.77232718192204) rotate(0 105.70833587646484 63.59996470572878)"><text x="0" y="0" font-family="Helvetica, Segoe UI Emoji" font-size="18.434772378472122px" fill="#0c8599" text-anchor="start" style="white-space: pre;" direction="ltr" dominant-baseline="text-before-edge">BEGIN;</text><text x="0" y="21.199988235242937" font-family="Helvetica, Segoe UI Emoji" font-size="18.434772378472122px" fill="#0c8599" text-anchor="start" style="white-space: pre;" direction="ltr" dominant-baseline="text-before-edge">INSERT INTO Employees</text><text x="0" y="42.399976470485875" font-family="Helvetica, Segoe UI Emoji" font-size="18.434772378472122px" fill="#0c8599" text-anchor="start" style="white-space: pre;" direction="ltr" dominant-baseline="text-before-edge">(EMPMO, ENAME, SAL)</text><text x="0" y="63.59996470572881" font-family="Helvetica, Segoe UI Emoji" font-size="18.434772378472122px" fill="#0c8599" text-anchor="start" style="white-space: pre;" direction="ltr" dominant-baseline="text-before-edge">VALUES</text><text x="0" y="84.79995294097175" font-family="Helvetica, Segoe UI Emoji" font-size="18.434772378472122px" fill="#0c8599" text-anchor="start" style="white-space: pre;" direction="ltr" dominant-baseline="text-before-edge">(7902, FORD, 3000);</text><text x="0" y="105.99994117621469" font-family="Helvetica, Segoe UI Emoji" font-size="18.434772378472122px" fill="#0c8599" text-anchor="start" style="white-space: pre;" direction="ltr" dominant-baseline="text-before-edge">COMMIT;</text></g><g transform="translate(196.59675923230225 388.4907982875999) rotate(0 145.74166870117188 29.074158571266906)"><text x="0" y="0" font-family="Virgil, Segoe UI Emoji" font-size="23.25932685701352px" fill="#1e1e1e" text-anchor="start" style="white-space: pre;" direction="ltr" dominant-baseline="text-before-edge">3. A page has been </text><text x="0" y="29.0741585712669" font-family="Virgil, Segoe UI Emoji" font-size="23.25932685701352px" fill="#1e1e1e" text-anchor="start" style="white-space: pre;" direction="ltr" dominant-baseline="text-before-edge">added to the buffer pool</text></g><g stroke-linecap="round" transform="translate(1222.5468116550137 416.8324299902163) rotate(0 130.5240011285216 159.52933471263745)"><path d="M-0.25 1.72 L259.97 -1.97 L261.36 317.71 L1.75 318.36" stroke="none" stroke-width="0" fill="#868e96"></path><path d="M0 0 C83.38 2.95, 165.49 0.74, 261.05 0 M0 0 C55.75 1.47, 112.32 1.22, 261.05 0 M261.05 0 C261.06 117.65, 259.82 236.31, 261.05 319.06 M261.05 0 C259.74 93.9, 259.68 186.34, 261.05 319.06 M261.05 319.06 C182.8 320.97, 102.59 321.54, 0 319.06 M261.05 319.06 C177.52 319.7, 94.89 320.47, 0 319.06 M0 319.06 C0.82 245.21, -0.41 170.2, 0 0 M0 319.06 C-0.07 227.22, 0.72 133.78, 0 0" stroke="#000000" stroke-width="1" fill="none"></path></g><g stroke-linecap="round" transform="translate(1210.9446782213677 403.7800298773651) rotate(0 130.52400112852138 159.52933471263748)"><path d="M-1.08 -1.97 L261.36 -1.35 L262.8 318.36 L1 319.46" stroke="none" stroke-width="0" fill="#ffffff"></path><path d="M0 0 C60.19 -2.64, 116.73 -0.3, 261.05 0 M0 0 C55.48 0.23, 112.88 0.49, 261.05 0 M261.05 0 C261.98 125.04, 262.27 250.43, 261.05 319.06 M261.05 0 C262.89 110.11, 262.52 221.08, 261.05 319.06 M261.05 319.06 C156.4 319.27, 52.79 319.25, 0 319.06 M261.05 319.06 C167.74 317.87, 74.28 317.42, 0 319.06 M0 319.06 C-1.36 197.2, -0.47 73.68, 0 0 M0 319.06 C1.18 195.81, 0.48 73.95, 0 0" stroke="#000000" stroke-width="1" fill="none"></path></g><g stroke-linecap="round"><g transform="translate(1227.538748774492 440.8526756249139) rotate(0 116.05552545499427 -0.006185985071027744)"><path d="M-0.07 -0.12 C38.6 -0.16, 193.52 -0.14, 232.18 -0.12 M0.16 0.13 C38.81 0.1, 193.47 0.01, 232.14 0" stroke="#000000" stroke-width="1" fill="none"></path></g></g><mask></mask><g stroke-linecap="round"><g transform="translate(1387.9933182968816 419.96127475210454) rotate(0 0.0026099225240159285 146.14410961722857)"><path d="M0.14 -0.12 C0.13 48.6, -0.09 243.53, -0.14 292.26 M0.04 0.13 C0.08 48.89, 0.1 243.71, 0.12 292.41" stroke="#000000" stroke-width="1" fill="none"></path></g></g><mask></mask><g transform="translate(1239.9500118054898 418.2826966694225) rotate(0 25.15833282470703 9.064166745036232)"><text x="0" y="0" font-family="Virgil, Segoe UI Emoji" font-size="14.502666792057948px" fill="#000000" text-anchor="start" style="white-space: pre;" direction="ltr" dominant-baseline="text-before-edge">EMPNO</text></g><g transform="translate(1312.463345765772 418.2826966694225) rotate(0 24.741666793823242 9.064166745036232)"><text x="0" y="0" font-family="Virgil, Segoe UI Emoji" font-size="14.502666792057951px" fill="#000000" text-anchor="start" style="white-space: pre;" direction="ltr" dominant-baseline="text-before-edge">ENAME</text></g><g transform="translate(1399.479346518125 418.2826966694225) rotate(0 13.508333206176758 9.064166745036232)"><text x="0" y="0" font-family="Virgil, Segoe UI Emoji" font-size="14.502666792057948px" fill="#000000" text-anchor="start" style="white-space: pre;" direction="ltr" dominant-baseline="text-before-edge">SAL</text></g><g transform="translate(1312.463345765772 447.28803025353716) rotate(0 30.383333206176758 126.89833443050708)"><text x="0" y="0" font-family="Virgil, Segoe UI Emoji" font-size="14.502666792057951px" fill="#1e1e1e" text-anchor="start" style="white-space: pre;" direction="ltr" dominant-baseline="text-before-edge">SMITH</text><text x="0" y="18.128333490072443" font-family="Virgil, Segoe UI Emoji" font-size="14.502666792057951px" fill="#1e1e1e" text-anchor="start" style="white-space: pre;" direction="ltr" dominant-baseline="text-before-edge">ALLEN</text><text x="0" y="36.256666980144885" font-family="Virgil, Segoe UI Emoji" font-size="14.502666792057951px" fill="#1e1e1e" text-anchor="start" style="white-space: pre;" direction="ltr" dominant-baseline="text-before-edge">WARD</text><text x="0" y="54.38500047021733" font-family="Virgil, Segoe UI Emoji" font-size="14.502666792057951px" fill="#1e1e1e" text-anchor="start" style="white-space: pre;" direction="ltr" dominant-baseline="text-before-edge">JONES</text><text x="0" y="72.51333396028977" font-family="Virgil, Segoe UI Emoji" font-size="14.502666792057951px" fill="#1e1e1e" text-anchor="start" style="white-space: pre;" direction="ltr" dominant-baseline="text-before-edge">MARTIN</text><text x="0" y="90.6416674503622" font-family="Virgil, Segoe UI Emoji" font-size="14.502666792057951px" fill="#1e1e1e" text-anchor="start" style="white-space: pre;" direction="ltr" dominant-baseline="text-before-edge">BLAKE</text><text x="0" y="108.77000094043466" font-family="Virgil, Segoe UI Emoji" font-size="14.502666792057951px" fill="#1e1e1e" text-anchor="start" style="white-space: pre;" direction="ltr" dominant-baseline="text-before-edge">CLARK</text><text x="0" y="126.8983344305071" font-family="Virgil, Segoe UI Emoji" font-size="14.502666792057951px" fill="#1e1e1e" text-anchor="start" style="white-space: pre;" direction="ltr" dominant-baseline="text-before-edge">SCOTT</text><text x="0" y="145.02666792057954" font-family="Virgil, Segoe UI Emoji" font-size="14.502666792057951px" fill="#1e1e1e" text-anchor="start" style="white-space: pre;" direction="ltr" dominant-baseline="text-before-edge">KING</text><text x="0" y="163.15500141065198" font-family="Virgil, Segoe UI Emoji" font-size="14.502666792057951px" fill="#1e1e1e" text-anchor="start" style="white-space: pre;" direction="ltr" dominant-baseline="text-before-edge">TURNER</text><text x="0" y="181.2833349007244" font-family="Virgil, Segoe UI Emoji" font-size="14.502666792057951px" fill="#1e1e1e" text-anchor="start" style="white-space: pre;" direction="ltr" dominant-baseline="text-before-edge">ADAMS</text><text x="0" y="199.41166839079688" font-family="Virgil, Segoe UI Emoji" font-size="14.502666792057951px" fill="#1e1e1e" text-anchor="start" style="white-space: pre;" direction="ltr" dominant-baseline="text-before-edge">JAMES</text><text x="0" y="217.5400018808693" font-family="Virgil, Segoe UI Emoji" font-size="14.502666792057951px" fill="#1e1e1e" text-anchor="start" style="white-space: pre;" direction="ltr" dominant-baseline="text-before-edge"></text><text x="0" y="235.66833537094175" font-family="Virgil, Segoe UI Emoji" font-size="14.502666792057951px" fill="#1e1e1e" text-anchor="start" style="white-space: pre;" direction="ltr" dominant-baseline="text-before-edge"></text></g><g transform="translate(1399.4793465181178 447.28803025353716) rotate(0 20.183332443237305 126.89833443050713)"><text x="0" y="0" font-family="Virgil, Segoe UI Emoji" font-size="14.502666792057953px" fill="#000000" text-anchor="start" style="white-space: pre;" direction="ltr" dominant-baseline="text-before-edge">800</text><text x="0" y="18.128333490072446" font-family="Virgil, Segoe UI Emoji" font-size="14.502666792057953px" fill="#000000" text-anchor="start" style="white-space: pre;" direction="ltr" dominant-baseline="text-before-edge">1600</text><text x="0" y="36.25666698014489" font-family="Virgil, Segoe UI Emoji" font-size="14.502666792057953px" fill="#000000" text-anchor="start" style="white-space: pre;" direction="ltr" dominant-baseline="text-before-edge">1250</text><text x="0" y="54.385000470217335" font-family="Virgil, Segoe UI Emoji" font-size="14.502666792057953px" fill="#000000" text-anchor="start" style="white-space: pre;" direction="ltr" dominant-baseline="text-before-edge">2975</text><text x="0" y="72.51333396028978" font-family="Virgil, Segoe UI Emoji" font-size="14.502666792057953px" fill="#000000" text-anchor="start" style="white-space: pre;" direction="ltr" dominant-baseline="text-before-edge">1250</text><text x="0" y="90.64166745036223" font-family="Virgil, Segoe UI Emoji" font-size="14.502666792057953px" fill="#000000" text-anchor="start" style="white-space: pre;" direction="ltr" dominant-baseline="text-before-edge">2850</text><text x="0" y="108.77000094043467" font-family="Virgil, Segoe UI Emoji" font-size="14.502666792057953px" fill="#000000" text-anchor="start" style="white-space: pre;" direction="ltr" dominant-baseline="text-before-edge">2450</text><text x="0" y="126.89833443050712" font-family="Virgil, Segoe UI Emoji" font-size="14.502666792057953px" fill="#000000" text-anchor="start" style="white-space: pre;" direction="ltr" dominant-baseline="text-before-edge">3000</text><text x="0" y="145.02666792057957" font-family="Virgil, Segoe UI Emoji" font-size="14.502666792057953px" fill="#000000" text-anchor="start" style="white-space: pre;" direction="ltr" dominant-baseline="text-before-edge">5000</text><text x="0" y="163.155001410652" font-family="Virgil, Segoe UI Emoji" font-size="14.502666792057953px" fill="#000000" text-anchor="start" style="white-space: pre;" direction="ltr" dominant-baseline="text-before-edge">1500</text><text x="0" y="181.28333490072447" font-family="Virgil, Segoe UI Emoji" font-size="14.502666792057953px" fill="#000000" text-anchor="start" style="white-space: pre;" direction="ltr" dominant-baseline="text-before-edge">1100</text><text x="0" y="199.4116683907969" font-family="Virgil, Segoe UI Emoji" font-size="14.502666792057953px" fill="#000000" text-anchor="start" style="white-space: pre;" direction="ltr" dominant-baseline="text-before-edge">950</text><text x="0" y="217.54000188086934" font-family="Virgil, Segoe UI Emoji" font-size="14.502666792057953px" fill="#000000" text-anchor="start" style="white-space: pre;" direction="ltr" dominant-baseline="text-before-edge"></text><text x="0" y="235.6683353709418" font-family="Virgil, Segoe UI Emoji" font-size="14.502666792057953px" fill="#000000" text-anchor="start" style="white-space: pre;" direction="ltr" dominant-baseline="text-before-edge"></text></g><g transform="translate(1240.8598184846887 447.7968841997248) rotate(0 18.899999618530273 126.89833443050708)"><text x="0" y="0" font-family="Virgil, Segoe UI Emoji" font-size="14.502666792057951px" fill="#1e1e1e" text-anchor="start" style="white-space: pre;" direction="ltr" dominant-baseline="text-before-edge">7369</text><text x="0" y="18.12833349007244" font-family="Virgil, Segoe UI Emoji" font-size="14.502666792057951px" fill="#1e1e1e" text-anchor="start" style="white-space: pre;" direction="ltr" dominant-baseline="text-before-edge">7499</text><text x="0" y="36.25666698014488" font-family="Virgil, Segoe UI Emoji" font-size="14.502666792057951px" fill="#1e1e1e" text-anchor="start" style="white-space: pre;" direction="ltr" dominant-baseline="text-before-edge">7521</text><text x="0" y="54.38500047021732" font-family="Virgil, Segoe UI Emoji" font-size="14.502666792057951px" fill="#1e1e1e" text-anchor="start" style="white-space: pre;" direction="ltr" dominant-baseline="text-before-edge">7566</text><text x="0" y="72.51333396028976" font-family="Virgil, Segoe UI Emoji" font-size="14.502666792057951px" fill="#1e1e1e" text-anchor="start" style="white-space: pre;" direction="ltr" dominant-baseline="text-before-edge">7654</text><text x="0" y="90.64166745036219" font-family="Virgil, Segoe UI Emoji" font-size="14.502666792057951px" fill="#1e1e1e" text-anchor="start" style="white-space: pre;" direction="ltr" dominant-baseline="text-before-edge">7698</text><text x="0" y="108.77000094043464" font-family="Virgil, Segoe UI Emoji" font-size="14.502666792057951px" fill="#1e1e1e" text-anchor="start" style="white-space: pre;" direction="ltr" dominant-baseline="text-before-edge">7782</text><text x="0" y="126.89833443050708" font-family="Virgil, Segoe UI Emoji" font-size="14.502666792057951px" fill="#1e1e1e" text-anchor="start" style="white-space: pre;" direction="ltr" dominant-baseline="text-before-edge">7788</text><text x="0" y="145.0266679205795" font-family="Virgil, Segoe UI Emoji" font-size="14.502666792057951px" fill="#1e1e1e" text-anchor="start" style="white-space: pre;" direction="ltr" dominant-baseline="text-before-edge">7839</text><text x="0" y="163.15500141065195" font-family="Virgil, Segoe UI Emoji" font-size="14.502666792057951px" fill="#1e1e1e" text-anchor="start" style="white-space: pre;" direction="ltr" dominant-baseline="text-before-edge">7844</text><text x="0" y="181.28333490072438" font-family="Virgil, Segoe UI Emoji" font-size="14.502666792057951px" fill="#1e1e1e" text-anchor="start" style="white-space: pre;" direction="ltr" dominant-baseline="text-before-edge">7876</text><text x="0" y="199.41166839079682" font-family="Virgil, Segoe UI Emoji" font-size="14.502666792057951px" fill="#1e1e1e" text-anchor="start" style="white-space: pre;" direction="ltr" dominant-baseline="text-before-edge">7900</text><text x="0" y="217.54000188086928" font-family="Virgil, Segoe UI Emoji" font-size="14.502666792057951px" fill="#1e1e1e" text-anchor="start" style="white-space: pre;" direction="ltr" dominant-baseline="text-before-edge"></text><text x="0" y="235.66833537094172" font-family="Virgil, Segoe UI Emoji" font-size="14.502666792057951px" fill="#1e1e1e" text-anchor="start" style="white-space: pre;" direction="ltr" dominant-baseline="text-before-edge"></text></g><g stroke-linecap="round"><g transform="translate(1300.4482029453216 419.1050944628882) rotate(0 -0.01001449917384889 146.20096316614035)"><path d="M-0.12 0.07 C-0.09 48.81, 0.06 243.73, 0.1 292.43 M0.09 -0.02 C0.12 48.68, 0.04 243.5, 0.03 292.23" stroke="#000000" stroke-width="1" fill="none"></path></g></g><mask></mask><g transform="translate(1264.4263566731538 350.85023866638033) rotate(0 66.11666870117188 17.43202832317141)"><text x="0" y="0" font-family="Virgil, Segoe UI Emoji" font-size="27.89124531707427px" fill="#1e1e1e" text-anchor="start" style="white-space: pre;" direction="ltr" dominant-baseline="text-before-edge">Employees</text></g><g transform="translate(1513.237959263603 408.7909505632659) rotate(0 108.55833435058594 65.5914228404163)"><text x="0" y="0" font-family="Helvetica, Segoe UI Emoji" font-size="19.012006620410528px" fill="#f08c00" text-anchor="start" style="white-space: pre;" direction="ltr" dominant-baseline="text-before-edge">BEGIN;</text><text x="0" y="21.863807613472105" font-family="Helvetica, Segoe UI Emoji" font-size="19.012006620410528px" fill="#f08c00" text-anchor="start" style="white-space: pre;" direction="ltr" dominant-baseline="text-before-edge">INSERT INTO Employees</text><text x="0" y="43.72761522694421" font-family="Helvetica, Segoe UI Emoji" font-size="19.012006620410528px" fill="#f08c00" text-anchor="start" style="white-space: pre;" direction="ltr" dominant-baseline="text-before-edge">(EMPMO, ENAME, SAL)</text><text x="0" y="65.59142284041631" font-family="Helvetica, Segoe UI Emoji" font-size="19.012006620410528px" fill="#f08c00" text-anchor="start" style="white-space: pre;" direction="ltr" dominant-baseline="text-before-edge">VALUES</text><text x="0" y="87.45523045388842" font-family="Helvetica, Segoe UI Emoji" font-size="19.012006620410528px" fill="#f08c00" text-anchor="start" style="white-space: pre;" direction="ltr" dominant-baseline="text-before-edge">(7934, MILLER, 1300);</text><text x="0" y="109.31903806736052" font-family="Helvetica, Segoe UI Emoji" font-size="19.012006620410528px" fill="#f08c00" text-anchor="start" style="white-space: pre;" direction="ltr" dominant-baseline="text-before-edge">COMMIT;</text></g><g transform="translate(1309.0384849865559 692.5974171286118) rotate(0 28.733333587646484 9.294790023264625)"><text x="0" y="0" font-family="Virgil, Segoe UI Emoji" font-size="14.87166403722338px" fill="#f08c00" text-anchor="start" style="white-space: pre;" direction="ltr" dominant-baseline="text-before-edge">MILLER</text></g><g transform="translate(1395.437419017815 690.753941326901) rotate(0 20.66666603088379 11.020104315074889)"><text x="0" y="0" font-family="Virgil, Segoe UI Emoji" font-size="17.632166904119845px" fill="#f08c00" text-anchor="start" style="white-space: pre;" direction="ltr" dominant-baseline="text-before-edge">1300</text></g><g transform="translate(1237.1838417534814 693.8070650040258) rotate(0 18.200000762939453 9.189522742734653)"><text x="0" y="0" font-family="Virgil, Segoe UI Emoji" font-size="14.703236388375482px" fill="#f08c00" text-anchor="start" style="white-space: pre;" direction="ltr" dominant-baseline="text-before-edge">7934</text></g><g transform="translate(1312.6111911917587 669.9510307868994) rotate(0 23.100000381469727 10.447943151129664)"><text x="0" y="0" font-family="Virgil, Segoe UI Emoji" font-size="16.716709041807494px" fill="#1971c2" text-anchor="start" style="white-space: pre;" direction="ltr" dominant-baseline="text-before-edge">FORD</text></g><g transform="translate(1395.2173368128688 668.6828291131307) rotate(0 20.941667556762695 9.520262412491718)"><text x="0" y="0" font-family="Virgil, Segoe UI Emoji" font-size="15.232419859986724px" fill="#1971c2" text-anchor="start" style="white-space: pre;" direction="ltr" dominant-baseline="text-before-edge">3000</text></g><g transform="translate(1239.4180740431002 669.9813498908749) rotate(0 19.41666603088379 9.541204683190301)"><text x="0" y="0" font-family="Virgil, Segoe UI Emoji" font-size="15.265927493104511px" fill="#1971c2" text-anchor="start" style="white-space: pre;" direction="ltr" dominant-baseline="text-before-edge">7902</text></g><g stroke-linecap="round" transform="translate(638.0995337773552 418.9702267525697) rotate(0 127.34878673016374 155.6485171146445)"><path d="M-0.41 0.82 L255.97 -1.09 L254.66 310.53 L-1.61 312.74" stroke="none" stroke-width="0" fill="#868e96"></path><path d="M0 0 C52.58 -0.09, 103.36 -2.82, 254.7 0 M0 0 C75.58 -0.85, 150.01 -0.62, 254.7 0 M254.7 0 C257.83 94.48, 256.15 188.3, 254.7 311.3 M254.7 0 C254.63 118.14, 255.1 235.78, 254.7 311.3 M254.7 311.3 C159.19 310.47, 65.02 309.66, 0 311.3 M254.7 311.3 C196.84 311.64, 137.81 310.63, 0 311.3 M0 311.3 C2.28 206.1, 2.07 100.98, 0 0 M0 311.3 C1.51 208.16, 1.64 104.96, 0 0" stroke="#000000" stroke-width="1" fill="none"></path></g><g stroke-linecap="round" transform="translate(626.7796416235628 406.2353480795543) rotate(0 127.34878673016374 155.64851711464453)"><path d="M1.27 -1.09 L254.66 -0.77 L253.09 312.74 L-1.41 311.78" stroke="none" stroke-width="0" fill="#ffffff"></path><path d="M0 0 C92.76 -3.07, 185.81 -1.06, 254.7 0 M0 0 C83.48 0.68, 166.53 1.55, 254.7 0 M254.7 0 C255.37 122.29, 257.26 246.37, 254.7 311.3 M254.7 0 C255.55 79.52, 255.51 158.95, 254.7 311.3 M254.7 311.3 C194.95 311.51, 132.35 312.78, 0 311.3 M254.7 311.3 C181.48 312.63, 110.01 312.32, 0 311.3 M0 311.3 C-0.48 213.43, -0.29 115.9, 0 0 M0 311.3 C0.15 229.58, -0.13 147.57, 0 0" stroke="#000000" stroke-width="1" fill="none"></path></g><g stroke-linecap="round"><g transform="translate(642.9700336862024 442.40613978075845) rotate(0 113.15555039728588 -0.08407814490138321)"><path d="M-0.13 -0.01 C37.59 0, 188.67 0.05, 226.45 0.04 M0.06 -0.14 C37.76 -0.17, 188.62 -0.23, 226.36 -0.2" stroke="#000000" stroke-width="1" fill="none"></path></g></g><mask></mask><g stroke-linecap="round"><g transform="translate(799.521277728028 422.0229571381572) rotate(0 0.01079942404362555 142.61894543615801)"><path d="M0.05 0.04 C0.09 47.57, 0.13 237.62, 0.13 285.15 M-0.1 -0.07 C-0.06 47.48, 0.06 237.74, 0.08 285.3" stroke="#000000" stroke-width="1" fill="none"></path></g></g><mask></mask><g transform="translate(655.0793720080496 420.38521327179416) rotate(0 24.54166603088379 8.843665745150247)"><text x="0" y="0" font-family="Virgil, Segoe UI Emoji" font-size="14.149865192240405px" fill="#000000" text-anchor="start" style="white-space: pre;" direction="ltr" dominant-baseline="text-before-edge">EMPNO</text></g><g transform="translate(725.8286979692443 420.38521327179416) rotate(0 24.133333206176758 8.843665745150247)"><text x="0" y="0" font-family="Virgil, Segoe UI Emoji" font-size="14.149865192240409px" fill="#000000" text-anchor="start" style="white-space: pre;" direction="ltr" dominant-baseline="text-before-edge">ENAME</text></g><g transform="translate(810.727889122692 420.38521327179416) rotate(0 13.166666984558105 8.843665745150247)"><text x="0" y="0" font-family="Virgil, Segoe UI Emoji" font-size="14.149865192240409px" fill="#000000" text-anchor="start" style="white-space: pre;" direction="ltr" dominant-baseline="text-before-edge">SAL</text></g><g transform="translate(725.8286979692443 448.68494365627384) rotate(0 29.625 123.81132043210357)"><text x="0" y="0" font-family="Virgil, Segoe UI Emoji" font-size="14.149865192240409px" fill="#1e1e1e" text-anchor="start" style="white-space: pre;" direction="ltr" dominant-baseline="text-before-edge">SMITH</text><text x="0" y="17.687331490300515" font-family="Virgil, Segoe UI Emoji" font-size="14.149865192240409px" fill="#1e1e1e" text-anchor="start" style="white-space: pre;" direction="ltr" dominant-baseline="text-before-edge">ALLEN</text><text x="0" y="35.37466298060103" font-family="Virgil, Segoe UI Emoji" font-size="14.149865192240409px" fill="#1e1e1e" text-anchor="start" style="white-space: pre;" direction="ltr" dominant-baseline="text-before-edge">WARD</text><text x="0" y="53.061994470901546" font-family="Virgil, Segoe UI Emoji" font-size="14.149865192240409px" fill="#1e1e1e" text-anchor="start" style="white-space: pre;" direction="ltr" dominant-baseline="text-before-edge">JONES</text><text x="0" y="70.74932596120206" font-family="Virgil, Segoe UI Emoji" font-size="14.149865192240409px" fill="#1e1e1e" text-anchor="start" style="white-space: pre;" direction="ltr" dominant-baseline="text-before-edge">MARTIN</text><text x="0" y="88.43665745150258" font-family="Virgil, Segoe UI Emoji" font-size="14.149865192240409px" fill="#1e1e1e" text-anchor="start" style="white-space: pre;" direction="ltr" dominant-baseline="text-before-edge">BLAKE</text><text x="0" y="106.12398894180309" font-family="Virgil, Segoe UI Emoji" font-size="14.149865192240409px" fill="#1e1e1e" text-anchor="start" style="white-space: pre;" direction="ltr" dominant-baseline="text-before-edge">CLARK</text><text x="0" y="123.8113204321036" font-family="Virgil, Segoe UI Emoji" font-size="14.149865192240409px" fill="#1e1e1e" text-anchor="start" style="white-space: pre;" direction="ltr" dominant-baseline="text-before-edge">SCOTT</text><text x="0" y="141.49865192240412" font-family="Virgil, Segoe UI Emoji" font-size="14.149865192240409px" fill="#1e1e1e" text-anchor="start" style="white-space: pre;" direction="ltr" dominant-baseline="text-before-edge">KING</text><text x="0" y="159.18598341270464" font-family="Virgil, Segoe UI Emoji" font-size="14.149865192240409px" fill="#1e1e1e" text-anchor="start" style="white-space: pre;" direction="ltr" dominant-baseline="text-before-edge">TURNER</text><text x="0" y="176.87331490300517" font-family="Virgil, Segoe UI Emoji" font-size="14.149865192240409px" fill="#1e1e1e" text-anchor="start" style="white-space: pre;" direction="ltr" dominant-baseline="text-before-edge">ADAMS</text><text x="0" y="194.56064639330566" font-family="Virgil, Segoe UI Emoji" font-size="14.149865192240409px" fill="#1e1e1e" text-anchor="start" style="white-space: pre;" direction="ltr" dominant-baseline="text-before-edge">JAMES</text><text x="0" y="212.24797788360618" font-family="Virgil, Segoe UI Emoji" font-size="14.149865192240409px" fill="#1e1e1e" text-anchor="start" style="white-space: pre;" direction="ltr" dominant-baseline="text-before-edge"></text><text x="0" y="229.9353093739067" font-family="Virgil, Segoe UI Emoji" font-size="14.149865192240409px" fill="#1e1e1e" text-anchor="start" style="white-space: pre;" direction="ltr" dominant-baseline="text-before-edge"></text></g><g transform="translate(810.7278891226829 448.68494365627384) rotate(0 19.66666603088379 123.81132043210357)"><text x="0" y="0" font-family="Virgil, Segoe UI Emoji" font-size="14.14986519224041px" fill="#000000" text-anchor="start" style="white-space: pre;" direction="ltr" dominant-baseline="text-before-edge">800</text><text x="0" y="17.687331490300515" font-family="Virgil, Segoe UI Emoji" font-size="14.14986519224041px" fill="#000000" text-anchor="start" style="white-space: pre;" direction="ltr" dominant-baseline="text-before-edge">1600</text><text x="0" y="35.37466298060103" font-family="Virgil, Segoe UI Emoji" font-size="14.14986519224041px" fill="#000000" text-anchor="start" style="white-space: pre;" direction="ltr" dominant-baseline="text-before-edge">1250</text><text x="0" y="53.061994470901546" font-family="Virgil, Segoe UI Emoji" font-size="14.14986519224041px" fill="#000000" text-anchor="start" style="white-space: pre;" direction="ltr" dominant-baseline="text-before-edge">2975</text><text x="0" y="70.74932596120206" font-family="Virgil, Segoe UI Emoji" font-size="14.14986519224041px" fill="#000000" text-anchor="start" style="white-space: pre;" direction="ltr" dominant-baseline="text-before-edge">1250</text><text x="0" y="88.43665745150258" font-family="Virgil, Segoe UI Emoji" font-size="14.14986519224041px" fill="#000000" text-anchor="start" style="white-space: pre;" direction="ltr" dominant-baseline="text-before-edge">2850</text><text x="0" y="106.12398894180309" font-family="Virgil, Segoe UI Emoji" font-size="14.14986519224041px" fill="#000000" text-anchor="start" style="white-space: pre;" direction="ltr" dominant-baseline="text-before-edge">2450</text><text x="0" y="123.8113204321036" font-family="Virgil, Segoe UI Emoji" font-size="14.14986519224041px" fill="#000000" text-anchor="start" style="white-space: pre;" direction="ltr" dominant-baseline="text-before-edge">3000</text><text x="0" y="141.49865192240412" font-family="Virgil, Segoe UI Emoji" font-size="14.14986519224041px" fill="#000000" text-anchor="start" style="white-space: pre;" direction="ltr" dominant-baseline="text-before-edge">5000</text><text x="0" y="159.18598341270464" font-family="Virgil, Segoe UI Emoji" font-size="14.14986519224041px" fill="#000000" text-anchor="start" style="white-space: pre;" direction="ltr" dominant-baseline="text-before-edge">1500</text><text x="0" y="176.87331490300517" font-family="Virgil, Segoe UI Emoji" font-size="14.14986519224041px" fill="#000000" text-anchor="start" style="white-space: pre;" direction="ltr" dominant-baseline="text-before-edge">1100</text><text x="0" y="194.56064639330566" font-family="Virgil, Segoe UI Emoji" font-size="14.14986519224041px" fill="#000000" text-anchor="start" style="white-space: pre;" direction="ltr" dominant-baseline="text-before-edge">950</text><text x="0" y="212.24797788360618" font-family="Virgil, Segoe UI Emoji" font-size="14.14986519224041px" fill="#000000" text-anchor="start" style="white-space: pre;" direction="ltr" dominant-baseline="text-before-edge"></text><text x="0" y="229.9353093739067" font-family="Virgil, Segoe UI Emoji" font-size="14.14986519224041px" fill="#000000" text-anchor="start" style="white-space: pre;" direction="ltr" dominant-baseline="text-before-edge"></text></g><g transform="translate(655.9670461197315 449.18141888006073) rotate(0 18.41666603088379 123.81132043210357)"><text x="0" y="0" font-family="Virgil, Segoe UI Emoji" font-size="14.149865192240409px" fill="#1e1e1e" text-anchor="start" style="white-space: pre;" direction="ltr" dominant-baseline="text-before-edge">7369</text><text x="0" y="17.68733149030051" font-family="Virgil, Segoe UI Emoji" font-size="14.149865192240409px" fill="#1e1e1e" text-anchor="start" style="white-space: pre;" direction="ltr" dominant-baseline="text-before-edge">7499</text><text x="0" y="35.37466298060102" font-family="Virgil, Segoe UI Emoji" font-size="14.149865192240409px" fill="#1e1e1e" text-anchor="start" style="white-space: pre;" direction="ltr" dominant-baseline="text-before-edge">7521</text><text x="0" y="53.06199447090154" font-family="Virgil, Segoe UI Emoji" font-size="14.149865192240409px" fill="#1e1e1e" text-anchor="start" style="white-space: pre;" direction="ltr" dominant-baseline="text-before-edge">7566</text><text x="0" y="70.74932596120205" font-family="Virgil, Segoe UI Emoji" font-size="14.149865192240409px" fill="#1e1e1e" text-anchor="start" style="white-space: pre;" direction="ltr" dominant-baseline="text-before-edge">7654</text><text x="0" y="88.43665745150255" font-family="Virgil, Segoe UI Emoji" font-size="14.149865192240409px" fill="#1e1e1e" text-anchor="start" style="white-space: pre;" direction="ltr" dominant-baseline="text-before-edge">7698</text><text x="0" y="106.12398894180308" font-family="Virgil, Segoe UI Emoji" font-size="14.149865192240409px" fill="#1e1e1e" text-anchor="start" style="white-space: pre;" direction="ltr" dominant-baseline="text-before-edge">7782</text><text x="0" y="123.81132043210359" font-family="Virgil, Segoe UI Emoji" font-size="14.149865192240409px" fill="#1e1e1e" text-anchor="start" style="white-space: pre;" direction="ltr" dominant-baseline="text-before-edge">7788</text><text x="0" y="141.4986519224041" font-family="Virgil, Segoe UI Emoji" font-size="14.149865192240409px" fill="#1e1e1e" text-anchor="start" style="white-space: pre;" direction="ltr" dominant-baseline="text-before-edge">7839</text><text x="0" y="159.18598341270462" font-family="Virgil, Segoe UI Emoji" font-size="14.149865192240409px" fill="#1e1e1e" text-anchor="start" style="white-space: pre;" direction="ltr" dominant-baseline="text-before-edge">7844</text><text x="0" y="176.8733149030051" font-family="Virgil, Segoe UI Emoji" font-size="14.149865192240409px" fill="#1e1e1e" text-anchor="start" style="white-space: pre;" direction="ltr" dominant-baseline="text-before-edge">7876</text><text x="0" y="194.56064639330563" font-family="Virgil, Segoe UI Emoji" font-size="14.149865192240409px" fill="#1e1e1e" text-anchor="start" style="white-space: pre;" direction="ltr" dominant-baseline="text-before-edge">7900</text><text x="0" y="212.24797788360615" font-family="Virgil, Segoe UI Emoji" font-size="14.149865192240409px" fill="#1e1e1e" text-anchor="start" style="white-space: pre;" direction="ltr" dominant-baseline="text-before-edge"></text><text x="0" y="229.93530937390665" font-family="Virgil, Segoe UI Emoji" font-size="14.149865192240409px" fill="#1e1e1e" text-anchor="start" style="white-space: pre;" direction="ltr" dominant-baseline="text-before-edge"></text></g><g stroke-linecap="round"><g transform="translate(714.105843572011 421.1876048649257) rotate(0 -0.08663981959193734 142.5862956345116)"><path d="M-0.01 -0.06 C0.01 47.46, 0 237.7, 0.02 285.24 M-0.19 0.22 C-0.18 47.68, -0.13 237.48, -0.09 285" stroke="#000000" stroke-width="1" fill="none"></path></g></g><mask></mask><g transform="translate(683.4839981695545 345.9654842610928) rotate(0 66.11666870117188 17.518380353555983)"><text x="0" y="0" font-family="Virgil, Segoe UI Emoji" font-size="28.029408565689558px" fill="#1e1e1e" text-anchor="start" style="white-space: pre;" direction="ltr" dominant-baseline="text-before-edge">Employees</text></g><g transform="translate(730.5532493781693 660.5684613086905) rotate(0 22.40833282470703 10.193779478243016)"><text x="0" y="0" font-family="Virgil, Segoe UI Emoji" font-size="16.310047165188788px" fill="#1971c2" text-anchor="start" style="white-space: pre;" direction="ltr" dominant-baseline="text-before-edge">FORD</text></g><g transform="translate(809.1090934609306 660.4843747712688) rotate(0 20.41666603088379 9.288666123480255)"><text x="0" y="0" font-family="Virgil, Segoe UI Emoji" font-size="14.861865797568434px" fill="#1971c2" text-anchor="start" style="white-space: pre;" direction="ltr" dominant-baseline="text-before-edge">3000</text></g><g transform="translate(656.3477103304344 660.8513389404247) rotate(0 18.950000762939453 9.309098938455179)"><text x="0" y="0" font-family="Virgil, Segoe UI Emoji" font-size="14.894558301528289px" fill="#1971c2" text-anchor="start" style="white-space: pre;" direction="ltr" dominant-baseline="text-before-edge">7902</text></g><g stroke-linecap="round" transform="translate(16.65129615442129 427.6893538777173) rotate(0 74.8270817372404 91.45532212329385)"><path d="M1.11 -1.25 L149.8 0.96 L148.71 183.07 L0.81 183.49" stroke="none" stroke-width="0" fill="#868e96"></path><path d="M0 0 C54.28 0.23, 105.52 0.43, 149.65 0 M0 0 C30.63 1.46, 61.53 1.42, 149.65 0 M149.65 0 C150.89 65.44, 150.16 130.26, 149.65 182.91 M149.65 0 C149.84 46.63, 150.75 92.25, 149.65 182.91 M149.65 182.91 C120.48 183.42, 90.03 184.77, 0 182.91 M149.65 182.91 C109.14 183.98, 70.33 182.97, 0 182.91 M0 182.91 C0.32 129.17, -1.39 75.61, 0 0 M0 182.91 C0.12 117.08, 0.24 49.76, 0 0" stroke="#000000" stroke-width="1" fill="none"></path></g><g stroke-linecap="round" transform="translate(10 420.2066457039938) rotate(0 74.8270817372404 91.45532212329385)"><path d="M0.15 0.96 L148.71 0.15 L150.46 183.49 L1.14 183.49" stroke="none" stroke-width="0" fill="#ffffff"></path><path d="M0 0 C60.43 0.62, 117.21 -3.04, 149.65 0 M0 0 C32.99 -0.15, 65.55 -0.09, 149.65 0 M149.65 0 C150.46 40.71, 149.39 83.8, 149.65 182.91 M149.65 0 C148.13 69.06, 147.09 137.24, 149.65 182.91 M149.65 182.91 C94.54 183.3, 38 182.06, 0 182.91 M149.65 182.91 C98.88 182.91, 46.64 183.27, 0 182.91 M0 182.91 C-1.72 127.15, 1.4 69.81, 0 0 M0 182.91 C-0.56 110.91, -0.97 38.11, 0 0" stroke="#000000" stroke-width="1" fill="none"></path></g><g stroke-linecap="round"><g transform="translate(19.513084665628412 441.4597322595929) rotate(0 66.59546697457495 -0.026485369400660375)"><path d="M0.14 -0.14 C22.27 -0.17, 110.75 -0.15, 132.9 -0.12 M0.03 0.1 C22.19 0.08, 111 -0.01, 133.16 0" stroke="#000000" stroke-width="1" fill="none"></path></g></g><mask></mask><g stroke-linecap="round"><g transform="translate(111.49882740227076 429.48306477162726) rotate(0 -0.03087936432962124 83.74314037591526)"><path d="M-0.13 -0.12 C-0.15 27.84, -0.02 139.65, 0.02 167.61 M0.07 0.13 C0.02 28.06, -0.08 139.43, -0.09 167.37" stroke="#000000" stroke-width="1" fill="none"></path></g></g><mask></mask><g transform="translate(26.62824038605686 428.52076589702017) rotate(0 14.541666984558105 5.1963251206416885)"><text x="0" y="0" font-family="Virgil, Segoe UI Emoji" font-size="8.31412019302671px" fill="#000000" text-anchor="start" style="white-space: pre;" direction="ltr" dominant-baseline="text-before-edge">EMPNO</text></g><g transform="translate(68.19884135118627 428.52076589702017) rotate(0 14.308333396911621 5.1963251206416885)"><text x="0" y="0" font-family="Virgil, Segoe UI Emoji" font-size="8.314120193026712px" fill="#000000" text-anchor="start" style="white-space: pre;" direction="ltr" dominant-baseline="text-before-edge">ENAME</text></g><g transform="translate(118.08356250934958 428.52076589702017) rotate(0 7.808333396911621 5.1963251206416885)"><text x="0" y="0" font-family="Virgil, Segoe UI Emoji" font-size="8.314120193026712px" fill="#000000" text-anchor="start" style="white-space: pre;" direction="ltr" dominant-baseline="text-before-edge">SAL</text></g><g transform="translate(68.19884135118627 445.14900628307294) rotate(0 17.566667556762695 72.74855168898375)"><text x="0" y="0" font-family="Virgil, Segoe UI Emoji" font-size="8.314120193026712px" fill="#1e1e1e" text-anchor="start" style="white-space: pre;" direction="ltr" dominant-baseline="text-before-edge">SMITH</text><text x="0" y="10.392650241283391" font-family="Virgil, Segoe UI Emoji" font-size="8.314120193026712px" fill="#1e1e1e" text-anchor="start" style="white-space: pre;" direction="ltr" dominant-baseline="text-before-edge">ALLEN</text><text x="0" y="20.785300482566782" font-family="Virgil, Segoe UI Emoji" font-size="8.314120193026712px" fill="#1e1e1e" text-anchor="start" style="white-space: pre;" direction="ltr" dominant-baseline="text-before-edge">WARD</text><text x="0" y="31.177950723850174" font-family="Virgil, Segoe UI Emoji" font-size="8.314120193026712px" fill="#1e1e1e" text-anchor="start" style="white-space: pre;" direction="ltr" dominant-baseline="text-before-edge">JONES</text><text x="0" y="41.570600965133565" font-family="Virgil, Segoe UI Emoji" font-size="8.314120193026712px" fill="#1e1e1e" text-anchor="start" style="white-space: pre;" direction="ltr" dominant-baseline="text-before-edge">MARTIN</text><text x="0" y="51.963251206416956" font-family="Virgil, Segoe UI Emoji" font-size="8.314120193026712px" fill="#1e1e1e" text-anchor="start" style="white-space: pre;" direction="ltr" dominant-baseline="text-before-edge">BLAKE</text><text x="0" y="62.35590144770035" font-family="Virgil, Segoe UI Emoji" font-size="8.314120193026712px" fill="#1e1e1e" text-anchor="start" style="white-space: pre;" direction="ltr" dominant-baseline="text-before-edge">CLARK</text><text x="0" y="72.74855168898374" font-family="Virgil, Segoe UI Emoji" font-size="8.314120193026712px" fill="#1e1e1e" text-anchor="start" style="white-space: pre;" direction="ltr" dominant-baseline="text-before-edge">SCOTT</text><text x="0" y="83.14120193026713" font-family="Virgil, Segoe UI Emoji" font-size="8.314120193026712px" fill="#1e1e1e" text-anchor="start" style="white-space: pre;" direction="ltr" dominant-baseline="text-before-edge">KING</text><text x="0" y="93.53385217155052" font-family="Virgil, Segoe UI Emoji" font-size="8.314120193026712px" fill="#1e1e1e" text-anchor="start" style="white-space: pre;" direction="ltr" dominant-baseline="text-before-edge">TURNER</text><text x="0" y="103.92650241283391" font-family="Virgil, Segoe UI Emoji" font-size="8.314120193026712px" fill="#1e1e1e" text-anchor="start" style="white-space: pre;" direction="ltr" dominant-baseline="text-before-edge">ADAMS</text><text x="0" y="114.3191526541173" font-family="Virgil, Segoe UI Emoji" font-size="8.314120193026712px" fill="#1e1e1e" text-anchor="start" style="white-space: pre;" direction="ltr" dominant-baseline="text-before-edge">JAMES</text><text x="0" y="124.7118028954007" font-family="Virgil, Segoe UI Emoji" font-size="8.314120193026712px" fill="#1e1e1e" text-anchor="start" style="white-space: pre;" direction="ltr" dominant-baseline="text-before-edge"></text><text x="0" y="135.10445313668407" font-family="Virgil, Segoe UI Emoji" font-size="8.314120193026712px" fill="#1e1e1e" text-anchor="start" style="white-space: pre;" direction="ltr" dominant-baseline="text-before-edge"></text></g><g transform="translate(118.08356250934412 445.14900628307294) rotate(0 11.666666984558105 72.74855168898375)"><text x="0" y="0" font-family="Virgil, Segoe UI Emoji" font-size="8.314120193026712px" fill="#000000" text-anchor="start" style="white-space: pre;" direction="ltr" dominant-baseline="text-before-edge">800</text><text x="0" y="10.392650241283391" font-family="Virgil, Segoe UI Emoji" font-size="8.314120193026712px" fill="#000000" text-anchor="start" style="white-space: pre;" direction="ltr" dominant-baseline="text-before-edge">1600</text><text x="0" y="20.785300482566782" font-family="Virgil, Segoe UI Emoji" font-size="8.314120193026712px" fill="#000000" text-anchor="start" style="white-space: pre;" direction="ltr" dominant-baseline="text-before-edge">1250</text><text x="0" y="31.177950723850174" font-family="Virgil, Segoe UI Emoji" font-size="8.314120193026712px" fill="#000000" text-anchor="start" style="white-space: pre;" direction="ltr" dominant-baseline="text-before-edge">2975</text><text x="0" y="41.570600965133565" font-family="Virgil, Segoe UI Emoji" font-size="8.314120193026712px" fill="#000000" text-anchor="start" style="white-space: pre;" direction="ltr" dominant-baseline="text-before-edge">1250</text><text x="0" y="51.963251206416956" font-family="Virgil, Segoe UI Emoji" font-size="8.314120193026712px" fill="#000000" text-anchor="start" style="white-space: pre;" direction="ltr" dominant-baseline="text-before-edge">2850</text><text x="0" y="62.35590144770035" font-family="Virgil, Segoe UI Emoji" font-size="8.314120193026712px" fill="#000000" text-anchor="start" style="white-space: pre;" direction="ltr" dominant-baseline="text-before-edge">2450</text><text x="0" y="72.74855168898374" font-family="Virgil, Segoe UI Emoji" font-size="8.314120193026712px" fill="#000000" text-anchor="start" style="white-space: pre;" direction="ltr" dominant-baseline="text-before-edge">3000</text><text x="0" y="83.14120193026713" font-family="Virgil, Segoe UI Emoji" font-size="8.314120193026712px" fill="#000000" text-anchor="start" style="white-space: pre;" direction="ltr" dominant-baseline="text-before-edge">5000</text><text x="0" y="93.53385217155052" font-family="Virgil, Segoe UI Emoji" font-size="8.314120193026712px" fill="#000000" text-anchor="start" style="white-space: pre;" direction="ltr" dominant-baseline="text-before-edge">1500</text><text x="0" y="103.92650241283391" font-family="Virgil, Segoe UI Emoji" font-size="8.314120193026712px" fill="#000000" text-anchor="start" style="white-space: pre;" direction="ltr" dominant-baseline="text-before-edge">1100</text><text x="0" y="114.3191526541173" font-family="Virgil, Segoe UI Emoji" font-size="8.314120193026712px" fill="#000000" text-anchor="start" style="white-space: pre;" direction="ltr" dominant-baseline="text-before-edge">950</text><text x="0" y="124.7118028954007" font-family="Virgil, Segoe UI Emoji" font-size="8.314120193026712px" fill="#000000" text-anchor="start" style="white-space: pre;" direction="ltr" dominant-baseline="text-before-edge"></text><text x="0" y="135.10445313668407" font-family="Virgil, Segoe UI Emoji" font-size="8.314120193026712px" fill="#000000" text-anchor="start" style="white-space: pre;" direction="ltr" dominant-baseline="text-before-edge"></text></g><g transform="translate(27.149816327346343 445.44072317417715) rotate(0 10.933333396911621 72.7485516889837)"><text x="0" y="0" font-family="Virgil, Segoe UI Emoji" font-size="8.314120193026712px" fill="#1e1e1e" text-anchor="start" style="white-space: pre;" direction="ltr" dominant-baseline="text-before-edge">7369</text><text x="0" y="10.39265024128339" font-family="Virgil, Segoe UI Emoji" font-size="8.314120193026712px" fill="#1e1e1e" text-anchor="start" style="white-space: pre;" direction="ltr" dominant-baseline="text-before-edge">7499</text><text x="0" y="20.78530048256678" font-family="Virgil, Segoe UI Emoji" font-size="8.314120193026712px" fill="#1e1e1e" text-anchor="start" style="white-space: pre;" direction="ltr" dominant-baseline="text-before-edge">7521</text><text x="0" y="31.177950723850167" font-family="Virgil, Segoe UI Emoji" font-size="8.314120193026712px" fill="#1e1e1e" text-anchor="start" style="white-space: pre;" direction="ltr" dominant-baseline="text-before-edge">7566</text><text x="0" y="41.57060096513356" font-family="Virgil, Segoe UI Emoji" font-size="8.314120193026712px" fill="#1e1e1e" text-anchor="start" style="white-space: pre;" direction="ltr" dominant-baseline="text-before-edge">7654</text><text x="0" y="51.96325120641695" font-family="Virgil, Segoe UI Emoji" font-size="8.314120193026712px" fill="#1e1e1e" text-anchor="start" style="white-space: pre;" direction="ltr" dominant-baseline="text-before-edge">7698</text><text x="0" y="62.35590144770033" font-family="Virgil, Segoe UI Emoji" font-size="8.314120193026712px" fill="#1e1e1e" text-anchor="start" style="white-space: pre;" direction="ltr" dominant-baseline="text-before-edge">7782</text><text x="0" y="72.74855168898372" font-family="Virgil, Segoe UI Emoji" font-size="8.314120193026712px" fill="#1e1e1e" text-anchor="start" style="white-space: pre;" direction="ltr" dominant-baseline="text-before-edge">7788</text><text x="0" y="83.14120193026712" font-family="Virgil, Segoe UI Emoji" font-size="8.314120193026712px" fill="#1e1e1e" text-anchor="start" style="white-space: pre;" direction="ltr" dominant-baseline="text-before-edge">7839</text><text x="0" y="93.5338521715505" font-family="Virgil, Segoe UI Emoji" font-size="8.314120193026712px" fill="#1e1e1e" text-anchor="start" style="white-space: pre;" direction="ltr" dominant-baseline="text-before-edge">7844</text><text x="0" y="103.9265024128339" font-family="Virgil, Segoe UI Emoji" font-size="8.314120193026712px" fill="#1e1e1e" text-anchor="start" style="white-space: pre;" direction="ltr" dominant-baseline="text-before-edge">7876</text><text x="0" y="114.31915265411729" font-family="Virgil, Segoe UI Emoji" font-size="8.314120193026712px" fill="#1e1e1e" text-anchor="start" style="white-space: pre;" direction="ltr" dominant-baseline="text-before-edge">7900</text><text x="0" y="124.71180289540067" font-family="Virgil, Segoe UI Emoji" font-size="8.314120193026712px" fill="#1e1e1e" text-anchor="start" style="white-space: pre;" direction="ltr" dominant-baseline="text-before-edge"></text><text x="0" y="135.10445313668407" font-family="Virgil, Segoe UI Emoji" font-size="8.314120193026712px" fill="#1e1e1e" text-anchor="start" style="white-space: pre;" direction="ltr" dominant-baseline="text-before-edge"></text></g><g stroke-linecap="round"><g transform="translate(61.31077428201024 428.9922318831999) rotate(0 0.0058144473637185 83.86850288742758)"><path d="M0.08 0.11 C0.07 28.07, -0.11 139.77, -0.13 167.7 M-0.05 0.04 C-0.02 27.97, 0.14 139.6, 0.14 167.51" stroke="#000000" stroke-width="1" fill="none"></path></g></g><mask></mask><g transform="translate(43.31811500579897 384.79352444833467) rotate(0 38.96666717529297 10.293378620065909)"><text x="0" y="0" font-family="Virgil, Segoe UI Emoji" font-size="16.469405792105444px" fill="#1e1e1e" text-anchor="start" style="white-space: pre;" direction="ltr" dominant-baseline="text-before-edge">Employees</text></g><g stroke-linecap="round" transform="translate(1636.7224262192822 667.6884984239447) rotate(0 76.46857587027512 76.46857587027512)"><path d="M71.72 -0.02 C82.26 -2.17, 94.77 0.55, 104.86 4.77 C114.95 8.99, 124.99 17.08, 132.28 25.29 C139.56 33.51, 145.15 43.59, 148.57 54.06 C151.99 64.53, 154.4 77.22, 152.8 88.11 C151.2 99, 145.45 110.2, 138.96 119.39 C132.48 128.58, 123.29 137.66, 113.91 143.24 C104.52 148.82, 93.42 152.17, 82.64 152.86 C71.85 153.55, 59.44 151.28, 49.18 147.37 C38.92 143.47, 28.63 137.62, 21.1 129.42 C13.56 121.21, 7.47 108.77, 3.99 98.14 C0.5 87.51, -1.47 76.5, 0.19 65.63 C1.85 54.76, 7.47 42.22, 13.95 32.95 C20.43 23.67, 29.18 15.6, 39.09 9.98 C49 4.37, 67.31 0.74, 73.4 -0.73 C79.49 -2.2, 75.64 -0.17, 75.64 1.17 M63.83 -0.06 C74.1 -2.7, 87.46 0.06, 98.19 3.45 C108.92 6.85, 120.26 12.77, 128.2 20.3 C136.15 27.84, 141.54 38.29, 145.85 48.66 C150.15 59.03, 154.65 71.88, 154.04 82.52 C153.43 93.16, 147.67 103.1, 142.21 112.49 C136.75 121.87, 130.13 132.33, 121.27 138.83 C112.42 145.33, 100.08 149.83, 89.07 151.48 C78.06 153.14, 65.62 151.57, 55.23 148.74 C44.83 145.91, 35.03 141.65, 26.7 134.5 C18.37 127.36, 9.7 116.59, 5.25 105.89 C0.8 95.2, -0.87 81.62, 0.03 70.33 C0.92 59.04, 5.35 47.37, 10.6 38.16 C15.85 28.95, 22.71 21.34, 31.53 15.06 C40.34 8.78, 58.04 2.36, 63.5 0.47 C68.96 -1.41, 64.22 2.48, 64.31 3.76" stroke="#e03131" stroke-width="1" fill="none"></path></g><g stroke-linecap="round"><g transform="translate(1700.625785765361 701.0321885956636) rotate(227.27022492945142 11.24677773012968 44.058956347689445)"><path d="M-0.18 -0.54 C0.2 5, 6.5 26.05, 1.46 32.15 C-3.58 38.26, -25.27 32.54, -30.43 36.1 C-35.59 39.67, -34.94 50.76, -29.48 53.55 C-24.02 56.33, -3 47.36, 2.31 52.8 C7.62 58.24, -1.76 81.25, 2.37 86.17 C6.5 91.1, 23.09 87.53, 27.07 82.34 C31.06 77.14, 21.89 59.76, 26.29 55.01 C30.68 50.27, 48.84 57.51, 53.42 53.86 C58 50.22, 58.23 36.61, 53.77 33.15 C49.3 29.68, 31.54 37.91, 26.63 33.06 C21.72 28.2, 28.94 9.64, 24.32 4 C19.71 -1.64, 2.89 -0.26, -1.05 -0.79 M-1.73 1.79 C-1.36 7.12, 5.93 25.27, 1 30.64 C-3.94 36.02, -26.25 30.08, -31.35 34.05 C-36.44 38.03, -35.01 51.41, -29.56 54.5 C-24.11 57.58, -4.2 47.4, 1.37 52.58 C6.94 57.76, -0.55 80.31, 3.87 85.58 C8.29 90.86, 24.33 89.45, 27.88 84.22 C31.43 78.98, 21.13 59.41, 25.17 54.16 C29.2 48.92, 47.19 56.27, 52.1 52.76 C57.01 49.25, 58.84 36.76, 54.62 33.1 C50.4 29.44, 31.96 35.67, 26.78 30.81 C21.59 25.95, 28.19 8.81, 23.5 3.95 C18.81 -0.91, 2.49 2.12, -1.38 1.63" stroke="#e03131" stroke-width="1" fill="none"></path></g></g><mask></mask><g transform="translate(1618.614844142683 709.8809150715758) rotate(336.4584952774129 94.89167022705078 37.967126367928586)"><text x="0" y="0" font-family="Virgil, Segoe UI Emoji" font-size="60.74740218868574px" fill="#e03131" text-anchor="start" style="white-space: pre;" direction="ltr" dominant-baseline="text-before-edge">CRASH</text></g><g transform="translate(389.91860205679177 536.1696632530293) rotate(0 107.84166717529297 50.284046380769155)"><text x="0" y="0" font-family="Virgil, Segoe UI Emoji" font-size="20.11361855230766px" fill="#1e1e1e" text-anchor="start" style="white-space: pre;" direction="ltr" dominant-baseline="text-before-edge">1. The first INSERT</text><text x="0" y="25.142023190384574" font-family="Virgil, Segoe UI Emoji" font-size="20.11361855230766px" fill="#1e1e1e" text-anchor="start" style="white-space: pre;" direction="ltr" dominant-baseline="text-before-edge">triggers a page to be</text><text x="0" y="50.28404638076915" font-family="Virgil, Segoe UI Emoji" font-size="20.11361855230766px" fill="#1e1e1e" text-anchor="start" style="white-space: pre;" direction="ltr" dominant-baseline="text-before-edge">loaded into the</text><text x="0" y="75.42606957115372" font-family="Virgil, Segoe UI Emoji" font-size="20.11361855230766px" fill="#1e1e1e" text-anchor="start" style="white-space: pre;" direction="ltr" dominant-baseline="text-before-edge">buffer pool</text></g><g transform="translate(493.3066125848759 262.4490520770334) rotate(0 107.05000305175781 29.295124823053158)"><text x="0" y="0" font-family="Virgil, Segoe UI Emoji" font-size="23.43609985844253px" fill="#1e1e1e" text-anchor="start" style="white-space: pre;" direction="ltr" dominant-baseline="text-before-edge">4. A page becomes</text><text x="0" y="29.295124823053165" font-family="Virgil, Segoe UI Emoji" font-size="23.43609985844253px" fill="#1e1e1e" text-anchor="start" style="white-space: pre;" direction="ltr" dominant-baseline="text-before-edge">"dirty".</text></g><g transform="translate(1524.2815955735418 559.2676553777146) rotate(0 133.64999389648438 28.752682736600377)"><text x="0" y="0" font-family="Virgil, Segoe UI Emoji" font-size="23.00214618928032px" fill="#1e1e1e" text-anchor="start" style="white-space: pre;" direction="ltr" dominant-baseline="text-before-edge">(A page has not been</text><text x="0" y="28.752682736600402" font-family="Virgil, Segoe UI Emoji" font-size="23.00214618928032px" fill="#1e1e1e" text-anchor="start" style="white-space: pre;" direction="ltr" dominant-baseline="text-before-edge">flushed to the BD yet)</text></g><g transform="translate(1774.1036818246448 159.15222421223152) rotate(0 78.09166717529297 34.90113925406145)"><text x="0" y="0" font-family="Virgil, Segoe UI Emoji" font-size="55.84182280649832px" fill="#aaa" text-anchor="start" style="white-space: pre;" direction="ltr" dominant-baseline="text-before-edge">TIME</text></g><g stroke-linecap="round"><g transform="translate(450.2676497274301 334.0873257102249) rotate(0 85.44744875718038 47.10888793606864)"><path d="M0.09 0.54 C28.74 16.29, 143.67 79.09, 172.21 94.43 M-1.32 -0.22 C27.14 15.21, 142.05 77.18, 171.22 92.79" stroke="#1e1e1e" stroke-width="1" fill="none"></path></g><g transform="translate(450.2676497274301 334.0873257102249) rotate(0 85.44744875718038 47.10888793606864)"><path d="M141.53 88.48 C152.12 89.73, 162.41 89.65, 171.22 92.79 M141.53 88.48 C147.59 89.61, 155.62 89.48, 171.22 92.79" stroke="#1e1e1e" stroke-width="1" fill="none"></path></g><g transform="translate(450.2676497274301 334.0873257102249) rotate(0 85.44744875718038 47.10888793606864)"><path d="M151.25 70.4 C158.66 77.56, 165.78 83.38, 171.22 92.79 M151.25 70.4 C155.12 75.57, 160.99 79.45, 171.22 92.79" stroke="#1e1e1e" stroke-width="1" fill="none"></path></g></g><mask></mask><g stroke-linecap="round"><g transform="translate(601.1003650738294 621.0798555192684) rotate(0 -207.2500193936164 128.37087704452762)"><path d="M-0.46 0.23 C-69.62 43.09, -346.09 214.65, -415.22 257.43 M1.51 -0.69 C-67.77 41.79, -346.45 212.44, -416.01 255.6" stroke="#1e1e1e" stroke-width="1" fill="none"></path></g><g transform="translate(601.1003650738294 621.0798555192684) rotate(0 -207.2500193936164 128.37087704452762)"><path d="M-397.38 232.08 C-402.15 239.1, -406.82 245.64, -416.01 255.6 M-397.38 232.08 C-403.66 239.43, -408.94 245.47, -416.01 255.6" stroke="#1e1e1e" stroke-width="1" fill="none"></path></g><g transform="translate(601.1003650738294 621.0798555192684) rotate(0 -207.2500193936164 128.37087704452762)"><path d="M-386.62 249.55 C-394.43 251.65, -402.12 253.3, -416.01 255.6 M-386.62 249.55 C-396 251.53, -404.54 252.28, -416.01 255.6" stroke="#1e1e1e" stroke-width="1" fill="none"></path></g></g><mask></mask><g stroke-linecap="round"><g transform="translate(913.4544991251946 586.4441527143797) rotate(0 134.20502018591333 -0.4375018656447196)"><path d="M0.06 -0.1 C44.82 -0.26, 223.74 -0.88, 268.5 -1.05 M-0.09 0.18 C44.65 0.04, 223.6 -0.68, 268.36 -0.88" stroke="#1e1e1e" stroke-width="1" fill="none"></path></g><g transform="translate(913.4544991251946 586.4441527143797) rotate(0 134.20502018591333 -0.4375018656447196)"><path d="M240.22 9.5 C247.46 6.67, 254.99 4.1, 268.36 -0.88 M240.22 9.5 C246.19 7.31, 251.98 5.14, 268.36 -0.88" stroke="#1e1e1e" stroke-width="1" fill="none"></path></g><g transform="translate(913.4544991251946 586.4441527143797) rotate(0 134.20502018591333 -0.4375018656447196)"><path d="M240.13 -11.02 C247.38 -8.44, 254.93 -5.6, 268.36 -0.88 M240.13 -11.02 C246.11 -8.89, 251.93 -6.72, 268.36 -0.88" stroke="#1e1e1e" stroke-width="1" fill="none"></path></g></g><mask></mask></svg>