<svg version="1.1" xmlns="http://www.w3.org/2000/svg" viewBox="0 0 7096.963750839248 3772.5627884972637" width="7096.963750839248" height="3772.5627884972637">
  <!-- svg-source:excalidraw -->
  
  <defs>
    <style class="style-fonts">
      @font-face {
        font-family: "Virgil";
        src: url("https://excalidraw.com/Virgil.woff2");
      }
      @font-face {
        font-family: "Cascadia";
        src: url("https://excalidraw.com/Cascadia.woff2");
      }
    </style>
    
  </defs>
  <g transform="translate(2917.69652861702 10) rotate(0 599.4000244140625 124.95849557751171)"><text x="0" y="0" font-family="Virgil, Segoe UI Emoji" font-size="199.93359292401863px" fill="#1e1e1e" text-anchor="start" style="white-space: pre;" direction="ltr" dominant-baseline="text-before-edge">Log-shipping </text></g><g stroke-linecap="round"><g transform="translate(466.01510914786195 1241.5336164264154) rotate(0 198.43389960123113 186.19607506869943)" fill-rule="evenodd"><path d="M1.74 1.71 C1.86 54.57, 1.06 256.99, 2.27 318.63 C3.49 380.28, 0.75 358.9, 9.03 371.57 C17.32 384.24, 32.94 388.3, 51.99 394.65 C71.04 401, 98.27 406.52, 123.34 409.65 C148.41 412.77, 178.56 413.12, 202.39 413.4 C226.23 413.68, 245.83 413.39, 266.35 411.33 C286.87 409.27, 305.22 407.84, 325.53 401.04 C345.85 394.25, 377.51 384.84, 388.24 370.58 C398.97 356.32, 388.73 369.87, 389.9 315.47 C391.07 261.08, 395.24 96.68, 395.24 44.18 C395.24 -8.31, 399.07 12.01, 389.9 0.49 C380.74 -11.03, 357.45 -18.18, 340.25 -24.93 C323.06 -31.68, 308.07 -37.08, 286.73 -40.01 C265.39 -42.93, 231.82 -42.11, 212.24 -42.47 C192.66 -42.84, 192.49 -43.4, 169.27 -42.23 C146.05 -41.05, 101.1 -42.44, 72.92 -35.44 C44.73 -28.44, 12.7 -6.45, 0.17 -0.21" stroke="none" stroke-width="0" fill="#228be6" fill-rule="evenodd"></path><path d="M1.2 -0.95 C1.35 52.14, -0.07 254.79, 0.77 317.39 C1.61 379.99, -2.84 361.95, 6.23 374.66 C15.31 387.38, 35.21 387.72, 55.23 393.67 C75.25 399.62, 102.2 406.56, 126.38 410.37 C150.55 414.17, 176.78 416.25, 200.27 416.52 C223.77 416.78, 246.33 414.81, 267.37 411.96 C288.4 409.12, 306.4 406.08, 326.5 399.46 C346.61 392.84, 377.31 386.16, 388.01 372.25 C398.71 358.34, 389.38 371.01, 390.71 316.02 C392.04 261.02, 396.23 95.27, 395.97 42.29 C395.71 -10.69, 398.31 9.45, 389.15 -1.87 C379.98 -13.2, 358.12 -19.57, 340.97 -25.69 C323.83 -31.81, 307.48 -35.85, 286.28 -38.61 C265.09 -41.38, 233.45 -41.79, 213.81 -42.27 C194.17 -42.76, 192.25 -42.9, 168.44 -41.52 C144.62 -40.14, 99.08 -41.01, 70.91 -33.98 C42.75 -26.96, 11.31 -5.19, -0.55 0.62 M0.37 1.17 C0.44 54.04, -0.57 253.85, 0.22 315.8 C1.01 377.76, -4.17 359.81, 5.11 372.89 C14.39 385.97, 35.86 388.05, 55.9 394.29 C75.94 400.53, 101.13 406.69, 125.33 410.31 C149.53 413.93, 177.81 415.89, 201.08 416 C224.35 416.12, 244.27 413.31, 264.96 411 C285.65 408.69, 304.97 408.75, 325.24 402.14 C345.51 395.54, 375.62 385.81, 386.57 371.35 C397.53 356.89, 389.25 370.13, 390.96 315.38 C392.66 260.63, 396.81 95.84, 396.81 42.85 C396.8 -10.14, 400.21 9.05, 390.95 -2.56 C381.69 -14.17, 358.76 -20.77, 341.24 -26.82 C323.72 -32.87, 307.05 -36.19, 285.83 -38.84 C264.62 -41.49, 233.37 -41.94, 213.95 -42.72 C194.53 -43.49, 192.85 -45.04, 169.33 -43.48 C145.81 -41.91, 100.78 -40.78, 72.81 -33.32 C44.84 -25.85, 13.96 -4.51, 1.54 1.32" stroke="#364fc7" stroke-width="4" fill="none"></path></g></g><mask></mask><g stroke-linecap="round" transform="translate(464.56083772948114 1193.540327575669) rotate(0 197.14078852015973 53.60157083073682)"><path d="M107.29 6.85 C123.05 3.7, 145.63 1.37, 165.59 0.45 C185.54 -0.47, 206.99 0.49, 227.02 1.33 C247.04 2.17, 267.54 2.99, 285.76 5.47 C303.98 7.95, 321.82 12.35, 336.33 16.2 C350.84 20.05, 363.53 23.65, 372.81 28.58 C382.1 33.51, 388.74 40.29, 392.04 45.79 C395.35 51.29, 395.67 56.42, 392.64 61.57 C389.6 66.72, 383.24 71.72, 373.86 76.7 C364.47 81.69, 350.55 87.24, 336.33 91.48 C322.11 95.71, 306.39 99.49, 288.52 102.14 C270.64 104.79, 249.32 106.61, 229.09 107.36 C208.85 108.11, 187.26 107.76, 167.11 106.64 C146.97 105.52, 126.29 103.16, 108.2 100.64 C90.11 98.12, 73.08 95.44, 58.59 91.54 C44.1 87.65, 30.67 82.24, 21.26 77.28 C11.86 72.32, 5.3 67.14, 2.19 61.77 C-0.92 56.4, -0.63 50.44, 2.6 45.09 C5.83 39.73, 12.57 34.44, 21.57 29.64 C30.58 24.84, 39.53 20.5, 56.64 16.29 C73.74 12.09, 109.76 6.58, 124.2 4.4 C138.63 2.22, 142.12 2.54, 143.25 3.22 M280.23 6.38 C299.19 8.13, 317.54 11.9, 332.42 15.29 C347.29 18.67, 360.01 21.81, 369.46 26.69 C378.91 31.56, 385.22 39.09, 389.11 44.54 C393.01 49.99, 395.28 54.05, 392.83 59.38 C390.39 64.72, 382.97 71.39, 374.43 76.54 C365.9 81.7, 355.31 86.38, 341.6 90.31 C327.9 94.24, 309.9 97.55, 292.19 100.13 C274.48 102.7, 255.13 104.87, 235.35 105.75 C215.58 106.62, 193.7 105.88, 173.55 105.38 C153.41 104.89, 133.08 104.8, 114.48 102.77 C95.88 100.74, 76.89 97.08, 61.93 93.22 C46.96 89.36, 34.25 84.43, 24.69 79.62 C15.12 74.8, 8.26 69.73, 4.53 64.32 C0.8 58.9, 0.03 52.48, 2.32 47.1 C4.61 41.72, 9.92 37.16, 18.26 32.03 C26.6 26.9, 38.39 20.63, 52.36 16.33 C66.32 12.03, 84.11 8.97, 102.05 6.24 C119.99 3.51, 140.16 0.9, 159.99 -0.06 C179.82 -1.02, 200.99 -0.32, 221.01 0.48 C241.03 1.28, 270.66 3.98, 280.11 4.74 C289.56 5.51, 278.83 4.43, 277.7 5.08" stroke="none" stroke-width="0" fill="#ffffff"></path><path d="M140.75 2.85 C158.11 0.28, 181.41 -1.15, 201.98 -0.95 C222.55 -0.74, 244.81 2.13, 264.15 4.08 C283.5 6.03, 302.29 7.49, 318.07 10.76 C333.85 14.03, 347.34 19.22, 358.83 23.71 C370.33 28.19, 381.2 32.29, 387.04 37.66 C392.89 43.03, 394.72 50.4, 393.91 55.93 C393.1 61.47, 389.01 65.82, 382.17 70.89 C375.34 75.96, 365.25 81.82, 352.89 86.38 C340.52 90.94, 324.69 95.18, 307.99 98.24 C291.29 101.3, 272.06 103.28, 252.69 104.73 C233.32 106.18, 211.94 107.2, 191.77 106.96 C171.6 106.72, 150.86 105.17, 131.68 103.28 C112.5 101.39, 92.8 98.87, 76.69 95.6 C60.57 92.34, 46.29 88.06, 34.97 83.69 C23.65 79.32, 14.48 74.53, 8.77 69.38 C3.06 64.23, 0.13 58.28, 0.69 52.8 C1.26 47.33, 5.27 41.71, 12.14 36.54 C19.01 31.36, 29.76 26.44, 41.9 21.75 C54.04 17.06, 64.19 12.04, 84.98 8.37 C105.78 4.71, 148.88 0.88, 166.68 -0.26 C184.48 -1.41, 191.4 0.44, 191.76 1.48 M201.36 -0.45 C220.67 -1.33, 241.42 0.41, 260.56 2.4 C279.71 4.4, 299.86 7.91, 316.23 11.52 C332.6 15.13, 347.26 19.65, 358.78 24.08 C370.31 28.52, 379.37 33.19, 385.38 38.13 C391.38 43.07, 395.34 48.23, 394.82 53.74 C394.29 59.24, 388.93 65.77, 382.24 71.15 C375.56 76.54, 366.66 81.79, 354.71 86.03 C342.76 90.27, 327.25 93.46, 310.55 96.58 C293.86 99.7, 274.3 102.78, 254.54 104.76 C234.78 106.74, 212.47 108.32, 191.97 108.43 C171.47 108.54, 150.33 107.23, 131.57 105.43 C112.81 103.63, 95.37 101.38, 79.39 97.64 C63.41 93.9, 47.28 87.87, 35.7 83 C24.12 78.13, 15.91 73.47, 9.91 68.44 C3.91 63.41, -0.69 58.09, -0.33 52.81 C0.03 47.54, 5.34 42.14, 12.04 36.78 C18.75 31.42, 28 25.41, 39.91 20.67 C51.83 15.94, 66.98 11.45, 83.55 8.38 C100.13 5.3, 119.82 3.46, 139.36 2.21 C158.9 0.96, 190.43 0.98, 200.78 0.86 C211.13 0.73, 201.29 0.85, 201.47 1.45" stroke="#364fc7" stroke-width="4" fill="none"></path></g><g transform="translate(305.0833571231342 1686.303513871455) rotate(0 364.9952965084367 51.223331094923196)"><text x="364.995296508437" y="0" font-family="Virgil, Segoe UI Emoji" font-size="81.95732975187639px" fill="#000000" text-anchor="middle" style="white-space: pre;" direction="ltr" dominant-baseline="text-before-edge">Primary Database</text></g><g stroke-linecap="round"><g transform="translate(3514.3416290622736 1259.298636243926) rotate(0 189.64532380849596 178.0748219046418)" fill-rule="evenodd"><path d="M-2.43 0.05 C-3.15 50.51, -3.89 241.6, -2.23 300.74 C-0.56 359.88, -1.49 342.13, 7.57 354.87 C16.63 367.61, 33.65 370.75, 52.15 377.17 C70.65 383.58, 95.06 390.15, 118.56 393.34 C142.06 396.54, 170.83 396.52, 193.17 396.31 C215.51 396.1, 232.66 394.13, 252.58 392.07 C272.5 390.01, 293.08 389.84, 312.7 383.95 C332.31 378.05, 360.09 370.27, 370.25 356.7 C380.41 343.12, 372.3 355.32, 373.65 302.49 C375.01 249.66, 378.85 90.34, 378.37 39.71 C377.88 -10.92, 379.42 9.29, 370.74 -1.3 C362.07 -11.89, 342.42 -17.65, 326.32 -23.84 C310.22 -30.03, 294.38 -35.61, 274.13 -38.44 C253.88 -41.27, 224.02 -40.81, 204.82 -40.81 C185.63 -40.82, 181.94 -40.21, 158.97 -38.47 C136 -36.74, 93.16 -37.17, 66.98 -30.4 C40.81 -23.64, 13.02 -2.62, 1.92 2.1" stroke="none" stroke-width="0" fill="#40c057" fill-rule="evenodd"></path><path d="M0.81 -0.93 C1.06 49.13, 0.04 241.64, 0.81 301.46 C1.58 361.28, -3.27 345.26, 5.45 357.99 C14.18 370.71, 34.15 372.17, 53.16 377.8 C72.18 383.43, 96.24 388.39, 119.53 391.76 C142.83 395.12, 170.63 397.84, 192.94 397.98 C215.25 398.12, 233.31 395.27, 253.39 392.61 C273.47 389.96, 294.07 388.43, 313.42 382.05 C332.77 375.67, 359.33 367.72, 369.49 354.33 C379.65 340.95, 372.97 353.93, 374.37 301.73 C375.78 249.52, 378.26 91.58, 377.92 41.11 C377.58 -9.37, 381.05 9.61, 372.31 -1.1 C363.57 -11.81, 342.19 -17.15, 325.49 -23.13 C308.79 -29.11, 292.36 -34.18, 272.13 -36.98 C251.9 -39.79, 222.63 -39.55, 204.1 -39.98 C185.58 -40.41, 183.42 -40.98, 160.98 -39.58 C138.55 -38.18, 96.17 -38.32, 69.48 -31.59 C42.79 -24.85, 12.25 -4.61, 0.86 0.84 M-0.23 1.2 C0 51.91, -1.04 243.38, 0.29 302.55 C1.61 361.71, -0.61 343.99, 7.74 356.17 C16.08 368.35, 31.4 369.74, 50.36 375.63 C69.32 381.52, 98.05 387.88, 121.48 391.52 C144.91 395.15, 168.92 396.89, 190.93 397.42 C212.93 397.96, 233.19 397.43, 253.52 394.74 C273.85 392.05, 293.33 387.69, 312.91 381.29 C332.5 374.89, 360.66 369.74, 371.03 356.35 C381.41 342.96, 373.94 353.35, 375.18 300.97 C376.42 248.59, 378.63 92.45, 378.49 42.05 C378.36 -8.34, 383.19 9.52, 374.37 -1.41 C365.55 -12.34, 342.21 -17.53, 325.58 -23.5 C308.95 -29.48, 294.81 -34.47, 274.57 -37.26 C254.33 -40.04, 222.92 -39.5, 204.14 -40.21 C185.36 -40.92, 184.48 -42.52, 161.9 -41.51 C139.32 -40.49, 95.62 -41.3, 68.64 -34.11 C41.66 -26.92, 11.41 -3.75, 0.02 1.65" stroke="#2b8a3e" stroke-width="4" fill="none"></path></g></g><mask></mask><g stroke-linecap="round" transform="translate(3512.9519596336577 1213.4373166500154) rotate(0 188.38335366925276 51.22046914203929)"><path d="M161.51 0.28 C180.17 -1.3, 203.27 0.57, 223.26 1.6 C243.26 2.62, 263.67 3.7, 281.48 6.44 C299.28 9.17, 316.53 13.89, 330.1 18.01 C343.67 22.14, 355.13 26.03, 362.91 31.18 C370.69 36.33, 375.47 43.31, 376.76 48.89 C378.04 54.47, 376 59.63, 370.63 64.67 C365.26 69.71, 356.29 74.5, 344.53 79.13 C332.77 83.76, 316.35 88.82, 300.07 92.45 C283.78 96.08, 266.07 99.1, 246.83 100.9 C227.58 102.71, 205.17 103.55, 184.59 103.29 C164.01 103.04, 142.57 101.56, 123.35 99.36 C104.13 97.17, 85.06 93.67, 69.28 90.14 C53.51 86.61, 39.56 82.9, 28.7 78.19 C17.85 73.48, 8.84 67.32, 4.16 61.86 C-0.52 56.41, -1.67 50.88, 0.6 45.45 C2.87 40.02, 9.07 34.21, 17.8 29.28 C26.53 24.35, 39 19.75, 53 15.88 C66.99 12.01, 82.46 8.58, 101.78 6.08 C121.1 3.57, 156.45 1.68, 168.94 0.87 C181.43 0.06, 176.49 0.5, 176.73 1.2 M267.78 6.16 C286.75 7.96, 305.26 11.76, 319.96 15.23 C334.66 18.7, 347.09 21.97, 355.99 26.96 C364.88 31.94, 370.42 39.6, 373.33 45.12 C376.25 50.63, 377.26 54.76, 373.47 60.06 C369.68 65.36, 360.67 71.96, 350.6 76.92 C340.53 81.89, 328.22 86.3, 313.05 89.85 C297.88 93.41, 278.36 96.24, 259.55 98.24 C240.75 100.25, 220.41 101.74, 200.21 101.89 C180.02 102.04, 158.01 100.47, 138.37 99.16 C118.73 97.85, 99.39 96.88, 82.37 94.04 C65.36 91.21, 48.56 86.72, 36.29 82.17 C24.03 77.62, 14.66 72.04, 8.76 66.76 C2.86 61.49, 0.28 56.07, 0.9 50.53 C1.51 44.99, 5.57 38.61, 12.45 33.51 C19.33 28.4, 29.51 24.33, 42.16 19.91 C54.81 15.49, 70.91 10.16, 88.36 6.97 C105.8 3.79, 126.75 2.08, 146.81 0.79 C166.87 -0.51, 188.54 -1.46, 208.72 -0.78 C228.9 -0.1, 258.32 3.82, 267.88 4.86 C277.44 5.9, 267.56 4.84, 266.08 5.45" stroke="none" stroke-width="0" fill="#ffffff"></path><path d="M101.44 5.49 C116.9 2.23, 138.55 1.89, 158.73 0.97 C178.91 0.06, 202.33 -1.07, 222.51 -0.01 C242.7 1.04, 262.27 4.59, 279.84 7.31 C297.41 10.03, 314.32 12.31, 327.92 16.3 C341.52 20.3, 353.45 26.02, 361.43 31.3 C369.41 36.59, 374.33 42.57, 375.82 48.04 C377.3 53.51, 375.48 58.87, 370.34 64.13 C365.2 69.38, 356.19 75.04, 344.95 79.56 C333.72 84.07, 319.21 87.92, 302.91 91.23 C286.61 94.54, 266.56 97.58, 247.16 99.42 C227.76 101.25, 206.75 102.14, 186.51 102.25 C166.28 102.37, 144.91 101.82, 125.72 100.11 C106.54 98.39, 87.36 95.37, 71.42 91.95 C55.48 88.54, 40.96 84.27, 30.08 79.62 C19.2 74.96, 11.12 69.74, 6.12 64.03 C1.11 58.32, -1.76 51.17, 0.03 45.35 C1.83 39.54, 8.4 33.96, 16.86 29.14 C25.32 24.33, 35.92 20.45, 50.77 16.45 C65.62 12.44, 95.33 7.08, 105.94 5.11 C116.55 3.14, 112.9 3.84, 114.43 4.65 M159.87 1.27 C178.74 -0.05, 201.69 1.06, 221.67 1.95 C241.64 2.84, 261.81 4.23, 279.72 6.59 C297.64 8.95, 315.66 12, 329.14 16.11 C342.63 20.21, 352.74 25.98, 360.66 31.24 C368.57 36.51, 374.92 42.36, 376.65 47.72 C378.38 53.09, 376.33 58.11, 371.04 63.43 C365.74 68.75, 356.59 74.67, 344.89 79.64 C333.19 84.62, 317.28 89.7, 300.85 93.27 C284.41 96.84, 265.2 99.3, 246.26 101.05 C227.32 102.79, 207.37 104.2, 187.2 103.73 C167.03 103.25, 144.4 100.39, 125.23 98.19 C106.07 95.98, 88.25 93.71, 72.22 90.5 C56.18 87.29, 40 83.38, 29.03 78.94 C18.05 74.51, 11.08 69.42, 6.38 63.89 C1.69 58.36, -0.75 51.61, 0.85 45.76 C2.46 39.91, 7.68 33.76, 16.02 28.8 C24.37 23.83, 36.81 19.63, 50.91 15.95 C65.02 12.28, 82.41 9.22, 100.65 6.72 C118.88 4.22, 150.16 1.97, 160.32 0.96 C170.48 -0.04, 161.06 -0.17, 161.6 0.69" stroke="#2b8a3e" stroke-width="4" fill="none"></path></g><g transform="translate(3400.008733806495 1694.2891971133067) rotate(0 345.8554153605419 46.51304539901321)"><text x="345.8554153605415" y="0" font-family="Virgil, Segoe UI Emoji" font-size="74.42087263842072px" fill="#000000" text-anchor="middle" style="white-space: pre;" direction="ltr" dominant-baseline="text-before-edge">Standby Database</text></g><g stroke-linecap="round"><g transform="translate(601.4279905752082 715.5736108183919) rotate(0 -2.1917318519081164 192.99987968048663)"><path d="M0.31 0.2 C-0.37 64.44, -3.64 321.39, -4.38 385.74 M0.08 0.02 C-0.62 64.43, -3.97 321.68, -4.7 385.98" stroke="#1e1e1e" stroke-width="4" fill="none"></path></g><g transform="translate(601.4279905752082 715.5736108183919) rotate(0 -2.1917318519081164 192.99987968048663)"><path d="M-14.24 357.44 C-13.13 363.63, -10.04 368.65, -4.88 386.48 M-14.59 357.52 C-12.24 364.26, -10.14 370.93, -4.76 386.2" stroke="#1e1e1e" stroke-width="4" fill="none"></path></g><g transform="translate(601.4279905752082 715.5736108183919) rotate(0 -2.1917318519081164 192.99987968048663)"><path d="M6.28 357.69 C3.22 363.89, 2.14 368.86, -4.88 386.48 M5.93 357.77 C3.5 364.43, 0.82 371.04, -4.76 386.2" stroke="#1e1e1e" stroke-width="4" fill="none"></path></g></g><mask></mask><g stroke-linecap="round"><g transform="translate(703.620472624294 1097.3760784740007) rotate(0 2.1284944619910675 -191.60193409757812)"><path d="M-0.12 -0.32 C0.56 -64.18, 3.69 -319.14, 4.38 -382.97 M0.4 0.21 C1.02 -63.76, 3.48 -319.54, 4.19 -383.41" stroke="#1e1e1e" stroke-width="4" fill="none"></path></g><g transform="translate(703.620472624294 1097.3760784740007) rotate(0 2.1284944619910675 -191.60193409757812)"><path d="M13.55 -354.89 C10.62 -366.85, 6.02 -377.08, 3.78 -383.84 M14.28 -355.14 C11.49 -362.39, 8.93 -369.55, 3.94 -383.45" stroke="#1e1e1e" stroke-width="4" fill="none"></path></g><g transform="translate(703.620472624294 1097.3760784740007) rotate(0 2.1284944619910675 -191.60193409757812)"><path d="M-6.97 -355.1 C-1.76 -366.96, 1.78 -377.1, 3.78 -383.84 M-6.24 -355.35 C-3.73 -362.52, -0.98 -369.62, 3.94 -383.45" stroke="#1e1e1e" stroke-width="4" fill="none"></path></g></g><mask></mask><g transform="translate(385.63124508791225 461.9964425557264) rotate(0 291.7078930703774 47.13836003428696)"><text x="0" y="0" font-family="Virgil, Segoe UI Emoji" font-size="75.4213760548587px" fill="#1e1e1e" text-anchor="start" style="white-space: pre;" direction="ltr" dominant-baseline="text-before-edge">READ / WRITE</text></g><g stroke-opacity="0" fill-opacity="0" stroke-linecap="round" transform="translate(455.1961614700849 2019.765815656312) rotate(0 223.36650354941048 223.36650354941048)"><path d="M312.25 18.69 C330.5 22.9, 347 37.16, 362.12 49.12 C377.25 61.07, 391.45 75.01, 403.01 90.41 C414.57 105.81, 424.29 123.66, 431.46 141.51 C438.63 159.37, 443.93 178.41, 446.04 197.52 C448.15 216.63, 447.01 237.01, 444.11 256.17 C441.21 275.33, 436.18 294.63, 428.63 312.48 C421.07 330.33, 410.78 348.05, 398.78 363.27 C386.78 378.49, 372.16 392.29, 356.64 403.78 C341.13 415.27, 323.58 425.14, 305.7 432.21 C287.81 439.28, 268.73 444.35, 249.33 446.19 C229.92 448.03, 208.49 446.42, 189.28 443.25 C170.08 440.09, 151.72 434.67, 134.09 427.2 C116.46 419.72, 98.69 410.26, 83.48 398.41 C68.26 386.56, 54.13 371.75, 42.8 356.09 C31.47 340.42, 22.36 322.31, 15.49 304.41 C8.62 286.51, 3.78 267.86, 1.57 248.68 C-0.65 229.51, -0.6 208.45, 2.19 189.37 C4.97 170.28, 10.43 151.72, 18.26 134.18 C26.09 116.63, 36.96 99.21, 49.16 84.08 C61.36 68.96, 76.03 54.78, 91.47 43.4 C106.91 32.02, 124.1 22.96, 141.81 15.83 C159.52 8.7, 178.59 2.81, 197.73 0.62 C216.87 -1.56, 236.47 -0.8, 256.64 2.72 C276.8 6.24, 307.83 17.5, 318.7 21.76 C329.57 26.02, 323.46 25.13, 321.85 28.27 M314.02 19.99 C332.45 23.62, 347.91 35.88, 363.01 47.57 C378.1 59.25, 393.25 74.35, 404.58 90.12 C415.91 105.88, 423.99 123.97, 430.98 142.16 C437.98 160.35, 444.33 180.23, 446.53 199.24 C448.74 218.25, 447.43 237.5, 444.21 256.23 C441 274.95, 435.02 293.84, 427.22 311.58 C419.42 329.31, 409.33 347.25, 397.42 362.66 C385.5 378.06, 371.05 392.52, 355.71 404.03 C340.38 415.54, 323.12 424.99, 305.43 431.72 C287.73 438.45, 268.62 442.26, 249.53 444.42 C230.44 446.59, 210.4 447.43, 190.89 444.68 C171.37 441.94, 150.36 435.63, 132.47 427.97 C114.58 420.32, 98.14 410.68, 83.54 398.73 C68.94 386.79, 56.3 371.96, 44.88 356.31 C33.46 340.67, 22.07 322.9, 15 304.89 C7.93 286.88, 4.6 267.29, 2.46 248.26 C0.31 229.23, -0.74 209.62, 2.15 190.69 C5.03 171.75, 12.08 152.32, 19.75 134.62 C27.42 116.93, 36.11 99.52, 48.17 84.5 C60.24 69.48, 76.54 55.86, 92.13 44.49 C107.71 33.12, 124.21 23.7, 141.7 16.29 C159.19 8.87, 177.81 2.04, 197.04 -0.01 C216.27 -2.06, 237.55 0.83, 257.07 3.97 C276.6 7.11, 304.98 15.76, 314.19 18.85 C323.41 21.94, 314.05 19.2, 312.34 22.5" stroke="#1e1e1e" stroke-width="1" fill="none"></path></g><g transform="translate(302.68046945129026 2298.742135590568) rotate(0 368.7536252138734 95.65417290198275)"><text x="368.7536252138733" y="0" font-family="Virgil, Segoe UI Emoji" font-size="76.5233383215866px" fill="#1e1e1e" text-anchor="middle" style="white-space: pre;" direction="ltr" dominant-baseline="text-before-edge">pg_wal</text><text x="368.7536252138733" y="95.65417290198326" font-family="Virgil, Segoe UI Emoji" font-size="76.5233383215866px" fill="#1e1e1e" text-anchor="middle" style="white-space: pre;" direction="ltr" dominant-baseline="text-before-edge">(WAL segment files)</text></g><g stroke-linecap="round"><g transform="translate(568.9740072728127 2266.599373296267) rotate(0 103.19949290757268 -47.61766196454664)"><path d="M-0.85 -0.5 C3.25 -13.93, 13.32 -65.78, 25.59 -81.39 C37.86 -97, 42.52 -92.32, 72.78 -94.17 C103.05 -96.01, 184.77 -92.84, 207.19 -92.45 M0.91 -1.8 C4.77 -15.01, 12.79 -64.98, 24.68 -80.16 C36.58 -95.34, 41.84 -91.04, 72.27 -92.89 C102.7 -94.73, 184.4 -91.55, 207.25 -91.23" stroke="#1e1e1e" stroke-width="4" fill="none"></path></g></g><mask></mask><g stroke-linecap="round"><g transform="translate(772.6852161267416 2171.6598059614844) rotate(0 -91.00368228304978 19.19220892285375)"><path d="M0.08 -0.59 C4.87 1.55, 26.83 -2.17, 27.91 12.32 C28.99 26.8, 15.5 71.32, 6.55 86.34 C-2.39 101.35, 4.71 99.88, -25.78 102.39 C-56.27 104.9, -146.32 105.23, -176.4 101.38 C-206.48 97.53, -201 102.6, -206.28 79.3 C-211.56 56, -210.25 -14.88, -208.08 -38.42 C-205.91 -61.97, -204.77 -57.99, -193.25 -61.99 C-181.73 -65.99, -151.15 -66.74, -138.96 -62.42 C-126.76 -58.11, -139.26 -40.05, -120.09 -36.1 C-100.92 -32.15, -43.5 -40.23, -23.95 -38.73 C-4.4 -37.23, -6.59 -33.41, -2.78 -27.09 C1.02 -20.76, -1.63 -5.12, -1.09 -0.77 M-1.34 1.72 C3.41 4.1, 26.06 -0.53, 27.21 13.81 C28.37 28.16, 14.42 73.36, 5.6 87.77 C-3.21 102.18, 4.38 97.97, -25.67 100.29 C-55.73 102.61, -144.81 105.3, -174.72 101.69 C-204.64 98.07, -199.68 102.08, -205.15 78.58 C-210.63 55.09, -209.43 -15.87, -207.55 -39.29 C-205.67 -62.71, -205.09 -57.93, -193.86 -61.94 C-182.63 -65.96, -152.09 -67.69, -140.18 -63.36 C-128.27 -59.04, -141.3 -40.16, -122.4 -35.97 C-103.49 -31.79, -46.95 -39.67, -26.74 -38.26 C-6.54 -36.85, -5.38 -34.15, -1.16 -27.5 C3.06 -20.85, -1.63 -2.63, -1.44 1.66" stroke="#1e1e1e" stroke-width="4" fill="none"></path></g></g><mask></mask><g stroke-opacity="0" fill-opacity="0" stroke-linecap="round" transform="translate(3523.0115928906926 2073.5736812640826) rotate(0 223.36650354941048 223.36650354941048)"><path d="M191 1.65 C208.52 -4.65, 229.34 -1.31, 248.45 0.97 C267.57 3.25, 287.6 8.09, 305.69 15.33 C323.77 22.57, 341.43 32.82, 356.94 44.43 C372.45 56.04, 386.76 69.85, 398.75 84.98 C410.74 100.1, 421.14 117.47, 428.88 135.16 C436.62 152.86, 442.59 172.41, 445.19 191.15 C447.79 209.89, 446.81 228.74, 444.48 247.59 C442.16 266.44, 438.26 286.1, 431.24 304.26 C424.21 322.42, 413.92 340.91, 402.32 356.57 C390.71 372.22, 376.57 386.35, 361.6 398.19 C346.64 410.03, 330.03 419.87, 312.53 427.6 C295.04 435.32, 275.72 441.72, 256.61 444.55 C237.49 447.38, 217.08 446.77, 197.84 444.57 C178.61 442.37, 159.01 438.26, 141.2 431.32 C123.39 424.38, 106.31 414.44, 91 402.93 C75.7 391.41, 61.43 377.21, 49.36 362.21 C37.3 347.2, 26.54 330.63, 18.62 312.88 C10.71 295.12, 4.73 274.75, 1.86 255.66 C-1 236.58, -0.85 217.33, 1.43 198.38 C3.72 179.43, 8.63 159.94, 15.58 141.99 C22.52 124.03, 31.68 106.35, 43.11 90.63 C54.55 74.91, 68.85 59.82, 84.18 47.69 C99.5 35.56, 115.13 25.52, 135.06 17.85 C155 10.19, 190.17 3.9, 203.79 1.72 C217.41 -0.47, 216.74 1.03, 216.8 4.76 M170.02 7.48 C186.95 -0.61, 207.81 -0.53, 226.75 -0.57 C245.69 -0.6, 265.18 1.9, 283.63 7.25 C302.09 12.6, 320.83 21.3, 337.48 31.53 C354.13 41.77, 369.92 54.77, 383.52 68.68 C397.12 82.59, 409.46 98.46, 419.08 114.99 C428.71 131.53, 436.52 149.2, 441.29 167.91 C446.05 186.61, 448.43 207.81, 447.68 227.22 C446.93 246.63, 442.3 265.79, 436.79 284.38 C431.29 302.98, 424.09 322.18, 414.66 338.8 C405.23 355.42, 394.05 370.83, 380.23 384.12 C366.41 397.41, 348.6 409.23, 331.73 418.54 C314.85 427.86, 297.66 435.2, 278.97 440.02 C260.29 444.84, 238.88 447.66, 219.61 447.48 C200.34 447.3, 181.92 444.26, 163.34 438.95 C144.75 433.64, 124.61 425.47, 108.11 415.62 C91.6 405.77, 77.66 393.6, 64.32 379.84 C50.97 366.07, 37.88 350.23, 28.04 333.01 C18.2 315.79, 9.91 295.1, 5.28 276.51 C0.66 257.91, -0.49 240.45, 0.28 221.44 C1.04 202.42, 4.42 181.27, 9.87 162.44 C15.31 143.62, 23.26 125.12, 32.93 108.47 C42.61 91.82, 54.51 75.86, 67.91 62.52 C81.31 49.18, 96.58 37.91, 113.36 28.44 C130.14 18.97, 159.39 8.72, 168.6 5.73 C177.8 2.74, 167.74 6.62, 168.57 10.49" stroke="#1e1e1e" stroke-width="1" fill="none"></path></g><g transform="translate(3368.797221231016 2350.851321557464) rotate(0 368.7536252138725 95.65417290198275)"><text x="368.7536252138733" y="0" font-family="Virgil, Segoe UI Emoji" font-size="76.5233383215866px" fill="#1e1e1e" text-anchor="middle" style="white-space: pre;" direction="ltr" dominant-baseline="text-before-edge">pg_wal</text><text x="368.7536252138733" y="95.65417290198326" font-family="Virgil, Segoe UI Emoji" font-size="76.5233383215866px" fill="#1e1e1e" text-anchor="middle" style="white-space: pre;" direction="ltr" dominant-baseline="text-before-edge">(WAL segment files)</text></g><g stroke-linecap="round"><g transform="translate(3635.090759052535 2318.708559263163) rotate(0 103.5924178207406 -47.740047079065334)"><path d="M-0.27 0.86 C3.89 -12.67, 12.54 -65.24, 24.54 -80.96 C36.55 -96.68, 41.29 -91.67, 71.75 -93.47 C102.21 -95.27, 184.56 -92.01, 207.32 -91.75 M1.8 0.26 C6.34 -13.1, 15.26 -63.55, 26.74 -79.51 C38.23 -95.46, 40.58 -93.1, 70.69 -95.49 C100.81 -97.87, 184.69 -94.55, 207.45 -93.83" stroke="#1e1e1e" stroke-width="4" fill="none"></path></g></g><mask></mask><g stroke-linecap="round"><g transform="translate(3838.8019679064637 2223.7689919283803) rotate(0 -91.91380211025717 19.124140193753192)"><path d="M-0.97 -0.16 C3.55 1.87, 25.6 -1.52, 26.87 13.01 C28.15 27.54, 15.29 72.16, 6.69 87.03 C-1.91 101.91, 5.48 99.72, -24.73 102.27 C-54.94 104.83, -144.59 106.12, -174.57 102.37 C-204.55 98.63, -199.24 103.57, -204.61 79.79 C-209.99 56, -208.38 -16.58, -206.82 -40.32 C-205.25 -64.07, -206.21 -58.75, -195.22 -62.7 C-184.24 -66.66, -153.32 -68.11, -140.9 -64.03 C-128.49 -59.96, -140.07 -42.64, -120.73 -38.25 C-101.4 -33.86, -44.65 -39.59, -24.91 -37.7 C-5.17 -35.81, -6.5 -33.14, -2.29 -26.92 C1.91 -20.7, 0.1 -4.78, 0.34 -0.37 M0.72 -1.29 C5.06 0.31, 24.79 -3.19, 25.64 11.22 C26.49 25.62, 14.09 70.36, 5.8 85.17 C-2.48 99.98, 6.16 97.1, -24.07 100.1 C-54.3 103.11, -145.23 106.67, -175.59 103.21 C-205.96 99.74, -200.66 102.95, -206.28 79.33 C-211.89 55.71, -211.47 -14.8, -209.29 -38.53 C-207.11 -62.25, -204.85 -59.09, -193.21 -63.03 C-181.58 -66.97, -151.74 -66.74, -139.49 -62.16 C-127.24 -57.59, -138.87 -39.83, -119.72 -35.59 C-100.56 -31.34, -44.44 -38.08, -24.56 -36.69 C-4.67 -35.3, -4.63 -33.13, -0.41 -27.24 C3.8 -21.36, 0.4 -5.78, 0.74 -1.38" stroke="#1e1e1e" stroke-width="4" fill="none"></path></g></g><mask></mask><g stroke-linecap="round"><g transform="translate(3689.090276712388 1120.8686626189883) rotate(0 2.025197449445841 -191.62426632720235)"><path d="M-0.15 0.17 C0.6 -63.66, 3.43 -319.11, 4.2 -382.98 M0.36 -0.03 C1.08 -63.93, 3.25 -319.5, 3.92 -383.42" stroke="#1e1e1e" stroke-width="4" fill="none"></path></g><g transform="translate(3689.090276712388 1120.8686626189883) rotate(0 2.025197449445841 -191.62426632720235)"><path d="M14.23 -355.24 C12.2 -360.94, 9.92 -367.1, 4.34 -382.85 M13.61 -355.12 C9.64 -366.45, 6.11 -377.62, 3.93 -383.4" stroke="#1e1e1e" stroke-width="4" fill="none"></path></g><g transform="translate(3689.090276712388 1120.8686626189883) rotate(0 2.025197449445841 -191.62426632720235)"><path d="M-6.29 -355.44 C-3.83 -361.06, -1.62 -367.17, 4.34 -382.85 M-6.91 -355.32 C-2.83 -366.52, 1.7 -377.61, 3.93 -383.4" stroke="#1e1e1e" stroke-width="4" fill="none"></path></g></g><mask></mask><g transform="translate(3600.422800694152 485.48902670070675) rotate(0 105.13553019126448 47.13836003428696)"><text x="0" y="0" font-family="Virgil, Segoe UI Emoji" font-size="75.4213760548587px" fill="#1e1e1e" text-anchor="start" style="white-space: pre;" direction="ltr" dominant-baseline="text-before-edge">READ</text></g><g stroke-linecap="round"><g transform="translate(662.2508646339666 1801.6601413319513) rotate(0 2.0866692485815292 127.5886079610591)"><path d="M-0.29 0.27 C0.35 42.78, 3.09 212.59, 3.86 255.05 M0.14 0.12 C0.88 42.55, 3.78 212.21, 4.47 254.62" stroke="#1e1e1e" stroke-width="4" fill="none"></path></g><g transform="translate(662.2508646339666 1801.6601413319513) rotate(0 2.0866692485815292 127.5886079610591)"><path d="M-5.76 226.18 C-2.5 235.71, 0.84 243.94, 3.95 255.19 M-6.02 226.75 C-3.59 233.5, -1.07 240.39, 4.37 254.6" stroke="#1e1e1e" stroke-width="4" fill="none"></path></g><g transform="translate(662.2508646339666 1801.6601413319513) rotate(0 2.0866692485815292 127.5886079610591)"><path d="M14.76 225.84 C11.72 235.42, 8.76 243.75, 3.95 255.19 M14.49 226.41 C11.78 233.26, 9.16 240.23, 4.37 254.6" stroke="#1e1e1e" stroke-width="4" fill="none"></path></g></g><mask></mask><g stroke-linecap="round"><g transform="translate(3701.0292341660715 2089.5863404603006) rotate(0 0.023724879749352112 -131.17294211621265)"><path d="M-0.21 0.24 C-0.13 -43.5, 0.19 -218.36, 0.24 -262.19 M0.23 0.1 C0.32 -43.74, 0.18 -218.82, 0.12 -262.58" stroke="#1e1e1e" stroke-width="4" fill="none"></path></g><g transform="translate(3701.0292341660715 2089.5863404603006) rotate(0 0.023724879749352112 -131.17294211621265)"><path d="M10.86 -233.95 C8.69 -240.21, 5.57 -245.65, -0.16 -262.72 M10.41 -234.51 C6.94 -243.55, 3.74 -252.24, 0.09 -262.42" stroke="#1e1e1e" stroke-width="4" fill="none"></path></g><g transform="translate(3701.0292341660715 2089.5863404603006) rotate(0 0.023724879749352112 -131.17294211621265)"><path d="M-9.66 -233.93 C-7.55 -240.15, -6.39 -245.6, -0.16 -262.72 M-10.11 -234.49 C-7.09 -243.56, -3.79 -252.26, 0.09 -262.42" stroke="#1e1e1e" stroke-width="4" fill="none"></path></g></g><mask></mask><g transform="translate(3943.0910829907843 1182.4914122329428) rotate(0 210.50887967941708 44.59034057297322)"><text x="0" y="0" font-family="Virgil, Segoe UI Emoji" font-size="71.34454491675825px" fill="#f08c00" text-anchor="start" style="white-space: pre;" direction="ltr" dominant-baseline="text-before-edge">hot standby</text></g><g stroke-linecap="round"><g transform="translate(4090.876211746934 1284.4121906854562) rotate(0 -62.160586244088336 38.89514870833591)"><path d="M0.47 -2.37 C-20.7 10.59, -103.36 66.1, -124.79 80.16" stroke="#f08c00" stroke-width="4.5" fill="none" stroke-dasharray="1.5 10"></path></g><g transform="translate(4090.876211746934 1284.4121906854562) rotate(0 -62.160586244088336 38.89514870833591)"><path d="M-110.35 59.75 C-115.28 64.24, -119.39 77.51, -122.86 80.16" stroke="#f08c00" stroke-width="4.5" fill="none" stroke-dasharray="1.5 8"></path></g><g transform="translate(4090.876211746934 1284.4121906854562) rotate(0 -62.160586244088336 38.89514870833591)"><path d="M-99 76.85 C-108.52 74.9, -116.93 81.7, -122.86 80.16" stroke="#f08c00" stroke-width="4.5" fill="none" stroke-dasharray="1.5 8"></path></g></g><mask></mask><g stroke-opacity="0" fill-opacity="0" stroke-linecap="round" transform="translate(845.8535761800558 1933.0634961938413) rotate(0 122.00011581782564 122.00011581782564)"><path d="M115.67 1.05 C128.56 -1.53, 143.55 2.18, 156.87 5.92 C170.19 9.66, 184.36 15.3, 195.58 23.5 C206.8 31.69, 216.54 43.14, 224.17 55.1 C231.81 67.06, 238.18 81.7, 241.38 95.25 C244.59 108.81, 245.16 122.65, 243.41 136.42 C241.65 150.2, 237.17 165.52, 230.83 177.93 C224.5 190.33, 215.45 201.35, 205.37 210.84 C195.3 220.34, 183.08 229.5, 170.36 234.92 C157.64 240.35, 142.98 242.61, 129.06 243.38 C115.15 244.16, 100.15 243.57, 86.87 239.57 C73.58 235.58, 60.44 228.07, 49.36 219.41 C38.28 210.75, 28.24 199.22, 20.39 187.62 C12.54 176.02, 5.33 163.03, 2.24 149.8 C-0.85 136.57, 0.01 121.92, 1.85 108.23 C3.7 94.54, 7.21 80.19, 13.31 67.65 C19.41 55.1, 28.38 42.74, 38.46 32.96 C48.54 23.17, 59.77 14.45, 73.8 8.93 C87.84 3.41, 113.49 1.04, 122.65 -0.16 C131.82 -1.35, 128.89 -0.2, 128.8 1.77 M142.4 1.11 C155.95 1.27, 170.53 8.91, 182.74 15.8 C194.96 22.68, 206.77 31.96, 215.72 42.42 C224.67 52.88, 231.79 65.24, 236.43 78.56 C241.06 91.88, 243.43 108.44, 243.54 122.33 C243.65 136.21, 241.68 148.75, 237.11 161.87 C232.53 174.99, 224.82 190.02, 216.12 201.06 C207.41 212.1, 196.87 221.43, 184.88 228.1 C172.89 234.78, 158.28 238.54, 144.18 241.11 C130.08 243.69, 114.01 245.83, 100.29 243.55 C86.56 241.28, 73.94 234.47, 61.83 227.47 C49.73 220.46, 36.69 211.96, 27.68 201.53 C18.67 191.09, 12.53 178, 7.78 164.86 C3.04 151.71, -0.7 136.68, -0.77 122.66 C-0.85 108.64, 2.53 94.03, 7.34 80.74 C12.15 67.45, 19.2 53.46, 28.07 42.9 C36.94 32.34, 48.75 24.14, 60.55 17.39 C72.35 10.64, 85.29 5.02, 98.88 2.39 C112.46 -0.23, 134.75 1.29, 142.05 1.65 C149.35 2, 142.83 2.5, 142.67 4.5" stroke="#1e1e1e" stroke-width="1" fill="none"></path></g><g stroke-linecap="round"><g transform="translate(922.892092236827 1976.5141079529858) rotate(0 40.18051369252589 49.023266398600754)"><path d="M0 0 C1.06 27.07, 0.42 54.27, 0 98.1 M0 0 C-0.32 23.36, 0.34 47.35, 0 98.1 M0 98.1 C31.2 99.73, 62.29 97.81, 80.08 98.1 M0 98.1 C27.7 98.06, 57.12 98.34, 80.08 98.1 M80.08 98.1 C77.8 78.41, 81.6 59.86, 80.08 28.03 M80.08 98.1 C79.53 76.03, 78.63 54.79, 80.08 28.03 M80.08 28.03 C71.95 26.82, 66.09 26.99, 54.31 28.03 M80.08 28.03 C71.34 27.89, 62.39 27.65, 54.31 28.03 M54.31 28.03 C56.19 19.87, 53.2 11.41, 54.31 1 M54.31 28.03 C54.15 16.84, 53.13 7.62, 54.31 1 M54.31 1 C62.37 9.46, 69.88 16.39, 80.08 28.03 M54.31 1 C61.65 7.66, 69 16.52, 80.08 28.03 M80.08 28.03 C73.68 22.55, 68.01 16, 53.39 0 M80.08 28.03 C71.9 19.37, 64.73 11.22, 53.39 0 M53.39 0 C34.83 -0.07, 15.7 -1.07, 0 0 M53.39 0 C40.61 -0.55, 27.84 -1.29, 0 0" stroke="#1e1e1e" stroke-width="4" fill="none"></path></g></g><mask></mask><g transform="translate(834.0699332920303 2083.660928012163) rotate(0 133.78375870585296 52.245166518079714)"><text x="133.78375870585296" y="0" font-family="Virgil, Segoe UI Emoji" font-size="41.79613321446402px" fill="#1e1e1e" text-anchor="middle" style="white-space: pre;" direction="ltr" dominant-baseline="text-before-edge">WAL Segment</text><text x="133.78375870585296" y="52.245166518080026" font-family="Virgil, Segoe UI Emoji" font-size="41.79613321446402px" fill="#1e1e1e" text-anchor="middle" style="white-space: pre;" direction="ltr" dominant-baseline="text-before-edge"> File</text></g><g stroke-opacity="0" fill-opacity="0" stroke-linecap="round" transform="translate(3366.8668024567414 2087.793852823379) rotate(0 108.95438407426445 108.95438407426445)"><path d="M95.25 0.62 C107.48 -2.63, 122.9 0.78, 135.71 3.9 C148.52 7.03, 161.4 11.82, 172.11 19.39 C182.81 26.96, 192.63 38.37, 199.94 49.33 C207.24 60.29, 213.05 72.66, 215.94 85.16 C218.82 97.67, 219.51 111.32, 217.28 124.34 C215.05 137.36, 209.02 151.6, 202.55 163.3 C196.09 175, 188.52 186.15, 178.5 194.52 C168.48 202.9, 155.1 209.66, 142.41 213.54 C129.73 217.41, 115.57 218.83, 102.4 217.77 C89.23 216.72, 75.26 212.71, 63.38 207.23 C51.5 201.75, 40.32 194.29, 31.1 184.89 C21.88 175.5, 13.31 162.96, 8.07 150.84 C2.83 138.72, -0.07 125.2, -0.34 112.17 C-0.62 99.14, 1.93 84.95, 6.41 72.67 C10.89 60.38, 18.15 48.31, 26.54 38.45 C34.92 28.6, 43.07 19.83, 56.72 13.53 C70.37 7.22, 97.68 2.35, 108.42 0.6 C119.16 -1.16, 121.24 1.33, 121.17 2.99 M154.89 11.53 C167.06 15.56, 179.39 25.26, 188.49 34.33 C197.59 43.41, 204.83 53.84, 209.48 65.99 C214.13 78.14, 216.03 94.09, 216.38 107.24 C216.73 120.38, 215.97 132.66, 211.57 144.87 C207.16 157.08, 198.49 170.43, 189.94 180.51 C181.38 190.59, 171.7 199.29, 160.24 205.35 C148.77 211.4, 134.16 215.36, 121.17 216.81 C108.18 218.27, 94.86 217.5, 82.3 214.06 C69.75 210.63, 56.5 203.67, 45.83 196.22 C35.16 188.77, 25.7 180.02, 18.3 169.36 C10.91 158.69, 4.32 145.16, 1.46 132.24 C-1.39 119.31, -1.18 104.75, 1.18 91.8 C3.55 78.85, 8.88 65.88, 15.65 54.54 C22.43 43.2, 31.75 31.86, 41.85 23.77 C51.94 15.69, 63.92 10.07, 76.22 6.02 C88.52 1.97, 102.43 -1.14, 115.65 -0.54 C128.88 0.06, 149.09 7.69, 155.59 9.62 C162.1 11.55, 155.55 9.31, 154.69 11.06" stroke="#1e1e1e" stroke-width="1" fill="none"></path></g><g stroke-linecap="round"><g transform="translate(3435.6674262159395 2126.598198295782) rotate(0 35.96635245683319 44.32796240490643)"><path d="M0 0 C0.34 35.46, 0.32 67.58, 0 87.61 M0 0 C0.17 31.13, 1.46 62.19, 0 87.61 M0 87.61 C18.58 88.65, 42.81 90.12, 71.52 87.61 M0 87.61 C22.22 87.4, 43.49 87.87, 71.52 87.61 M71.52 87.61 C71.14 68.84, 72.62 51.22, 71.52 25.03 M71.52 87.61 C71.84 65.37, 72.04 42.93, 71.52 25.03 M71.52 25.03 C66.16 25.14, 56.08 25.01, 48.5 25.03 M71.52 25.03 C62.5 24.6, 52.44 26, 48.5 25.03 M48.5 25.03 C49.09 17.93, 48.89 9.56, 48.5 0.89 M48.5 25.03 C48.55 17.35, 48.71 11.94, 48.5 0.89 M48.5 0.89 C53.92 7.73, 59.93 13.45, 71.52 25.03 M48.5 0.89 C55.05 7.39, 62.65 14.73, 71.52 25.03 M71.52 25.03 C61.69 16.18, 51.12 6.42, 42.58 0 M71.52 25.03 C64.41 18.64, 57.55 11.85, 42.58 0 M42.58 0 C25.72 -0.1, 12.93 -0.21, 0 0 M42.58 0 C30.66 0.46, 17.85 -0.96, 0 0" stroke="#1e1e1e" stroke-width="4" fill="none"></path></g></g><mask></mask><g transform="translate(3356.3432095534918 2222.287581103381) rotate(0 119.47797697751412 46.658479794681625)"><text x="119.47797697751442" y="0" font-family="Virgil, Segoe UI Emoji" font-size="37.32678383574512px" fill="#1e1e1e" text-anchor="middle" style="white-space: pre;" direction="ltr" dominant-baseline="text-before-edge">WAL Segment</text><text x="119.47797697751442" y="46.6584797946814" font-family="Virgil, Segoe UI Emoji" font-size="37.32678383574512px" fill="#1e1e1e" text-anchor="middle" style="white-space: pre;" direction="ltr" dominant-baseline="text-before-edge"> File</text></g><g transform="translate(240.39413579307802 1032.5829339257034) rotate(0 121.48956480501874 73.18102527407245)"><text x="0" y="0" font-family="Virgil, Segoe UI Emoji" font-size="117.08964043851613px" fill="#2f9e44" text-anchor="start" style="white-space: pre;" direction="ltr" dominant-baseline="text-before-edge">Pg16</text></g><g transform="translate(3818.4929313325883 983.8907398120937) rotate(0 123.48127031271542 74.46938145048807)"><text x="0" y="0" font-family="Virgil, Segoe UI Emoji" font-size="119.15101032078px" fill="#2f9e44" text-anchor="start" style="white-space: pre;" direction="ltr" dominant-baseline="text-before-edge">Pg16</text></g><g transform="translate(2107.0521688737026 3555.949959494683) rotate(0 154.9578097604881 103.30641450129042)"><text x="154.95780976048823" y="0" font-family="Virgil, Segoe UI Emoji" font-size="82.64513160103178px" fill="#1e1e1e" text-anchor="middle" style="white-space: pre;" direction="ltr" dominant-baseline="text-before-edge">Archival</text><text x="154.95780976048823" y="103.30641450128972" font-family="Virgil, Segoe UI Emoji" font-size="82.64513160103178px" fill="#1e1e1e" text-anchor="middle" style="white-space: pre;" direction="ltr" dominant-baseline="text-before-edge">area</text></g><g stroke-linecap="round"><g transform="translate(2148.8051635844786 3518.6877877486113) rotate(0 112.39576755971939 -50.71349172457121)"><path d="M-1.18 -1.12 C3.47 -15.59, 14.37 -69.37, 27.76 -86.11 C41.15 -102.84, 46.26 -99.13, 79.17 -101.5 C112.07 -103.87, 201.01 -100.48, 225.18 -100.31 M0.4 0.91 C4.93 -13.93, 13.82 -70.78, 26.92 -87.62 C40.01 -104.46, 45.79 -98.17, 78.97 -100.12 C112.15 -102.07, 202.01 -99.3, 225.97 -99.33" stroke="#1e1e1e" stroke-width="4" fill="none"></path></g></g><mask></mask><g stroke-linecap="round"><g transform="translate(2368.8130727217685 3416.153146570854) rotate(0 -98.10555857120016 20.61359643054675)"><path d="M0.2 1.16 C5.52 3.6, 29.32 -1.77, 30.7 13.5 C32.08 28.77, 18.2 76.82, 8.5 92.77 C-1.2 108.73, 5.67 106.4, -27.5 109.24 C-60.66 112.08, -158 113.99, -190.48 109.81 C-222.96 105.62, -216.53 109.61, -222.37 84.15 C-228.22 58.68, -227.6 -17.72, -225.57 -42.97 C-223.53 -68.22, -222.49 -63.23, -210.14 -67.35 C-197.8 -71.46, -164.71 -72.11, -151.48 -67.66 C-138.25 -63.21, -151.58 -45.12, -130.75 -40.65 C-109.93 -36.17, -48.13 -42.65, -26.51 -40.81 C-4.88 -38.97, -5.44 -36.31, -1.01 -29.61 C3.43 -22.92, -0.01 -5.74, 0.1 -0.63 M-1.15 0.73 C4.2 3.47, 28.75 -0.44, 30.32 15.1 C31.89 30.64, 17.87 78.13, 8.28 93.97 C-1.31 109.8, 5.63 107.4, -27.22 110.12 C-60.07 112.84, -156.51 114.24, -188.82 110.27 C-221.13 106.31, -214.95 111.53, -221.06 86.33 C-227.17 61.13, -227.7 -15.28, -225.49 -40.91 C-223.28 -66.55, -220.44 -62.85, -207.82 -67.48 C-195.19 -72.11, -162.73 -73.06, -149.74 -68.7 C-136.76 -64.35, -150.54 -46.15, -129.91 -41.34 C-109.28 -36.53, -47.25 -41.71, -25.94 -39.85 C-4.63 -38, -6.43 -36.55, -2.04 -30.21 C2.34 -23.87, 0.25 -7.06, 0.38 -1.79" stroke="#1e1e1e" stroke-width="4" fill="none"></path></g></g><mask></mask><g stroke-linecap="round" transform="translate(1399.4708680992007 3085.103838472234) rotate(0 96.78403934382186 102.47721812875352)"><path d="M0 0 C61.53 -0.02, 122.28 -1.65, 193.57 0 M0 0 C51.14 -0.93, 101.69 -0.64, 193.57 0 M193.57 0 C195.15 51.65, 193.49 103.57, 193.57 204.95 M193.57 0 C194.73 60.19, 194.39 122.11, 193.57 204.95 M193.57 204.95 C135.65 206.38, 75.28 205.04, 0 204.95 M193.57 204.95 C146.6 206.1, 98.65 206.79, 0 204.95 M0 204.95 C-0.64 142.62, -0.8 79.73, 0 0 M0 204.95 C-1.06 163.24, -0.58 121.07, 0 0" stroke="#1e1e1e" stroke-width="4" fill="none"></path></g><g stroke-linecap="round" transform="translate(1593.0389467868044 3085.103838472234) rotate(0 96.78403934382186 102.47721812875352)"><path d="M0 0 C75.18 -1.57, 150.44 -3.36, 193.57 0 M0 0 C59.55 0.93, 120.42 1.66, 193.57 0 M193.57 0 C193.89 53.94, 194.5 107.53, 193.57 204.95 M193.57 0 C193.45 56.6, 193.8 111.09, 193.57 204.95 M193.57 204.95 C136.33 206.33, 75.43 204.3, 0 204.95 M193.57 204.95 C118.52 204.32, 45.52 204.22, 0 204.95 M0 204.95 C-0.15 154.24, -1.31 103.63, 0 0 M0 204.95 C1.09 135.85, 1.69 67.04, 0 0" stroke="#1e1e1e" stroke-width="4" fill="none"></path></g><g stroke-linecap="round" transform="translate(1786.867962835433 3085.103838472234) rotate(0 96.78403934382186 102.47721812875352)"><path d="M0 0 C74.07 -1.79, 149.79 -0.41, 193.57 0 M0 0 C44.26 1.12, 89.1 1.33, 193.57 0 M193.57 0 C192.8 65.05, 192.38 128.12, 193.57 204.95 M193.57 0 C193.09 50.1, 193.03 102.13, 193.57 204.95 M193.57 204.95 C121 203.01, 52.39 204.98, 0 204.95 M193.57 204.95 C144.27 205.56, 94.33 205.21, 0 204.95 M0 204.95 C-1.15 139.65, 1.22 72.24, 0 0 M0 204.95 C0.72 138.69, 0.73 71.92, 0 0" stroke="#1e1e1e" stroke-width="4" fill="none"></path></g><g stroke-linecap="round" transform="translate(1980.436041523124 3085.103838472234) rotate(0 96.78403934382186 102.47721812875352)"><path d="M0 0 C59.31 1.33, 116.76 -0.17, 193.57 0 M0 0 C49.85 -0.1, 100.62 -1.03, 193.57 0 M193.57 0 C193 69.75, 192.55 138.66, 193.57 204.95 M193.57 0 C193.75 80.14, 194.34 159.18, 193.57 204.95 M193.57 204.95 C136.71 203.01, 75.65 201.03, 0 204.95 M193.57 204.95 C130.33 205.02, 68.34 204.92, 0 204.95 M0 204.95 C2.4 140.23, 2.18 77.63, 0 0 M0 204.95 C-0.51 144, -1.09 83.71, 0 0" stroke="#1e1e1e" stroke-width="4" fill="none"></path></g><g stroke-linecap="round" transform="translate(2175.9018464723813 3085.103838472234) rotate(0 96.78403934382186 102.47721812875352)"><path d="M0 0 C40.31 -1.5, 82.57 -0.68, 193.57 0 M0 0 C64.64 -1.44, 129.43 -1.1, 193.57 0 M193.57 0 C192.12 73.19, 194.61 147.61, 193.57 204.95 M193.57 0 C194.22 49.26, 193.63 96.9, 193.57 204.95 M193.57 204.95 C153.83 202.94, 116.37 205.05, 0 204.95 M193.57 204.95 C132.98 204.24, 72.07 203.59, 0 204.95 M0 204.95 C-0.24 137.88, -0.73 72.22, 0 0 M0 204.95 C-1.13 138.47, -1.32 70.32, 0 0" stroke="#1e1e1e" stroke-width="4" fill="none"></path></g><g stroke-linecap="round" transform="translate(2369.469925160043 3085.103838472234) rotate(0 96.78403934382186 102.47721812875352)"><path d="M0 0 C54.23 0.76, 110.75 0.94, 193.57 0 M0 0 C69.06 0.7, 137.93 0.47, 193.57 0 M193.57 0 C194.15 63.32, 191.49 126.37, 193.57 204.95 M193.57 0 C194.85 79.99, 193.94 161.73, 193.57 204.95 M193.57 204.95 C136.17 203.14, 78.09 201.99, 0 204.95 M193.57 204.95 C139.7 203.41, 85.88 204.74, 0 204.95 M0 204.95 C-0.5 157.79, 0.04 109.65, 0 0 M0 204.95 C-0.13 143.63, 0.54 82.92, 0 0" stroke="#1e1e1e" stroke-width="4" fill="none"></path></g><g stroke-linecap="round" transform="translate(2563.038003847698 3085.103838472234) rotate(0 96.78403934382186 102.47721812875352)"><path d="M0 0 C41.28 0.14, 82.32 1.19, 193.57 0 M0 0 C51.25 -0.2, 101.39 -0.45, 193.57 0 M193.57 0 C194.05 55.29, 196.81 111.74, 193.57 204.95 M193.57 0 C192.72 75.04, 193.6 148.21, 193.57 204.95 M193.57 204.95 C155.1 204.04, 115.64 205.49, 0 204.95 M193.57 204.95 C141.63 203.48, 88.53 203.35, 0 204.95 M0 204.95 C0.54 146.85, 0 86.53, 0 0 M0 204.95 C0.93 129.31, 0.94 53.66, 0 0" stroke="#1e1e1e" stroke-width="4" fill="none"></path></g><g stroke-linecap="round" transform="translate(2756.6060825353234 3085.103838472234) rotate(0 96.78403934382186 102.47721812875352)"><path d="M0 0 C49.67 1.02, 96.39 1.57, 193.57 0 M0 0 C57.38 0.01, 114.29 1.4, 193.57 0 M193.57 0 C194.08 64.52, 193.54 126.62, 193.57 204.95 M193.57 0 C191.74 49.32, 190.86 99.66, 193.57 204.95 M193.57 204.95 C133.92 204.37, 74.52 204.16, 0 204.95 M193.57 204.95 C153.32 205.92, 114.25 205.64, 0 204.95 M0 204.95 C-0.55 131.69, 0.71 58.14, 0 0 M0 204.95 C-0.45 153.42, -0.82 103.2, 0 0" stroke="#1e1e1e" stroke-width="4" fill="none"></path></g><g stroke-linecap="round" transform="translate(2946.3787086997 3085.103838472234) rotate(0 96.78403934382186 102.47721812875352)"><path d="M0 0 C49.51 0.56, 100.47 0.96, 193.57 0 M0 0 C52.42 1.89, 105.53 0.4, 193.57 0 M193.57 0 C196.38 61.97, 194.24 122.1, 193.57 204.95 M193.57 0 C192.66 78.62, 193.6 156.95, 193.57 204.95 M193.57 204.95 C144.89 205.56, 95.52 205.89, 0 204.95 M193.57 204.95 C128.21 205.4, 63.66 205.7, 0 204.95 M0 204.95 C1.26 130.89, -0.87 58.66, 0 0 M0 204.95 C-0.84 150.64, -0.96 96.08, 0 0" stroke="#1e1e1e" stroke-width="4" fill="none"></path></g><g transform="translate(1429.9791914959023 3162.030148066471) rotate(0 67.83252683283263 32.33986890115557)"><text x="0" y="0" font-family="Virgil, Segoe UI Emoji" font-size="50.624597242990454px" fill="#1e1e1e" text-anchor="start" style="white-space: pre;" direction="ltr" dominant-baseline="text-before-edge">WAL0</text></g><g transform="translate(1620.1094095238332 3158.1024652039923) rotate(0 57.313451342327426 32.33986890115557)"><text x="0" y="0" font-family="Virgil, Segoe UI Emoji" font-size="50.624597242990454px" fill="#1e1e1e" text-anchor="start" style="white-space: pre;" direction="ltr" dominant-baseline="text-before-edge">WAL1</text></g><g transform="translate(1819.3148582245958 3158.1024652039923) rotate(0 68.43555862373887 32.33986890115557)"><text x="0" y="0" font-family="Virgil, Segoe UI Emoji" font-size="50.624597242990454px" fill="#1e1e1e" text-anchor="start" style="white-space: pre;" direction="ltr" dominant-baseline="text-before-edge">WAL2</text></g><g transform="translate(2008.8813336011262 3158.1024652039923) rotate(0 67.65416236016517 32.33986890115557)"><text x="0" y="0" font-family="Virgil, Segoe UI Emoji" font-size="50.624597242990454px" fill="#1e1e1e" text-anchor="start" style="white-space: pre;" direction="ltr" dominant-baseline="text-before-edge">WAL3</text></g><g transform="translate(2214.5127645180364 3151.6764829878375) rotate(0 66.62221758870874 32.33986890115557)"><text x="0" y="0" font-family="Virgil, Segoe UI Emoji" font-size="50.624597242990454px" fill="#1e1e1e" text-anchor="start" style="white-space: pre;" direction="ltr" dominant-baseline="text-before-edge">WAL4</text></g><g transform="translate(2404.079239894567 3158.1024652039923) rotate(0 66.06589585915481 32.33986890115557)"><text x="0" y="0" font-family="Virgil, Segoe UI Emoji" font-size="50.624597242990454px" fill="#1e1e1e" text-anchor="start" style="white-space: pre;" direction="ltr" dominant-baseline="text-before-edge">WAL5</text></g><g transform="translate(2593.6457152710973 3158.1024652039923) rotate(0 66.62221758870874 32.33986890115557)"><text x="0" y="0" font-family="Virgil, Segoe UI Emoji" font-size="50.624597242990454px" fill="#1e1e1e" text-anchor="start" style="white-space: pre;" direction="ltr" dominant-baseline="text-before-edge">WAL6</text></g><g transform="translate(2789.6381728637825 3158.1024652039923) rotate(0 64.04871637759516 32.33986890115557)"><text x="0" y="0" font-family="Virgil, Segoe UI Emoji" font-size="50.624597242990454px" fill="#1e1e1e" text-anchor="start" style="white-space: pre;" direction="ltr" dominant-baseline="text-before-edge">WAL7</text></g><g transform="translate(2975.9916571322356 3154.889474095915) rotate(0 69.77326884092872 32.33986890115557)"><text x="0" y="0" font-family="Virgil, Segoe UI Emoji" font-size="50.624597242990454px" fill="#1e1e1e" text-anchor="start" style="white-space: pre;" direction="ltr" dominant-baseline="text-before-edge">WAL8</text></g><g stroke-linecap="round"><g transform="translate(303.5998363685976 1453.8554848627537) rotate(0 51.41052967205269 -58.89815841194468)"><path d="M-0.03 -1.26 C17.58 -21.07, 85.21 -97.28, 102.85 -116.54" stroke="#f08c00" stroke-width="4.5" fill="none" stroke-dasharray="1.5 10"></path></g><g transform="translate(303.5998363685976 1453.8554848627537) rotate(0 51.41052967205269 -58.89815841194468)"><path d="M89.82 -92.71 C94.38 -94.06, 96.23 -101.94, 102 -115.7" stroke="#f08c00" stroke-width="4.5" fill="none" stroke-dasharray="1.5 8"></path></g><g transform="translate(303.5998363685976 1453.8554848627537) rotate(0 51.41052967205269 -58.89815841194468)"><path d="M74.57 -106.43 C82.41 -105.03, 87.32 -110.16, 102 -115.7" stroke="#f08c00" stroke-width="4.5" fill="none" stroke-dasharray="1.5 8"></path></g></g><mask></mask><g transform="translate(3404.0820458067064 2875.6503442752946) rotate(0 888.5924155343291 54.140498778924666)"><text x="0" y="0" font-family="Virgil, Segoe UI Emoji" font-size="86.62479804628039px" fill="#2f9e44" text-anchor="start" style="white-space: pre;" direction="ltr" dominant-baseline="text-before-edge">restore_command = 'cp /archives/%f %p'</text></g><g transform="translate(3390.4256618320396 3028.260435192242) rotate(0 1296.1842990791392 54.271612868722514)"><text x="0" y="0" font-family="Virgil, Segoe UI Emoji" font-size="86.83458058995683px" fill="#2f9e44" text-anchor="start" style="white-space: pre;" direction="ltr" dominant-baseline="text-before-edge">archive_cleanup_command = 'pg_archivecleanup /archive %r'</text></g><g stroke-linecap="round"><g transform="translate(847.5022394418702 2590.2721646082646) rotate(0 236.53556563286838 264.46194981968074)"><path d="M-1.45 -0.59 C77.61 87.53, 395.24 441.15, 474.52 529.14 M2.96 -3.38 C81.69 85.11, 394.33 443.58, 472.6 532.31" stroke="#1e1e1e" stroke-width="4" fill="none"></path></g><g transform="translate(847.5022394418702 2590.2721646082646) rotate(0 236.53556563286838 264.46194981968074)"><path d="M445.45 518.71 C453.17 522.97, 458.62 528.03, 474.08 529.71 M447.44 518.42 C455.98 522.51, 463.21 528.61, 472.05 531.27" stroke="#1e1e1e" stroke-width="4" fill="none"></path></g><g transform="translate(847.5022394418702 2590.2721646082646) rotate(0 236.53556563286838 264.46194981968074)"><path d="M460.88 505.18 C463.92 513.42, 464.64 522.62, 474.08 529.71 M462.87 504.89 C466.37 513.36, 468.6 523.85, 472.05 531.27" stroke="#1e1e1e" stroke-width="4" fill="none"></path></g></g><mask></mask><g transform="translate(3981.5661768566097 1402.8950956365006) rotate(0 352.38683806131303 49.686379495600704)"><text x="0" y="0" font-family="Virgil, Segoe UI Emoji" font-size="79.49820719295985px" fill="#2f9e44" text-anchor="start" style="white-space: pre;" direction="ltr" dominant-baseline="text-before-edge">hot_standby = on</text></g><g transform="translate(4026.524562540737 2140.301261922672) rotate(0 235.46083185001226 43.784557053140816)"><text x="0" y="0" font-family="Virgil, Segoe UI Emoji" font-size="70.05529128502604px" fill="#1e1e1e" text-anchor="start" style="white-space: pre;" direction="ltr" dominant-baseline="text-before-edge">standby.signal</text></g><g stroke-opacity="0" fill-opacity="0" stroke-linecap="round" transform="translate(3977.2963783025516 1780.828216279362) rotate(0 276.90788091452487 276.90788091452487)"><path d="M265.81 -0.19 C285.82 -5.21, 309.49 1.55, 330.51 5.83 C351.53 10.12, 372.6 16.87, 391.93 25.52 C411.26 34.17, 429.63 44.59, 446.49 57.72 C463.35 70.85, 479.85 87.5, 493.11 104.29 C506.37 121.09, 516.94 139.3, 526.05 158.51 C535.16 177.71, 543.16 198.79, 547.75 219.49 C552.34 240.2, 554.1 261.56, 553.59 282.72 C553.07 303.89, 549.85 325.87, 544.66 346.48 C539.48 367.09, 532.32 387.49, 522.47 406.38 C512.62 425.27, 499.62 443.8, 485.58 459.83 C471.55 475.86, 455.69 490.35, 438.26 502.56 C420.84 514.77, 400.87 524.99, 381.03 533.07 C361.2 541.16, 340.15 547.6, 319.25 551.07 C298.35 554.53, 276.71 555.58, 255.61 553.86 C234.51 552.14, 213.05 547.51, 192.66 540.74 C172.28 533.98, 151.53 524.47, 133.31 513.29 C115.08 502.11, 98.56 488.41, 83.3 473.66 C68.05 458.91, 53.03 442.63, 41.78 424.79 C30.53 406.96, 22.61 386.73, 15.78 366.66 C8.96 346.58, 3.21 325.75, 0.85 304.36 C-1.51 282.98, -1.32 259.67, 1.6 238.36 C4.52 217.05, 10.66 196.19, 18.39 176.51 C26.13 156.83, 36.02 137.89, 48.03 120.27 C60.04 102.65, 74.53 84.99, 90.46 70.78 C106.39 56.58, 124.99 45.16, 143.6 35.04 C162.2 24.92, 179.31 15.75, 202.08 10.05 C224.86 4.36, 264.88 1.46, 280.24 0.88 C295.59 0.3, 294.32 2.17, 294.22 6.58 M217.67 7.29 C236.45 -1.55, 260.9 0.73, 281.77 0.78 C302.64 0.82, 322.29 2.65, 342.89 7.57 C363.48 12.48, 386.19 20.21, 405.35 30.27 C424.5 40.33, 441.88 53.94, 457.8 67.93 C473.72 81.92, 488.38 97.12, 500.88 114.2 C513.39 131.28, 524.63 150.81, 532.83 170.41 C541.04 190, 546.59 210.57, 550.1 231.75 C553.6 252.94, 555.28 276.1, 553.87 297.51 C552.45 318.93, 548.33 339.99, 541.62 360.23 C534.91 380.47, 524.5 400.92, 513.6 418.94 C502.7 436.97, 490.58 453.35, 476.23 468.4 C461.88 483.45, 445.32 497.78, 427.52 509.26 C409.71 520.73, 389.81 529.9, 369.41 537.26 C349.01 544.62, 326.29 551.28, 305.12 553.4 C283.96 555.53, 263.46 552.94, 242.43 550.01 C221.4 547.09, 199.29 543.01, 178.96 535.87 C158.63 528.73, 138.26 519.22, 120.45 507.18 C102.64 495.13, 86.21 479.43, 72.1 463.6 C57.99 447.76, 46.06 430.56, 35.79 412.17 C25.53 393.77, 16.2 373.54, 10.48 353.23 C4.77 332.92, 2.26 311.68, 1.52 290.29 C0.78 268.89, 2.07 246.02, 6.07 224.88 C10.07 203.74, 17.03 182.73, 25.53 163.43 C34.02 144.13, 44.12 125.9, 57.03 109.08 C69.94 92.27, 86.38 75.9, 102.96 62.56 C119.54 49.22, 137.45 38.29, 156.51 29.03 C175.56 19.77, 207.17 9.62, 217.28 7.01 C227.4 4.39, 216.39 8.79, 217.2 13.34" stroke="none" stroke-width="0" fill="#b2f2bb"></path><path d="M261.47 1.04 C281.4 -4.7, 304.32 0.63, 325.34 4.21 C346.37 7.8, 368.16 13.98, 387.62 22.53 C407.07 31.08, 425.17 42.65, 442.06 55.51 C458.95 68.38, 475.3 83.45, 488.93 99.71 C502.56 115.97, 514.23 134.12, 523.83 153.06 C533.42 172, 541.53 192.75, 546.5 213.37 C551.47 233.98, 553.79 255.28, 553.65 276.74 C553.51 298.19, 550.72 321.27, 545.68 342.09 C540.63 362.91, 532.89 382.75, 523.39 401.64 C513.89 420.54, 502.38 439.08, 488.67 455.43 C474.95 471.78, 458.11 487.05, 441.09 499.76 C424.06 512.47, 406.09 523.41, 386.52 531.71 C366.95 540, 344.65 545.97, 323.65 549.54 C302.66 553.11, 281.63 554.34, 260.54 553.14 C239.45 551.94, 217.59 548.32, 197.1 542.35 C176.62 536.37, 155.93 527.91, 137.63 517.3 C119.32 506.7, 102.78 493.59, 87.27 478.72 C71.77 463.86, 56.46 445.91, 44.59 428.13 C32.72 410.36, 23.05 392.05, 16.06 372.07 C9.06 352.09, 4.91 329.64, 2.63 308.25 C0.35 286.86, -0.04 264.94, 2.37 243.73 C4.78 222.52, 9.98 200.92, 17.09 180.99 C24.2 161.06, 33.28 141.81, 45.02 124.14 C56.77 106.48, 72.06 89.48, 87.56 74.98 C103.06 60.48, 119.54 47.59, 138.02 37.15 C156.51 26.72, 176.17 18.53, 198.49 12.36 C220.8 6.18, 257.88 1.27, 271.92 0.11 C285.97 -1.06, 282.53 0.9, 282.77 5.36 M323.02 3.64 C343.67 2.34, 363.99 12.97, 383.39 21.19 C402.78 29.42, 422 40.45, 439.38 52.98 C456.76 65.52, 473.47 79.99, 487.66 96.4 C501.86 112.82, 514.73 132.55, 524.53 151.47 C534.34 170.39, 541.61 189.42, 546.5 209.93 C551.39 230.43, 553.58 252.97, 553.87 274.49 C554.17 296, 553.23 318.3, 548.29 339 C543.34 359.7, 533.85 379.96, 524.19 398.68 C514.54 417.41, 503.85 434.7, 490.33 451.34 C476.81 467.99, 460.16 485.64, 443.09 498.57 C426.03 511.5, 407.17 520.5, 387.94 528.93 C368.7 537.36, 348.53 545.27, 327.68 549.14 C306.84 553.02, 283.98 553.31, 262.85 552.18 C241.72 551.06, 221.12 548, 200.92 542.38 C180.72 536.76, 160.25 528.77, 141.66 518.47 C123.06 508.16, 105.1 495.11, 89.34 480.56 C73.58 466.01, 59.12 449.07, 47.1 431.14 C35.08 413.21, 24.82 392.67, 17.23 372.97 C9.63 353.28, 4.12 333.78, 1.52 312.97 C-1.07 292.16, -0.85 269.56, 1.67 248.1 C4.19 226.64, 9.72 204.24, 16.65 184.19 C23.58 164.14, 31.76 145.49, 43.24 127.81 C54.72 110.13, 69.82 92.79, 85.51 78.09 C101.19 63.4, 119.09 50.75, 137.35 39.62 C155.62 28.48, 174.97 18.01, 195.1 11.28 C215.23 4.55, 236.73 0.65, 258.13 -0.76 C279.53 -2.17, 313.03 1.16, 323.5 2.82 C333.97 4.48, 322.09 4.48, 320.93 9.2" stroke="#1e1e1e" stroke-width="1" fill="none"></path></g><g stroke-linecap="round"><g transform="translate(4152.153361733075 1879.4495720544073) rotate(0 90.93917344676083 111.69614129908223)" fill-rule="evenodd"><path d="M-1.71 0.1 L-1.46 224.2 L181.62 222.8 L180.13 62.22 L122.49 63.44 L124.42 2.53 L182.89 62.99 L120.13 0.91 L1.94 -1.64" stroke="none" stroke-width="0" fill="#b2f2bb" fill-rule="evenodd"></path><path d="M0 0 C0.42 53.32, 0.94 105.7, 0 222.66 M0 0 C-0.35 65.68, 0.31 131.94, 0 222.66 M0 222.66 C63.71 222.39, 126.85 221.39, 181.77 222.66 M0 222.66 C44 224, 88 223.25, 181.77 222.66 M181.77 222.66 C179.39 166.58, 181.54 110.67, 181.77 63.62 M181.77 222.66 C182.11 175.91, 182 127.07, 181.77 63.62 M181.77 63.62 C169.41 63.26, 154.76 62.79, 123.27 63.62 M181.77 63.62 C162.42 63.58, 143.38 62.42, 123.27 63.62 M123.27 63.62 C121.67 43.85, 120.94 23.27, 123.27 2.27 M123.27 63.62 C123.39 43.4, 124.21 22.11, 123.27 2.27 M123.27 2.27 C137.5 18.45, 151.87 35.23, 181.77 63.62 M123.27 2.27 C145.95 26.05, 169.11 49.85, 181.77 63.62 M181.77 63.62 C167.12 48.37, 157.97 35.32, 121.18 0 M181.77 63.62 C167.85 48.61, 155.37 34.96, 121.18 0 M121.18 0 C78.3 0.48, 34.13 -0.13, 0 0 M121.18 0 C94.24 1.47, 67.74 0.66, 0 0 M0 0 C0 0, 0 0, 0 0 M0 0 C0 0, 0 0, 0 0" stroke="#1e1e1e" stroke-width="1" fill="none"></path></g></g><mask></mask><g stroke-linecap="round"><g transform="translate(3212.0642995401467 3089.683979025569) rotate(0 165.95591795218752 -234.07791881740923)"><path d="M1.6 0.77 C57.13 -77.38, 277.98 -390.97, 332.9 -468.92 M-0.98 -1.29 C54.36 -78.95, 276.53 -386.98, 331.55 -465.34" stroke="#1e1e1e" stroke-width="4" fill="none"></path></g><g transform="translate(3212.0642995401467 3089.683979025569) rotate(0 165.95591795218752 -234.07791881740923)"><path d="M324.64 -434.07 C325.75 -445.1, 330.89 -454.29, 329.49 -463.38 M323.71 -436.31 C325.26 -444.31, 326.39 -452.82, 333.44 -466.94" stroke="#1e1e1e" stroke-width="4" fill="none"></path></g><g transform="translate(3212.0642995401467 3089.683979025569) rotate(0 165.95591795218752 -234.07791881740923)"><path d="M307.93 -445.98 C313.86 -453.77, 323.82 -459.52, 329.49 -463.38 M307 -448.22 C313.11 -452.83, 318.66 -458.18, 333.44 -466.94" stroke="#1e1e1e" stroke-width="4" fill="none"></path></g></g><mask></mask><g transform="translate(1202.0886734532141 2485.601695009318) rotate(0 699.077300403892 43.34795613988172)"><text x="0" y="0" font-family="Virgil, Segoe UI Emoji" font-size="69.35672982381102px" fill="#2f9e44" text-anchor="start" style="white-space: pre;" direction="ltr" dominant-baseline="text-before-edge">archive_command = 'cp %p /archives/%f'</text></g><g transform="translate(1300.3440407036105 2604.0861084583303) rotate(0 771.4539237281188 38.06617633782844)"><text x="0" y="0" font-family="Virgil, Segoe UI Emoji" font-size="60.905882140526494px" fill="#2f9e44" text-anchor="start" style="white-space: pre;" direction="ltr" dominant-baseline="text-before-edge">%p placeholder represents the copied WAL segment,</text></g><g transform="translate(1326.3528143875374 2719.6806581646815) rotate(0 629.5134966034038 37.547743608061865)"><text x="0" y="0" font-family="Virgil, Segoe UI Emoji" font-size="60.076389772898736px" fill="#2f9e44" text-anchor="start" style="white-space: pre;" direction="ltr" dominant-baseline="text-before-edge">%f placeholder represents the archive log.</text></g><g transform="translate(1227.6304803789244 2823.944481016326) rotate(0 920.6865297310069 46.23162698687156)"><text x="0" y="0" font-family="Virgil, Segoe UI Emoji" font-size="73.97060317899319px" fill="#2f9e44" text-anchor="start" style="white-space: pre;" direction="ltr" dominant-baseline="text-before-edge">archive_timeout = ... # control the replication lag</text></g><g transform="translate(4639.43064472359 3250.209205088271) rotate(0 596.4913895585651 51.013633785190905)"><text x="0" y="0" font-family="Virgil, Segoe UI Emoji" font-size="81.62181405630677px" fill="#1e1e1e" text-anchor="start" style="white-space: pre;" direction="ltr" dominant-baseline="text-before-edge">useful in single-standby setup</text></g><g stroke-linecap="round"><g transform="translate(4614.749012992837 3270.593360778774) rotate(0 -100.23550164394328 -49.4629603732119)"><path d="M-0.16 -0.46 C-33.59 -16.9, -167.65 -82.03, -200.31 -98.46 M-3.69 -3.18 C-36.21 -19.3, -162.63 -80.06, -194.76 -95.73" stroke="#1e1e1e" stroke-width="4" fill="none"></path></g><g transform="translate(4614.749012992837 3270.593360778774) rotate(0 -100.23550164394328 -49.4629603732119)"><path d="M-165.57 -94.92 C-176.46 -89.88, -186.53 -94.13, -195.23 -94.79 M-164.14 -94.6 C-171.58 -92.92, -178.05 -93.84, -194.21 -96.71" stroke="#1e1e1e" stroke-width="4" fill="none"></path></g><g transform="translate(4614.749012992837 3270.593360778774) rotate(0 -100.23550164394328 -49.4629603732119)"><path d="M-174.51 -76.44 C-182.67 -77.09, -189.98 -87.05, -195.23 -94.79 M-173.08 -76.13 C-178.8 -78.44, -183.36 -83.3, -194.21 -96.71" stroke="#1e1e1e" stroke-width="4" fill="none"></path></g></g><mask></mask><g stroke-linecap="round"><g transform="translate(3901.3035638252513 3280.7854386240215) rotate(0 76.98133208763284 -52.809016425468144)"><path d="M-1.56 -1.64 C24.38 -19.77, 129.73 -91.64, 155.53 -109.26 M2.78 3.64 C28.61 -14.17, 129.93 -88.84, 154.72 -106.85" stroke="#1e1e1e" stroke-width="4" fill="none"></path></g><g transform="translate(3901.3035638252513 3280.7854386240215) rotate(0 76.98133208763284 -52.809016425468144)"><path d="M135.69 -78.14 C139.82 -88.6, 147.46 -95.46, 151.26 -104.81 M137.76 -81.68 C142.96 -89.84, 149.37 -98.98, 156.28 -105.5" stroke="#1e1e1e" stroke-width="4" fill="none"></path></g><g transform="translate(3901.3035638252513 3280.7854386240215) rotate(0 76.98133208763284 -52.809016425468144)"><path d="M123.57 -94.7 C131.21 -100.16, 142.42 -102.14, 151.26 -104.81 M125.65 -98.25 C134.95 -100.72, 145.35 -104.42, 156.28 -105.5" stroke="#1e1e1e" stroke-width="4" fill="none"></path></g></g><mask></mask><g transform="translate(3378.060541048453 3311.361672159779) rotate(0 586.9490354522095 142.92595865992735)"><text x="0" y="0" font-family="Virgil, Segoe UI Emoji" font-size="76.22717795196168px" fill="#1e1e1e" text-anchor="start" style="white-space: pre;" direction="ltr" dominant-baseline="text-before-edge">when archiving is used for the</text><text x="0" y="95.2839724399521" font-family="Virgil, Segoe UI Emoji" font-size="76.22717795196168px" fill="#1e1e1e" text-anchor="start" style="white-space: pre;" direction="ltr" dominant-baseline="text-before-edge">backups, need to retain files</text><text x="0" y="190.5679448799042" font-family="Virgil, Segoe UI Emoji" font-size="76.22717795196168px" fill="#1e1e1e" text-anchor="start" style="white-space: pre;" direction="ltr" dominant-baseline="text-before-edge">required by the lastest backup</text></g><g transform="translate(1163.0319827344356 1759.6178202202937) rotate(0 594.5904276314241 40.98410205871005)"><text x="0" y="0" font-family="Virgil, Segoe UI Emoji" font-size="65.57456329393752px" fill="#2f9e44" text-anchor="start" style="white-space: pre;" direction="ltr" dominant-baseline="text-before-edge">wal_level = replica # or even logical</text></g><g transform="translate(4702.134975575278 882.1537467856251) rotate(0 651.3289523697094 49.686379495598885)"><text x="0" y="0" font-family="Virgil, Segoe UI Emoji" font-size="79.49820719295917px" fill="#2f9e44" text-anchor="start" style="white-space: pre;" direction="ltr" dominant-baseline="text-before-edge">wal_retrieve_retry_interval = ...</text></g><g transform="translate(4697.134975575278 1004.554719851265) rotate(0 632.5670440305767 52.23439895691263)"><text x="0" y="0" font-family="Virgil, Segoe UI Emoji" font-size="83.57503833105966px" fill="#2f9e44" text-anchor="start" style="white-space: pre;" direction="ltr" dominant-baseline="text-before-edge">recovery_min_apply_delay = ...</text></g><g transform="translate(4692.984315395723 1165.3411001517088) rotate(0 635.7590487767029 48.26831138100533)"><text x="0" y="0" font-family="Virgil, Segoe UI Emoji" font-size="77.22929820960877px" fill="#2f9e44" text-anchor="start" style="white-space: pre;" direction="ltr" dominant-baseline="text-before-edge">max_standby_archive_delay = ...</text></g><g transform="translate(4880.644536702388 1300.468738010466) rotate(0 935.6992542476692 43.29754336251972)"><text x="0" y="0" font-family="Virgil, Segoe UI Emoji" font-size="69.27606938003028px" fill="#1e1e1e" text-anchor="start" style="white-space: pre;" direction="ltr" dominant-baseline="text-before-edge">applies when WAL data is being read from WAL archive</text></g><g transform="translate(6396.9831958697505 1072.356121478122) rotate(0 258.1161448091516 36.25540129032197)"><text x="0" y="0" font-family="Virgil, Segoe UI Emoji" font-size="58.00864206451436px" fill="#2f9e44" text-anchor="start" style="white-space: pre;" direction="ltr" dominant-baseline="text-before-edge">hot_standby = on</text></g><g transform="translate(6162.717525993841 1079.246713100576) rotate(0 104.86797770511475 33.92565628802549)"><text x="0" y="0" font-family="Virgil, Segoe UI Emoji" font-size="54.281050060841366px" fill="#1e1e1e" text-anchor="start" style="white-space: pre;" direction="ltr" dominant-baseline="text-before-edge">must be</text></g><g stroke-linecap="round"><g transform="translate(6116.913017612682 1141.8627124305349) rotate(0 -57.86540208061888 31.880303904648827)"><path d="M0.68 -0.87 C-18.35 10.46, -96.01 56.71, -115.58 67.57 M-2.39 -3.81 C-21.44 6.81, -97.19 52.01, -116.41 63.8" stroke="#1e1e1e" stroke-width="4" fill="none"></path></g><g transform="translate(6116.913017612682 1141.8627124305349) rotate(0 -57.86540208061888 31.880303904648827)"><path d="M-98.81 44.15 C-99.11 48.5, -108.49 52.47, -115.73 67.34 M-98.12 38.46 C-106.46 50.29, -112.89 55.51, -116.34 63.82" stroke="#1e1e1e" stroke-width="4" fill="none"></path></g><g transform="translate(6116.913017612682 1141.8627124305349) rotate(0 -57.86540208061888 31.880303904648827)"><path d="M-88.22 61.73 C-91.13 61.7, -103.17 61.26, -115.73 67.34 M-87.53 56.03 C-99.31 61.59, -109.52 60.55, -116.34 63.82" stroke="#1e1e1e" stroke-width="4" fill="none"></path></g></g><mask></mask><g transform="translate(10 1522.3337131215812) rotate(0 144.7854932149312 54.1666666666697)"><text x="0" y="0" font-family="Virgil, Segoe UI Emoji" font-size="86.66666666667008px" fill="#f08c00" text-anchor="start" style="white-space: pre;" direction="ltr" dominant-baseline="text-before-edge">primary</text></g><g transform="translate(4950.280401229873 1426.2813942486318) rotate(0 1068.3416748046875 142.49999999999818)"><text x="0" y="0" font-family="Virgil, Segoe UI Emoji" font-size="75.99999999999862px" fill="#1e1e1e" text-anchor="start" style="white-space: pre;" direction="ltr" dominant-baseline="text-before-edge">how long the standby server should wait before canceling</text><text x="0" y="94.99999999999828" font-family="Virgil, Segoe UI Emoji" font-size="75.99999999999862px" fill="#1e1e1e" text-anchor="start" style="white-space: pre;" direction="ltr" dominant-baseline="text-before-edge">standby queries that conflict with about-to-be-applied </text><text x="0" y="189.99999999999656" font-family="Virgil, Segoe UI Emoji" font-size="75.99999999999862px" fill="#1e1e1e" text-anchor="start" style="white-space: pre;" direction="ltr" dominant-baseline="text-before-edge">WAL entries</text></g></svg>