<svg version="1.1" xmlns="http://www.w3.org/2000/svg" viewBox="0 0 4593.209255642287 3424.986704623974" width="4593.209255642287" height="3424.986704623974">
  <!-- svg-source:excalidraw -->
  
  <defs>
    <style class="style-fonts">
      @font-face {
        font-family: "Virgil";
        src: url("https://excalidraw.com/Virgil.woff2");
      }
      @font-face {
        font-family: "Cascadia";
        src: url("https://excalidraw.com/Cascadia.woff2");
      }
    </style>
    
  </defs>
  <g transform="translate(1237.0676601588857 10) rotate(0 755.2957936726907 157.4584955775117)"><text x="0" y="0" font-family="Virgil, Segoe UI Emoji" font-size="251.93359292401865px" fill="#1e1e1e" text-anchor="start" style="white-space: pre;" direction="ltr" dominant-baseline="text-before-edge">Log-shipping </text></g><g transform="translate(10 503.67459542812503) rotate(0 1984.6333007812482 107.07143780648948)"><text x="0" y="0" font-family="Virgil, Segoe UI Emoji" font-size="85.65715024519214px" fill="#1e1e1e" text-anchor="start" style="white-space: pre;" direction="ltr" dominant-baseline="text-before-edge">Continuous archiving can be used to create a                       cluster configuration </text><text x="0" y="107.07143780649018" font-family="Virgil, Segoe UI Emoji" font-size="85.65715024519214px" fill="#1e1e1e" text-anchor="start" style="white-space: pre;" direction="ltr" dominant-baseline="text-before-edge">with one or more         servers ready to take over operations if the         server fails. </text></g><g transform="translate(1998.2155810370023 495.46875338694736) rotate(0 432.51101520611337 54.51819519404853)"><text x="0" y="0" font-family="Virgil, Segoe UI Emoji" font-size="87.22911231047664px" fill="#f08c00" text-anchor="start" style="white-space: pre;" direction="ltr" dominant-baseline="text-before-edge">high availability (HA)</text></g><g transform="translate(749.6420126713674 616.820281264736) rotate(0 153.74131175212642 50.73350471005688)"><text x="0" y="0" font-family="Virgil, Segoe UI Emoji" font-size="81.17360753609114px" fill="#f08c00" text-anchor="start" style="white-space: pre;" direction="ltr" dominant-baseline="text-before-edge">standby</text></g><g transform="translate(3088.5794849179474 608.3636774322913) rotate(0 143.42561240289615 53.65791258491481)"><text x="0" y="0" font-family="Virgil, Segoe UI Emoji" font-size="85.85266013586305px" fill="#f08c00" text-anchor="start" style="white-space: pre;" direction="ltr" dominant-baseline="text-before-edge">primary</text></g><g transform="translate(18.45680653943782 876.0271355257901) rotate(0 817.2756881495552 56.65616363303161)"><text x="0" y="0" font-family="Virgil, Segoe UI Emoji" font-size="90.64986181284995px" fill="#1e1e1e" text-anchor="start" style="white-space: pre;" direction="ltr" dominant-baseline="text-before-edge">the servers are only loosely coupled.</text></g><g transform="translate(31.284617173332663 1235.2058332748093) rotate(0 630.9038121604153 50.24225831608237)"><text x="0" y="0" font-family="Virgil, Segoe UI Emoji" font-size="80.38761330573138px" fill="#1e1e1e" text-anchor="start" style="white-space: pre;" direction="ltr" dominant-baseline="text-before-edge">The primary server operates in </text></g><g transform="translate(1292.6859961728624 1230.350440653434) rotate(0 498.56355273829104 50.53198618778697)"><text x="0" y="0" font-family="Virgil, Segoe UI Emoji" font-size="80.85117790046009px" fill="#f08c00" text-anchor="start" style="white-space: pre;" direction="ltr" dominant-baseline="text-before-edge">continuous archiving mode</text></g><g transform="translate(1292.685996172855 1363.4839396137468) rotate(0 514.3952194682515 50.19033881916039)"><text x="0" y="0" font-family="Virgil, Segoe UI Emoji" font-size="80.30454211065664px" fill="#f08c00" text-anchor="start" style="white-space: pre;" direction="ltr" dominant-baseline="text-before-edge"> continuous recovery mode</text></g><g transform="translate(31.2846171733363 1372.0358133696718) rotate(0 622.5122599391634 48.10428987710111)"><text x="0" y="0" font-family="Virgil, Segoe UI Emoji" font-size="76.96686380336104px" fill="#1e1e1e" text-anchor="start" style="white-space: pre;" direction="ltr" dominant-baseline="text-before-edge">Each standby server operates in</text></g><g transform="translate(2784.987966582463 1389.1395608815292) rotate(0 384.0527837955815 81.24280068132248)"><text x="0" y="0" font-family="Virgil, Segoe UI Emoji" font-size="64.99424054505847px" fill="#e03131" text-anchor="start" style="white-space: pre;" direction="ltr" dominant-baseline="text-before-edge">READ only connections</text><text x="0" y="81.24280068132309" font-family="Virgil, Segoe UI Emoji" font-size="64.99424054505847px" fill="#e03131" text-anchor="start" style="white-space: pre;" direction="ltr" dominant-baseline="text-before-edge">or no connections at all</text></g><g stroke-linecap="round"><g transform="translate(2725.1248502909657 1444.726740295071) rotate(0 -170.95496623872896 -10.768579349503852)"><path d="M-0.19 0.05 C-57.19 -3.51, -284.9 -18.05, -341.92 -21.59 M0.1 -0.1 C-56.92 -3.63, -285.01 -17.86, -342.01 -21.43" stroke="#e03131" stroke-width="4" fill="none"></path></g><g transform="translate(2725.1248502909657 1444.726740295071) rotate(0 -170.95496623872896 -10.768579349503852)"><path d="M-313.23 -29.91 C-322.49 -26.91, -332.34 -24.85, -342.01 -21.43 M-313.23 -29.91 C-324.47 -26.58, -335.86 -23.37, -342.01 -21.43" stroke="#e03131" stroke-width="4" fill="none"></path></g><g transform="translate(2725.1248502909657 1444.726740295071) rotate(0 -170.95496623872896 -10.768579349503852)"><path d="M-314.51 -9.43 C-323.31 -13.08, -332.75 -17.67, -342.01 -21.43 M-314.51 -9.43 C-325.26 -14.1, -336.16 -18.91, -342.01 -21.43" stroke="#e03131" stroke-width="4" fill="none"></path></g></g><mask></mask><g stroke-linecap="round"><g transform="translate(2026.8867068846266 1847.266473411284) rotate(0 197.84545124861143 186.35561836160377)" fill-rule="evenodd"><path d="M-0.39 -1.23 C-0.82 52.1, -2.34 255.69, -1.51 317.96 C-0.68 380.23, -4.85 359.54, 4.59 372.39 C14.04 385.24, 34.67 388.35, 55.14 395.05 C75.61 401.75, 102.66 408.93, 127.42 412.58 C152.18 416.23, 180.23 416.92, 203.7 416.93 C227.18 416.94, 247.42 415.54, 268.27 412.64 C289.11 409.74, 308.99 406.63, 328.8 399.53 C348.61 392.42, 376.3 384.02, 387.14 370.01 C397.97 356, 392.95 370.37, 393.82 315.48 C394.68 260.59, 392.96 93.37, 392.33 40.68 C391.7 -12, 398.66 10.08, 390.05 -0.61 C381.45 -11.31, 357.8 -17.05, 340.69 -23.5 C323.57 -29.96, 308.73 -36.12, 287.36 -39.35 C265.99 -42.57, 231.94 -42.7, 212.47 -42.85 C192.99 -43, 193.86 -41.7, 170.52 -40.25 C147.17 -38.8, 100.81 -40.77, 72.42 -34.13 C44.02 -27.49, 12.05 -6.03, 0.15 -0.41" stroke="none" stroke-width="0" fill="#fa5252" fill-rule="evenodd"></path><path d="M-0.67 0.62 C-0.53 53.32, -0.08 253.98, 1.01 316.1 C2.1 378.21, -3.19 360.36, 5.88 373.34 C14.94 386.31, 35.27 387.79, 55.38 393.94 C75.49 400.09, 102.35 406.8, 126.53 410.25 C150.71 413.7, 177.23 414.46, 200.47 414.65 C223.71 414.84, 245.11 413.61, 265.98 411.38 C286.86 409.15, 305.43 407.95, 325.72 401.28 C346.01 394.62, 376.58 385.68, 387.71 371.39 C398.84 357.1, 391.2 370.18, 392.5 315.55 C393.79 260.92, 395.8 96.26, 395.48 43.58 C395.16 -9.1, 399.69 10.93, 390.58 -0.52 C381.46 -11.96, 358.19 -18.8, 340.79 -25.08 C323.38 -31.37, 307.13 -35.34, 286.14 -38.25 C265.14 -41.15, 234.47 -41.97, 214.79 -42.52 C195.12 -43.08, 191.76 -42.83, 168.1 -41.55 C144.45 -40.28, 101.01 -41.72, 72.86 -34.89 C44.71 -28.06, 11.34 -6.41, -0.81 -0.57 M1.18 -0.09 C1.24 52.81, -0.58 255.14, 0.6 317.6 C1.77 380.06, -1.03 361.79, 8.22 374.66 C17.48 387.54, 36.59 388.91, 56.15 394.84 C75.72 400.78, 101.4 406.58, 125.61 410.27 C149.83 413.96, 177.95 416.97, 201.45 416.97 C224.94 416.97, 245.54 412.85, 266.6 410.26 C287.67 407.67, 307.88 408.1, 327.82 401.41 C347.76 394.73, 375.87 384.61, 386.26 370.17 C396.65 355.73, 388.51 369, 390.17 314.78 C391.83 260.56, 396.3 97.38, 396.21 44.84 C396.11 -7.71, 398.8 11.3, 389.61 -0.49 C380.42 -12.28, 358.4 -19.61, 341.08 -25.91 C323.76 -32.21, 306.64 -35.43, 285.71 -38.3 C264.79 -41.17, 235 -42.24, 215.53 -43.12 C196.06 -43.99, 192.78 -44.95, 168.88 -43.55 C144.99 -42.15, 100.1 -41.89, 72.15 -34.72 C44.19 -27.54, 13.4 -6.36, 1.14 -0.5" stroke="#c92a2a" stroke-width="1" fill="none"></path></g></g><mask></mask><g stroke-linecap="round" transform="translate(2025.433429081968 1799.3059754727692) rotate(0 197.00609414000974 53.56494811855009)"><path d="M275.08 5.18 C294.09 6.58, 312.26 10.58, 327.36 14.06 C342.46 17.53, 355.44 21.26, 365.67 26.02 C375.91 30.78, 384.21 37.17, 388.77 42.61 C393.33 48.05, 394.99 53.24, 393.05 58.64 C391.12 64.05, 385.29 69.87, 377.15 75.05 C369.01 80.23, 357.39 85.5, 344.23 89.72 C331.08 93.94, 315.63 97.77, 298.2 100.37 C280.78 102.97, 259.74 104.32, 239.68 105.32 C219.63 106.31, 198.1 106.66, 177.87 106.32 C157.64 105.99, 136.86 105.52, 118.31 103.3 C99.77 101.09, 81.63 96.62, 66.6 93.04 C51.58 89.47, 38.59 86.33, 28.16 81.84 C17.73 77.35, 8.59 71.59, 4.02 66.1 C-0.55 60.61, -1.34 54.5, 0.75 48.91 C2.85 43.33, 8.44 37.54, 16.6 32.58 C24.76 27.62, 36.37 23.43, 49.71 19.16 C63.05 14.89, 79.43 9.96, 96.63 6.96 C113.83 3.95, 133.03 2.25, 152.9 1.13 C172.77 0.01, 193.06 -0.69, 215.84 0.24 C238.62 1.18, 275.43 5.39, 289.56 6.74 C303.7 8.08, 302.17 7.74, 300.65 8.33 M270.86 5.15 C289.93 6.12, 308.82 8.27, 324.35 11.59 C339.88 14.91, 353.39 20.21, 364.06 25.09 C374.74 29.98, 383.33 35.62, 388.38 40.9 C393.43 46.18, 395.93 51.32, 394.36 56.78 C392.79 62.24, 386.99 68.58, 378.97 73.65 C370.94 78.71, 359.53 82.71, 346.19 87.19 C332.84 91.66, 316.17 97.25, 298.91 100.49 C281.65 103.74, 261.94 105.51, 242.63 106.66 C223.33 107.8, 203.4 107.74, 183.07 107.35 C162.74 106.97, 139.66 106.58, 120.63 104.37 C101.59 102.16, 84.3 97.66, 68.83 94.08 C53.37 90.49, 38.32 87.46, 27.82 82.87 C17.32 78.29, 10.16 72.26, 5.83 66.56 C1.51 60.86, 0.26 54.47, 1.88 48.7 C3.49 42.92, 7.86 36.99, 15.53 31.92 C23.21 26.84, 34.87 21.99, 47.94 18.23 C61 14.47, 77.02 12.22, 93.94 9.35 C110.87 6.48, 129.64 2.35, 149.48 1.02 C169.32 -0.32, 192.56 0.81, 213 1.36 C233.43 1.9, 262.26 3.48, 272.09 4.3 C281.92 5.12, 273.43 5.66, 271.99 6.27" stroke="none" stroke-width="0" fill="#ffffff"></path><path d="M113.99 5.82 C130.08 2.6, 152.91 0.5, 173.03 -0.31 C193.16 -1.12, 214.66 -0.06, 234.72 0.98 C254.79 2.03, 275.49 3.2, 293.41 5.95 C311.34 8.71, 328.48 13.17, 342.26 17.51 C356.04 21.85, 367.77 26.92, 376.08 31.97 C384.39 37.03, 389.68 42.4, 392.11 47.85 C394.55 53.3, 394.44 59.34, 390.7 64.66 C386.97 69.98, 379.69 75.01, 369.73 79.78 C359.76 84.56, 345.88 89.46, 330.91 93.3 C315.94 97.14, 298.35 100.65, 279.92 102.83 C261.5 105, 240.42 105.66, 220.34 106.35 C200.27 107.04, 179.52 108.08, 159.47 106.97 C139.42 105.85, 117.95 102.49, 100.05 99.65 C82.14 96.82, 65.65 93.79, 52.03 89.93 C38.4 86.07, 26.88 81.51, 18.3 76.48 C9.72 71.45, 3.06 65.42, 0.55 59.77 C-1.96 54.11, -0.96 48.11, 3.24 42.56 C7.43 37.02, 15.83 31.16, 25.74 26.5 C35.66 21.84, 45.5 18.32, 62.72 14.58 C79.94 10.85, 115.28 5.87, 129.06 4.11 C142.84 2.35, 144.19 3.16, 145.39 4.02 M263.51 2.5 C282.74 3.49, 303.29 7.56, 319.1 10.8 C334.92 14.05, 347.2 17.26, 358.41 21.97 C369.61 26.67, 380.43 33.35, 386.35 39.05 C392.27 44.75, 394.41 50.83, 393.93 56.18 C393.46 61.53, 390.51 66.17, 383.49 71.16 C376.47 76.15, 364.22 81.46, 351.81 86.12 C339.4 90.79, 325.6 96.02, 309.04 99.13 C292.48 102.24, 272.12 103.5, 252.46 104.79 C232.8 106.08, 211.29 107.03, 191.05 106.85 C170.82 106.68, 150.16 105.71, 131.03 103.72 C111.89 101.74, 92.3 98.13, 76.24 94.96 C60.18 91.8, 46.23 89.36, 34.67 84.73 C23.12 80.1, 12.89 72.83, 6.91 67.16 C0.94 61.5, -1.74 56.17, -1.18 50.74 C-0.62 45.31, 3.05 39.58, 10.27 34.6 C17.48 29.61, 29.6 25.13, 42.12 20.84 C54.64 16.56, 68.99 12.07, 85.39 8.87 C101.78 5.67, 120.76 3.11, 140.49 1.67 C160.23 0.22, 183.36 -0.16, 203.79 0.2 C224.22 0.56, 253.4 3.24, 263.09 3.8 C272.79 4.36, 262.94 2.72, 261.94 3.57" stroke="#c92a2a" stroke-width="1" fill="none"></path></g><g transform="translate(2028.4203424507941 2264.862480628799) rotate(0 192.62253675635657 48.642054736454156)"><text x="192.62253675635682" y="0" font-family="Virgil, Segoe UI Emoji" font-size="77.827287578326px" fill="#000000" text-anchor="middle" style="white-space: pre;" direction="ltr" dominant-baseline="text-before-edge">Database</text></g><g stroke-linecap="round"><g transform="translate(492.07854777964167 1843.111757274808) rotate(0 197.2552805581072 185.6525229282397)" fill-rule="evenodd"><path d="M1.78 -0.79 C1.37 52.03, -2.72 252.34, -1.98 314.62 C-1.25 376.9, -3.18 359.38, 6.18 372.88 C15.54 386.39, 34.55 389.38, 54.16 395.66 C73.78 401.94, 99.47 407.52, 123.87 410.54 C148.27 413.57, 177.21 414.11, 200.57 413.83 C223.93 413.54, 242.69 411.25, 264.03 408.83 C285.38 406.42, 307.86 405.28, 328.65 399.33 C349.43 393.37, 378.21 387.3, 388.74 373.1 C399.28 358.91, 390.54 369.24, 391.85 314.14 C393.17 259.03, 397.08 95.41, 396.63 42.48 C396.17 -10.46, 398.13 7.68, 389.12 -3.48 C380.11 -14.65, 359.74 -19.01, 342.58 -24.5 C325.42 -29.98, 307.82 -33.58, 286.18 -36.4 C264.55 -39.23, 232.69 -40.71, 212.75 -41.47 C192.81 -42.22, 190.2 -42.24, 166.55 -40.96 C142.9 -39.68, 98.22 -40.22, 70.85 -33.77 C43.49 -27.32, 14.28 -8.08, 2.34 -2.26" stroke="none" stroke-width="0" fill="#228be6" fill-rule="evenodd"></path><path d="M-0.9 0.32 C-1.02 53.12, -2.29 254.64, -0.85 316.92 C0.6 379.2, -1.33 361.24, 7.76 374 C16.86 386.77, 34.28 387.51, 53.72 393.51 C73.16 399.52, 99.97 406.34, 124.42 410.03 C148.86 413.73, 176.86 415.71, 200.38 415.68 C223.9 415.64, 244.37 412.24, 265.53 409.84 C286.68 407.45, 307.19 407.65, 327.29 401.31 C347.4 394.97, 375.52 385.98, 386.15 371.82 C396.79 357.66, 389.61 371.13, 391.1 316.38 C392.59 261.63, 395.23 96.08, 395.09 43.32 C394.95 -9.45, 399.37 11.29, 390.29 -0.22 C381.21 -11.72, 358.27 -19.3, 340.62 -25.71 C322.97 -32.13, 305.38 -35.92, 284.37 -38.7 C263.36 -41.49, 233.78 -41.92, 214.54 -42.42 C195.31 -42.93, 192.76 -42.96, 168.97 -41.71 C145.19 -40.46, 99.92 -41.72, 71.85 -34.91 C43.79 -28.11, 12.42 -6.56, 0.6 -0.85 M0.82 -0.56 C1.09 51.91, 0.31 253.18, 1.42 315.29 C2.52 377.41, -1.26 358.95, 7.44 372.12 C16.14 385.29, 33.86 387.97, 53.63 394.29 C73.41 400.62, 101.46 406.61, 126.08 410.06 C150.71 413.51, 178.05 414.71, 201.37 414.98 C224.69 415.26, 245.1 413.93, 265.98 411.69 C286.86 409.45, 306.37 408.36, 326.65 401.57 C346.93 394.78, 376.79 385.17, 387.65 370.93 C398.51 356.69, 390.46 370.54, 391.81 316.13 C393.15 261.71, 396.14 97.14, 395.72 44.45 C395.3 -8.24, 398.41 11.86, 389.28 -0.03 C380.14 -11.92, 358 -20.38, 340.92 -26.88 C323.83 -33.37, 307.71 -36.32, 286.76 -39 C265.81 -41.69, 234.62 -42.18, 215.21 -42.98 C195.79 -43.77, 194.36 -45.16, 170.26 -43.79 C146.16 -42.42, 99.07 -41.9, 70.63 -34.76 C42.19 -27.62, 11.39 -6.6, -0.37 -0.93" stroke="#364fc7" stroke-width="1" fill="none"></path></g></g><mask></mask><g stroke-linecap="round" transform="translate(490.62604105796345 1795.176706245129) rotate(0 196.90156653221857 53.53652759728175)"><path d="M109.19 6.53 C125.13 3.53, 147.48 1.9, 167.42 1.07 C187.36 0.24, 208.73 0.68, 228.83 1.56 C248.93 2.45, 269.93 4, 288 6.38 C306.07 8.77, 322.94 12.15, 337.25 15.89 C351.55 19.62, 364.85 23.67, 373.85 28.78 C382.85 33.88, 388.22 41.02, 391.24 46.52 C394.27 52.02, 395.42 56.38, 392.01 61.77 C388.6 67.16, 380.3 73.77, 370.77 78.85 C361.25 83.93, 349.19 88.54, 334.87 92.23 C320.55 95.91, 302.86 98.47, 284.85 100.96 C266.84 103.45, 246.85 106.25, 226.81 107.15 C206.77 108.06, 184.75 107.23, 164.62 106.37 C144.49 105.5, 124 104.45, 106.02 101.97 C88.04 99.48, 70.97 95.65, 56.73 91.43 C42.5 87.21, 29.76 81.54, 20.59 76.64 C11.43 71.75, 4.68 67.35, 1.75 62.06 C-1.18 56.78, -0.42 50.37, 3.02 44.94 C6.46 39.51, 12.95 34.48, 22.4 29.48 C31.86 24.48, 42.71 19.18, 59.75 14.95 C76.79 10.72, 111.04 6.06, 124.65 4.08 C138.25 2.1, 140.24 2.45, 141.4 3.08 M286.59 5.46 C305.28 7.21, 321.92 11.44, 336.14 15.27 C350.36 19.11, 362.77 23.66, 371.9 28.46 C381.03 33.27, 387.58 38.52, 390.91 44.1 C394.24 49.68, 394.89 56.36, 391.88 61.94 C388.87 67.52, 381.88 72.46, 372.84 77.58 C363.79 82.7, 351.89 88.75, 337.59 92.67 C323.29 96.59, 305.26 99.02, 287.04 101.09 C268.82 103.16, 248.52 104.03, 228.27 105.1 C208.02 106.17, 185.38 108.24, 165.55 107.51 C145.71 106.77, 127.22 103.33, 109.26 100.68 C91.29 98.04, 72.42 95.26, 57.75 91.66 C43.08 88.05, 30.24 83.82, 21.26 79.06 C12.28 74.29, 6.81 68.52, 3.9 63.07 C0.98 57.61, 0.71 52.03, 3.76 46.32 C6.82 40.6, 13.12 34.06, 22.24 28.78 C31.36 23.49, 44.34 18.23, 58.46 14.61 C72.58 10.99, 89.28 9.44, 106.94 7.07 C124.6 4.69, 144.28 1.27, 164.42 0.37 C184.56 -0.53, 207.51 0.89, 227.79 1.66 C248.07 2.43, 276.58 4.02, 286.12 4.99 C295.66 5.96, 286.69 6.79, 285.01 7.48" stroke="none" stroke-width="0" fill="#ffffff"></path><path d="M264.7 2.49 C283.64 3.49, 302.27 7.34, 318.36 10.85 C334.45 14.36, 350.04 18.73, 361.27 23.53 C372.49 28.34, 380.16 34.43, 385.71 39.66 C391.27 44.89, 395.16 49.51, 394.6 54.91 C394.04 60.3, 389.5 66.63, 382.36 72.01 C375.22 77.39, 364.41 82.76, 351.75 87.21 C339.09 91.66, 323.15 95.72, 306.38 98.72 C289.62 101.71, 270.8 103.95, 251.15 105.19 C231.5 106.42, 208.92 106.28, 188.46 106.13 C168.01 105.98, 147.35 105.98, 128.42 104.28 C109.49 102.58, 90.68 99.45, 74.88 95.95 C59.07 92.45, 45.01 87.86, 33.6 83.29 C22.19 78.72, 12.1 73.71, 6.4 68.52 C0.71 63.34, -1.43 57.73, -0.55 52.17 C0.33 46.61, 4.68 40.36, 11.68 35.18 C18.68 30, 28.84 25.58, 41.45 21.08 C54.06 16.59, 70.39 11.42, 87.33 8.19 C104.26 4.96, 123.5 3.07, 143.06 1.7 C162.62 0.33, 182.12 -0.44, 204.7 -0.04 C227.29 0.37, 264.64 2.93, 278.59 4.12 C292.53 5.31, 289.9 6.31, 288.36 7.1 M123.26 5.36 C139.76 2.49, 162.31 -0.29, 182.58 -0.98 C202.86 -1.68, 225.3 -0.1, 244.9 1.18 C264.49 2.46, 282.92 3.69, 300.17 6.7 C317.42 9.72, 335.17 14.64, 348.4 19.27 C361.62 23.91, 372.19 29.37, 379.55 34.52 C386.91 39.66, 391.3 44.71, 392.55 50.13 C393.79 55.56, 391.78 61.81, 387 67.07 C382.21 72.33, 374.04 77.37, 363.82 81.69 C353.59 86.01, 341.1 89.31, 325.64 92.99 C310.19 96.67, 289.9 101.47, 271.09 103.77 C252.28 106.06, 232.91 106.26, 212.8 106.76 C192.69 107.26, 170.14 108.28, 150.44 106.79 C130.75 105.29, 112.07 100.94, 94.6 97.79 C77.13 94.64, 58.96 91.96, 45.63 87.88 C32.3 83.79, 22.32 78.37, 14.61 73.27 C6.89 68.16, 0.85 62.45, -0.66 57.24 C-2.17 52.03, 0.57 47.12, 5.53 42.01 C10.5 36.91, 18.58 31.32, 29.12 26.62 C39.66 21.92, 53.03 17.42, 68.78 13.79 C84.53 10.15, 114.49 6.23, 123.64 4.82 C132.78 3.41, 122.59 4.56, 123.65 5.33" stroke="#364fc7" stroke-width="1" fill="none"></path></g><g transform="translate(498.3860768320337 2261.8926698305513) rotate(0 192.52033497898628 48.61624620681505)"><text x="192.5203349789866" y="0" font-family="Virgil, Segoe UI Emoji" font-size="77.78599393090367px" fill="#000000" text-anchor="middle" style="white-space: pre;" direction="ltr" dominant-baseline="text-before-edge">Database</text></g><g stroke-opacity="0" fill-opacity="0" stroke-linecap="round" transform="translate(1279.1527890508842 1680.1242890807116) rotate(0 193.2731007059865 193.2731007059865)"><path d="M209.18 0.76 C225.93 -1.11, 243.7 5.95, 260.03 11.82 C276.35 17.69, 293.01 25.87, 307.11 36 C321.2 46.13, 334.02 58.88, 344.59 72.61 C355.17 86.35, 363.73 102.44, 370.56 118.41 C377.39 134.39, 383.14 151.36, 385.55 168.47 C387.95 185.59, 387.65 203.71, 385 221.1 C382.34 238.49, 376.84 256.79, 369.64 272.84 C362.44 288.89, 352.8 304.1, 341.82 317.42 C330.83 330.73, 318.09 343.01, 303.7 352.73 C289.31 362.46, 271.86 370.31, 255.47 375.77 C239.09 381.23, 222.66 384.51, 205.39 385.5 C188.12 386.48, 168.85 385.33, 151.87 381.68 C134.89 378.03, 118.97 371.76, 103.51 363.62 C88.05 355.47, 71.74 344.82, 59.1 332.82 C46.46 320.81, 36.43 306.46, 27.68 291.58 C18.93 276.69, 11.27 260.11, 6.6 243.51 C1.94 226.92, -0.45 209.49, -0.32 192.01 C-0.19 174.53, 2.48 155.37, 7.38 138.63 C12.27 121.89, 19.73 106.34, 29.07 91.56 C38.41 76.78, 50.47 61.82, 63.43 49.95 C76.39 38.09, 91.43 28.16, 106.84 20.4 C122.25 12.63, 137.22 6.6, 155.89 3.35 C174.57 0.09, 206.65 0.27, 218.9 0.85 C231.14 1.42, 229.79 3.6, 229.34 6.81 M281 22.59 C296.92 27.58, 310.37 40.27, 323.31 51.92 C336.24 63.57, 349.34 77.54, 358.61 92.48 C367.87 107.42, 374.11 124.82, 378.9 141.58 C383.7 158.34, 387.44 175.98, 387.39 193.04 C387.33 210.1, 383.57 227.38, 378.58 243.94 C373.58 260.49, 366.31 277.16, 357.41 292.38 C348.52 307.59, 337.51 322.97, 325.22 335.21 C312.92 347.45, 299.09 357.72, 283.64 365.81 C268.18 373.9, 249.83 380.3, 232.48 383.73 C215.13 387.15, 196.73 387.73, 179.52 386.36 C162.32 384.99, 145.24 381.26, 129.25 375.5 C113.27 369.75, 98.04 361.86, 83.63 351.84 C69.22 341.81, 54.26 328.71, 42.82 315.35 C31.37 301.98, 21.76 287.5, 14.96 271.66 C8.16 255.81, 4.4 237.75, 2.01 220.3 C-0.39 202.84, -1.57 184.06, 0.6 166.93 C2.76 149.81, 7.91 133.27, 15 117.55 C22.08 101.84, 32.18 86.17, 43.13 72.64 C54.08 59.12, 66.5 46.68, 80.71 36.39 C94.92 26.09, 112.17 17.04, 128.38 10.88 C144.6 4.71, 160.75 0.58, 178 -0.62 C195.25 -1.81, 214.86 0, 231.9 3.7 C248.93 7.39, 272.48 18.27, 280.2 21.54 C287.93 24.8, 279.61 20.46, 278.26 23.31" stroke="none" stroke-width="0" fill="#b2f2bb"></path><path d="M112 18.06 C125.69 8.29, 145.18 5.06, 162.26 2.13 C179.34 -0.8, 197.49 -1.38, 214.47 0.49 C231.44 2.36, 248.09 6.83, 264.12 13.36 C280.16 19.9, 296.68 28.94, 310.66 39.7 C324.64 50.47, 337.58 64.09, 348 77.95 C358.42 91.82, 367.04 106.8, 373.16 122.88 C379.28 138.97, 383.03 157.14, 384.73 174.47 C386.43 191.8, 386.13 209.71, 383.36 226.85 C380.59 243.99, 375.54 261.57, 368.1 277.29 C360.67 293.01, 350.43 308.22, 338.76 321.15 C327.08 334.08, 312.54 345.58, 298.05 354.86 C283.56 364.14, 268.32 371.59, 251.83 376.84 C235.34 382.1, 216.73 385.78, 199.13 386.39 C181.52 386.99, 162.96 384.79, 146.21 380.47 C129.46 376.15, 113.79 369.08, 98.63 360.48 C83.47 351.88, 67.64 341, 55.23 328.88 C42.83 316.76, 32.55 303.01, 24.2 287.78 C15.85 272.54, 9.3 254.62, 5.14 237.46 C0.97 220.3, -1.49 202.1, -0.79 184.82 C-0.08 167.54, 3.8 150.31, 9.36 133.8 C14.92 117.29, 23.09 100.08, 32.57 85.77 C42.05 71.46, 52.67 59.53, 66.25 47.94 C79.83 36.35, 105.18 20.93, 114.06 16.23 C122.94 11.53, 118.11 16.77, 119.51 19.73 M142.29 6.02 C157.29 -0.93, 178.42 0.56, 195.9 0.74 C213.38 0.91, 230.67 2.12, 247.16 7.09 C263.66 12.05, 280.13 20.98, 294.88 30.5 C309.63 40.03, 323.94 51.33, 335.68 64.23 C347.42 77.13, 357.44 92.58, 365.32 107.91 C373.19 123.25, 379.45 139.45, 382.93 156.24 C386.42 173.03, 387.45 191.17, 386.23 208.65 C385.01 226.13, 381.78 244.75, 375.62 261.12 C369.45 277.48, 359.69 292.68, 349.25 306.83 C338.81 320.98, 326.32 335.22, 313 346.02 C299.68 356.82, 285.14 365.13, 269.33 371.63 C253.53 378.14, 235.79 382.87, 218.18 385.04 C200.58 387.21, 180.89 387.24, 163.69 384.63 C146.48 382.02, 130.77 376.44, 114.96 369.38 C99.15 362.32, 82.23 353.55, 68.84 342.28 C55.45 331.01, 44.28 315.97, 34.62 301.76 C24.95 287.54, 16.42 273.26, 10.86 256.98 C5.29 240.71, 2.46 221.86, 1.2 204.11 C-0.05 186.37, -0.12 167.37, 3.31 150.51 C6.73 133.64, 13.28 118.23, 21.77 102.92 C30.25 87.61, 41.94 71.35, 54.22 58.67 C66.51 45.99, 80.4 35.37, 95.47 26.84 C110.54 18.32, 136.67 10.11, 144.64 7.52 C152.6 4.93, 142.63 8.26, 143.26 11.32" stroke="#1e1e1e" stroke-width="1" fill="none"></path></g><g stroke-linecap="round"><g transform="translate(1401.1975327977889 1748.9589324412336) rotate(0 63.316629676002776 77.70608019632527)" fill-rule="evenodd"><path d="M0.87 1.12 L-0.65 156.43 L126.21 155.09 L128.6 43.99 L87.51 45.39 L87.03 0.04 L126.41 45.96 L83.15 -0.53 L-0.88 1.59" stroke="none" stroke-width="0" fill="#b2f2bb" fill-rule="evenodd"></path><path d="M0 0 C-0.33 57.66, 0.39 118.22, 0 155.41 M0 0 C-1.44 59.85, -1.27 121.39, 0 155.41 M0 155.41 C35.9 153.79, 71.01 154.57, 126.87 155.41 M0 155.41 C35.46 154.96, 70.74 154.09, 126.87 155.41 M126.87 155.41 C126.15 127.86, 124.98 99.88, 126.87 44.4 M126.87 155.41 C127.36 112.08, 128.35 68.91, 126.87 44.4 M126.87 44.4 C117.41 43.78, 108.65 42.57, 86.04 44.4 M126.87 44.4 C116.96 44.26, 109.03 44.26, 86.04 44.4 M86.04 44.4 C84.81 31.8, 85.59 22.62, 86.04 1.59 M86.04 44.4 C85.61 30.22, 85.88 15.32, 86.04 1.59 M86.04 1.59 C96.74 12.97, 106.99 24.91, 126.87 44.4 M86.04 1.59 C100.17 17.64, 115.78 32.08, 126.87 44.4 M126.87 44.4 C111.66 29.08, 95.57 10.77, 84.58 0 M126.87 44.4 C112.55 29.8, 98.37 13.82, 84.58 0 M84.58 0 C67.2 0.12, 46.68 0.12, 0 0 M84.58 0 C58.64 1.27, 34.29 1.02, 0 0 M0 0 C0 0, 0 0, 0 0 M0 0 C0 0, 0 0, 0 0" stroke="#1e1e1e" stroke-width="1" fill="none"></path></g></g><mask></mask><g transform="translate(1214.2092302109704 1918.70137903485) rotate(0 258.21665954589844 41.38350714735316)"><text x="258.21665954589844" y="0" font-family="Virgil, Segoe UI Emoji" font-size="66.21361143576574px" fill="#1e1e1e" text-anchor="middle" style="white-space: pre;" direction="ltr" dominant-baseline="text-before-edge">WAL information</text></g><g stroke-linecap="round"><g transform="translate(1078.259223090201 2098.2918289108457) rotate(0 405.02282733357606 0.8413550770073925)"><path d="M0.07 -0.1 C135.02 0.22, 674.86 1.5, 809.86 1.78 M-0.08 0.17 C134.91 0.46, 675.11 1.31, 810.13 1.58" stroke="#1e1e1e" stroke-width="4" fill="none"></path></g><g transform="translate(1078.259223090201 2098.2918289108457) rotate(0 405.02282733357606 0.8413550770073925)"><path d="M781.92 11.79 C792.65 7.55, 803.99 3.99, 810.13 1.58 M781.92 11.79 C789.46 8.94, 797.29 6.16, 810.13 1.58" stroke="#1e1e1e" stroke-width="4" fill="none"></path></g><g transform="translate(1078.259223090201 2098.2918289108457) rotate(0 405.02282733357606 0.8413550770073925)"><path d="M781.95 -8.73 C792.65 -5.03, 803.98 -0.65, 810.13 1.58 M781.95 -8.73 C789.51 -5.99, 797.33 -3.18, 810.13 1.58" stroke="#1e1e1e" stroke-width="4" fill="none"></path></g></g><mask></mask><g transform="translate(556.5925564235367 2405.5783280158394) rotate(0 148.41203689575195 55.523417114171025)"><text x="0" y="0" font-family="Virgil, Segoe UI Emoji" font-size="88.83746738267335px" fill="#f08c00" text-anchor="start" style="white-space: pre;" direction="ltr" dominant-baseline="text-before-edge">primary</text></g><g transform="translate(2064.8471861944527 2399.4350784633425) rotate(0 168.56666564941406 55.523417114171025)"><text x="0" y="0" font-family="Virgil, Segoe UI Emoji" font-size="88.83746738267335px" fill="#f08c00" text-anchor="start" style="white-space: pre;" direction="ltr" dominant-baseline="text-before-edge">standby</text></g><g transform="translate(1133.2592230902046 2171.625162244185) rotate(0 359.1075974849264 113.33333333333212)"><text x="0" y="0" font-family="Virgil, Segoe UI Emoji" font-size="60.4444444444438px" fill="#1e1e1e" text-anchor="start" style="white-space: pre;" direction="ltr" dominant-baseline="text-before-edge">primary directly moves </text><text x="0" y="75.55555555555475" font-family="Virgil, Segoe UI Emoji" font-size="60.4444444444438px" fill="#1e1e1e" text-anchor="start" style="white-space: pre;" direction="ltr" dominant-baseline="text-before-edge">WAL records / segments</text><text x="0" y="151.1111111111095" font-family="Virgil, Segoe UI Emoji" font-size="60.4444444444438px" fill="#1e1e1e" text-anchor="start" style="white-space: pre;" direction="ltr" dominant-baseline="text-before-edge">to the standby</text></g><g transform="translate(1577.48144305186 1708.2918289108493) rotate(0 189.52222640426407 30.83333333333394)"><text x="0" y="0" font-family="Virgil, Segoe UI Emoji" font-size="49.33333333333431px" fill="#1e1e1e" text-anchor="start" style="white-space: pre;" direction="ltr" dominant-baseline="text-before-edge">(16MB at most)</text></g><g transform="translate(2106.5925564235367 2588.2918289108493) rotate(0 832.407445083436 104.16666666666788)"><text x="0" y="0" font-family="Virgil, Segoe UI Emoji" font-size="55.555555555556026px" fill="#2f9e44" text-anchor="start" style="white-space: pre;" direction="ltr" dominant-baseline="text-before-edge">Recovery performance is sufficiently good that the standby </text><text x="0" y="69.44444444444503" font-family="Virgil, Segoe UI Emoji" font-size="55.555555555556026px" fill="#2f9e44" text-anchor="start" style="white-space: pre;" direction="ltr" dominant-baseline="text-before-edge">will typically be only moments away from full availability once</text><text x="0" y="138.88888888889005" font-family="Virgil, Segoe UI Emoji" font-size="55.555555555556026px" fill="#2f9e44" text-anchor="start" style="white-space: pre;" direction="ltr" dominant-baseline="text-before-edge">it has been activated.</text></g><g transform="translate(53.259223090204614 2914.958495577517) rotate(0 1867.7499999999654 103.33333333333394)"><text x="0" y="0" font-family="Virgil, Segoe UI Emoji" font-size="82.66666666666701px" fill="#e03131" text-anchor="start" style="white-space: pre;" direction="ltr" dominant-baseline="text-before-edge">Restoring a server from an archived base backup and rollforward will take considerably </text><text x="0" y="103.33333333333377" font-family="Virgil, Segoe UI Emoji" font-size="82.66666666666701px" fill="#e03131" text-anchor="start" style="white-space: pre;" direction="ltr" dominant-baseline="text-before-edge">longer, so that technique only offers a solution for disaster recovery, not high availability.</text></g><g transform="translate(2556.5925564235367 1683.2918289108493) rotate(0 322.5592481825188 51.30242777629064)"><text x="0" y="0" font-family="Virgil, Segoe UI Emoji" font-size="82.08388444206649px" fill="#f08c00" text-anchor="start" style="white-space: pre;" direction="ltr" dominant-baseline="text-before-edge">archive_timeout</text></g><g transform="translate(2551.5925564235367 1808.2918289108493) rotate(0 628.74072265625 40)"><text x="0" y="0" font-family="Virgil, Segoe UI Emoji" font-size="64px" fill="#1e1e1e" text-anchor="start" style="white-space: pre;" direction="ltr" dominant-baseline="text-before-edge">can be used to tune the replication lag</text></g><g transform="translate(3041.5925564235404 2013.2918289108493) rotate(0 447.2749938964844 95)"><text x="0" y="0" font-family="Virgil, Segoe UI Emoji" font-size="75.99999999999999px" fill="#e03131" text-anchor="start" style="white-space: pre;" direction="ltr" dominant-baseline="text-before-edge">increase the bandwidth</text><text x="0" y="94.99999999999999" font-family="Virgil, Segoe UI Emoji" font-size="75.99999999999999px" fill="#e03131" text-anchor="start" style="white-space: pre;" direction="ltr" dominant-baseline="text-before-edge">required for file shipping</text></g><g stroke-linecap="round"><g transform="translate(3006.5925564235367 2068.2918289108493) rotate(0 -107.84293764904032 -73.36633129357688)"><path d="M0.33 -0.41 C-35.47 -24.66, -180.12 -120.54, -216.02 -144.47 M-0.95 -1.68 C-36.28 -25.76, -178.02 -122.3, -213.84 -146.32" stroke="#e03131" stroke-width="4" fill="none"></path></g><g transform="translate(3006.5925564235367 2068.2918289108493) rotate(0 -107.84293764904032 -73.36633129357688)"><path d="M-184.75 -139.02 C-191.32 -142.1, -195.58 -142, -213.84 -146.32 M-184.75 -139.02 C-195.86 -142.6, -207.42 -145.36, -213.84 -146.32" stroke="#e03131" stroke-width="4" fill="none"></path></g><g transform="translate(3006.5925564235367 2068.2918289108493) rotate(0 -107.84293764904032 -73.36633129357688)"><path d="M-196.25 -122.02 C-200.66 -128.54, -202.62 -131.84, -213.84 -146.32 M-196.25 -122.02 C-202.93 -132.19, -210.06 -141.49, -213.84 -146.32" stroke="#e03131" stroke-width="4" fill="none"></path></g></g><mask></mask><g transform="translate(2556.5925564235367 2288.2918289108493) rotate(0 1013.308349609375 95)"><text x="0" y="0" font-family="Virgil, Segoe UI Emoji" font-size="76px" fill="#f08c00" text-anchor="start" style="white-space: pre;" direction="ltr" dominant-baseline="text-before-edge">Streaming granular WAL records (not entire segments)</text><text x="0" y="95" font-family="Virgil, Segoe UI Emoji" font-size="76px" fill="#f08c00" text-anchor="start" style="white-space: pre;" direction="ltr" dominant-baseline="text-before-edge"></text></g><g transform="translate(2576.5925564235367 2398.2918289108493) rotate(0 799.8120456271645 47.5)"><text x="0" y="0" font-family="Virgil, Segoe UI Emoji" font-size="75.9999999999995px" fill="#f08c00" text-anchor="start" style="white-space: pre;" direction="ltr" dominant-baseline="text-before-edge">allows a much smaller window of data loss</text></g><g transform="translate(492.7777235242356 3253.2918289108493) rotate(0 1603.5916748046875 80.84743785656246)"><text x="0" y="0" font-family="Virgil, Segoe UI Emoji" font-size="129.35590057049944px" fill="#f08c00" text-anchor="start" style="white-space: pre;" direction="ltr" dominant-baseline="text-before-edge">Log shipping replication is asynchronous by default</text></g></svg>