<svg version="1.1" xmlns="http://www.w3.org/2000/svg" viewBox="0 0 3477.3499755859375 2097.9992454911626" width="3477.3499755859375" height="2097.9992454911626">
  <!-- svg-source:excalidraw -->
  
  <defs>
    <style class="style-fonts">
      @font-face {
        font-family: "Virgil";
        src: url("https://excalidraw.com/Virgil.woff2");
      }
      @font-face {
        font-family: "Cascadia";
        src: url("https://excalidraw.com/Cascadia.woff2");
      }
    </style>
    
  </defs>
  <g transform="translate(1076.5391540950877 128.43322274670936) rotate(0 166.16996437871967 34.61306501667423)"><text x="0" y="0" font-family="Virgil, Segoe UI Emoji" font-size="55.3809040266776px" fill="#1e1e1e" text-anchor="start" style="white-space: pre;" direction="ltr" dominant-baseline="text-before-edge">Architecture</text></g><g stroke-linecap="round"><g transform="translate(1149.449622043623 1575.1644758462353) rotate(0 105.68810076779664 100.11225764649862)" fill-rule="evenodd"><path d="M-0.42 -0.6 C-0.12 28.01, 0.43 135.59, 1.07 169.39 C1.71 203.19, -1.46 195.04, 3.42 202.21 C8.3 209.37, 19.36 209.43, 30.38 212.39 C41.39 215.36, 56.44 218.12, 69.52 220.01 C82.59 221.9, 96.23 223.68, 108.84 223.74 C121.46 223.8, 134 221.98, 145.2 220.38 C156.41 218.78, 165.95 217.29, 176.06 214.14 C186.17 210.98, 199.99 208.99, 205.87 201.42 C211.75 193.86, 210.65 198.8, 211.36 168.74 C212.07 138.67, 210.9 49.67, 210.15 21.05 C209.39 -7.57, 211.37 2.9, 206.83 -2.98 C202.29 -8.86, 191.97 -11.59, 182.93 -14.23 C173.88 -16.87, 163.54 -17.5, 152.57 -18.84 C141.59 -20.18, 127.33 -21.99, 117.07 -22.28 C106.81 -22.57, 103.97 -20.9, 91 -20.59 C78.03 -20.28, 54.35 -23.58, 39.23 -20.4 C24.1 -17.21, 7.04 -4.6, 0.24 -1.48" stroke="none" stroke-width="0" fill="#fa5252" fill-rule="evenodd"></path><path d="M-0.65 -0.97 C-0.59 27.31, -1.09 135.57, -0.22 169.23 C0.65 202.89, -0.34 193.84, 4.57 200.98 C9.49 208.12, 18.85 208.97, 29.28 212.07 C39.71 215.17, 53.96 217.93, 67.15 219.58 C80.34 221.23, 95.71 221.86, 108.41 221.97 C121.12 222.09, 132.15 221.56, 143.39 220.27 C154.63 218.98, 165.24 217.86, 175.85 214.22 C186.45 210.58, 201.29 205.92, 207.02 198.42 C212.74 190.93, 209.45 198.49, 210.17 169.25 C210.9 140.01, 211.34 51.26, 211.35 22.97 C211.36 -5.31, 215.07 5.66, 210.25 -0.46 C205.42 -6.57, 191.83 -10.23, 182.4 -13.73 C172.96 -17.22, 164.78 -19.98, 153.63 -21.45 C142.47 -22.92, 126.11 -22.47, 115.49 -22.55 C104.86 -22.63, 102.67 -22.84, 89.88 -21.92 C77.1 -21, 53.83 -20.6, 38.78 -17.04 C23.73 -13.47, 6.16 -3.43, -0.42 -0.51 M1.21 1.13 C1.15 29.61, -1.8 137.55, -1.29 170.52 C-0.78 203.48, -0.88 191.8, 4.26 198.94 C9.4 206.08, 19.35 209.95, 29.57 213.37 C39.78 216.79, 52.76 217.64, 65.56 219.43 C78.36 221.22, 93.22 223.61, 106.35 224.1 C119.48 224.6, 132.88 224.17, 144.33 222.4 C155.78 220.64, 164.36 217.19, 175.06 213.5 C185.76 209.82, 202.55 207.78, 208.53 200.29 C214.52 192.8, 210.49 197.95, 210.97 168.55 C211.44 139.15, 211.65 52.09, 211.38 23.88 C211.12 -4.33, 214.21 5.7, 209.38 -0.73 C204.54 -7.16, 191.75 -11.13, 182.37 -14.69 C172.99 -18.24, 164.12 -20.67, 153.08 -22.05 C142.04 -23.43, 126.55 -22.68, 116.13 -22.98 C105.72 -23.29, 103.68 -24.51, 90.59 -23.9 C77.51 -23.3, 52.44 -23.28, 37.64 -19.37 C22.83 -15.45, 7.81 -3.81, 1.74 -0.41" stroke="#c92a2a" stroke-width="1" fill="none"></path></g></g><mask></mask><g stroke-linecap="round" transform="translate(1148.6694589665894 1549.417843248346) rotate(0 105.75877531259357 28.755269411485642)"><path d="M95.34 -0.08 C108.91 -0.57, 125.94 0.98, 139.62 2.39 C153.31 3.8, 167.08 6, 177.46 8.38 C187.83 10.77, 196.26 13.21, 201.86 16.7 C207.47 20.18, 211.06 25.42, 211.11 29.29 C211.15 33.16, 208.06 36.34, 202.14 39.91 C196.22 43.48, 186.25 47.87, 175.56 50.72 C164.87 53.57, 151.59 55.84, 138.01 57 C124.42 58.17, 108.43 58.21, 94.06 57.72 C79.69 57.22, 64.1 56.04, 51.78 54.03 C39.45 52.01, 28.36 48.8, 20.11 45.61 C11.86 42.43, 5.03 38.65, 2.27 34.9 C-0.49 31.15, 0.36 26.88, 3.55 23.1 C6.73 19.32, 12.95 15.57, 21.38 12.22 C29.81 8.87, 40.77 4.9, 54.13 3 C67.48 1.1, 92.73 1.1, 101.52 0.82 C110.32 0.54, 106.86 0.85, 106.89 1.31 M85.24 1.96 C98.26 0.5, 115.83 -0.88, 129.71 -0.32 C143.59 0.24, 157.29 2.71, 168.51 5.34 C179.74 7.97, 189.76 11.83, 197.06 15.47 C204.35 19.11, 210.96 23.17, 212.27 27.17 C213.58 31.16, 209.56 35.87, 204.93 39.43 C200.3 43, 194.25 45.88, 184.5 48.55 C174.76 51.21, 159.7 53.85, 146.47 55.43 C133.24 57, 119.54 58, 105.11 57.99 C90.67 57.98, 73.29 56.87, 59.87 55.38 C46.45 53.89, 33.62 52, 24.59 49.07 C15.55 46.15, 9.51 41.92, 5.64 37.82 C1.78 33.71, 0 28.48, 1.39 24.45 C2.78 20.43, 6.93 16.63, 13.99 13.64 C21.05 10.66, 31.57 8.56, 43.75 6.53 C55.93 4.49, 80.17 2.36, 87.07 1.43 C93.97 0.51, 84.86 0.76, 85.15 0.98" stroke="none" stroke-width="0" fill="#ffffff"></path><path d="M143.18 1.65 C156.28 2.57, 169.05 5.71, 179.08 8.55 C189.12 11.4, 198.07 15.07, 203.41 18.72 C208.75 22.36, 211.73 26.71, 211.13 30.4 C210.52 34.09, 206.24 37.43, 199.77 40.86 C193.31 44.29, 183.36 48.47, 172.32 50.99 C161.29 53.52, 147.29 54.84, 133.56 56.02 C119.83 57.19, 104.01 58.62, 89.93 58.05 C75.86 57.48, 61.21 54.79, 49.11 52.59 C37.01 50.4, 25.36 47.97, 17.31 44.86 C9.26 41.76, 3.08 37.95, 0.79 33.98 C-1.49 30.01, -0.23 24.85, 3.59 21.02 C7.41 17.19, 14.66 14.04, 23.71 11.02 C32.77 8, 45.38 4.82, 57.91 2.89 C70.45 0.97, 83.83 -0.41, 98.95 -0.53 C114.07 -0.66, 139.87 1.47, 148.64 2.13 C157.42 2.79, 152.41 2.87, 151.59 3.43 M99.39 0.5 C113.12 -0.43, 130.09 0.04, 143.51 1.39 C156.93 2.75, 169.59 5.88, 179.91 8.63 C190.22 11.38, 200.06 14.46, 205.39 17.91 C210.71 21.36, 212.84 25.2, 211.85 29.34 C210.86 33.49, 205.7 39.31, 199.44 42.79 C193.18 46.27, 185.26 48.17, 174.28 50.23 C163.3 52.29, 147.73 54.21, 133.57 55.15 C119.41 56.08, 103.31 56.26, 89.3 55.84 C75.29 55.43, 61.48 54.29, 49.51 52.63 C37.53 50.97, 25.23 49, 17.46 45.9 C9.69 42.79, 5.22 37.8, 2.89 33.99 C0.57 30.18, 0.16 27.1, 3.51 23.04 C6.87 18.97, 14.17 13.05, 23 9.61 C31.83 6.18, 44.05 4.19, 56.5 2.42 C68.96 0.66, 90.48 -0.65, 97.72 -0.97 C104.96 -1.3, 99.61 -0.3, 99.95 0.49" stroke="#c92a2a" stroke-width="1" fill="none"></path></g><g transform="translate(1150.2729235763 1799.342527248882) rotate(0 103.40555034038334 26.112512712217722)"><text x="103.40555034038418" y="0" font-family="Virgil, Segoe UI Emoji" font-size="41.780020339549154px" fill="#000000" text-anchor="middle" style="white-space: pre;" direction="ltr" dominant-baseline="text-before-edge">Database</text></g><g stroke-linecap="round"><g transform="translate(1124.1215820005782 304.0822269642522) rotate(0 105.20475657032512 98.51292458160606)" fill-rule="evenodd"><path d="M2.39 -0.23 C2.37 27.46, 0.79 133.54, 0.66 166.97 C0.53 200.4, -3.27 193.45, 1.63 200.33 C6.53 207.22, 19.55 205.67, 30.09 208.28 C40.62 210.89, 52.45 214.37, 64.84 216 C77.23 217.64, 91.7 217.89, 104.43 218.11 C117.16 218.33, 129.85 217.95, 141.22 217.32 C152.59 216.69, 161.56 217.62, 172.64 214.31 C183.72 210.99, 201.77 204.83, 207.71 197.44 C213.64 190.04, 207.82 199.39, 208.22 169.92 C208.62 140.44, 210.32 49.29, 210.12 20.6 C209.93 -8.09, 212.21 3.73, 207.06 -2.21 C201.91 -8.14, 188.18 -11.93, 179.24 -15.01 C170.31 -18.08, 164.27 -19.65, 153.43 -20.67 C142.59 -21.7, 125.09 -20.71, 114.19 -21.15 C103.3 -21.6, 100.82 -23.54, 88.06 -23.34 C75.31 -23.14, 52.68 -23.66, 37.66 -19.96 C22.64 -16.27, 4.31 -4.54, -2.05 -1.16" stroke="none" stroke-width="0" fill="#228be6" fill-rule="evenodd"></path><path d="M0.58 -0.34 C0.59 27.66, 0.08 134.11, 0.45 167.06 C0.81 200, -1.97 190.38, 2.78 197.33 C7.52 204.29, 18.36 205.36, 28.9 208.79 C39.45 212.22, 52.89 215.96, 66.05 217.93 C79.2 219.91, 95.41 220.65, 107.85 220.64 C120.29 220.62, 129.72 219.31, 140.69 217.82 C151.66 216.33, 162.79 215.14, 173.7 211.7 C184.6 208.25, 200.55 204.34, 206.12 197.16 C211.69 189.97, 206.51 197.45, 207.1 168.59 C207.69 139.72, 209.79 52.27, 209.68 23.96 C209.56 -4.34, 211.33 4.89, 206.4 -1.24 C201.47 -7.37, 189.28 -9.44, 180.08 -12.82 C170.88 -16.21, 162.33 -19.88, 151.21 -21.55 C140.09 -23.22, 123.57 -22.64, 113.37 -22.83 C103.16 -23.01, 102.56 -23.59, 89.99 -22.63 C77.43 -21.67, 52.88 -20.89, 37.98 -17.06 C23.08 -13.23, 6.73 -2.45, 0.58 0.35 M-0.58 -1.57 C-0.71 26.65, -1.23 134.91, -0.27 168.22 C0.7 201.52, 0.3 191.34, 5.2 198.24 C10.11 205.15, 18.72 206.31, 29.17 209.64 C39.63 212.98, 55.12 216.56, 67.95 218.25 C80.78 219.93, 93.96 220.06, 106.15 219.75 C118.33 219.43, 129.96 217.81, 141.08 216.34 C152.19 214.87, 162.22 214.36, 172.83 210.95 C183.44 207.54, 198.98 202.97, 204.76 195.9 C210.55 188.84, 206.65 197.56, 207.55 168.56 C208.44 139.55, 209.96 50.29, 210.11 21.87 C210.26 -6.55, 213.46 3.94, 208.43 -1.94 C203.4 -7.81, 189.62 -10.6, 179.94 -13.39 C170.26 -16.18, 161.38 -16.97, 150.32 -18.66 C139.26 -20.36, 124.03 -23.07, 113.59 -23.54 C103.14 -24, 100.46 -22.14, 87.64 -21.47 C74.82 -20.79, 51.32 -23.24, 36.65 -19.51 C21.98 -15.78, 5.67 -2.33, -0.4 0.89" stroke="#364fc7" stroke-width="1" fill="none"></path></g></g><mask></mask><g stroke-linecap="round" transform="translate(1123.3503662351213 278.6308699960282) rotate(0 104.54587926293789 28.42548918688408)"><path d="M144.49 2.44 C158.54 3.52, 172.89 5.64, 182.97 8.74 C193.05 11.84, 200.78 16.82, 204.98 21.05 C209.18 25.27, 210.67 30.04, 208.19 34.09 C205.7 38.14, 198.98 42.06, 190.06 45.35 C181.14 48.65, 167.9 51.93, 154.66 53.87 C141.42 55.82, 125.65 56.81, 110.6 57.02 C95.56 57.22, 78.26 56.63, 64.39 55.11 C50.51 53.6, 37.33 50.96, 27.34 47.91 C17.36 44.86, 8.76 40.99, 4.51 36.81 C0.25 32.64, -0.76 26.89, 1.81 22.87 C4.39 18.84, 11.1 15.79, 19.93 12.68 C28.77 9.58, 41.63 6.23, 54.84 4.23 C68.06 2.24, 82.26 0.72, 99.22 0.7 C116.19 0.68, 145.24 3.21, 156.64 4.1 C168.03 5, 168.25 5.7, 167.6 6.08 M67.06 2.4 C80.34 0.88, 100.46 0.53, 115.58 1.03 C130.7 1.53, 144.81 3.39, 157.8 5.4 C170.79 7.4, 185.21 9.79, 193.52 13.05 C201.83 16.31, 205.73 20.81, 207.66 24.94 C209.58 29.07, 209.91 33.86, 205.07 37.83 C200.23 41.79, 189.54 45.62, 178.61 48.74 C167.68 51.86, 153.3 55.11, 139.48 56.55 C125.66 57.99, 110.44 58.16, 95.7 57.39 C80.97 56.63, 64.39 54.26, 51.08 51.98 C37.77 49.69, 24.46 46.77, 15.86 43.68 C7.27 40.59, 1.01 37.32, -0.51 33.44 C-2.04 29.56, 1.88 24.56, 6.71 20.42 C11.53 16.27, 17.99 11.78, 28.45 8.57 C38.91 5.37, 62.82 2.02, 69.46 1.21 C76.1 0.41, 67.76 3.12, 68.29 3.74" stroke="none" stroke-width="0" fill="#ffffff"></path><path d="M66.14 1.49 C79.03 -0.19, 97.25 0.62, 112.43 0.94 C127.61 1.27, 144.16 1.47, 157.22 3.43 C170.29 5.39, 182.47 9.16, 190.82 12.71 C199.16 16.26, 205.01 20.8, 207.31 24.74 C209.6 28.68, 208.85 32.47, 204.59 36.34 C200.33 40.21, 191.91 44.94, 181.73 47.98 C171.54 51.01, 157.76 53.19, 143.49 54.56 C129.22 55.93, 111.28 56.49, 96.11 56.18 C80.95 55.88, 65.68 54.72, 52.51 52.72 C39.35 50.73, 25.74 47.5, 17.13 44.22 C8.53 40.94, 2.99 37.11, 0.9 33.05 C-1.2 28.99, -0.08 23.8, 4.57 19.88 C9.21 15.96, 17.5 12.47, 28.77 9.54 C40.04 6.61, 64.03 3.58, 72.18 2.3 C80.33 1.02, 77.1 1.38, 77.65 1.85 M98.28 1.39 C112.61 0.76, 132.14 0.48, 146.09 1.65 C160.04 2.82, 172.38 5.43, 181.99 8.39 C191.61 11.35, 199.52 15.31, 203.77 19.4 C208.02 23.5, 209.98 28.48, 207.5 32.95 C205.01 37.41, 197.49 42.72, 188.85 46.19 C180.22 49.65, 168.87 51.74, 155.71 53.73 C142.55 55.72, 125.12 58.22, 109.87 58.13 C94.61 58.04, 78.11 55.19, 64.16 53.22 C50.21 51.24, 36.39 49.32, 26.18 46.29 C15.97 43.26, 6.81 38.87, 2.91 35.03 C-0.99 31.2, -0.11 27.03, 2.77 23.29 C5.64 19.56, 11.64 16.03, 20.15 12.63 C28.67 9.24, 40.68 5.21, 53.86 2.9 C67.04 0.6, 91.83 -0.7, 99.25 -1.21 C106.67 -1.71, 98.3 -0.82, 98.38 -0.11" stroke="#364fc7" stroke-width="1" fill="none"></path></g><g transform="translate(1127.4705963450033 526.4360634153709) rotate(0 102.21964228547768 25.813040981181985)"><text x="102.21964228547755" y="0" font-family="Virgil, Segoe UI Emoji" font-size="41.30086556988991px" fill="#000000" text-anchor="middle" style="white-space: pre;" direction="ltr" dominant-baseline="text-before-edge">Database</text></g><g stroke-opacity="0" fill-opacity="0" stroke-linecap="round" transform="translate(1107.34924462645 903.5643537552678) rotate(0 130.74284759441616 130.74284759441798)"><path d="M86.46 8.66 C98.34 2.09, 114.4 1.04, 128.39 0.68 C142.39 0.33, 156.88 2.37, 170.42 6.55 C183.97 10.74, 198.09 17.34, 209.65 25.78 C221.21 34.22, 232.01 45.57, 239.76 57.21 C247.51 68.84, 252.61 82.09, 256.13 95.59 C259.66 109.09, 261.63 123.85, 260.92 138.21 C260.21 152.56, 257.17 168.6, 251.89 181.71 C246.61 194.83, 238.53 206.26, 229.22 216.88 C219.91 227.51, 208.44 238.46, 196.04 245.47 C183.65 252.47, 168.89 256.32, 154.86 258.89 C140.82 261.47, 125.81 263.05, 111.84 260.93 C97.88 258.8, 83.6 252.92, 71.06 246.14 C58.53 239.36, 46.33 230.23, 36.66 220.25 C26.98 210.27, 18.94 198.89, 13.02 186.25 C7.1 173.62, 2.81 158.76, 1.12 144.44 C-0.56 130.12, -0.22 114.33, 2.89 100.33 C5.99 86.33, 12 72.13, 19.74 60.43 C27.49 48.72, 36.17 39.57, 49.36 30.09 C62.55 20.6, 88.57 7.71, 98.9 3.5 C109.22 -0.7, 110.93 2.74, 111.31 4.87 M190.36 14.94 C203.28 19.47, 216.69 31.64, 226.75 42.11 C236.81 52.58, 244.8 65.12, 250.72 77.76 C256.63 90.39, 261.23 103.9, 262.22 117.94 C263.2 131.98, 260.27 147.98, 256.61 162 C252.94 176.02, 247.52 190.13, 240.21 202.05 C232.91 213.98, 223.86 224.93, 212.79 233.54 C201.72 242.15, 187.34 249.29, 173.78 253.72 C160.21 258.15, 145.24 259.94, 131.42 260.1 C117.6 260.25, 104.25 258.67, 90.84 254.66 C77.42 250.65, 62.34 244.58, 50.95 236.04 C39.55 227.51, 30.3 215.55, 22.46 203.46 C14.62 191.36, 7.69 177.1, 3.9 163.48 C0.11 149.87, -1.55 135.59, -0.27 121.77 C1.01 107.94, 6.08 93.8, 11.58 80.55 C17.07 67.29, 23.54 53.01, 32.7 42.23 C41.86 31.45, 54.25 22.44, 66.55 15.88 C78.85 9.32, 92.31 5.42, 106.51 2.86 C120.72 0.31, 137.81 -1.5, 151.77 0.55 C165.72 2.6, 183.69 12.23, 190.23 15.17 C196.78 18.11, 191.79 16.12, 191.02 18.2" stroke="none" stroke-width="0" fill="#a5d8ff"></path><path d="M101.59 2.94 C114.21 -2.19, 130.17 -0.66, 144.09 0.96 C158.02 2.58, 172.25 6.82, 185.15 12.65 C198.06 18.48, 211.09 26.19, 221.52 35.94 C231.94 45.69, 241.11 58.54, 247.7 71.15 C254.29 83.77, 259.21 97.75, 261.06 111.62 C262.9 125.5, 261.5 140.5, 258.79 154.42 C256.08 168.33, 251.87 182.74, 244.79 195.11 C237.7 207.48, 227.02 219.14, 216.3 228.62 C205.58 238.11, 193.4 246.59, 180.46 252 C167.51 257.42, 152.59 260.24, 138.63 261.12 C124.67 262, 110.26 260.85, 96.69 257.26 C83.12 253.66, 69.05 247.55, 57.21 239.53 C45.37 231.51, 34.08 220.49, 25.64 209.15 C17.2 197.82, 10.83 185.02, 6.55 171.53 C2.26 158.04, -0.26 142.68, -0.07 128.23 C0.12 113.78, 2.64 98.08, 7.69 84.84 C12.73 71.59, 21.29 59.72, 30.21 48.76 C39.12 37.8, 48.45 27.02, 61.18 19.08 C73.9 11.14, 97.92 3.68, 106.54 1.13 C115.16 -1.43, 112.42 1.5, 112.9 3.76 M178.86 10.37 C191.97 13.09, 205.14 21, 215.89 29.8 C226.64 38.6, 236.38 50.95, 243.37 63.18 C250.36 75.41, 254.79 89.2, 257.82 103.18 C260.86 117.16, 263.15 132.73, 261.59 147.08 C260.02 161.43, 255.02 176.66, 248.44 189.29 C241.86 201.92, 232.25 213.25, 222.11 222.88 C211.97 232.52, 200.4 240.94, 187.6 247.1 C174.81 253.25, 159.4 257.85, 145.35 259.81 C131.3 261.76, 116.71 261.61, 103.3 258.82 C89.89 256.02, 76.77 250.59, 64.88 243.05 C52.99 235.51, 41.46 224.51, 31.96 213.56 C22.46 202.61, 13.12 190.27, 7.87 177.37 C2.62 164.47, 1.05 150.24, 0.45 136.17 C-0.14 122.1, 0.19 106.4, 4.3 92.95 C8.41 79.5, 16.46 66.82, 25.11 55.47 C33.77 44.12, 44.7 33.24, 56.24 24.86 C67.77 16.47, 80.83 9.13, 94.33 5.15 C107.83 1.17, 123.15 0.27, 137.24 0.97 C151.33 1.67, 172.02 7.34, 178.87 9.34 C185.71 11.35, 178.99 10.88, 178.3 12.99" stroke="#1e1e1e" stroke-width="1" fill="none"></path></g><g transform="translate(1104.7160908465885 1066.857228470275) rotate(0 129.20344383949123 27.994571143761277)"><text x="129.2034438394904" y="0" font-family="Virgil, Segoe UI Emoji" font-size="44.79131383001672px" fill="#1e1e1e" text-anchor="middle" style="white-space: pre;" direction="ltr" dominant-baseline="text-before-edge">publication 1</text></g><g stroke-linecap="round"><g transform="translate(1173.9466946336142 1048.0431439717795) rotate(0 61.37479059432553 -27.91517666879008)"><path d="M1.03 0.28 C3.53 -7.62, 7.52 -38.2, 14.45 -47.56 C21.38 -56.91, 24.69 -54.78, 42.62 -55.85 C60.56 -56.92, 109.04 -54.4, 122.08 -54 M0.11 -0.61 C2.46 -8.32, 6.27 -37.1, 13.25 -46.16 C20.24 -55.21, 23.79 -53.84, 42.02 -54.94 C60.25 -56.04, 109.19 -53.16, 122.64 -52.77" stroke="#1e1e1e" stroke-width="1" fill="none"></path></g></g><mask></mask><g stroke-linecap="round"><g transform="translate(1293.184732160451 992.4722809037412) rotate(0 -53.4337864906156 11.234242429443839)" fill-rule="evenodd"><path d="M0.66 -0.8 C2.6 0.82, 13.24 1.1, 14.01 9.47 C14.78 17.84, 10.39 41.44, 5.27 49.42 C0.16 57.41, 1.71 56.07, -16.68 57.36 C-35.07 58.65, -87.79 59.2, -105.07 57.19 C-122.35 55.17, -117.48 58.35, -120.37 45.29 C-123.26 32.22, -123.91 -7.61, -122.42 -21.19 C-120.92 -34.77, -118.24 -33.92, -111.39 -36.2 C-104.55 -38.48, -88.19 -36.91, -81.34 -34.89 C-74.49 -32.86, -81.44 -25.92, -70.28 -24.03 C-59.12 -22.15, -25.68 -24.65, -14.38 -23.57 C-3.08 -22.49, -5.18 -21.45, -2.47 -17.56 C0.24 -13.67, 1.36 -3.39, 1.87 -0.24" stroke="none" stroke-width="0" fill="#a5d8ff" fill-rule="evenodd"></path><path d="M-0.48 -0.26 C2.07 0.77, 15.5 -2.01, 16.36 6.48 C17.21 14.96, 9.96 41.69, 4.64 50.65 C-0.68 59.61, 2.3 58.59, -15.55 60.24 C-33.41 61.89, -84.92 62.99, -102.47 60.54 C-120.02 58.09, -117.52 59.39, -120.84 45.54 C-124.15 31.69, -123.52 -8.64, -122.37 -22.54 C-121.21 -36.43, -120.65 -35.36, -113.92 -37.83 C-107.2 -40.29, -89.29 -39.97, -82.04 -37.32 C-74.79 -34.67, -81.63 -24.63, -70.42 -21.94 C-59.21 -19.26, -26.45 -22.28, -14.77 -21.21 C-3.09 -20.14, -2.99 -19.01, -0.35 -15.52 C2.28 -12.04, 0.93 -2.95, 1.06 -0.29 M1.46 -1.44 C3.8 -0.3, 15.12 -1.31, 15.57 7.61 C16.02 16.53, 9.39 43.67, 4.19 52.09 C-1.01 60.51, 2.37 57.15, -15.63 58.11 C-33.64 59.07, -86.49 60.17, -103.83 57.86 C-121.16 55.54, -116.6 57.81, -119.64 44.23 C-122.69 30.65, -122.84 -10.4, -122.09 -23.63 C-121.34 -36.85, -122.12 -33.16, -115.14 -35.09 C-108.15 -37.02, -87.79 -37.3, -80.16 -35.2 C-72.54 -33.1, -80.31 -24.44, -69.37 -22.48 C-58.43 -20.52, -25.84 -24.55, -14.52 -23.43 C-3.2 -22.31, -3.58 -19.46, -1.46 -15.77 C0.66 -12.07, -2.04 -3.97, -1.82 -1.27" stroke="#1e1e1e" stroke-width="1" fill="none"></path></g></g><mask></mask><g stroke-linecap="round"><g transform="translate(1288.6785343324627 1349.1371265157359) rotate(0 -44.892292108548645 29.024471335098497)"><path d="M0 0 C0 -4.51, 0 -9.02, -0.01 -14.2 M0 0 C0 -2.95, 0 -5.89, -0.01 -14.2 M-0.01 -14.2 C-31.2 -14.26, -62.39 -14.32, -89.55 -14.37 M-0.01 -14.2 C-26.01 -14.25, -52.01 -14.3, -89.55 -14.37 M-89.55 -14.37 C-89.6 5.47, -89.66 25.32, -89.78 72.42 M-89.55 -14.37 C-89.64 18.17, -89.73 50.7, -89.78 72.42" stroke="#000" stroke-width="4" fill="none"></path></g></g><mask></mask><g stroke-linecap="round" transform="translate(1198.8742138406233 1417.6508467580206) rotate(0 44.823865709711754 10.42612371940777)"><path d="M0 0 L89.65 0 L89.65 20.85 L0 20.85" stroke="none" stroke-width="0" fill="#b2f2bb"></path><path d="M0 0 C23.78 0, 47.56 0, 89.65 0 M0 0 C24.71 0, 49.41 0, 89.65 0 M89.65 0 C89.65 8.09, 89.65 16.18, 89.65 20.85 M89.65 0 C89.65 5.57, 89.65 11.15, 89.65 20.85 M89.65 20.85 C71.5 20.85, 53.35 20.85, 0 20.85 M89.65 20.85 C60.86 20.85, 32.07 20.85, 0 20.85 M0 20.85 C0 15.91, 0 10.96, 0 0 M0 20.85 C0 15.34, 0 9.82, 0 0" stroke="#000" stroke-width="4" fill="none"></path></g><g stroke-linecap="round"><g transform="translate(1288.4840727182782 1369.0946331174782) rotate(0 0.01811430052475771 29.534161572770245)"><path d="M0 0 C0.01 14.26, 0.02 28.52, 0.04 59.07 M0 0 C0.01 16.93, 0.02 33.85, 0.04 59.07" stroke="#000" stroke-width="4" fill="none"></path></g></g><mask></mask><g stroke-linecap="round"><g transform="translate(1224.2704736702726 1355.6394992664136) rotate(0 19.24663698216864 -0.06230633683298947)"><path d="M0 0 C10.42 -0.03, 20.84 -0.07, 38.49 -0.12 M0 0 C14.37 -0.05, 28.73 -0.09, 38.49 -0.12" stroke="#3d71b7" stroke-width="4" fill="none"></path></g></g><mask></mask><g transform="translate(1136.243343867849 1455.3495033423096) rotate(0 109.98332977294922 24.552042325783987)"><text x="0" y="0" font-family="Virgil, Segoe UI Emoji" font-size="39.2832677212547px" fill="#1e1e1e" text-anchor="start" style="white-space: pre;" direction="ltr" dominant-baseline="text-before-edge">subscription</text></g><g stroke-linecap="round"><g transform="translate(1245.8149201652996 1309.053948898836) rotate(0 -0.6071020945073542 -80.81404319505236)"><path d="M-0.05 0.11 C-0.27 -26.8, -1.13 -134.58, -1.37 -161.49 M0.2 0.04 C-0.03 -26.91, -1.12 -134.8, -1.42 -161.74" stroke="#e03131" stroke-width="4" fill="none"></path></g><g transform="translate(1245.8149201652996 1309.053948898836) rotate(0 -0.6071020945073542 -80.81404319505236)"><path d="M9.14 -133.66 C6.18 -141.88, 2.84 -150.56, -1.42 -161.74 M9.14 -133.66 C5.05 -144.64, 0.86 -155.54, -1.42 -161.74" stroke="#e03131" stroke-width="4" fill="none"></path></g><g transform="translate(1245.8149201652996 1309.053948898836) rotate(0 -0.6071020945073542 -80.81404319505236)"><path d="M-11.38 -133.44 C-8.14 -141.72, -5.29 -150.47, -1.42 -161.74 M-11.38 -133.44 C-7.52 -144.48, -3.76 -155.46, -1.42 -161.74" stroke="#e03131" stroke-width="4" fill="none"></path></g></g><mask></mask><g stroke-linecap="round"><g transform="translate(1234.4583078822943 599.7291505542598) rotate(0 0.9062988852328999 147.62098819028688)"><path d="M0.03 0.13 C0.33 49.3, 1.63 245.89, 1.95 295.05 M-0.14 0.07 C0.14 49.25, 1.52 245.98, 1.85 295.17" stroke="#1971c2" stroke-width="4" fill="none"></path></g><g transform="translate(1234.4583078822943 599.7291505542598) rotate(0 0.9062988852328999 147.62098819028688)"><path d="M-8.6 267.05 C-4.27 278.07, -0.73 288.96, 1.85 295.17 M-8.6 267.05 C-6.01 273.79, -3.58 280.62, 1.85 295.17" stroke="#1971c2" stroke-width="4" fill="none"></path></g><g transform="translate(1234.4583078822943 599.7291505542598) rotate(0 0.9062988852328999 147.62098819028688)"><path d="M11.92 266.91 C8.27 277.99, 3.82 288.94, 1.85 295.17 M11.92 266.91 C9.59 273.66, 7.1 280.53, 1.85 295.17" stroke="#1971c2" stroke-width="4" fill="none"></path></g></g><mask></mask><g transform="translate(1366.7359207144982 356.7908661342226) rotate(0 365.04998779296875 31.366524898956413)"><text x="0" y="0" font-family="Virgil, Segoe UI Emoji" font-size="50.186439838327956px" fill="#1e1e1e" text-anchor="start" style="white-space: pre;" direction="ltr" dominant-baseline="text-before-edge">Publisher creates publications</text></g><g transform="translate(727.7892142136698 245.1709801679026) rotate(0 162.14359464695735 30.23813372081713)"><text x="0" y="0" font-family="Virgil, Segoe UI Emoji" font-size="48.38101395331023px" fill="#f08c00" text-anchor="start" style="white-space: pre;" direction="ltr" dominant-baseline="text-before-edge">publisher node</text></g><g stroke-linecap="round"><g transform="translate(881.702258211837 336.17283496051823) rotate(0 105.55490004027342 62.23173605007105)"><path d="M0.92 -0.12 C36.07 20.79, 175.48 103.98, 210.19 124.58" stroke="#f08c00" stroke-width="2.5" fill="none" stroke-dasharray="8 10"></path></g><g transform="translate(881.702258211837 336.17283496051823) rotate(0 105.55490004027342 62.23173605007105)"><path d="M180.72 118.98 C187.48 120.58, 195.79 120.26, 210.19 124.58" stroke="#f08c00" stroke-width="2.5" fill="none"></path></g><g transform="translate(881.702258211837 336.17283496051823) rotate(0 105.55490004027342 62.23173605007105)"><path d="M191.22 101.34 C195.37 107.21, 201.19 111.08, 210.19 124.58" stroke="#f08c00" stroke-width="2.5" fill="none"></path></g></g><mask></mask><g transform="translate(1073.600394294368 2026.8213585653793) rotate(0 182.47423564541896 30.58894346289162)"><text x="0" y="0" font-family="Virgil, Segoe UI Emoji" font-size="48.942309540625466px" fill="#f08c00" text-anchor="start" style="white-space: pre;" direction="ltr" dominant-baseline="text-before-edge">subscriber node</text></g><g stroke-linecap="round"><g transform="translate(1255.5308317624986 2000.7088458531507) rotate(0 -0.056194601789684384 -61.26465879892203)"><path d="M-0.08 -0.05 C-0.09 -20.48, -0.02 -102.08, -0.03 -122.48" stroke="#f08c00" stroke-width="2.5" fill="none" stroke-dasharray="8 10"></path></g><g transform="translate(1255.5308317624986 2000.7088458531507) rotate(0 -0.056194601789684384 -61.26465879892203)"><path d="M10.22 -94.28 C6.77 -103.51, 3.3 -112.87, -0.03 -122.48" stroke="#f08c00" stroke-width="2.5" fill="none"></path></g><g transform="translate(1255.5308317624986 2000.7088458531507) rotate(0 -0.056194601789684384 -61.26465879892203)"><path d="M-10.3 -94.29 C-7.08 -103.5, -3.88 -112.85, -0.03 -122.48" stroke="#f08c00" stroke-width="2.5" fill="none"></path></g></g><mask></mask><g transform="translate(127.94977289353847 1607.3945472659543) rotate(0 445.9916687011719 52.535186728611734)"><text x="0" y="0" font-family="Virgil, Segoe UI Emoji" font-size="42.02814938288797px" fill="#1e1e1e" text-anchor="start" style="white-space: pre;" direction="ltr" dominant-baseline="text-before-edge">Subscribers pull data from the publications</text><text x="0" y="52.53518672860996" font-family="Virgil, Segoe UI Emoji" font-size="42.02814938288797px" fill="#1e1e1e" text-anchor="start" style="white-space: pre;" direction="ltr" dominant-baseline="text-before-edge">they subscribe</text></g><g transform="translate(957.2703281953545 10) rotate(0 298.61484098858455 42.74973725221571)"><text x="0" y="0" font-family="Virgil, Segoe UI Emoji" font-size="68.39957960354687px" fill="#1e1e1e" text-anchor="start" style="white-space: pre;" direction="ltr" dominant-baseline="text-before-edge">Logical replication</text></g><g transform="translate(92.66666666666788 487.0042887119125) rotate(0 464.5416564941406 45)"><text x="0" y="0" font-family="Virgil, Segoe UI Emoji" font-size="36px" fill="#1e1e1e" text-anchor="start" style="white-space: pre;" direction="ltr" dominant-baseline="text-before-edge">Logical replication starts by copying</text><text x="0" y="45" font-family="Virgil, Segoe UI Emoji" font-size="36px" fill="#1e1e1e" text-anchor="start" style="white-space: pre;" direction="ltr" dominant-baseline="text-before-edge">a snapshot of the data on the publisher database.</text></g><g transform="translate(1927 870.1709553785913) rotate(0 83.56666564941406 22.5)"><text x="0" y="0" font-family="Virgil, Segoe UI Emoji" font-size="36px" fill="#1e1e1e" text-anchor="start" style="white-space: pre;" direction="ltr" dominant-baseline="text-before-edge">walsender</text></g><g stroke-linecap="round"><g transform="translate(1923.533748255526 793.5853393719881) rotate(0 32.91178113987735 10.8914100055772)" fill-rule="evenodd"><path d="M-1.27 0.83 L3.79 -8.11 L3.84 -18.06 L11 -23.74 L17.43 -22.16 L31.1 -23.81 L32.38 -30.98 L41.08 -30.36 L42.18 -23.26 L51.94 -15.11 L64.19 -18.18 L70.61 -11.88 L63.71 -5.32 L68.69 7.24 L75.24 8.18 L73.83 20.21 L64.96 24.29 L61.48 33.49 L62.85 39.73 L54.07 45.49 L48.39 41.27 L36.19 43.7 L35.13 53.19 L23.33 53.28 L22.76 43.97 L9.57 39.53 L4.38 39.68 L-0.95 33.37 L2.5 27.69 L-3.57 14.39 L-10.87 9.51 L-6.99 3.72 L0.48 1.52" stroke="none" stroke-width="0" fill="#e1effc" fill-rule="evenodd"></path><path d="M0 0 C1.05 -3.61, 3.2 -6.73, 5.73 -9.34 M0 0 C0.84 -1.7, 2.28 -4.16, 5.73 -9.34 M5.73 -9.34 C3.91 -13.18, 3.52 -15.91, 2.4 -17.26 M5.73 -9.34 C4.8 -10.86, 4.57 -13.01, 2.4 -17.26 M2.4 -17.26 C4.53 -19.17, 8.92 -22.15, 12.82 -24.76 M2.4 -17.26 C6.04 -19.61, 8.62 -21.76, 12.82 -24.76 M12.82 -24.76 C14.94 -23.6, 15.69 -22.87, 19.15 -20.24 M12.82 -24.76 C14.48 -23.68, 16.58 -22.06, 19.15 -20.24 M19.15 -20.24 C21.96 -21.42, 26.42 -22.18, 29.28 -23.27 M19.15 -20.24 C22.84 -21.22, 26.99 -22.97, 29.28 -23.27 M29.28 -23.27 C29.32 -25.98, 30.41 -29.46, 32.03 -31.6 M29.28 -23.27 C30.14 -25.82, 31.47 -29.36, 32.03 -31.6 M32.03 -31.6 C33.99 -32.13, 37.82 -30.9, 42.84 -30.4 M32.03 -31.6 C35.17 -30.75, 38.15 -30.82, 42.84 -30.4 M42.84 -30.4 C42.8 -28.71, 42.92 -26.39, 44.09 -22.99 M42.84 -30.4 C43.19 -28.32, 43.59 -26.22, 44.09 -22.99 M44.09 -22.99 C48.53 -21.79, 51.32 -18.9, 53.89 -17.08 M44.09 -22.99 C47.42 -20.73, 51.48 -19, 53.89 -17.08 M53.89 -17.08 C56.67 -18.34, 60.33 -20.42, 62.93 -20.1 M53.89 -17.08 C56.04 -18.2, 57.68 -18.72, 62.93 -20.1 M62.93 -20.1 C65.19 -18.12, 67.15 -16.44, 69.47 -12.06 M62.93 -20.1 C64.24 -18.61, 66.08 -16.41, 69.47 -12.06 M69.47 -12.06 C68.19 -10.97, 67.93 -9.23, 64.82 -4.77 M69.47 -12.06 C67.99 -9.7, 65.97 -7.05, 64.82 -4.77 M64.82 -4.77 C66.61 -1.6, 68.07 3.79, 67.96 6.03 M64.82 -4.77 C65.88 -2.53, 65.89 0.25, 67.96 6.03 M67.96 6.03 C70.1 6.69, 73.04 8.37, 75.87 9.92 M67.96 6.03 C70.53 7.78, 73.31 9, 75.87 9.92 M75.87 9.92 C75.27 14.77, 75.04 18.45, 74.49 20.85 M75.87 9.92 C74.73 14.75, 74.98 19.06, 74.49 20.85 M74.49 20.85 C72.47 21.31, 70.77 21.85, 66.58 22.36 M74.49 20.85 C71.58 21.65, 68.83 21.59, 66.58 22.36 M66.58 22.36 C64.46 24.8, 63.25 25.62, 60.67 32.91 M66.58 22.36 C64.09 25.81, 62.99 30.26, 60.67 32.91 M60.67 32.91 C60.93 35.54, 62.58 37.6, 63.94 39.95 M60.67 32.91 C61.95 34.92, 62.49 37.18, 63.94 39.95 M63.94 39.95 C60.78 42.24, 58.65 45.01, 55.77 46.98 M63.94 39.95 C61.83 42.62, 58.62 44.45, 55.77 46.98 M55.77 46.98 C54.18 46.23, 52.39 44.83, 49.12 42.46 M55.77 46.98 C53.89 46.23, 52.29 45.1, 49.12 42.46 M49.12 42.46 C45.44 43.9, 42.15 44.28, 37.94 45.22 M49.12 42.46 C45.38 43.61, 41.97 44.38, 37.94 45.22 M37.94 45.22 C36.54 47.61, 35.81 52.34, 34.04 53.51 M37.94 45.22 C36.7 47.1, 36.38 49.5, 34.04 53.51 M34.04 53.51 C29.7 53.33, 26.8 51.64, 22.86 51.75 M34.04 53.51 C30.4 52.85, 26.35 52.27, 22.86 51.75 M22.86 51.75 C22.97 49.24, 22.76 46.9, 21.48 43.21 M22.86 51.75 C22.8 49.49, 21.92 47.49, 21.48 43.21 M21.48 43.21 C19.46 41.41, 16.82 40.38, 11.56 39.19 M21.48 43.21 C17.93 41.51, 15.16 41.1, 11.56 39.19 M11.56 39.19 C10.16 40.21, 8.29 40.88, 4.27 41.58 M11.56 39.19 C8.9 39.98, 6.12 41.32, 4.27 41.58 M4.27 41.58 C1.47 39.5, -1.74 35.27, -2.26 34.04 M4.27 41.58 C2.37 39.96, 0.96 37.82, -2.26 34.04 M-2.26 34.04 C-1.98 31.9, -0.83 28.48, 1.38 26.25 M-2.26 34.04 C-1.09 31.44, 0.59 28.11, 1.38 26.25 M1.38 26.25 C0.04 22.51, 0.3 19.07, -1.63 15.83 M1.38 26.25 C0.17 23.43, -0.89 20.37, -1.63 15.83 M-1.63 15.83 C-3.53 15.14, -5.68 13.34, -10.05 11.31 M-1.63 15.83 C-4.11 14.47, -7.35 12.87, -10.05 11.31 M-10.05 11.31 C-9.17 7.7, -9.71 3.54, -8.29 1.88 M-10.05 11.31 C-9.31 7.74, -8.76 4.33, -8.29 1.88 M-8.29 1.88 C-5.98 1.94, -2.83 1.08, 0 0 M-8.29 1.88 C-5.01 1.36, -2.61 0.54, 0 0 M0 0 C0 0, 0 0, 0 0 M0 0 C0 0, 0 0, 0 0" stroke="#aaa" stroke-width="1" fill="none"></path></g></g><mask></mask><g stroke-linecap="round" transform="translate(1930.1580662689958 778.1406222194928) rotate(0 26.017826484714533 26.017826484712714)"><path d="M25.93 -0.4 C31.13 -0.46, 39.19 2.77, 43.34 6.55 C47.49 10.33, 50 16.94, 50.81 22.28 C51.63 27.62, 51.12 33.86, 48.23 38.59 C45.33 43.31, 38.83 48.82, 33.44 50.63 C28.05 52.43, 20.82 51.35, 15.87 49.4 C10.93 47.45, 6.31 43.69, 3.78 38.93 C1.24 34.16, -0.49 26.23, 0.65 20.8 C1.79 15.37, 5.66 9.84, 10.62 6.36 C15.58 2.89, 26.51 0.73, 30.41 -0.04 C34.3 -0.82, 34.1 1.35, 33.97 1.72 M31.21 -1.04 C36.48 -0.26, 42.51 5.84, 45.92 10.32 C49.33 14.8, 51.82 20.42, 51.7 25.85 C51.58 31.28, 48.73 38.73, 45.2 42.9 C41.66 47.08, 35.89 50.14, 30.5 50.91 C25.11 51.68, 17.56 50.16, 12.87 47.52 C8.18 44.88, 4.16 40.09, 2.37 35.05 C0.57 30.01, 0.38 22.63, 2.1 17.27 C3.82 11.92, 7.99 5.92, 12.69 2.91 C17.39 -0.1, 27.15 -0.48, 30.31 -0.77 C33.47 -1.06, 31.46 0.42, 31.64 1.17" stroke="none" stroke-width="0" fill="#c9d5e1"></path><path d="M22.73 -0.44 C28.17 -1.47, 35.89 0.66, 40.49 3.93 C45.09 7.19, 48.8 13.73, 50.34 19.15 C51.89 24.57, 51.94 31.58, 49.78 36.43 C47.61 41.27, 42.17 45.82, 37.33 48.23 C32.5 50.65, 26.2 51.91, 20.74 50.91 C15.28 49.9, 7.91 46.61, 4.58 42.2 C1.24 37.8, 0.26 29.96, 0.73 24.47 C1.21 18.97, 3.56 13.31, 7.43 9.24 C11.29 5.16, 20.78 1.47, 23.93 0.04 C27.09 -1.39, 26.38 0.19, 26.35 0.67 M31.03 1.39 C36.52 1.79, 42.75 4.86, 46.04 9 C49.33 13.14, 50.9 20.76, 50.79 26.21 C50.69 31.65, 48.44 37.23, 45.39 41.68 C42.35 46.12, 37.71 51.61, 32.52 52.85 C27.32 54.1, 19.36 52.04, 14.24 49.14 C9.11 46.23, 4.03 40.77, 1.76 35.42 C-0.51 30.06, -1.1 22.37, 0.61 17 C2.32 11.64, 6.98 5.89, 12.01 3.22 C17.05 0.55, 27.8 1.28, 30.81 0.97 C33.83 0.65, 30.53 1.15, 30.09 1.32" stroke="transparent" stroke-width="1" fill="none"></path></g><g stroke-linecap="round"><g transform="translate(2039.4532483851872 795.1552168338676) rotate(0 12.277029021868657 4.086676600003557)" fill-rule="evenodd"><path d="M0.38 -0.21 L1.66 -3.22 L0.44 -6.94 L5.26 -9.38 L7.24 -7.38 L10.46 -8.67 L11.45 -11.86 L15.47 -10.82 L16.78 -8.07 L20.4 -6.33 L23.19 -7.64 L26.1 -4.18 L24.01 -2.24 L25.18 2.08 L27.88 4.21 L28 7.93 L24.55 8.28 L22.19 11.89 L23.66 14.59 L20.35 17.13 L18.61 15.75 L14.27 17.27 L13.03 20.16 L8.01 19.39 L8.04 15.62 L4.65 14.44 L1.88 15.89 L-1.35 12.32 L0.3 9.32 L-0.27 6.38 L-3.62 4.61 L-2.74 0.85 L-0.39 -0.48" stroke="none" stroke-width="0" fill="#e1effc" fill-rule="evenodd"></path><path d="M0 0 C0.48 -0.93, 1.15 -1.93, 2.14 -3.48 M0 0 C0.78 -1.21, 1.49 -2.42, 2.14 -3.48 M2.14 -3.48 C1.81 -4.07, 1.67 -4.76, 0.89 -6.44 M2.14 -3.48 C1.69 -4.51, 1.26 -5.61, 0.89 -6.44 M0.89 -6.44 C2.19 -7.23, 3.52 -8.2, 4.78 -9.24 M0.89 -6.44 C2.13 -7.38, 3.5 -8.23, 4.78 -9.24 M4.78 -9.24 C5.53 -8.72, 6.27 -8.15, 7.14 -7.55 M4.78 -9.24 C5.39 -8.81, 5.94 -8.42, 7.14 -7.55 M7.14 -7.55 C8.28 -7.95, 9.19 -8.22, 10.92 -8.68 M7.14 -7.55 C8.37 -7.9, 9.52 -8.32, 10.92 -8.68 M10.92 -8.68 C11.28 -9.58, 11.55 -10.55, 11.95 -11.79 M10.92 -8.68 C11.3 -9.93, 11.71 -11.15, 11.95 -11.79 M11.95 -11.79 C12.82 -11.63, 13.63 -11.59, 15.98 -11.34 M11.95 -11.79 C13.43 -11.61, 14.96 -11.48, 15.98 -11.34 M15.98 -11.34 C16.11 -10.53, 16.24 -9.78, 16.45 -8.58 M15.98 -11.34 C16.13 -10.62, 16.26 -9.89, 16.45 -8.58 M16.45 -8.58 C17.28 -8.01, 17.97 -7.66, 20.1 -6.37 M16.45 -8.58 C17.71 -7.83, 18.93 -7.15, 20.1 -6.37 M20.1 -6.37 C21.05 -6.71, 22.09 -7.03, 23.48 -7.5 M20.1 -6.37 C20.78 -6.63, 21.47 -6.8, 23.48 -7.5 M23.48 -7.5 C24.11 -6.69, 24.88 -5.83, 25.91 -4.5 M23.48 -7.5 C23.97 -6.85, 24.53 -6.21, 25.91 -4.5 M25.91 -4.5 C25.55 -3.87, 25.04 -3.21, 24.18 -1.78 M25.91 -4.5 C25.47 -3.79, 24.93 -3, 24.18 -1.78 M24.18 -1.78 C24.39 -0.93, 24.71 0.11, 25.35 2.25 M24.18 -1.78 C24.46 -0.77, 24.72 0.13, 25.35 2.25 M25.35 2.25 C26.06 2.6, 26.66 2.91, 28.3 3.7 M25.35 2.25 C26.52 2.81, 27.68 3.37, 28.3 3.7 M28.3 3.7 C28.2 5.26, 27.86 6.83, 27.79 7.78 M28.3 3.7 C28.08 5.3, 27.87 6.92, 27.79 7.78 M27.79 7.78 C26.9 8.01, 25.92 8.12, 24.84 8.34 M27.79 7.78 C26.67 7.97, 25.6 8.16, 24.84 8.34 M24.84 8.34 C24.18 9.56, 23.49 10.78, 22.63 12.28 M24.84 8.34 C24.27 9.4, 23.68 10.33, 22.63 12.28 M22.63 12.28 C23.06 13.25, 23.45 14.25, 23.85 14.9 M22.63 12.28 C23.02 13.06, 23.36 13.84, 23.85 14.9 M23.85 14.9 C22.99 15.7, 22 16.5, 20.81 17.53 M23.85 14.9 C22.59 15.94, 21.45 16.98, 20.81 17.53 M20.81 17.53 C19.96 17.04, 19.27 16.38, 18.32 15.84 M20.81 17.53 C19.89 16.87, 18.97 16.27, 18.32 15.84 M18.32 15.84 C16.85 16.31, 15.35 16.51, 14.15 16.87 M18.32 15.84 C16.89 16.25, 15.34 16.58, 14.15 16.87 M14.15 16.87 C13.82 17.56, 13.61 18.12, 12.7 19.96 M14.15 16.87 C13.85 17.59, 13.47 18.33, 12.7 19.96 M12.7 19.96 C11.3 19.82, 9.97 19.5, 8.53 19.31 M12.7 19.96 C11.6 19.77, 10.55 19.64, 8.53 19.31 M8.53 19.31 C8.32 18.34, 8.22 17.44, 8.01 16.12 M8.53 19.31 C8.38 18.5, 8.25 17.7, 8.01 16.12 M8.01 16.12 C7.17 15.86, 6.2 15.35, 4.31 14.62 M8.01 16.12 C7.12 15.75, 6.3 15.46, 4.31 14.62 M4.31 14.62 C3.45 14.99, 2.51 15.25, 1.59 15.51 M4.31 14.62 C3.65 14.88, 2.93 15.07, 1.59 15.51 M1.59 15.51 C0.64 14.42, -0.29 13.33, -0.84 12.7 M1.59 15.51 C0.67 14.47, -0.22 13.33, -0.84 12.7 M-0.84 12.7 C-0.32 11.68, 0.03 10.69, 0.52 9.79 M-0.84 12.7 C-0.34 11.67, 0.08 10.65, 0.52 9.79 M0.52 9.79 C0.17 8.6, -0.27 7.35, -0.61 5.9 M0.52 9.79 C0.1 8.4, -0.36 6.93, -0.61 5.9 M-0.61 5.9 C-1.74 5.34, -3 4.73, -3.75 4.22 M-0.61 5.9 C-1.67 5.36, -2.84 4.75, -3.75 4.22 M-3.75 4.22 C-3.48 3.11, -3.27 2.17, -3.09 0.7 M-3.75 4.22 C-3.54 3.25, -3.37 2.18, -3.09 0.7 M-3.09 0.7 C-1.87 0.42, -0.76 0.22, 0 0 M-3.09 0.7 C-2.04 0.45, -1 0.2, 0 0 M0 0 C0 0, 0 0, 0 0 M0 0 C0 0, 0 0, 0 0" stroke="#aaa" stroke-width="1" fill="none"></path></g></g><mask></mask><g stroke-linecap="round" transform="translate(2043.0559648534254 790.4021816301465) rotate(0 8.721466531140322 8.721466531140322)"><path d="M17.44 8.72 C17.44 9.23, 17.4 9.74, 17.31 10.24 C17.22 10.73, 17.09 11.23, 16.92 11.7 C16.74 12.18, 16.53 12.65, 16.27 13.08 C16.02 13.52, 15.73 13.94, 15.4 14.33 C15.08 14.71, 14.71 15.08, 14.33 15.4 C13.94 15.73, 13.52 16.02, 13.08 16.27 C12.65 16.53, 12.18 16.74, 11.7 16.92 C11.23 17.09, 10.73 17.22, 10.24 17.31 C9.74 17.4, 9.23 17.44, 8.72 17.44 C8.22 17.44, 7.7 17.4, 7.21 17.31 C6.71 17.22, 6.21 17.09, 5.74 16.92 C5.26 16.74, 4.8 16.53, 4.36 16.27 C3.92 16.02, 3.5 15.73, 3.12 15.4 C2.73 15.08, 2.36 14.71, 2.04 14.33 C1.72 13.94, 1.42 13.52, 1.17 13.08 C0.92 12.65, 0.7 12.18, 0.53 11.7 C0.35 11.23, 0.22 10.73, 0.13 10.24 C0.04 9.74, 0 9.23, 0 8.72 C0 8.22, 0.04 7.7, 0.13 7.21 C0.22 6.71, 0.35 6.21, 0.53 5.74 C0.7 5.26, 0.92 4.8, 1.17 4.36 C1.42 3.92, 1.72 3.5, 2.04 3.12 C2.36 2.73, 2.73 2.36, 3.12 2.04 C3.5 1.72, 3.92 1.42, 4.36 1.17 C4.8 0.92, 5.26 0.7, 5.74 0.53 C6.21 0.35, 6.71 0.22, 7.21 0.13 C7.7 0.04, 8.22 0, 8.72 0 C9.23 0, 9.74 0.04, 10.24 0.13 C10.73 0.22, 11.23 0.35, 11.7 0.53 C12.18 0.7, 12.65 0.92, 13.08 1.17 C13.52 1.42, 13.94 1.72, 14.33 2.04 C14.71 2.36, 15.08 2.73, 15.4 3.12 C15.73 3.5, 16.02 3.92, 16.27 4.36 C16.53 4.8, 16.74 5.26, 16.92 5.74 C17.09 6.21, 17.22 6.71, 17.31 7.21 C17.4 7.7, 17.42 8.47, 17.44 8.72 C17.47 8.97, 17.47 8.47, 17.44 8.72" stroke="none" stroke-width="0" fill="#c9d5e1"></path><path d="M17.44 8.72 C17.44 9.23, 17.4 9.74, 17.31 10.24 C17.22 10.73, 17.09 11.23, 16.92 11.7 C16.74 12.18, 16.53 12.65, 16.27 13.08 C16.02 13.52, 15.73 13.94, 15.4 14.33 C15.08 14.71, 14.71 15.08, 14.33 15.4 C13.94 15.73, 13.52 16.02, 13.08 16.27 C12.65 16.53, 12.18 16.74, 11.7 16.92 C11.23 17.09, 10.73 17.22, 10.24 17.31 C9.74 17.4, 9.23 17.44, 8.72 17.44 C8.22 17.44, 7.7 17.4, 7.21 17.31 C6.71 17.22, 6.21 17.09, 5.74 16.92 C5.26 16.74, 4.8 16.53, 4.36 16.27 C3.92 16.02, 3.5 15.73, 3.12 15.4 C2.73 15.08, 2.36 14.71, 2.04 14.33 C1.72 13.94, 1.42 13.52, 1.17 13.08 C0.92 12.65, 0.7 12.18, 0.53 11.7 C0.35 11.23, 0.22 10.73, 0.13 10.24 C0.04 9.74, 0 9.23, 0 8.72 C0 8.22, 0.04 7.7, 0.13 7.21 C0.22 6.71, 0.35 6.21, 0.53 5.74 C0.7 5.26, 0.92 4.8, 1.17 4.36 C1.42 3.92, 1.72 3.5, 2.04 3.12 C2.36 2.73, 2.73 2.36, 3.12 2.04 C3.5 1.72, 3.92 1.42, 4.36 1.17 C4.8 0.92, 5.26 0.7, 5.74 0.53 C6.21 0.35, 6.71 0.22, 7.21 0.13 C7.7 0.04, 8.22 0, 8.72 0 C9.23 0, 9.74 0.04, 10.24 0.13 C10.73 0.22, 11.23 0.35, 11.7 0.53 C12.18 0.7, 12.65 0.92, 13.08 1.17 C13.52 1.42, 13.94 1.72, 14.33 2.04 C14.71 2.36, 15.08 2.73, 15.4 3.12 C15.73 3.5, 16.02 3.92, 16.27 4.36 C16.53 4.8, 16.74 5.26, 16.92 5.74 C17.09 6.21, 17.22 6.71, 17.31 7.21 C17.4 7.7, 17.42 8.47, 17.44 8.72 C17.47 8.97, 17.47 8.47, 17.44 8.72" stroke="transparent" stroke-width="1" fill="none"></path></g><g stroke-linecap="round"><g transform="translate(1975.8893823360486 740.8765379083998) rotate(0 18.063903185202435 6.011398993461626)" fill-rule="evenodd"><path d="M-0.74 -0.83 L3.93 -5.36 L1.47 -9.2 L6.28 -13.57 L9.69 -11.22 L15.23 -11.92 L18.11 -16.52 L24 -16.61 L23.72 -12.85 L29.88 -8.85 L34.26 -11.78 L37.83 -6.89 L34.87 -1.79 L37.64 3.56 L41.17 5.35 L40.14 10.8 L36.22 11.76 L32.54 17.41 L35.55 21.78 L30.8 26.43 L27.5 23.62 L19.96 24.96 L18.72 28.55 L13.11 28.11 L12.27 24.33 L5.51 20.89 L1.99 22.05 L-0.68 19.47 L0.97 15.06 L-0.31 8.93 L-6.15 5.42 L-3.74 1.87 L-0.81 0.28" stroke="none" stroke-width="0" fill="#e1effc" fill-rule="evenodd"></path><path d="M0 0 C1.04 -1.56, 1.73 -2.8, 3.14 -5.13 M0 0 C0.74 -1.35, 1.66 -2.91, 3.14 -5.13 M3.14 -5.13 C2.62 -6.44, 1.82 -8.09, 1.32 -9.47 M3.14 -5.13 C2.52 -6.63, 1.82 -8.16, 1.32 -9.47 M1.32 -9.47 C3.65 -11.36, 6.07 -12.98, 7.03 -13.59 M1.32 -9.47 C2.94 -10.63, 4.48 -11.83, 7.03 -13.59 M7.03 -13.59 C7.82 -12.8, 8.9 -12.24, 10.51 -11.1 M7.03 -13.59 C8.18 -12.71, 9.37 -11.83, 10.51 -11.1 M10.51 -11.1 C11.75 -11.42, 12.66 -11.74, 16.07 -12.77 M10.51 -11.1 C12.15 -11.66, 13.67 -11.99, 16.07 -12.77 M16.07 -12.77 C16.76 -14.17, 16.99 -15.93, 17.57 -17.34 M16.07 -12.77 C16.33 -13.74, 16.75 -14.8, 17.57 -17.34 M17.57 -17.34 C19.85 -17.17, 21.75 -17.02, 23.5 -16.68 M17.57 -17.34 C19.43 -17.21, 21.4 -16.91, 23.5 -16.68 M23.5 -16.68 C23.66 -15.32, 23.84 -13.77, 24.19 -12.61 M23.5 -16.68 C23.66 -15.41, 23.93 -14.05, 24.19 -12.61 M24.19 -12.61 C26.35 -11.1, 28.28 -9.87, 29.57 -9.37 M24.19 -12.61 C25.98 -11.61, 27.62 -10.56, 29.57 -9.37 M29.57 -9.37 C30.82 -10.05, 32.37 -10.43, 34.53 -11.03 M29.57 -9.37 C30.69 -9.68, 31.77 -10.21, 34.53 -11.03 M34.53 -11.03 C35.23 -9.9, 36.25 -8.99, 38.12 -6.62 M34.53 -11.03 C35.51 -9.63, 36.58 -8.35, 38.12 -6.62 M38.12 -6.62 C37.28 -5.54, 36.57 -4.08, 35.57 -2.62 M38.12 -6.62 C37.44 -5.59, 36.97 -4.82, 35.57 -2.62 M35.57 -2.62 C35.83 -1.34, 36.35 0.33, 37.29 3.31 M35.57 -2.62 C36.1 -0.42, 36.81 1.8, 37.29 3.31 M37.29 3.31 C38.83 4.02, 40.15 4.74, 41.63 5.45 M37.29 3.31 C38.69 3.96, 39.97 4.68, 41.63 5.45 M41.63 5.45 C41.69 7.01, 41.5 8.2, 40.87 11.44 M41.63 5.45 C41.43 7.16, 41.24 8.89, 40.87 11.44 M40.87 11.44 C39.44 11.74, 37.59 11.87, 36.53 12.27 M40.87 11.44 C39.69 11.59, 38.38 11.93, 36.53 12.27 M36.53 12.27 C35.56 14.08, 35.05 15.4, 33.29 18.06 M36.53 12.27 C35.47 14.27, 34.32 16.3, 33.29 18.06 M33.29 18.06 C33.87 19.31, 34.59 20.7, 35.08 21.92 M33.29 18.06 C33.83 19.27, 34.4 20.43, 35.08 21.92 M35.08 21.92 C33.82 23.14, 32.14 24.29, 30.6 25.78 M35.08 21.92 C33.85 22.93, 32.5 24.04, 30.6 25.78 M30.6 25.78 C29.32 24.7, 27.89 23.85, 26.95 23.3 M30.6 25.78 C29.91 25.24, 29.13 24.77, 26.95 23.3 M26.95 23.3 C24.68 23.77, 22.22 24.72, 20.82 24.81 M26.95 23.3 C24.57 23.98, 22.55 24.36, 20.82 24.81 M20.82 24.81 C19.96 26.57, 19.35 28.09, 18.68 29.36 M20.82 24.81 C20.27 26.19, 19.57 27.37, 18.68 29.36 M18.68 29.36 C16.24 28.73, 13.89 28.62, 12.54 28.4 M18.68 29.36 C17.02 29.22, 15.38 28.78, 12.54 28.4 M12.54 28.4 C12.23 26.89, 12.04 25.55, 11.79 23.71 M12.54 28.4 C12.24 26.95, 12 25.44, 11.79 23.71 M11.79 23.71 C9.5 22.83, 7.77 21.89, 6.34 21.51 M11.79 23.71 C10.45 23.29, 9.08 22.72, 6.34 21.51 M6.34 21.51 C4.7 22.1, 3.33 22.68, 2.34 22.82 M6.34 21.51 C4.84 21.93, 3.14 22.5, 2.34 22.82 M2.34 22.82 C1.5 21.68, 0.4 20.45, -1.24 18.68 M2.34 22.82 C1.11 21.23, -0.3 19.95, -1.24 18.68 M-1.24 18.68 C-0.62 17.67, -0.34 16.65, 0.76 14.41 M-1.24 18.68 C-0.69 17.65, -0.12 16.42, 0.76 14.41 M0.76 14.41 C0.47 12.49, 0.04 10.96, -0.9 8.68 M0.76 14.41 C0.21 12.25, -0.52 9.91, -0.9 8.68 M-0.9 8.68 C-2.48 7.82, -4.2 7.05, -5.51 6.2 M-0.9 8.68 C-2.63 7.65, -4.44 6.9, -5.51 6.2 M-5.51 6.2 C-5.36 5.06, -5.12 4.07, -4.55 1.03 M-5.51 6.2 C-5.04 4.15, -4.69 2.18, -4.55 1.03 M-4.55 1.03 C-3.2 0.59, -1.99 0.55, 0 0 M-4.55 1.03 C-3.33 0.88, -2.28 0.6, 0 0 M0 0 C0 0, 0 0, 0 0 M0 0 C0 0, 0 0, 0 0" stroke="#aaa" stroke-width="1" fill="none"></path></g></g><mask></mask><g stroke-linecap="round" transform="translate(1981.1888880886909 733.8849420871265) rotate(0 12.829058978335524 12.829058978335524)"><path d="M25.66 12.83 C25.66 13.57, 25.59 14.33, 25.46 15.06 C25.33 15.79, 25.14 16.52, 24.88 17.22 C24.63 17.91, 24.31 18.6, 23.94 19.24 C23.57 19.89, 23.13 20.51, 22.66 21.08 C22.18 21.64, 21.64 22.18, 21.08 22.66 C20.51 23.13, 19.89 23.57, 19.24 23.94 C18.6 24.31, 17.91 24.63, 17.22 24.88 C16.52 25.14, 15.79 25.33, 15.06 25.46 C14.33 25.59, 13.57 25.66, 12.83 25.66 C12.09 25.66, 11.33 25.59, 10.6 25.46 C9.87 25.33, 9.14 25.14, 8.44 24.88 C7.74 24.63, 7.06 24.31, 6.41 23.94 C5.77 23.57, 5.15 23.13, 4.58 22.66 C4.01 22.18, 3.48 21.64, 3 21.08 C2.52 20.51, 2.09 19.89, 1.72 19.24 C1.35 18.6, 1.03 17.91, 0.77 17.22 C0.52 16.52, 0.32 15.79, 0.19 15.06 C0.07 14.33, 0 13.57, 0 12.83 C0 12.09, 0.07 11.33, 0.19 10.6 C0.32 9.87, 0.52 9.14, 0.77 8.44 C1.03 7.74, 1.35 7.06, 1.72 6.41 C2.09 5.77, 2.52 5.15, 3 4.58 C3.48 4.01, 4.01 3.48, 4.58 3 C5.15 2.52, 5.77 2.09, 6.41 1.72 C7.06 1.35, 7.74 1.03, 8.44 0.77 C9.14 0.52, 9.87 0.32, 10.6 0.19 C11.33 0.07, 12.09 0, 12.83 0 C13.57 0, 14.33 0.07, 15.06 0.19 C15.79 0.32, 16.52 0.52, 17.22 0.77 C17.91 1.03, 18.6 1.35, 19.24 1.72 C19.89 2.09, 20.51 2.52, 21.08 3 C21.64 3.48, 22.18 4.01, 22.66 4.58 C23.13 5.15, 23.57 5.77, 23.94 6.41 C24.31 7.06, 24.63 7.74, 24.88 8.44 C25.14 9.14, 25.33 9.87, 25.46 10.6 C25.59 11.33, 25.63 12.46, 25.66 12.83 C25.69 13.2, 25.69 12.46, 25.66 12.83" stroke="none" stroke-width="0" fill="#c9d5e1"></path><path d="M25.66 12.83 C25.66 13.57, 25.59 14.33, 25.46 15.06 C25.33 15.79, 25.14 16.52, 24.88 17.22 C24.63 17.91, 24.31 18.6, 23.94 19.24 C23.57 19.89, 23.13 20.51, 22.66 21.08 C22.18 21.64, 21.64 22.18, 21.08 22.66 C20.51 23.13, 19.89 23.57, 19.24 23.94 C18.6 24.31, 17.91 24.63, 17.22 24.88 C16.52 25.14, 15.79 25.33, 15.06 25.46 C14.33 25.59, 13.57 25.66, 12.83 25.66 C12.09 25.66, 11.33 25.59, 10.6 25.46 C9.87 25.33, 9.14 25.14, 8.44 24.88 C7.74 24.63, 7.06 24.31, 6.41 23.94 C5.77 23.57, 5.15 23.13, 4.58 22.66 C4.01 22.18, 3.48 21.64, 3 21.08 C2.52 20.51, 2.09 19.89, 1.72 19.24 C1.35 18.6, 1.03 17.91, 0.77 17.22 C0.52 16.52, 0.32 15.79, 0.19 15.06 C0.07 14.33, 0 13.57, 0 12.83 C0 12.09, 0.07 11.33, 0.19 10.6 C0.32 9.87, 0.52 9.14, 0.77 8.44 C1.03 7.74, 1.35 7.06, 1.72 6.41 C2.09 5.77, 2.52 5.15, 3 4.58 C3.48 4.01, 4.01 3.48, 4.58 3 C5.15 2.52, 5.77 2.09, 6.41 1.72 C7.06 1.35, 7.74 1.03, 8.44 0.77 C9.14 0.52, 9.87 0.32, 10.6 0.19 C11.33 0.07, 12.09 0, 12.83 0 C13.57 0, 14.33 0.07, 15.06 0.19 C15.79 0.32, 16.52 0.52, 17.22 0.77 C17.91 1.03, 18.6 1.35, 19.24 1.72 C19.89 2.09, 20.51 2.52, 21.08 3 C21.64 3.48, 22.18 4.01, 22.66 4.58 C23.13 5.15, 23.57 5.77, 23.94 6.41 C24.31 7.06, 24.63 7.74, 24.88 8.44 C25.14 9.14, 25.33 9.87, 25.46 10.6 C25.59 11.33, 25.63 12.46, 25.66 12.83 C25.69 13.2, 25.69 12.46, 25.66 12.83" stroke="transparent" stroke-width="1" fill="none"></path></g><g stroke-linecap="round"><g transform="translate(1992.8334292728614 793.789589862783) rotate(0 52.19755332146451 16.42104001816915)" fill-rule="evenodd"><path d="M0.04 -0.77 L16.38 7.28 L16.96 13.64 L14.14 19.87 L-6.13 16.58 L-5.24 24.6 L6.03 32.55 L23.68 31.31 L29.38 24.2 L105.56 39.58 L110.26 29.55 L31.77 12.74 L28.03 -0.31 L12.31 -7.65 L-0.1 0.64" stroke="none" stroke-width="0" fill="#ced4da" fill-rule="evenodd"></path><path d="M0 0 C4.61 2.37, 9.12 3.38, 17.2 7.5 M0 0 C6.05 2.93, 11.62 5.43, 17.2 7.5 M17.2 7.5 C17.49 10.15, 17.24 12.79, 17.56 14.27 M17.2 7.5 C17.45 9.83, 17.5 11.98, 17.56 14.27 M17.56 14.27 C16.72 15.84, 16.31 17.05, 13.95 20.48 M17.56 14.27 C16.37 16.07, 15.31 18.01, 13.95 20.48 M13.95 20.48 C6.94 18.25, -1.25 17.01, -5.25 16.15 M13.95 20.48 C7.05 18.81, 0.75 17.71, -5.25 16.15 M-5.25 16.15 C-5.22 18.28, -5.47 21.04, -4.98 23.99 M-5.25 16.15 C-5.16 17.93, -5.19 19.83, -4.98 23.99 M-4.98 23.99 C-1.33 27.01, 2.93 29.92, 6.65 32.92 M-4.98 23.99 C-0.92 26.66, 2.8 30.21, 6.65 32.92 M6.65 32.92 C11.28 32.21, 15.3 31.48, 22.87 30.48 M6.65 32.92 C10.48 32.37, 13.97 31.65, 22.87 30.48 M22.87 30.48 C24.88 28.89, 26.93 26.13, 29.36 23.72 M22.87 30.48 C24.8 28.6, 26.31 26.92, 29.36 23.72 M29.36 23.72 C59.85 30.91, 89.13 36.67, 105.9 40.49 M29.36 23.72 C47.7 27.79, 66.21 31.6, 105.9 40.49 M105.9 40.49 C106.37 38.01, 107.86 35.73, 109.68 29.67 M105.9 40.49 C107.23 36.44, 108.68 32.1, 109.68 29.67 M109.68 29.67 C85.32 24.04, 60.8 18.4, 31.26 12.91 M109.68 29.67 C80.66 23.25, 51.74 17.28, 31.26 12.91 M31.26 12.91 C30.03 9.44, 29.97 6.61, 27.74 0.47 M31.26 12.91 C29.7 8.03, 28.68 3.01, 27.74 0.47 M27.74 0.47 C24.5 -1.69, 19.76 -3.9, 11.52 -7.65 M27.74 0.47 C22.82 -2.32, 17.72 -4.13, 11.52 -7.65 M11.52 -7.65 C7.84 -4.67, 4.11 -2.12, 0 0 M11.52 -7.65 C7.78 -5.32, 4.07 -2.54, 0 0 M0 0 C0 0, 0 0, 0 0 M0 0 C0 0, 0 0, 0 0" stroke="#495057" stroke-width="2" fill="none"></path></g></g><mask></mask><g transform="translate(2000.9999999999964 1652.9884831102536) rotate(0 42.93333435058594 22.5)"><text x="0" y="0" font-family="Virgil, Segoe UI Emoji" font-size="36px" fill="#1e1e1e" text-anchor="start" style="white-space: pre;" direction="ltr" dominant-baseline="text-before-edge">apply</text></g><g stroke-linecap="round"><g transform="translate(1972.0337482555296 1561.4028671036504) rotate(0 32.91178113987735 10.96976233463647)" fill-rule="evenodd"><path d="M1.46 -0.24 L6.84 -8.23 L1.2 -15.31 L12.79 -22.82 L17.66 -18.77 L30.68 -24.28 L33.41 -31.19 L44.38 -29.88 L44.05 -22.74 L52.18 -16.94 L61.38 -18.4 L68.65 -11.31 L65.55 -3.95 L69.41 4.58 L74.28 10.93 L74.52 19.94 L65.31 23.27 L60.21 34.09 L64.62 38.49 L54.05 47.97 L48 41.67 L38.16 45.21 L33.73 53.05 L21.92 52.68 L22.58 42.65 L9.72 39.11 L5.1 39.76 L-3.7 32.4 L1.67 24.56 L-2.61 14.78 L-9.51 13 L-8.34 3.62 L-1.64 1.52" stroke="none" stroke-width="0" fill="#e1effc" fill-rule="evenodd"></path><path d="M0 0 C3.19 -3.94, 5.04 -6.53, 5.73 -9.34 M0 0 C2.42 -3.31, 3.63 -5.88, 5.73 -9.34 M5.73 -9.34 C3.9 -12.17, 3.36 -14.68, 2.4 -17.26 M5.73 -9.34 C4.71 -10.85, 4.31 -12.67, 2.4 -17.26 M2.4 -17.26 C5.52 -19.61, 8.28 -22.62, 12.82 -24.76 M2.4 -17.26 C6.4 -20.71, 10.51 -23.73, 12.82 -24.76 M12.82 -24.76 C14.54 -23.63, 16.3 -22.57, 19.15 -20.24 M12.82 -24.76 C14.61 -23.25, 17.05 -22.18, 19.15 -20.24 M19.15 -20.24 C20.58 -20.52, 23.51 -22.47, 29.28 -23.27 M19.15 -20.24 C22.76 -21.03, 26.64 -22.47, 29.28 -23.27 M29.28 -23.27 C29.57 -25.98, 31.07 -26.28, 32.03 -31.6 M29.28 -23.27 C29.84 -25.59, 30.79 -28.67, 32.03 -31.6 M32.03 -31.6 C35.74 -31.7, 39.39 -29.95, 42.84 -30.4 M32.03 -31.6 C36.21 -31.05, 40.26 -30.14, 42.84 -30.4 M42.84 -30.4 C43.19 -28.59, 43.62 -27.56, 44.09 -22.99 M42.84 -30.4 C43.34 -27.97, 43.42 -26.27, 44.09 -22.99 M44.09 -22.99 C47.22 -21.22, 47.84 -21.23, 53.89 -17.08 M44.09 -22.99 C46.9 -21.24, 50.26 -19.83, 53.89 -17.08 M53.89 -17.08 C57.16 -17.95, 60.71 -19.98, 62.93 -20.1 M53.89 -17.08 C56.42 -18.37, 59.32 -18.78, 62.93 -20.1 M62.93 -20.1 C64.85 -17.54, 66.54 -16.63, 69.47 -12.06 M62.93 -20.1 C64.98 -17.65, 66.63 -16.44, 69.47 -12.06 M69.47 -12.06 C67.33 -9.29, 65.92 -6.27, 64.82 -4.77 M69.47 -12.06 C67.72 -9.11, 66.04 -6.67, 64.82 -4.77 M64.82 -4.77 C66.71 -1.8, 65.45 -0.01, 67.96 6.03 M64.82 -4.77 C66.6 -1.09, 67.05 3.62, 67.96 6.03 M67.96 6.03 C71.32 6.92, 73.52 9.93, 75.87 9.92 M67.96 6.03 C69.67 7.17, 72.29 7.9, 75.87 9.92 M75.87 9.92 C75.01 13.9, 75.59 18.14, 74.49 20.85 M75.87 9.92 C75.21 13.2, 74.78 17.4, 74.49 20.85 M74.49 20.85 C72.04 20.45, 70.9 21.25, 66.58 22.36 M74.49 20.85 C71.8 21.41, 68.71 21.52, 66.58 22.36 M66.58 22.36 C64.28 23.45, 64.49 26.78, 60.67 32.91 M66.58 22.36 C64.23 26.96, 62.16 30.78, 60.67 32.91 M60.67 32.91 C62.02 35.76, 62.51 37.32, 63.94 39.95 M60.67 32.91 C61.53 34.93, 62.55 37.18, 63.94 39.95 M63.94 39.95 C61.97 41.34, 57.69 45.38, 55.77 46.98 M63.94 39.95 C60.85 42.69, 57.55 44.99, 55.77 46.98 M55.77 46.98 C53.54 45.18, 52.17 44.98, 49.12 42.46 M55.77 46.98 C53.75 46.12, 52.16 44.17, 49.12 42.46 M49.12 42.46 C45.53 43.43, 43.06 44.09, 37.94 45.22 M49.12 42.46 C45.8 42.7, 42.47 43.6, 37.94 45.22 M37.94 45.22 C36.26 48.38, 34.69 51.28, 34.04 53.51 M37.94 45.22 C37.06 46.54, 36.46 48.99, 34.04 53.51 M34.04 53.51 C29.32 53.76, 25.01 52.53, 22.86 51.75 M34.04 53.51 C31.88 53.4, 29.58 52.79, 22.86 51.75 M22.86 51.75 C22.78 49.27, 22.28 45.61, 21.48 43.21 M22.86 51.75 C22.09 48.48, 22.09 44.91, 21.48 43.21 M21.48 43.21 C18.91 42.5, 15.55 41.09, 11.56 39.19 M21.48 43.21 C18.34 41.56, 14.67 40.29, 11.56 39.19 M11.56 39.19 C8.33 40.04, 6.51 41.02, 4.27 41.58 M11.56 39.19 C8.89 40.06, 6.5 41, 4.27 41.58 M4.27 41.58 C0.93 39.71, -1.09 35.16, -2.26 34.04 M4.27 41.58 C1.8 38.88, 0.46 36.57, -2.26 34.04 M-2.26 34.04 C-1.52 32.5, 0.03 29.24, 1.38 26.25 M-2.26 34.04 C-1.24 32.12, -0.74 29.81, 1.38 26.25 M1.38 26.25 C0.25 22.81, -0.52 19.99, -1.63 15.83 M1.38 26.25 C0.27 22.22, -0.96 17.89, -1.63 15.83 M-1.63 15.83 C-2.87 15.47, -5.67 13.09, -10.05 11.31 M-1.63 15.83 C-4.48 13.93, -8.12 12.57, -10.05 11.31 M-10.05 11.31 C-9.23 8.42, -9.66 4.51, -8.29 1.88 M-10.05 11.31 C-9.4 7.94, -8.35 3.91, -8.29 1.88 M-8.29 1.88 C-5.79 1.75, -4.45 1.2, 0 0 M-8.29 1.88 C-6.14 1.19, -4.44 1.45, 0 0 M0 0 C0 0, 0 0, 0 0 M0 0 C0 0, 0 0, 0 0" stroke="#aaa" stroke-width="1" fill="none"></path></g></g><mask></mask><g stroke-linecap="round" transform="translate(1978.6580662689921 1545.958149951155) rotate(0 26.017826484714533 26.017826484712714)"><path d="M15.85 2.41 C20.53 -0.08, 28.19 0.01, 33.44 1.33 C38.69 2.65, 44.34 5.83, 47.36 10.34 C50.37 14.85, 52.07 22.85, 51.51 28.37 C50.95 33.89, 47.78 39.39, 44.01 43.46 C40.24 47.53, 34.38 52.28, 28.89 52.8 C23.4 53.33, 15.63 50.06, 11.1 46.6 C6.57 43.14, 3.1 37.38, 1.72 32.05 C0.35 26.71, 0.06 19.69, 2.85 14.61 C5.64 9.53, 14.82 3.98, 18.47 1.57 C22.13 -0.84, 24.57 -0.06, 24.78 0.15 M18.89 0.51 C23.69 -1.61, 30.97 -0.42, 35.99 2.03 C41.01 4.48, 46.68 10.09, 49.02 15.22 C51.36 20.35, 51.07 27.58, 50.03 32.81 C48.99 38.04, 46.83 43.35, 42.77 46.62 C38.71 49.89, 31.42 52.64, 25.65 52.42 C19.89 52.21, 12.18 48.9, 8.18 45.33 C4.19 41.75, 2.35 36.34, 1.69 30.95 C1.02 25.57, 1.63 18.2, 4.19 13.04 C6.76 7.88, 14.99 1.84, 17.08 -0.01 C19.16 -1.85, 16.4 1.1, 16.71 1.97" stroke="none" stroke-width="0" fill="#c9d5e1"></path><path d="M33.14 1.85 C38.2 3.09, 43.99 6.56, 47.2 11.14 C50.4 15.73, 53.01 23.76, 52.37 29.38 C51.74 34.99, 47.63 41.05, 43.39 44.82 C39.15 48.58, 32.39 51.54, 26.93 51.96 C21.46 52.38, 15.08 50.76, 10.59 47.34 C6.11 43.91, 1.48 37, 0.03 31.41 C-1.42 25.82, -0.83 18.64, 1.88 13.78 C4.59 8.93, 10.21 4.07, 16.28 2.29 C22.35 0.51, 34.09 2.49, 38.29 3.1 C42.48 3.71, 41.82 5.6, 41.45 5.96 M14.31 1.46 C18.88 -1.66, 26.38 -1.83, 31.74 -0.53 C37.1 0.77, 43.23 4.46, 46.46 9.25 C49.7 14.04, 51.3 22.37, 51.14 28.21 C50.98 34.05, 49.21 40.2, 45.52 44.27 C41.83 48.33, 34.67 51.93, 29.02 52.59 C23.38 53.25, 16.16 51.18, 11.65 48.22 C7.15 45.26, 3.78 40.23, 1.97 34.82 C0.16 29.42, -1.27 21.41, 0.78 15.8 C2.82 10.2, 12.18 3.13, 14.26 1.22 C16.35 -0.69, 12.93 3.86, 13.29 4.34" stroke="transparent" stroke-width="1" fill="none"></path></g><g stroke-linecap="round"><g transform="translate(2087.953248385191 1562.9727445655299) rotate(0 12.277029021868657 4.086676600003557)" fill-rule="evenodd"><path d="M-0.31 0.51 L2.13 -2.98 L0.5 -6.06 L5.15 -9.5 L7.51 -7.44 L11.33 -8.54 L11.94 -11.72 L15.53 -11.3 L16.04 -8.13 L19.89 -6.18 L23.67 -7.28 L26.29 -4.88 L23.76 -1.52 L25.36 2.01 L27.97 3.94 L27.67 8.09 L25.01 7.96 L22.18 12.54 L23.56 14.7 L20.86 17.52 L18.24 15.72 L13.91 17.11 L12.99 19.82 L8.05 19.29 L8.23 15.64 L3.94 14.19 L1.67 15.07 L-1.1 12.43 L0.66 10.24 L-0.62 6.36 L-4.18 4.62 L-3.23 0.72 L-0.47 -0.45" stroke="none" stroke-width="0" fill="#e1effc" fill-rule="evenodd"></path><path d="M0 0 C0.59 -1.02, 1.11 -1.76, 2.14 -3.48 M0 0 C0.58 -0.93, 1.1 -1.83, 2.14 -3.48 M2.14 -3.48 C1.71 -4.43, 1.33 -5.31, 0.89 -6.44 M2.14 -3.48 C1.69 -4.58, 1.22 -5.72, 0.89 -6.44 M0.89 -6.44 C2.27 -7.34, 3.28 -8.26, 4.78 -9.24 M0.89 -6.44 C1.7 -7.01, 2.6 -7.63, 4.78 -9.24 M4.78 -9.24 C5.54 -8.67, 6.31 -8.27, 7.14 -7.55 M4.78 -9.24 C5.49 -8.67, 6.28 -8.2, 7.14 -7.55 M7.14 -7.55 C8.48 -7.9, 9.78 -8.31, 10.92 -8.68 M7.14 -7.55 C8.51 -7.99, 9.96 -8.41, 10.92 -8.68 M10.92 -8.68 C11.13 -9.39, 11.41 -10.03, 11.95 -11.79 M10.92 -8.68 C11.31 -9.71, 11.61 -10.82, 11.95 -11.79 M11.95 -11.79 C13.02 -11.62, 13.87 -11.56, 15.98 -11.34 M11.95 -11.79 C13.14 -11.61, 14.45 -11.52, 15.98 -11.34 M15.98 -11.34 C16.14 -10.33, 16.37 -9.45, 16.45 -8.58 M15.98 -11.34 C16.11 -10.35, 16.31 -9.33, 16.45 -8.58 M16.45 -8.58 C17.74 -7.84, 18.94 -7.06, 20.1 -6.37 M16.45 -8.58 C17.49 -7.91, 18.51 -7.36, 20.1 -6.37 M20.1 -6.37 C21.22 -6.71, 22.35 -7.14, 23.48 -7.5 M20.1 -6.37 C20.8 -6.58, 21.53 -6.85, 23.48 -7.5 M23.48 -7.5 C24.28 -6.47, 25.2 -5.3, 25.91 -4.5 M23.48 -7.5 C24.47 -6.28, 25.41 -5.19, 25.91 -4.5 M25.91 -4.5 C25.47 -3.76, 24.84 -2.86, 24.18 -1.78 M25.91 -4.5 C25.31 -3.59, 24.76 -2.61, 24.18 -1.78 M24.18 -1.78 C24.63 -0.38, 24.87 0.9, 25.35 2.25 M24.18 -1.78 C24.5 -0.8, 24.74 0.1, 25.35 2.25 M25.35 2.25 C25.99 2.52, 26.68 2.85, 28.3 3.7 M25.35 2.25 C26.32 2.73, 27.25 3.17, 28.3 3.7 M28.3 3.7 C28.17 4.97, 28.05 6.31, 27.79 7.78 M28.3 3.7 C28.15 4.69, 28.01 5.73, 27.79 7.78 M27.79 7.78 C27.23 7.93, 26.49 8.05, 24.84 8.34 M27.79 7.78 C26.81 7.98, 25.91 8.09, 24.84 8.34 M24.84 8.34 C24.5 9.06, 23.96 10, 22.63 12.28 M24.84 8.34 C24.05 9.72, 23.25 11.22, 22.63 12.28 M22.63 12.28 C23.13 13.35, 23.54 14.32, 23.85 14.9 M22.63 12.28 C22.95 12.92, 23.2 13.6, 23.85 14.9 M23.85 14.9 C23.3 15.39, 22.51 15.97, 20.81 17.53 M23.85 14.9 C22.82 15.84, 21.82 16.67, 20.81 17.53 M20.81 17.53 C20.18 17.13, 19.61 16.67, 18.32 15.84 M20.81 17.53 C19.8 16.83, 18.83 16.16, 18.32 15.84 M18.32 15.84 C16.92 16.22, 15.48 16.46, 14.15 16.87 M18.32 15.84 C17.41 16.1, 16.42 16.3, 14.15 16.87 M14.15 16.87 C13.65 17.69, 13.38 18.62, 12.7 19.96 M14.15 16.87 C13.87 17.57, 13.52 18.18, 12.7 19.96 M12.7 19.96 C11.01 19.82, 9.53 19.5, 8.53 19.31 M12.7 19.96 C11.27 19.71, 9.87 19.53, 8.53 19.31 M8.53 19.31 C8.44 18.29, 8.19 17.14, 8.01 16.12 M8.53 19.31 C8.36 18.24, 8.22 17.25, 8.01 16.12 M8.01 16.12 C6.78 15.68, 5.4 15.14, 4.31 14.62 M8.01 16.12 C7.09 15.72, 6.11 15.31, 4.31 14.62 M4.31 14.62 C3.54 14.83, 2.73 15.1, 1.59 15.51 M4.31 14.62 C3.49 14.91, 2.6 15.14, 1.59 15.51 M1.59 15.51 C0.65 14.46, -0.26 13.23, -0.84 12.7 M1.59 15.51 C1.06 14.89, 0.58 14.31, -0.84 12.7 M-0.84 12.7 C-0.4 11.66, 0.14 10.66, 0.52 9.79 M-0.84 12.7 C-0.41 11.78, 0.03 10.85, 0.52 9.79 M0.52 9.79 C0.31 8.68, -0.12 7.7, -0.61 5.9 M0.52 9.79 C0.13 8.6, -0.23 7.42, -0.61 5.9 M-0.61 5.9 C-1.74 5.19, -3.07 4.65, -3.75 4.22 M-0.61 5.9 C-1.41 5.49, -2.29 5.04, -3.75 4.22 M-3.75 4.22 C-3.46 3.1, -3.34 1.96, -3.09 0.7 M-3.75 4.22 C-3.59 3.04, -3.33 1.96, -3.09 0.7 M-3.09 0.7 C-2.13 0.42, -1.13 0.28, 0 0 M-3.09 0.7 C-2.43 0.55, -1.74 0.41, 0 0 M0 0 C0 0, 0 0, 0 0 M0 0 C0 0, 0 0, 0 0" stroke="#aaa" stroke-width="1" fill="none"></path></g></g><mask></mask><g stroke-linecap="round" transform="translate(2091.5559648534218 1558.219709361816) rotate(0 8.721466531140322 8.721466531140322)"><path d="M17.44 8.72 C17.44 9.23, 17.4 9.74, 17.31 10.24 C17.22 10.73, 17.09 11.23, 16.92 11.7 C16.74 12.18, 16.53 12.65, 16.27 13.08 C16.02 13.52, 15.73 13.94, 15.4 14.33 C15.08 14.71, 14.71 15.08, 14.33 15.4 C13.94 15.73, 13.52 16.02, 13.08 16.27 C12.65 16.53, 12.18 16.74, 11.7 16.92 C11.23 17.09, 10.73 17.22, 10.24 17.31 C9.74 17.4, 9.23 17.44, 8.72 17.44 C8.22 17.44, 7.7 17.4, 7.21 17.31 C6.71 17.22, 6.21 17.09, 5.74 16.92 C5.26 16.74, 4.8 16.53, 4.36 16.27 C3.92 16.02, 3.5 15.73, 3.12 15.4 C2.73 15.08, 2.36 14.71, 2.04 14.33 C1.72 13.94, 1.42 13.52, 1.17 13.08 C0.92 12.65, 0.7 12.18, 0.53 11.7 C0.35 11.23, 0.22 10.73, 0.13 10.24 C0.04 9.74, 0 9.23, 0 8.72 C0 8.22, 0.04 7.7, 0.13 7.21 C0.22 6.71, 0.35 6.21, 0.53 5.74 C0.7 5.26, 0.92 4.8, 1.17 4.36 C1.42 3.92, 1.72 3.5, 2.04 3.12 C2.36 2.73, 2.73 2.36, 3.12 2.04 C3.5 1.72, 3.92 1.42, 4.36 1.17 C4.8 0.92, 5.26 0.7, 5.74 0.53 C6.21 0.35, 6.71 0.22, 7.21 0.13 C7.7 0.04, 8.22 0, 8.72 0 C9.23 0, 9.74 0.04, 10.24 0.13 C10.73 0.22, 11.23 0.35, 11.7 0.53 C12.18 0.7, 12.65 0.92, 13.08 1.17 C13.52 1.42, 13.94 1.72, 14.33 2.04 C14.71 2.36, 15.08 2.73, 15.4 3.12 C15.73 3.5, 16.02 3.92, 16.27 4.36 C16.53 4.8, 16.74 5.26, 16.92 5.74 C17.09 6.21, 17.22 6.71, 17.31 7.21 C17.4 7.7, 17.42 8.47, 17.44 8.72 C17.47 8.97, 17.47 8.47, 17.44 8.72" stroke="none" stroke-width="0" fill="#c9d5e1"></path><path d="M17.44 8.72 C17.44 9.23, 17.4 9.74, 17.31 10.24 C17.22 10.73, 17.09 11.23, 16.92 11.7 C16.74 12.18, 16.53 12.65, 16.27 13.08 C16.02 13.52, 15.73 13.94, 15.4 14.33 C15.08 14.71, 14.71 15.08, 14.33 15.4 C13.94 15.73, 13.52 16.02, 13.08 16.27 C12.65 16.53, 12.18 16.74, 11.7 16.92 C11.23 17.09, 10.73 17.22, 10.24 17.31 C9.74 17.4, 9.23 17.44, 8.72 17.44 C8.22 17.44, 7.7 17.4, 7.21 17.31 C6.71 17.22, 6.21 17.09, 5.74 16.92 C5.26 16.74, 4.8 16.53, 4.36 16.27 C3.92 16.02, 3.5 15.73, 3.12 15.4 C2.73 15.08, 2.36 14.71, 2.04 14.33 C1.72 13.94, 1.42 13.52, 1.17 13.08 C0.92 12.65, 0.7 12.18, 0.53 11.7 C0.35 11.23, 0.22 10.73, 0.13 10.24 C0.04 9.74, 0 9.23, 0 8.72 C0 8.22, 0.04 7.7, 0.13 7.21 C0.22 6.71, 0.35 6.21, 0.53 5.74 C0.7 5.26, 0.92 4.8, 1.17 4.36 C1.42 3.92, 1.72 3.5, 2.04 3.12 C2.36 2.73, 2.73 2.36, 3.12 2.04 C3.5 1.72, 3.92 1.42, 4.36 1.17 C4.8 0.92, 5.26 0.7, 5.74 0.53 C6.21 0.35, 6.71 0.22, 7.21 0.13 C7.7 0.04, 8.22 0, 8.72 0 C9.23 0, 9.74 0.04, 10.24 0.13 C10.73 0.22, 11.23 0.35, 11.7 0.53 C12.18 0.7, 12.65 0.92, 13.08 1.17 C13.52 1.42, 13.94 1.72, 14.33 2.04 C14.71 2.36, 15.08 2.73, 15.4 3.12 C15.73 3.5, 16.02 3.92, 16.27 4.36 C16.53 4.8, 16.74 5.26, 16.92 5.74 C17.09 6.21, 17.22 6.71, 17.31 7.21 C17.4 7.7, 17.42 8.47, 17.44 8.72 C17.47 8.97, 17.47 8.47, 17.44 8.72" stroke="transparent" stroke-width="1" fill="none"></path></g><g stroke-linecap="round"><g transform="translate(2024.3893823360522 1508.6940656400693) rotate(0 18.05920241027161 6.011398993461626)" fill-rule="evenodd"><path d="M-0.64 0.63 L3.74 -5.56 L1.91 -9.29 L7.7 -13.36 L10.49 -11 L15.33 -12.71 L16.91 -16.61 L23.15 -16.36 L24.51 -12.26 L30.19 -9.99 L33.85 -10.6 L38.13 -7.01 L35.02 -2.23 L37.09 3.82 L41.93 4.82 L40.13 11.87 L36.05 11.93 L33.39 18.05 L34.95 21.72 L30.2 26.18 L27.42 23.06 L20.03 24.78 L19.04 28.58 L11.93 27.69 L11.91 22.98 L5.92 21.06 L2.57 23.54 L-1.26 19.43 L0.05 15.06 L-1.13 8.71 L-6.28 5.47 L-3.96 1.26 L0.1 -0.09" stroke="none" stroke-width="0" fill="#e1effc" fill-rule="evenodd"></path><path d="M0 0 C0.57 -1.22, 1.49 -2.09, 3.14 -5.13 M0 0 C0.74 -1.21, 1.53 -2.5, 3.14 -5.13 M3.14 -5.13 C2.91 -6.06, 2.51 -6.95, 1.32 -9.47 M3.14 -5.13 C2.56 -6.64, 1.93 -7.86, 1.32 -9.47 M1.32 -9.47 C2.74 -10.76, 4.39 -12.03, 7.03 -13.59 M1.32 -9.47 C3.25 -10.79, 5.17 -12.2, 7.03 -13.59 M7.03 -13.59 C8.32 -12.7, 9.37 -11.95, 10.51 -11.1 M7.03 -13.59 C8.39 -12.63, 9.58 -11.65, 10.51 -11.1 M10.51 -11.1 C12.44 -11.52, 14.03 -12.34, 16.07 -12.77 M10.51 -11.1 C11.82 -11.45, 13.47 -11.95, 16.07 -12.77 M16.07 -12.77 C16.48 -13.88, 16.54 -14.68, 17.57 -17.34 M16.07 -12.77 C16.58 -14.54, 17.27 -16.09, 17.57 -17.34 M17.57 -17.34 C19.71 -17.11, 22.04 -17.12, 23.5 -16.68 M17.57 -17.34 C19.93 -17.05, 22.15 -16.83, 23.5 -16.68 M23.5 -16.68 C23.89 -15.18, 23.92 -13.63, 24.19 -12.61 M23.5 -16.68 C23.77 -15.42, 23.89 -14.11, 24.19 -12.61 M24.19 -12.61 C25.54 -11.69, 26.76 -10.72, 29.57 -9.37 M24.19 -12.61 C26.36 -11.31, 28.34 -10.08, 29.57 -9.37 M29.57 -9.37 C31.06 -9.85, 32.97 -10.6, 34.53 -11.03 M29.57 -9.37 C31.47 -9.96, 33.19 -10.66, 34.53 -11.03 M34.53 -11.03 C35.73 -9.62, 36.33 -8.45, 38.12 -6.62 M34.53 -11.03 C35.95 -9.3, 37.4 -7.44, 38.12 -6.62 M38.12 -6.62 C37.66 -5.69, 36.96 -5.05, 35.57 -2.62 M38.12 -6.62 C37.45 -5.59, 36.66 -4.33, 35.57 -2.62 M35.57 -2.62 C36.06 -0.37, 37.06 2.37, 37.29 3.31 M35.57 -2.62 C36.15 -0.46, 37.03 1.88, 37.29 3.31 M37.29 3.31 C38.36 3.93, 39.25 4.41, 41.63 5.45 M37.29 3.31 C38.73 4.07, 40.2 4.73, 41.63 5.45 M41.63 5.45 C41.33 6.88, 41.46 8.35, 40.87 11.44 M41.63 5.45 C41.33 6.86, 41.23 8.18, 40.87 11.44 M40.87 11.44 C39.4 11.74, 37.7 11.85, 36.53 12.27 M40.87 11.44 C39.1 11.77, 37.5 12.16, 36.53 12.27 M36.53 12.27 C36.03 13.67, 35.17 14.71, 33.29 18.06 M36.53 12.27 C35.94 13.57, 35.1 14.91, 33.29 18.06 M33.29 18.06 C33.79 19.29, 34.43 20.79, 35.08 21.92 M33.29 18.06 C33.72 19.14, 34.37 20.37, 35.08 21.92 M35.08 21.92 C34.03 22.75, 32.75 23.91, 30.6 25.78 M35.08 21.92 C33.29 23.51, 31.75 24.88, 30.6 25.78 M30.6 25.78 C29.64 25.04, 28.18 24.13, 26.95 23.3 M30.6 25.78 C29.78 25.15, 28.92 24.58, 26.95 23.3 M26.95 23.3 C24.69 23.53, 22.69 24.57, 20.82 24.81 M26.95 23.3 C24.73 23.81, 22.47 24.25, 20.82 24.81 M20.82 24.81 C20.15 25.94, 20.02 27.04, 18.68 29.36 M20.82 24.81 C20.1 26.42, 19.24 28.12, 18.68 29.36 M18.68 29.36 C16.35 29.07, 13.79 28.67, 12.54 28.4 M18.68 29.36 C17.12 29.17, 15.38 29, 12.54 28.4 M12.54 28.4 C12.33 26.89, 11.97 25.07, 11.79 23.71 M12.54 28.4 C12.39 27.29, 12.19 26.16, 11.79 23.71 M11.79 23.71 C9.7 22.89, 7.75 22.27, 6.34 21.51 M11.79 23.71 C10.27 23.13, 8.78 22.51, 6.34 21.51 M6.34 21.51 C5.43 21.73, 4.56 22.21, 2.34 22.82 M6.34 21.51 C5.1 21.86, 3.61 22.36, 2.34 22.82 M2.34 22.82 C0.88 21.44, -0.38 19.83, -1.24 18.68 M2.34 22.82 C1.47 21.79, 0.37 20.61, -1.24 18.68 M-1.24 18.68 C-0.64 17.3, -0.22 16.24, 0.76 14.41 M-1.24 18.68 C-0.68 17.41, -0.07 16.25, 0.76 14.41 M0.76 14.41 C0.4 13.03, -0.11 11.53, -0.9 8.68 M0.76 14.41 C0.35 12.55, -0.36 10.8, -0.9 8.68 M-0.9 8.68 C-2 7.96, -2.9 7.65, -5.51 6.2 M-0.9 8.68 C-2.54 7.71, -4.3 6.97, -5.51 6.2 M-5.51 6.2 C-5.14 4.78, -5.09 2.76, -4.55 1.03 M-5.51 6.2 C-5.24 4.97, -5.02 3.54, -4.55 1.03 M-4.55 1.03 C-3.59 0.76, -2.16 0.39, 0 0 M-4.55 1.03 C-3.12 0.73, -1.58 0.33, 0 0 M0 0 C0 0, 0 0, 0 0 M0 0 C0 0, 0 0, 0 0" stroke="#aaa" stroke-width="1" fill="none"></path></g></g><mask></mask><g stroke-linecap="round" transform="translate(2029.6888880886945 1501.7024698187888) rotate(0 12.829058978335524 12.829058978335524)"><path d="M25.66 12.83 C25.66 13.57, 25.59 14.33, 25.46 15.06 C25.33 15.79, 25.14 16.52, 24.88 17.22 C24.63 17.91, 24.31 18.6, 23.94 19.24 C23.57 19.89, 23.13 20.51, 22.66 21.08 C22.18 21.64, 21.64 22.18, 21.08 22.66 C20.51 23.13, 19.89 23.57, 19.24 23.94 C18.6 24.31, 17.91 24.63, 17.22 24.88 C16.52 25.14, 15.79 25.33, 15.06 25.46 C14.33 25.59, 13.57 25.66, 12.83 25.66 C12.09 25.66, 11.33 25.59, 10.6 25.46 C9.87 25.33, 9.14 25.14, 8.44 24.88 C7.74 24.63, 7.06 24.31, 6.41 23.94 C5.77 23.57, 5.15 23.13, 4.58 22.66 C4.01 22.18, 3.48 21.64, 3 21.08 C2.52 20.51, 2.09 19.89, 1.72 19.24 C1.35 18.6, 1.03 17.91, 0.77 17.22 C0.52 16.52, 0.32 15.79, 0.19 15.06 C0.07 14.33, 0 13.57, 0 12.83 C0 12.09, 0.07 11.33, 0.19 10.6 C0.32 9.87, 0.52 9.14, 0.77 8.44 C1.03 7.74, 1.35 7.06, 1.72 6.41 C2.09 5.77, 2.52 5.15, 3 4.58 C3.48 4.01, 4.01 3.48, 4.58 3 C5.15 2.52, 5.77 2.09, 6.41 1.72 C7.06 1.35, 7.74 1.03, 8.44 0.77 C9.14 0.52, 9.87 0.32, 10.6 0.19 C11.33 0.07, 12.09 0, 12.83 0 C13.57 0, 14.33 0.07, 15.06 0.19 C15.79 0.32, 16.52 0.52, 17.22 0.77 C17.91 1.03, 18.6 1.35, 19.24 1.72 C19.89 2.09, 20.51 2.52, 21.08 3 C21.64 3.48, 22.18 4.01, 22.66 4.58 C23.13 5.15, 23.57 5.77, 23.94 6.41 C24.31 7.06, 24.63 7.74, 24.88 8.44 C25.14 9.14, 25.33 9.87, 25.46 10.6 C25.59 11.33, 25.63 12.46, 25.66 12.83 C25.69 13.2, 25.69 12.46, 25.66 12.83" stroke="none" stroke-width="0" fill="#c9d5e1"></path><path d="M25.66 12.83 C25.66 13.57, 25.59 14.33, 25.46 15.06 C25.33 15.79, 25.14 16.52, 24.88 17.22 C24.63 17.91, 24.31 18.6, 23.94 19.24 C23.57 19.89, 23.13 20.51, 22.66 21.08 C22.18 21.64, 21.64 22.18, 21.08 22.66 C20.51 23.13, 19.89 23.57, 19.24 23.94 C18.6 24.31, 17.91 24.63, 17.22 24.88 C16.52 25.14, 15.79 25.33, 15.06 25.46 C14.33 25.59, 13.57 25.66, 12.83 25.66 C12.09 25.66, 11.33 25.59, 10.6 25.46 C9.87 25.33, 9.14 25.14, 8.44 24.88 C7.74 24.63, 7.06 24.31, 6.41 23.94 C5.77 23.57, 5.15 23.13, 4.58 22.66 C4.01 22.18, 3.48 21.64, 3 21.08 C2.52 20.51, 2.09 19.89, 1.72 19.24 C1.35 18.6, 1.03 17.91, 0.77 17.22 C0.52 16.52, 0.32 15.79, 0.19 15.06 C0.07 14.33, 0 13.57, 0 12.83 C0 12.09, 0.07 11.33, 0.19 10.6 C0.32 9.87, 0.52 9.14, 0.77 8.44 C1.03 7.74, 1.35 7.06, 1.72 6.41 C2.09 5.77, 2.52 5.15, 3 4.58 C3.48 4.01, 4.01 3.48, 4.58 3 C5.15 2.52, 5.77 2.09, 6.41 1.72 C7.06 1.35, 7.74 1.03, 8.44 0.77 C9.14 0.52, 9.87 0.32, 10.6 0.19 C11.33 0.07, 12.09 0, 12.83 0 C13.57 0, 14.33 0.07, 15.06 0.19 C15.79 0.32, 16.52 0.52, 17.22 0.77 C17.91 1.03, 18.6 1.35, 19.24 1.72 C19.89 2.09, 20.51 2.52, 21.08 3 C21.64 3.48, 22.18 4.01, 22.66 4.58 C23.13 5.15, 23.57 5.77, 23.94 6.41 C24.31 7.06, 24.63 7.74, 24.88 8.44 C25.14 9.14, 25.33 9.87, 25.46 10.6 C25.59 11.33, 25.63 12.46, 25.66 12.83 C25.69 13.2, 25.69 12.46, 25.66 12.83" stroke="transparent" stroke-width="1" fill="none"></path></g><g stroke-linecap="round"><g transform="translate(2041.333429272865 1561.6071175944526) rotate(0 52.207522799635626 16.42104001816915)" fill-rule="evenodd"><path d="M0.02 -0.83 L16.36 8.3 L17.47 13.4 L13.11 20.7 L-5.24 17.05 L-5.79 24.31 L6.8 33.48 L23.46 30.46 L29.35 23.05 L105.87 40.99 L110.56 29.6 L31.5 13.03 L28.12 -0.21 L11.06 -8.14 L-0.46 -0.38" stroke="none" stroke-width="0" fill="#ced4da" fill-rule="evenodd"></path><path d="M0 0 C3.94 1.92, 8.26 3.84, 17.2 7.5 M0 0 C4.72 1.92, 9.8 4.79, 17.2 7.5 M17.2 7.5 C17.41 9.72, 17.35 11.73, 17.56 14.27 M17.2 7.5 C17.25 8.77, 17.3 10.18, 17.56 14.27 M17.56 14.27 C16.69 16.06, 15.67 17.6, 13.95 20.48 M17.56 14.27 C16.4 16.6, 14.9 18.62, 13.95 20.48 M13.95 20.48 C9.14 19.64, 2.36 18.24, -5.25 16.15 M13.95 20.48 C7.96 19.54, 1.79 18.11, -5.25 16.15 M-5.25 16.15 C-5.31 18.9, -5.21 21.23, -4.98 23.99 M-5.25 16.15 C-5.26 19.1, -5.16 21.84, -4.98 23.99 M-4.98 23.99 C-1.55 25.94, 0.74 28.16, 6.65 32.92 M-4.98 23.99 C-2 25.9, 0.61 28.22, 6.65 32.92 M6.65 32.92 C12.17 32.65, 16.41 31.83, 22.87 30.48 M6.65 32.92 C12.32 32.46, 17.32 31.54, 22.87 30.48 M22.87 30.48 C24.5 28.95, 26.4 27.54, 29.36 23.72 M22.87 30.48 C24.65 28.43, 26.48 26.61, 29.36 23.72 M29.36 23.72 C54.87 29.79, 78.74 34.64, 105.9 40.49 M29.36 23.72 C54.39 29.21, 79.02 34.27, 105.9 40.49 M105.9 40.49 C107.54 36.67, 108.55 33.48, 109.68 29.67 M105.9 40.49 C107.09 37, 108.62 33.65, 109.68 29.67 M109.68 29.67 C80.06 23.98, 48.18 16.88, 31.26 12.91 M109.68 29.67 C86.69 24.96, 64.67 20.52, 31.26 12.91 M31.26 12.91 C29.91 8.87, 29.42 4.33, 27.74 0.47 M31.26 12.91 C30.83 10.1, 30.04 7.34, 27.74 0.47 M27.74 0.47 C24.23 -1.18, 19.52 -4.23, 11.52 -7.65 M27.74 0.47 C23.96 -1.43, 20.44 -2.95, 11.52 -7.65 M11.52 -7.65 C7.62 -4.98, 3.18 -2.11, 0 0 M11.52 -7.65 C7.27 -4.69, 3.23 -2.33, 0 0 M0 0 C0 0, 0 0, 0 0 M0 0 C0 0, 0 0, 0 0" stroke="#495057" stroke-width="2" fill="none"></path></g></g><mask></mask><g stroke-linecap="round"><g transform="translate(2216.5877735307186 890.8801842524263) rotate(0 -24.896925668175754 10.924633478422038)"><path d="M0 0 C-0.01 -1.8, -0.03 -3.61, -0.06 -7.43 M0 0 C-0.02 -2.38, -0.04 -4.76, -0.06 -7.43 M-0.06 -7.43 C-11.97 -7.43, -23.89 -7.43, -50.22 -7.43 M-0.06 -7.43 C-14.5 -7.43, -28.95 -7.43, -50.22 -7.43 M-50.22 -7.43 C-50.2 0.79, -50.18 9.02, -50.14 29.09 M-50.22 -7.43 C-50.19 4.47, -50.17 16.37, -50.14 29.09 M-50.14 29.09 C-37.05 29.14, -23.96 29.19, 0.41 29.28 M-50.14 29.09 C-32.44 29.15, -14.74 29.22, 0.41 29.28 M0.41 29.28 C0.41 26.65, 0.42 24.02, 0.42 21.41 M0.41 29.28 C0.41 26.93, 0.42 24.57, 0.42 21.41" stroke="#1e1e1e" stroke-width="4" fill="none"></path></g></g><mask></mask><g stroke-linecap="round" transform="translate(2209.2413196823472 954.4510351097924) rotate(0 18.208399463899696 18.45124338271853)"><path d="M0 0 L36.42 0 L36.42 36.9 L0 36.9" stroke="none" stroke-width="0" fill="#ffec99"></path><path d="M0 0 C12.69 0, 25.38 0, 36.42 0 M0 0 C13.86 0, 27.72 0, 36.42 0 M36.42 0 C36.42 13.48, 36.42 26.96, 36.42 36.9 M36.42 0 C36.42 13.13, 36.42 26.25, 36.42 36.9 M36.42 36.9 C22.95 36.9, 9.47 36.9, 0 36.9 M36.42 36.9 C25.04 36.9, 13.67 36.9, 0 36.9 M0 36.9 C0 24.48, 0 12.06, 0 0 M0 36.9 C0 27.52, 0 18.14, 0 0" stroke="#1e1e1e" stroke-width="4" fill="none"></path></g><g stroke-linecap="round" transform="translate(2137.862527704925 954.3847661210093) rotate(0 18.208399463899696 18.45124338271853)"><path d="M0 0 L36.42 0 L36.42 36.9 L0 36.9" stroke="none" stroke-width="0" fill="#ffec99"></path><path d="M0 0 C10.76 0, 21.53 0, 36.42 0 M0 0 C12.52 0, 25.04 0, 36.42 0 M36.42 0 C36.42 7.93, 36.42 15.86, 36.42 36.9 M36.42 0 C36.42 14.67, 36.42 29.34, 36.42 36.9 M36.42 36.9 C22.97 36.9, 9.53 36.9, 0 36.9 M36.42 36.9 C25.23 36.9, 14.05 36.9, 0 36.9 M0 36.9 C0 23.16, 0 9.41, 0 0 M0 36.9 C0 24.15, 0 11.4, 0 0" stroke="#1e1e1e" stroke-width="4" fill="none"></path></g><g stroke-linecap="round"><g transform="translate(2191.749366219832 920.244179475405) rotate(0 -0.003512844785291236 6.497506552361301)"><path d="M0 0 C0 3.03, 0 6.07, -0.01 13 M0 0 C0 3.53, 0 7.06, -0.01 13" stroke="#1e1e1e" stroke-width="4" fill="none"></path></g></g><mask></mask><g stroke-linecap="round"><g transform="translate(2155.630435609626 953.8011457494795) rotate(0 35.979257983881325 -10.150468517116678)"><path d="M0 0 C0.02 -4.52, 0.04 -9.05, 0.08 -20.29 M0 0 C0.03 -7.69, 0.06 -15.38, 0.08 -20.29 M0.08 -20.29 C25.62 -20.29, 51.16 -20.3, 71.96 -20.3 M0.08 -20.29 C26.9 -20.3, 53.72 -20.3, 71.96 -20.3 M71.96 -20.3 C71.95 -14.26, 71.94 -8.21, 71.93 -0.02 M71.96 -20.3 C71.95 -13.46, 71.94 -6.62, 71.93 -0.02" stroke="#1e1e1e" stroke-width="4" fill="none"></path></g></g><mask></mask><g stroke-linecap="round"><g transform="translate(2180.2098541530104 897.9321213683725) rotate(0 7.724118076896048 0.0034104231308447197)"><path d="M0 0 C4.13 0, 8.27 0, 15.45 0.01 M0 0 C4.7 0, 9.4 0, 15.45 0.01" stroke="#1e1e1e" stroke-width="4" fill="none"></path></g></g><mask></mask><g stroke-opacity="0" fill-opacity="0" stroke-linecap="round" transform="translate(1296.6213384181647 555.7922937967523) rotate(0 100.37866158183533 100.37866158183533)"><path d="M76.14 2.34 C87.54 -2.29, 101.83 -0.96, 114.5 1.03 C127.17 3.03, 141.03 7.8, 152.14 14.31 C163.25 20.81, 173.53 29.83, 181.18 40.06 C188.82 50.29, 194.82 63.14, 198.01 75.67 C201.21 88.2, 202.37 102.67, 200.35 115.27 C198.33 127.87, 192.49 140.49, 185.87 151.27 C179.25 162.04, 170.77 172.32, 160.62 179.94 C150.48 187.55, 137.53 193.82, 125.02 196.96 C112.51 200.11, 98.01 200.34, 85.56 198.81 C73.1 197.28, 61.17 194.11, 50.29 187.78 C39.41 181.44, 28.16 171.13, 20.28 160.78 C12.39 150.44, 6.03 138.26, 2.98 125.71 C-0.07 113.17, 0 98.13, 1.96 85.53 C3.92 72.93, 8.55 61.03, 14.74 50.13 C20.93 39.22, 28.29 28.18, 39.11 20.11 C49.94 12.04, 72.18 4.4, 79.69 1.7 C87.21 -1.01, 83.78 2.32, 84.2 3.9 M119.69 2.08 C132.21 2.92, 145.94 10.16, 156.73 17.33 C167.53 24.49, 177.46 34.74, 184.46 45.07 C191.45 55.4, 196.27 67.11, 198.71 79.29 C201.15 91.48, 201.49 105.33, 199.1 118.2 C196.72 131.07, 191.5 145.57, 184.42 156.51 C177.34 167.46, 167.1 176.93, 156.61 183.85 C146.13 190.77, 134.25 195.3, 121.52 198.02 C108.79 200.74, 93.11 202.58, 80.26 200.17 C67.4 197.76, 54.75 190.58, 44.39 183.57 C34.04 176.56, 25.28 168.64, 18.1 158.12 C10.93 147.6, 3.98 133.34, 1.33 120.44 C-1.32 107.54, -0.37 93.41, 2.18 80.74 C4.73 68.06, 9.58 54.93, 16.63 44.41 C23.68 33.89, 34.12 24.87, 44.49 17.63 C54.86 10.39, 66.31 3.7, 78.84 0.95 C91.37 -1.79, 113.13 0.73, 119.67 1.16 C126.21 1.59, 118.62 1.57, 118.1 3.54" stroke="#1e1e1e" stroke-width="4" fill="none"></path></g><g transform="translate(1338.973947667604 686.948740968437) rotate(0 57.71619099365125 21.493011928923806)"><text x="57.716190993651225" y="0" font-family="Virgil, Segoe UI Emoji" font-size="34.38881908627669px" fill="#1e1e1e" text-anchor="middle" style="white-space: pre;" direction="ltr" dominant-baseline="text-before-edge">pg_wal</text></g><g stroke-linecap="round"><g transform="translate(1347.751958711975 666.7168136135588) rotate(0 46.74159649879948 -21.31207994511351)"><path d="M0.24 0.34 C2.13 -5.71, 5.76 -29.2, 11.14 -36.26 C16.52 -43.31, 18.8 -41.11, 32.51 -41.97 C46.23 -42.83, 83.3 -41.48, 93.43 -41.4 M-0.11 0.18 C1.92 -5.8, 6.44 -28.61, 11.83 -35.74 C17.23 -42.86, 18.65 -41.5, 32.28 -42.56 C45.9 -43.62, 83.49 -42.31, 93.59 -42.09" stroke="#1e1e1e" stroke-width="4" fill="none"></path></g></g><mask></mask><g stroke-linecap="round"><g transform="translate(1439.2977284180124 624.0519263149399) rotate(0 -40.915204575107055 8.378045949673833)"><path d="M-1.02 0.17 C0.92 1.09, 11.62 -0.01, 12.39 6.54 C13.16 13.09, 7.56 32.85, 3.6 39.46 C-0.36 46.06, 2.29 45.03, -11.36 46.17 C-25.02 47.32, -65 48.32, -78.33 46.31 C-91.67 44.31, -88.83 44.86, -91.36 34.17 C-93.88 23.47, -94.06 -7.38, -93.49 -17.87 C-92.91 -28.36, -92.92 -26.84, -87.93 -28.77 C-82.94 -30.7, -68.93 -31.62, -63.55 -29.44 C-58.16 -27.26, -64.54 -17.78, -55.64 -15.68 C-46.73 -13.59, -19.29 -17.42, -10.13 -16.88 C-0.98 -16.34, -2.45 -15.45, -0.72 -12.44 C1.01 -9.43, 0.31 -1.07, 0.25 1.18 M0.64 -0.78 C2.37 0.33, 11.07 -1.45, 11.48 4.93 C11.89 11.31, 6.85 31.01, 3.1 37.51 C-0.66 44, 2.71 42.31, -11.06 43.9 C-24.83 45.49, -65.88 48.35, -79.54 47.06 C-93.2 45.77, -90.81 47.22, -93.03 36.16 C-95.25 25.1, -94.11 -8.38, -92.88 -19.31 C-91.66 -30.24, -90.84 -28.02, -85.68 -29.41 C-80.52 -30.81, -66.97 -30, -61.93 -27.7 C-56.9 -25.39, -63.65 -17.56, -55.48 -15.59 C-47.31 -13.61, -21.79 -16.28, -12.9 -15.85 C-4.01 -15.42, -4.38 -15.8, -2.13 -13 C0.12 -10.2, 0.03 -1.42, 0.61 0.97" stroke="#1e1e1e" stroke-width="4" fill="none"></path></g></g><mask></mask><g stroke-linecap="round"><g transform="translate(1527 670.1709553785913) rotate(0 177.60090832784772 52.84589353725096)"><path d="M1.04 -1.19 C60.06 16.53, 295.32 88.84, 354.16 106.88" stroke="#1e1e1e" stroke-width="4.5" fill="none" stroke-dasharray="8 12"></path></g><g transform="translate(1527 670.1709553785913) rotate(0 177.60090832784772 52.84589353725096)"><path d="M324.2 108.42 C331.33 107.97, 340.57 107.38, 354.16 106.88" stroke="#1e1e1e" stroke-width="4.5" fill="none"></path></g><g transform="translate(1527 670.1709553785913) rotate(0 177.60090832784772 52.84589353725096)"><path d="M330.22 88.8 C335.6 94.37, 343.01 99.75, 354.16 106.88" stroke="#1e1e1e" stroke-width="4.5" fill="none"></path></g></g><mask></mask><g transform="translate(1675 588.1709553785913) rotate(0 429.3999938964844 45)"><text x="0" y="0" font-family="Virgil, Segoe UI Emoji" font-size="36px" fill="#1e1e1e" text-anchor="start" style="white-space: pre;" direction="ltr" dominant-baseline="text-before-edge">1. The walsender process starts logical decoding</text><text x="0" y="45" font-family="Virgil, Segoe UI Emoji" font-size="36px" fill="#1e1e1e" text-anchor="start" style="white-space: pre;" direction="ltr" dominant-baseline="text-before-edge">of the WAL</text></g><g transform="translate(2170 726.1709553785913) rotate(0 302.54998779296875 45)"><text x="0" y="0" font-family="Virgil, Segoe UI Emoji" font-size="36px" fill="#1e1e1e" text-anchor="start" style="white-space: pre;" direction="ltr" dominant-baseline="text-before-edge">2. walsender loads the standard </text><text x="0" y="45" font-family="Virgil, Segoe UI Emoji" font-size="36px" fill="#1e1e1e" text-anchor="start" style="white-space: pre;" direction="ltr" dominant-baseline="text-before-edge">logical decoding plugin (pgoutput)</text></g><g stroke-linecap="round"><g transform="translate(1882.5 873.6709553785913) rotate(0 -246.19651061825425 53.75691397621267)"><path d="M-0.06 -0.42 C-82.21 17.51, -410.26 90.01, -492.34 107.94" stroke="#1e1e1e" stroke-width="4.5" fill="none" stroke-dasharray="8 12"></path></g><g transform="translate(1882.5 873.6709553785913) rotate(0 -246.19651061825425 53.75691397621267)"><path d="M-467.01 91.86 C-476.56 97.04, -485.23 102.36, -492.34 107.94" stroke="#1e1e1e" stroke-width="4.5" fill="none"></path></g><g transform="translate(1882.5 873.6709553785913) rotate(0 -246.19651061825425 53.75691397621267)"><path d="M-462.6 111.91 C-473.76 110.05, -483.97 108.33, -492.34 107.94" stroke="#1e1e1e" stroke-width="4.5" fill="none"></path></g></g><mask></mask><g transform="translate(1485 1021.1709553785913) rotate(0 468.64166259765625 45)"><text x="0" y="0" font-family="Virgil, Segoe UI Emoji" font-size="36px" fill="#1e1e1e" text-anchor="start" style="white-space: pre;" direction="ltr" dominant-baseline="text-before-edge">3. the plugin transforms the changes read from WAL</text><text x="0" y="45" font-family="Virgil, Segoe UI Emoji" font-size="36px" fill="#1e1e1e" text-anchor="start" style="white-space: pre;" direction="ltr" dominant-baseline="text-before-edge">to the logical replication protocol</text></g><g transform="translate(1665 1133.6709553785913) rotate(0 522.8250122070312 22.5)"><text x="0" y="0" font-family="Virgil, Segoe UI Emoji" font-size="36px" fill="#2f9e44" text-anchor="start" style="white-space: pre;" direction="ltr" dominant-baseline="text-before-edge">filters the data according to the publication specification.</text></g><g stroke-linecap="round"><g transform="translate(1352.5 1376.1709553785913) rotate(0 284.37673195526077 94.37821235731099)"><path d="M-0.05 0.66 C94.93 31.84, 473.85 157.03, 568.8 188.1" stroke="#1e1e1e" stroke-width="4.5" fill="none" stroke-dasharray="8 12"></path></g><g transform="translate(1352.5 1376.1709553785913) rotate(0 284.37673195526077 94.37821235731099)"><path d="M538.82 189.04 C546.22 186.86, 552.44 188.11, 568.8 188.1" stroke="#1e1e1e" stroke-width="4.5" fill="none"></path></g><g transform="translate(1352.5 1376.1709553785913) rotate(0 284.37673195526077 94.37821235731099)"><path d="M545.23 169.54 C551.44 171.47, 556.31 176.82, 568.8 188.1" stroke="#1e1e1e" stroke-width="4.5" fill="none"></path></g></g><mask></mask><g transform="translate(1545 1261.1709553785913) rotate(0 770.433349609375 45)"><text x="0" y="0" font-family="Virgil, Segoe UI Emoji" font-size="36px" fill="#1e1e1e" text-anchor="start" style="white-space: pre;" direction="ltr" dominant-baseline="text-before-edge">4. The data is then continuously transferred using the streaming replication protocol </text><text x="0" y="45" font-family="Virgil, Segoe UI Emoji" font-size="36px" fill="#1e1e1e" text-anchor="start" style="white-space: pre;" direction="ltr" dominant-baseline="text-before-edge">to the apply worker.</text></g><g stroke-linecap="round" transform="translate(1521.888832110002 1799.3983083470885) rotate(0 98.55012542971417 120.45015330298338)"><path d="M-0.77 1.21 L196.26 -0.77 L196.99 241.29 L1.64 241.21" stroke="none" stroke-width="0" fill="#868e96"></path><path d="M0 0 C47.61 -0.45, 98.28 1.08, 197.1 0 M0 0 C63.25 -0.28, 127.09 -0.89, 197.1 0 M197.1 0 C196.38 85.17, 197.7 170.56, 197.1 240.9 M197.1 0 C198.52 64.33, 197.77 127.21, 197.1 240.9 M197.1 240.9 C125.11 239.88, 55.8 238.84, 0 240.9 M197.1 240.9 C127.34 242.36, 57.29 241.07, 0 240.9 M0 240.9 C1.04 145.88, 1.87 54.42, 0 0 M0 240.9 C-1.73 165.39, -2.5 90.63, 0 0" stroke="#000000" stroke-width="1" fill="none"></path></g><g stroke-linecap="round" transform="translate(1513.1288209606973 1789.5432958041201) rotate(0 98.55012542971417 120.45015330298338)"><path d="M-0.84 -0.77 L196.99 0.39 L198.74 241.21 L-0.4 241.73" stroke="none" stroke-width="0" fill="#ffffff"></path><path d="M0 0 C50.1 1.51, 101.07 0.99, 197.1 0 M0 0 C60.3 -0.47, 121.53 0.11, 197.1 0 M197.1 0 C197.6 69.56, 196.07 138.69, 197.1 240.9 M197.1 0 C196.37 51.19, 197.61 103.31, 197.1 240.9 M197.1 240.9 C153.62 240.87, 110.51 243.08, 0 240.9 M197.1 240.9 C127.21 240.74, 58.11 240.93, 0 240.9 M0 240.9 C0.92 183.1, 0.69 125.61, 0 0 M0 240.9 C-0.84 145.01, -0.43 50.02, 0 0" stroke="#000000" stroke-width="1" fill="none"></path></g><g stroke-linecap="round"><g transform="translate(1525.6579169143952 1817.5344227757378) rotate(0 87.51077165077368 0.06270700382083305)"><path d="M0.01 0.03 C29.23 0.04, 145.99 0.02, 175.18 0.01 M-0.15 -0.08 C29.04 -0.04, 145.85 0.17, 175.05 0.2" stroke="#000000" stroke-width="1" fill="none"></path></g></g><mask></mask><g stroke-linecap="round"><g transform="translate(1646.8066544299727 1801.7606941234117) rotate(0 -0.12661468834266998 110.37346552571398)"><path d="M-0.02 0.01 C-0.04 36.79, -0.06 183.92, -0.06 220.68 M-0.21 -0.11 C-0.25 36.68, -0.22 184.06, -0.2 220.86" stroke="#000000" stroke-width="1" fill="none"></path></g></g><mask></mask><g transform="translate(1535.0288488339684 1800.4933097407556) rotate(0 18.888774040695353 6.843758710398106)"><text x="0" y="0" font-family="Virgil, Segoe UI Emoji" font-size="10.950013936634816px" fill="#000000" text-anchor="start" style="white-space: pre;" direction="ltr" dominant-baseline="text-before-edge">EMPNO</text></g><g transform="translate(1589.7789185171387 1800.4933097407556) rotate(0 18.615023692278555 6.843758710398106)"><text x="0" y="0" font-family="Virgil, Segoe UI Emoji" font-size="10.950013936634818px" fill="#000000" text-anchor="start" style="white-space: pre;" direction="ltr" dominant-baseline="text-before-edge">ENAME</text></g><g transform="translate(1655.4790021369517 1800.4933097407556) rotate(0 10.128762891386941 6.843758710398106)"><text x="0" y="0" font-family="Virgil, Segoe UI Emoji" font-size="10.950013936634818px" fill="#000000" text-anchor="start" style="white-space: pre;" direction="ltr" dominant-baseline="text-before-edge">SAL</text></g><g transform="translate(1589.7789185171387 1822.3933376140267) rotate(0 22.99502926693276 95.81262194555529)"><text x="0" y="0" font-family="Virgil, Segoe UI Emoji" font-size="10.950013936634818px" fill="#000000" text-anchor="start" style="white-space: pre;" direction="ltr" dominant-baseline="text-before-edge">SMITH</text><text x="0" y="13.687517420793524" font-family="Virgil, Segoe UI Emoji" font-size="10.950013936634818px" fill="#000000" text-anchor="start" style="white-space: pre;" direction="ltr" dominant-baseline="text-before-edge">ALLEN</text><text x="0" y="27.37503484158705" font-family="Virgil, Segoe UI Emoji" font-size="10.950013936634818px" fill="#000000" text-anchor="start" style="white-space: pre;" direction="ltr" dominant-baseline="text-before-edge">WARD</text><text x="0" y="41.06255226238057" font-family="Virgil, Segoe UI Emoji" font-size="10.950013936634818px" fill="#000000" text-anchor="start" style="white-space: pre;" direction="ltr" dominant-baseline="text-before-edge">JONES</text><text x="0" y="54.7500696831741" font-family="Virgil, Segoe UI Emoji" font-size="10.950013936634818px" fill="#000000" text-anchor="start" style="white-space: pre;" direction="ltr" dominant-baseline="text-before-edge">MARTIN</text><text x="0" y="68.43758710396762" font-family="Virgil, Segoe UI Emoji" font-size="10.950013936634818px" fill="#000000" text-anchor="start" style="white-space: pre;" direction="ltr" dominant-baseline="text-before-edge">BLAKE</text><text x="0" y="82.12510452476114" font-family="Virgil, Segoe UI Emoji" font-size="10.950013936634818px" fill="#000000" text-anchor="start" style="white-space: pre;" direction="ltr" dominant-baseline="text-before-edge">CLARK</text><text x="0" y="95.81262194555467" font-family="Virgil, Segoe UI Emoji" font-size="10.950013936634818px" fill="#000000" text-anchor="start" style="white-space: pre;" direction="ltr" dominant-baseline="text-before-edge">SCOTT</text><text x="0" y="109.5001393663482" font-family="Virgil, Segoe UI Emoji" font-size="10.950013936634818px" fill="#000000" text-anchor="start" style="white-space: pre;" direction="ltr" dominant-baseline="text-before-edge">KING</text><text x="0" y="123.18765678714172" font-family="Virgil, Segoe UI Emoji" font-size="10.950013936634818px" fill="#000000" text-anchor="start" style="white-space: pre;" direction="ltr" dominant-baseline="text-before-edge">TURNER</text><text x="0" y="136.87517420793523" font-family="Virgil, Segoe UI Emoji" font-size="10.950013936634818px" fill="#000000" text-anchor="start" style="white-space: pre;" direction="ltr" dominant-baseline="text-before-edge">ADAMS</text><text x="0" y="150.56269162872877" font-family="Virgil, Segoe UI Emoji" font-size="10.950013936634818px" fill="#000000" text-anchor="start" style="white-space: pre;" direction="ltr" dominant-baseline="text-before-edge">JAMES</text><text x="0" y="164.25020904952228" font-family="Virgil, Segoe UI Emoji" font-size="10.950013936634818px" fill="#000000" text-anchor="start" style="white-space: pre;" direction="ltr" dominant-baseline="text-before-edge">FORD</text><text x="0" y="177.93772647031582" font-family="Virgil, Segoe UI Emoji" font-size="10.950013936634818px" fill="#000000" text-anchor="start" style="white-space: pre;" direction="ltr" dominant-baseline="text-before-edge">MILLER</text></g><g transform="translate(1655.4790021369445 1822.3933376140267) rotate(0 15.330019511287901 95.81262194555529)"><text x="0" y="0" font-family="Virgil, Segoe UI Emoji" font-size="10.950013936634818px" fill="#000000" text-anchor="start" style="white-space: pre;" direction="ltr" dominant-baseline="text-before-edge">800</text><text x="0" y="13.687517420793524" font-family="Virgil, Segoe UI Emoji" font-size="10.950013936634818px" fill="#000000" text-anchor="start" style="white-space: pre;" direction="ltr" dominant-baseline="text-before-edge">1600</text><text x="0" y="27.37503484158705" font-family="Virgil, Segoe UI Emoji" font-size="10.950013936634818px" fill="#000000" text-anchor="start" style="white-space: pre;" direction="ltr" dominant-baseline="text-before-edge">1250</text><text x="0" y="41.06255226238057" font-family="Virgil, Segoe UI Emoji" font-size="10.950013936634818px" fill="#000000" text-anchor="start" style="white-space: pre;" direction="ltr" dominant-baseline="text-before-edge">2975</text><text x="0" y="54.7500696831741" font-family="Virgil, Segoe UI Emoji" font-size="10.950013936634818px" fill="#000000" text-anchor="start" style="white-space: pre;" direction="ltr" dominant-baseline="text-before-edge">1250</text><text x="0" y="68.43758710396762" font-family="Virgil, Segoe UI Emoji" font-size="10.950013936634818px" fill="#000000" text-anchor="start" style="white-space: pre;" direction="ltr" dominant-baseline="text-before-edge">2850</text><text x="0" y="82.12510452476114" font-family="Virgil, Segoe UI Emoji" font-size="10.950013936634818px" fill="#000000" text-anchor="start" style="white-space: pre;" direction="ltr" dominant-baseline="text-before-edge">2450</text><text x="0" y="95.81262194555467" font-family="Virgil, Segoe UI Emoji" font-size="10.950013936634818px" fill="#000000" text-anchor="start" style="white-space: pre;" direction="ltr" dominant-baseline="text-before-edge">3000</text><text x="0" y="109.5001393663482" font-family="Virgil, Segoe UI Emoji" font-size="10.950013936634818px" fill="#000000" text-anchor="start" style="white-space: pre;" direction="ltr" dominant-baseline="text-before-edge">5000</text><text x="0" y="123.18765678714172" font-family="Virgil, Segoe UI Emoji" font-size="10.950013936634818px" fill="#000000" text-anchor="start" style="white-space: pre;" direction="ltr" dominant-baseline="text-before-edge">1500</text><text x="0" y="136.87517420793523" font-family="Virgil, Segoe UI Emoji" font-size="10.950013936634818px" fill="#000000" text-anchor="start" style="white-space: pre;" direction="ltr" dominant-baseline="text-before-edge">1100</text><text x="0" y="150.56269162872877" font-family="Virgil, Segoe UI Emoji" font-size="10.950013936634818px" fill="#000000" text-anchor="start" style="white-space: pre;" direction="ltr" dominant-baseline="text-before-edge">950</text><text x="0" y="164.25020904952228" font-family="Virgil, Segoe UI Emoji" font-size="10.950013936634818px" fill="#000000" text-anchor="start" style="white-space: pre;" direction="ltr" dominant-baseline="text-before-edge">3000</text><text x="0" y="177.93772647031582" font-family="Virgil, Segoe UI Emoji" font-size="10.950013936634818px" fill="#000000" text-anchor="start" style="white-space: pre;" direction="ltr" dominant-baseline="text-before-edge">1300</text></g><g transform="translate(1535.028848833972 1822.3933376140267) rotate(0 14.235018117626169 95.81262194555529)"><text x="0" y="0" font-family="Virgil, Segoe UI Emoji" font-size="10.950013936634821px" fill="#000000" text-anchor="start" style="white-space: pre;" direction="ltr" dominant-baseline="text-before-edge">7369</text><text x="0" y="13.687517420793526" font-family="Virgil, Segoe UI Emoji" font-size="10.950013936634821px" fill="#000000" text-anchor="start" style="white-space: pre;" direction="ltr" dominant-baseline="text-before-edge">7499</text><text x="0" y="27.375034841587052" font-family="Virgil, Segoe UI Emoji" font-size="10.950013936634821px" fill="#000000" text-anchor="start" style="white-space: pre;" direction="ltr" dominant-baseline="text-before-edge">7521</text><text x="0" y="41.06255226238058" font-family="Virgil, Segoe UI Emoji" font-size="10.950013936634821px" fill="#000000" text-anchor="start" style="white-space: pre;" direction="ltr" dominant-baseline="text-before-edge">7566</text><text x="0" y="54.750069683174104" font-family="Virgil, Segoe UI Emoji" font-size="10.950013936634821px" fill="#000000" text-anchor="start" style="white-space: pre;" direction="ltr" dominant-baseline="text-before-edge">7654</text><text x="0" y="68.43758710396763" font-family="Virgil, Segoe UI Emoji" font-size="10.950013936634821px" fill="#000000" text-anchor="start" style="white-space: pre;" direction="ltr" dominant-baseline="text-before-edge">7698</text><text x="0" y="82.12510452476116" font-family="Virgil, Segoe UI Emoji" font-size="10.950013936634821px" fill="#000000" text-anchor="start" style="white-space: pre;" direction="ltr" dominant-baseline="text-before-edge">7782</text><text x="0" y="95.81262194555468" font-family="Virgil, Segoe UI Emoji" font-size="10.950013936634821px" fill="#000000" text-anchor="start" style="white-space: pre;" direction="ltr" dominant-baseline="text-before-edge">7788</text><text x="0" y="109.50013936634821" font-family="Virgil, Segoe UI Emoji" font-size="10.950013936634821px" fill="#000000" text-anchor="start" style="white-space: pre;" direction="ltr" dominant-baseline="text-before-edge">7839</text><text x="0" y="123.18765678714173" font-family="Virgil, Segoe UI Emoji" font-size="10.950013936634821px" fill="#000000" text-anchor="start" style="white-space: pre;" direction="ltr" dominant-baseline="text-before-edge">7844</text><text x="0" y="136.87517420793526" font-family="Virgil, Segoe UI Emoji" font-size="10.950013936634821px" fill="#000000" text-anchor="start" style="white-space: pre;" direction="ltr" dominant-baseline="text-before-edge">7876</text><text x="0" y="150.56269162872877" font-family="Virgil, Segoe UI Emoji" font-size="10.950013936634821px" fill="#000000" text-anchor="start" style="white-space: pre;" direction="ltr" dominant-baseline="text-before-edge">7900</text><text x="0" y="164.2502090495223" font-family="Virgil, Segoe UI Emoji" font-size="10.950013936634821px" fill="#000000" text-anchor="start" style="white-space: pre;" direction="ltr" dominant-baseline="text-before-edge">7902</text><text x="0" y="177.93772647031585" font-family="Virgil, Segoe UI Emoji" font-size="10.950013936634821px" fill="#000000" text-anchor="start" style="white-space: pre;" direction="ltr" dominant-baseline="text-before-edge">7934</text></g><g stroke-linecap="round"><g transform="translate(1580.7070710272237 1801.1142484569937) rotate(0 -0.007598209356729058 110.32846024959872)"><path d="M0.1 -0.13 C0.09 36.68, 0.04 183.99, 0 220.78 M-0.02 0.13 C-0.06 36.9, -0.14 183.8, -0.11 220.56" stroke="#000000" stroke-width="1" fill="none"></path></g></g><mask></mask><g stroke-linecap="round"><g transform="translate(2037.5 1743.6709553785913) rotate(0 -144.68614562824405 87.56437904909399)"><path d="M-0.15 -0.68 C-48.17 28.73, -241.06 146.63, -289.22 175.81" stroke="#1e1e1e" stroke-width="4.5" fill="none" stroke-dasharray="8 12"></path></g><g transform="translate(2037.5 1743.6709553785913) rotate(0 -144.68614562824405 87.56437904909399)"><path d="M-270.48 152.38 C-275.64 158.54, -277.06 163.62, -289.22 175.81" stroke="#1e1e1e" stroke-width="4.5" fill="none"></path></g><g transform="translate(2037.5 1743.6709553785913) rotate(0 -144.68614562824405 87.56437904909399)"><path d="M-259.8 169.91 C-267.1 172.4, -270.74 173.83, -289.22 175.81" stroke="#1e1e1e" stroke-width="4.5" fill="none"></path></g></g><mask></mask><g transform="translate(2175 1713.6709553785913) rotate(0 547.0166625976562 22.5)"><text x="0" y="0" font-family="Virgil, Segoe UI Emoji" font-size="36px" fill="#1e1e1e" text-anchor="start" style="white-space: pre;" direction="ltr" dominant-baseline="text-before-edge">changes as they are received, in correct transactional order.</text></g><g transform="translate(2132.5 1656.1709553785913) rotate(0 667.4249877929688 22.5)"><text x="0" y="0" font-family="Virgil, Segoe UI Emoji" font-size="36px" fill="#1e1e1e" text-anchor="start" style="white-space: pre;" direction="ltr" dominant-baseline="text-before-edge">5. apply process maps the data to local tables and applies the individual </text></g><g transform="translate(10 1036.1709553785913) rotate(0 473.5416564941406 45)"><text x="0" y="0" font-family="Virgil, Segoe UI Emoji" font-size="36px" fill="#1e1e1e" text-anchor="start" style="white-space: pre;" direction="ltr" dominant-baseline="text-before-edge">Logical replication starts by copying</text><text x="0" y="45" font-family="Virgil, Segoe UI Emoji" font-size="36px" fill="#1e1e1e" text-anchor="start" style="white-space: pre;" direction="ltr" dominant-baseline="text-before-edge"> a snapshot of the data on the publisher database.</text></g><g stroke-linecap="round"><g transform="translate(1117.5 598.6709553785913) rotate(0 -61.94437177103646 534.8833839647486)"><path d="M-0.58 0.35 C-21.9 86.55, -128.13 339.15, -127.44 517.32 C-126.75 695.5, -18.1 977.41, 3.56 1069.42" stroke="#2f9e44" stroke-width="2.5" fill="none" stroke-dasharray="8 10"></path></g><g transform="translate(1117.5 598.6709553785913) rotate(0 -61.94437177103646 534.8833839647486)"><path d="M-14.35 1045.35 C-7.61 1053.77, -2.36 1063.68, 3.56 1069.42" stroke="#2f9e44" stroke-width="2.5" fill="none"></path></g><g transform="translate(1117.5 598.6709553785913) rotate(0 -61.94437177103646 534.8833839647486)"><path d="M5.31 1039.47 C5.32 1049.81, 3.84 1061.73, 3.56 1069.42" stroke="#2f9e44" stroke-width="2.5" fill="none"></path></g></g><mask></mask></svg>