<svg version="1.1" xmlns="http://www.w3.org/2000/svg" viewBox="0 0 1419.949951171875 1327.3244963826437" width="1419.949951171875" height="1327.3244963826437">
  <!-- svg-source:excalidraw -->
  
  <defs>
    <style class="style-fonts">
      @font-face {
        font-family: "Virgil";
        src: url("https://excalidraw.com/Virgil.woff2");
      }
      @font-face {
        font-family: "Cascadia";
        src: url("https://excalidraw.com/Cascadia.woff2");
      }
    </style>
    
  </defs>
  <g transform="translate(345.9523809523889 10) rotate(0 281.9021255250973 40.35714285714312)"><text x="0" y="0" font-family="Virgil, Segoe UI Emoji" font-size="64.571428571429px" fill="#1e1e1e" text-anchor="start" style="white-space: pre;" direction="ltr" dominant-baseline="text-before-edge">Logical replication</text></g><g transform="translate(10 135.95238095238892) rotate(0 699.9749755859375 45)"><text x="0" y="0" font-family="Virgil, Segoe UI Emoji" font-size="36px" fill="#1e1e1e" text-anchor="start" style="white-space: pre;" direction="ltr" dominant-baseline="text-before-edge">Logical replication is a method of replicating data objects and their changes, </text><text x="0" y="45" font-family="Virgil, Segoe UI Emoji" font-size="36px" fill="#1e1e1e" text-anchor="start" style="white-space: pre;" direction="ltr" dominant-baseline="text-before-edge">based upon their replication identity (usually a primary key).</text></g><g transform="translate(576.8571428571522 333.4761904761981) rotate(0 70.57499694824219 22.5)"><text x="0" y="0" font-family="Virgil, Segoe UI Emoji" font-size="36px" fill="#1e1e1e" text-anchor="start" style="white-space: pre;" direction="ltr" dominant-baseline="text-before-edge">Pub/Sub</text></g><g stroke-linecap="round"><g transform="translate(232.07631084378954 939.4833613789015) rotate(0 50.689702741268775 47.82409532096426)" fill-rule="evenodd"><path d="M0.05 0.08 C0.71 13.28, 1.69 64.21, 1.87 80.42 C2.06 96.63, -1.12 93.61, 1.16 97.33 C3.43 101.05, 10.72 101.18, 15.51 102.72 C20.3 104.25, 24.16 105.88, 29.91 106.54 C35.67 107.21, 44.01 106.49, 50.04 106.73 C56.07 106.97, 60.42 108.35, 66.1 107.98 C71.77 107.62, 78.23 106.35, 84.06 104.52 C89.9 102.69, 98.05 101.26, 101.09 97 C104.13 92.73, 102.19 92.96, 102.33 78.9 C102.48 64.85, 102.36 26.09, 101.94 12.68 C101.53 -0.74, 102.26 1.21, 99.83 -1.59 C97.39 -4.38, 91.43 -2.79, 87.31 -4.08 C83.19 -5.37, 80.71 -8.41, 75.12 -9.36 C69.53 -10.31, 59.46 -9.22, 53.79 -9.78 C48.12 -10.34, 46.79 -13.23, 41.08 -12.69 C35.38 -12.16, 26.6 -8.9, 19.56 -6.58 C12.51 -4.26, 2.15 -0.17, -1.18 1.22" stroke="none" stroke-width="0" fill="#fa5252" fill-rule="evenodd"></path><path d="M-0.35 -0.76 C-0.66 12.7, -1.28 65.46, -0.77 81.51 C-0.26 97.57, 0.17 92.15, 2.71 95.59 C5.25 99.04, 9.36 100.37, 14.48 102.2 C19.59 104.02, 27.2 105.71, 33.42 106.56 C39.64 107.41, 45.81 107.52, 51.81 107.3 C57.81 107.08, 63.89 105.99, 69.44 105.21 C75 104.43, 79.97 104.23, 85.14 102.64 C90.31 101.04, 97.8 99.08, 100.47 95.65 C103.14 92.22, 100.9 96.29, 101.17 82.05 C101.44 67.8, 102.15 24.09, 102.1 10.17 C102.04 -3.75, 103.29 1.22, 100.81 -1.49 C98.34 -4.2, 91.84 -4.83, 87.24 -6.1 C82.64 -7.36, 78.65 -8.22, 73.19 -9.06 C67.73 -9.9, 59.56 -10.7, 54.51 -11.16 C49.45 -11.62, 48.67 -12.04, 42.86 -11.83 C37.04 -11.61, 26.78 -11.83, 19.61 -9.85 C12.43 -7.87, 3.01 -1.61, -0.18 0.05 M1.66 1.46 C1.65 14.47, 1.41 63.65, 1.54 79.53 C1.67 95.41, 0.19 93.3, 2.43 96.73 C4.67 100.16, 9.96 98.91, 14.99 100.09 C20.01 101.27, 26.18 102.71, 32.56 103.79 C38.94 104.87, 47.53 105.98, 53.26 106.57 C59 107.16, 61.75 108.05, 66.99 107.32 C72.24 106.58, 79.35 104.31, 84.73 102.16 C90.12 100.01, 96.38 97.77, 99.3 94.42 C102.22 91.06, 101.66 95.97, 102.24 82.01 C102.81 68.06, 103.18 24.16, 102.76 10.68 C102.35 -2.79, 102.32 4.05, 99.75 1.15 C97.17 -1.76, 91.87 -5.08, 87.31 -6.74 C82.75 -8.39, 77.83 -7.96, 72.38 -8.81 C66.92 -9.66, 59.37 -11.47, 54.58 -11.85 C49.79 -12.23, 49.59 -11.43, 43.65 -11.07 C37.71 -10.71, 26.49 -11.64, 18.96 -9.72 C11.42 -7.8, 1.71 -1.25, -1.56 0.45" stroke="#c92a2a" stroke-width="1" fill="none"></path></g></g><mask></mask><g stroke-linecap="round" transform="translate(231.70284856651415 927.1585073512542) rotate(0 50.62648340191481 13.76508157621356)"><path d="M50.11 -0.12 C59.51 -0.39, 71.98 0.73, 80.03 2.32 C88.08 3.92, 95.24 6.9, 98.42 9.47 C101.61 12.04, 102.06 15.21, 99.15 17.76 C96.24 20.31, 88.92 23.17, 80.96 24.77 C72.99 26.36, 61.31 27.28, 51.36 27.34 C41.41 27.39, 29.39 26.61, 21.25 25.08 C13.11 23.55, 5.67 20.69, 2.52 18.14 C-0.62 15.59, -0.57 12.34, 2.38 9.78 C5.34 7.21, 12.22 4.37, 20.23 2.75 C28.25 1.13, 45.38 0.52, 50.47 0.07 C55.55 -0.38, 50.74 -0.15, 50.73 0.05 M46.79 0.19 C56.16 -0.22, 69.13 0.68, 77.65 2.09 C86.16 3.49, 94.13 6.07, 97.87 8.59 C101.62 11.11, 102.61 14.54, 100.11 17.19 C97.61 19.84, 90.57 22.75, 82.86 24.49 C75.16 26.22, 63.73 27.46, 53.89 27.59 C44.05 27.71, 32.2 26.64, 23.8 25.22 C15.4 23.8, 7.23 21.48, 3.49 19.06 C-0.26 16.63, -1.16 13.26, 1.32 10.67 C3.8 8.09, 10.78 5.36, 18.38 3.54 C25.97 1.73, 42.14 0.34, 46.9 -0.2 C51.66 -0.73, 46.9 0.1, 46.95 0.33" stroke="none" stroke-width="0" fill="#ffffff"></path><path d="M55.42 0.29 C64.91 0.32, 76.74 1.66, 84.19 3.43 C91.64 5.2, 97.97 8.27, 100.12 10.94 C102.27 13.6, 101.01 16.95, 97.07 19.43 C93.13 21.9, 84.97 24.42, 76.47 25.78 C67.97 27.14, 55.9 27.84, 46.06 27.59 C36.22 27.33, 24.91 26.02, 17.41 24.25 C9.91 22.47, 3.33 19.6, 1.07 16.94 C-1.18 14.27, -0.07 10.78, 3.88 8.27 C7.84 5.77, 16.14 3.28, 24.8 1.9 C33.46 0.51, 50.64 0.24, 55.83 -0.03 C61.02 -0.3, 56.07 -0.02, 55.93 0.26 M44.98 0.13 C54.22 -0.32, 66.59 0.63, 75.21 1.95 C83.83 3.27, 92.46 5.65, 96.68 8.06 C100.9 10.46, 102.5 13.7, 100.52 16.38 C98.53 19.05, 92.09 22.23, 84.78 24.11 C77.46 25.98, 66.52 27.34, 56.63 27.64 C46.73 27.94, 34.12 27.25, 25.4 25.89 C16.69 24.53, 8.45 21.91, 4.33 19.49 C0.21 17.07, -1.33 13.98, 0.68 11.38 C2.69 8.77, 9 5.7, 16.4 3.86 C23.8 2.02, 40.27 0.97, 45.07 0.33 C49.88 -0.31, 45.14 -0.2, 45.21 0.03" stroke="#c92a2a" stroke-width="1" fill="none"></path></g><g transform="translate(232.47042340093685 1046.7968808940786) rotate(0 49.5 12.5)"><text x="49.5" y="0" font-family="Virgil, Segoe UI Emoji" font-size="20px" fill="#000000" text-anchor="middle" style="white-space: pre;" direction="ltr" dominant-baseline="text-before-edge">Database</text></g><g stroke-linecap="round"><g transform="translate(945.9675657563384 919.5919665050606) rotate(0 50.40156770139038 47.5922892032213)" fill-rule="evenodd"><path d="M1.64 1.74 C0.98 15.11, -2.63 66.11, -2.34 81.76 C-2.05 97.4, 0.88 92.39, 3.39 95.61 C5.9 98.84, 7.54 99.15, 12.74 101.1 C17.95 103.05, 28.02 106.6, 34.61 107.33 C41.2 108.06, 46.46 106.16, 52.27 105.5 C58.08 104.84, 64.51 103.62, 69.5 103.37 C74.48 103.11, 76.8 105.52, 82.15 103.99 C87.51 102.46, 98.35 98.04, 101.63 94.18 C104.91 90.32, 101.55 95, 101.81 80.81 C102.07 66.62, 103.6 22.42, 103.18 9.05 C102.77 -4.33, 102.17 3.19, 99.33 0.56 C96.49 -2.07, 90.34 -5.2, 86.15 -6.74 C81.96 -8.27, 79.71 -8, 74.21 -8.65 C68.71 -9.29, 58.34 -10.36, 53.16 -10.62 C47.98 -10.87, 49.21 -10.09, 43.13 -10.17 C37.04 -10.24, 23.97 -12.53, 16.65 -11.07 C9.34 -9.61, 2.25 -3.4, -0.77 -1.4" stroke="none" stroke-width="0" fill="#40c057" fill-rule="evenodd"></path><path d="M0.29 0.58 C0.47 14.07, 0.7 65.9, 0.8 81.91 C0.9 97.91, -1.13 93.41, 0.88 96.6 C2.89 99.79, 7.55 99.57, 12.84 101.03 C18.12 102.5, 25.98 104.54, 32.6 105.4 C39.22 106.26, 46.65 106.26, 52.57 106.22 C58.49 106.17, 63.04 105.51, 68.11 105.14 C73.19 104.78, 77.98 105.7, 83.02 104.04 C88.06 102.38, 95.42 98.9, 98.36 95.18 C101.3 91.45, 100.11 95.88, 100.64 81.69 C101.18 67.5, 101.56 23.71, 101.58 10.04 C101.59 -3.63, 103.06 2.27, 100.73 -0.33 C98.4 -2.92, 92.21 -3.88, 87.58 -5.53 C82.96 -7.17, 78.31 -9.43, 72.99 -10.2 C67.67 -10.97, 60.51 -9.85, 55.68 -10.16 C50.85 -10.46, 50.13 -12.13, 44 -12.03 C37.87 -11.92, 26.25 -11.34, 18.92 -9.52 C11.59 -7.7, 2.97 -2.71, 0.01 -1.11 M-1.02 -0.17 C-0.91 12.9, -0.45 64.34, 0.27 80.13 C0.99 95.93, 1.27 90.96, 3.3 94.6 C5.34 98.24, 7.82 100.13, 12.49 101.98 C17.15 103.82, 24.93 105.19, 31.31 105.68 C37.69 106.17, 44.54 104.66, 50.76 104.92 C56.98 105.17, 62.89 107.32, 68.63 107.21 C74.36 107.11, 79.97 106.55, 85.16 104.3 C90.34 102.05, 97.02 97.5, 99.74 93.7 C102.45 89.89, 101.06 95.34, 101.44 81.47 C101.81 67.6, 102.28 24.19, 101.97 10.49 C101.67 -3.22, 101.98 1.99, 99.62 -0.74 C97.26 -3.47, 92.42 -4.24, 87.83 -5.87 C83.24 -7.51, 77.32 -9.81, 72.07 -10.55 C66.83 -11.29, 61.43 -10.18, 56.37 -10.32 C51.31 -10.46, 48.14 -11.56, 41.73 -11.38 C35.32 -11.19, 25.08 -10.88, 17.91 -9.2 C10.74 -7.53, 1.65 -2.92, -1.27 -1.33" stroke="#2b8a3e" stroke-width="1" fill="none"></path></g></g><mask></mask><g stroke-linecap="round" transform="translate(945.594103479063 907.2671124774206) rotate(0 50.62648340191481 13.76508157621356)"><path d="M47.36 -0.15 C56.72 -0.52, 69.21 0.66, 77.6 2.09 C85.99 3.53, 94.04 5.98, 97.69 8.47 C101.34 10.96, 101.95 14.44, 99.49 17.06 C97.02 19.68, 90.49 22.42, 82.93 24.19 C75.36 25.96, 64.01 27.45, 54.11 27.67 C44.21 27.89, 31.9 26.98, 23.51 25.52 C15.13 24.06, 7.42 21.41, 3.79 18.89 C0.17 16.37, -0.68 13, 1.76 10.4 C4.2 7.79, 10.81 4.97, 18.43 3.27 C26.05 1.56, 42.55 0.63, 47.48 0.15 C52.42 -0.34, 47.95 0.17, 48.03 0.35 M47.13 0.37 C56.51 0, 69.25 0.59, 77.61 1.93 C85.96 3.27, 93.56 5.91, 97.26 8.4 C100.96 10.88, 102.18 14.23, 99.82 16.85 C97.45 19.47, 90.66 22.33, 83.08 24.11 C75.49 25.88, 64.2 27.27, 54.3 27.49 C44.41 27.72, 32.11 26.88, 23.7 25.45 C15.29 24.02, 7.48 21.4, 3.82 18.93 C0.15 16.47, -0.69 13.32, 1.7 10.67 C4.09 8.02, 10.63 4.84, 18.17 3.04 C25.7 1.25, 42.03 0.33, 46.89 -0.1 C51.74 -0.53, 47.2 0.21, 47.28 0.47" stroke="none" stroke-width="0" fill="#ffffff"></path><path d="M46.12 0.12 C55.42 -0.22, 68.13 0.76, 76.63 2.13 C85.13 3.49, 93.25 5.91, 97.12 8.33 C100.99 10.75, 102.04 14.07, 99.87 16.67 C97.7 19.27, 91.56 22.12, 84.09 23.92 C76.62 25.72, 64.94 27.21, 55.04 27.49 C45.13 27.77, 33.2 26.97, 24.67 25.6 C16.14 24.23, 7.73 21.75, 3.84 19.27 C-0.06 16.78, -0.99 13.35, 1.29 10.69 C3.58 8.02, 9.98 5.06, 17.57 3.3 C25.15 1.55, 41.78 0.65, 46.82 0.17 C51.85 -0.31, 47.75 0.21, 47.78 0.43 M46.85 0.06 C56.23 -0.24, 68.74 0.79, 77.19 2.23 C85.65 3.68, 93.85 6.25, 97.58 8.71 C101.31 11.18, 101.84 14.44, 99.55 17.01 C97.26 19.59, 91.35 22.42, 83.85 24.16 C76.35 25.9, 64.43 27.18, 54.56 27.45 C44.7 27.72, 33.07 27.2, 24.64 25.77 C16.21 24.35, 7.84 21.48, 3.99 18.89 C0.14 16.31, -0.7 12.84, 1.53 10.27 C3.76 7.7, 9.83 5.21, 17.38 3.48 C24.92 1.75, 41.92 0.41, 46.81 -0.12 C51.71 -0.66, 46.71 0.05, 46.77 0.26" stroke="#2b8a3e" stroke-width="1" fill="none"></path></g><g transform="translate(946.3616783134858 1026.905486020245) rotate(0 49.5 12.5)"><text x="49.5" y="0" font-family="Virgil, Segoe UI Emoji" font-size="20px" fill="#000000" text-anchor="middle" style="white-space: pre;" direction="ltr" dominant-baseline="text-before-edge">Database</text></g><g stroke-linecap="round"><g transform="translate(588.0271511649407 425.30104450384533) rotate(0 50.163810411366285 47.433283322738134)" fill-rule="evenodd"><path d="M-1.18 1.22 C-1.43 14.7, -0.59 67.35, -0.44 83 C-0.28 98.65, -2.8 92.29, -0.24 95.12 C2.31 97.94, 9.53 98.06, 14.89 99.94 C20.26 101.83, 25.61 105.6, 31.96 106.42 C38.3 107.24, 46.86 105.04, 52.98 104.87 C59.1 104.7, 63.37 106.04, 68.66 105.41 C73.94 104.78, 79.93 102.89, 84.68 101.08 C89.42 99.28, 94.72 98.14, 97.14 94.58 C99.56 91.03, 98.32 93.39, 99.19 79.77 C100.07 66.15, 102.53 26.03, 102.4 12.85 C102.28 -0.33, 100.64 3.92, 98.44 0.71 C96.24 -2.51, 93.01 -4.66, 89.21 -6.43 C85.42 -8.21, 80.98 -9.3, 75.68 -9.92 C70.38 -10.55, 63.21 -10.23, 57.42 -10.17 C51.62 -10.12, 47.77 -9.94, 40.9 -9.59 C34.03 -9.23, 23.08 -9.4, 16.21 -8.06 C9.34 -6.73, 2.65 -3.05, -0.3 -1.57" stroke="none" stroke-width="0" fill="#228be6" fill-rule="evenodd"></path><path d="M-0.18 0.05 C-0.3 13.81, 0.29 65.31, 0.44 81.39 C0.6 97.47, -1.51 93.18, 0.75 96.52 C3.01 99.85, 8.6 99.93, 14 101.37 C19.4 102.82, 26.93 104.2, 33.16 105.2 C39.4 106.2, 45.43 107.21, 51.42 107.39 C57.42 107.57, 63.88 106.96, 69.12 106.28 C74.35 105.61, 77.89 105.17, 82.82 103.35 C87.75 101.53, 95.92 98.86, 98.7 95.37 C101.47 91.88, 99.01 96.33, 99.48 82.41 C99.94 68.49, 101.24 25.53, 101.48 11.87 C101.72 -1.79, 103.1 3.69, 100.92 0.45 C98.74 -2.79, 92.94 -6, 88.4 -7.59 C83.85 -9.19, 79.24 -8.45, 73.64 -9.11 C68.05 -9.76, 59.91 -11.41, 54.84 -11.52 C49.77 -11.62, 49.13 -10.24, 43.21 -9.72 C37.29 -9.21, 26.61 -10.13, 19.31 -8.42 C12.01 -6.71, 2.81 -0.7, -0.59 0.56 M-1.74 -0.96 C-2.07 13.11, -1.08 67.1, -0.27 83 C0.54 98.91, 0.68 91.23, 3.11 94.48 C5.53 97.73, 9.41 100.68, 14.26 102.5 C19.1 104.31, 25.77 104.67, 32.17 105.38 C38.58 106.08, 46.35 106.72, 52.68 106.71 C59.01 106.69, 64.79 105.87, 70.15 105.29 C75.52 104.72, 79.84 105.14, 84.85 103.25 C89.87 101.37, 97.78 97.44, 100.25 93.99 C102.72 90.55, 99.4 96.63, 99.66 82.57 C99.93 68.51, 101.79 23.3, 101.83 9.61 C101.87 -4.08, 102.03 2.94, 99.91 0.45 C97.78 -2.05, 93.55 -3.81, 89.08 -5.36 C84.6 -6.92, 78.74 -7.71, 73.07 -8.88 C67.41 -10.06, 59.9 -11.95, 55.08 -12.39 C50.27 -12.83, 50.28 -12.33, 44.18 -11.52 C38.09 -10.71, 25.62 -9.66, 18.5 -7.53 C11.38 -5.41, 4.45 0.14, 1.47 1.21" stroke="#364fc7" stroke-width="1" fill="none"></path></g></g><mask></mask><g stroke-linecap="round" transform="translate(587.6536888876653 412.9761904761981) rotate(0 50.62648340191481 13.76508157621356)"><path d="M54.69 0.28 C64.14 0.22, 76.09 1.4, 83.64 3.08 C91.2 4.76, 97.7 7.7, 100 10.36 C102.3 13.02, 101.28 16.52, 97.42 19.03 C93.57 21.53, 85.31 23.98, 76.85 25.37 C68.39 26.76, 56.48 27.53, 46.65 27.37 C36.81 27.22, 25.34 26.19, 17.83 24.44 C10.32 22.69, 3.94 19.54, 1.59 16.86 C-0.76 14.19, -0.05 10.86, 3.73 8.37 C7.51 5.87, 15.73 3.29, 24.26 1.89 C32.8 0.48, 49.76 0.2, 54.94 -0.06 C60.13 -0.32, 55.46 0.09, 55.39 0.34 M51.79 0.23 C61.19 0.05, 73.1 1.13, 80.95 2.77 C88.81 4.41, 95.98 7.47, 98.93 10.07 C101.87 12.67, 101.84 15.86, 98.63 18.37 C95.42 20.88, 87.78 23.61, 79.66 25.12 C71.54 26.63, 59.82 27.51, 49.89 27.44 C39.96 27.37, 28.07 26.35, 20.08 24.69 C12.08 23.03, 4.85 20.01, 1.92 17.5 C-1 14.98, -0.71 12.06, 2.53 9.59 C5.77 7.11, 13.23 4.22, 21.36 2.65 C29.48 1.07, 46.17 0.51, 51.26 0.12 C56.35 -0.27, 51.79 0.05, 51.89 0.31" stroke="none" stroke-width="0" fill="#ffffff"></path><path d="M45.54 0.25 C54.82 -0.2, 67.44 0.46, 76.04 1.81 C84.63 3.16, 93.06 5.92, 97.09 8.36 C101.13 10.8, 102.35 13.87, 100.24 16.46 C98.13 19.04, 91.86 22.07, 84.44 23.87 C77.02 25.67, 65.57 26.94, 55.72 27.24 C45.87 27.54, 33.91 26.96, 25.37 25.67 C16.82 24.37, 8.46 21.91, 4.45 19.46 C0.44 17.02, -0.73 13.67, 1.31 11.02 C3.34 8.36, 9.18 5.38, 16.68 3.55 C24.17 1.72, 41.26 0.57, 46.25 0.02 C51.24 -0.52, 46.54 0.03, 46.62 0.29 M51.62 -0.26 C61.11 -0.35, 73.7 1.43, 81.6 3.15 C89.49 4.86, 96.21 7.45, 99 10.03 C101.78 12.61, 101.62 16.12, 98.29 18.61 C94.96 21.1, 87.16 23.54, 79.02 24.99 C70.88 26.44, 59.32 27.36, 49.44 27.32 C39.57 27.29, 27.63 26.46, 19.77 24.8 C11.91 23.15, 5.07 20.02, 2.27 17.41 C-0.54 14.8, -0.35 11.69, 2.94 9.14 C6.24 6.6, 13.94 3.7, 22.05 2.16 C30.16 0.62, 46.65 0.24, 51.6 -0.11 C56.54 -0.46, 51.66 -0.22, 51.72 0.07" stroke="#364fc7" stroke-width="1" fill="none"></path></g><g transform="translate(589.648915889833 532.9761904761981) rotate(0 49.5 12.5)"><text x="49.5" y="0" font-family="Virgil, Segoe UI Emoji" font-size="20px" fill="#000000" text-anchor="middle" style="white-space: pre;" direction="ltr" dominant-baseline="text-before-edge">Database</text></g><g stroke-opacity="0" fill-opacity="0" stroke-linecap="round" transform="translate(464.4784812753169 601.0975288943591) rotate(0 70.37866158183533 70.37866158183533)"><path d="M103.81 8.8 C112.78 12.51, 120.84 20.92, 126.77 29.21 C132.71 37.5, 137.49 48.58, 139.42 58.53 C141.36 68.47, 141.2 79.13, 138.38 88.9 C135.57 98.66, 129.39 109.51, 122.5 117.11 C115.62 124.71, 106.23 130.57, 97.08 134.49 C87.93 138.41, 77.6 140.91, 67.6 140.66 C57.59 140.4, 46.14 137.84, 37.04 132.94 C27.95 128.05, 19.05 119.68, 13.01 111.29 C6.98 102.91, 2.51 92.72, 0.83 82.62 C-0.85 72.52, 0.29 60.51, 2.94 50.68 C5.6 40.84, 10.08 31.15, 16.77 23.61 C23.45 16.07, 33.38 9.44, 43.04 5.44 C52.7 1.44, 64.19 -1.17, 74.74 -0.38 C85.29 0.41, 100.95 8.23, 106.36 10.19 C111.78 12.16, 107.77 10.49, 107.22 11.39 M91.02 2.11 C100.77 3.77, 111.63 10.76, 118.96 17.82 C126.3 24.89, 131.51 34.94, 135.02 44.51 C138.54 54.08, 140.77 65.3, 140.06 75.26 C139.34 85.22, 135.78 95.39, 130.71 104.27 C125.64 113.15, 118.07 122.51, 109.64 128.56 C101.22 134.6, 90.19 138.89, 80.17 140.56 C70.15 142.23, 59.1 141.73, 49.52 138.56 C39.93 135.4, 30.05 128.71, 22.65 121.57 C15.25 114.43, 8.9 105.13, 5.13 95.73 C1.37 86.33, -0.49 75.38, 0.06 65.17 C0.6 54.97, 3.43 43.02, 8.39 34.48 C13.35 25.94, 21.53 19.55, 29.82 13.94 C38.1 8.33, 47.75 2.64, 58.11 0.81 C68.48 -1.02, 86.41 2.48, 92.03 2.94 C97.64 3.4, 92.56 2.37, 91.81 3.57" stroke="none" stroke-width="0" fill="#a5d8ff"></path><path d="M92.43 3.54 C102 5.43, 111.8 12.13, 119.09 19.1 C126.37 26.07, 132.63 35.79, 136.15 45.35 C139.67 54.91, 141.22 66.25, 140.22 76.46 C139.21 86.67, 135.25 97.7, 130.1 106.63 C124.94 115.55, 117.66 124.35, 109.28 129.99 C100.91 135.64, 90.07 139.25, 79.85 140.49 C69.62 141.72, 57.76 140.73, 47.93 137.4 C38.11 134.06, 28.15 127.63, 20.89 120.48 C13.63 113.33, 7.92 104.03, 4.38 94.51 C0.83 84.99, -1.5 73.51, -0.39 63.37 C0.72 53.23, 5.56 42.19, 11.03 33.67 C16.5 25.14, 23.99 17.9, 32.43 12.23 C40.87 6.55, 50 0.23, 61.68 -0.41 C73.36 -1.04, 94.2 5.92, 102.53 8.41 C110.86 10.91, 112.03 13.7, 111.64 14.55 M88.11 2.41 C97.51 4.12, 106.53 11.09, 114.34 17.61 C122.14 24.13, 130.6 32.4, 134.95 41.54 C139.31 50.67, 140.98 62.06, 140.48 72.4 C139.99 82.75, 136.51 94.78, 131.99 103.62 C127.48 112.46, 121.53 119.6, 113.38 125.45 C105.22 131.29, 93.25 136.59, 83.07 138.69 C72.89 140.79, 62.14 140.32, 52.3 138.07 C42.46 135.83, 31.46 131.55, 24.01 125.24 C16.57 118.92, 11.47 109.36, 7.65 100.17 C3.83 90.99, 0.87 80.64, 1.09 70.12 C1.31 59.61, 4.41 46.26, 8.97 37.08 C13.52 27.9, 20.5 20.85, 28.41 15.06 C36.32 9.27, 46.37 4.51, 56.42 2.34 C66.46 0.17, 83.49 1.91, 88.66 2.05 C93.82 2.19, 87.95 1.81, 87.4 3.16" stroke="#1e1e1e" stroke-width="1" fill="none"></path></g><g transform="translate(463.0610588910349 688.9978169769747) rotate(0 69.55000305175781 15.069431979693036)"><text x="69.55000305175781" y="0" font-family="Virgil, Segoe UI Emoji" font-size="24.111091167507624px" fill="#1e1e1e" text-anchor="middle" style="white-space: pre;" direction="ltr" dominant-baseline="text-before-edge">publication 1</text></g><g stroke-linecap="round"><g transform="translate(500.32777997505764 678.8702259824859) rotate(0 32.476751902286196 -14.993518928753474)"><path d="M0.06 -0.06 C1.37 -4.29, 4.27 -20.6, 8.02 -25.55 C11.77 -30.49, 13.05 -29.11, 22.57 -29.73 C32.1 -30.35, 58.08 -29.32, 65.18 -29.25 M-0.22 -0.32 C1.03 -4.49, 3.92 -20.4, 7.8 -25.26 C11.69 -30.12, 13.53 -28.86, 23.09 -29.49 C32.64 -30.12, 58.04 -29.08, 65.12 -29.04" stroke="#1e1e1e" stroke-width="1" fill="none"></path></g></g><mask></mask><g stroke-linecap="round"><g transform="translate(564.5134210650904 648.9565210446235) rotate(0 -28.299660764587315 6.006803772190324)" fill-rule="evenodd"><path d="M-2.42 0.46 C-1.45 1.55, 5.59 0.93, 6.39 5.12 C7.19 9.31, 4.68 21.08, 2.39 25.62 C0.09 30.17, 2.57 31.01, -7.38 32.39 C-17.33 33.77, -47.86 35.13, -57.31 33.9 C-66.77 32.67, -62.67 32.65, -64.1 25.02 C-65.53 17.39, -66.12 -4.74, -65.9 -11.89 C-65.69 -19.03, -66.59 -16.25, -62.82 -17.86 C-59.05 -19.47, -47.03 -22.42, -43.28 -21.58 C-39.53 -20.73, -46 -14.28, -40.3 -12.81 C-34.6 -11.33, -15.41 -13.7, -9.09 -12.74 C-2.78 -11.77, -4.29 -9.38, -2.39 -7.04 C-0.49 -4.7, 1.6 -0.24, 2.29 1.33" stroke="none" stroke-width="0" fill="#a5d8ff" fill-rule="evenodd"></path><path d="M-0.1 -0.4 C1.13 0.23, 7.47 -1.03, 7.68 3.52 C7.9 8.07, 3.96 22.22, 1.19 26.89 C-1.59 31.55, 0.49 30.54, -8.99 31.51 C-18.47 32.48, -46.48 33.72, -55.68 32.72 C-64.87 31.71, -62.56 33.04, -64.14 25.49 C-65.72 17.94, -65.69 -4.96, -65.14 -12.59 C-64.58 -20.22, -64.26 -19.09, -60.82 -20.3 C-57.38 -21.51, -48.26 -21.11, -44.51 -19.83 C-40.75 -18.55, -44.35 -14.07, -38.27 -12.59 C-32.19 -11.11, -14.3 -11.71, -8.04 -10.96 C-1.77 -10.21, -2.17 -9.99, -0.66 -8.12 C0.86 -6.26, 1.16 -0.97, 1.07 0.23 M-1.61 -1.66 C-0.03 -0.83, 9.03 -0.1, 9.89 4.86 C10.75 9.82, 6.75 23.49, 3.56 28.08 C0.37 32.66, 0.3 31.45, -9.24 32.36 C-18.78 33.26, -44.23 34.75, -53.7 33.49 C-63.16 32.23, -64.26 32.73, -66.03 24.81 C-67.8 16.89, -65.03 -6.41, -64.31 -14.04 C-63.58 -21.66, -65.27 -19.73, -61.68 -20.92 C-58.09 -22.11, -46.78 -22.4, -42.76 -21.16 C-38.73 -19.92, -43.37 -14.84, -37.54 -13.5 C-31.72 -12.17, -13.7 -14.01, -7.8 -13.15 C-1.9 -12.28, -3.15 -10.44, -2.15 -8.32 C-1.15 -6.21, -2.35 -1.6, -1.8 -0.48" stroke="#1e1e1e" stroke-width="1" fill="none"></path></g></g><mask></mask><g stroke-opacity="0" fill-opacity="0" stroke-linecap="round" transform="translate(675.1871924674633 597.0975288943591) rotate(0 70.37866158183533 70.37866158183533)"><path d="M40.67 6.84 C48.91 1.54, 60.69 -0.76, 70.86 -0.65 C81.04 -0.54, 92.71 3.01, 101.73 7.49 C110.75 11.96, 118.82 18.33, 124.98 26.2 C131.15 34.07, 136.38 44.48, 138.73 54.7 C141.08 64.92, 141.31 77.65, 139.09 87.54 C136.88 97.43, 131.78 106.33, 125.43 114.06 C119.09 121.79, 110.4 129.51, 101.04 133.91 C91.67 138.31, 79.55 140.46, 69.24 140.46 C58.93 140.46, 48.17 138.35, 39.16 133.91 C30.15 129.47, 21.3 121.94, 15.18 113.81 C9.06 105.67, 4.54 95.12, 2.44 85.11 C0.34 75.1, 0.33 63.63, 2.57 53.73 C4.81 43.83, 8.78 33.98, 15.88 25.71 C22.98 17.45, 39.25 7.86, 45.19 4.14 C51.12 0.42, 50.95 2.38, 51.49 3.38 M100.31 5.87 C109.73 9.17, 119.04 17.5, 125.29 25.41 C131.53 33.33, 135.29 43.69, 137.78 53.35 C140.26 63.02, 142.13 73.63, 140.21 83.38 C138.28 93.13, 132.55 103.4, 126.22 111.84 C119.88 120.27, 111.19 129.26, 102.19 133.97 C93.18 138.68, 82.46 139.85, 72.17 140.1 C61.89 140.34, 49.69 139.71, 40.47 135.43 C31.25 131.14, 23.45 122.22, 16.85 114.4 C10.25 106.57, 3.29 98.13, 0.87 88.45 C-1.54 78.78, 0.12 66.42, 2.34 56.37 C4.56 46.32, 8.42 36.41, 14.19 28.16 C19.97 19.91, 28.05 11.49, 36.99 6.89 C45.93 2.3, 57.54 0.5, 67.84 0.61 C78.14 0.71, 93.62 6.25, 98.81 7.54 C104 8.82, 99.48 7.61, 99 8.3" stroke="none" stroke-width="0" fill="#a5d8ff"></path><path d="M44.18 4.95 C52.77 0.52, 64.81 0.27, 74.89 0.99 C84.97 1.71, 95.74 4.45, 104.66 9.25 C113.58 14.05, 122.62 21.48, 128.42 29.81 C134.22 38.13, 138.02 49.24, 139.46 59.2 C140.9 69.16, 139.7 79.75, 137.06 89.55 C134.43 99.36, 130.27 110.22, 123.66 118.02 C117.05 125.81, 106.96 132.63, 97.41 136.31 C87.86 140, 76.58 140.83, 66.35 140.13 C56.11 139.43, 44.91 137.06, 36.02 132.12 C27.13 127.17, 18.94 118.67, 12.99 110.44 C7.04 102.21, 1.93 92.54, 0.33 82.72 C-1.26 72.91, 0.45 61.4, 3.41 51.55 C6.37 41.71, 10.31 31.8, 18.09 23.65 C25.88 15.49, 43.44 6.14, 50.12 2.6 C56.8 -0.94, 57.97 1.23, 58.15 2.42 M78.96 0.97 C88.48 1.1, 99.97 4.41, 108.69 10.08 C117.41 15.75, 125.86 26.25, 131.28 35 C136.7 43.75, 140.42 52.85, 141.22 62.59 C142.02 72.34, 139.55 83.88, 136.08 93.47 C132.61 103.06, 127.41 112.67, 120.39 120.14 C113.36 127.61, 103.9 135.01, 93.94 138.29 C83.97 141.58, 71.13 141.29, 60.58 139.85 C50.03 138.4, 38.88 135.35, 30.66 129.62 C22.44 123.89, 16.45 114.26, 11.24 105.48 C6.04 96.7, 0.81 86.63, -0.57 76.95 C-1.94 67.26, -0.84 56.9, 3 47.36 C6.83 37.83, 14.84 27.2, 22.45 19.73 C30.05 12.26, 39.22 5.7, 48.64 2.53 C58.05 -0.63, 73.69 1.03, 78.94 0.75 C84.2 0.47, 80.48 -0.26, 80.17 0.84" stroke="#1e1e1e" stroke-width="1" fill="none"></path></g><g transform="translate(668.4781059596426 684.9978169769747) rotate(0 74.84166717529297 15.069431979693036)"><text x="74.84166717529297" y="0" font-family="Virgil, Segoe UI Emoji" font-size="24.111091167507624px" fill="#1e1e1e" text-anchor="middle" style="white-space: pre;" direction="ltr" dominant-baseline="text-before-edge">publication 2</text></g><g stroke-linecap="round"><g transform="translate(711.0364911672004 674.8702259824931) rotate(0 32.728975318255834 -14.812809904527967)"><path d="M-0.15 0.17 C1.21 -4.06, 4.08 -20.38, 7.94 -25.34 C11.8 -30.3, 13.41 -28.99, 23.01 -29.61 C32.6 -30.23, 58.43 -29.1, 65.5 -29.05 M0.24 0.03 C1.57 -4.28, 3.9 -20.84, 7.69 -25.73 C11.48 -30.62, 13.31 -28.68, 22.96 -29.31 C32.61 -29.94, 58.59 -29.53, 65.61 -29.52" stroke="#1e1e1e" stroke-width="1" fill="none"></path></g></g><mask></mask><g stroke-linecap="round"><g transform="translate(775.2221322572295 644.9565210446162) rotate(0 -28.835513039450234 5.253144447087834)" fill-rule="evenodd"><path d="M-0.63 -2.41 C0.97 -2.03, 7.89 -0.12, 8.69 4.53 C9.5 9.18, 7.08 20.8, 4.2 25.49 C1.31 30.17, 1.29 31.9, -8.64 32.64 C-18.56 33.37, -46.18 30.89, -55.34 29.89 C-64.5 28.89, -62.13 33.97, -63.6 26.66 C-65.08 19.35, -64.51 -5.93, -64.2 -13.99 C-63.88 -22.04, -65.36 -20.48, -61.73 -21.67 C-58.1 -22.87, -46.69 -23.14, -42.4 -21.17 C-38.11 -19.21, -41.54 -11.33, -36.01 -9.87 C-30.49 -8.42, -14.8 -12.73, -9.26 -12.45 C-3.71 -12.16, -4.55 -9.86, -2.73 -8.17 C-0.91 -6.48, 1.45 -3.63, 1.66 -2.33" stroke="none" stroke-width="0" fill="#a5d8ff" fill-rule="evenodd"></path><path d="M-0.45 0.55 C1.28 1.11, 9.17 -0.46, 9.69 4.08 C10.21 8.63, 5.62 23.24, 2.68 27.83 C-0.26 32.42, 1.6 31.09, -7.95 31.6 C-17.51 32.11, -45.1 31.86, -54.66 30.89 C-64.22 29.93, -63.63 33.01, -65.31 25.83 C-66.98 18.65, -65.56 -4.57, -64.69 -12.17 C-63.82 -19.76, -63.42 -18.41, -60.08 -19.75 C-56.75 -21.09, -48.36 -21.56, -44.67 -20.21 C-40.98 -18.86, -43.98 -12.9, -37.96 -11.65 C-31.95 -10.39, -14.94 -13.31, -8.57 -12.67 C-2.2 -12.02, -1.29 -9.92, 0.28 -7.78 C1.86 -5.65, 0.9 -1.14, 0.9 0.15 M1.52 -0.2 C3.25 0.5, 9.18 1.37, 9.29 5.71 C9.4 10.06, 5.01 21.39, 2.18 25.85 C-0.65 30.32, 2 31.7, -7.66 32.5 C-17.32 33.31, -46.39 31.9, -55.81 30.71 C-65.22 29.51, -62.23 32.69, -64.15 25.34 C-66.06 17.99, -67.89 -5.82, -67.29 -13.39 C-66.69 -20.96, -64.61 -18.69, -60.56 -20.08 C-56.51 -21.47, -46.92 -23.07, -43 -21.73 C-39.09 -20.4, -42.81 -13.66, -37.07 -12.06 C-31.34 -10.45, -14.68 -12.8, -8.62 -12.09 C-2.56 -11.38, -2.42 -9.72, -0.71 -7.81 C0.99 -5.89, 1.53 -1.86, 1.61 -0.59" stroke="#1e1e1e" stroke-width="1" fill="none"></path></g></g><mask></mask><g stroke-linecap="round"><g transform="translate(371.6395227359899 815.3467796260302) rotate(0 -25.46775901283945 16.465816440155322)"><path d="M0 0 C0 -2.1, 0 -4.2, 0 -8.06 M0 0 C0 -2.81, 0 -5.62, 0 -8.06 M0 -8.06 C-13.34 -8.08, -26.68 -8.11, -50.8 -8.15 M0 -8.06 C-12 -8.08, -24 -8.1, -50.8 -8.15 M-50.8 -8.15 C-50.84 5.1, -50.87 18.36, -50.94 41.09 M-50.8 -8.15 C-50.84 6.92, -50.88 21.99, -50.94 41.09" stroke="#000" stroke-width="4" fill="none"></path></g></g><mask></mask><g stroke-linecap="round" transform="translate(320.69280816262835 854.2151651382737) rotate(0 25.428940165464155 5.9148239898713655)"><path d="M0 0 L50.86 0 L50.86 11.83 L0 11.83" stroke="none" stroke-width="0" fill="#b2f2bb"></path><path d="M0 0 C10.92 0, 21.85 0, 50.86 0 M0 0 C12.58 0, 25.15 0, 50.86 0 M50.86 0 C50.86 3.64, 50.86 7.27, 50.86 11.83 M50.86 0 C50.86 3.59, 50.86 7.17, 50.86 11.83 M50.86 11.83 C33.04 11.83, 15.23 11.83, 0 11.83 M50.86 11.83 C32.22 11.83, 13.58 11.83, 0 11.83 M0 11.83 C0 8.98, 0 6.14, 0 0 M0 11.83 C0 8.3, 0 4.77, 0 0" stroke="#000" stroke-width="4" fill="none"></path></g><g stroke-linecap="round"><g transform="translate(371.5292030954661 826.6688339199172) rotate(0 0.010276388635247713 16.754967818593286)"><path d="M0 0 C0.01 10.36, 0.01 20.72, 0.02 33.51 M0 0 C0.01 10.21, 0.01 20.42, 0.02 33.51" stroke="#000" stroke-width="4" fill="none"></path></g></g><mask></mask><g stroke-linecap="round"><g transform="translate(335.1003109830417 819.0356280774722) rotate(0 10.918772231194453 -0.035346886892511975)"><path d="M0 0 C7.56 -0.02, 15.12 -0.05, 21.84 -0.07 M0 0 C4.58 -0.01, 9.15 -0.03, 21.84 -0.07" stroke="#3d71b7" stroke-width="4" fill="none"></path></g></g><mask></mask><g transform="translate(281.4285714285761 886.0476190476256) rotate(0 71.11309523808268 13.92857142856883)"><text x="0" y="0" font-family="Virgil, Segoe UI Emoji" font-size="22.285714285710092px" fill="#1e1e1e" text-anchor="start" style="white-space: pre;" direction="ltr" dominant-baseline="text-before-edge">subscription 1</text></g><g stroke-linecap="round"><g transform="translate(494.81214178362643 890.8453766612365) rotate(0 -25.46775901283945 16.465816440155322)"><path d="M0 0 C0 -1.7, 0 -3.41, 0 -8.06 M0 0 C0 -2.56, 0 -5.13, 0 -8.06 M0 -8.06 C-17.48 -8.09, -34.96 -8.12, -50.8 -8.15 M0 -8.06 C-10.61 -8.08, -21.22 -8.1, -50.8 -8.15 M-50.8 -8.15 C-50.84 7.56, -50.89 23.28, -50.94 41.09 M-50.8 -8.15 C-50.83 3.02, -50.86 14.19, -50.94 41.09" stroke="#000" stroke-width="4" fill="none"></path></g></g><mask></mask><g stroke-linecap="round" transform="translate(443.86542721026854 929.7137621734728) rotate(0 25.428940165464155 5.9148239898713655)"><path d="M0 0 L50.86 0 L50.86 11.83 L0 11.83" stroke="none" stroke-width="0" fill="#b2f2bb"></path><path d="M0 0 C11.33 0, 22.66 0, 50.86 0 M0 0 C14.8 0, 29.6 0, 50.86 0 M50.86 0 C50.86 3.47, 50.86 6.94, 50.86 11.83 M50.86 0 C50.86 3.75, 50.86 7.5, 50.86 11.83 M50.86 11.83 C39.98 11.83, 29.09 11.83, 0 11.83 M50.86 11.83 C32.09 11.83, 13.32 11.83, 0 11.83 M0 11.83 C0 8.92, 0 6, 0 0 M0 11.83 C0 7.54, 0 3.24, 0 0" stroke="#000" stroke-width="4" fill="none"></path></g><g stroke-linecap="round"><g transform="translate(494.7018221431026 902.1674309551163) rotate(0 0.010276388635247713 16.754967818593286)"><path d="M0 0 C0.01 12.36, 0.02 24.73, 0.02 33.51 M0 0 C0.01 9.38, 0.01 18.77, 0.02 33.51" stroke="#000" stroke-width="4" fill="none"></path></g></g><mask></mask><g stroke-linecap="round"><g transform="translate(458.27293003067825 894.5342251126713) rotate(0 10.918772231194453 -0.035346886892511975)"><path d="M0 0 C4.62 -0.01, 9.25 -0.03, 21.84 -0.07 M0 0 C7.29 -0.02, 14.58 -0.05, 21.84 -0.07" stroke="#3d71b7" stroke-width="4" fill="none"></path></g></g><mask></mask><g transform="translate(403.17261904763654 962.9747875113972) rotate(0 75.89167022705078 13.92857142856883)"><text x="0" y="0" font-family="Virgil, Segoe UI Emoji" font-size="22.285714285710092px" fill="#1e1e1e" text-anchor="start" style="white-space: pre;" direction="ltr" dominant-baseline="text-before-edge">subscription 2</text></g><g stroke-linecap="round"><g transform="translate(877.6692846407677 845.1310909469539) rotate(0 -25.46775901283945 16.465816440155322)"><path d="M0 0 C0 -2.94, 0 -5.89, 0 -8.06 M0 0 C0 -3.17, 0 -6.33, 0 -8.06 M0 -8.06 C-10.55 -8.08, -21.09 -8.1, -50.8 -8.15 M0 -8.06 C-16.67 -8.09, -33.34 -8.12, -50.8 -8.15 M-50.8 -8.15 C-50.86 11.31, -50.91 30.77, -50.94 41.09 M-50.8 -8.15 C-50.84 6.16, -50.88 20.47, -50.94 41.09" stroke="#000" stroke-width="4" fill="none"></path></g></g><mask></mask><g stroke-linecap="round" transform="translate(826.7225700674098 883.9994764591902) rotate(0 25.428940165464155 5.9148239898713655)"><path d="M0 0 L50.86 0 L50.86 11.83 L0 11.83" stroke="none" stroke-width="0" fill="#b2f2bb"></path><path d="M0 0 C11.31 0, 22.62 0, 50.86 0 M0 0 C18.74 0, 37.48 0, 50.86 0 M50.86 0 C50.86 3.05, 50.86 6.09, 50.86 11.83 M50.86 0 C50.86 3.03, 50.86 6.06, 50.86 11.83 M50.86 11.83 C32.97 11.83, 15.08 11.83, 0 11.83 M50.86 11.83 C37.47 11.83, 24.08 11.83, 0 11.83 M0 11.83 C0 8.16, 0 4.48, 0 0 M0 11.83 C0 8.72, 0 5.62, 0 0" stroke="#000" stroke-width="4" fill="none"></path></g><g stroke-linecap="round"><g transform="translate(877.5589650002439 856.4531452408337) rotate(0 0.010276388635247713 16.754967818593286)"><path d="M0 0 C0.01 9.69, 0.01 19.37, 0.02 33.51 M0 0 C0.01 11.34, 0.01 22.68, 0.02 33.51" stroke="#000" stroke-width="4" fill="none"></path></g></g><mask></mask><g stroke-linecap="round"><g transform="translate(841.1300728878196 848.8199393983887) rotate(0 10.918772231194453 -0.035346886892511975)"><path d="M0 0 C7.28 -0.02, 14.56 -0.05, 21.84 -0.07 M0 0 C5.36 -0.02, 10.71 -0.03, 21.84 -0.07" stroke="#3d71b7" stroke-width="4" fill="none"></path></g></g><mask></mask><g transform="translate(787.4583333333503 915.8319303685494) rotate(0 71.11309523808268 13.92857142856883)"><text x="0" y="0" font-family="Virgil, Segoe UI Emoji" font-size="22.285714285710092px" fill="#1e1e1e" text-anchor="start" style="white-space: pre;" direction="ltr" dominant-baseline="text-before-edge">subscription 1</text></g><g stroke-linecap="round"><g transform="translate(808.5714285714348 873.1904761904807) rotate(0 -117.86476491501526 -66.07864138329751)"><path d="M1.19 -0.37 C-37.95 -21.88, -196.32 -108.37, -235.88 -130.27 M0.35 -1.61 C-38.87 -23.32, -197.33 -110.27, -236.92 -131.79" stroke="#2f9e44" stroke-width="4" fill="none"></path></g><g transform="translate(808.5714285714348 873.1904761904807) rotate(0 -117.86476491501526 -66.07864138329751)"><path d="M-207.26 -127.27 C-214.15 -128.22, -217.92 -129.68, -236.92 -131.79 M-207.26 -127.27 C-215.92 -128.11, -224.08 -129.28, -236.92 -131.79" stroke="#2f9e44" stroke-width="4" fill="none"></path></g><g transform="translate(808.5714285714348 873.1904761904807) rotate(0 -117.86476491501526 -66.07864138329751)"><path d="M-217.1 -109.26 C-221.71 -114.14, -223.39 -119.44, -236.92 -131.79 M-217.1 -109.26 C-223.04 -114.94, -228.57 -120.94, -236.92 -131.79" stroke="#2f9e44" stroke-width="4" fill="none"></path></g></g><mask></mask><g stroke-linecap="round"><g transform="translate(390.0000000000073 823.1904761904807) rotate(0 52.58636974259571 -40.314762173471536)"><path d="M-0.15 -0.95 C17.8 -14.33, 89.09 -66.56, 106.86 -79.79 M-1.69 1.17 C16.28 -12.65, 88.54 -68.4, 106.51 -81.8" stroke="#e03131" stroke-width="4" fill="none"></path></g><g transform="translate(390.0000000000073 823.1904761904807) rotate(0 52.58636974259571 -40.314762173471536)"><path d="M90.28 -56.57 C92.33 -60.46, 98 -66.89, 106.51 -81.8 M90.28 -56.57 C94.03 -62.5, 99.84 -70.14, 106.51 -81.8" stroke="#e03131" stroke-width="4" fill="none"></path></g><g transform="translate(390.0000000000073 823.1904761904807) rotate(0 52.58636974259571 -40.314762173471536)"><path d="M77.86 -72.9 C82.85 -73.01, 91.38 -75.68, 106.51 -81.8 M77.86 -72.9 C85.05 -74.33, 94.23 -77.54, 106.51 -81.8" stroke="#e03131" stroke-width="4" fill="none"></path></g></g><mask></mask><g stroke-linecap="round"><g transform="translate(525.7142857142971 907.4761904761908) rotate(0 100.56314562270745 -81.9587726789905)"><path d="M0.05 1.14 C33.39 -26.39, 166.63 -137.59, 200.35 -165.06 M-1.38 0.7 C32.29 -26.71, 168.59 -136.19, 202.5 -163.93" stroke="#e03131" stroke-width="4" fill="none"></path></g><g transform="translate(525.7142857142971 907.4761904761908) rotate(0 100.56314562270745 -81.9587726789905)"><path d="M187.05 -138.22 C194 -148.46, 195.88 -153.52, 202.5 -163.93 M187.05 -138.22 C192.4 -147.97, 196.98 -156.14, 202.5 -163.93" stroke="#e03131" stroke-width="4" fill="none"></path></g><g transform="translate(525.7142857142971 907.4761904761908) rotate(0 100.56314562270745 -81.9587726789905)"><path d="M174.14 -154.16 C185.35 -159.18, 191.47 -159, 202.5 -163.93 M174.14 -154.16 C184.12 -158.49, 193.2 -161.11, 202.5 -163.93" stroke="#e03131" stroke-width="4" fill="none"></path></g></g><mask></mask><g stroke-linecap="round"><g transform="translate(591.4285714285797 574.6190476190532) rotate(0 -15.673411947562272 21.50826267166849)"><path d="M0.26 0.23 C-4.97 7.35, -26.3 35.56, -31.61 42.66 M0.06 0.12 C-5.05 7.27, -25.78 35.73, -31.09 42.9" stroke="#1971c2" stroke-width="4" fill="none"></path></g><g transform="translate(591.4285714285797 574.6190476190532) rotate(0 -15.673411947562272 21.50826267166849)"><path d="M-23.65 17.39 C-24.77 22.39, -27.15 27.8, -31.09 42.9 M-23.65 17.39 C-25.99 24.89, -28.05 32.41, -31.09 42.9" stroke="#1971c2" stroke-width="4" fill="none"></path></g><g transform="translate(591.4285714285797 574.6190476190532) rotate(0 -15.673411947562272 21.50826267166849)"><path d="M-8.99 28.14 C-13.17 30.93, -18.6 34.1, -31.09 42.9 M-8.99 28.14 C-15.59 32.48, -21.92 36.87, -31.09 42.9" stroke="#1971c2" stroke-width="4" fill="none"></path></g></g><mask></mask><g stroke-linecap="round"><g transform="translate(675.7142857142935 577.4761904761981) rotate(0 14.976827795268036 21.432006889059267)"><path d="M-0.26 -0.06 C4.8 7.09, 25.15 35.69, 30.22 42.85 M0.08 -0.32 C5.14 6.88, 25.13 35.93, 30.12 43.18" stroke="#1971c2" stroke-width="4" fill="none"></path></g><g transform="translate(675.7142857142935 577.4761904761981) rotate(0 14.976827795268036 21.432006889059267)"><path d="M8.82 28.01 C13.72 32.06, 18.87 35.46, 30.12 43.18 M8.82 28.01 C15.33 32.58, 22.47 37.64, 30.12 43.18" stroke="#1971c2" stroke-width="4" fill="none"></path></g><g transform="translate(675.7142857142935 577.4761904761981) rotate(0 14.976827795268036 21.432006889059267)"><path d="M23.56 17.86 C24.98 24.27, 26.64 30.07, 30.12 43.18 M23.56 17.86 C25.44 25.62, 27.94 33.87, 30.12 43.18" stroke="#1971c2" stroke-width="4" fill="none"></path></g></g><mask></mask><g transform="translate(735.7142857142935 478.90476190477784) rotate(0 173.56429181780186 14.85712944728948)"><text x="0" y="0" font-family="Virgil, Segoe UI Emoji" font-size="23.77140711566182px" fill="#1e1e1e" text-anchor="start" style="white-space: pre;" direction="ltr" dominant-baseline="text-before-edge">Publisher creates publications</text></g><g transform="translate(378.54920741486785 388.90476190477057) rotate(0 78.51825496130368 14.642857142858702)"><text x="0" y="0" font-family="Virgil, Segoe UI Emoji" font-size="23.428571428576568px" fill="#f08c00" text-anchor="start" style="white-space: pre;" direction="ltr" dominant-baseline="text-before-edge">publisher node</text></g><g stroke-linecap="round"><g transform="translate(455.503063856082 431.7619047619155) rotate(0 51.14504826494158 30.59392385557294)"><path d="M1 0.72 C17.95 10.62, 84.43 50.45, 101.29 60.46" stroke="#f08c00" stroke-width="2.5" fill="none" stroke-dasharray="8 10"></path></g><g transform="translate(455.503063856082 431.7619047619155) rotate(0 51.14504826494158 30.59392385557294)"><path d="M71.82 54.83 C80.87 55.49, 88.22 58.47, 101.29 60.46" stroke="#f08c00" stroke-width="2.5" fill="none"></path></g><g transform="translate(455.503063856082 431.7619047619155) rotate(0 51.14504826494158 30.59392385557294)"><path d="M82.34 37.21 C88.77 42.62, 93.34 50.25, 101.29 60.46" stroke="#f08c00" stroke-width="2.5" fill="none"></path></g></g><mask></mask><g transform="translate(195.76745932441918 1155.6904761904734) rotate(0 87.3499984741211 14.642857142858702)"><text x="0" y="0" font-family="Virgil, Segoe UI Emoji" font-size="23.428571428576568px" fill="#f08c00" text-anchor="start" style="white-space: pre;" direction="ltr" dominant-baseline="text-before-edge">subscriber node</text></g><g stroke-linecap="round"><g transform="translate(282.8571428571522 1143.1904761904807) rotate(0 0.04849629170530534 -29.201259766701696)"><path d="M-0.01 0.1 C-0.02 -9.66, 0.11 -48.72, 0.11 -58.51" stroke="#f08c00" stroke-width="2.5" fill="none" stroke-dasharray="8 10"></path></g><g transform="translate(282.8571428571522 1143.1904761904807) rotate(0 0.04849629170530534 -29.201259766701696)"><path d="M10.08 -30.97 C6.35 -41.57, 2.36 -52.66, 0.11 -58.51" stroke="#f08c00" stroke-width="2.5" fill="none"></path></g><g transform="translate(282.8571428571522 1143.1904761904807) rotate(0 0.04849629170530534 -29.201259766701696)"><path d="M-9.95 -31 C-5.82 -41.58, -1.95 -52.67, 0.11 -58.51" stroke="#f08c00" stroke-width="2.5" fill="none"></path></g></g><mask></mask><g transform="translate(912.6500015258789 1144.0503942045616) rotate(0 87.3499984741211 14.642857142858702)"><text x="0" y="0" font-family="Virgil, Segoe UI Emoji" font-size="23.428571428576568px" fill="#f08c00" text-anchor="start" style="white-space: pre;" direction="ltr" dominant-baseline="text-before-edge">subscriber node</text></g><g stroke-linecap="round"><g transform="translate(991.9226109327174 1130.2721546133907) rotate(0 -0.4704215175079298 -32.317264114393765)"><path d="M0.13 0.15 C-0.05 -10.64, -0.86 -53.94, -1.07 -64.78" stroke="#f08c00" stroke-width="2.5" fill="none" stroke-dasharray="8 10"></path></g><g transform="translate(991.9226109327174 1130.2721546133907) rotate(0 -0.4704215175079298 -32.317264114393765)"><path d="M9.72 -36.79 C6.57 -45.71, 2.74 -54.82, -1.07 -64.78" stroke="#f08c00" stroke-width="2.5" fill="none"></path></g><g transform="translate(991.9226109327174 1130.2721546133907) rotate(0 -0.4704215175079298 -32.317264114393765)"><path d="M-10.79 -36.4 C-7.38 -45.47, -4.64 -54.7, -1.07 -64.78" stroke="#f08c00" stroke-width="2.5" fill="none"></path></g></g><mask></mask><g transform="translate(840.0000000000036 723.1904761904807) rotate(0 225.61666870117188 26.50872550360873)"><text x="0" y="0" font-family="Virgil, Segoe UI Emoji" font-size="21.206980402887787px" fill="#1e1e1e" text-anchor="start" style="white-space: pre;" direction="ltr" dominant-baseline="text-before-edge">Subscribers pull data from the publications</text><text x="0" y="26.508725503609732" font-family="Virgil, Segoe UI Emoji" font-size="21.206980402887787px" fill="#1e1e1e" text-anchor="start" style="white-space: pre;" direction="ltr" dominant-baseline="text-before-edge">they subscribe</text></g><g transform="translate(458.2214224679228 1171.91359885547) rotate(0 210.35000610351562 72.7054487635869)"><text x="0" y="0" font-family="Virgil, Segoe UI Emoji" font-size="23.26574360434838px" fill="#1e1e1e" text-anchor="start" style="white-space: pre;" direction="ltr" dominant-baseline="text-before-edge">The subscriber applies the data</text><text x="0" y="29.082179505435477" font-family="Virgil, Segoe UI Emoji" font-size="23.26574360434838px" fill="#1e1e1e" text-anchor="start" style="white-space: pre;" direction="ltr" dominant-baseline="text-before-edge"> in the same order as the publisher </text><text x="0" y="58.16435901087095" font-family="Virgil, Segoe UI Emoji" font-size="23.26574360434838px" fill="#1e1e1e" text-anchor="start" style="white-space: pre;" direction="ltr" dominant-baseline="text-before-edge">so that transactional consistency i</text><text x="0" y="87.24653851630643" font-family="Virgil, Segoe UI Emoji" font-size="23.26574360434838px" fill="#1e1e1e" text-anchor="start" style="white-space: pre;" direction="ltr" dominant-baseline="text-before-edge">s guaranteed for publications within</text><text x="0" y="116.3287180217419" font-family="Virgil, Segoe UI Emoji" font-size="23.26574360434838px" fill="#1e1e1e" text-anchor="start" style="white-space: pre;" direction="ltr" dominant-baseline="text-before-edge"> a single subscription.</text></g></svg>