<svg version="1.1" xmlns="http://www.w3.org/2000/svg" viewBox="0 0 2074.0833028295165 1325.6666666666642" width="2074.0833028295165" height="1325.6666666666642">
  <!-- svg-source:excalidraw -->
  
  <defs>
    <style class="style-fonts">
      @font-face {
        font-family: "Virgil";
        src: url("https://excalidraw.com/Virgil.woff2");
      }
      @font-face {
        font-family: "Cascadia";
        src: url("https://excalidraw.com/Cascadia.woff2");
      }
    </style>
    
  </defs>
  <g transform="translate(506.65366506186547 10) rotate(0 423.4916687011719 36.66666666666606)"><text x="0" y="0" font-family="Virgil, Segoe UI Emoji" font-size="58.66666666666637px" fill="#1e1e1e" text-anchor="start" style="white-space: pre;" direction="ltr" dominant-baseline="text-before-edge">Phisical vs Logical operations</text></g><g transform="translate(187.11662802482897 188.66666666666424) rotate(0 152.52499389648438 22.5)"><text x="0" y="0" font-family="Virgil, Segoe UI Emoji" font-size="36px" fill="#e03131" text-anchor="start" style="white-space: pre;" direction="ltr" dominant-baseline="text-before-edge">Logical Operation</text></g><g transform="translate(1253.116628024829 170.66666666666424) rotate(0 161.75833129882812 22.5)"><text x="0" y="0" font-family="Virgil, Segoe UI Emoji" font-size="36px" fill="#e03131" text-anchor="start" style="white-space: pre;" direction="ltr" dominant-baseline="text-before-edge">Physical Operation</text></g><g transform="translate(273.11662802482897 328.66666666666424) rotate(0 45.84166717529297 22.5)"><text x="0" y="0" font-family="Virgil, Segoe UI Emoji" font-size="36px" fill="#2f9e44" text-anchor="start" style="white-space: pre;" direction="ltr" dominant-baseline="text-before-edge">initdb</text></g><g transform="translate(173.11662802482897 438.66666666666424) rotate(0 183.44166564941406 22.5)"><text x="0" y="0" font-family="Virgil, Segoe UI Emoji" font-size="36px" fill="#2f9e44" text-anchor="start" style="white-space: pre;" direction="ltr" dominant-baseline="text-before-edge">CREATE DATABASE</text></g><g transform="translate(209.11662802482897 560.6666666666642) rotate(0 145.625 22.5)"><text x="0" y="0" font-family="Virgil, Segoe UI Emoji" font-size="36px" fill="#2f9e44" text-anchor="start" style="white-space: pre;" direction="ltr" dominant-baseline="text-before-edge">CREATE TABLE</text></g><g transform="translate(265.11662802482897 670.6666666666642) rotate(0 71.1500015258789 22.5)"><text x="0" y="0" font-family="Virgil, Segoe UI Emoji" font-size="36px" fill="#2f9e44" text-anchor="start" style="white-space: pre;" direction="ltr" dominant-baseline="text-before-edge">INSERT</text></g><g transform="translate(1025.116628024829 312.66666666666424) rotate(0 371.79998779296875 22.5)"><text x="0" y="0" font-family="Virgil, Segoe UI Emoji" font-size="36px" fill="#2f9e44" text-anchor="start" style="white-space: pre;" direction="ltr" dominant-baseline="text-before-edge">Creates a base directory for the cluster</text></g><g transform="translate(1031.116628024829 414.66666666666424) rotate(0 402.4333190917969 22.5)"><text x="0" y="0" font-family="Virgil, Segoe UI Emoji" font-size="36px" fill="#2f9e44" text-anchor="start" style="white-space: pre;" direction="ltr" dominant-baseline="text-before-edge">Creates a subdirectory in the base directory</text></g><g transform="translate(941.116628024829 542.6666666666642) rotate(0 496.5916748046875 22.5)"><text x="0" y="0" font-family="Virgil, Segoe UI Emoji" font-size="36px" fill="#2f9e44" text-anchor="start" style="white-space: pre;" direction="ltr" dominant-baseline="text-before-edge">Creates a file within the subdirectory of the database</text></g><g transform="translate(949.116628024829 640.6666666666642) rotate(0 557.4833374023438 45)"><text x="0" y="0" font-family="Virgil, Segoe UI Emoji" font-size="36px" fill="#2f9e44" text-anchor="start" style="white-space: pre;" direction="ltr" dominant-baseline="text-before-edge">Changes the file that was created for this particular </text><text x="0" y="45" font-family="Virgil, Segoe UI Emoji" font-size="36px" fill="#2f9e44" text-anchor="start" style="white-space: pre;" direction="ltr" dominant-baseline="text-before-edge">table and writes new WAL records in the current WAL segment</text></g><g stroke-linecap="round"><g transform="translate(1183.630376361547 944.787796144421) rotate(0 93.01502750779218 88.06400445261534)" fill-rule="evenodd"><path d="M1.94 -0.84 C2.49 24.03, 1.67 121.76, 2.23 151.47 C2.79 181.18, 1.65 171.78, 5.3 177.41 C8.94 183.05, 15.33 182.14, 24.08 185.26 C32.83 188.37, 45.79 194.01, 57.78 196.11 C69.78 198.2, 84.5 197.92, 96.06 197.82 C107.61 197.72, 117.67 196.43, 127.11 195.51 C136.55 194.59, 143.65 195.73, 152.72 192.32 C161.79 188.91, 176.44 182.11, 181.53 175.03 C186.62 167.94, 182.57 175.82, 183.26 149.82 C183.95 123.82, 185.77 44.23, 185.67 19.02 C185.57 -6.19, 186.73 4.01, 182.66 -1.46 C178.58 -6.93, 168.99 -11.09, 161.22 -13.79 C153.44 -16.5, 145.9 -16.27, 136 -17.67 C126.1 -19.07, 111.52 -21.53, 101.81 -22.17 C92.1 -22.81, 88.78 -22.56, 77.73 -21.51 C66.68 -20.45, 48.33 -19.66, 35.49 -15.83 C22.65 -12, 6.43 -0.95, 0.71 1.47" stroke="none" stroke-width="0" fill="#fa5252" fill-rule="evenodd"></path><path d="M-0.23 0.68 C-0.15 25.75, -1.02 121.63, -0.47 150.83 C0.09 180.03, -1.15 169.75, 3.1 175.88 C7.34 182.01, 15.44 184.46, 25.02 187.63 C34.61 190.79, 48.96 193.21, 60.6 194.87 C72.25 196.53, 83.82 197.52, 94.89 197.61 C105.97 197.7, 117.24 196.81, 127.06 195.42 C136.87 194.03, 144.35 192.49, 153.77 189.26 C163.2 186.02, 178.17 182.66, 183.6 176 C189.03 169.34, 185.78 175.41, 186.36 149.29 C186.94 123.16, 187.16 44.15, 187.09 19.24 C187.01 -5.68, 189.95 4.91, 185.89 -0.2 C181.82 -5.31, 171.05 -8.37, 162.7 -11.42 C154.35 -14.48, 145.98 -17.04, 135.81 -18.54 C125.64 -20.04, 111.18 -20.34, 101.7 -20.43 C92.22 -20.52, 90.31 -19.7, 78.94 -19.09 C67.58 -18.49, 46.75 -20.05, 33.51 -16.79 C20.27 -13.53, 5.11 -2.37, -0.5 0.45 M-1.81 -0.01 C-1.84 24.69, -2.33 119.75, -1.66 149.18 C-0.98 178.61, -2.19 170.54, 2.24 176.58 C6.66 182.61, 15.28 182.28, 24.86 185.39 C34.44 188.5, 47.85 193.32, 59.71 195.25 C71.56 197.17, 85.2 197.07, 96 196.92 C106.8 196.77, 114.54 195.73, 124.51 194.34 C134.47 192.95, 146.22 191.87, 155.78 188.58 C165.35 185.3, 177.2 181.3, 181.88 174.62 C186.55 167.94, 182.93 174.33, 183.84 148.49 C184.75 122.65, 187.15 44.42, 187.34 19.6 C187.54 -5.21, 189.6 4.88, 185.02 -0.39 C180.44 -5.66, 168.15 -8.92, 159.86 -12 C151.57 -15.08, 144.91 -17.35, 135.29 -18.87 C125.67 -20.4, 111.44 -20.79, 102.14 -21.14 C92.83 -21.49, 90.53 -21.76, 79.44 -20.98 C68.36 -20.2, 48.6 -20.11, 35.63 -16.44 C22.66 -12.77, 7.82 -1.77, 1.61 1.06" stroke="#c92a2a" stroke-width="1" fill="none"></path></g></g><mask></mask><g stroke-linecap="round" transform="translate(1182.9411137456227 922.0410245294988) rotate(0 93.43632411606086 25.40485803504089)"><path d="M88.53 -0.21 C101.48 -0.8, 117.23 -0.28, 129.44 1.12 C141.65 2.52, 152.7 5.28, 161.8 8.19 C170.89 11.11, 180.13 14.91, 184 18.59 C187.88 22.27, 187.39 26.66, 185.06 30.28 C182.73 33.9, 177.73 37.43, 170.01 40.31 C162.3 43.2, 150.41 45.71, 138.76 47.58 C127.11 49.45, 113.69 51.34, 100.11 51.54 C86.53 51.75, 69.79 50.46, 57.27 48.81 C44.75 47.16, 33.77 44.42, 24.98 41.64 C16.19 38.85, 8.5 35.34, 4.54 32.1 C0.58 28.86, -0.7 25.58, 1.23 22.19 C3.17 18.8, 8.56 15.06, 16.16 11.75 C23.77 8.43, 32.29 4.08, 46.86 2.29 C61.43 0.51, 92 1.1, 103.61 1.05 C115.22 1, 116.86 1.88, 116.51 2.02 M61.36 0.29 C72.65 -0.88, 88.18 0.84, 101.45 1.5 C114.73 2.16, 129.31 2.7, 141.01 4.25 C152.72 5.79, 164.35 8, 171.68 10.75 C179 13.5, 183.08 17.06, 184.97 20.75 C186.85 24.43, 186.9 29.14, 182.97 32.83 C179.03 36.53, 171.06 40.27, 161.34 42.91 C151.63 45.55, 137.22 47.32, 124.67 48.66 C112.12 50, 99.29 51.38, 86.05 50.96 C72.81 50.53, 57.16 48.11, 45.23 46.13 C33.29 44.15, 22.09 41.91, 14.44 39.07 C6.79 36.24, 1.02 32.84, -0.68 29.12 C-2.39 25.41, -0.25 20.41, 4.21 16.79 C8.66 13.16, 16.58 9.73, 26.04 7.35 C35.51 4.97, 54.97 3.24, 60.99 2.49 C67.01 1.74, 61.69 2.36, 62.17 2.85" stroke="none" stroke-width="0" fill="#ffffff"></path><path d="M86.82 0.98 C99.68 0.36, 114.83 -0.05, 127.42 1.26 C140.02 2.57, 153.12 6.23, 162.4 8.84 C171.68 11.44, 179.29 13.52, 183.11 16.89 C186.93 20.26, 187.38 25.18, 185.32 29.08 C183.25 32.98, 178.32 37.24, 170.72 40.28 C163.12 43.31, 151.58 45.4, 139.72 47.29 C127.86 49.18, 112.88 51.15, 99.56 51.61 C86.24 52.06, 72.16 51.44, 59.8 50.01 C47.44 48.57, 34.73 45.82, 25.43 43.01 C16.12 40.19, 8.07 36.79, 3.96 33.09 C-0.14 29.39, -1.39 24.55, 0.78 20.81 C2.95 17.07, 9.45 13.63, 16.99 10.66 C24.52 7.69, 32.53 4.8, 45.97 3 C59.41 1.21, 87.28 0.32, 97.61 -0.12 C107.93 -0.56, 107.91 -0.2, 107.94 0.38 M78.69 0.59 C90.7 -0.72, 105.32 -1.21, 117.94 -0.12 C130.55 0.98, 144.05 4.43, 154.39 7.14 C164.73 9.85, 174.5 12.81, 179.99 16.14 C185.48 19.47, 188.32 23.28, 187.32 27.11 C186.32 30.93, 180.81 36.04, 174 39.1 C167.19 42.16, 157.46 43.6, 146.46 45.48 C135.45 47.36, 121.2 49.78, 107.95 50.36 C94.7 50.94, 79.93 50.06, 66.95 48.98 C53.97 47.91, 40.07 46.4, 30.09 43.91 C20.1 41.42, 11.96 37.29, 7.02 34.05 C2.08 30.8, -0.32 28.12, 0.46 24.44 C1.24 20.75, 5.47 15.38, 11.68 11.95 C17.9 8.52, 26.62 5.78, 37.73 3.87 C48.84 1.96, 71.58 0.85, 78.33 0.5 C85.07 0.15, 77.97 1.52, 78.21 1.77" stroke="#c92a2a" stroke-width="1" fill="none"></path></g><g transform="translate(1184.3577511692274 1142.845810797604) rotate(0 91.35728442813524 23.070021320236265)"><text x="91.35728442813483" y="0" font-family="Virgil, Segoe UI Emoji" font-size="36.91203411237771px" fill="#000000" text-anchor="middle" style="white-space: pre;" direction="ltr" dominant-baseline="text-before-edge">Database</text></g><g stroke-linecap="round"><g transform="translate(1637.1203339653657 943.776507749164) rotate(0 88.07201742763755 83.02119529639458)" fill-rule="evenodd"><path d="M-1.08 1.48 C-0.69 25.23, 0.12 116.08, 1.16 143.57 C2.21 171.07, 1.69 160.68, 5.21 166.47 C8.74 172.25, 13.66 175.1, 22.32 178.27 C30.97 181.44, 45.53 184.21, 57.15 185.47 C68.77 186.72, 81.51 186.35, 92.02 185.81 C102.52 185.28, 111.09 183.59, 120.2 182.25 C129.31 180.92, 137.84 180.59, 146.68 177.8 C155.53 175.02, 168.58 171.29, 173.28 165.53 C177.98 159.77, 174.09 167.67, 174.88 143.25 C175.66 118.84, 178.05 42.86, 177.98 19.04 C177.91 -4.78, 178.55 5.68, 174.45 0.32 C170.35 -5.04, 160.98 -10.05, 153.38 -13.13 C145.78 -16.21, 138.29 -16.87, 128.85 -18.14 C119.4 -19.41, 105.36 -20.88, 96.68 -20.73 C88 -20.57, 87.49 -17.93, 76.76 -17.21 C66.02 -16.49, 45.28 -19.53, 32.28 -16.39 C19.28 -13.26, 4.3 -1.56, -1.24 1.58" stroke="none" stroke-width="0" fill="#40c057" fill-rule="evenodd"></path><path d="M0.37 -0.36 C0.42 23.35, -0.17 114.33, 0.1 142.24 C0.37 170.15, -1.91 161.48, 1.98 167.1 C5.88 172.73, 14.55 173.14, 23.48 175.98 C32.41 178.83, 44.46 182.48, 55.57 184.18 C66.68 185.88, 79.7 186.25, 90.15 186.17 C100.6 186.1, 108.8 185.09, 118.29 183.74 C127.78 182.39, 138.13 180.92, 147.11 178.07 C156.08 175.21, 167.6 172.87, 172.13 166.6 C176.67 160.34, 173.66 165.15, 174.31 140.5 C174.97 115.85, 176.18 42.07, 176.05 18.7 C175.93 -4.68, 177.38 5.25, 173.55 0.27 C169.72 -4.71, 160.68 -8.36, 153.06 -11.2 C145.44 -14.04, 137.31 -15.28, 127.82 -16.76 C118.34 -18.23, 104.84 -19.68, 96.17 -20.04 C87.5 -20.4, 86.51 -19.69, 75.82 -18.91 C65.14 -18.13, 44.55 -18.59, 32.06 -15.39 C19.58 -12.2, 6.1 -2.45, 0.94 0.26 M-0.9 -1.6 C-0.98 21.8, -1.66 112.25, -0.8 140.61 C0.07 168.97, 0.28 162.5, 4.3 168.55 C8.31 174.61, 14.42 174.24, 23.29 176.95 C32.15 179.67, 46.1 183.43, 57.49 184.85 C68.89 186.26, 81.47 185.85, 91.66 185.44 C101.85 185.04, 109.45 183.79, 118.62 182.43 C127.78 181.07, 137.48 180.07, 146.65 177.27 C155.81 174.47, 168.94 171.89, 173.62 165.62 C178.3 159.35, 174.32 164, 174.75 139.63 C175.18 115.25, 176.07 42.61, 176.19 19.39 C176.31 -3.83, 179.22 5.54, 175.47 0.31 C171.73 -4.93, 161.76 -9.18, 153.71 -12.02 C145.67 -14.85, 136.7 -15.79, 127.21 -16.71 C117.72 -17.62, 105.12 -17.34, 96.77 -17.5 C88.42 -17.66, 88.11 -18.1, 77.11 -17.65 C66.11 -17.2, 43.62 -17.86, 30.79 -14.79 C17.96 -11.72, 5.23 -1.96, 0.14 0.77" stroke="#2b8a3e" stroke-width="1" fill="none"></path></g></g><mask></mask><g stroke-linecap="round" transform="translate(1636.4708273616925 922.341748290517) rotate(0 88.04700579198652 23.93952998169516)"><path d="M79.87 0.04 C92.65 -0.58, 109.61 0.63, 122.22 2.1 C134.82 3.56, 146.84 6.07, 155.5 8.82 C164.15 11.58, 171.21 15.07, 174.14 18.62 C177.07 22.17, 176.84 26.5, 173.1 30.11 C169.35 33.73, 161.14 37.6, 151.67 40.31 C142.2 43.02, 129.05 45.2, 116.28 46.4 C103.5 47.59, 88.41 47.98, 75.02 47.49 C61.63 47, 47.01 45.64, 35.93 43.45 C24.84 41.27, 14.49 37.73, 8.53 34.38 C2.57 31.03, -0.26 27.12, 0.15 23.36 C0.57 19.59, 4.33 15.08, 11.01 11.81 C17.7 8.55, 28.35 5.72, 40.25 3.76 C52.15 1.79, 74.99 0.54, 82.43 0.03 C89.87 -0.48, 84.77 0.3, 84.9 0.71 M87.69 0.44 C100.63 0.11, 116.99 1.49, 129.05 3.04 C141.1 4.59, 152.37 6.65, 160.03 9.75 C167.69 12.85, 173.21 17.77, 175 21.62 C176.79 25.47, 175.53 29.38, 170.77 32.84 C166.01 36.29, 156.73 40.07, 146.46 42.35 C136.18 44.63, 122.28 45.81, 109.14 46.54 C96 47.26, 80.88 47.56, 67.62 46.7 C54.37 45.84, 39.99 43.83, 29.62 41.4 C19.24 38.97, 10.17 35.6, 5.38 32.11 C0.58 28.62, -0.85 24.03, 0.82 20.44 C2.48 16.85, 7.58 13.4, 15.36 10.55 C23.15 7.71, 35.42 5.08, 47.56 3.36 C59.69 1.64, 81.4 0.69, 88.18 0.23 C94.97 -0.24, 88.23 0.18, 88.26 0.56" stroke="none" stroke-width="0" fill="#ffffff"></path><path d="M69.75 0.33 C82.17 -0.69, 98.98 -0.03, 112.16 0.97 C125.34 1.97, 138.95 3.73, 148.83 6.33 C158.7 8.94, 167.08 13.12, 171.4 16.61 C175.71 20.1, 176.77 23.7, 174.72 27.26 C172.67 30.81, 167.2 34.94, 159.08 37.95 C150.97 40.97, 138.4 43.75, 126.04 45.36 C113.67 46.98, 98.42 47.68, 84.9 47.63 C71.37 47.58, 56.7 46.84, 44.88 45.06 C33.06 43.28, 21.36 40.08, 13.96 36.94 C6.56 33.8, 1.77 29.9, 0.51 26.23 C-0.75 22.55, 1.18 18.34, 6.41 14.89 C11.64 11.43, 20.87 7.85, 31.9 5.48 C42.93 3.12, 65.26 1.45, 72.6 0.72 C79.93 -0.01, 75.6 0.83, 75.93 1.13 M96.97 0.75 C110.14 0.65, 125.72 1.8, 136.97 3.83 C148.23 5.85, 157.93 9.55, 164.5 12.89 C171.06 16.24, 175.87 20.27, 176.37 23.89 C176.87 27.52, 173.54 31.47, 167.5 34.64 C161.45 37.81, 151.18 40.82, 140.07 42.93 C128.97 45.04, 114.39 46.73, 100.84 47.32 C87.29 47.9, 71.67 47.52, 58.77 46.43 C45.88 45.33, 32.7 43.48, 23.48 40.76 C14.27 38.05, 7.05 33.77, 3.5 30.14 C-0.05 26.52, -0.77 22.7, 2.17 19 C5.11 15.3, 12.28 10.87, 21.13 7.95 C29.98 5.03, 42.64 2.89, 55.28 1.5 C67.91 0.11, 90.01 -0.3, 96.94 -0.37 C103.87 -0.44, 97.05 0.65, 96.87 1.07" stroke="#2b8a3e" stroke-width="1" fill="none"></path></g><g transform="translate(1637.8057544858166 1130.4107244554725) rotate(0 86.08788313624973 21.739364428345652)"><text x="86.08788313624909" y="0" font-family="Virgil, Segoe UI Emoji" font-size="34.78298308535317px" fill="#000000" text-anchor="middle" style="white-space: pre;" direction="ltr" dominant-baseline="text-before-edge">Database</text></g><g stroke-linecap="round"><g transform="translate(1414.8793129038822 1054.9274662450844) rotate(0 90.03327003503364 0.8013821141666995)"><path d="M-0.03 -0.02 C29.97 0.23, 150.03 1.36, 180.09 1.63" stroke="#1e1e1e" stroke-width="4.5" fill="none" stroke-dasharray="1.5 10"></path></g><g transform="translate(1414.8793129038822 1054.9274662450844) rotate(0 90.03327003503364 0.8013821141666995)"><path d="M151.81 11.63 C162.29 7.63, 172.65 4.39, 180.09 1.63" stroke="#1e1e1e" stroke-width="4.5" fill="none" stroke-dasharray="1.5 8"></path></g><g transform="translate(1414.8793129038822 1054.9274662450844) rotate(0 90.03327003503364 0.8013821141666995)"><path d="M152 -8.89 C162.43 -5.25, 172.72 -0.85, 180.09 1.63" stroke="#1e1e1e" stroke-width="4.5" fill="none" stroke-dasharray="1.5 8"></path></g></g><mask></mask><g stroke-linecap="round"><g transform="translate(1532.3611052103515 952.8802360567024) rotate(0 -37.244477185522555 25.786430609961826)"><path d="M0 0 C0.02 -6.14, 0.05 -12.29, 0.07 -16.98 M0 0 C0.02 -4.96, 0.04 -9.93, 0.07 -16.98 M0.07 -16.98 C-16.16 -17.1, -32.38 -17.22, -74.46 -17.53 M0.07 -16.98 C-15.08 -17.09, -30.24 -17.2, -74.46 -17.53 M-74.46 -17.53 C-74.57 3.99, -74.68 25.5, -74.91 68.7 M-74.46 -17.53 C-74.58 5.01, -74.7 27.54, -74.91 68.7 M-74.91 68.7 C-59.35 68.78, -43.78 68.86, 0.36 69.1 M-74.91 68.7 C-45.98 68.85, -17.05 69.01, 0.36 69.1 M0.36 69.1 C0.38 56.15, 0.39 43.19, 0.43 17.19 M0.36 69.1 C0.38 55.38, 0.39 41.66, 0.43 17.19" stroke="#000" stroke-width="4" fill="none"></path></g></g><mask></mask><g stroke-linecap="round"><g transform="translate(1477.4180818027344 961.7965480219791) rotate(0 17.598793255749115 -0.06578807223195327)"><path d="M0 0 C9.29 -0.03, 18.58 -0.07, 35.2 -0.13 M0 0 C8.55 -0.03, 17.09 -0.06, 35.2 -0.13" stroke="#3d71b7" stroke-width="4" fill="none"></path></g></g><mask></mask><g stroke-linecap="round"><g transform="translate(1477.4201385201522 979.1832843019474) rotate(0 17.598793255749115 -0.06578807223195327)"><path d="M0 0 C12.46 -0.05, 24.92 -0.09, 35.2 -0.13 M0 0 C7.57 -0.03, 15.14 -0.06, 35.2 -0.13" stroke="#3d71b7" stroke-width="4" fill="none"></path></g></g><mask></mask><g stroke-linecap="round"><g transform="translate(1477.8948235235584 996.1308845276362) rotate(0 8.665152127803594 0.11381847314987681)"><path d="M0 0 C5.31 0.07, 10.62 0.14, 17.33 0.23 M0 0 C4.79 0.06, 9.57 0.13, 17.33 0.23" stroke="#3d71b7" stroke-width="4" fill="none"></path></g></g><mask></mask><g transform="translate(1383.116628024829 824.6666666666642) rotate(0 136.73333740234375 45)"><text x="0" y="0" font-family="Virgil, Segoe UI Emoji" font-size="36px" fill="#1e1e1e" text-anchor="start" style="white-space: pre;" direction="ltr" dominant-baseline="text-before-edge">data containing</text><text x="0" y="45" font-family="Virgil, Segoe UI Emoji" font-size="36px" fill="#1e1e1e" text-anchor="start" style="white-space: pre;" direction="ltr" dominant-baseline="text-before-edge">files changes</text></g><g stroke-linecap="round"><g transform="translate(10.689262615924235 988.6282027587149) rotate(0 93.9752905285186 87.95441057824792)" fill-rule="evenodd"><path d="M-0.32 -1.6 C0.12 23.11, 1.19 120.18, 2.16 149.97 C3.13 179.77, 1.91 170.75, 5.47 177.16 C9.03 183.57, 14.37 185.12, 23.53 188.45 C32.69 191.77, 48.35 195.41, 60.44 197.1 C72.53 198.79, 85.4 198.82, 96.06 198.61 C106.72 198.39, 114.59 197.49, 124.37 195.81 C134.15 194.13, 145.2 191.52, 154.74 188.52 C164.29 185.52, 176.8 183.91, 181.65 177.81 C186.5 171.71, 182.79 178.1, 183.85 151.93 C184.92 125.76, 188.24 46.4, 188.06 20.81 C187.87 -4.78, 187.3 3.59, 182.77 -1.62 C178.24 -6.83, 168.75 -7.46, 160.89 -10.45 C153.04 -13.44, 145.17 -17.88, 135.62 -19.55 C126.08 -21.22, 112.85 -20.76, 103.64 -20.47 C94.42 -20.19, 91.94 -18.45, 80.36 -17.85 C68.77 -17.26, 47.82 -19.58, 34.12 -16.9 C20.42 -14.23, 3.82 -4.41, -1.84 -1.82" stroke="none" stroke-width="0" fill="#fa5252" fill-rule="evenodd"></path><path d="M0.91 -0.9 C1.04 24.15, 0.29 119.95, 0.52 149.47 C0.74 178.99, -2.09 169.8, 2.24 176.22 C6.57 182.64, 16.84 184.78, 26.5 187.98 C36.16 191.18, 48.78 193.79, 60.18 195.43 C71.58 197.07, 84.02 197.77, 94.9 197.82 C105.78 197.87, 115.41 197.03, 125.46 195.73 C135.51 194.43, 145.37 193.32, 155.22 190.01 C165.07 186.69, 179.64 182.45, 184.57 175.85 C189.49 169.26, 184.28 176.39, 184.77 150.43 C185.25 124.48, 187.29 45.29, 187.49 20.11 C187.7 -5.06, 190.26 4.77, 186 -0.61 C181.74 -5.98, 170.48 -9.24, 161.91 -12.14 C153.33 -15.04, 144.65 -16.58, 134.56 -18.02 C124.46 -19.47, 110.5 -20.67, 101.34 -20.82 C92.18 -20.97, 90.69 -19.7, 79.61 -18.93 C68.53 -18.15, 48.22 -19.17, 34.87 -16.17 C21.52 -13.18, 5.52 -3.68, -0.5 -0.95 M-0.08 1.24 C-0.03 26.52, -0.94 121.45, -0.16 150.76 C0.62 180.07, 0.04 171.23, 4.59 177.09 C9.13 182.95, 18.04 182.76, 27.12 185.93 C36.19 189.09, 47.58 194.21, 59.06 196.09 C70.54 197.98, 84.9 197.45, 96.02 197.24 C107.13 197.02, 116.01 196.06, 125.73 194.81 C135.45 193.56, 144.72 193.13, 154.33 189.72 C163.93 186.32, 178.24 180.98, 183.36 174.4 C188.48 167.82, 184.3 175.81, 185.07 150.23 C185.84 124.66, 187.95 46.14, 187.97 20.94 C187.99 -4.27, 189.47 4.66, 185.2 -1.01 C180.92 -6.68, 170.34 -10.25, 162.31 -13.09 C154.29 -15.94, 147.16 -16.64, 137.04 -18.08 C126.92 -19.52, 111.01 -21.29, 101.58 -21.73 C92.15 -22.17, 91.72 -21.77, 80.46 -20.73 C69.2 -19.69, 47.17 -18.78, 34.03 -15.5 C20.89 -12.22, 7.22 -3.77, 1.62 -1.07" stroke="#c92a2a" stroke-width="1" fill="none"></path></g></g><mask></mask><g stroke-linecap="round" transform="translate(10 965.8814311437964) rotate(0 93.43632411606086 25.40485803504089)"><path d="M118.77 0.59 C131.47 1.08, 145.37 3.19, 155.45 5.71 C165.52 8.24, 174.05 12.32, 179.22 15.75 C184.39 19.18, 187.07 22.67, 186.47 26.28 C185.87 29.89, 182.07 33.97, 175.61 37.39 C169.15 40.81, 158.58 44.54, 147.71 46.83 C136.84 49.11, 123.5 50.48, 110.38 51.1 C97.25 51.71, 82.13 51.69, 68.97 50.5 C55.81 49.31, 41.76 46.43, 31.42 43.97 C21.08 41.52, 12.02 39.11, 6.92 35.78 C1.81 32.44, -0.03 27.81, 0.79 23.96 C1.61 20.11, 5.58 15.93, 11.85 12.68 C18.12 9.44, 27.55 6.51, 38.43 4.48 C49.31 2.45, 61.2 0.83, 77.13 0.51 C93.06 0.19, 122.21 1.9, 134.02 2.55 C145.83 3.2, 148.57 3.98, 148 4.39 M136.37 2.66 C148.21 3.59, 158.68 5.43, 166.59 8.59 C174.5 11.74, 181.05 17.55, 183.83 21.61 C186.61 25.67, 186.3 29.79, 183.26 32.94 C180.22 36.1, 174.13 37.7, 165.6 40.54 C157.06 43.38, 144.55 48.18, 132.06 49.98 C119.58 51.78, 104.36 51.84, 90.71 51.34 C77.05 50.83, 62.09 48.85, 50.11 46.94 C38.14 45.03, 26.88 42.47, 18.85 39.9 C10.82 37.32, 4.47 35.07, 1.91 31.47 C-0.64 27.86, 0.26 21.79, 3.51 18.26 C6.76 14.73, 12.99 13.17, 21.4 10.29 C29.81 7.41, 41.54 2.65, 53.99 0.99 C66.43 -0.68, 82.54 0.15, 96.08 0.29 C109.61 0.44, 128.46 1.3, 135.2 1.86 C141.94 2.41, 137.07 2.91, 136.5 3.6" stroke="none" stroke-width="0" fill="#ffffff"></path><path d="M55.01 2.9 C66.26 0.91, 81.83 -0.34, 95.33 -0.47 C108.83 -0.6, 123.89 0.34, 136.01 2.1 C148.14 3.86, 159.91 6.96, 168.07 10.09 C176.22 13.22, 182.27 17.44, 184.94 20.87 C187.6 24.31, 187.24 27.22, 184.08 30.71 C180.92 34.19, 174.59 38.67, 165.98 41.79 C157.36 44.91, 144.73 47.88, 132.4 49.43 C120.08 50.98, 105.52 51.43, 92.02 51.09 C78.52 50.74, 63.44 49.08, 51.39 47.37 C39.33 45.65, 28.01 43.63, 19.69 40.8 C11.37 37.97, 4.14 33.84, 1.46 30.38 C-1.21 26.92, 0.35 23.62, 3.64 20.03 C6.93 16.44, 11.85 12.08, 21.18 8.85 C30.51 5.61, 51.89 1.9, 59.61 0.65 C67.34 -0.61, 66.71 0.8, 67.51 1.34 M64.79 1.4 C76.05 0.06, 90.14 0.4, 103.43 1.06 C116.71 1.72, 132.83 3.36, 144.49 5.38 C156.15 7.39, 166.6 10.13, 173.4 13.13 C180.2 16.12, 183.99 20.02, 185.28 23.36 C186.58 26.71, 185.8 29.64, 181.19 33.19 C176.57 36.74, 167.41 41.75, 157.6 44.66 C147.79 47.58, 134.83 49.65, 122.33 50.68 C109.82 51.71, 96.02 51.61, 82.58 50.86 C69.14 50.11, 53.2 48.07, 41.68 46.19 C30.15 44.31, 20.27 42.76, 13.42 39.59 C6.57 36.43, 1.68 31.05, 0.59 27.21 C-0.5 23.37, 2.24 19.67, 6.86 16.57 C11.47 13.48, 18.83 11.26, 28.27 8.63 C37.7 6.01, 57.7 2.13, 63.48 0.81 C69.26 -0.51, 62.41 0.36, 62.92 0.71" stroke="#c92a2a" stroke-width="1" fill="none"></path></g><g transform="translate(11.41663742360106 1186.6862174118942) rotate(0 91.35728442813524 23.070021320236265)"><text x="91.35728442813483" y="0" font-family="Virgil, Segoe UI Emoji" font-size="36.91203411237771px" fill="#000000" text-anchor="middle" style="white-space: pre;" direction="ltr" dominant-baseline="text-before-edge">Database</text></g><g stroke-linecap="round"><g transform="translate(464.17922021974664 987.6169143634543) rotate(0 87.55736002885715 82.73913482642092)" fill-rule="evenodd"><path d="M-2.27 1.42 C-2.48 25.32, -0.07 115.65, 0.92 143.5 C1.91 171.35, 0.08 162.91, 3.68 168.52 C7.28 174.13, 13.81 174.85, 22.51 177.14 C31.21 179.43, 44.96 180.58, 55.86 182.29 C66.76 184, 77.72 186.84, 87.93 187.4 C98.14 187.96, 107.27 186.99, 117.1 185.65 C126.92 184.3, 137.89 182.79, 146.88 179.33 C155.86 175.86, 166.46 170.97, 171.02 164.88 C175.58 158.78, 173.34 167.23, 174.26 142.74 C175.19 118.25, 176.23 41.91, 176.57 17.96 C176.91 -5.99, 180.3 3.54, 176.31 -0.95 C172.32 -5.44, 160.75 -6.12, 152.65 -8.98 C144.55 -11.83, 137.5 -16.12, 127.69 -18.09 C117.89 -20.05, 102.51 -20.43, 93.81 -20.8 C85.11 -21.16, 85.46 -21.52, 75.5 -20.29 C65.54 -19.06, 46.41 -17.05, 34.04 -13.42 C21.68 -9.78, 7.04 -0.84, 1.33 1.5" stroke="none" stroke-width="0" fill="#40c057" fill-rule="evenodd"></path><path d="M0.71 0.96 C0.99 24.73, 0.36 114.03, 0.67 141.82 C0.97 169.62, -1.3 161.86, 2.52 167.73 C6.34 173.6, 14.63 174.38, 23.6 177.06 C32.56 179.73, 45.13 182.37, 56.33 183.77 C67.54 185.17, 80.57 185.38, 90.85 185.44 C101.13 185.5, 108.77 185.29, 118.01 184.15 C127.26 183.02, 136.94 181.68, 146.32 178.63 C155.69 175.59, 169.42 172.15, 174.25 165.89 C179.08 159.62, 175.07 165.45, 175.27 141.05 C175.48 116.65, 175.72 43.22, 175.51 19.49 C175.3 -4.23, 177.95 3.63, 174.02 -1.29 C170.08 -6.22, 159.5 -7.38, 151.9 -10.06 C144.31 -12.73, 137.9 -15.71, 128.44 -17.35 C118.98 -19, 104.2 -19.7, 95.16 -19.92 C86.11 -20.14, 84.7 -19.61, 74.15 -18.67 C63.6 -17.73, 44.24 -17.25, 31.86 -14.27 C19.47 -11.29, 4.98 -3.16, -0.16 -0.78 M-0.38 0.41 C-0.11 23.9, -0.24 112.4, 0.07 139.98 C0.38 167.55, -2.44 160.02, 1.46 165.85 C5.36 171.67, 14.55 171.87, 23.47 174.93 C32.39 177.99, 44.06 182.66, 55 184.22 C65.93 185.79, 78.53 184.52, 89.07 184.33 C99.6 184.13, 108.79 184.09, 118.19 183.06 C127.59 182.03, 136.28 181.22, 145.44 178.13 C154.61 175.04, 168.06 170.8, 173.19 164.53 C178.32 158.25, 175.86 164.46, 176.22 140.47 C176.58 116.49, 175.97 44.36, 175.35 20.6 C174.74 -3.15, 176.42 3.07, 172.52 -2.08 C168.62 -7.22, 159.34 -7.68, 151.95 -10.27 C144.55 -12.87, 137.61 -16.45, 128.15 -17.62 C118.7 -18.79, 104.16 -17.37, 95.22 -17.32 C86.29 -17.26, 85.35 -17.38, 74.56 -17.28 C63.77 -17.19, 43.15 -19.48, 30.47 -16.74 C17.79 -14, 3.52 -3.66, -1.52 -0.83" stroke="#2b8a3e" stroke-width="1" fill="none"></path></g></g><mask></mask><g stroke-linecap="round" transform="translate(463.5297136160734 966.1821549048109) rotate(0 88.04700579198652 23.93952998169516)"><path d="M86.49 -0.27 C99.39 -0.64, 115.19 0.97, 127.34 2.65 C139.49 4.33, 151.4 6.83, 159.39 9.81 C167.37 12.79, 173.34 16.78, 175.23 20.54 C177.13 24.3, 175.31 28.81, 170.76 32.37 C166.21 35.92, 157.88 39.36, 147.93 41.86 C137.98 44.35, 124.3 46.48, 111.06 47.35 C97.82 48.22, 81.87 47.89, 68.48 47.06 C55.09 46.23, 41.03 44.75, 30.73 42.37 C20.42 39.98, 11.66 36.28, 6.65 32.75 C1.65 29.23, -0.59 24.93, 0.71 21.23 C2.02 17.54, 7 13.61, 14.5 10.57 C21.99 7.54, 33.2 4.78, 45.68 3.01 C58.17 1.25, 81.55 0.49, 89.4 0 C97.25 -0.49, 92.76 -0.34, 92.79 0.08 M106.9 0.49 C119.73 0.75, 133.65 2.44, 143.99 4.93 C154.33 7.41, 163.7 11.76, 168.93 15.4 C174.16 19.04, 176.51 23.24, 175.37 26.74 C174.23 30.25, 169.47 33.33, 162.11 36.45 C154.74 39.57, 143.14 43.52, 131.17 45.46 C119.2 47.4, 103.98 48.2, 90.28 48.11 C76.58 48.03, 61.19 46.69, 48.97 44.95 C36.75 43.21, 24.93 40.53, 16.94 37.69 C8.94 34.86, 2.95 31.61, 0.99 27.94 C-0.97 24.27, 0.72 19.16, 5.17 15.67 C9.61 12.18, 17.82 9.57, 27.66 7.01 C37.49 4.45, 50.96 1.34, 64.17 0.29 C77.38 -0.77, 99.94 0.62, 106.91 0.67 C113.88 0.72, 106.23 0.2, 105.99 0.6" stroke="none" stroke-width="0" fill="#ffffff"></path><path d="M78.95 0.23 C91.65 -0.39, 107.82 0.72, 120.45 2.01 C133.07 3.3, 145.77 5.21, 154.7 7.98 C163.63 10.75, 170.93 14.9, 174 18.64 C177.07 22.38, 176.59 26.84, 173.12 30.43 C169.64 34.02, 162.33 37.57, 153.15 40.19 C143.97 42.8, 130.84 44.86, 118.04 46.1 C105.23 47.34, 89.86 48.06, 76.32 47.6 C62.78 47.14, 47.84 45.41, 36.78 43.32 C25.72 41.23, 16.1 38.39, 9.96 35.07 C3.82 31.75, -0.1 27.26, -0.05 23.42 C0.01 19.59, 3.77 15.32, 10.3 12.07 C16.83 8.83, 27.2 5.97, 39.13 3.96 C51.07 1.95, 74.39 0.52, 81.93 0 C89.46 -0.51, 84.3 0.42, 84.36 0.9 M89.1 0.61 C102.2 0.3, 117.94 1.61, 129.83 3.31 C141.72 5, 152.85 7.84, 160.46 10.77 C168.07 13.7, 173.97 17.16, 175.48 20.89 C176.99 24.62, 174.55 29.52, 169.52 33.13 C164.5 36.74, 155.5 40.18, 145.34 42.55 C135.18 44.92, 121.87 46.62, 108.58 47.34 C95.3 48.06, 78.92 47.73, 65.63 46.86 C52.35 45.99, 38.9 44.61, 28.88 42.11 C18.86 39.62, 10.08 35.43, 5.49 31.87 C0.9 28.31, -0.45 24.26, 1.33 20.75 C3.11 17.23, 8.4 13.84, 16.15 10.78 C23.9 7.72, 35.82 4.28, 47.85 2.4 C59.88 0.52, 81.5 -0.12, 88.33 -0.5 C95.17 -0.89, 88.71 -0.46, 88.87 0.1" stroke="#2b8a3e" stroke-width="1" fill="none"></path></g><g transform="translate(464.8646407401902 1174.2511310697664) rotate(0 86.08788313624973 21.739364428345652)"><text x="86.08788313624909" y="0" font-family="Virgil, Segoe UI Emoji" font-size="34.78298308535317px" fill="#000000" text-anchor="middle" style="white-space: pre;" direction="ltr" dominant-baseline="text-before-edge">Database</text></g><g transform="translate(210.17551427920262 868.5070732809618) rotate(0 136.73333740234375 45)"><text x="0" y="0" font-family="Virgil, Segoe UI Emoji" font-size="36px" fill="#1e1e1e" text-anchor="start" style="white-space: pre;" direction="ltr" dominant-baseline="text-before-edge">data containing</text><text x="0" y="45" font-family="Virgil, Segoe UI Emoji" font-size="36px" fill="#1e1e1e" text-anchor="start" style="white-space: pre;" direction="ltr" dominant-baseline="text-before-edge">data changes</text></g><g transform="translate(277.1374583236029 992.5666666666657) rotate(0 49.52077041847042 44.100000000000364)"><text x="0" y="0" font-family="Helvetica, Segoe UI Emoji" font-size="25.565217391304333px" fill="#f08c00" text-anchor="start" style="white-space: pre;" direction="ltr" dominant-baseline="text-before-edge">INSERT</text><text x="0" y="29.39999999999998" font-family="Helvetica, Segoe UI Emoji" font-size="25.565217391304333px" fill="#f08c00" text-anchor="start" style="white-space: pre;" direction="ltr" dominant-baseline="text-before-edge">UPDATE</text><text x="0" y="58.79999999999996" font-family="Helvetica, Segoe UI Emoji" font-size="25.565217391304333px" fill="#f08c00" text-anchor="start" style="white-space: pre;" direction="ltr" dominant-baseline="text-before-edge">...</text></g><g stroke-linecap="round"><g transform="translate(227.11662802482897 1102.6666666666642) rotate(0 100.02082326372692 -0.048399915105619584)"><path d="M-0.09 -0.06 C33.24 -0.04, 166.8 -0.06, 200.13 -0.04" stroke="#1e1e1e" stroke-width="4.5" fill="none" stroke-dasharray="1.5 10"></path></g><g transform="translate(227.11662802482897 1102.6666666666642) rotate(0 100.02082326372692 -0.048399915105619584)"><path d="M171.94 10.22 C182.44 6.65, 193.08 2.33, 200.13 -0.04" stroke="#1e1e1e" stroke-width="4.5" fill="none" stroke-dasharray="1.5 8"></path></g><g transform="translate(227.11662802482897 1102.6666666666642) rotate(0 100.02082326372692 -0.048399915105619584)"><path d="M171.95 -10.31 C182.41 -6.16, 193.06 -2.77, 200.13 -0.04" stroke="#1e1e1e" stroke-width="4.5" fill="none" stroke-dasharray="1.5 8"></path></g></g><mask></mask><g transform="translate(1319.116628024829 1212.6666666666642) rotate(0 208.1999969482422 45)"><text x="0" y="0" font-family="Virgil, Segoe UI Emoji" font-size="36px" fill="#1e1e1e" text-anchor="start" style="white-space: pre;" direction="ltr" dominant-baseline="text-before-edge">Log-shipping / streaming</text><text x="0" y="45" font-family="Virgil, Segoe UI Emoji" font-size="36px" fill="#1e1e1e" text-anchor="start" style="white-space: pre;" direction="ltr" dominant-baseline="text-before-edge">replication</text></g><g transform="translate(165.11662802482897 1270.6666666666642) rotate(0 157.1666717529297 22.5)"><text x="0" y="0" font-family="Virgil, Segoe UI Emoji" font-size="36px" fill="#1e1e1e" text-anchor="start" style="white-space: pre;" direction="ltr" dominant-baseline="text-before-edge">Logical replication</text></g></svg>