<svg version="1.1" xmlns="http://www.w3.org/2000/svg" viewBox="0 0 3228.833251953125 2224.2732543609563" width="3228.833251953125" height="2224.2732543609563">
  <!-- svg-source:excalidraw -->
  
  <defs>
    <style class="style-fonts">
      @font-face {
        font-family: "Virgil";
        src: url("https://excalidraw.com/Virgil.woff2");
      }
      @font-face {
        font-family: "Cascadia";
        src: url("https://excalidraw.com/Cascadia.woff2");
      }
    </style>
    
  </defs>
  <g transform="translate(885.2177577700168 10) rotate(0 638.308349609375 69.34409209032765)"><text x="0" y="0" font-family="Virgil, Segoe UI Emoji" font-size="110.9505473445239px" fill="#1e1e1e" text-anchor="start" style="white-space: pre;" direction="ltr" dominant-baseline="text-before-edge">WAL File Naming scheme</text></g><g stroke-linecap="round" transform="translate(77.74249989054078 318.91789177991996) rotate(0 437.8685025 113.33333333333303)"><path d="M7.86 8.16 C7.86 8.16, 7.86 8.16, 7.86 8.16 M7.86 8.16 C7.86 8.16, 7.86 8.16, 7.86 8.16 M2.35 20.59 C4.67 16.08, 7.74 13.18, 18.1 2.48 M2.35 20.59 C6.99 15.38, 9.68 11.19, 18.1 2.48 M1.43 27.75 C8.03 20.87, 16.34 11.45, 24.4 1.33 M1.43 27.75 C7.55 20.83, 11.73 14.48, 24.4 1.33 M0.52 34.9 C6.79 28.62, 14.68 18.86, 30.7 0.18 M0.52 34.9 C11.64 22.89, 22.6 9.85, 30.7 0.18 M0.26 41.3 C12.75 28.37, 25.03 13.6, 36.34 -0.21 M0.26 41.3 C11.42 27.95, 22.21 14.38, 36.34 -0.21 M-0.01 47.7 C7.96 38.73, 18.09 30, 41.33 0.15 M-0.01 47.7 C11.72 34.8, 23.12 21.28, 41.33 0.15 M0.39 53.34 C15.79 35.5, 30.16 18.98, 46.97 -0.25 M0.39 53.34 C19.48 32.63, 36.69 10.41, 46.97 -0.25 M0.13 59.74 C11.15 45.11, 25.31 28.69, 51.96 0.11 M0.13 59.74 C16.67 40.2, 33.27 22.33, 51.96 0.11 M0.52 65.38 C19.99 42.91, 41.5 20.72, 57.6 -0.28 M0.52 65.38 C18.43 45.9, 34.68 24.04, 57.6 -0.28 M0.26 71.78 C20.28 45.87, 40.31 24.96, 62.59 0.08 M0.26 71.78 C25.31 44.13, 48.63 15.28, 62.59 0.08 M0.65 77.42 C25.63 51.66, 49.69 22.43, 67.57 0.44 M0.65 77.42 C16.26 58.01, 33.33 39.09, 67.57 0.44 M0.39 83.82 C25.84 55.48, 51.78 24.67, 73.22 0.04 M0.39 83.82 C25.17 55.38, 49.77 25.34, 73.22 0.04 M0.13 90.22 C27.06 57.29, 53.83 27, 78.2 0.41 M0.13 90.22 C21.98 64.72, 43.18 40.71, 78.2 0.41 M0.53 95.86 C22.71 70.71, 44.35 47.44, 83.85 0.01 M0.53 95.86 C20.03 72.14, 40.95 47.8, 83.85 0.01 M0.26 102.26 C31.54 68.14, 62.34 33.76, 88.83 0.37 M0.26 102.26 C21.45 76.45, 42.83 52.2, 88.83 0.37 M0.66 107.9 C32.03 72.34, 61.75 32.48, 94.48 -0.02 M0.66 107.9 C28.34 77.52, 54.95 46.92, 94.48 -0.02 M0.4 114.3 C27.55 83.72, 49.91 57.4, 99.46 0.34 M0.4 114.3 C25.14 85.89, 50.01 57.5, 99.46 0.34 M0.79 119.94 C24.25 96.63, 45.21 70.89, 105.11 -0.06 M0.79 119.94 C30.25 87.29, 58.41 54.17, 105.11 -0.06 M0.53 126.34 C26.08 97.88, 49.24 68.62, 110.09 0.3 M0.53 126.34 C40.94 77.09, 83.06 28.44, 110.09 0.3 M0.27 132.74 C36.8 92.58, 73.48 47.6, 115.74 -0.09 M0.27 132.74 C39.83 86.87, 78.86 41.25, 115.74 -0.09 M0.66 138.38 C34.28 102.1, 63.53 66.44, 120.72 0.27 M0.66 138.38 C27.82 109.44, 53.3 81.26, 120.72 0.27 M0.4 144.78 C33.27 103.51, 68.87 65.69, 126.37 -0.13 M0.4 144.78 C31.36 108.59, 63.3 71.86, 126.37 -0.13 M0.8 150.42 C52.54 89.71, 103.42 29.37, 131.35 0.23 M0.8 150.42 C34.31 111.04, 69.71 70.49, 131.35 0.23 M0.54 156.82 C48.6 100.45, 98.78 43.24, 137 -0.16 M0.54 156.82 C38.32 111.44, 77.34 65.76, 137 -0.16 M0.93 162.46 C53.9 104.36, 104.22 44.6, 141.98 0.2 M0.93 162.46 C49.64 105.3, 99.36 48.54, 141.98 0.2 M0.67 168.86 C52.15 107.12, 107.69 44.51, 147.63 -0.2 M0.67 168.86 C52.16 107.73, 104.25 48.4, 147.63 -0.2 M0.41 175.26 C41.58 127.67, 82.09 81.96, 152.61 0.16 M0.41 175.26 C38.37 131.21, 76.27 89.5, 152.61 0.16 M0.8 180.9 C61.25 113.18, 120.67 43.16, 158.26 -0.23 M0.8 180.9 C46.05 130, 90.69 79.12, 158.26 -0.23 M0.54 187.3 C61.63 115.85, 121.85 47.03, 163.24 0.13 M0.54 187.3 C35.58 147.36, 69.44 109.3, 163.24 0.13 M0.94 192.94 C36.7 151.55, 71.58 110.62, 168.89 -0.27 M0.94 192.94 C55.47 129.57, 109.22 66.45, 168.89 -0.27 M0.67 199.34 C50.54 140.32, 102.63 84.16, 173.87 0.09 M0.67 199.34 C44.92 148.61, 90 95.98, 173.87 0.09 M1.72 204.23 C58.07 137.69, 115.31 72.06, 178.86 0.45 M1.72 204.23 C48.65 152.18, 93.3 101.14, 178.86 0.45 M2.78 209.11 C66.84 134.88, 132.65 62.93, 184.5 0.06 M2.78 209.11 C57.08 144.42, 112.69 78.85, 184.5 0.06 M4.48 213.25 C69.55 137.45, 135.26 63.72, 189.49 0.42 M4.48 213.25 C54.55 154.11, 105.85 95.46, 189.49 0.42 M6.84 216.63 C63.21 150.61, 120.38 86.07, 195.13 0.03 M6.84 216.63 C48.91 168.96, 89.85 121.59, 195.13 0.03 M9.86 219.25 C79.51 140.3, 150.37 59.96, 200.12 0.39 M9.86 219.25 C69.12 152.62, 127.68 86.77, 200.12 0.39 M12.88 221.88 C83.4 140.32, 152.98 59.67, 205.76 -0.01 M12.88 221.88 C78.66 143.73, 145.41 65.55, 205.76 -0.01 M16.56 223.75 C92.38 135.85, 170.14 47.86, 210.75 0.35 M16.56 223.75 C75.26 156.81, 132.41 90.4, 210.75 0.35 M20.89 224.86 C98.17 135.56, 177.19 46.93, 216.39 -0.04 M20.89 224.86 C60.66 176.97, 102.63 129.73, 216.39 -0.04 M25.22 225.97 C85.07 159.25, 141.92 93, 221.38 0.32 M25.22 225.97 C86.38 154.26, 149.75 82.96, 221.38 0.32 M30.21 226.33 C96.09 152.45, 158.83 79.86, 227.02 -0.08 M30.21 226.33 C70.23 180.37, 110.12 133.56, 227.02 -0.08 M35.19 226.7 C98.16 155.14, 161.51 84.15, 232.01 0.28 M35.19 226.7 C85.62 167.3, 137.6 107.66, 232.01 0.28 M40.18 227.06 C97.54 160.5, 153.99 94.13, 237.65 -0.11 M40.18 227.06 C97.14 161.07, 154.67 95.28, 237.65 -0.11 M45.82 226.66 C110.13 154.38, 174.66 79.76, 242.64 0.25 M45.82 226.66 C114 148.5, 182.28 69.67, 242.64 0.25 M50.81 227.02 C117.67 149.91, 186.17 70.5, 248.28 -0.15 M50.81 227.02 C114.75 153.28, 177.58 81.37, 248.28 -0.15 M56.45 226.63 C127.07 144.37, 196.81 62.97, 253.27 0.21 M56.45 226.63 C95.91 177.85, 138.19 130.92, 253.27 0.21 M61.44 226.99 C122.98 155.85, 185.94 84.83, 258.91 -0.18 M61.44 226.99 C119.78 159.75, 179.02 90.6, 258.91 -0.18 M67.08 226.59 C127.88 159.4, 187.53 91.07, 263.9 0.18 M67.08 226.59 C110.59 175.99, 153.48 126.43, 263.9 0.18 M72.07 226.95 C143.77 143.86, 216.54 62.64, 269.54 -0.22 M72.07 226.95 C137.41 153.86, 201.59 80.63, 269.54 -0.22 M77.06 227.31 C153.02 139.35, 229.34 52.17, 274.53 0.14 M77.06 227.31 C146.62 146.15, 217.27 63.55, 274.53 0.14 M82.7 226.92 C129.81 175.01, 176.9 120.6, 280.17 -0.25 M82.7 226.92 C131.51 170.82, 181.48 113.94, 280.17 -0.25 M87.69 227.28 C145.15 160.76, 201.85 92.48, 285.16 0.11 M87.69 227.28 C154.79 150.46, 220.92 72.36, 285.16 0.11 M93.33 226.88 C169.51 141.52, 243.83 55.22, 290.8 -0.28 M93.33 226.88 C136.28 178.78, 177.39 131.59, 290.8 -0.28 M98.32 227.24 C150.54 167.03, 201.43 107.2, 295.79 0.08 M98.32 227.24 C158.47 159.35, 217.97 90.49, 295.79 0.08 M103.96 226.85 C149.17 173.57, 195.45 118.46, 300.78 0.44 M103.96 226.85 C166.16 153.87, 229.75 83.34, 300.78 0.44 M108.95 227.21 C185.24 139.91, 259.6 51.37, 306.42 0.04 M108.95 227.21 C168.1 162, 226.08 95.19, 306.42 0.04 M114.59 226.81 C186.01 141.16, 259.46 59.48, 311.41 0.4 M114.59 226.81 C182.48 145.16, 252.82 65.79, 311.41 0.4 M119.58 227.17 C180.26 159.3, 237.91 91.06, 317.05 0.01 M119.58 227.17 C197.79 136.36, 276.65 46.05, 317.05 0.01 M125.22 226.78 C191.01 152.24, 254.8 79.91, 322.04 0.37 M125.22 226.78 C177.39 165.97, 230.98 104.24, 322.04 0.37 M130.21 227.14 C189.81 159.33, 247.64 91.93, 327.68 -0.03 M130.21 227.14 C174.79 176.4, 219.8 124.4, 327.68 -0.03 M135.85 226.74 C208.48 143.33, 278.74 58.94, 332.67 0.33 M135.85 226.74 C193.86 159.77, 252.96 91.01, 332.67 0.33 M140.84 227.1 C186.78 175.22, 233.79 124.82, 338.31 -0.06 M140.84 227.1 C220.02 137.67, 298.11 46.84, 338.31 -0.06 M146.48 226.71 C214.22 149.01, 282.27 69.12, 343.3 0.3 M146.48 226.71 C193.83 172.62, 242.15 116.44, 343.3 0.3 M151.47 227.07 C227.37 138.97, 302.92 54.03, 348.94 -0.1 M151.47 227.07 C203.37 166.23, 257.97 103.55, 348.94 -0.1 M157.11 226.68 C198.6 177.38, 242.95 126.95, 353.93 0.26 M157.11 226.68 C232.56 141.43, 306.66 54.92, 353.93 0.26 M162.1 227.04 C201.22 180.29, 242.81 133.58, 359.57 -0.13 M162.1 227.04 C204.57 176.94, 247.15 128.7, 359.57 -0.13 M167.74 226.64 C234.7 147.68, 303.69 68.42, 364.56 0.23 M167.74 226.64 C238.71 148, 307.16 67.95, 364.56 0.23 M172.73 227 C249.21 138.13, 328.7 47.53, 370.2 -0.17 M172.73 227 C238.76 149.51, 304.04 74.24, 370.2 -0.17 M178.37 226.61 C256.42 136.7, 334.45 47.37, 375.19 0.19 M178.37 226.61 C234.26 162.1, 289.07 98.2, 375.19 0.19 M183.36 226.97 C223.89 182.58, 265.08 136.47, 380.83 -0.2 M183.36 226.97 C251.18 150.45, 319.52 72.16, 380.83 -0.2 M189 226.57 C234.35 174.71, 279.35 124.82, 385.82 0.16 M189 226.57 C242.23 164.06, 296.13 102.32, 385.82 0.16 M193.99 226.93 C261.48 153.33, 324.59 77.17, 391.46 -0.24 M193.99 226.93 C253.42 161.74, 311.37 95.36, 391.46 -0.24 M198.98 227.29 C238.13 181.36, 278.21 133.71, 396.45 0.12 M198.98 227.29 C257.09 161.4, 314.08 95.89, 396.45 0.12 M204.62 226.9 C250.15 175.81, 294.79 123.81, 402.09 -0.27 M204.62 226.9 C253.25 170.07, 302.23 113.53, 402.09 -0.27 M209.61 227.26 C268.34 160.86, 326.69 96.12, 407.08 0.09 M209.61 227.26 C264.32 164.8, 317.87 103.23, 407.08 0.09 M215.25 226.86 C258.95 178.54, 298.25 130.85, 412.07 0.45 M215.25 226.86 C254.62 178.72, 295.26 132.36, 412.07 0.45 M220.24 227.22 C291.69 143.91, 362.34 64.28, 417.71 0.06 M220.24 227.22 C269.63 172.28, 315.91 117.63, 417.71 0.06 M225.88 226.83 C290.08 154.09, 354.41 80.89, 422.7 0.42 M225.88 226.83 C299.96 142.64, 373.27 58.46, 422.7 0.42 M230.87 227.19 C283.41 165.4, 338.02 102.45, 428.34 0.02 M230.87 227.19 C304.61 140.66, 380.56 53.78, 428.34 0.02 M236.51 226.79 C290.42 164.88, 344.49 104.99, 433.33 0.38 M236.51 226.79 C293.25 160.89, 352.44 93.72, 433.33 0.38 M241.5 227.15 C282.14 176.34, 324.35 127.66, 438.97 -0.01 M241.5 227.15 C313.6 145.84, 385.27 62.54, 438.97 -0.01 M247.14 226.76 C312.85 153.41, 376.9 79.74, 443.96 0.35 M247.14 226.76 C311.43 150.1, 377.97 74.26, 443.96 0.35 M252.13 227.12 C321.2 150.03, 387.76 72.29, 449.6 -0.05 M252.13 227.12 C296.25 177.65, 339.51 127.15, 449.6 -0.05 M257.77 226.73 C336.58 137.45, 412.64 49.76, 454.59 0.31 M257.77 226.73 C330.55 144.02, 404.34 58.65, 454.59 0.31 M262.76 227.09 C330.17 148.94, 396.09 73.28, 460.23 -0.08 M262.76 227.09 C313.39 170.47, 364.61 112.17, 460.23 -0.08 M268.4 226.69 C331.88 153.65, 395 80.03, 465.22 0.28 M268.4 226.69 C331.35 153.56, 393.57 82.08, 465.22 0.28 M273.39 227.05 C331.08 164.02, 383.87 98.27, 470.86 -0.12 M273.39 227.05 C344.15 144.25, 415.62 60.63, 470.86 -0.12 M279.03 226.66 C325.56 172.31, 374.05 114.43, 475.85 0.24 M279.03 226.66 C321.35 179.61, 362.72 131.91, 475.85 0.24 M284.02 227.02 C351.08 150.65, 417.36 73.09, 481.49 -0.15 M284.02 227.02 C341.79 160.13, 399.28 93.16, 481.49 -0.15 M289.66 226.62 C332.59 176.91, 376.26 126.07, 486.48 0.21 M289.66 226.62 C348.42 159.31, 408.44 90.26, 486.48 0.21 M294.65 226.98 C352.25 159.98, 411.01 91.55, 492.12 -0.19 M294.65 226.98 C370.54 140.54, 446.16 54.49, 492.12 -0.19 M300.29 226.59 C372.57 141.37, 446.57 60.28, 497.11 0.17 M300.29 226.59 C372.8 142.5, 447.08 57.35, 497.11 0.17 M305.28 226.95 C353.74 173.82, 399.58 120.59, 502.75 -0.22 M305.28 226.95 C347.97 175.28, 391.97 125.04, 502.75 -0.22 M310.26 227.31 C377.04 146.75, 448.69 67.09, 507.74 0.14 M310.26 227.31 C353.36 178.56, 396.52 127.78, 507.74 0.14 M315.91 226.91 C359.9 175.83, 406.97 124.97, 513.38 -0.25 M315.91 226.91 C395.38 136.15, 473.83 45.01, 513.38 -0.25 M320.89 227.27 C378.4 161.03, 439 93.07, 518.37 0.11 M320.89 227.27 C394.42 141.58, 469.08 56.37, 518.37 0.11 M326.54 226.88 C381.33 165.7, 432.75 104.44, 523.35 0.47 M326.54 226.88 C397.09 143.32, 468.84 60.99, 523.35 0.47 M331.52 227.24 C385.6 166.61, 436.59 105.61, 529 0.07 M331.52 227.24 C410.69 135.96, 489.23 46.65, 529 0.07 M337.17 226.84 C402.58 150.19, 469.55 75.83, 533.98 0.43 M337.17 226.84 C403.06 150.8, 469.89 74.32, 533.98 0.43 M342.15 227.2 C420.21 138.87, 495.49 49.96, 539.63 0.04 M342.15 227.2 C408.42 150.12, 475.68 73.75, 539.63 0.04 M347.8 226.81 C413.5 152.38, 475.65 79.73, 544.61 0.4 M347.8 226.81 C390.5 175.41, 433.04 127.41, 544.61 0.4 M352.78 227.17 C421.25 148.46, 487.69 70.71, 550.26 0 M352.78 227.17 C415.18 155.46, 477.15 84.96, 550.26 0 M358.43 226.78 C416.85 154.51, 480.45 86.95, 555.24 0.36 M358.43 226.78 C413.7 163.85, 467.77 100.7, 555.24 0.36 M363.41 227.14 C411.86 168.58, 459.21 114.64, 560.89 -0.03 M363.41 227.14 C429.26 151.42, 494.67 74.85, 560.89 -0.03 M369.06 226.74 C427.83 160.52, 483.64 93.95, 565.87 0.33 M369.06 226.74 C419.76 168.39, 470.92 110.13, 565.87 0.33 M374.04 227.1 C449.41 140.19, 526.8 52.31, 571.52 -0.07 M374.04 227.1 C423.78 171.58, 471.75 115.52, 571.52 -0.07 M379.69 226.71 C428.39 167.31, 479.12 109.59, 576.5 0.29 M379.69 226.71 C435.56 162.85, 490.71 98.66, 576.5 0.29 M384.67 227.07 C440.13 161.85, 497.3 95.85, 582.15 -0.1 M384.67 227.07 C426.73 176.64, 468.88 128.7, 582.15 -0.1 M390.32 226.67 C449.32 159.83, 506.88 92.39, 587.14 0.26 M390.32 226.67 C457.34 150.5, 522.46 75.12, 587.14 0.26 M395.3 227.03 C440.48 175.25, 488.61 123.16, 592.78 -0.14 M395.3 227.03 C439.87 175.92, 486.48 122.27, 592.78 -0.14 M400.95 226.64 C461.75 155.53, 523.59 83.44, 597.77 0.22 M400.95 226.64 C476.83 140.89, 551.31 53.61, 597.77 0.22 M405.93 227 C477.54 146.36, 546.09 66.5, 603.41 -0.17 M405.93 227 C446.71 179.28, 488.36 131.21, 603.41 -0.17 M411.58 226.6 C469.37 156.8, 530.42 90.89, 608.4 0.19 M411.58 226.6 C463.23 165.89, 516.12 105.47, 608.4 0.19 M416.56 226.96 C482.09 150.96, 548.48 74.95, 614.04 -0.2 M416.56 226.96 C473.5 160.16, 530.68 93.44, 614.04 -0.2 M421.55 227.32 C470.16 171.47, 518.13 115.34, 619.03 0.16 M421.55 227.32 C500.77 136.87, 579.1 47.4, 619.03 0.16 M427.19 226.93 C489.47 155.78, 548.53 88.11, 624.67 -0.24 M427.19 226.93 C492.92 152.47, 558.07 77.84, 624.67 -0.24 M432.18 227.29 C482.29 167.32, 532.63 108.81, 629.66 0.12 M432.18 227.29 C481.53 170.28, 532.58 112.28, 629.66 0.12 M437.82 226.89 C508.49 143.61, 581.18 60.25, 635.3 -0.27 M437.82 226.89 C478.62 178.83, 520.46 131.21, 635.3 -0.27 M442.81 227.25 C486.18 175.5, 532.43 121.59, 640.29 0.09 M442.81 227.25 C504.14 159.05, 563.36 89.69, 640.29 0.09 M448.45 226.86 C494.8 172.87, 542.42 117.41, 645.27 0.45 M448.45 226.86 C518.38 148.14, 586.09 69.82, 645.27 0.45 M453.44 227.22 C529.81 142.91, 600.79 56.58, 650.92 0.05 M453.44 227.22 C505.23 165.88, 559.54 103.1, 650.92 0.05 M459.08 226.82 C505.27 172.63, 554.22 120.93, 655.9 0.41 M459.08 226.82 C532.22 144.75, 603.9 62.83, 655.9 0.41 M464.07 227.18 C521.58 163.27, 575.63 98.67, 661.55 0.02 M464.07 227.18 C517.26 167.33, 569.67 108.35, 661.55 0.02 M469.71 226.79 C527.43 162.55, 583.03 98.82, 666.53 0.38 M469.71 226.79 C512.62 177.83, 555.29 128.81, 666.53 0.38 M474.7 227.15 C528.46 164.41, 583.95 103.86, 672.18 -0.02 M474.7 227.15 C527.26 168.27, 580.24 106.96, 672.18 -0.02 M480.35 226.76 C535.03 163.47, 590.56 101.96, 677.16 0.34 M480.35 226.76 C538.93 160.34, 596.05 94.52, 677.16 0.34 M485.33 227.12 C532.38 172.68, 580.99 116.47, 682.81 -0.05 M485.33 227.12 C527.65 175.35, 571.71 126.19, 682.81 -0.05 M490.98 226.72 C560.91 144.51, 633.17 60.09, 687.79 0.31 M490.98 226.72 C544.69 163.32, 599.68 101.21, 687.79 0.31 M495.96 227.08 C537.41 181.84, 579.52 133.15, 693.44 -0.09 M495.96 227.08 C567.28 147.12, 638.97 64.47, 693.44 -0.09 M501.61 226.69 C550.61 172.52, 598.31 119.06, 698.42 0.27 M501.61 226.69 C560.13 157.47, 620.84 88.44, 698.42 0.27 M506.59 227.05 C580.66 145.01, 654.21 60.52, 704.07 -0.12 M506.59 227.05 C560.5 164.36, 615.39 99.73, 704.07 -0.12 M512.24 226.65 C562.89 169.14, 612.63 110.76, 709.05 0.24 M512.24 226.65 C556.9 175.12, 600.79 124.82, 709.05 0.24 M517.22 227.01 C565.92 170.33, 615.04 115.18, 714.7 -0.16 M517.22 227.01 C565.57 171.71, 616.75 113.88, 714.7 -0.16 M522.87 226.62 C585.05 156.76, 643.83 89.13, 719.68 0.2 M522.87 226.62 C581.94 157.01, 642 88.87, 719.68 0.2 M527.85 226.98 C595.45 149.32, 666.09 68.9, 725.33 -0.19 M527.85 226.98 C591.52 152.46, 655.66 77.81, 725.33 -0.19 M533.5 226.58 C602.04 148.28, 668.11 68.62, 730.31 0.17 M533.5 226.58 C598.62 149.39, 666.25 72.94, 730.31 0.17 M538.48 226.94 C594.98 159.42, 655.25 91.46, 735.96 -0.22 M538.48 226.94 C582.37 178, 625.16 128.02, 735.96 -0.22 M543.47 227.3 C600.12 164.48, 654.41 99.21, 740.94 0.14 M543.47 227.3 C610.99 148.2, 679.88 68.54, 740.94 0.14 M549.11 226.91 C609.32 160.98, 666.1 95.29, 746.59 -0.26 M549.11 226.91 C591.28 176.63, 634.43 126.52, 746.59 -0.26 M554.1 227.27 C606.93 166.84, 656.82 105.67, 751.57 0.1 M554.1 227.27 C609.88 164.47, 664.21 100.88, 751.57 0.1 M559.74 226.87 C610.01 167.21, 662.32 107.06, 756.56 0.46 M559.74 226.87 C620.17 159.24, 679.27 89.82, 756.56 0.46 M564.73 227.23 C643.55 137.28, 720.63 45.67, 762.2 0.07 M564.73 227.23 C622.43 162.63, 679.84 97.3, 762.2 0.07 M570.37 226.84 C637.12 152.89, 702.45 76.71, 767.19 0.43 M570.37 226.84 C608.8 181.79, 648.93 136.36, 767.19 0.43 M575.36 227.2 C623.6 172.35, 670.02 118.53, 772.83 0.03 M575.36 227.2 C628.84 165.68, 680.86 104.29, 772.83 0.03 M581 226.81 C641.79 154.49, 706.33 83.41, 777.82 0.39 M581 226.81 C645.45 150.64, 711.38 76.09, 777.82 0.39 M585.99 227.17 C643.74 157.57, 703.76 89.76, 783.46 0 M585.99 227.17 C652.06 149.98, 718.11 75.7, 783.46 0 M591.63 226.77 C639.57 173.51, 684.14 121.82, 788.45 0.36 M591.63 226.77 C647.34 163.7, 702.14 100.78, 788.45 0.36 M596.62 227.13 C662.77 147.75, 732.79 69.34, 794.09 -0.04 M596.62 227.13 C657.73 155.34, 719.87 84.65, 794.09 -0.04 M602.26 226.74 C643.01 179.1, 687.26 130.49, 799.08 0.32 M602.26 226.74 C660 160.03, 720.15 91.24, 799.08 0.32 M607.25 227.1 C660.45 162.49, 716.73 99.8, 804.72 -0.07 M607.25 227.1 C660.48 164.81, 715.99 101.56, 804.72 -0.07 M612.89 226.7 C687 139.23, 764.01 51.62, 809.71 0.29 M612.89 226.7 C660.46 175.5, 707.11 122.03, 809.71 0.29 M617.88 227.06 C670.72 163.56, 725.65 102.09, 815.35 -0.11 M617.88 227.06 C696.99 135.39, 776.49 44.56, 815.35 -0.11 M623.52 226.67 C696.66 145.66, 770.3 60.36, 820.34 0.25 M623.52 226.67 C698.48 139.67, 774.66 51.65, 820.34 0.25 M628.51 227.03 C675.73 174.22, 723.62 120.24, 825.98 -0.14 M628.51 227.03 C685.02 160.71, 741.19 95.37, 825.98 -0.14 M634.15 226.63 C712.91 138.68, 788.12 49.32, 830.97 0.22 M634.15 226.63 C681.74 172.37, 727.88 119.3, 830.97 0.22 M639.14 226.99 C708.07 151.21, 775.62 73.82, 836.61 -0.17 M639.14 226.99 C692.81 166.25, 745.81 105.02, 836.61 -0.17 M644.78 226.6 C719.57 137.07, 796.1 50.57, 841.6 0.19 M644.78 226.6 C711.67 149.84, 776.48 75, 841.6 0.19 M649.77 226.96 C709.65 158.37, 770.8 88.01, 846.59 0.55 M649.77 226.96 C708.98 157.32, 770.06 87.63, 846.59 0.55 M654.76 227.32 C712.34 159.51, 770.97 95.23, 850.92 1.66 M654.76 227.32 C696.46 178.97, 738.77 130.9, 850.92 1.66 M660.4 226.92 C718.01 161.78, 775.29 98.37, 855.91 2.02 M660.4 226.92 C712.68 165.51, 764.58 105.4, 855.91 2.02 M665.39 227.28 C730.48 153.23, 796.1 79.69, 860.24 3.14 M665.39 227.28 C716.49 168.91, 769.5 108.39, 860.24 3.14 M671.03 226.89 C713.73 174.79, 758.65 122.95, 863.26 5.76 M671.03 226.89 C719.15 170.6, 768.22 114.42, 863.26 5.76 M676.02 227.25 C739.99 149.23, 806.27 74.25, 866.93 7.63 M676.02 227.25 C728.01 164.92, 779.61 104.7, 866.93 7.63 M681.66 226.86 C736.5 164.82, 790.59 103.13, 869.95 10.25 M681.66 226.86 C735.7 165.43, 789.36 104.22, 869.95 10.25 M686.65 227.22 C735.87 169.06, 788.12 110.72, 872.31 13.63 M686.65 227.22 C741.43 166.98, 794.36 106.38, 872.31 13.63 M692.29 226.82 C763.83 144.81, 835.29 61.88, 873.36 18.52 M692.29 226.82 C732.75 180.54, 772.67 136.98, 873.36 18.52 M697.28 227.18 C741.98 176.39, 786.05 125.42, 875.07 22.65 M697.28 227.18 C753.58 160.92, 809.82 96.48, 875.07 22.65 M702.92 226.79 C760.91 159.07, 816.15 94.45, 875.46 28.3 M702.92 226.79 C738.22 184.39, 775.68 143.5, 875.46 28.3 M707.91 227.15 C759.64 168.42, 811.59 110.89, 875.86 33.94 M707.91 227.15 C753.16 177.03, 796.41 126.1, 875.86 33.94 M713.55 226.75 C748.67 188.68, 784.49 147.98, 875.6 40.34 M713.55 226.75 C754.58 177.52, 797.75 127.59, 875.6 40.34 M718.54 227.11 C764.03 172.07, 811.59 120.47, 875.99 45.98 M718.54 227.11 C780.63 155.5, 842.6 83.75, 875.99 45.98 M724.18 226.72 C759.72 185.09, 795.32 144.07, 875.73 52.38 M724.18 226.72 C769 176.04, 813.04 123.55, 875.73 52.38 M729.17 227.08 C781.85 166.47, 832.38 106.73, 876.13 58.02 M729.17 227.08 C766.95 184.36, 802.31 143.83, 876.13 58.02 M734.81 226.68 C777.57 178.65, 821.59 125.74, 875.86 64.42 M734.81 226.68 C768.42 187.57, 803.29 148.82, 875.86 64.42 M739.8 227.04 C773.3 193.18, 804.23 153.62, 875.6 70.82 M739.8 227.04 C785.98 175.55, 831.93 122.06, 875.6 70.82 M745.44 226.65 C775.64 191.43, 807.58 156.19, 876 76.46 M745.44 226.65 C792.55 170.67, 840.43 115.46, 876 76.46 M750.43 227.01 C796.68 173.5, 842.07 120.46, 875.74 82.86 M750.43 227.01 C782.52 191.12, 813.78 153.22, 875.74 82.86 M756.07 226.61 C796.7 179.05, 835.14 134.42, 876.13 88.5 M756.07 226.61 C799.48 178.4, 842.54 128.06, 876.13 88.5 M761.06 226.97 C787.22 197.69, 811.81 167.17, 875.87 94.9 M761.06 226.97 C803.01 177.83, 844.53 130.94, 875.87 94.9 M766.7 226.58 C789.55 201.01, 813.23 175.36, 876.26 100.54 M766.7 226.58 C790.13 196.52, 815.37 168.81, 876.26 100.54 M771.69 226.94 C803.92 189.17, 838.44 148.94, 876 106.94 M771.69 226.94 C801.4 191.57, 833.2 156.51, 876 106.94 M776.68 227.3 C813.16 184.8, 853.58 140.86, 875.74 113.34 M776.68 227.3 C798.85 202.46, 819.12 179.09, 875.74 113.34 M782.32 226.9 C806.31 201.63, 827.81 172.95, 876.13 118.98 M782.32 226.9 C807.67 198.9, 831.4 170.93, 876.13 118.98 M787.31 227.26 C807 205.57, 829.17 178.38, 875.87 125.38 M787.31 227.26 C810.61 198.9, 833.76 171.54, 875.87 125.38 M792.95 226.87 C811.31 205.43, 829.53 185.07, 876.27 131.02 M792.95 226.87 C821.25 195.26, 848.43 162.76, 876.27 131.02 M797.94 227.23 C821.89 198.03, 848.86 169.04, 876.01 137.42 M797.94 227.23 C827.12 194.68, 855.14 161.3, 876.01 137.42 M803.58 226.84 C826.6 200.38, 851.9 172.43, 876.4 143.06 M803.58 226.84 C831.4 195.5, 859 163.41, 876.4 143.06 M808.57 227.2 C826.58 207.38, 841.7 187.27, 876.14 149.46 M808.57 227.2 C823.91 208.6, 838.52 190.57, 876.14 149.46 M814.21 226.8 C829.52 207.79, 848.82 186.91, 875.88 155.86 M814.21 226.8 C833.29 203.17, 853.63 179.51, 875.88 155.86 M819.2 227.16 C838.16 205.64, 858.03 184.23, 876.27 161.5 M819.2 227.16 C840.96 202.49, 862.51 178.71, 876.27 161.5 M824.84 226.77 C839.49 210.58, 852.94 196.53, 876.01 167.9 M824.84 226.77 C839.52 212.18, 852.48 195.93, 876.01 167.9 M829.83 227.13 C845.93 206.12, 865.53 185.39, 876.41 173.54 M829.83 227.13 C842.14 214.2, 852.82 200.8, 876.41 173.54 M835.47 226.73 C850.57 211.19, 865.28 196.84, 876.14 179.94 M835.47 226.73 C851.97 208.29, 866.39 190.33, 876.14 179.94 M840.46 227.09 C853.84 214.86, 865.3 200.01, 875.88 186.34 M840.46 227.09 C851.12 212.91, 864.19 201.04, 875.88 186.34 M846.1 226.7 C856.27 212.26, 867.07 200.07, 876.28 191.98 M846.1 226.7 C853.7 218.8, 860.82 210.32, 876.28 191.98 M851.74 226.3 C861.4 217.23, 872.07 205.29, 876.02 198.38 M851.74 226.3 C856.58 219.43, 862.1 213.78, 876.02 198.38 M858.04 225.15 C861.01 219.71, 866.35 212.75, 874.44 206.29 M858.04 225.15 C862.54 221.57, 864.94 215.87, 874.44 206.29" stroke="#ffec99" stroke-width="0.5" fill="none"></path><path d="M32 0 C237.73 1.37, 441.61 1.73, 843.74 0 M32 0 C281.52 -1.13, 530.09 -1.28, 843.74 0 M843.74 0 C865.33 -1.76, 876.32 9.31, 875.74 32 M843.74 0 C865.16 0.01, 877.29 8.61, 875.74 32 M875.74 32 C877.21 76.07, 877.11 123.25, 875.74 194.67 M875.74 32 C876.71 93.24, 877.53 152.63, 875.74 194.67 M875.74 194.67 C875.35 216.81, 866.51 228.37, 843.74 226.67 M875.74 194.67 C874.33 216.4, 866.37 226.76, 843.74 226.67 M843.74 226.67 C587.42 229.27, 329.62 229.81, 32 226.67 M843.74 226.67 C554.74 226.74, 266.14 226.69, 32 226.67 M32 226.67 C10.89 226.93, -0.4 217.19, 0 194.67 M32 226.67 C8.4 227.7, 0.62 214.41, 0 194.67 M0 194.67 C0.54 161.81, -2.11 128.61, 0 32 M0 194.67 C0.69 140.84, 0.42 85.8, 0 32 M0 32 C1.09 11.44, 9.21 1.93, 32 0 M0 32 C-2.29 12.91, 9.07 -1.84, 32 0" stroke="#1e1e1e" stroke-width="1" fill="none"></path></g><g transform="translate(348.57524919938714 381.7750787198265) rotate(0 133.9583282470703 30.266794224928617)"><text x="0" y="0" font-family="Virgil, Segoe UI Emoji" font-size="48.426870759885844px" fill="#1e1e1e" text-anchor="start" style="white-space: pre;" direction="ltr" dominant-baseline="text-before-edge">Timeline ID</text></g><g transform="translate(383.7534909607548 462.9509638538466) rotate(0 94.10832977294922 30.266794224928617)"><text x="0" y="0" font-family="Virgil, Segoe UI Emoji" font-size="48.426870759885844px" fill="#1e1e1e" text-anchor="start" style="white-space: pre;" direction="ltr" dominant-baseline="text-before-edge">8 digits</text></g><g stroke-linecap="round" transform="translate(1001.8235122553015 313.5045390012647) rotate(0 437.8685025 113.33333333333303)"><path d="M7.86 8.16 C7.86 8.16, 7.86 8.16, 7.86 8.16 M7.86 8.16 C7.86 8.16, 7.86 8.16, 7.86 8.16 M3.66 19.09 C10.64 14.72, 14.66 8.58, 18.1 2.48 M3.66 19.09 C8.34 12.07, 14.74 6.71, 18.1 2.48 M2.75 26.24 C5.95 22.16, 12.02 15.61, 24.4 1.33 M2.75 26.24 C11.07 16.77, 18.71 7.61, 24.4 1.33 M1.83 33.39 C13.56 20.84, 22.85 7.34, 30.7 0.18 M1.83 33.39 C8.44 25.26, 16.92 17.15, 30.7 0.18 M1.57 39.79 C9.2 33.06, 15.54 23.13, 34.37 2.05 M1.57 39.79 C9.5 32.49, 16.54 23.79, 34.37 2.05 M1.96 45.43 C8.64 36.16, 20.17 27.53, 39.36 2.41 M1.96 45.43 C15.84 27.98, 31.94 11.04, 39.36 2.41 M1.7 51.83 C19.65 32.3, 35.21 12.96, 45 2.02 M1.7 51.83 C16.2 34.84, 33.19 15.95, 45 2.02 M2.1 57.47 C15.96 43.19, 25.97 30.32, 49.99 2.38 M2.1 57.47 C16.28 42.07, 28.6 27.13, 49.99 2.38 M1.83 63.87 C18.34 45.57, 36.13 25.45, 55.63 1.98 M1.83 63.87 C15.7 49.59, 28.63 33.16, 55.63 1.98 M1.57 70.27 C19.24 49.76, 36.15 28.42, 60.62 2.34 M1.57 70.27 C21.81 46.29, 42.03 22.43, 60.62 2.34 M1.97 75.91 C23.12 54.04, 40.62 31.92, 66.26 1.95 M1.97 75.91 C17.33 58, 33.07 41.41, 66.26 1.95 M1.71 82.31 C24.67 54.57, 49.08 28.83, 71.25 2.31 M1.71 82.31 C17.98 64.1, 34.56 44.38, 71.25 2.31 M2.1 87.95 C18.74 68.5, 36.98 48.91, 76.89 1.91 M2.1 87.95 C21.68 65.01, 42.31 42.68, 76.89 1.91 M1.84 94.35 C34.31 57.45, 63.53 22.73, 81.88 2.27 M1.84 94.35 C27.91 64.8, 55.23 34.5, 81.88 2.27 M2.23 99.99 C23.41 74.23, 44.9 50.42, 87.52 1.88 M2.23 99.99 C30.11 70.13, 57.52 38.45, 87.52 1.88 M1.97 106.39 C20.47 86.07, 39.8 65.07, 92.51 2.24 M1.97 106.39 C22.06 81.95, 43.13 58.18, 92.51 2.24 M1.71 112.79 C21.88 89.73, 41.4 65.4, 98.15 1.85 M1.71 112.79 C36.7 72.26, 73.64 30.89, 98.15 1.85 M2.1 118.43 C26.41 93.33, 50.54 62.15, 103.14 2.21 M2.1 118.43 C26.42 91.26, 50.5 64.8, 103.14 2.21 M1.84 124.83 C41.15 81.05, 78.81 38.63, 108.78 1.81 M1.84 124.83 C29.37 91.32, 57.5 59.43, 108.78 1.81 M2.24 130.47 C30.92 97.68, 58.49 63.45, 113.77 2.17 M2.24 130.47 C38.23 90.12, 71.8 50.83, 113.77 2.17 M1.98 136.87 C46.67 81.6, 95.38 31.45, 119.41 1.78 M1.98 136.87 C25.33 106.92, 52.68 78.08, 119.41 1.78 M2.37 142.51 C38.24 100.74, 70.22 60.05, 124.4 2.14 M2.37 142.51 C39.08 100.07, 75.63 56.82, 124.4 2.14 M2.11 148.91 C40.65 102.75, 80.54 56.94, 130.04 1.74 M2.11 148.91 C44.23 100, 85.47 52.96, 130.04 1.74 M1.85 155.31 C44.56 104.09, 88.22 55.54, 135.03 2.1 M1.85 155.31 C47.01 107.37, 90.71 56.77, 135.03 2.1 M2.24 160.95 C42.15 111.63, 85.03 63.22, 140.67 1.71 M2.24 160.95 C36.83 120.9, 71.46 81.65, 140.67 1.71 M1.98 167.35 C58.39 105.25, 114.48 41.97, 145.66 2.07 M1.98 167.35 C57.43 106.15, 111.11 43.66, 145.66 2.07 M2.38 172.99 C40.1 127.48, 82.18 83.07, 150.65 2.43 M2.38 172.99 C50.34 118.02, 98.45 61.57, 150.65 2.43 M2.11 179.39 C42.31 134.18, 81.86 88.14, 156.29 2.03 M2.11 179.39 C48.32 126.11, 94.4 72.96, 156.29 2.03 M1.85 185.79 C48.15 131.68, 96.26 74.98, 161.28 2.39 M1.85 185.79 C44.92 135.91, 87.5 87.46, 161.28 2.39 M2.25 191.43 C64.71 115.75, 130.64 43.95, 166.92 2 M2.25 191.43 C42.96 143.64, 83.88 95.83, 166.92 2 M1.99 197.83 C38.64 159.48, 73.66 118.85, 171.91 2.36 M1.99 197.83 C45.39 146.14, 90.8 94.28, 171.91 2.36 M2.38 203.47 C65.29 129.49, 126.36 59.8, 177.55 1.96 M2.38 203.47 C40.26 159.75, 78.95 116.25, 177.55 1.96 M3.43 208.36 C71.31 132.36, 139.07 54.43, 182.54 2.32 M3.43 208.36 C52.44 152.67, 98.68 98.92, 182.54 2.32 M5.14 212.49 C79.65 127.59, 153.37 43.44, 188.18 1.93 M5.14 212.49 C59.23 148, 113.76 84.79, 188.18 1.93 M6.84 216.63 C68.29 147.19, 126.31 80.15, 193.17 2.29 M6.84 216.63 C63.13 152.38, 120.53 86.47, 193.17 2.29 M9.86 219.25 C68.25 152.2, 126.57 85.2, 198.81 1.9 M9.86 219.25 C54.04 166.26, 100.3 114.89, 198.81 1.9 M12.88 221.88 C79.73 145.94, 143.93 71.79, 203.8 2.26 M12.88 221.88 C87.19 135.29, 163.95 47.22, 203.8 2.26 M16.56 223.75 C78.93 152.45, 141.15 80.31, 209.44 1.86 M16.56 223.75 C70.79 160.24, 126.34 95.85, 209.44 1.86 M19.58 226.37 C67.7 172.36, 114.45 118.25, 214.43 2.22 M19.58 226.37 C60.99 178.14, 101.52 129.4, 214.43 2.22 M24.56 226.73 C72.55 173.36, 119.21 118.59, 220.07 1.83 M24.56 226.73 C88.45 154.4, 151.91 81.93, 220.07 1.83 M28.89 227.84 C71.16 175.45, 116.64 123.01, 225.06 2.19 M28.89 227.84 C69.34 181.73, 109.22 135.51, 225.06 2.19 M33.88 228.2 C95.1 156.12, 155.34 85.6, 230.7 1.79 M33.88 228.2 C102.14 150, 169.37 72.53, 230.7 1.79 M38.87 228.56 C79.2 181.48, 120.89 133.78, 235.69 2.15 M38.87 228.56 C96.78 160.95, 155.51 92.49, 235.69 2.15 M44.51 228.17 C109.03 156.29, 170.93 81.18, 241.33 1.76 M44.51 228.17 C118.03 142.66, 190.96 56.42, 241.33 1.76 M49.5 228.53 C106.4 160.46, 165.38 93.88, 246.32 2.12 M49.5 228.53 C128.27 139.19, 206.61 49.76, 246.32 2.12 M55.14 228.14 C119.48 155.74, 183.25 79.66, 251.96 1.72 M55.14 228.14 C126 143.87, 199.25 59.67, 251.96 1.72 M60.13 228.5 C121.47 158.7, 181.63 89.63, 256.95 2.08 M60.13 228.5 C111.67 168.61, 163.6 108.52, 256.95 2.08 M65.77 228.1 C129.92 154.3, 195.84 80.98, 262.59 1.69 M65.77 228.1 C124.08 161.51, 181.39 94.44, 262.59 1.69 M70.76 228.46 C118.94 175.45, 167.21 119.95, 267.58 2.05 M70.76 228.46 C123 169.64, 172.41 111.84, 267.58 2.05 M76.4 228.07 C148.26 145.32, 221.45 63.54, 272.56 2.41 M76.4 228.07 C124.4 171.93, 172.7 116.87, 272.56 2.41 M81.39 228.43 C125.54 177.53, 169.69 127.62, 278.21 2.01 M81.39 228.43 C159.38 140.47, 235.5 53.43, 278.21 2.01 M87.03 228.03 C135.29 171.17, 184.2 112.31, 283.19 2.37 M87.03 228.03 C153.39 149.85, 220.12 73.15, 283.19 2.37 M92.02 228.39 C163.9 145.3, 236.52 62, 288.84 1.98 M92.02 228.39 C141.73 170.32, 190.37 114.94, 288.84 1.98 M97.66 228 C143.81 174.98, 191.86 119.9, 293.82 2.34 M97.66 228 C141.53 177.28, 184.65 126.69, 293.82 2.34 M102.65 228.36 C159.07 162.44, 217.26 96.67, 299.47 1.94 M102.65 228.36 C161.96 160.2, 222.91 89.49, 299.47 1.94 M108.29 227.96 C172.1 149.36, 241.06 74.72, 304.45 2.3 M108.29 227.96 C177.42 145.57, 246.77 66.12, 304.45 2.3 M113.28 228.32 C154.78 178.62, 196.34 131.36, 310.1 1.91 M113.28 228.32 C153.3 182.53, 194.37 136.48, 310.1 1.91 M118.92 227.93 C157.48 182.13, 196.94 138.23, 315.08 2.27 M118.92 227.93 C183.48 151.82, 248.49 76.56, 315.08 2.27 M123.91 228.29 C173.33 170.94, 224.01 114.77, 320.73 1.88 M123.91 228.29 C173.97 169.81, 223.16 112.98, 320.73 1.88 M129.55 227.89 C176.11 173.44, 223.36 119.79, 325.71 2.24 M129.55 227.89 C202.67 144.93, 274.27 62.01, 325.71 2.24 M134.54 228.25 C201.98 154.82, 268.34 78.12, 331.36 1.84 M134.54 228.25 C203.02 149.79, 268.6 72.69, 331.36 1.84 M139.53 228.61 C199.84 158.58, 258.56 89.65, 336.34 2.2 M139.53 228.61 C216.2 141.59, 292.43 55.26, 336.34 2.2 M145.17 228.22 C203.25 164.36, 256.95 101.66, 341.99 1.81 M145.17 228.22 C188.12 176.97, 231.88 126.51, 341.99 1.81 M150.16 228.58 C196.62 178.62, 242.14 125.94, 346.97 2.17 M150.16 228.58 C218.86 147.38, 288.36 66.62, 346.97 2.17 M155.8 228.19 C222.3 153.68, 285.75 82.27, 352.62 1.77 M155.8 228.19 C202.32 176.14, 249.14 121.8, 352.62 1.77 M160.79 228.55 C209.31 170.43, 261.06 113.77, 357.6 2.13 M160.79 228.55 C231.37 149.02, 300.97 69.4, 357.6 2.13 M166.43 228.15 C240.19 140.78, 316.79 53.41, 363.25 1.74 M166.43 228.15 C243.49 141.19, 319.63 53.7, 363.25 1.74 M171.42 228.51 C213.5 182.86, 256.19 133.57, 368.23 2.1 M171.42 228.51 C229.85 162.56, 287.73 96.58, 368.23 2.1 M177.06 228.12 C251.87 139.7, 330.02 52.33, 373.88 1.7 M177.06 228.12 C227.05 171.48, 277.28 112.46, 373.88 1.7 M182.05 228.48 C251.61 147.11, 321.85 65.7, 378.86 2.06 M182.05 228.48 C258.42 141.41, 335.95 51.49, 378.86 2.06 M187.69 228.08 C259.64 143.9, 333.16 60.47, 383.85 2.42 M187.69 228.08 C245.05 162.47, 302.58 96.03, 383.85 2.42 M192.68 228.44 C258.94 158, 321.32 82.64, 389.49 2.03 M192.68 228.44 C254.42 156.35, 316.72 85.75, 389.49 2.03 M198.32 228.05 C268.29 147.92, 341.2 64.31, 394.48 2.39 M198.32 228.05 C263.47 151.08, 329.7 75.15, 394.48 2.39 M203.31 228.41 C274.02 144.63, 347.12 60.46, 400.12 1.99 M203.31 228.41 C250.37 176.14, 297.48 123.47, 400.12 1.99 M208.95 228.01 C269.29 159.88, 327.61 89.2, 405.11 2.35 M208.95 228.01 C262.08 166.25, 315.85 105.67, 405.11 2.35 M213.94 228.37 C276.43 157.25, 339.45 85.44, 410.75 1.96 M213.94 228.37 C282 148.14, 350.21 69.79, 410.75 1.96 M219.58 227.98 C282.09 155.88, 343.2 84.91, 415.74 2.32 M219.58 227.98 C294.04 142.57, 369.06 56.19, 415.74 2.32 M224.57 228.34 C270.66 173.93, 319.54 116.98, 421.38 1.93 M224.57 228.34 C298.88 141.17, 373.9 53.66, 421.38 1.93 M230.21 227.94 C280.98 172.96, 327 116.97, 426.37 2.29 M230.21 227.94 C273.87 177.99, 315.87 130.31, 426.37 2.29 M235.2 228.3 C308.21 143.46, 383.22 58.88, 432.01 1.89 M235.2 228.3 C289.11 163.16, 345.27 98.8, 432.01 1.89 M240.84 227.91 C304.27 153.78, 367.43 79.91, 437 2.25 M240.84 227.91 C298.16 162.62, 355.45 97.17, 437 2.25 M245.83 228.27 C323.08 143.88, 395.78 58.87, 442.64 1.86 M245.83 228.27 C308.77 156.62, 370.83 84.8, 442.64 1.86 M250.81 228.63 C311.67 159.16, 371.61 92.06, 447.63 2.22 M250.81 228.63 C328.86 137.39, 406.75 48.09, 447.63 2.22 M256.46 228.23 C313.58 161.37, 371.39 95.43, 453.27 1.82 M256.46 228.23 C331.77 141.93, 406.35 54.73, 453.27 1.82 M261.44 228.59 C321.29 159.91, 383.93 88.12, 458.26 2.18 M261.44 228.59 C322.35 158.28, 382.64 87.94, 458.26 2.18 M267.09 228.2 C344.14 138.88, 420.07 51.94, 463.9 1.79 M267.09 228.2 C325.72 161.63, 382.9 95.92, 463.9 1.79 M272.07 228.56 C350.97 138.2, 427.72 49.54, 468.89 2.15 M272.07 228.56 C323.7 169.26, 375.15 109.42, 468.89 2.15 M277.72 228.17 C339.26 156.76, 399.68 86.52, 474.53 1.75 M277.72 228.17 C333.52 162.28, 389.82 98.34, 474.53 1.75 M282.7 228.53 C322.15 182.57, 363.67 136.34, 479.52 2.11 M282.7 228.53 C336.8 165.3, 392.91 100.76, 479.52 2.11 M288.35 228.13 C349.52 152.87, 414.34 81.19, 485.17 1.72 M288.35 228.13 C355.7 150.71, 420.74 75.25, 485.17 1.72 M293.33 228.49 C350.02 168.1, 403.88 104.81, 490.15 2.08 M293.33 228.49 C340.76 173.83, 388.66 117.53, 490.15 2.08 M298.98 228.1 C350.75 165.97, 405.88 102.03, 495.8 1.68 M298.98 228.1 C341.91 180.79, 384.77 130.18, 495.8 1.68 M303.96 228.46 C374.92 146.95, 443.88 65.47, 500.78 2.04 M303.96 228.46 C345.53 180.29, 388.51 130, 500.78 2.04 M309.61 228.06 C359.33 174.3, 406.75 117.68, 505.77 2.4 M309.61 228.06 C360 169.77, 408.78 113.57, 505.77 2.4 M314.59 228.42 C376.85 159.15, 436.62 87.11, 511.41 2.01 M314.59 228.42 C380.47 152.97, 446.23 77.99, 511.41 2.01 M320.24 228.03 C373.97 165.94, 426.38 104.57, 516.4 2.37 M320.24 228.03 C392.82 147.06, 464.96 64.37, 516.4 2.37 M325.22 228.39 C399.7 141.54, 472.84 58.34, 522.04 1.98 M325.22 228.39 C385.8 161.28, 445.03 92.04, 522.04 1.98 M330.87 227.99 C380.38 170.92, 429.32 114.39, 527.03 2.34 M330.87 227.99 C375.84 176.45, 418.77 126.42, 527.03 2.34 M335.85 228.35 C395.99 160.48, 454.57 91.82, 532.67 1.94 M335.85 228.35 C396.93 159.67, 457.64 89.7, 532.67 1.94 M341.5 227.96 C382.24 181.31, 422.89 134.61, 537.66 2.3 M341.5 227.96 C399.68 158.77, 457.97 92.06, 537.66 2.3 M346.48 228.32 C395.82 170.29, 444.09 114.1, 543.3 1.91 M346.48 228.32 C404.31 162.73, 462.42 95.93, 543.3 1.91 M352.13 227.92 C400.41 173.82, 448.31 119.03, 548.29 2.27 M352.13 227.92 C393.55 181.62, 432.21 135.61, 548.29 2.27 M357.11 228.28 C410.01 167.35, 465.79 103.61, 553.93 1.87 M357.11 228.28 C418.17 160.71, 478.96 92.16, 553.93 1.87 M362.76 227.89 C404.66 180.66, 444.77 135.23, 558.92 2.23 M362.76 227.89 C432.09 146.57, 502.13 67.3, 558.92 2.23 M367.75 228.25 C411.03 174.59, 458.56 124.23, 564.56 1.84 M367.75 228.25 C434.64 152.95, 499.81 76.72, 564.56 1.84 M372.73 228.61 C450.79 140.41, 524.11 54.27, 569.55 2.2 M372.73 228.61 C434.36 155.6, 496.28 83.9, 569.55 2.2 M378.38 228.22 C431.94 163.58, 487.85 101.83, 575.19 1.8 M378.38 228.22 C429.19 169.73, 480.4 110.91, 575.19 1.8 M383.36 228.58 C426.54 178.34, 469.44 128.5, 580.18 2.16 M383.36 228.58 C433.55 171.14, 484.45 113.37, 580.18 2.16 M389.01 228.18 C461.22 141.2, 536.19 56.45, 585.82 1.77 M389.01 228.18 C452.95 152.75, 517.6 78.79, 585.82 1.77 M393.99 228.54 C439.12 176.84, 485.54 125.22, 590.81 2.13 M393.99 228.54 C446.83 164.79, 501.42 102.32, 590.81 2.13 M399.64 228.15 C474.7 138.95, 551.9 51.4, 596.45 1.73 M399.64 228.15 C452.51 168.09, 504.14 108.43, 596.45 1.73 M404.62 228.51 C452.2 172.54, 497.83 118.1, 601.44 2.09 M404.62 228.51 C462.7 161.9, 519.39 94.61, 601.44 2.09 M410.27 228.11 C482.3 144.76, 554.87 60.02, 607.08 1.7 M410.27 228.11 C480.67 145, 552.94 63.07, 607.08 1.7 M415.25 228.47 C491.3 144.38, 564.34 59.51, 612.07 2.06 M415.25 228.47 C486.07 148.83, 555.29 68.99, 612.07 2.06 M420.9 228.08 C479 162.54, 537.05 96.37, 617.06 2.42 M420.9 228.08 C499 140.42, 575.53 50.55, 617.06 2.42 M425.88 228.44 C476.85 169.18, 529.99 106.41, 622.7 2.02 M425.88 228.44 C490.51 153.27, 555.22 78.59, 622.7 2.02 M431.53 228.04 C496.96 155.09, 559.77 83.44, 627.69 2.38 M431.53 228.04 C491.56 161.06, 550.82 93.07, 627.69 2.38 M436.51 228.4 C484.51 175.55, 529.73 122.2, 633.33 1.99 M436.51 228.4 C479.67 179.77, 520.73 133.12, 633.33 1.99 M442.16 228.01 C507.04 155.52, 570.38 81.94, 638.32 2.35 M442.16 228.01 C502.74 159.56, 561.77 92.42, 638.32 2.35 M447.14 228.37 C513.3 153.39, 576.64 78.29, 643.96 1.96 M447.14 228.37 C489.47 179.3, 530.72 131.17, 643.96 1.96 M452.79 227.97 C526.82 144.57, 600.55 59.62, 648.95 2.32 M452.79 227.97 C528.34 142.5, 602.53 57.03, 648.95 2.32 M457.77 228.33 C509.87 167.93, 560.68 111.34, 654.59 1.92 M457.77 228.33 C512.34 165.93, 565.82 104.74, 654.59 1.92 M463.42 227.94 C509.97 175.5, 554.31 123.35, 659.58 2.28 M463.42 227.94 C540.96 137.28, 620.34 46.52, 659.58 2.28 M468.4 228.3 C521.22 164.52, 575.58 100.74, 665.22 1.89 M468.4 228.3 C538.38 148.33, 608.56 68.15, 665.22 1.89 M474.05 227.91 C528.85 165.07, 582 101.15, 670.21 2.25 M474.05 227.91 C512.39 183.2, 553.14 137.33, 670.21 2.25 M479.03 228.27 C539.07 160.91, 600.73 91.13, 675.85 1.85 M479.03 228.27 C545.5 151.56, 613.85 72.77, 675.85 1.85 M484.02 228.63 C561.83 139.27, 637.25 53.45, 680.84 2.21 M484.02 228.63 C543.29 161.86, 601.11 94.9, 680.84 2.21 M489.66 228.23 C569.36 139.82, 645.62 48.26, 686.48 1.82 M489.66 228.23 C560.07 148.48, 628.65 68.98, 686.48 1.82 M494.65 228.59 C540.22 178.65, 584.67 125.62, 691.47 2.18 M494.65 228.59 C565.12 147.17, 636.6 65.96, 691.47 2.18 M500.29 228.2 C554.3 167.9, 605.81 105.85, 697.11 1.78 M500.29 228.2 C542.12 180.93, 581.75 134.75, 697.11 1.78 M505.28 228.56 C582.21 140.02, 657.43 54.28, 702.1 2.14 M505.28 228.56 C576.37 146.76, 646.84 66.15, 702.1 2.14 M510.92 228.16 C587.96 140.92, 665.59 52.89, 707.74 1.75 M510.92 228.16 C580.73 146.51, 653.3 63.01, 707.74 1.75 M515.91 228.52 C561.68 176.53, 609.07 122.71, 712.73 2.11 M515.91 228.52 C557.55 181.04, 599.75 131.93, 712.73 2.11 M521.55 228.13 C577.35 165.78, 630.44 103.52, 718.37 1.71 M521.55 228.13 C561.83 181.35, 603.66 133.75, 718.37 1.71 M526.54 228.49 C576.1 170.74, 625.47 111.02, 723.36 2.07 M526.54 228.49 C593.92 154.1, 659.36 76.57, 723.36 2.07 M532.18 228.09 C609.34 139.05, 685.4 51.22, 729 1.68 M532.18 228.09 C599.72 151.62, 667.84 74.47, 729 1.68 M537.17 228.45 C600.34 154.57, 664.59 80.53, 733.99 2.04 M537.17 228.45 C598.13 161.65, 656.94 92.51, 733.99 2.04 M542.81 228.06 C593.91 171.42, 643.76 111.96, 738.98 2.4 M542.81 228.06 C598.31 162.28, 655.1 95.82, 738.98 2.4 M547.8 228.42 C596.67 172.83, 644.32 118.21, 744.62 2.01 M547.8 228.42 C618.82 146.43, 689.04 65.61, 744.62 2.01 M553.44 228.02 C622.75 151.14, 691.89 71.31, 749.61 2.37 M553.44 228.02 C632.67 136.8, 710.98 46.18, 749.61 2.37 M558.43 228.38 C633.53 141.98, 707.9 57.46, 755.25 1.97 M558.43 228.38 C621.8 152.25, 686.49 78.32, 755.25 1.97 M564.07 227.99 C638.12 141.41, 713.94 53.13, 760.24 2.33 M564.07 227.99 C630.26 151.4, 698.11 73.23, 760.24 2.33 M569.06 228.35 C613.38 175.52, 656.45 125.54, 765.88 1.94 M569.06 228.35 C632.39 157.64, 693.11 86.21, 765.88 1.94 M574.7 227.95 C622.04 170.15, 670.43 116.58, 770.87 2.3 M574.7 227.95 C618.49 176.15, 661.97 124.56, 770.87 2.3 M579.69 228.31 C633.18 168.06, 686.4 109.2, 776.51 1.9 M579.69 228.31 C655.17 141.49, 730.75 56.07, 776.51 1.9 M585.33 227.92 C633.77 171.46, 682.53 115.59, 781.5 2.26 M585.33 227.92 C634.89 168.3, 686.44 110.37, 781.5 2.26 M590.32 228.28 C646.66 162.97, 705.44 95.48, 787.14 1.87 M590.32 228.28 C645.74 163.4, 700.34 99.36, 787.14 1.87 M595.96 227.89 C651.47 162.4, 708.97 99.24, 792.13 2.23 M595.96 227.89 C652.75 164.08, 709.56 97.87, 792.13 2.23 M600.95 228.25 C661.17 160.11, 718.19 93.27, 797.77 1.83 M600.95 228.25 C665.55 156.13, 729.94 83.01, 797.77 1.83 M605.94 228.61 C660.38 165.72, 714.84 103.85, 802.76 2.19 M605.94 228.61 C663.52 164.35, 720.38 98.47, 802.76 2.19 M611.58 228.21 C688.77 141.46, 760.57 55.18, 808.4 1.8 M611.58 228.21 C671.1 159.65, 731.31 90.46, 808.4 1.8 M616.57 228.57 C674.58 158.76, 732.84 91.89, 813.39 2.16 M616.57 228.57 C661.32 175.86, 706.92 122.38, 813.39 2.16 M622.21 228.18 C667.05 175.58, 710.49 127.48, 819.03 1.76 M622.21 228.18 C698.64 139.63, 775 51.08, 819.03 1.76 M627.2 228.54 C685.37 162.14, 744.95 95.42, 824.02 2.12 M627.2 228.54 C675.67 170.97, 725.92 114.16, 824.02 2.12 M632.84 228.14 C678.46 177.27, 723.66 125.51, 829.66 1.73 M632.84 228.14 C674.7 179.03, 717.79 129.66, 829.66 1.73 M637.83 228.5 C707.53 149.24, 775.28 73.24, 834.65 2.09 M637.83 228.5 C691.53 165.57, 745.45 102.5, 834.65 2.09 M643.47 228.11 C718.91 139.16, 794.51 52.47, 840.29 1.69 M643.47 228.11 C719.95 139.11, 797.46 50.7, 840.29 1.69 M648.46 228.47 C725.86 140.59, 801.51 55.07, 845.93 1.3 M648.46 228.47 C721.24 145.01, 793.94 62.06, 845.93 1.3 M654.1 228.07 C696.15 180.76, 737.64 133.08, 850.26 2.42 M654.1 228.07 C694.38 182.59, 733.88 136.64, 850.26 2.42 M659.09 228.43 C717.21 162.49, 774.5 93.9, 855.25 2.78 M659.09 228.43 C698.33 181.03, 739.55 133.47, 855.25 2.78 M664.73 228.04 C742.36 140.27, 817.38 52.9, 859.58 3.89 M664.73 228.04 C724.89 157.17, 786.69 85.86, 859.58 3.89 M669.72 228.4 C714.35 178.91, 758.76 126.78, 863.26 5.76 M669.72 228.4 C707.66 183.42, 748.05 137.81, 863.26 5.76 M675.36 228 C738.16 154.44, 800.98 82.86, 866.93 7.63 M675.36 228 C724.9 174.77, 772.9 118.92, 866.93 7.63 M680.35 228.36 C730.38 170.99, 780.34 113.59, 869.95 10.25 M680.35 228.36 C754.45 142.18, 829.14 56.84, 869.95 10.25 M685.99 227.97 C730.35 177.28, 771.93 125.36, 872.31 13.63 M685.99 227.97 C745.87 160.81, 805.59 92.2, 872.31 13.63 M690.98 228.33 C755.3 153.82, 819.05 81.74, 874.02 17.77 M690.98 228.33 C748.46 158.65, 808.04 90.71, 874.02 17.77 M696.62 227.94 C735.51 185.8, 772.43 144.16, 875.07 22.65 M696.62 227.94 C749.39 166.93, 801.78 106.65, 875.07 22.65 M701.61 228.3 C767.18 152.15, 833.71 78.33, 877.43 26.03 M701.61 228.3 C766.35 152.85, 832.5 77.4, 877.43 26.03 M707.25 227.9 C768.55 157.03, 829.02 86.97, 877.17 32.43 M707.25 227.9 C764.54 163.18, 820.98 97.5, 877.17 32.43 M712.24 228.26 C758.73 172.25, 806.04 118.96, 877.57 38.07 M712.24 228.26 C755.22 181.3, 796.31 133.11, 877.57 38.07 M717.23 228.62 C765.85 174.24, 811.3 120.36, 877.3 44.47 M717.23 228.62 C759.85 178.96, 803.53 129.92, 877.3 44.47 M722.87 228.23 C782.37 160.04, 840.48 93.19, 877.04 50.87 M722.87 228.23 C766.14 180.19, 808.76 132.02, 877.04 50.87 M727.86 228.59 C759.57 189.92, 795.02 151.16, 877.44 56.51 M727.86 228.59 C770.5 178.22, 812.75 129.77, 877.44 56.51 M733.5 228.19 C760.94 194.08, 792.25 158.07, 877.18 62.91 M733.5 228.19 C776.09 179.58, 818.41 131.58, 877.18 62.91 M738.49 228.55 C775.06 189.47, 811.03 146.94, 877.57 68.55 M738.49 228.55 C774.8 185.86, 810.8 144.24, 877.57 68.55 M744.13 228.16 C779.84 188.3, 814.8 144.93, 877.31 74.95 M744.13 228.16 C793.08 170.45, 843.43 112.66, 877.31 74.95 M749.12 228.52 C787.98 183.11, 827.67 138.02, 877.7 80.59 M749.12 228.52 C781.24 193.22, 814.08 155.67, 877.7 80.59 M754.76 228.12 C792.13 181.59, 831.54 139.3, 877.44 86.99 M754.76 228.12 C792.91 179.64, 834.53 133.07, 877.44 86.99 M759.75 228.48 C785.52 201.42, 807.54 172, 877.18 93.39 M759.75 228.48 C800.97 180.32, 841.58 132.15, 877.18 93.39 M765.39 228.09 C792.93 197.31, 821.92 167.04, 877.58 99.03 M765.39 228.09 C805.82 180.87, 846.73 135.35, 877.58 99.03 M770.38 228.45 C805.77 184.62, 845.55 144.82, 877.31 105.43 M770.38 228.45 C799.1 194.12, 829.43 158.95, 877.31 105.43 M776.02 228.05 C796.59 205.28, 818.59 180.67, 877.71 111.07 M776.02 228.05 C797.37 203.49, 820.07 178.58, 877.71 111.07 M781.01 228.41 C804.99 198.73, 830.99 173.93, 877.45 117.47 M781.01 228.41 C818.37 184.38, 856.29 141.63, 877.45 117.47 M786.65 228.02 C815.13 193.81, 846.12 158.92, 877.84 123.11 M786.65 228.02 C809.13 202.17, 831.82 175.77, 877.84 123.11 M791.64 228.38 C813.2 203.32, 833.26 178.55, 877.58 129.51 M791.64 228.38 C811.65 206.79, 830.25 185.37, 877.58 129.51 M797.28 227.98 C826.2 194.64, 850.9 164.73, 877.32 135.91 M797.28 227.98 C828.27 194.25, 856.29 159.25, 877.32 135.91 M802.27 228.35 C829.25 196.66, 855.68 168.89, 877.71 141.55 M802.27 228.35 C831.74 192.83, 863.1 158.28, 877.71 141.55 M807.91 227.95 C833.78 199.48, 858.18 167.11, 877.45 147.95 M807.91 227.95 C826.26 205.6, 846.69 182.37, 877.45 147.95 M812.9 228.31 C836.93 200.16, 865.74 169.18, 877.85 153.59 M812.9 228.31 C831.98 206.38, 849.28 184.57, 877.85 153.59 M818.54 227.92 C842.07 203.46, 864.33 173.69, 877.59 159.99 M818.54 227.92 C832.17 213.48, 843.76 199.52, 877.59 159.99 M823.53 228.28 C839.64 212.41, 856.5 192.87, 877.98 165.64 M823.53 228.28 C844 203.96, 863.24 182.76, 877.98 165.64 M828.51 228.64 C840.17 211.57, 855.35 197.35, 877.72 172.03 M828.51 228.64 C838.89 215.41, 851.41 202.73, 877.72 172.03 M834.16 228.24 C851.29 210.63, 865.18 191.35, 877.46 178.43 M834.16 228.24 C845.14 215.52, 856.83 203.49, 877.46 178.43 M839.14 228.6 C848.62 217.73, 854.33 208.24, 877.85 184.07 M839.14 228.6 C851.28 213.76, 863.26 200.05, 877.85 184.07 M844.79 228.21 C851.5 220.69, 859.4 209.37, 877.59 190.47 M844.79 228.21 C854.29 218.02, 863.34 206.71, 877.59 190.47 M851.09 227.06 C858.27 216.66, 867.76 205.52, 877.98 196.11 M851.09 227.06 C857.93 218.04, 865.87 210.03, 877.98 196.11 M858.04 225.15 C864.34 216.58, 871.94 210.36, 876.41 204.02 M858.04 225.15 C863.13 218.43, 868.05 212.89, 876.41 204.02" stroke="#b2f2bb" stroke-width="0.5" fill="none"></path><path d="M32 0 C316.2 -1.47, 598.67 -2.63, 843.74 0 M32 0 C233.76 3.04, 435.3 2.73, 843.74 0 M843.74 0 C864.24 -1.64, 876.59 10.12, 875.74 32 M843.74 0 C867.31 -1.08, 877.3 10, 875.74 32 M875.74 32 C875.51 82.8, 875.28 131.44, 875.74 194.67 M875.74 32 C876.58 72.94, 877.21 113.58, 875.74 194.67 M875.74 194.67 C875.69 215.9, 864.73 225.15, 843.74 226.67 M875.74 194.67 C875.76 214.85, 865.98 225.82, 843.74 226.67 M843.74 226.67 C535.83 229.11, 226.1 229, 32 226.67 M843.74 226.67 C599.03 225.72, 353.76 225.74, 32 226.67 M32 226.67 C11.43 224.83, -0.01 217.48, 0 194.67 M32 226.67 C11.83 226.4, 1.07 214.68, 0 194.67 M0 194.67 C0.71 141.59, -0.78 87.45, 0 32 M0 194.67 C0.74 147.39, 2.32 101.37, 0 32 M0 32 C-0.77 12.37, 9.55 0.8, 32 0 M0 32 C1.7 11.03, 10.78 0.62, 32 0" stroke="#1971c2" stroke-width="1" fill="none"></path></g><g transform="translate(1074.9844878700242 375.3973128627067) rotate(0 360.82501220703125 26.74137569911909)"><text x="0" y="0" font-family="Virgil, Segoe UI Emoji" font-size="42.78620111859018px" fill="#1e1e1e" text-anchor="start" style="white-space: pre;" direction="ltr" dominant-baseline="text-before-edge">Log Sequence Number (LSN) &gt;&gt; 32</text></g><g transform="translate(1330.1430276330293 454.7490455367506) rotate(0 94.10832977294922 30.266794224928617)"><text x="0" y="0" font-family="Virgil, Segoe UI Emoji" font-size="48.426870759885844px" fill="#1e1e1e" text-anchor="start" style="white-space: pre;" direction="ltr" dominant-baseline="text-before-edge">8 digits</text></g><g stroke-linecap="round" transform="translate(1928.542267595325 313.5045390012647) rotate(0 437.8685025 113.33333333333303)"><path d="M7.86 8.16 C7.86 8.16, 7.86 8.16, 7.86 8.16 M7.86 8.16 C7.86 8.16, 7.86 8.16, 7.86 8.16 M2.35 20.59 C7.86 15.42, 12.4 10.91, 18.1 2.48 M2.35 20.59 C9.31 14.31, 14.98 7.3, 18.1 2.48 M1.43 27.75 C9.28 20.22, 15.88 8.66, 24.4 1.33 M1.43 27.75 C8.2 20.86, 12.17 15.01, 24.4 1.33 M0.52 34.9 C7.86 27.1, 12.39 18.78, 30.7 0.18 M0.52 34.9 C11.51 24.38, 21.58 11.35, 30.7 0.18 M0.26 41.3 C12.48 27.66, 24.73 15.09, 36.34 -0.21 M0.26 41.3 C9.73 30.46, 20.03 18.55, 36.34 -0.21 M-0.01 47.7 C14.51 30.36, 29.72 14.44, 41.33 0.15 M-0.01 47.7 C15.14 29.06, 31.24 11.61, 41.33 0.15 M0.39 53.34 C15.76 33.77, 32.18 15.26, 46.97 -0.25 M0.39 53.34 C17.97 31.71, 36.93 12.41, 46.97 -0.25 M0.13 59.74 C18.47 39.83, 31.92 20.8, 51.96 0.11 M0.13 59.74 C9.92 47.26, 21.79 34.79, 51.96 0.11 M0.52 65.38 C13.47 49.84, 28.66 32.94, 57.6 -0.28 M0.52 65.38 C16 47.15, 29.95 31.45, 57.6 -0.28 M0.26 71.78 C13.76 56.36, 30.03 37.46, 62.59 0.08 M0.26 71.78 C23.77 46.58, 46.78 20.92, 62.59 0.08 M0.65 77.42 C18.69 59.71, 34.31 39.14, 67.57 0.44 M0.65 77.42 C19.89 53.75, 41.64 31.3, 67.57 0.44 M0.39 83.82 C15.08 65.68, 30.44 45.06, 73.22 0.04 M0.39 83.82 C24.09 56.22, 49.82 29.16, 73.22 0.04 M0.13 90.22 C30.36 54.9, 61.69 18.56, 78.2 0.41 M0.13 90.22 C25.06 61.66, 49.37 31.71, 78.2 0.41 M0.53 95.86 C33.2 61.62, 65.93 21.52, 83.85 0.01 M0.53 95.86 C22.01 71.24, 43.62 46.2, 83.85 0.01 M0.26 102.26 C17.61 78.98, 38.67 57.18, 88.83 0.37 M0.26 102.26 C19.42 80.47, 39.05 57.86, 88.83 0.37 M0.66 107.9 C25.48 77.17, 53.89 44.7, 94.48 -0.02 M0.66 107.9 C23.23 82.74, 45.39 56.65, 94.48 -0.02 M0.4 114.3 C28.97 80.2, 58.86 46.8, 99.46 0.34 M0.4 114.3 C29.52 79.94, 60.34 46.49, 99.46 0.34 M0.79 119.94 C31.25 83.07, 63.64 46.74, 105.11 -0.06 M0.79 119.94 C22.44 95.17, 44.27 71.24, 105.11 -0.06 M0.53 126.34 C36.75 83.68, 70.72 43.8, 110.09 0.3 M0.53 126.34 C41.14 78.32, 82.71 32.59, 110.09 0.3 M0.27 132.74 C29.76 102.34, 57.97 69.36, 115.74 -0.09 M0.27 132.74 C34.18 94.99, 65.02 58.65, 115.74 -0.09 M0.66 138.38 C31.22 99.23, 61.95 65.86, 120.72 0.27 M0.66 138.38 C31.68 102.63, 63.88 66.42, 120.72 0.27 M0.4 144.78 C39.89 97.04, 81.28 53.5, 126.37 -0.13 M0.4 144.78 C48.03 89.7, 96.96 33.38, 126.37 -0.13 M0.8 150.42 C44.56 99.6, 88.21 53.63, 131.35 0.23 M0.8 150.42 C31.88 111.25, 64.92 72.97, 131.35 0.23 M0.54 156.82 C53.19 97.64, 106.06 34.65, 137 -0.16 M0.54 156.82 C32.08 119.11, 62.85 82.69, 137 -0.16 M0.93 162.46 C32.01 130.85, 60.46 95.86, 141.98 0.2 M0.93 162.46 C39.47 118.24, 77.44 73.92, 141.98 0.2 M0.67 168.86 C43.62 115.8, 88.72 64.35, 147.63 -0.2 M0.67 168.86 C55.2 104.83, 110.54 41.98, 147.63 -0.2 M0.41 175.26 C44.04 126.37, 87.48 74.63, 152.61 0.16 M0.41 175.26 C52.13 113.99, 104.8 53.37, 152.61 0.16 M0.8 180.9 C62.9 112.31, 122.88 39.99, 158.26 -0.23 M0.8 180.9 C51.9 124.48, 99.41 67.61, 158.26 -0.23 M0.54 187.3 C63.93 116.06, 125.43 42.71, 163.24 0.13 M0.54 187.3 C45.02 136.43, 89.19 85.03, 163.24 0.13 M0.94 192.94 C56.96 126.06, 110.77 64.44, 168.89 -0.27 M0.94 192.94 C68.26 116.67, 135.01 39.28, 168.89 -0.27 M0.67 199.34 C45.94 149.2, 86.97 97.48, 173.87 0.09 M0.67 199.34 C66.41 123.32, 132.87 46.79, 173.87 0.09 M1.72 204.23 C55.93 144.39, 108.9 81.56, 178.86 0.45 M1.72 204.23 C62.1 134.68, 122.06 65.66, 178.86 0.45 M2.78 209.11 C45.77 156.98, 91.27 106.9, 184.5 0.06 M2.78 209.11 C73.28 129.86, 143.13 49.03, 184.5 0.06 M4.48 213.25 C48.09 162.25, 89.71 113.14, 189.49 0.42 M4.48 213.25 C59.85 151.04, 114.52 88.11, 189.49 0.42 M6.84 216.63 C55.42 159.93, 103.85 104.79, 195.13 0.03 M6.84 216.63 C66.37 150.33, 122.73 83.98, 195.13 0.03 M9.86 219.25 C73.56 145.01, 139.41 69.08, 200.12 0.39 M9.86 219.25 C81.04 138.7, 152.09 56.36, 200.12 0.39 M12.88 221.88 C89.83 132.97, 167.51 47.08, 205.76 -0.01 M12.88 221.88 C84.13 139.37, 155.85 58.82, 205.76 -0.01 M16.56 223.75 C58.53 175.27, 99.91 127.74, 210.75 0.35 M16.56 223.75 C80.18 149.39, 146.11 73.61, 210.75 0.35 M20.89 224.86 C80.07 158.23, 139.01 88.67, 216.39 -0.04 M20.89 224.86 C79.5 158.11, 136.93 92.21, 216.39 -0.04 M25.22 225.97 C86.93 155.63, 144.85 88.62, 221.38 0.32 M25.22 225.97 C83.35 159.29, 140.4 93.76, 221.38 0.32 M30.21 226.33 C76.52 172.41, 122.6 119.52, 227.02 -0.08 M30.21 226.33 C72.14 178.78, 113.01 131.42, 227.02 -0.08 M35.19 226.7 C87.61 167.89, 138.76 108.35, 232.01 0.28 M35.19 226.7 C75.53 180.26, 116.64 133.11, 232.01 0.28 M40.18 227.06 C114.92 142.76, 188.07 55.39, 237.65 -0.11 M40.18 227.06 C107.25 150.07, 175.11 72.59, 237.65 -0.11 M45.82 226.66 C122.7 140.52, 195.36 54.53, 242.64 0.25 M45.82 226.66 C86.31 180.13, 126.72 135.25, 242.64 0.25 M50.81 227.02 C116.78 150.31, 181.88 75.55, 248.28 -0.15 M50.81 227.02 C115.37 153.22, 178.65 80.25, 248.28 -0.15 M56.45 226.63 C125.05 147.31, 192.91 70.65, 253.27 0.21 M56.45 226.63 C102.88 174.54, 149.78 120.54, 253.27 0.21 M61.44 226.99 C106.3 173.25, 152.95 120.65, 258.91 -0.18 M61.44 226.99 C115.05 165.69, 169.38 102.3, 258.91 -0.18 M67.08 226.59 C125.69 160.81, 185.46 89.81, 263.9 0.18 M67.08 226.59 C113.41 172.56, 159.46 120.93, 263.9 0.18 M72.07 226.95 C116.84 175.84, 160.15 127.63, 269.54 -0.22 M72.07 226.95 C137.63 150.97, 204.93 73.62, 269.54 -0.22 M77.06 227.31 C153.39 140.47, 230.8 50.19, 274.53 0.14 M77.06 227.31 C147.66 146.69, 218.19 65.4, 274.53 0.14 M82.7 226.92 C160.74 140.52, 237.21 52.19, 280.17 -0.25 M82.7 226.92 C151.44 148.28, 219.85 69.29, 280.17 -0.25 M87.69 227.28 C165.91 136.39, 244.06 47.34, 285.16 0.11 M87.69 227.28 C154.31 151.05, 221.66 75.33, 285.16 0.11 M93.33 226.88 C138.77 175.54, 182.9 125.08, 290.8 -0.28 M93.33 226.88 C158.08 153.95, 222.16 79.74, 290.8 -0.28 M98.32 227.24 C159.73 155.91, 222.01 85.95, 295.79 0.08 M98.32 227.24 C167.38 148.68, 233.55 71.71, 295.79 0.08 M103.96 226.85 C175.04 143.71, 246.06 62.79, 300.78 0.44 M103.96 226.85 C147.71 175.96, 190.68 126.3, 300.78 0.44 M108.95 227.21 C181.95 144.28, 256.3 62.14, 306.42 0.04 M108.95 227.21 C165.78 160.26, 225.29 93.81, 306.42 0.04 M114.59 226.81 C162.23 174.9, 208.92 121.84, 311.41 0.4 M114.59 226.81 C186.55 142.26, 258.83 59.74, 311.41 0.4 M119.58 227.17 C194.31 138.72, 274.09 49.9, 317.05 0.01 M119.58 227.17 C194.52 140.32, 269.82 54.28, 317.05 0.01 M125.22 226.78 C169.49 176.54, 213.77 125.38, 322.04 0.37 M125.22 226.78 C166.3 181.3, 205.47 135.11, 322.04 0.37 M130.21 227.14 C185.4 163.34, 240.28 100, 327.68 -0.03 M130.21 227.14 C192.46 154.21, 255.99 83.99, 327.68 -0.03 M135.85 226.74 C198.04 156.33, 260.26 82.69, 332.67 0.33 M135.85 226.74 C208.86 141.98, 281.15 58.18, 332.67 0.33 M140.84 227.1 C197.27 158.13, 257.9 92.08, 338.31 -0.06 M140.84 227.1 C197.42 161.52, 253.83 96.28, 338.31 -0.06 M146.48 226.71 C190.88 173.8, 237.59 118.23, 343.3 0.3 M146.48 226.71 C188.29 176.6, 230.46 128.82, 343.3 0.3 M151.47 227.07 C229.03 137.99, 304.3 52.68, 348.94 -0.1 M151.47 227.07 C197.17 177.11, 241.94 126.12, 348.94 -0.1 M157.11 226.68 C218.93 156.62, 281.94 84.15, 353.93 0.26 M157.11 226.68 C210.54 162.48, 265.23 99.47, 353.93 0.26 M162.1 227.04 C212.65 170.07, 264.67 109.85, 359.57 -0.13 M162.1 227.04 C224.18 155.47, 284.89 84.69, 359.57 -0.13 M167.74 226.64 C212.88 177.77, 255.36 125.99, 364.56 0.23 M167.74 226.64 C208.68 181.09, 249.46 134.21, 364.56 0.23 M172.73 227 C233.4 154.66, 295.15 84.24, 370.2 -0.17 M172.73 227 C227.27 164.87, 282.71 101.45, 370.2 -0.17 M178.37 226.61 C225.48 172.67, 272.7 117.15, 375.19 0.19 M178.37 226.61 C226.65 171.89, 275.31 117.04, 375.19 0.19 M183.36 226.97 C240.01 161.33, 299.65 94.22, 380.83 -0.2 M183.36 226.97 C246.85 154.7, 309.27 83.96, 380.83 -0.2 M189 226.57 C267.12 140.11, 342.52 51.91, 385.82 0.16 M189 226.57 C258.43 148.43, 326.59 68.88, 385.82 0.16 M193.99 226.93 C243.84 169.1, 292.11 115.01, 391.46 -0.24 M193.99 226.93 C264.03 145.63, 333.33 65.73, 391.46 -0.24 M198.98 227.29 C256.35 159.54, 312.72 93.89, 396.45 0.12 M198.98 227.29 C250.91 168.24, 301.51 109.24, 396.45 0.12 M204.62 226.9 C280.58 141.73, 356.04 53.24, 402.09 -0.27 M204.62 226.9 C282.51 139.01, 359.76 50.29, 402.09 -0.27 M209.61 227.26 C270.9 154.44, 331.51 85.42, 407.08 0.09 M209.61 227.26 C256.98 171.5, 304.3 116.72, 407.08 0.09 M215.25 226.86 C289.55 140.19, 364.83 56.84, 412.07 0.45 M215.25 226.86 C285.92 143.43, 358.06 62.28, 412.07 0.45 M220.24 227.22 C266.65 172.63, 311.49 120.91, 417.71 0.06 M220.24 227.22 C287.41 149.18, 354.62 73.34, 417.71 0.06 M225.88 226.83 C280.95 160.87, 336.56 97.74, 422.7 0.42 M225.88 226.83 C277.58 169.04, 330.17 110.5, 422.7 0.42 M230.87 227.19 C302.02 146.09, 370.18 66.96, 428.34 0.02 M230.87 227.19 C290.79 157.37, 351.12 88.07, 428.34 0.02 M236.51 226.79 C281.76 173.56, 330.7 121.04, 433.33 0.38 M236.51 226.79 C279.93 174.06, 325.15 122.48, 433.33 0.38 M241.5 227.15 C281.83 181.08, 323.29 135.73, 438.97 -0.01 M241.5 227.15 C303.63 156.61, 364.46 85.67, 438.97 -0.01 M247.14 226.76 C312.08 151.65, 379.46 73.06, 443.96 0.35 M247.14 226.76 C300.39 168.49, 351.32 108.99, 443.96 0.35 M252.13 227.12 C297.89 174.84, 346.33 121.27, 449.6 -0.05 M252.13 227.12 C330.79 136.25, 410.18 44.64, 449.6 -0.05 M257.77 226.73 C327.6 143.07, 397.36 61.11, 454.59 0.31 M257.77 226.73 C318.43 157.75, 378.46 86.81, 454.59 0.31 M262.76 227.09 C328.3 153.33, 392.41 81.03, 460.23 -0.08 M262.76 227.09 C309.64 171.83, 356.55 118.35, 460.23 -0.08 M268.4 226.69 C320.31 168.98, 368.66 112.47, 465.22 0.28 M268.4 226.69 C342.36 143.84, 414.22 61.68, 465.22 0.28 M273.39 227.05 C325.64 166.54, 379.08 105.81, 470.86 -0.12 M273.39 227.05 C350.82 139.17, 426.41 50.87, 470.86 -0.12 M279.03 226.66 C325.93 171.86, 374.38 117.54, 475.85 0.24 M279.03 226.66 C354.43 138.69, 431.03 52.54, 475.85 0.24 M284.02 227.02 C343.43 160.19, 398.97 95.49, 481.49 -0.15 M284.02 227.02 C326.59 179.02, 367.95 131.91, 481.49 -0.15 M289.66 226.62 C353.2 151.97, 414.48 79.44, 486.48 0.21 M289.66 226.62 C362 143.61, 432.54 60.05, 486.48 0.21 M294.65 226.98 C358.86 152.3, 424.72 76.98, 492.12 -0.19 M294.65 226.98 C367.29 143.02, 440.46 58.67, 492.12 -0.19 M300.29 226.59 C370.39 144.83, 440.37 65.97, 497.11 0.17 M300.29 226.59 C350.49 169.74, 401.56 111.16, 497.11 0.17 M305.28 226.95 C373.99 144.7, 446.03 62.33, 502.75 -0.22 M305.28 226.95 C373.03 152.11, 438.14 76.84, 502.75 -0.22 M310.26 227.31 C390.07 139.17, 466.79 50.47, 507.74 0.14 M310.26 227.31 C363.73 165.69, 416.18 104.01, 507.74 0.14 M315.91 226.91 C369.47 166, 421.22 102.56, 513.38 -0.25 M315.91 226.91 C371.02 164.25, 424.12 103.58, 513.38 -0.25 M320.89 227.27 C388.83 148.79, 457.76 70.49, 518.37 0.11 M320.89 227.27 C392.38 146.55, 464.02 63.99, 518.37 0.11 M326.54 226.88 C402.04 140.93, 479 55.53, 523.35 0.47 M326.54 226.88 C396.42 145.99, 465.57 67.08, 523.35 0.47 M331.52 227.24 C393.5 156.14, 452.99 86.85, 529 0.07 M331.52 227.24 C396.09 152.33, 461.48 77.23, 529 0.07 M337.17 226.84 C403.58 153.62, 466.28 80.34, 533.98 0.43 M337.17 226.84 C384.87 172.58, 432.78 117.7, 533.98 0.43 M342.15 227.2 C390.35 172.59, 437.39 116.12, 539.63 0.04 M342.15 227.2 C411.52 150.28, 478.9 71.19, 539.63 0.04 M347.8 226.81 C419.14 142.42, 493.92 59.18, 544.61 0.4 M347.8 226.81 C391.52 177.81, 433.88 129.78, 544.61 0.4 M352.78 227.17 C408.75 165.05, 466.65 100.53, 550.26 0 M352.78 227.17 C393.46 179.1, 436.31 130.89, 550.26 0 M358.43 226.78 C417.32 159.91, 475.6 93.98, 555.24 0.36 M358.43 226.78 C407.4 169.44, 456.12 112.78, 555.24 0.36 M363.41 227.14 C408.54 172.47, 455.82 117.55, 560.89 -0.03 M363.41 227.14 C421.92 159.86, 480.95 92.2, 560.89 -0.03 M369.06 226.74 C430.65 154.93, 492.06 81.94, 565.87 0.33 M369.06 226.74 C431.03 154.74, 494.91 82.3, 565.87 0.33 M374.04 227.1 C433.32 161.23, 491.4 93.84, 571.52 -0.07 M374.04 227.1 C413.5 180.33, 453.57 133.2, 571.52 -0.07 M379.69 226.71 C452.62 145.27, 523.96 64.27, 576.5 0.29 M379.69 226.71 C440.39 156.83, 498.8 88.75, 576.5 0.29 M384.67 227.07 C444.67 155.31, 506.75 85.63, 582.15 -0.1 M384.67 227.07 C446.19 155.04, 508.05 84.73, 582.15 -0.1 M390.32 226.67 C467 138.51, 543.21 52.74, 587.14 0.26 M390.32 226.67 C445.55 166.17, 498.72 103.88, 587.14 0.26 M395.3 227.03 C457.21 157.35, 518.9 86.25, 592.78 -0.14 M395.3 227.03 C440.83 175.41, 486.35 122.66, 592.78 -0.14 M400.95 226.64 C455.74 163.15, 512.88 101.04, 597.77 0.22 M400.95 226.64 C444.55 177.42, 485.78 128.51, 597.77 0.22 M405.93 227 C446.75 182.04, 486.17 136.38, 603.41 -0.17 M405.93 227 C469.67 152.29, 535.04 77.11, 603.41 -0.17 M411.58 226.6 C475.29 149.61, 541.42 75.52, 608.4 0.19 M411.58 226.6 C470.84 156.92, 532.38 86.2, 608.4 0.19 M416.56 226.96 C468.35 168.76, 519.17 111.46, 614.04 -0.2 M416.56 226.96 C459.66 174.92, 504.99 123.26, 614.04 -0.2 M421.55 227.32 C497.8 143.21, 570.41 56.98, 619.03 0.16 M421.55 227.32 C471 172.2, 517.69 116.91, 619.03 0.16 M427.19 226.93 C475.87 171.36, 522.59 118.81, 624.67 -0.24 M427.19 226.93 C485.82 157.8, 543.95 90.49, 624.67 -0.24 M432.18 227.29 C481.39 168.84, 533.44 110.93, 629.66 0.12 M432.18 227.29 C488.16 161.44, 546.01 95.23, 629.66 0.12 M437.82 226.89 C489.55 168.31, 540.48 109.21, 635.3 -0.27 M437.82 226.89 C509.25 145.44, 582.19 62.4, 635.3 -0.27 M442.81 227.25 C513 146.34, 581.54 67.14, 640.29 0.09 M442.81 227.25 C493.64 171.02, 543.64 113.09, 640.29 0.09 M448.45 226.86 C509.74 156.13, 574.04 84.12, 645.27 0.45 M448.45 226.86 C524.77 136.97, 603.51 45.64, 645.27 0.45 M453.44 227.22 C505.11 169.29, 557.5 109.48, 650.92 0.05 M453.44 227.22 C513.27 155.6, 573.82 86.64, 650.92 0.05 M459.08 226.82 C534.71 137.53, 611.09 48.53, 655.9 0.41 M459.08 226.82 C506.46 175.44, 551.67 123.11, 655.9 0.41 M464.07 227.18 C520.61 158.85, 582.03 91.61, 661.55 0.02 M464.07 227.18 C534.18 148.44, 602.46 69.35, 661.55 0.02 M469.71 226.79 C533.43 153.85, 595.76 81.87, 666.53 0.38 M469.71 226.79 C518.19 173, 565.47 118.04, 666.53 0.38 M474.7 227.15 C514.56 179.56, 556.32 133.51, 672.18 -0.02 M474.7 227.15 C526.26 166.57, 578.97 106.42, 672.18 -0.02 M480.35 226.76 C544.5 153.76, 605.9 81.05, 677.16 0.34 M480.35 226.76 C529.24 169.66, 577.41 112.38, 677.16 0.34 M485.33 227.12 C537.89 166.19, 588.85 107.22, 682.81 -0.05 M485.33 227.12 C536.26 170.73, 585.08 113.59, 682.81 -0.05 M490.98 226.72 C547.93 163.37, 604.6 98.05, 687.79 0.31 M490.98 226.72 C539.19 170, 587.79 115.02, 687.79 0.31 M495.96 227.08 C564.02 148.44, 632.59 71.81, 693.44 -0.09 M495.96 227.08 C555.65 158.08, 615.81 89.15, 693.44 -0.09 M501.61 226.69 C556.39 164.56, 609.24 102.01, 698.42 0.27 M501.61 226.69 C552.82 166.62, 603.81 107.91, 698.42 0.27 M506.59 227.05 C559.18 165.44, 614.5 102.23, 704.07 -0.12 M506.59 227.05 C567.15 156.12, 629.51 85.18, 704.07 -0.12 M512.24 226.65 C558.22 174.36, 604.87 117.9, 709.05 0.24 M512.24 226.65 C567.29 164.8, 621.81 102.18, 709.05 0.24 M517.22 227.01 C572.58 163.75, 627.48 100, 714.7 -0.16 M517.22 227.01 C590.48 140.71, 666.12 54.54, 714.7 -0.16 M522.87 226.62 C576.58 165.45, 630.07 102.38, 719.68 0.2 M522.87 226.62 C588.68 153.51, 653.1 77.6, 719.68 0.2 M527.85 226.98 C595.08 150.56, 659.42 73.32, 725.33 -0.19 M527.85 226.98 C588.96 156.24, 649.16 87.49, 725.33 -0.19 M533.5 226.58 C606.99 142.78, 681.87 56.24, 730.31 0.17 M533.5 226.58 C574.24 179.68, 616.07 130.79, 730.31 0.17 M538.48 226.94 C578.69 179.73, 620.92 132.48, 735.96 -0.22 M538.48 226.94 C595.4 164.57, 651.27 100.17, 735.96 -0.22 M543.47 227.3 C602.14 158.05, 663.47 90.53, 740.94 0.14 M543.47 227.3 C612.6 145.8, 681.97 65.71, 740.94 0.14 M549.11 226.91 C593.39 175.36, 637.27 122.31, 746.59 -0.26 M549.11 226.91 C591.8 175.77, 635.75 124.36, 746.59 -0.26 M554.1 227.27 C607.92 166.61, 663.16 102.45, 751.57 0.1 M554.1 227.27 C621.92 146.75, 691.63 66.91, 751.57 0.1 M559.74 226.87 C618.92 156.66, 679.97 86.8, 756.56 0.46 M559.74 226.87 C604.35 174.55, 648.61 123.45, 756.56 0.46 M564.73 227.23 C626.93 153.99, 687.07 82.39, 762.2 0.07 M564.73 227.23 C612.96 173.48, 660.97 117.49, 762.2 0.07 M570.37 226.84 C631.4 157.47, 692.86 87.35, 767.19 0.43 M570.37 226.84 C628.75 159.57, 686.74 93.34, 767.19 0.43 M575.36 227.2 C633.69 160.93, 690.26 96.92, 772.83 0.03 M575.36 227.2 C622.17 175, 666.2 123.98, 772.83 0.03 M581 226.81 C643.57 159.29, 702.1 89.58, 777.82 0.39 M581 226.81 C628.77 170.54, 675.96 116.04, 777.82 0.39 M585.99 227.17 C635.47 172.07, 682.3 114.9, 783.46 0 M585.99 227.17 C655.86 149.58, 724.42 69.71, 783.46 0 M591.63 226.77 C652.81 158.66, 711.65 89.09, 788.45 0.36 M591.63 226.77 C662.6 144.25, 735.77 60.93, 788.45 0.36 M596.62 227.13 C663.46 153.17, 728.05 79.19, 794.09 -0.04 M596.62 227.13 C673.88 137.83, 753.2 48.07, 794.09 -0.04 M602.26 226.74 C666.71 150.46, 730.77 78.19, 799.08 0.32 M602.26 226.74 C678.15 138.49, 755.05 50.59, 799.08 0.32 M607.25 227.1 C650.6 176.36, 694.5 124.87, 804.72 -0.07 M607.25 227.1 C652.08 175.5, 698.1 122.38, 804.72 -0.07 M612.89 226.7 C676.23 153.41, 739.18 82.28, 809.71 0.29 M612.89 226.7 C674.56 156.55, 736.54 84.45, 809.71 0.29 M617.88 227.06 C674.77 158.56, 734.62 91.35, 815.35 -0.11 M617.88 227.06 C666.78 173.38, 714.44 118.48, 815.35 -0.11 M623.52 226.67 C674.08 167.09, 725.23 108.94, 820.34 0.25 M623.52 226.67 C695.21 145.91, 765.79 64.54, 820.34 0.25 M628.51 227.03 C689.38 156.86, 749.52 86.59, 825.98 -0.14 M628.51 227.03 C685.14 163.59, 740.49 99.02, 825.98 -0.14 M634.15 226.63 C681.58 172.67, 726.44 120.11, 830.97 0.22 M634.15 226.63 C680.18 173.45, 727.33 118.88, 830.97 0.22 M639.14 226.99 C695.06 164.14, 746.66 101.73, 836.61 -0.17 M639.14 226.99 C708.76 145.64, 780.63 63.6, 836.61 -0.17 M644.78 226.6 C715.59 143.77, 788.58 59.73, 841.6 0.19 M644.78 226.6 C698.07 165.42, 750.04 105.65, 841.6 0.19 M649.77 226.96 C721.99 143.5, 796.3 56.84, 846.59 0.55 M649.77 226.96 C713.6 154.05, 777.21 80.43, 846.59 0.55 M654.76 227.32 C712.51 157.75, 773.45 90.26, 850.92 1.66 M654.76 227.32 C704.49 169.88, 754.84 113.12, 850.92 1.66 M660.4 226.92 C718.32 160.49, 773.58 94.34, 855.91 2.02 M660.4 226.92 C737.14 142.25, 812.7 54.85, 855.91 2.02 M665.39 227.28 C726.77 157.9, 785.95 90.56, 860.24 3.14 M665.39 227.28 C710.72 175.16, 757.09 122.1, 860.24 3.14 M671.03 226.89 C719.1 169.27, 770.14 110.44, 863.26 5.76 M671.03 226.89 C749.4 137.11, 826.07 49.2, 863.26 5.76 M676.02 227.25 C742.1 148.29, 813.06 70.61, 866.93 7.63 M676.02 227.25 C735.76 157.97, 796.22 86.98, 866.93 7.63 M681.66 226.86 C754.6 142.39, 831.85 55.8, 869.95 10.25 M681.66 226.86 C751.98 145.85, 822.29 65.56, 869.95 10.25 M686.65 227.22 C738.15 167.1, 786.85 109.32, 872.31 13.63 M686.65 227.22 C730.74 176.93, 774.54 126.23, 872.31 13.63 M692.29 226.82 C759.76 147.71, 829.12 68.66, 873.36 18.52 M692.29 226.82 C757.89 148.82, 824.73 70.82, 873.36 18.52 M697.28 227.18 C766.34 147.13, 837.87 62.82, 875.07 22.65 M697.28 227.18 C733.46 185.57, 769.6 142.76, 875.07 22.65 M702.92 226.79 C764.19 153.67, 827.58 79.53, 875.46 28.3 M702.92 226.79 C737.55 187.02, 773.38 147.57, 875.46 28.3 M707.91 227.15 C754.27 172.43, 800.33 117.34, 875.86 33.94 M707.91 227.15 C749.28 177.04, 791.98 128.75, 875.86 33.94 M713.55 226.75 C760.35 169.18, 809.31 115.59, 875.6 40.34 M713.55 226.75 C766.07 165.45, 820.79 103.58, 875.6 40.34 M718.54 227.11 C751.13 189.34, 782.25 149.1, 875.99 45.98 M718.54 227.11 C767.22 170.46, 816.22 115.25, 875.99 45.98 M724.18 226.72 C781.91 159.33, 838.73 92.94, 875.73 52.38 M724.18 226.72 C780.82 160.94, 838.16 95.1, 875.73 52.38 M729.17 227.08 C770.38 177.74, 811.37 131.41, 876.13 58.02 M729.17 227.08 C771.97 177.61, 815.86 126.71, 876.13 58.02 M734.81 226.68 C791.57 161.61, 848.85 97.16, 875.86 64.42 M734.81 226.68 C762.91 191.88, 791.86 159.51, 875.86 64.42 M739.8 227.04 C786.23 171.83, 832.59 121.87, 875.6 70.82 M739.8 227.04 C774.97 188.28, 808.12 147.92, 875.6 70.82 M745.44 226.65 C797.2 165.33, 848.11 104.93, 876 76.46 M745.44 226.65 C775.04 191.61, 804.41 157.75, 876 76.46 M750.43 227.01 C778.22 194.12, 805.83 160.91, 875.74 82.86 M750.43 227.01 C801.18 168.77, 852.48 109.86, 875.74 82.86 M756.07 226.61 C781.63 198.45, 807.55 170.08, 876.13 88.5 M756.07 226.61 C795.98 182.52, 835.22 136.63, 876.13 88.5 M761.06 226.97 C798.66 185.21, 832.13 139.81, 875.87 94.9 M761.06 226.97 C795.01 189.45, 826.5 153.62, 875.87 94.9 M766.7 226.58 C799.79 185.53, 839.13 142.96, 876.26 100.54 M766.7 226.58 C802.16 186.2, 836.07 145.9, 876.26 100.54 M771.69 226.94 C794.32 199.7, 817.57 173.27, 876 106.94 M771.69 226.94 C796.12 200.21, 820.54 171.72, 876 106.94 M776.68 227.3 C799.57 199.67, 823.91 172.53, 875.74 113.34 M776.68 227.3 C802.32 197.74, 827.93 166.92, 875.74 113.34 M782.32 226.9 C806.2 199.41, 834.12 170.43, 876.13 118.98 M782.32 226.9 C807.63 196.02, 832.88 165.87, 876.13 118.98 M787.31 227.26 C813.22 197.25, 837.8 169.66, 875.87 125.38 M787.31 227.26 C805.6 205.39, 825.33 184.21, 875.87 125.38 M792.95 226.87 C822.35 190.37, 854.87 153.32, 876.27 131.02 M792.95 226.87 C815.79 199.6, 837.39 173.82, 876.27 131.02 M797.94 227.23 C825.99 192.83, 856.76 159.46, 876.01 137.42 M797.94 227.23 C815.92 208.01, 833.03 188.95, 876.01 137.42 M803.58 226.84 C821.13 208.63, 840.3 187.61, 876.4 143.06 M803.58 226.84 C827.49 199.58, 851.85 171.63, 876.4 143.06 M808.57 227.2 C827.9 203.07, 851.35 180.17, 876.14 149.46 M808.57 227.2 C829.03 202.74, 851.68 177.55, 876.14 149.46 M814.21 226.8 C834.23 201.16, 856.19 180.14, 875.88 155.86 M814.21 226.8 C829.31 210.88, 843.35 194.64, 875.88 155.86 M819.2 227.16 C835.75 210.75, 851.82 190.72, 876.27 161.5 M819.2 227.16 C842.22 201.65, 864.28 173.96, 876.27 161.5 M824.84 226.77 C837.81 209.25, 854.29 192.4, 876.01 167.9 M824.84 226.77 C844.11 203.11, 865.36 181.66, 876.01 167.9 M829.83 227.13 C841.92 211.81, 858.09 199.05, 876.41 173.54 M829.83 227.13 C843.02 211.87, 855.41 197.45, 876.41 173.54 M835.47 226.73 C849.4 211.16, 863.84 192.6, 876.14 179.94 M835.47 226.73 C845.93 215.7, 855.1 203.74, 876.14 179.94 M840.46 227.09 C855.47 214.1, 866.8 197.38, 875.88 186.34 M840.46 227.09 C848.41 217.69, 856.79 207.24, 875.88 186.34 M846.1 226.7 C853.43 217.03, 863.62 205.82, 876.28 191.98 M846.1 226.7 C856.88 215.02, 869.16 201.04, 876.28 191.98 M851.74 226.3 C856.29 219.26, 860.15 214.28, 876.02 198.38 M851.74 226.3 C859 217.08, 868.29 208.48, 876.02 198.38 M858.04 225.15 C862.71 219.7, 865.22 216.78, 874.44 206.29 M858.04 225.15 C862.32 220.06, 866.39 213.88, 874.44 206.29" stroke="#b2f2bb" stroke-width="0.5" fill="none"></path><path d="M32 0 C212.9 -2.76, 393.2 -2.03, 843.74 0 M32 0 C317.55 1.28, 602.48 1.06, 843.74 0 M843.74 0 C865.96 1.96, 877.69 10.45, 875.74 32 M843.74 0 C864.86 2.03, 877.96 10.62, 875.74 32 M875.74 32 C875.59 85.58, 875.35 137.72, 875.74 194.67 M875.74 32 C876.3 78.73, 875.92 125.62, 875.74 194.67 M875.74 194.67 C874.55 215.45, 866.12 227.74, 843.74 226.67 M875.74 194.67 C876.79 217.04, 865.84 224.67, 843.74 226.67 M843.74 226.67 C574.83 227.99, 304.06 228.12, 32 226.67 M843.74 226.67 C591.53 227.77, 339.31 227.97, 32 226.67 M32 226.67 C9.88 225.28, 0.02 214.39, 0 194.67 M32 226.67 C11.38 225.65, -1.66 218.2, 0 194.67 M0 194.67 C0.83 137.83, -0.94 84.21, 0 32 M0 194.67 C-0.2 141.72, 0.89 87.33, 0 32 M0 32 C0.37 11.8, 8.82 -0.25, 32 0 M0 32 C-2.19 11.68, 10 0.08, 32 0" stroke="#1971c2" stroke-width="1" fill="none"></path></g><g transform="translate(1957.3378831565406 367.03161624738914) rotate(0 281.85833740234375 50.78251756455529)"><text x="0" y="0" font-family="Virgil, Segoe UI Emoji" font-size="40.62601405164417px" fill="#1e1e1e" text-anchor="start" style="white-space: pre;" direction="ltr" dominant-baseline="text-before-edge">Log Sequence Number (LSN) </text><text x="0" y="50.782517564555214" font-family="Virgil, Segoe UI Emoji" font-size="40.62601405164417px" fill="#1e1e1e" text-anchor="start" style="white-space: pre;" direction="ltr" dominant-baseline="text-before-edge">&amp; 0xFFFFFFFF</text></g><g transform="translate(2237.341824203979 454.7490455367506) rotate(0 94.10832977294922 30.266794224928617)"><text x="0" y="0" font-family="Virgil, Segoe UI Emoji" font-size="48.426870759885844px" fill="#1e1e1e" text-anchor="start" style="white-space: pre;" direction="ltr" dominant-baseline="text-before-edge">8 digits</text></g><g stroke-linecap="round"><g transform="translate(98.67546291032704 664.5139766453321) rotate(0 427.31603698026765 -0.0332976175263866)"><path d="M-0.13 0.04 C142.34 0.03, 712.3 -0.12, 854.76 -0.11 M0.07 -0.06 C142.52 -0.05, 712.17 0.03, 854.65 0.02" stroke="#1e1e1e" stroke-width="4" fill="none"></path></g></g><mask></mask><g transform="translate(342.8931113764038 575.1128731889994) rotate(0 115.58333587646484 39.114477586798785)"><text x="0" y="0" font-family="Virgil, Segoe UI Emoji" font-size="62.58316413887778px" fill="#1e1e1e" text-anchor="start" style="white-space: pre;" direction="ltr" dominant-baseline="text-before-edge">Timeline</text></g><g transform="translate(98.67546291032613 670.6756394606136) rotate(0 430.9333190917969 83.8957130111612)"><text x="0" y="0" font-family="Virgil, Segoe UI Emoji" font-size="134.23314081785801px" fill="#1e1e1e" text-anchor="start" style="white-space: pre;" direction="ltr" dominant-baseline="text-before-edge">TTTTTTTT</text></g><g stroke-linecap="round"><g transform="translate(1027.8826599334216 663.6677636051918) rotate(0 427.3339550317787 0.017904006510889303)"><path d="M-0.02 -0.13 C142.49 -0.11, 712.41 -0.02, 854.87 -0.02 M-0.2 0.12 C142.3 0.17, 712.34 0.18, 854.81 0.15" stroke="#1e1e1e" stroke-width="4" fill="none"></path></g></g><mask></mask><g transform="translate(1078.0344984577068 570.5392874446125) rotate(0 385.0333251953125 34.43661978358023)"><text x="0" y="0" font-family="Virgil, Segoe UI Emoji" font-size="55.098591653728654px" fill="#1e1e1e" text-anchor="start" style="white-space: pre;" direction="ltr" dominant-baseline="text-before-edge">Sequence Number higher part</text></g><g transform="translate(1032.2436893703161 632.7606762068717) rotate(0 421 110.43434644955732)"><text x="0" y="0" font-family="Virgil, Segoe UI Emoji" font-size="176.69495431929136px" fill="#1e1e1e" text-anchor="start" style="white-space: pre;" direction="ltr" dominant-baseline="text-before-edge">XXXXXXXX</text></g><g stroke-linecap="round"><g transform="translate(1956.474003027267 653.6114030530971) rotate(0 283.34251867800094 1.2034920618652905)"><path d="M0 0.14 C94.5 0.52, 472.36 1.79, 566.87 2.15 M-0.19 0.08 C94.3 0.49, 472.19 2, 566.72 2.32" stroke="#1e1e1e" stroke-width="4" fill="none"></path></g></g><mask></mask><g transform="translate(2027.4242344899367 562.1566961253056) rotate(0 191.73333740234375 31.74169156097696)"><text x="0" y="0" font-family="Virgil, Segoe UI Emoji" font-size="50.786706497563216px" fill="#1e1e1e" text-anchor="start" style="white-space: pre;" direction="ltr" dominant-baseline="text-before-edge">6 leading zeros</text></g><g transform="translate(1949.9324588719255 673.2360355191204) rotate(0 293.1000061035156 89.29144430716906)"><text x="0" y="0" font-family="Virgil, Segoe UI Emoji" font-size="142.86631089147068px" fill="#1e1e1e" text-anchor="start" style="white-space: pre;" direction="ltr" dominant-baseline="text-before-edge">000000</text></g><g stroke-linecap="round"><g transform="translate(2575.7401830662475 653.6114030530971) rotate(0 115.5724524477996 -0.02056728587785983)"><path d="M-0.12 0.1 C38.35 0.07, 192.47 -0.11, 231.01 -0.14 M0.08 0.03 C38.59 0.01, 192.79 -0.03, 231.27 -0.03" stroke="#1e1e1e" stroke-width="4" fill="none"></path></g></g><mask></mask><g transform="translate(2630.2530510274264 664.5139766453312) rotate(0 68.11666870117188 82.6838239482372)"><text x="0" y="0" font-family="Virgil, Segoe UI Emoji" font-size="132.2941183171793px" fill="#1e1e1e" text-anchor="start" style="white-space: pre;" direction="ltr" dominant-baseline="text-before-edge">YY</text></g><g transform="translate(2530.6669335575853 552.0297848783166) rotate(0 165.26666259765625 50.52720605825925)"><text x="0" y="0" font-family="Virgil, Segoe UI Emoji" font-size="40.4217648466074px" fill="#1e1e1e" text-anchor="start" style="white-space: pre;" direction="ltr" dominant-baseline="text-before-edge">Sequence Number</text><text x="0" y="50.52720605825925" font-family="Virgil, Segoe UI Emoji" font-size="40.4217648466074px" fill="#1e1e1e" text-anchor="start" style="white-space: pre;" direction="ltr" dominant-baseline="text-before-edge">   lower part</text></g><g transform="translate(10 1013.8997087199132) rotate(0 1604.4166259765625 48.15900757282452)"><text x="0" y="0" font-family="Virgil, Segoe UI Emoji" font-size="77.05441211651905px" fill="#1e1e1e" text-anchor="start" style="white-space: pre;" direction="ltr" dominant-baseline="text-before-edge">The LSN is a 64-bit integer, representing a position in the write-ahead log stream. </text></g><g transform="translate(615.2904449560165 1616.436853972471) rotate(0 350.8666687011719 48.253994691208845)"><text x="0" y="0" font-family="Virgil, Segoe UI Emoji" font-size="77.20639150593405px" fill="#1e1e1e" text-anchor="start" style="white-space: pre;" direction="ltr" dominant-baseline="text-before-edge">LSN is printed as </text></g><g transform="translate(1380.6511111309546 1590.2706773511045) rotate(0 733.5166625976562 75.41544155341398)"><text x="0" y="0" font-family="Virgil, Segoe UI Emoji" font-size="120.66470648546236px" fill="#1e1e1e" text-anchor="start" style="white-space: pre;" direction="ltr" dominant-baseline="text-before-edge">(XXXXXXXX/YYZZZZZZ).</text></g><g transform="translate(1528.9261119853572 1806.1416344773697) rotate(0 533.6500244140625 31.80514718447148)"><text x="0" y="0" font-family="Virgil, Segoe UI Emoji" font-size="50.888235495154554px" fill="#1e1e1e" text-anchor="start" style="white-space: pre;" direction="ltr" dominant-baseline="text-before-edge">X' represents the high 32-bits of the LSN</text></g><g transform="translate(1522.384567830014 1910.806340962833) rotate(0 668.066650390625 32.895404543694895)"><text x="0" y="0" font-family="Virgil, Segoe UI Emoji" font-size="52.632647269912056px" fill="#1e1e1e" text-anchor="start" style="white-space: pre;" direction="ltr" dominant-baseline="text-before-edge">Y is the high 8 bits of the lower 32-bits section.</text></g><g transform="translate(1537.6481708591464 2017.6515621667395) rotate(0 650.1500244140625 32.895404543694895)"><text x="0" y="0" font-family="Virgil, Segoe UI Emoji" font-size="52.63264726991153px" fill="#1e1e1e" text-anchor="start" style="white-space: pre;" direction="ltr" dominant-baseline="text-before-edge">The 'Z' represents the offset position in the file.</text></g><g transform="translate(1683.7426569951022 2148.4824452735675) rotate(0 489.7416687011719 32.89540454369444)"><text x="0" y="0" font-family="Virgil, Segoe UI Emoji" font-size="52.63264726991145px" fill="#1e1e1e" text-anchor="start" style="white-space: pre;" direction="ltr" dominant-baseline="text-before-edge">Each element is a hexadecimal number</text></g><g stroke-linecap="round" transform="translate(1022.7676969822442 1234.949391383063) rotate(0 281.61023095342307 78.07983507629842)"><path d="M7.86 8.16 C7.86 8.16, 7.86 8.16, 7.86 8.16 M7.86 8.16 C7.86 8.16, 7.86 8.16, 7.86 8.16 M0.91 40.54 C14.92 26.71, 26.46 7.85, 36.34 -0.21 M0.91 40.54 C9.03 31.74, 16.48 23.57, 36.34 -0.21 M1.18 64.62 C14.34 51.04, 23.68 37.61, 57.6 -0.28 M1.18 64.62 C12.69 50.64, 25.19 37.67, 57.6 -0.28 M1.44 88.71 C21.34 67.43, 39.83 46.75, 78.2 0.41 M1.44 88.71 C30.17 54.33, 61.47 19.45, 78.2 0.41 M1.05 113.54 C30.59 78.12, 65.01 38.61, 99.46 0.34 M1.05 113.54 C35.01 74.71, 68.95 34.29, 99.46 0.34 M2.63 136.11 C45.88 88.57, 85.12 39.5, 120.72 0.27 M2.63 136.11 C40.61 92.9, 78.59 48.2, 120.72 0.27 M11.43 150.39 C53.12 101.82, 94.99 52.3, 141.98 0.2 M11.43 150.39 C62.07 90.34, 113.2 31.5, 141.98 0.2 M28.1 155.6 C58.08 123.26, 87.75 89.65, 163.24 0.13 M28.1 155.6 C79.11 100.13, 127.22 42.81, 163.24 0.13 M48.7 156.28 C88.47 107.82, 130.85 60.37, 184.5 0.06 M48.7 156.28 C101.81 93.35, 156.45 32.76, 184.5 0.06 M69.3 156.97 C115.61 100.69, 162.02 46.52, 205.76 -0.01 M69.3 156.97 C119.38 98.47, 170.8 39.5, 205.76 -0.01 M90.56 156.9 C125.34 116.21, 157.55 77.12, 227.02 -0.08 M90.56 156.9 C122.3 118.15, 153.94 82.05, 227.02 -0.08 M111.82 156.83 C144.75 118.08, 179.46 77.68, 248.28 -0.15 M111.82 156.83 C166.4 95.45, 220.21 33.7, 248.28 -0.15 M133.08 156.76 C163.11 121.45, 193.9 85.35, 269.54 -0.22 M133.08 156.76 C168.45 116.55, 205.2 75.2, 269.54 -0.22 M154.34 156.69 C184.06 121.68, 217.26 86.87, 290.8 -0.28 M154.34 156.69 C187.85 117.72, 221.75 79.89, 290.8 -0.28 M175.6 156.63 C229.58 96.28, 282.13 35.15, 311.41 0.4 M175.6 156.63 C214.11 113.33, 251.84 68.49, 311.41 0.4 M196.86 156.56 C243.51 102.77, 289.67 50.98, 332.67 0.33 M196.86 156.56 C234.64 116.16, 270.87 74.11, 332.67 0.33 M218.12 156.49 C246.84 123.64, 275.05 88.53, 353.93 0.26 M218.12 156.49 C267.57 100.26, 317.07 43.35, 353.93 0.26 M239.39 156.42 C277.67 111.28, 316.3 67.25, 375.19 0.19 M239.39 156.42 C266.46 124.83, 294.69 94.63, 375.19 0.19 M260.65 156.35 C291.86 120.75, 322.7 84.28, 396.45 0.12 M260.65 156.35 C291.52 121.06, 323.73 84.3, 396.45 0.12 M281.91 156.28 C322.84 106.47, 365.93 59.34, 417.71 0.06 M281.91 156.28 C325.85 106.54, 369.03 57.05, 417.71 0.06 M302.51 156.97 C342.99 113.07, 378.77 71, 438.97 -0.01 M302.51 156.97 C340.31 114.74, 377.12 70.4, 438.97 -0.01 M323.77 156.9 C362.23 111.82, 404.26 66.24, 460.23 -0.08 M323.77 156.9 C359.86 116.36, 395.53 75.17, 460.23 -0.08 M345.03 156.83 C382.83 114.22, 421.76 70.15, 481.49 -0.15 M345.03 156.83 C392.26 104.75, 438.77 52.84, 481.49 -0.15 M366.29 156.76 C400.42 115.92, 438.35 75.39, 502.75 -0.22 M366.29 156.76 C397.62 121.51, 428.92 83.71, 502.75 -0.22 M387.55 156.69 C422.97 115.48, 459.48 75.17, 523.35 0.47 M387.55 156.69 C430.61 105.24, 473.65 56.04, 523.35 0.47 M408.81 156.62 C444.43 116.77, 478.34 76.1, 543.3 1.91 M408.81 156.62 C460.68 97.01, 511.61 37.84, 543.3 1.91 M430.07 156.55 C470.65 108.05, 510.59 62.71, 557.35 10.14 M430.07 156.55 C477.64 98.61, 528.21 43.39, 557.35 10.14 M451.33 156.48 C486.17 116.16, 520.96 78.87, 562.86 28.18 M451.33 156.48 C477.16 126.68, 502.78 95.98, 562.86 28.18 M472.59 156.41 C494.98 130.3, 517.98 104.03, 563.13 52.26 M472.59 156.41 C505.36 117.53, 539.91 79.56, 563.13 52.26 M493.85 156.35 C511.58 137.19, 527.97 117.24, 563.39 76.35 M493.85 156.35 C513.49 134.33, 533.12 113.04, 563.39 76.35 M515.11 156.28 C530.22 135.96, 549.62 116.67, 563.66 100.43 M515.11 156.28 C532.54 138.55, 548.31 119.86, 563.66 100.43 M536.37 156.21 C541.53 149.19, 550.84 140.27, 563.93 124.51 M536.37 156.21 C545.97 145.66, 553.55 135.77, 563.93 124.51" stroke="#b2f2bb" stroke-width="2" fill="none"></path><path d="M32 0 C220.98 0.88, 411.25 0.96, 531.22 0 M32 0 C219.03 -0.68, 406.65 -0.66, 531.22 0 M531.22 0 C551.02 -0.15, 563.6 9.59, 563.22 32 M531.22 0 C551.48 -1.38, 565.36 11.32, 563.22 32 M563.22 32 C561.27 63.13, 561.22 98.59, 563.22 124.16 M563.22 32 C563.22 61.2, 563.16 91.43, 563.22 124.16 M563.22 124.16 C564.63 143.84, 553.24 155.96, 531.22 156.16 M563.22 124.16 C563.93 146.14, 554.54 156.29, 531.22 156.16 M531.22 156.16 C393.51 157.86, 256.39 158.83, 32 156.16 M531.22 156.16 C385.79 155.02, 240.69 155.21, 32 156.16 M32 156.16 C10.64 157.82, -1.83 145.64, 0 124.16 M32 156.16 C11.96 157.81, -0.93 146.3, 0 124.16 M0 124.16 C0.16 100.25, 1.1 73.59, 0 32 M0 124.16 C0.82 101.82, 0.47 81.1, 0 32 M0 32 C-1.01 9.27, 9.23 -1.04, 32 0 M0 32 C-2.18 12.57, 8.84 -1.13, 32 0" stroke="#1e1e1e" stroke-width="4" fill="none"></path></g><g stroke-linecap="round" transform="translate(1600.035651868101 1232.160825844624) rotate(0 281.61023095342307 78.07983507629842)"><path d="M7.86 8.16 C7.86 8.16, 7.86 8.16, 7.86 8.16 M7.86 8.16 C7.86 8.16, 7.86 8.16, 7.86 8.16 M8.78 31.49 C17.95 22.05, 25.42 8.76, 34.37 2.05 M8.78 31.49 C16.29 23.43, 23.36 14.5, 34.37 2.05 M8.39 56.32 C19.47 41.31, 31.8 29.29, 55.63 1.98 M8.39 56.32 C19.43 43.51, 31.99 31.35, 55.63 1.98 M8.66 80.4 C30.59 58.12, 52.09 34.57, 76.89 1.91 M8.66 80.4 C34.79 49.8, 62.17 19.73, 76.89 1.91 M8.93 104.49 C41.69 66.82, 71.59 31.93, 98.15 1.85 M8.93 104.49 C33.96 74.42, 59.88 46.36, 98.15 1.85 M3.94 134.61 C45.57 87.37, 86.78 38.98, 119.41 1.78 M3.94 134.61 C31.23 103.06, 58.95 72.71, 119.41 1.78 M12.08 149.63 C45.84 111.57, 78.01 73.01, 140.67 1.71 M12.08 149.63 C58.33 95.7, 103.69 42.5, 140.67 1.71 M24.16 160.13 C59.61 121.15, 92.07 79.51, 161.28 2.39 M24.16 160.13 C55.91 126.06, 84.33 92.12, 161.28 2.39 M41.48 164.59 C99.2 100.39, 155.17 36.49, 182.54 2.32 M41.48 164.59 C78.82 120.9, 116.96 76.5, 182.54 2.32 M62.74 164.52 C91.45 128.73, 123.66 94.79, 203.8 2.26 M62.74 164.52 C96.69 126.26, 130.3 86.42, 203.8 2.26 M84 164.45 C114.12 129.48, 143.68 94.15, 225.06 2.19 M84 164.45 C117.45 124.52, 152.54 85.86, 225.06 2.19 M105.26 164.38 C145.92 118.03, 187.14 70.73, 246.32 2.12 M105.26 164.38 C147.09 116.29, 187.71 67.96, 246.32 2.12 M126.52 164.31 C164.58 124.35, 199.5 82.76, 267.58 2.05 M126.52 164.31 C166.53 117.36, 206.49 70.9, 267.58 2.05 M147.78 164.24 C185.27 122.12, 221.73 79.75, 288.84 1.98 M147.78 164.24 C186.21 121.79, 224.79 76.71, 288.84 1.98 M169.04 164.17 C212.29 114.71, 256.61 62.06, 310.1 1.91 M169.04 164.17 C197.39 130.92, 227.63 96.19, 310.1 1.91 M189.65 164.86 C225.99 119.55, 265.51 77.03, 331.36 1.84 M189.65 164.86 C237.44 111.34, 283.07 57.05, 331.36 1.84 M210.91 164.79 C241.55 129.14, 271.35 96.59, 352.62 1.77 M210.91 164.79 C240.02 131.31, 269.01 96.47, 352.62 1.77 M232.17 164.72 C264.2 130.82, 292.96 94.16, 373.88 1.7 M232.17 164.72 C281.65 109.83, 328.6 54.44, 373.88 1.7 M253.43 164.65 C293.77 115.23, 333.63 69.82, 394.48 2.39 M253.43 164.65 C289.84 123.88, 325.19 82.96, 394.48 2.39 M274.69 164.58 C326 105.41, 378.93 45.07, 415.74 2.32 M274.69 164.58 C309.82 123.42, 346.39 83.12, 415.74 2.32 M295.95 164.51 C335.67 117.5, 378.01 71.58, 437 2.25 M295.95 164.51 C342.09 111.71, 389.15 59.09, 437 2.25 M317.21 164.44 C367.8 110.82, 415.63 53.29, 458.26 2.18 M317.21 164.44 C361.86 114.26, 405.7 62.95, 458.26 2.18 M338.47 164.38 C372.03 123.97, 407.91 81.56, 479.52 2.11 M338.47 164.38 C367.07 131.99, 396.26 99.57, 479.52 2.11 M359.73 164.31 C408.06 111.3, 451.61 57.47, 500.78 2.04 M359.73 164.31 C397.05 120.79, 434.03 77.89, 500.78 2.04 M380.99 164.24 C417.56 124.29, 453.92 83.5, 522.04 1.98 M380.99 164.24 C413.42 128.92, 444.5 92.78, 522.04 1.98 M402.25 164.17 C436.35 124.73, 469.93 84.71, 539.37 6.43 M402.25 164.17 C448.49 112, 492.95 61.47, 539.37 6.43 M422.85 164.85 C453.55 127.68, 486.51 89.69, 557.35 10.14 M422.85 164.85 C467.29 112.77, 512.1 61.28, 557.35 10.14 M444.11 164.79 C470.79 132.8, 498.95 102.71, 564.83 25.92 M444.11 164.79 C471.33 134.04, 495.68 103.37, 564.83 25.92 M465.37 164.72 C489.45 139.35, 511.02 110.94, 564.44 50.76 M465.37 164.72 C494.08 133.2, 521.09 100.03, 564.44 50.76 M486.63 164.65 C511.63 136.24, 534.39 110.25, 564.71 74.84 M486.63 164.65 C512.59 134.27, 538.24 104.08, 564.71 74.84 M507.89 164.58 C523.88 147.31, 538.94 130.52, 564.97 98.92 M507.89 164.58 C529.93 138.59, 552.22 113.57, 564.97 98.92 M534.4 158.47 C545.32 146.13, 552.88 135.81, 563.93 124.51 M534.4 158.47 C545.9 144.06, 558.25 131.52, 563.93 124.51" stroke="#ffec99" stroke-width="2" fill="none"></path><path d="M32 0 C228.21 0.98, 424.82 2.06, 531.22 0 M32 0 C142.29 0.96, 252.31 1.44, 531.22 0 M531.22 0 C550.89 -0.59, 562.16 9.24, 563.22 32 M531.22 0 C553.86 0.86, 561.84 10.36, 563.22 32 M563.22 32 C562.3 51.72, 563.41 70.96, 563.22 124.16 M563.22 32 C562.37 53.99, 563.22 74.17, 563.22 124.16 M563.22 124.16 C564.94 145.91, 550.58 154.48, 531.22 156.16 M563.22 124.16 C562.67 146.95, 551.8 155.3, 531.22 156.16 M531.22 156.16 C407.85 156.64, 283.28 157.12, 32 156.16 M531.22 156.16 C336.64 156.31, 142.53 156.22, 32 156.16 M32 156.16 C11.82 157.87, 0.01 146.12, 0 124.16 M32 156.16 C8.67 155.98, 1.9 143.39, 0 124.16 M0 124.16 C-1.94 96.27, 0.98 63.5, 0 32 M0 124.16 C0.18 93.36, 0.36 60.16, 0 32 M0 32 C1.02 9.7, 12.01 1.12, 32 0 M0 32 C1.08 9.39, 10.18 0.68, 32 0" stroke="#1e1e1e" stroke-width="4" fill="none"></path></g><g transform="translate(1173.3502360579614 1265.6236123058952) rotate(0 145.38333129882812 49.03991753814944)"><text x="0" y="0" font-family="Virgil, Segoe UI Emoji" font-size="78.46386806103874px" fill="#1e1e1e" text-anchor="start" style="white-space: pre;" direction="ltr" dominant-baseline="text-before-edge">32 bits</text></g><g transform="translate(1740.961456099425 1258.4121778443332) rotate(0 145.38333129882812 49.03991753814944)"><text x="0" y="0" font-family="Virgil, Segoe UI Emoji" font-size="78.46386806103874px" fill="#1e1e1e" text-anchor="start" style="white-space: pre;" direction="ltr" dominant-baseline="text-before-edge">32 bits</text></g></svg>