<svg version="1.1" xmlns="http://www.w3.org/2000/svg" viewBox="0 0 6436.39990234375 6518.891148722863" width="6436.39990234375" height="6518.891148722863">
  <!-- svg-source:excalidraw -->
  
  <defs>
    <style class="style-fonts">
      @font-face {
        font-family: "Virgil";
        src: url("https://excalidraw.com/Virgil.woff2");
      }
      @font-face {
        font-family: "Cascadia";
        src: url("https://excalidraw.com/Cascadia.woff2");
      }
    </style>
    
  </defs>
  <g transform="translate(1433.5918836006354 10) rotate(0 1082.2679683020463 123.48783010390434)"><text x="0" y="0" font-family="Virgil, Segoe UI Emoji" font-size="197.58052816624692px" fill="#1e1e1e" text-anchor="start" style="white-space: pre;" direction="ltr" dominant-baseline="text-before-edge">WAL Segment Switches</text></g><g transform="translate(312.63421361041355 439.5194048463454) rotate(0 2306.9133137148265 82.5061136774957)"><text x="0" y="0" font-family="Virgil, Segoe UI Emoji" font-size="132.00978188399344px" fill="#1e1e1e" text-anchor="start" style="white-space: pre;" direction="ltr" dominant-baseline="text-before-edge">WAL segment switches occur when one of the following events happens:</text></g><g transform="translate(559.049886721431 735.848739006542) rotate(0 2081.033447265625 73.0487945021705)"><text x="0" y="0" font-family="Virgil, Segoe UI Emoji" font-size="116.87807120347314px" fill="#1e1e1e" text-anchor="start" style="white-space: pre;" direction="ltr" dominant-baseline="text-before-edge">1. WAL segment is filled up (max WAL segmemt size is 16 Mb by default)</text></g><g transform="translate(545.9147532684424 1013.2634348160918) rotate(0 1568.1333007812498 79.353673952387)"><text x="0" y="0" font-family="Virgil, Segoe UI Emoji" font-size="126.96587832381938px" fill="#1e1e1e" text-anchor="start" style="white-space: pre;" direction="ltr" dominant-baseline="text-before-edge">2. The function                  has been issued.</text></g><g transform="translate(1592.5247420044584 994.3487964654414) rotate(0 506.28951167524247 88.93974852188057)"><text x="0" y="0" font-family="Virgil, Segoe UI Emoji" font-size="142.3035976350093px" fill="#f08c00" text-anchor="start" style="white-space: pre;" direction="ltr" dominant-baseline="text-before-edge">pg_switch_wal</text></g><g transform="translate(577.4391505195267 1259.153733374551) rotate(0 1577.1082763671877 177.62198625542442)"><text x="0" y="0" font-family="Virgil, Segoe UI Emoji" font-size="142.09758900433934px" fill="#1e1e1e" text-anchor="start" style="white-space: pre;" direction="ltr" dominant-baseline="text-before-edge">3.              is enabled and the time set </text><text x="0" y="177.6219862554242" font-family="Virgil, Segoe UI Emoji" font-size="142.09758900433934px" fill="#1e1e1e" text-anchor="start" style="white-space: pre;" direction="ltr" dominant-baseline="text-before-edge">    to               has been exceeded.</text></g><g transform="translate(770.0519603216289 1257.2836627011038) rotate(0 431.4449210719399 83.09060491976197)"><text x="0" y="0" font-family="Virgil, Segoe UI Emoji" font-size="132.9449678716199px" fill="#f08c00" text-anchor="start" style="white-space: pre;" direction="ltr" dominant-baseline="text-before-edge">archive_mode</text></g><g transform="translate(1069.2197476364495 1466.639684288748) rotate(0 474.03893067849253 75.41385582828389)"><text x="0" y="0" font-family="Virgil, Segoe UI Emoji" font-size="120.66216932525366px" fill="#f08c00" text-anchor="start" style="white-space: pre;" direction="ltr" dominant-baseline="text-before-edge">archive_timeout</text></g><g transform="translate(10 1877.031919495812) rotate(0 3208.199951171875 165.0122273549914)"><text x="0" y="0" font-family="Virgil, Segoe UI Emoji" font-size="132.00978188399293px" fill="#1e1e1e" text-anchor="start" style="white-space: pre;" direction="ltr" dominant-baseline="text-before-edge">When a WAL segment file is switched, it is usually recycled (renamed and reused) for future use. </text><text x="0" y="165.01222735499115" font-family="Virgil, Segoe UI Emoji" font-size="132.00978188399293px" fill="#1e1e1e" text-anchor="start" style="white-space: pre;" direction="ltr" dominant-baseline="text-before-edge">However, it may be removed later if it is not needed.</text></g><g stroke-linecap="round" transform="translate(779.6257743748597 3374.169636225535) rotate(0 224.02371104979557 237.20157640566595)"><path d="M0 0 C96.15 0.54, 191.13 1.82, 448.05 0 M0 0 C155.35 1.64, 310.96 1.93, 448.05 0 M448.05 0 C449.9 135.81, 450.39 271.09, 448.05 474.4 M448.05 0 C449.76 123.88, 449.52 247.73, 448.05 474.4 M448.05 474.4 C294.06 474.42, 140.86 473.18, 0 474.4 M448.05 474.4 C354.5 474.05, 260.24 473.73, 0 474.4 M0 474.4 C-2.21 288.2, -1.53 103.36, 0 0 M0 474.4 C0.62 358.84, 0.24 243.03, 0 0" stroke="#000000" stroke-width="4" fill="none"></path></g><g stroke-linecap="round" transform="translate(1227.6731964743603 3374.169636225535) rotate(0 224.02371104979557 237.20157640566595)"><path d="M0 0 C108.55 2.14, 218.33 2.01, 448.05 0 M0 0 C95.66 1.1, 192.02 1.47, 448.05 0 M448.05 0 C448.43 188.29, 447.63 377.16, 448.05 474.4 M448.05 0 C447.46 186.42, 447.94 373.63, 448.05 474.4 M448.05 474.4 C329.38 475.82, 211.32 475.38, 0 474.4 M448.05 474.4 C319.15 473.62, 190.59 474.46, 0 474.4 M0 474.4 C1.12 350.1, 0.26 224.87, 0 0 M0 474.4 C-0.24 378.25, 0.53 281.85, 0 0" stroke="#000000" stroke-width="4" fill="none"></path></g><g stroke-linecap="round" transform="translate(1676.3246040694412 3374.169636225535) rotate(0 224.02371104979557 237.20157640566595)"><path d="M0 0 C102.75 -0.85, 203.74 -1.96, 448.05 0 M0 0 C113.07 0.14, 226.76 -0.31, 448.05 0 M448.05 0 C448.8 159.39, 449.98 317.16, 448.05 474.4 M448.05 0 C446.8 126.52, 446.45 252.44, 448.05 474.4 M448.05 474.4 C274.95 472.59, 103.5 474.23, 0 474.4 M448.05 474.4 C321.84 473.02, 194.57 472.4, 0 474.4 M0 474.4 C-1.34 359.74, -1.71 245.55, 0 0 M0 474.4 C2.35 317.64, 2.31 160.99, 0 0" stroke="#000000" stroke-width="4" fill="none"></path></g><g stroke-linecap="round" transform="translate(2124.372026169149 3374.169636225535) rotate(0 224.02371104979557 237.20157640566595)"><path d="M0 0 C160.32 -1.66, 321.83 -1.77, 448.05 0 M0 0 C140.88 -1.97, 281 -1.7, 448.05 0 M448.05 0 C448.07 146.95, 446.94 293.54, 448.05 474.4 M448.05 0 C448.77 106.83, 449.3 214.03, 448.05 474.4 M448.05 474.4 C333.01 473.24, 218.04 472.58, 0 474.4 M448.05 474.4 C350.92 476.18, 253.87 476.56, 0 474.4 M0 474.4 C0.32 314.91, 1.44 154.72, 0 0 M0 474.4 C-1.35 329.37, -1.48 184.96, 0 0" stroke="#000000" stroke-width="4" fill="none"></path></g><g stroke-linecap="round" transform="translate(2576.812070053942 3374.169636225535) rotate(0 224.02371104979557 237.20157640566595)"><path d="M0 0 C154.5 0.7, 310.05 1.33, 448.05 0 M0 0 C174.73 0.33, 349.18 -0.11, 448.05 0 M448.05 0 C449.72 181.72, 449.36 365.02, 448.05 474.4 M448.05 0 C447.65 155.41, 447.08 311.1, 448.05 474.4 M448.05 474.4 C353.24 476.25, 257.95 477.03, 0 474.4 M448.05 474.4 C273.11 473.81, 98.92 473.34, 0 474.4 M0 474.4 C2.31 346.05, 2.09 220.08, 0 0 M0 474.4 C-1.31 353.55, -1.59 232.33, 0 0" stroke="#000000" stroke-width="4" fill="none"></path></g><g stroke-linecap="round" transform="translate(3024.8594921535814 3374.169636225535) rotate(0 224.02371104979557 237.20157640566595)"><path d="M0 0 C104.25 1.59, 209.1 2.68, 448.05 0 M0 0 C132.81 -1.33, 265.94 -0.69, 448.05 0 M448.05 0 C446.69 136.17, 447.59 271.27, 448.05 474.4 M448.05 0 C449.63 104.39, 449.43 209.53, 448.05 474.4 M448.05 474.4 C277.13 475.53, 108.72 474.28, 0 474.4 M448.05 474.4 C330.04 475.01, 211.54 474.81, 0 474.4 M0 474.4 C-0.59 336.91, -1.03 198.63, 0 0 M0 474.4 C-0.98 362.76, -1.27 251.87, 0 0" stroke="#000000" stroke-width="4" fill="none"></path></g><g stroke-linecap="round" transform="translate(3472.9069142532007 3374.169636225535) rotate(0 224.02371104979557 237.20157640566595)"><path d="M0 0 C99.64 1.25, 197.49 0.65, 448.05 0 M0 0 C158.27 1.3, 315.66 0.68, 448.05 0 M448.05 0 C446.74 109.56, 445.79 220.52, 448.05 474.4 M448.05 0 C446.74 105.98, 447.49 211.98, 448.05 474.4 M448.05 474.4 C309.58 476.03, 169.02 475.82, 0 474.4 M448.05 474.4 C295.43 472.71, 143.07 473.33, 0 474.4 M0 474.4 C-0.51 377.77, -0.68 280.25, 0 0 M0 474.4 C0.05 327.36, 0.14 179.55, 0 0" stroke="#000000" stroke-width="4" fill="none"></path></g><g stroke-linecap="round" transform="translate(3920.954336352741 3374.169636225535) rotate(0 224.02371104979557 237.20157640566595)"><path d="M0 0 C127.94 -1.77, 256.46 -2.01, 448.05 0 M448.05 0 C449.7 123.73, 449.21 247.4, 448.05 474.4 M448.05 474.4 C294.06 474.42, 140.86 473.18, 0 474.4 M0 474.4 C2.57 374.79, 1.96 274.75, 0 0" stroke="#000000" stroke-width="4.5" fill="none" stroke-dasharray="1.5 10"></path></g><g stroke-linecap="round" transform="translate(4360.216514881804 3374.169636225535) rotate(0 224.02371104979557 237.20157640566595)"><path d="M0 0 C178.26 -0.65, 355.12 0.07, 448.05 0 M448.05 0 C447.15 186.1, 448.13 373.75, 448.05 474.4 M448.05 474.4 C329.38 475.82, 211.32 475.38, 0 474.4 M0 474.4 C-1.58 337.13, -0.86 202.13, 0 0" stroke="#000000" stroke-width="4.5" fill="none" stroke-dasharray="1.5 10"></path></g><g stroke-linecap="round" transform="translate(4808.263936981364 3374.169636225535) rotate(0 224.02371104979557 237.20157640566595)"><path d="M0 0 C149.45 0.6, 300.57 -0.35, 448.05 0 M448.05 0 C446.98 126.64, 446.29 252.09, 448.05 474.4 M448.05 474.4 C274.95 472.59, 103.5 474.23, 0 474.4 M0 474.4 C0.58 341.1, -0.56 205.89, 0 0" stroke="#000000" stroke-width="4.5" fill="none" stroke-dasharray="1.5 10"></path></g><g transform="translate(850.242664014655 3552.2291331168144) rotate(0 157.01033449319357 74.8563244024499)"><text x="0" y="0" font-family="Virgil, Segoe UI Emoji" font-size="117.17954966197506px" fill="#000000" text-anchor="start" style="white-space: pre;" direction="ltr" dominant-baseline="text-before-edge">WAL0</text></g><g transform="translate(1290.3325519145692 3543.137819129037) rotate(0 132.6620809570452 74.8563244024499)"><text x="0" y="0" font-family="Virgil, Segoe UI Emoji" font-size="117.17954966197506px" fill="#000000" text-anchor="start" style="white-space: pre;" direction="ltr" dominant-baseline="text-before-edge">WAL1</text></g><g transform="translate(1751.428660134944 3543.137819129035) rotate(0 158.4061578189794 74.8563244024499)"><text x="0" y="0" font-family="Virgil, Segoe UI Emoji" font-size="117.17954966197506px" fill="#000000" text-anchor="start" style="white-space: pre;" direction="ltr" dominant-baseline="text-before-edge">WAL2</text></g><g transform="translate(2190.213666344657 3543.137819129035) rotate(0 156.59747849589007 74.8563244024499)"><text x="0" y="0" font-family="Virgil, Segoe UI Emoji" font-size="117.17954966197506px" fill="#000000" text-anchor="start" style="white-space: pre;" direction="ltr" dominant-baseline="text-before-edge">WAL3</text></g><g transform="translate(2666.18384257214 3528.2637511219236) rotate(0 154.20886050817808 74.8563244024499)"><text x="0" y="0" font-family="Virgil, Segoe UI Emoji" font-size="117.17954966197506px" fill="#000000" text-anchor="start" style="white-space: pre;" direction="ltr" dominant-baseline="text-before-edge">WAL4</text></g><g transform="translate(3104.968848781851 3543.1378191290314) rotate(0 152.92115584905014 74.8563244024499)"><text x="0" y="0" font-family="Virgil, Segoe UI Emoji" font-size="117.17954966197506px" fill="#000000" text-anchor="start" style="white-space: pre;" direction="ltr" dominant-baseline="text-before-edge">WAL5</text></g><g transform="translate(3543.7538549915653 3543.137819129037) rotate(0 154.20886050817808 74.8563244024499)"><text x="0" y="0" font-family="Virgil, Segoe UI Emoji" font-size="117.17954966197506px" fill="#000000" text-anchor="start" style="white-space: pre;" direction="ltr" dominant-baseline="text-before-edge">WAL6</text></g><g stroke-linecap="round" transform="translate(770.9134193419377 5485.473190131726) rotate(0 224.02371104979557 237.20157640566595)"><path d="M0 0 C161.41 1.39, 323.34 0.35, 448.05 0 M0 0 C177.71 0.16, 354.83 0.6, 448.05 0 M448.05 0 C448.3 136.33, 448.49 271.12, 448.05 474.4 M448.05 0 C449.01 176.28, 449.16 351.81, 448.05 474.4 M448.05 474.4 C303.41 474.76, 159.04 475.09, 0 474.4 M448.05 474.4 C318.65 473.72, 189.2 473.84, 0 474.4 M0 474.4 C-1.62 367.15, -2.15 260.41, 0 0 M0 474.4 C1.99 305.67, 1.21 137.8, 0 0" stroke="#000000" stroke-width="4" fill="none"></path></g><g stroke-linecap="round" transform="translate(1218.9608414414379 5485.473190131726) rotate(0 224.02371104979557 237.20157640566595)"><path d="M0 0 C0 0, 0 0, 0 0 M0 0 C0 0, 0 0, 0 0 M0.27 24.08 C7.91 14.89, 14.11 5.87, 21.26 -0.07 M0.27 24.08 C7.63 17.04, 13.87 8.12, 21.26 -0.07 M-0.12 48.92 C13.53 31.39, 28.65 14.5, 42.52 -0.14 M-0.12 48.92 C10.33 36.77, 21.23 26.17, 42.52 -0.14 M0.14 73 C22.38 45.33, 46.62 17.99, 63.78 -0.21 M0.14 73 C20.93 48.79, 41.28 25.94, 63.78 -0.21 M-0.25 97.84 C20.56 73.07, 41.2 49.61, 85.04 -0.28 M-0.25 97.84 C20.78 73.18, 40.45 49.43, 85.04 -0.28 M0.02 121.92 C41.48 75.38, 81.23 25.09, 106.3 -0.34 M0.02 121.92 C32.8 83.92, 66.01 46.69, 106.3 -0.34 M0.29 146 C30.52 111.2, 61.83 75.76, 126.91 0.34 M0.29 146 C48.94 87.71, 97.13 32.97, 126.91 0.34 M-0.1 170.84 C49.27 112.33, 101.86 54.11, 148.17 0.27 M-0.1 170.84 C39.43 124.74, 80.41 77.8, 148.17 0.27 M0.16 194.92 C51.34 137.47, 99.49 78.06, 169.43 0.2 M0.16 194.92 C50.12 137, 102.46 78.49, 169.43 0.2 M-0.23 219.75 C53.47 161.03, 103.93 102.08, 190.69 0.13 M-0.23 219.75 C48.45 163.71, 96.1 106.65, 190.69 0.13 M0.04 243.84 C78.63 157.32, 154.22 67.07, 211.95 0.06 M0.04 243.84 C80.22 149.72, 161.82 56.57, 211.95 0.06 M0.3 267.92 C67.94 186.21, 139.58 106.95, 233.21 0 M0.3 267.92 C81 177.16, 161.34 85.15, 233.21 0 M-0.08 292.75 C99.23 180.33, 197.4 67.15, 254.47 -0.07 M-0.08 292.75 C97.48 178.38, 195.21 66.41, 254.47 -0.07 M0.18 316.84 C64.95 243.94, 130.22 169.37, 275.73 -0.14 M0.18 316.84 C82.22 222.27, 165.41 126.13, 275.73 -0.14 M-0.21 341.67 C87.14 240.04, 175.01 139.88, 296.99 -0.21 M-0.21 341.67 C64.35 266.2, 128.98 191.96, 296.99 -0.21 M0.06 365.75 C120.81 225.06, 243.42 83.52, 318.25 -0.28 M0.06 365.75 C109.45 240, 219.16 114.51, 318.25 -0.28 M0.32 389.84 C75 304.98, 148.91 220.41, 339.51 -0.35 M0.32 389.84 C119.97 252.55, 240.38 114.85, 339.51 -0.35 M-0.07 414.67 C123.56 273.68, 247.36 131.63, 360.11 0.34 M-0.07 414.67 C126.98 269.25, 251.75 125.12, 360.11 0.34 M0.2 438.75 C103.01 323.14, 205.03 205.62, 381.37 0.27 M0.2 438.75 C85.44 341.43, 170.78 242.65, 381.37 0.27 M-0.19 463.59 C156.94 280.21, 315.65 98.14, 402.63 0.2 M-0.19 463.59 C98.58 348.36, 199.89 232.46, 402.63 0.2 M11.23 474.84 C155.85 309.18, 298.22 143.43, 423.89 0.13 M11.23 474.84 C102.58 371.22, 193.73 266.04, 423.89 0.13 M32.49 474.77 C161.73 325.2, 291.96 174.92, 445.15 0.06 M32.49 474.77 C132.99 357.59, 232.72 241.98, 445.15 0.06 M53.75 474.7 C196.81 312.7, 338.27 148.31, 448.7 20.37 M53.75 474.7 C170.56 343.12, 285.86 209.82, 448.7 20.37 M75.01 474.63 C214.82 313, 354.03 152.76, 448.96 44.45 M75.01 474.63 C219.16 308.82, 362.56 142.91, 448.96 44.45 M96.27 474.57 C234.1 317.23, 371.06 161.09, 448.57 69.29 M96.27 474.57 C216.67 335.45, 339.36 194.7, 448.57 69.29 M116.88 475.25 C224.75 350.71, 332.46 226.38, 448.84 93.37 M116.88 475.25 C243.23 327.02, 371.53 179.92, 448.84 93.37 M138.14 475.18 C234.55 365.53, 329.06 254.78, 448.45 118.21 M138.14 475.18 C217.74 383.79, 295.96 293.39, 448.45 118.21 M159.4 475.11 C220.41 403.88, 283.2 330.9, 448.72 142.29 M159.4 475.11 C223.83 401.19, 287.09 328.75, 448.72 142.29 M180.66 475.04 C286.54 353.81, 391.79 230.65, 448.98 166.37 M180.66 475.04 C243.11 401.75, 307.82 327.59, 448.98 166.37 M201.92 474.98 C297.83 363.71, 392.6 252.74, 448.59 191.2 M201.92 474.98 C279.4 383.28, 358 292.59, 448.59 191.2 M223.18 474.91 C288.33 396.89, 356.76 320.28, 448.86 215.29 M223.18 474.91 C289.7 397.1, 356.24 321.37, 448.86 215.29 M244.44 474.84 C300.96 411.47, 355.34 346.83, 448.47 240.12 M244.44 474.84 C324.03 386.83, 400.58 297.54, 448.47 240.12 M265.7 474.77 C316.74 416.82, 364.85 359.92, 448.74 264.2 M265.7 474.77 C330.73 398.16, 396.94 322.17, 448.74 264.2 M286.96 474.7 C350.52 403.27, 413.77 331.97, 449 288.29 M286.96 474.7 C342.12 409.82, 399.5 345.56, 449 288.29 M308.22 474.63 C357.36 415.92, 410.3 359.81, 448.61 313.12 M308.22 474.63 C359.01 418.09, 408.32 361.68, 448.61 313.12 M329.48 474.56 C368.95 427.72, 408.55 382.47, 448.88 337.2 M329.48 474.56 C358.78 440.78, 387.71 408.46, 448.88 337.2 M350.08 475.25 C387.69 433.1, 425.75 386.86, 448.49 362.04 M350.08 475.25 C381.98 439.8, 414.56 402.67, 448.49 362.04 M371.34 475.18 C388.95 456.33, 407.06 435.8, 448.76 386.12 M371.34 475.18 C395.83 445.56, 420.67 416.98, 448.76 386.12 M392.6 475.11 C412.36 451.52, 434.51 428.53, 448.37 410.96 M392.6 475.11 C410.62 456.41, 428.02 437.1, 448.37 410.96 M413.86 475.04 C421.36 463.01, 431.33 455.3, 448.63 435.04 M413.86 475.04 C424.32 462.17, 435.79 449, 448.63 435.04 M435.12 474.97 C437.96 468.03, 443.09 464.06, 448.9 459.12 M435.12 474.97 C439.57 469.62, 441.95 465.05, 448.9 459.12" stroke="#ffc9c9" stroke-width="2" fill="none"></path><path d="M0 0 C114.18 -1.59, 230.4 -1.79, 448.05 0 M0 0 C131.04 0.39, 262.87 0.19, 448.05 0 M448.05 0 C445.36 154.37, 446.65 308.95, 448.05 474.4 M448.05 0 C447.88 136.71, 447.89 274.39, 448.05 474.4 M448.05 474.4 C297.59 473.23, 145.53 473.04, 0 474.4 M448.05 474.4 C320.81 472.66, 193.03 473.22, 0 474.4 M0 474.4 C-0.35 324.28, 0.81 172.91, 0 0 M0 474.4 C-2.39 286.96, -2.06 98.86, 0 0" stroke="#000000" stroke-width="4" fill="none"></path></g><g stroke-linecap="round" transform="translate(1667.6122490365187 5485.473190131726) rotate(0 224.02371104979557 237.20157640566595)"><path d="M0 0 C0 0, 0 0, 0 0 M0 0 C0 0, 0 0, 0 0 M0.27 24.08 C6.14 15.13, 14.48 9.48, 21.26 -0.07 M0.27 24.08 C4.71 18.32, 9.2 13.6, 21.26 -0.07 M-0.12 48.92 C10.71 35.26, 20.42 24.18, 42.52 -0.14 M-0.12 48.92 C9.43 39.53, 18.37 28.94, 42.52 -0.14 M0.14 73 C16.93 52.86, 34.76 32.9, 63.78 -0.21 M0.14 73 C18.94 51.6, 37.15 30.37, 63.78 -0.21 M-0.25 97.84 C25.5 68.01, 49.3 40.39, 85.04 -0.28 M-0.25 97.84 C30.97 60.82, 64.99 24.29, 85.04 -0.28 M0.02 121.92 C36.69 76.48, 74.21 34.19, 106.3 -0.34 M0.02 121.92 C28.07 90.84, 55.94 58.76, 106.3 -0.34 M0.29 146 C31.45 110.58, 61.81 78.51, 126.91 0.34 M0.29 146 C48.81 90.8, 98.9 33.46, 126.91 0.34 M-0.1 170.84 C45.57 120.41, 89 70.02, 148.17 0.27 M-0.1 170.84 C36.4 129.34, 73.27 86.74, 148.17 0.27 M0.16 194.92 C57.25 125.39, 117.87 58.4, 169.43 0.2 M0.16 194.92 C50.39 139.22, 97.82 82.89, 169.43 0.2 M-0.23 219.75 C36.6 176.36, 75.36 131.15, 190.69 0.13 M-0.23 219.75 C62.75 143.59, 128.58 69.25, 190.69 0.13 M0.04 243.84 C41.28 192.72, 85.97 143.98, 211.95 0.06 M0.04 243.84 C77.96 155.46, 154.88 67.25, 211.95 0.06 M0.3 267.92 C85.36 173.54, 167.79 77.33, 233.21 0 M0.3 267.92 C47.51 213.11, 95.32 157.29, 233.21 0 M-0.08 292.75 C66.3 216.28, 134.17 139.85, 254.47 -0.07 M-0.08 292.75 C98.25 181.49, 196.24 68.91, 254.47 -0.07 M0.18 316.84 C66.33 240.61, 131.48 164.79, 275.73 -0.14 M0.18 316.84 C69.32 234.82, 139 154.35, 275.73 -0.14 M-0.21 341.67 C80.33 250.15, 160.13 157.43, 296.99 -0.21 M-0.21 341.67 C109.05 214.89, 219.5 87.96, 296.99 -0.21 M0.06 365.75 C103.89 246.35, 207.7 128.56, 318.25 -0.28 M0.06 365.75 C83.85 270.09, 167.25 172.75, 318.25 -0.28 M0.32 389.84 C95.1 281.73, 190.13 173.25, 339.51 -0.35 M0.32 389.84 C69.57 312.3, 138.27 232.94, 339.51 -0.35 M-0.07 414.67 C98.25 302.22, 195.69 189.85, 360.11 0.34 M-0.07 414.67 C130.03 263.18, 262.35 110.84, 360.11 0.34 M0.2 438.75 C81.19 344.98, 160.87 252.88, 381.37 0.27 M0.2 438.75 C80.99 343.43, 163.99 248.76, 381.37 0.27 M-0.19 463.59 C133.38 310.57, 266.13 157.8, 402.63 0.2 M-0.19 463.59 C104.95 345.08, 208.11 226.52, 402.63 0.2 M6.64 480.12 C128.19 337.36, 252.41 195.07, 423.89 0.13 M6.64 480.12 C94.36 378.93, 182.55 277.84, 423.89 0.13 M27.9 480.06 C176.45 309.26, 323.35 140.63, 445.15 0.06 M27.9 480.06 C186.62 295.28, 348.29 110.11, 445.15 0.06 M49.16 479.99 C148.29 362.37, 249.05 245.87, 458.54 9.05 M49.16 479.99 C148.58 363.91, 248.63 249.24, 458.54 9.05 M70.42 479.92 C212.92 317.04, 355.9 154.34, 458.81 33.13 M70.42 479.92 C212.3 313.82, 355.44 149.54, 458.81 33.13 M91.68 479.85 C188.85 370.15, 285.59 259.36, 458.42 57.97 M91.68 479.85 C178.53 380.52, 263.53 282.31, 458.42 57.97 M112.94 479.78 C249.9 321.61, 386.92 165.6, 458.68 82.05 M112.94 479.78 C242.87 331.84, 371.58 183.8, 458.68 82.05 M133.54 480.47 C210.87 388.92, 290.31 297.52, 458.29 106.88 M133.54 480.47 C248.22 349.16, 362.92 217.96, 458.29 106.88 M154.8 480.4 C233.14 389.65, 310.57 300.05, 458.56 130.97 M154.8 480.4 C255.54 365.06, 357.46 248.17, 458.56 130.97 M176.06 480.33 C281.08 356.74, 385.49 237.05, 458.82 155.05 M176.06 480.33 C245.56 401.94, 314.31 323.97, 458.82 155.05 M197.32 480.26 C288.84 372.79, 382.95 266.96, 458.43 179.88 M197.32 480.26 C285.29 378.85, 374.31 276.95, 458.43 179.88 M218.58 480.19 C298.72 390.6, 377 300.16, 458.7 203.97 M218.58 480.19 C312.87 372.57, 406.6 263.66, 458.7 203.97 M239.84 480.12 C301.94 406.55, 367.11 332.68, 458.31 228.8 M239.84 480.12 C290.51 419.51, 343.17 358.62, 458.31 228.8 M261.1 480.05 C312.99 418.83, 368.88 358.7, 458.58 252.88 M261.1 480.05 C332.44 398.05, 404.42 315.12, 458.58 252.88 M282.36 479.98 C326.29 430.78, 368.81 382.76, 458.19 277.72 M282.36 479.98 C326.27 431.85, 369.12 382.15, 458.19 277.72 M303.62 479.91 C347.04 434.13, 387.33 385.21, 458.45 301.8 M303.62 479.91 C359.12 415.74, 414.53 350.78, 458.45 301.8 M324.88 479.84 C377.5 419.49, 430.81 356.86, 458.72 325.88 M324.88 479.84 C367.97 431.07, 410.79 381.38, 458.72 325.88 M346.14 479.78 C374.53 444.68, 404.15 412.22, 458.33 350.72 M346.14 479.78 C376.49 445.39, 405.22 412.19, 458.33 350.72 M366.75 480.46 C396.8 447.44, 424.96 414.52, 458.6 374.8 M366.75 480.46 C403.52 438.07, 439.96 396.51, 458.6 374.8 M388.01 480.39 C408.12 459.06, 427.68 433.43, 458.21 399.64 M388.01 480.39 C402.45 464.69, 415.58 447.9, 458.21 399.64 M409.27 480.32 C427.58 460.78, 445.62 439.04, 458.47 423.72 M409.27 480.32 C427.27 459.3, 445.82 438.85, 458.47 423.72 M430.53 480.25 C436.98 471.57, 445.56 463.68, 458.74 447.8 M430.53 480.25 C439.78 467.7, 451.08 455.74, 458.74 447.8" stroke="#ffc9c9" stroke-width="2" fill="none"></path><path d="M0 0 C155.4 0.55, 308.85 1.53, 448.05 0 M0 0 C135.72 -1.79, 271.71 -2.52, 448.05 0 M448.05 0 C447.1 186.91, 446.38 372.86, 448.05 474.4 M448.05 0 C448.59 160.14, 448.65 320.1, 448.05 474.4 M448.05 474.4 C334.85 473.78, 221.72 474.23, 0 474.4 M448.05 474.4 C344.62 473.78, 241.99 473.36, 0 474.4 M0 474.4 C2.07 336.94, 2.43 201.66, 0 0 M0 474.4 C1.61 360, 1.72 245.78, 0 0" stroke="#1e1e1e" stroke-width="4" fill="none"></path></g><g stroke-linecap="round" transform="translate(2115.659671136227 5485.473190131726) rotate(0 224.02371104979557 237.20157640566595)"><path d="M0 0 C106.25 2, 212.66 0.97, 448.05 0 M0 0 C176.65 -1.62, 353.51 -1.52, 448.05 0 M448.05 0 C449.45 148.24, 449.87 296.89, 448.05 474.4 M448.05 0 C448.7 97.52, 448.33 195.16, 448.05 474.4 M448.05 474.4 C319.66 473.81, 190.91 473.86, 0 474.4 M448.05 474.4 C333.58 475.87, 218.89 475.58, 0 474.4 M0 474.4 C-0.31 316.92, -1.68 157.03, 0 0 M0 474.4 C0.14 294.96, 0.41 115.04, 0 0" stroke="#000000" stroke-width="4" fill="none"></path></g><g stroke-linecap="round" transform="translate(2568.0997150210196 5485.473190131726) rotate(0 224.02371104979557 237.20157640566595)"><path d="M0 0 C96.82 -1.24, 194.5 -0.51, 448.05 0 M0 0 C158.58 1.74, 316.31 2.45, 448.05 0 M448.05 0 C448.15 165.55, 446.98 330.95, 448.05 474.4 M448.05 0 C448.62 157.92, 448.77 315.1, 448.05 474.4 M448.05 474.4 C327.8 474.88, 208.48 473.98, 0 474.4 M448.05 474.4 C281.84 473.7, 115.92 474.34, 0 474.4 M0 474.4 C-2.53 366.5, -1.31 259.93, 0 0 M0 474.4 C-0.12 328.33, -0.8 181.77, 0 0" stroke="#000000" stroke-width="4" fill="none"></path></g><g stroke-linecap="round" transform="translate(3016.147137120658 5485.473190131726) rotate(0 224.02371104979557 237.20157640566595)"><path d="M0 0 C142.94 1.8, 284.56 2.18, 448.05 0 M0 0 C91.23 1.98, 182.57 1.58, 448.05 0 M448.05 0 C447.99 136.68, 449.11 273.29, 448.05 474.4 M448.05 0 C446.99 154.03, 446.9 308.09, 448.05 474.4 M448.05 474.4 C307.1 474.08, 167.7 474.97, 0 474.4 M448.05 474.4 C320.64 473.03, 192.54 473.23, 0 474.4 M0 474.4 C1.93 285.66, 1.3 97.16, 0 0 M0 474.4 C-2.06 303.73, -1.48 134.27, 0 0" stroke="#000000" stroke-width="4" fill="none"></path></g><g stroke-linecap="round" transform="translate(3464.1945592202774 5485.473190131726) rotate(0 224.02371104979557 237.20157640566595)"><path d="M0 0 C95.11 0.56, 188.24 1.22, 448.05 0 M0 0 C101.05 -1.61, 201.57 -1.37, 448.05 0 M448.05 0 C446.34 152.48, 446.28 303.88, 448.05 474.4 M448.05 0 C447.61 178.86, 447.82 357.56, 448.05 474.4 M448.05 474.4 C306.19 472.95, 162.8 472.67, 0 474.4 M448.05 474.4 C346.99 476.07, 247.13 475.32, 0 474.4 M0 474.4 C-1.58 368.8, -1.13 263.51, 0 0 M0 474.4 C1.76 327.25, 1.51 179.25, 0 0" stroke="#000000" stroke-width="4" fill="none"></path></g><g stroke-linecap="round" transform="translate(3912.2419813198176 5485.473190131726) rotate(0 224.02371104979557 237.20157640566595)"><path d="M0 0 C127.04 0.36, 255.22 -0.42, 448.05 0 M0 0 C166.27 0.42, 332.76 -0.22, 448.05 0 M448.05 0 C448.94 152.98, 449.41 306.68, 448.05 474.4 M448.05 0 C447.41 136.77, 447.43 273.97, 448.05 474.4 M448.05 474.4 C346.7 474.66, 244.93 475.1, 0 474.4 M448.05 474.4 C289.41 476.21, 129.44 476.88, 0 474.4 M0 474.4 C0.35 333.72, -0.07 190.95, 0 0 M0 474.4 C-1.24 373.77, -1.27 273.11, 0 0" stroke="#000000" stroke-width="4" fill="none"></path></g><g stroke-linecap="round" transform="translate(4351.5041598488815 5485.473190131726) rotate(0 224.02371104979557 237.20157640566595)"><path d="M0 0 C144.96 -1.91, 292.07 -1.56, 448.05 0 M448.05 0 C447.97 136.29, 448 274.54, 448.05 474.4 M448.05 474.4 C297.59 473.23, 145.53 473.04, 0 474.4 M0 474.4 C-0.13 339.19, -0.94 205.4, 0 0" stroke="#000000" stroke-width="4.5" fill="none" stroke-dasharray="1.5 10"></path></g><g stroke-linecap="round" transform="translate(4799.551581948442 5485.473190131726) rotate(0 224.02371104979557 237.20157640566595)"><path d="M0 0 C176.82 0.2, 352.14 -0.4, 448.05 0 M448.05 0 C448.69 160.28, 448.81 320.21, 448.05 474.4 M448.05 474.4 C334.85 473.78, 221.72 474.23, 0 474.4 M0 474.4 C-1.04 365.9, -0.23 256, 0 0" stroke="#000000" stroke-width="4.5" fill="none" stroke-dasharray="1.5 10"></path></g><g transform="translate(841.5303089817321 5663.532687023006) rotate(0 157.01033449319357 74.8563244024499)"><text x="0" y="0" font-family="Virgil, Segoe UI Emoji" font-size="117.17954966197506px" fill="#000000" text-anchor="start" style="white-space: pre;" direction="ltr" dominant-baseline="text-before-edge">WAL0</text></g><g transform="translate(2181.5013113117348 5654.441373035224) rotate(0 156.59747849589007 74.8563244024499)"><text x="0" y="0" font-family="Virgil, Segoe UI Emoji" font-size="117.17954966197506px" fill="#000000" text-anchor="start" style="white-space: pre;" direction="ltr" dominant-baseline="text-before-edge">WAL3</text></g><g transform="translate(2657.4714875392174 5639.567305028113) rotate(0 154.20886050817808 74.8563244024499)"><text x="0" y="0" font-family="Virgil, Segoe UI Emoji" font-size="117.17954966197506px" fill="#000000" text-anchor="start" style="white-space: pre;" direction="ltr" dominant-baseline="text-before-edge">WAL4</text></g><g transform="translate(3096.256493748928 5654.441373035224) rotate(0 152.92115584905014 74.8563244024499)"><text x="0" y="0" font-family="Virgil, Segoe UI Emoji" font-size="117.17954966197506px" fill="#000000" text-anchor="start" style="white-space: pre;" direction="ltr" dominant-baseline="text-before-edge">WAL5</text></g><g transform="translate(3535.041499958643 5654.441373035228) rotate(0 154.20886050817808 74.8563244024499)"><text x="0" y="0" font-family="Virgil, Segoe UI Emoji" font-size="117.17954966197506px" fill="#000000" text-anchor="start" style="white-space: pre;" direction="ltr" dominant-baseline="text-before-edge">WAL6</text></g><g transform="translate(3988.7005741754638 5654.441373035224) rotate(0 148.25203854028405 74.8563244024499)"><text x="0" y="0" font-family="Virgil, Segoe UI Emoji" font-size="117.17954966197506px" fill="#000000" text-anchor="start" style="white-space: pre;" direction="ltr" dominant-baseline="text-before-edge">WAL7</text></g><g stroke-linecap="round"><g transform="translate(2109.375097264897 2725.5500631049526) rotate(0 0.02179595970983428 301.2310156454705)"><path d="M-0.04 0.1 C-0.02 100.5, 0.07 502, 0.08 602.37" stroke="#1e1e1e" stroke-width="4.5" fill="none" stroke-dasharray="8 12"></path></g></g><mask></mask><g transform="translate(1380.5457649165637 2695.801927090737) rotate(0 329.8497169499965 72.90839490051712)"><text x="0" y="0" font-family="Virgil, Segoe UI Emoji" font-size="116.65343184082792px" fill="#e03131" text-anchor="start" style="white-space: pre;" direction="ltr" dominant-baseline="text-before-edge">REDO point</text></g><g stroke-linecap="round" transform="translate(1834.2048391333838 3313.0757493857545) rotate(0 63.21478903021239 55.77775502665827)"><path d="M92.91 5.75 C101.44 8.82, 108.89 17.62, 114.42 24.69 C119.95 31.76, 124.76 39.79, 126.09 48.15 C127.42 56.52, 125.96 66.6, 122.38 74.9 C118.79 83.2, 111.83 91.97, 104.57 97.94 C97.31 103.91, 88.34 108.86, 78.8 110.73 C69.26 112.6, 56.91 111.44, 47.34 109.15 C37.76 106.85, 28.66 102.71, 21.36 96.95 C14.06 91.19, 6.96 82.52, 3.55 74.58 C0.13 66.65, -0.51 57.94, 0.88 49.35 C2.27 40.76, 6.26 30.37, 11.91 23.06 C17.56 15.74, 26.11 9.34, 34.78 5.45 C43.45 1.55, 53.18 -0.95, 63.93 -0.31 C74.68 0.33, 92.77 7.05, 99.25 9.29 C105.73 11.54, 103.59 12.47, 102.81 13.18" stroke="none" stroke-width="0" fill="#ffc9c9"></path><path d="M87.49 4.07 C96.6 6.22, 105.53 12.54, 111.68 18.98 C117.83 25.41, 122.35 34.06, 124.39 42.67 C126.44 51.28, 126.52 62.1, 123.97 70.64 C121.43 79.17, 115.83 87.57, 109.14 93.88 C102.44 100.19, 92.8 105.63, 83.79 108.51 C74.78 111.39, 64.57 112.26, 55.09 111.17 C45.6 110.09, 34.9 107.04, 26.89 102.01 C18.89 96.98, 11.42 88.73, 7.06 80.99 C2.69 73.25, 0.54 64.1, 0.71 55.59 C0.88 47.07, 3.38 37.59, 8.08 29.91 C12.77 22.23, 20.96 14.46, 28.9 9.51 C36.83 4.57, 45.61 1.02, 55.67 0.23 C65.73 -0.56, 83.11 3.51, 89.27 4.78 C95.44 6.04, 93.07 6.77, 92.65 7.83" stroke="#e03131" stroke-width="4.5" fill="none" stroke-dasharray="8 12"></path></g><g stroke-linecap="round"><g transform="translate(4333.0010512683075 2729.287904745588) rotate(0 -0.024323321979863977 301.1431692670658)"><path d="M0.03 -0.14 C0.03 100.27, -0.08 502.02, -0.08 602.43" stroke="#1e1e1e" stroke-width="4.5" fill="none" stroke-dasharray="8 12"></path></g></g><mask></mask><g transform="translate(3254.631120752916 2506.1768846389623) rotate(0 517.4273205663776 218.72518470155228)"><text x="0" y="0" font-family="Virgil, Segoe UI Emoji" font-size="116.65343184082792px" fill="#e03131" text-anchor="start" style="white-space: pre;" direction="ltr" dominant-baseline="text-before-edge">The estimated</text><text x="0" y="145.8167898010349" font-family="Virgil, Segoe UI Emoji" font-size="116.65343184082792px" fill="#e03131" text-anchor="start" style="white-space: pre;" direction="ltr" dominant-baseline="text-before-edge">number of needed</text><text x="0" y="291.6335796020698" font-family="Virgil, Segoe UI Emoji" font-size="116.65343184082792px" fill="#e03131" text-anchor="start" style="white-space: pre;" direction="ltr" dominant-baseline="text-before-edge">WAL segment files</text></g><g stroke-linecap="round"><g transform="translate(2113.099409285188 4882.981519041725) rotate(0 0.005044708095283568 301.16507587747674)"><path d="M0.09 -0.13 C0.09 100.28, -0.05 502.02, -0.08 602.46" stroke="#1e1e1e" stroke-width="4.5" fill="none" stroke-dasharray="8 12"></path></g></g><mask></mask><g transform="translate(1413.7592767791234 4894.51826280668) rotate(0 330.23972889963466 145.81678980103516)"><text x="0" y="0" font-family="Virgil, Segoe UI Emoji" font-size="116.65343184082792px" fill="#e03131" text-anchor="start" style="white-space: pre;" direction="ltr" dominant-baseline="text-before-edge">Previous </text><text x="0" y="145.8167898010349" font-family="Virgil, Segoe UI Emoji" font-size="116.65343184082792px" fill="#e03131" text-anchor="start" style="white-space: pre;" direction="ltr" dominant-baseline="text-before-edge">REDO point</text></g><g stroke-linecap="round" transform="translate(1837.9291511536758 5423.324485574893) rotate(0 63.21478903021239 55.77775502665827)"><path d="M35.29 5.28 C43.16 0.85, 54.78 -0.4, 64.65 0.05 C74.53 0.49, 86.02 3.6, 94.53 7.95 C103.05 12.3, 110.48 18.94, 115.75 26.13 C121.01 33.32, 125.01 42.81, 126.15 51.11 C127.29 59.4, 126.24 68.16, 122.6 75.92 C118.96 83.67, 111.83 91.8, 104.29 97.63 C96.75 103.45, 86.94 108.95, 77.34 110.89 C67.73 112.84, 56.32 111.75, 46.66 109.3 C36.99 106.84, 26.47 101.93, 19.35 96.16 C12.24 90.38, 7.21 82.79, 3.94 74.66 C0.68 66.53, -1.73 55.94, -0.22 47.38 C1.29 38.82, 6.8 30.22, 13.01 23.3 C19.22 16.37, 32.64 8.9, 37.05 5.82 C41.46 2.73, 39.16 3.98, 39.45 4.79" stroke="none" stroke-width="0" fill="#ffc9c9"></path><path d="M48.05 1.93 C56.81 -0.66, 68.43 0.37, 78.12 2.39 C87.81 4.41, 98.9 8.28, 106.2 14.06 C113.49 19.84, 118.68 29.04, 121.86 37.05 C125.04 45.07, 126.54 53.54, 125.28 62.13 C124.03 70.73, 119.73 81.54, 114.32 88.63 C108.91 95.72, 101.5 100.9, 92.85 104.69 C84.19 108.48, 72.35 111.42, 62.39 111.36 C52.43 111.3, 41.76 108.39, 33.09 104.35 C24.42 100.31, 15.95 94.28, 10.37 87.12 C4.78 79.96, 0.47 70.08, -0.44 61.39 C-1.34 52.71, 1.31 43, 4.94 34.99 C8.57 26.98, 13.05 19.19, 21.34 13.35 C29.63 7.5, 48.14 2.11, 54.69 -0.07 C61.23 -2.26, 60.59 -0.91, 60.61 0.23" stroke="#e03131" stroke-width="4.5" fill="none" stroke-dasharray="8 12"></path></g><g stroke-linecap="round"><g transform="translate(4336.7253632886 4839.536640934728) rotate(0 -0.029416304370897706 301.1148366268653)"><path d="M-0.07 -0.06 C-0.05 100.31, -0.01 501.9, 0.01 602.29" stroke="#1e1e1e" stroke-width="4.5" fill="none" stroke-dasharray="8 12"></path></g></g><mask></mask><g transform="translate(3258.3554327732063 4616.4256208281) rotate(0 517.4273205663776 218.72518470155228)"><text x="0" y="0" font-family="Virgil, Segoe UI Emoji" font-size="116.65343184082792px" fill="#e03131" text-anchor="start" style="white-space: pre;" direction="ltr" dominant-baseline="text-before-edge">The estimated</text><text x="0" y="145.8167898010349" font-family="Virgil, Segoe UI Emoji" font-size="116.65343184082792px" fill="#e03131" text-anchor="start" style="white-space: pre;" direction="ltr" dominant-baseline="text-before-edge">number of needed</text><text x="0" y="291.6335796020698" font-family="Virgil, Segoe UI Emoji" font-size="116.65343184082792px" fill="#e03131" text-anchor="start" style="white-space: pre;" direction="ltr" dominant-baseline="text-before-edge">WAL segment files</text></g><g stroke-linecap="round"><g transform="translate(919.449656696187 6012.719092676014) rotate(0 1619.6273402673091 124.7781922723143)"><path d="M2.65 0.27 C299.7 46.59, 1241.56 280.26, 1779.94 275.3 C2318.33 270.34, 2990.13 21.75, 3232.95 -29.49 M0.64 -2.05 C297.75 45, 1239.39 283.02, 1779.05 278.99 C2318.72 274.96, 2995.38 25.39, 3238.62 -26.24" stroke="#2f9e44" stroke-width="4" fill="none"></path></g><g transform="translate(919.449656696187 6012.719092676014) rotate(0 1619.6273402673091 124.7781922723143)"><path d="M3214.53 -5.33 C3219.93 -16.17, 3225.4 -14.28, 3235.24 -24.6 M3214.97 -7.81 C3222.98 -15.52, 3230.14 -19.67, 3240.25 -25.75" stroke="#2f9e44" stroke-width="4" fill="none"></path></g><g transform="translate(919.449656696187 6012.719092676014) rotate(0 1619.6273402673091 124.7781922723143)"><path d="M3209.1 -25.12 C3215.3 -31.79, 3221.94 -25.63, 3235.24 -24.6 M3209.55 -27.6 C3219.81 -27.96, 3228.97 -24.8, 3240.25 -25.75" stroke="#2f9e44" stroke-width="4" fill="none"></path></g></g><mask></mask><g transform="translate(2006.8868360197166 6399.3422196898155) rotate(0 743.9285133366388 54.77446451652395)"><text x="0" y="0" font-family="Virgil, Segoe UI Emoji" font-size="87.63914322643787px" fill="#2f9e44" text-anchor="start" style="white-space: pre;" direction="ltr" dominant-baseline="text-before-edge">WAL 0 has been renamed to WAL7</text></g><g stroke-linecap="round"><g transform="translate(3704.8108938049854 4208.564379146426) rotate(0 0.026434346673795517 -144.4631033504811)"><path d="M0.17 -0.19 C0.18 -48.43, 0.09 -241.11, 0.1 -289.29 M-0.1 0.37 C-0.13 -47.86, -0.13 -240.82, -0.08 -289.06" stroke="#1971c2" stroke-width="4" fill="none"></path></g><g transform="translate(3704.8108938049854 4208.564379146426) rotate(0 0.026434346673795517 -144.4631033504811)"><path d="M9.81 -260.67 C6.26 -269.48, 3 -279.48, 0.36 -289.33 M10.2 -260.83 C6.12 -271.34, 2.32 -282.02, 0.11 -289.17" stroke="#1971c2" stroke-width="4" fill="none"></path></g><g transform="translate(3704.8108938049854 4208.564379146426) rotate(0 0.026434346673795517 -144.4631033504811)"><path d="M-10.71 -260.68 C-7.64 -269.52, -4.28 -279.51, 0.36 -289.33 M-10.33 -260.84 C-6.63 -271.32, -2.67 -282.01, 0.11 -289.17" stroke="#1971c2" stroke-width="4" fill="none"></path></g></g><mask></mask><g transform="translate(3775.58497342643 3990.34430031364) rotate(0 424.4454337291836 79.62083957412506)"><text x="0" y="0" font-family="Virgil, Segoe UI Emoji" font-size="127.39334331860054px" fill="#1971c2" text-anchor="start" style="white-space: pre;" direction="ltr" dominant-baseline="text-before-edge">Do checkpoint</text></g><g stroke-linecap="round"><g transform="translate(3645.8324941204482 6432.050047253482) rotate(0 -3.0279651263067535 -188.65654947282383)"><path d="M-0.01 0.12 C-1 -62.82, -4.87 -314.53, -5.82 -377.43 M-0.42 -0.1 C-1.45 -63.01, -5.14 -314.04, -6.04 -377" stroke="#1971c2" stroke-width="4" fill="none"></path></g><g transform="translate(3645.8324941204482 6432.050047253482) rotate(0 -3.0279651263067535 -188.65654947282383)"><path d="M4.85 -348.82 C1.04 -358.07, -2.28 -367.25, -5.61 -376.78 M4.84 -348.97 C0.44 -359.84, -3.92 -371.38, -6.09 -376.88" stroke="#1971c2" stroke-width="4" fill="none"></path></g><g transform="translate(3645.8324941204482 6432.050047253482) rotate(0 -3.0279651263067535 -188.65654947282383)"><path d="M-15.67 -348.52 C-12.59 -357.87, -9.03 -367.15, -5.61 -376.78 M-15.68 -348.67 C-11.95 -359.64, -8.18 -371.3, -6.09 -376.88" stroke="#1971c2" stroke-width="4" fill="none"></path></g></g><mask></mask><g transform="translate(3705.0099378044697 6163.698328688837) rotate(0 506.76207195594316 79.62083957412506)"><text x="0" y="0" font-family="Virgil, Segoe UI Emoji" font-size="127.39334331860054px" fill="#1971c2" text-anchor="start" style="white-space: pre;" direction="ltr" dominant-baseline="text-before-edge">New REDO point</text></g><g stroke-linecap="round"><g transform="translate(1192.3310672436974 6455.6414071272975) rotate(0 177.47686669111454 -199.8009702700174)"><path d="M-0.04 -1.39 C59.41 -68.28, 298.2 -332.43, 358.46 -399.47 M-3.51 4.02 C55.29 -63.84, 294.82 -335.96, 355.52 -403.63" stroke="#e03131" stroke-width="4" fill="none"></path></g><g transform="translate(1192.3310672436974 6455.6414071272975) rotate(0 177.47686669111454 -199.8009702700174)"><path d="M342.49 -377.59 C350.37 -383.32, 348.39 -398.94, 358.65 -402.88 M343.06 -375.8 C350.63 -387.77, 352.31 -398.58, 353.72 -404.01" stroke="#e03131" stroke-width="4" fill="none"></path></g><g transform="translate(1192.3310672436974 6455.6414071272975) rotate(0 177.47686669111454 -199.8009702700174)"><path d="M327.14 -391.21 C340.77 -391.99, 344.35 -402.68, 358.65 -402.88 M327.71 -389.42 C340.93 -396.33, 348.47 -401.93, 353.72 -404.01" stroke="#e03131" stroke-width="4" fill="none"></path></g></g><mask></mask><g transform="translate(460.99891115543505 6166.647248673064) rotate(0 365.0959487141729 100.26327946371384)"><text x="0" y="0" font-family="Virgil, Segoe UI Emoji" font-size="80.21062357097105px" fill="#e03131" text-anchor="start" style="white-space: pre;" direction="ltr" dominant-baseline="text-before-edge">WAL1 and WAL2 </text><text x="0" y="100.26327946371381" font-family="Virgil, Segoe UI Emoji" font-size="80.21062357097105px" fill="#e03131" text-anchor="start" style="white-space: pre;" direction="ltr" dominant-baseline="text-before-edge">have been removed</text></g><g stroke-linecap="round"><g transform="translate(2718.998911155435 4194.747721739097) rotate(0 0.09248636760685258 349.99258553436175)"><path d="M0.28 0.06 C0.26 116.7, 0.11 583.5, 0.1 700.16 M0.05 -0.18 C-0.02 116.51, -0.1 582.96, -0.09 699.72" stroke="#1e1e1e" stroke-width="4" fill="none"></path></g><g transform="translate(2718.998911155435 4194.747721739097) rotate(0 0.09248636760685258 349.99258553436175)"><path d="M-10.24 671.71 C-6.18 682.33, -2.65 692.6, 0.17 700.1 M-10.44 671.65 C-7.55 679.13, -4.6 687.06, 0.09 699.82" stroke="#1e1e1e" stroke-width="4" fill="none"></path></g><g transform="translate(2718.998911155435 4194.747721739097) rotate(0 0.09248636760685258 349.99258553436175)"><path d="M10.28 671.71 C6.76 682.38, 2.71 692.66, 0.17 700.1 M10.08 671.65 C7.31 679.09, 4.6 687.02, 0.09 699.82" stroke="#1e1e1e" stroke-width="4" fill="none"></path></g></g><mask></mask><g transform="translate(2242.4929753048427 2675.3191503105245) rotate(0 449.68749046325456 75)"><text x="0" y="0" font-family="Virgil, Segoe UI Emoji" font-size="119.99999999999942px" fill="#f08c00" text-anchor="start" style="white-space: pre;" direction="ltr" dominant-baseline="text-before-edge">min_wal_size &lt;</text></g><g transform="translate(2249.2846254411497 2865.9858169771906) rotate(0 438.0333251953125 38.87699152132245)"><text x="0" y="0" font-family="Virgil, Segoe UI Emoji" font-size="62.20318643411622px" fill="#f08c00" text-anchor="start" style="white-space: pre;" direction="ltr" dominant-baseline="text-before-edge">(default, 80 MB, or 5 files)</text></g><g transform="translate(4451.597134977893 2672.775492122535) rotate(0 482.3333435058594 75)"><text x="0" y="0" font-family="Virgil, Segoe UI Emoji" font-size="119.99999999999942px" fill="#f08c00" text-anchor="start" style="white-space: pre;" direction="ltr" dominant-baseline="text-before-edge">&lt; max_wal_size</text></g><g transform="translate(4518.3887851142 2866.775492122537) rotate(0 411.8083190917969 38.87699152132245)"><text x="0" y="0" font-family="Virgil, Segoe UI Emoji" font-size="62.20318643411622px" fill="#f08c00" text-anchor="start" style="white-space: pre;" direction="ltr" dominant-baseline="text-before-edge">(default 1 GB, or 64 files)</text></g></svg>