<svg version="1.1" xmlns="http://www.w3.org/2000/svg" viewBox="0 0 969.5 495.79338273920615" width="969.5" height="495.79338273920615">
  <!-- svg-source:excalidraw -->
  
  <defs>
    <style class="style-fonts">
      @font-face {
        font-family: "Virgil";
        src: url("https://excalidraw.com/Virgil.woff2");
      }
      @font-face {
        font-family: "Cascadia";
        src: url("https://excalidraw.com/Cascadia.woff2");
      }
    </style>
    
  </defs>
  <g stroke-linecap="round" transform="translate(583.5 169) rotate(0 188 124.99999999999999)"><path d="M32 0 C113.75 1.85, 198.01 -0.9, 344 0 C364.35 2.35, 379.24 14.26, 376 32 C375.14 75.01, 372.89 111.43, 376 218 C375.79 240.27, 365.31 250.57, 344 250 C255.05 252.53, 160.37 251.4, 32 250 C12.56 246.41, 0.64 242.01, 0 218 C2.72 171.39, 1.2 126.21, 0 32 C-3.53 12.94, 7.14 -3.28, 32 0" stroke="none" stroke-width="0" fill="#a5d8ff"></path><path d="M32 0 C124.71 -2.36, 215.9 -0.39, 344 0 M32 0 C144.57 -0.98, 256.16 -0.84, 344 0 M344 0 C366.95 -0.86, 377.55 10.35, 376 32 M344 0 C366.2 1.05, 376.59 11.49, 376 32 M376 32 C373.01 82.31, 373.05 131.9, 376 218 M376 32 C376.81 91.22, 376.57 151.67, 376 218 M376 218 C377.74 237.47, 366.45 248.09, 344 250 M376 218 C375.23 238.34, 364.12 248.77, 344 250 M344 250 C270.1 247.26, 195.4 247.71, 32 250 M344 250 C229.06 251.27, 113.6 251.04, 32 250 M32 250 C11.1 249.47, -0.52 238.01, 0 218 M32 250 C12.05 250.92, 1.2 241.25, 0 218 M0 218 C-0.42 145.79, -0.73 77.75, 0 32 M0 218 C-1.23 157.27, -1.66 95.2, 0 32 M0 32 C0.77 10.33, 12.66 0.26, 32 0 M0 32 C2.11 12.01, 11.01 -1.47, 32 0" stroke="#1e1e1e" stroke-width="1" fill="none"></path></g><g transform="translate(741.8083324432373 281.5) rotate(0 29.691667556762695 12.5)"><text x="29.691667556762695" y="0" font-family="Virgil, Segoe UI Emoji" font-size="20px" fill="#1e1e1e" text-anchor="middle" style="white-space: pre;" direction="ltr" dominant-baseline="text-before-edge">logical</text></g><g stroke-linecap="round" transform="translate(598.5 226) rotate(0 154.5 90)"><path d="M32 0 C113.97 -5.81, 195.72 -2.91, 277 0 C296.29 -2.19, 309.4 7.28, 309 32 C311.33 61.18, 313.6 95.73, 309 148 C311.59 166.23, 298.98 182.96, 277 180 C190.01 181.95, 98.82 181.1, 32 180 C8.74 180.67, -1.13 168.12, 0 148 C-1.55 117.8, -0.92 80.77, 0 32 C-2.16 10.24, 7.38 1.62, 32 0" stroke="none" stroke-width="0" fill="#ffc9c9"></path><path d="M32 0 C83.03 0.43, 131.57 3.2, 277 0 M32 0 C111.84 2.37, 192.8 1.66, 277 0 M277 0 C299.65 0.59, 308.09 9.35, 309 32 M277 0 C296.05 1.84, 308.95 9.41, 309 32 M309 32 C310.53 70.28, 310 108.95, 309 148 M309 32 C309.93 76.32, 309.79 122.31, 309 148 M309 148 C310.21 167.6, 296.86 180.75, 277 180 M309 148 C308.93 167.63, 299.15 178.63, 277 180 M277 180 C193.02 181.89, 110.52 182.36, 32 180 M277 180 C187.91 181.88, 100.01 181.39, 32 180 M32 180 C9.52 180.04, -0.08 169.93, 0 148 M32 180 C12.55 181.12, 0.37 169.81, 0 148 M0 148 C-0.45 115.84, -0.24 79.07, 0 32 M0 148 C1.1 120.15, 1.88 92.38, 0 32 M0 32 C0.51 11.86, 9.56 -1.28, 32 0 M0 32 C0 11.52, 11.61 1.09, 32 0" stroke="#1e1e1e" stroke-width="1" fill="none"></path></g><g stroke-linecap="round" transform="translate(193 292) rotate(0 64.5 32)"><path d="M16 0 C51.82 1.43, 86.61 2.25, 113 0 C125.05 0.91, 127.34 5.39, 129 16 C127.33 28.11, 127.2 34.87, 129 48 C129.36 57.51, 120.53 61.51, 113 64 C85.87 65.61, 54.5 64.57, 16 64 C2.05 61.49, 3.1 62.18, 0 48 C-0.01 42.96, 1.9 32.83, 0 16 C2.22 3.91, 8.05 -0.48, 16 0" stroke="none" stroke-width="0" fill="#ffc9c9"></path><path d="M16 0 C53.23 1.83, 93.53 0.74, 113 0 M16 0 C51.23 -0.34, 86.59 -0.38, 113 0 M113 0 C124.41 0.04, 128.05 3.64, 129 16 M113 0 C125.83 -0.83, 128.93 4.14, 129 16 M129 16 C130.56 25.02, 128.89 33.29, 129 48 M129 16 C129.43 22.23, 128.68 29.54, 129 48 M129 48 C128.99 58.96, 123.74 65.48, 113 64 M129 48 C128.11 58.64, 121.44 65.09, 113 64 M113 64 C89.07 62.32, 60.46 65.51, 16 64 M113 64 C85.2 64.93, 58.69 64.43, 16 64 M16 64 C3.88 65.68, -0.2 60.18, 0 48 M16 64 C7.42 66.1, -1.48 57.87, 0 48 M0 48 C-0.87 34.52, 1.2 25.26, 0 16 M0 48 C-0.45 39.61, -1.22 31.68, 0 16 M0 16 C0.4 4.82, 5.44 -1.6, 16 0 M0 16 C1.44 4.91, 4.35 2.04, 16 0" stroke="#1e1e1e" stroke-width="1" fill="none"></path></g><g transform="translate(226.2916660308838 311.5) rotate(0 31.20833396911621 12.5)"><text x="31.20833396911621" y="0" font-family="Virgil, Segoe UI Emoji" font-size="20px" fill="#1e1e1e" text-anchor="middle" style="white-space: pre;" direction="ltr" dominant-baseline="text-before-edge">replica</text></g><g transform="translate(405.4 10) rotate(0 101.67500000000001 24.5)"><text x="0" y="0" font-family="Virgil, Segoe UI Emoji" font-size="39.2px" fill="#1e1e1e" text-anchor="start" style="white-space: pre;" direction="ltr" dominant-baseline="text-before-edge">WAL levels</text></g><g transform="translate(241 81) rotate(0 270.7250061035156 12.5)"><text x="0" y="0" font-family="Virgil, Segoe UI Emoji" font-size="20px" fill="#1e1e1e" text-anchor="start" style="white-space: pre;" direction="ltr" dominant-baseline="text-before-edge">determines how much information is written to the WAL</text></g><g stroke-linecap="round"><g transform="translate(159 459.01892769900655) rotate(0 -0.9109689152199394 -146.0237156680166)"><path d="M-0.11 0.02 C-0.43 -48.65, -1.54 -243.38, -1.88 -292.06 M0.11 -0.11 C-0.22 -48.75, -1.6 -243.25, -1.93 -291.9" stroke="#1e1e1e" stroke-width="1" fill="none"></path></g><g transform="translate(159 459.01892769900655) rotate(0 -0.9109689152199394 -146.0237156680166)"><path d="M8.53 -263.79 C5.25 -272.48, 1.78 -281.94, -1.93 -291.9 M8.53 -263.79 C6.18 -270.04, 3.76 -276.44, -1.93 -291.9" stroke="#1e1e1e" stroke-width="1" fill="none"></path></g><g transform="translate(159 459.01892769900655) rotate(0 -0.9109689152199394 -146.0237156680166)"><path d="M-12 -263.64 C-8.75 -272.36, -5.72 -281.86, -1.93 -291.9 M-12 -263.64 C-9.75 -269.91, -7.58 -276.35, -1.93 -291.9" stroke="#1e1e1e" stroke-width="1" fill="none"></path></g></g><mask></mask><g transform="translate(10 159) rotate(0 54.94166564941406 25)"><text x="0" y="0" font-family="Virgil, Segoe UI Emoji" font-size="20px" fill="#1e1e1e" text-anchor="start" style="white-space: pre;" direction="ltr" dominant-baseline="text-before-edge">amount of </text><text x="0" y="25" font-family="Virgil, Segoe UI Emoji" font-size="20px" fill="#1e1e1e" text-anchor="start" style="white-space: pre;" direction="ltr" dominant-baseline="text-before-edge">information</text></g><g stroke-linecap="round" transform="translate(192.5 393) rotate(0 64.5 32)"><path d="M16 0 C53.1 1.24, 80.25 3.61, 113 0 C125.74 2.9, 132.18 2.65, 129 16 C128.05 24.46, 131.39 29.61, 129 48 C127.07 61.76, 124.21 63.8, 113 64 C78.42 65.37, 34.45 60.19, 16 64 C3.16 65.15, 1.6 55.61, 0 48 C-1.56 37.42, -0.54 23.49, 0 16 C2.66 2.69, 4.74 -2.66, 16 0" stroke="none" stroke-width="0" fill="#ffec99"></path><path d="M16 0 C37.55 0.33, 54.13 0.33, 113 0 M16 0 C47.76 0.97, 79.3 0.5, 113 0 M113 0 C124.6 -0.18, 127.88 4.81, 129 16 M113 0 C123.58 2.25, 130.43 5.6, 129 16 M129 16 C129.47 26.16, 128.25 35.17, 129 48 M129 16 C128.54 26.56, 129.72 35.63, 129 48 M129 48 C127.27 58.59, 124.49 62.45, 113 64 M129 48 C127.05 57.65, 125.88 64.87, 113 64 M113 64 C92.35 65.65, 68.06 64.63, 16 64 M113 64 C77.69 63.13, 42.7 63.31, 16 64 M16 64 C4.26 64.7, -0.61 60.43, 0 48 M16 64 C6.26 63.28, -1.42 60.9, 0 48 M0 48 C1.23 37.6, 1.97 29.96, 0 16 M0 48 C-0.65 37.56, 0.32 24.9, 0 16 M0 16 C0.9 6.23, 4.49 -2, 16 0 M0 16 C0.77 6.61, 5.13 -0.27, 16 0" stroke="#1e1e1e" stroke-width="1" fill="none"></path></g><g transform="translate(225.98333358764648 412.5) rotate(0 31.016666412353516 12.5)"><text x="31.016666412353516" y="0" font-family="Virgil, Segoe UI Emoji" font-size="20px" fill="#1e1e1e" text-anchor="middle" style="white-space: pre;" direction="ltr" dominant-baseline="text-before-edge">minimal</text></g><g transform="translate(344 298) rotate(0 71.28333282470703 25)"><text x="0" y="0" font-family="Virgil, Segoe UI Emoji" font-size="20px" fill="#1e1e1e" text-anchor="start" style="white-space: pre;" direction="ltr" dominant-baseline="text-before-edge">WAL archiving</text><text x="0" y="25" font-family="Virgil, Segoe UI Emoji" font-size="20px" fill="#1e1e1e" text-anchor="start" style="white-space: pre;" direction="ltr" dominant-baseline="text-before-edge">and replication</text></g><g transform="translate(341 389) rotate(0 97.19166564941406 37.5)"><text x="0" y="0" font-family="Virgil, Segoe UI Emoji" font-size="20px" fill="#1e1e1e" text-anchor="start" style="white-space: pre;" direction="ltr" dominant-baseline="text-before-edge">recover from a</text><text x="0" y="25" font-family="Virgil, Segoe UI Emoji" font-size="20px" fill="#1e1e1e" text-anchor="start" style="white-space: pre;" direction="ltr" dominant-baseline="text-before-edge">crash or immediate </text><text x="0" y="50" font-family="Virgil, Segoe UI Emoji" font-size="20px" fill="#1e1e1e" text-anchor="start" style="white-space: pre;" direction="ltr" dominant-baseline="text-before-edge">shutdown</text></g><g stroke-linecap="round" transform="translate(191.5 193) rotate(0 64.5 32)"><path d="M16 0 C33.84 4.71, 57.7 2.21, 113 0 C120.18 2.58, 131.5 1.87, 129 16 C130.87 26.15, 131.33 39.53, 129 48 C127.86 56.97, 122.81 65.4, 113 64 C77.89 66.51, 51.56 61.89, 16 64 C7.76 63.95, -0.08 60.62, 0 48 C1.32 38.83, 3.62 26.82, 0 16 C-1.24 5.26, 5.4 -0.3, 16 0" stroke="none" stroke-width="0" fill="#a5d8ff"></path><path d="M16 0 C40.77 -0.08, 61.76 1.04, 113 0 M16 0 C51.17 0.48, 85.73 -1.24, 113 0 M113 0 C124.43 -1.52, 129.98 7.04, 129 16 M113 0 C124.72 -2.24, 128.55 7.39, 129 16 M129 16 C129.22 28.54, 130.04 41, 129 48 M129 16 C129.67 22.87, 128.42 31.02, 129 48 M129 48 C130.69 59.47, 122.19 64.12, 113 64 M129 48 C130.96 56.5, 122.69 61.83, 113 64 M113 64 C87.48 65.56, 62.39 62.72, 16 64 M113 64 C86.01 63.19, 59.84 64.23, 16 64 M16 64 C6.98 65.92, 1.18 60.56, 0 48 M16 64 C4.72 63.57, -0.31 57.63, 0 48 M0 48 C-0.19 37.97, -0.92 25.39, 0 16 M0 48 C0.04 35.34, -0.13 23.06, 0 16 M0 16 C-1.6 6.7, 6.47 -1.44, 16 0 M0 16 C-1.18 7.62, 6.24 -0.1, 16 0" stroke="#1e1e1e" stroke-width="1" fill="none"></path></g><g transform="translate(226.3083324432373 212.5) rotate(0 29.691667556762695 12.5)"><text x="29.691667556762695" y="0" font-family="Virgil, Segoe UI Emoji" font-size="20px" fill="#1e1e1e" text-anchor="middle" style="white-space: pre;" direction="ltr" dominant-baseline="text-before-edge">logical</text></g><g transform="translate(339 208) rotate(0 73.96666717529297 12.5)"><text x="0" y="0" font-family="Virgil, Segoe UI Emoji" font-size="20px" fill="#1e1e1e" text-anchor="start" style="white-space: pre;" direction="ltr" dominant-baseline="text-before-edge">logical decoding</text></g><g stroke-linecap="round" transform="translate(611.5 334) rotate(0 64.5 32)"><path d="M16 0 C44.18 -3.6, 66.46 2.23, 113 0 C123.51 -0.36, 131.36 6.4, 129 16 C131.5 24.07, 126.65 33.25, 129 48 C128.38 61.72, 126.77 64.71, 113 64 C79.53 65.47, 44.83 63.45, 16 64 C6.51 65.86, 2.17 55.55, 0 48 C-2.88 42.02, -2.36 34.82, 0 16 C-1 7.38, 2.1 1.62, 16 0" stroke="none" stroke-width="0" fill="#ffec99"></path><path d="M16 0 C47.85 -2.69, 79.11 -2.12, 113 0 M16 0 C41.76 0.89, 67.42 -0.08, 113 0 M113 0 C124.6 -1.63, 130.47 6.03, 129 16 M113 0 C122.92 0.08, 129.68 7.12, 129 16 M129 16 C128.93 25.56, 127.22 38.25, 129 48 M129 16 C129 23.85, 129.95 29.53, 129 48 M129 48 C129.14 57.66, 125.48 62.4, 113 64 M129 48 C128.74 57.92, 121.88 62.21, 113 64 M113 64 C89.21 64.23, 62.47 63.22, 16 64 M113 64 C77.13 63.5, 43.01 63.27, 16 64 M16 64 C6.98 62.62, 0.64 60, 0 48 M16 64 C6.69 62.95, 0.52 58.25, 0 48 M0 48 C-2.08 37.29, -0.98 30.26, 0 16 M0 48 C-0.05 40.32, -1.25 32.45, 0 16 M0 16 C1.93 4.7, 3.7 -1.92, 16 0 M0 16 C-2.27 3.31, 6.76 -1.88, 16 0" stroke="#1e1e1e" stroke-width="1" fill="none"></path></g><g transform="translate(644.9833335876465 353.5) rotate(0 31.016666412353516 12.5)"><text x="31.016666412353516" y="0" font-family="Virgil, Segoe UI Emoji" font-size="20px" fill="#1e1e1e" text-anchor="middle" style="white-space: pre;" direction="ltr" dominant-baseline="text-before-edge">minimal</text></g><g transform="translate(745 275) rotate(0 31.20833396911621 12.5)"><text x="0" y="0" font-family="Virgil, Segoe UI Emoji" font-size="20px" fill="#1e1e1e" text-anchor="start" style="white-space: pre;" direction="ltr" dominant-baseline="text-before-edge">replica</text></g><g transform="translate(829 186) rotate(0 29.691667556762695 12.5)"><text x="0" y="0" font-family="Virgil, Segoe UI Emoji" font-size="20px" fill="#1e1e1e" text-anchor="start" style="white-space: pre;" direction="ltr" dominant-baseline="text-before-edge">logical</text></g><g transform="translate(609 436.20661726079385) rotate(0 168.13333129882812 24.793382739206145)"><text x="0" y="0" font-family="Virgil, Segoe UI Emoji" font-size="19.834706191364916px" fill="#1e1e1e" text-anchor="start" style="white-space: pre;" direction="ltr" dominant-baseline="text-before-edge">Each level includes the information</text><text x="0" y="24.793382739206145" font-family="Virgil, Segoe UI Emoji" font-size="19.834706191364916px" fill="#1e1e1e" text-anchor="start" style="white-space: pre;" direction="ltr" dominant-baseline="text-before-edge">logged at all lower levels.</text></g></svg>